<?xml version="1.0" encoding="utf-8"?>
<!-- Generator: Adobe Illustrator 17.0.0, SVG Export Plug-In . SVG Version: 6.00 Build 0)  -->
<!DOCTYPE svg PUBLIC "-//W3C//DTD SVG 1.1//EN" "http://www.w3.org/Graphics/SVG/1.1/DTD/svg11.dtd">
<svg version="1.1" id="Layer_1" xmlns="http://www.w3.org/2000/svg"  x="0px" y="0px"
	 width="109.968px" height="105.148px" viewBox="109.526 6.849 109.968 105.148"
	 enable-background="new 109.526 6.849 109.968 105.148" xml:space="preserve">
<g id="left">
	<path fill="#FFFFFF" d="M198.74,10.438c0,0,1.5,0.813,2.563,3.313c0.566,1.332,3.119,7.756,5.381,13.468
		c1.151-1.213,2.365-2.001,5.882-1.819c3.516,0.182,6.669,0.121,6.852,2.85c0.182,2.729-1.819,5.518-4.729,5.942
		c-2.269,0.33-3.609,0.891-4.409,2.122c0.093,0.235,0.148,0.375,0.148,0.375s-0.75,3.25-0.938,3.625c0,0-9.625-23.625-10.688-25.438
		c-0.895-1.526-2.063-2.313-2.063-2.313L198.74,10.438z"/>
</g>
<g id="right">
	<path fill="#FFFFFF" d="M130.375,10.438c0,0-1.5,0.813-2.563,3.313c-0.566,1.332-3.119,7.756-5.381,13.468
		c-1.151-1.213-2.365-2.001-5.882-1.819c-3.516,0.182-6.669,0.121-6.852,2.85c-0.182,2.729,1.819,5.518,4.729,5.942
		c2.269,0.33,3.609,0.891,4.409,2.122c-0.093,0.235-0.148,0.375-0.148,0.375s0.75,3.25,0.938,3.625c0,0,9.625-23.625,10.688-25.438
		c0.895-1.526,2.063-2.313,2.063-2.313L130.375,10.438z"/>
</g>
<g id="front-windscreen">
	<path fill="#FFFFFF" d="M207.898,37.008h-87.28l0.244-0.597c0.319-0.781,7.822-19.155,8.741-21.124
		c0.046-0.12,1.415-3.565,4.175-4.13c4.934-1.009,19.968-1.16,28.49-1.16c11.928,0,24.797,0.302,28.688,0.672l0.53,0.05
		c3.723,0.35,5.593,0.526,7.237,3.162c0.789,1.264,8.618,21.67,8.951,22.538L207.898,37.008z"/>
</g>
<g id="front">
	<path fill="#FF3947" d="M121.25,36.5l-1.75,3.375c0,0,2.625,5.375,8.375,8c5.75,2.625,9.125,4.5,9.125,4.5L126.625,52.5l0.125,22
		h9.75v20.25h56.125V75H201V52.25h-9.75c0,0,10.462-5.055,13.625-7.75c3.375-2.875,4.375-4.292,4.375-4.292l-1.583-3.542
		L121.25,36.5z"/>
</g>
<g id="front-right">
	<path fill="#FFFFFF" d="M118.917,37.167c0,0,0.5,5.5,6.583,9c6.083,3.5,11.833,5.833,11.833,5.833l-10.583,0.333v22.25h9.75v20.5
		L114.833,95c0,0-2.917-7.333-1.917-16.5l-1.25-4.667l0.417-20.917l4.167-6.5L118.917,37.167z"/>
	<path fill="#FFFFFF" d="M129.856,94.306l0.838,0.034l-0.56,15.202c0.001,1.198-0.941,2.185-2.099,2.185h-10.373
		c-1.158,0-2.1-0.987-2.1-2.201l-0.559-14.916"/>
</g>
<g id="front-right_1_">
	<path fill="#FFFFFF" d="M209.958,37.208c0,0-1.063,5.354-7.146,8.854c-6.083,3.5-11.271,5.979-11.271,5.979l9.583,0.333v22.25
		h-8.749v20.5l21.667-0.083c0,0,2.917-7.333,1.917-16.5l1.25-4.667l-0.417-20.917l-4.167-6.5L209.958,37.208z"/>
	<path fill="#FFFFFF" d="M213.873,94.652l-0.559,14.916c0,1.214-0.942,2.201-2.1,2.201H200.84c-1.158,0-2.1-0.987-2.099-2.185
		l-0.56-15.202l0.838-0.034"/>
</g>
<g id="roof">
	<path fill="#FFFFFF" d="M130.167,10.333L132,12.167c0,0,3.167-1.5,9.833-1.5c6.667,0,49.333,0.333,52.5,0.667
		c3.167,0.333,2.333,1.333,2.333,1.333l2.167-2.333c0,0-3.221-1.257-10.5-2.167c-8-1-43.5-0.667-50.167,0.333
		C132.56,9.341,130.167,10.333,130.167,10.333z"/>
</g>
<g>
	<g>
		<g>
			<path d="M211.464,111.997H200.76c-1.195,0-2.167-0.972-2.167-2.167l-0.577-14.949l0.865-0.033l0.578,14.965
				c0.001,0.734,0.584,1.318,1.302,1.318h10.704c0.718,0,1.301-0.584,1.301-1.301l0.578-14.717l0.865,0.034l-0.578,14.7
				C213.631,111.025,212.659,111.997,211.464,111.997z"/>
		</g>
	</g>
	<g>
		<g>
			<path d="M128.2,111.997h-10.704c-1.195,0-2.167-0.972-2.167-2.167l-0.577-14.683l0.865-0.034l0.578,14.7
				c0,0.735,0.584,1.318,1.302,1.318H128.2c0.717,0,1.301-0.584,1.301-1.301l0.578-14.982l0.865,0.033l-0.578,14.965
				C130.367,111.025,129.395,111.997,128.2,111.997z"/>
		</g>
	</g>
	<g>
		<g>
			<path d="M214.462,95.463h-99.954l-0.168-0.28c-0.103-0.172-2.536-4.322-2.536-13.583c0-0.801,0.416-2.395,0.56-2.922
				l-1.214-4.629c-0.38-5.657,0.322-20.656,0.352-21.292l0.007-0.139l0.069-0.121c1.438-2.514,3.191-5.538,3.615-6.093
				c0.254-0.486,1.362-4.34,1.96-6.418c0.333-1.156,0.595-2.07,0.709-2.424c2.981-9.237,6.648-17.453,9.075-22.889
				c0.331-0.742,0.636-1.424,0.907-2.038c0.862-1.955,2.849-3.431,3.951-3.745c4.077-1.163,18.899-2.041,34.477-2.041l1.074,0.001
				c12.961,0.035,26.087,0.931,29.883,2.04c1.104,0.323,3.09,1.804,3.947,3.744c0.271,0.614,0.574,1.295,0.906,2.036
				c2.427,5.437,6.095,13.653,9.077,22.892c0.114,0.354,0.377,1.267,0.709,2.423c0.598,2.079,1.707,5.935,1.961,6.419
				c0.425,0.557,2.177,3.58,3.614,6.093l0.069,0.121l0.007,0.139c0.03,0.636,0.732,15.635,0.352,21.292l-0.018,0.109l-1.196,4.52
				c0.144,0.527,0.56,2.122,0.56,2.922c0,10.301-2.475,13.514-2.58,13.646L214.462,95.463z M115.182,94.308h98.692
				c0.506-0.856,2.188-4.336,2.188-12.708c0-0.639-0.404-2.211-0.559-2.762l-0.043-0.152l1.262-4.769
				c0.348-5.35-0.28-19.413-0.351-20.966c-1.22-2.13-3.174-5.495-3.436-5.818c-0.211-0.207-0.461-0.857-2.178-6.827
				c-0.316-1.101-0.59-2.051-0.698-2.387c-2.962-9.179-6.615-17.361-9.032-22.776c-0.332-0.743-0.636-1.425-0.908-2.04
				c-0.729-1.654-2.454-2.88-3.214-3.102c-3.646-1.065-16.908-1.96-29.562-1.994l-1.07-0.001c-15.486,0-30.171,0.858-34.16,1.996
				c-0.757,0.216-2.477,1.437-3.211,3.102c-0.272,0.616-0.577,1.299-0.909,2.043c-2.417,5.414-6.069,13.595-9.031,22.773
				c-0.109,0.336-0.382,1.287-0.698,2.388c-1.716,5.969-1.966,6.619-2.198,6.849c-0.242,0.301-2.196,3.665-3.415,5.795
				c-0.071,1.553-0.699,15.617-0.351,20.966l1.262,4.769l-0.043,0.152c-0.156,0.552-0.559,2.124-0.559,2.762
				C112.958,89.223,114.664,93.259,115.182,94.308z"/>
		</g>
	</g>
	<g>
		<g>
			<path d="M207.898,37.008h-87.28l0.244-0.597c0.319-0.781,7.822-19.155,8.741-21.124c0.046-0.12,1.415-3.565,4.175-4.13
				c4.934-1.009,19.968-1.16,28.49-1.16c11.928,0,24.797,0.302,28.688,0.672l0.53,0.05c3.723,0.35,5.593,0.526,7.237,3.162
				c0.789,1.264,8.618,21.67,8.951,22.538L207.898,37.008z M121.906,36.142h84.732c-2.409-6.272-8.053-20.843-8.652-21.802
				c-1.417-2.273-2.93-2.415-6.583-2.758l-0.531-0.05c-3.868-0.368-16.701-0.668-28.606-0.668c-14.447,0-24.768,0.416-28.316,1.142
				c-2.303,0.471-3.541,3.59-3.553,3.622C129.569,17.403,123.235,32.889,121.906,36.142z"/>
		</g>
	</g>
	<g>
		<g>
			<path fill="#010101" d="M210.001,37.348c-0.102-0.905-0.902-2.889-1.609-4.639c-0.714-1.77-1.389-3.443-1.491-4.287l-0.006-0.044
				l0.004-0.044c0.002-0.029,0.276-2.857,3.645-2.857c0.311,0,0.648-0.005,1.004-0.01c0.4-0.006,0.822-0.012,1.254-0.012
				c2.002,0,6.692,0,6.692,3.334c0.001,2.402-1.392,4.26-3.821,5.097c-0.637,0.22-1.273,0.341-1.888,0.458
				c-1.823,0.348-3.027,0.578-2.922,2.936L210.001,37.348z M207.766,28.366c0.111,0.755,0.781,2.414,1.428,4.019
				c0.402,0.998,0.813,2.014,1.127,2.901c0.61-1.279,1.972-1.539,3.301-1.793c0.585-0.112,1.191-0.227,1.769-0.426
				c2.058-0.709,3.238-2.269,3.237-4.279c0-1.73-1.742-2.468-5.826-2.468c-0.428,0-0.846,0.006-1.241,0.012
				c-0.36,0.005-0.702,0.01-1.017,0.01C208.159,26.343,207.809,28.066,207.766,28.366z"/>
		</g>
	</g>
	<g>
		<g>
			<path fill="#010101" d="M119.019,37.348l-0.862-0.068c0.105-2.359-1.099-2.589-2.921-2.936c-0.615-0.118-1.251-0.239-1.888-0.458
				c-2.429-0.837-3.822-2.695-3.822-5.097c0-3.334,4.69-3.334,6.693-3.334c0.432,0,0.854,0.006,1.254,0.012
				c0.355,0.005,0.693,0.01,1.004,0.01c3.369,0,3.643,2.828,3.645,2.857l0.004,0.044l-0.005,0.044
				c-0.102,0.845-0.777,2.518-1.492,4.289C119.922,34.46,119.121,36.443,119.019,37.348z M116.218,26.32
				c-4.084,0-5.827,0.738-5.827,2.468c0,2.01,1.18,3.57,3.238,4.279c0.579,0.199,1.184,0.315,1.769,0.426
				c1.329,0.254,2.691,0.513,3.301,1.793c0.314-0.887,0.724-1.902,1.126-2.899c0.648-1.606,1.318-3.265,1.429-4.02
				c-0.041-0.294-0.388-2.023-2.778-2.023c-0.315,0-0.657-0.005-1.017-0.01C117.064,26.326,116.646,26.32,116.218,26.32z"/>
		</g>
	</g>
	<g>
		<g>
			<path d="M193.319,95.569h-57.723V80.273h57.723V95.569z M136.75,94.415h55.415V81.427H136.75V94.415z"/>
		</g>
	</g>
	<g>
		<g>
			<path d="M124.243,90.662c-2.546,0-4.618-2.072-4.618-4.618s2.072-4.618,4.618-4.618s4.618,2.072,4.618,4.618
				C128.861,88.59,126.789,90.662,124.243,90.662z M124.243,82.581c-1.91,0-3.463,1.554-3.463,3.463c0,1.91,1.554,3.463,3.463,3.463
				s3.463-1.554,3.463-3.463C127.706,84.134,126.153,82.581,124.243,82.581z"/>
		</g>
	</g>
	<g>
		<g>
			<path d="M204.527,90.662c-2.546,0-4.618-2.072-4.618-4.618s2.072-4.618,4.618-4.618c2.546,0,4.618,2.072,4.618,4.618
				C209.144,88.59,207.073,90.662,204.527,90.662z M204.527,82.581c-1.91,0-3.463,1.554-3.463,3.463c0,1.91,1.554,3.463,3.463,3.463
				s3.463-1.554,3.463-3.463C207.99,84.134,206.436,82.581,204.527,82.581z"/>
		</g>
	</g>
	<g>
		<g>
			<rect x="112.698" y="77.675" width="103.902" height="0.577"/>
		</g>
	</g>
	<g>
		<g>
			<g>
				<path d="M129.444,55.758h68.949c0.399,0,0.723-0.324,0.723-0.723s-0.324-0.723-0.723-0.723h-68.949
					c-0.399,0-0.723,0.324-0.723,0.723S129.045,55.758,129.444,55.758z M129.444,54.746h68.949c0.16,0,0.29,0.13,0.29,0.29
					s-0.13,0.29-0.29,0.29h-68.949c-0.16,0-0.29-0.13-0.29-0.29S129.284,54.746,129.444,54.746z"/>
			</g>
		</g>
		<g>
			<g>
				<path d="M198.393,57.149h-68.949c-0.399,0-0.723,0.324-0.723,0.723c0,0.398,0.324,0.722,0.723,0.722h68.949
					c0.399,0,0.723-0.324,0.723-0.722C199.115,57.473,198.791,57.149,198.393,57.149z M198.393,58.161h-68.949
					c-0.16,0-0.29-0.13-0.29-0.289c0-0.16,0.13-0.29,0.29-0.29h68.949c0.16,0,0.29,0.13,0.29,0.29
					C198.682,58.031,198.552,58.161,198.393,58.161z"/>
			</g>
		</g>
		<g>
			<g>
				<path d="M198.393,59.985h-68.949c-0.399,0-0.723,0.324-0.723,0.723c0,0.398,0.324,0.722,0.723,0.722h30.681
					c0.094-0.154,0.201-0.298,0.321-0.433h-31.002c-0.16,0-0.29-0.13-0.29-0.289c0-0.16,0.13-0.29,0.29-0.29h31.71
					c0.424-0.249,0.909-0.402,1.427-0.396c1.167,0.013,2.329,0.153,3.496,0.143c0.121-0.014,0.246-0.022,0.376-0.022
					c0.49,0,0.914,0.102,1.275,0.276h30.664c0.16,0,0.29,0.13,0.29,0.29s-0.13,0.289-0.29,0.289h-29.89
					c0.121,0.134,0.227,0.279,0.318,0.433h29.572c0.399,0,0.723-0.324,0.723-0.722C199.115,60.309,198.791,59.985,198.393,59.985z"
					/>
			</g>
		</g>
		<g>
			<g>
				<path d="M159.864,63.833h-30.42c-0.16,0-0.29-0.13-0.29-0.289c0-0.16,0.13-0.29,0.29-0.29h30.287
					c-0.014-0.115-0.036-0.228-0.036-0.346c0-0.029,0.008-0.057,0.009-0.087h-30.26c-0.399,0-0.723,0.324-0.723,0.723
					c0,0.398,0.324,0.722,0.723,0.722h30.614C159.981,64.127,159.917,63.984,159.864,63.833z"/>
			</g>
		</g>
		<g>
			<g>
				<path d="M198.393,62.821h-29.156c0.009,0.144,0.009,0.289-0.001,0.433h29.157c0.16,0,0.29,0.13,0.29,0.29
					s-0.13,0.289-0.29,0.289h-29.247c-0.037,0.148-0.087,0.293-0.146,0.433h29.392c0.399,0,0.723-0.324,0.723-0.722
					C199.115,63.145,198.791,62.821,198.393,62.821z"/>
			</g>
		</g>
		<g>
			<g>
				<path d="M198.393,65.657h-30.701c-0.305,0.141-0.656,0.226-1.05,0.248c-0.117,0.018-0.236,0.03-0.357,0.033
					c-1.237,0.031-2.467-0.131-3.704-0.144c-0.28-0.003-0.547-0.059-0.805-0.137h-32.333c-0.399,0-0.723,0.324-0.723,0.722
					c0,0.399,0.324,0.723,0.723,0.723h68.949c0.399,0,0.723-0.324,0.723-0.723C199.115,65.981,198.791,65.657,198.393,65.657z
					 M198.393,66.669h-68.949c-0.16,0-0.29-0.13-0.29-0.29s0.13-0.289,0.29-0.289h68.949c0.16,0,0.29,0.13,0.29,0.289
					C198.682,66.539,198.552,66.669,198.393,66.669z"/>
			</g>
		</g>
		<g>
			<g>
				<path d="M198.393,68.493h-68.949c-0.399,0-0.723,0.324-0.723,0.722c0,0.399,0.324,0.723,0.723,0.723h68.949
					c0.399,0,0.723-0.324,0.723-0.723C199.115,68.817,198.791,68.493,198.393,68.493z M198.393,69.505h-68.949
					c-0.16,0-0.29-0.13-0.29-0.29s0.13-0.289,0.29-0.289h68.949c0.16,0,0.29,0.13,0.29,0.289
					C198.682,69.375,198.552,69.505,198.393,69.505z"/>
			</g>
		</g>
		<g>
			<g>
				<path d="M198.393,71.329h-68.949c-0.399,0-0.723,0.324-0.723,0.722c0,0.399,0.324,0.723,0.723,0.723h68.949
					c0.399,0,0.723-0.324,0.723-0.723C199.115,71.653,198.791,71.329,198.393,71.329z M198.393,72.341h-68.949
					c-0.16,0-0.29-0.13-0.29-0.29s0.13-0.289,0.29-0.289h68.949c0.16,0,0.29,0.13,0.29,0.289
					C198.682,72.211,198.552,72.341,198.393,72.341z"/>
			</g>
		</g>
	</g>
	<g>
		<g>
			<path d="M179.686,52.353h-29.754l-0.073-0.05c-11.626-7.878-10.233-15.219-10.168-15.528l0.565,0.118
				c-0.015,0.072-1.343,7.259,9.854,14.882h29.387c0.912-0.685,9.842-7.569,9.975-14.369l0.577,0.011
				c-0.145,7.418-9.872,14.579-10.286,14.88L179.686,52.353z"/>
		</g>
	</g>
	<g>
		<g>
			<path d="M191.492,52.353l-54.037-0.018c-12.483-4.643-16.699-9.15-18.037-12.112c-0.95-2.105-0.46-3.435-0.439-3.491l0.539,0.207
				l-0.269-0.103l0.27,0.102c-0.026,0.071-2.39,7.21,18.089,14.839h53.772c1.064-0.434,18.047-7.473,18.293-14.374l0.577,0.021
				c-0.267,7.462-17.955,14.609-18.707,14.91L191.492,52.353z"/>
		</g>
	</g>
	<g>
		<g>
			<path d="M200.486,75.222H127.37c-0.69,0-1.251-0.552-1.251-1.231V53.074c0-0.678,0.561-1.231,1.251-1.231h73.116
				c0.69,0,1.251,0.552,1.251,1.231v20.917C201.737,74.67,201.176,75.222,200.486,75.222z M127.37,52.71
				c-0.213,0-0.385,0.163-0.385,0.365v20.917c0,0.201,0.173,0.365,0.385,0.365h73.116c0.213,0,0.385-0.163,0.385-0.365V53.074
				c0-0.201-0.172-0.365-0.385-0.365L127.37,52.71L127.37,52.71z"/>
		</g>
	</g>
	<g>
		<g>
			<path d="M164.51,66.358c-2.927,0-5.308-1.5-5.308-3.344s2.381-3.344,5.308-3.344s5.308,1.5,5.308,3.344
				S167.437,66.358,164.51,66.358z M164.51,60.247c-2.609,0-4.731,1.241-4.731,2.767c0,1.526,2.122,2.767,4.731,2.767
				s4.731-1.241,4.731-2.767S167.119,60.247,164.51,60.247z"/>
		</g>
	</g>
	<g>
		<g>
			<path d="M119.229,72.769c-2.337,0-3.101-2.647-3.472-4.638l-1.735-11.072c-0.037-0.601,0.184-1.184,0.603-1.643
				c0.462-0.506,1.112-0.809,1.784-0.83h9.345c0.69,0,1.251,0.561,1.251,1.251v15.681c0,0.69-0.561,1.251-1.251,1.251
				L119.229,72.769z M116.424,55.451c-0.426,0.014-0.853,0.214-1.159,0.549c-0.262,0.287-0.402,0.639-0.382,0.966l1.728,11.018
				c0.647,3.472,1.739,3.919,2.618,3.919l0.07-0.001h6.456c0.213,0,0.385-0.173,0.385-0.385v-15.68c0-0.213-0.173-0.385-0.385-0.385
				L116.424,55.451L116.424,55.451z"/>
		</g>
	</g>
	<g>
		<g>
			<path d="M208.665,72.769L208.665,72.769l-0.096-0.001h-6.43c-0.69,0-1.251-0.561-1.251-1.251v-15.68
				c0-0.69,0.561-1.251,1.251-1.251h9.33c0.685,0.022,1.336,0.324,1.798,0.831c0.419,0.458,0.64,1.042,0.608,1.601l-1.737,11.102
				C211.766,70.122,211.002,72.769,208.665,72.769z M211.456,55.451h-9.316c-0.213,0-0.386,0.173-0.386,0.385v15.681
				c0,0.213,0.173,0.385,0.386,0.385l6.525,0.001c0.879,0,1.971-0.447,2.62-3.931l1.731-11.048c0.015-0.286-0.125-0.638-0.387-0.924
				C212.324,55.665,211.896,55.465,211.456,55.451z"/>
		</g>
	</g>
</g>
</svg>
