<?xml version="1.0" encoding="utf-8"?>
<!-- Generator: Adobe Illustrator 17.0.0, SVG Export Plug-In . SVG Version: 6.00 Build 0)  -->
<!DOCTYPE svg PUBLIC "-//W3C//DTD SVG 1.1//EN" "http://www.w3.org/Graphics/SVG/1.1/DTD/svg11.dtd">
<svg version="1.1" id="Layer_1" xmlns="http://www.w3.org/2000/svg"  x="0px" y="0px"
	 width="245.557px" height="104.026px" viewBox="42.245 182.986 245.557 104.026"
	 enable-background="new 42.245 182.986 245.557 104.026" xml:space="preserve">
<g id="left">
	<path fill="#FFFFFF" d="M123.105,286.262c0,0-2.178,1.04-3.301,0.672s-3.839-1.491-5.569-4.786
		c-0.968-1.844-1.639-3.203-2.202-4.163H96.517l5.656-6.649l24.78-4.216l0.012,1.165c7.326,0,16.732,0.151,25.936,0.219
		c12.325,0.09,23.967,0.175,30.623,0.105c1.342-0.013,2.434-1.056,2.434-2.323v-1.001l2.349,1.956v7.995
		c0,1.5-1.22,2.733-2.719,2.75c-8.132,0.092-36.011,0.041-58.412,0h-8.228L123.105,286.262z"/>
</g>
<g id="right">
	<path fill="#FFFFFF" d="M123.105,183.69c0,0-2.178-1.04-3.301-0.672s-3.839,1.491-5.569,4.786
		c-0.968,1.844-1.639,3.203-2.202,4.163H96.517l5.656,6.649l24.78,4.216l0.012-1.165c7.326,0,16.732-0.151,25.936-0.219
		c12.325-0.09,23.967-0.175,30.623-0.105c1.342,0.013,2.434,1.056,2.434,2.323v1.001l2.349-1.956v-7.995
		c0-1.5-1.22-2.733-2.719-2.75c-8.132-0.092-36.011-0.041-58.412,0h-8.228L123.105,183.69z M173.384,199.991
		c-0.336,0.503-0.745,0.609-1.029,0.609h-38.034c-5.148,0-11.278-0.615-16.69-1.428l-2.689-4.161
		c6.997-0.012,15.514-0.033,24.139-0.054c14.108-0.034,28.697-0.069,37.177-0.069l0.541-0.001L173.384,199.991z"/>
</g>
<g id="side-glass">
	<path fill="#FFFFFF" d="M117.631,270.78c5.413-0.813,11.543-1.428,16.69-1.428h38.034c0.284,0,0.693,0.106,1.029,0.609l3.415,5.104
		l0,0l-0.541-0.001c-8.48,0-23.069-0.035-37.177-0.069c-8.625-0.021-17.142-0.042-24.139-0.054L117.631,270.78z"/>
	<path fill="#FFFFFF" d="M114.942,195.011c6.997-0.012,15.514-0.033,24.139-0.054c14.108-0.034,28.697-0.069,37.177-0.069
		l0.541-0.001l0,0l-3.415,5.104c-0.336,0.503-0.745,0.609-1.029,0.609h-38.034c-5.148,0-11.278-0.615-16.69-1.428L114.942,195.011z"
		/>
</g>
<g id="back">
	<path fill="#FFFFFF" d="M191.03,196.061v0.02h4.859c-0.445,0-0.807,0.357-0.807,0.794l0,76.265c0,0.438,0.362,0.795,0.807,0.795
		l-0.202,0.002l88.109,0.028c0.489-0.96,0.882-2.095,1.165-3.435c1.779-8.421,2.841-22.125,2.841-36.657
		c0-14.047-1.036-26.638-2.843-34.545l-0.032-0.098c-0.528-1.237-1.097-2.296-1.707-3.201L191.03,196.061z"/>
</g>
<g id="back-left">
	<path fill="#FFFFFF" d="M283.796,273.997c-2.719,5.343-8.379,5.294-14.319,5.242c-0.589-0.005-1.183-0.01-1.78-0.01h-10.13
		c-18.329,0-54.4,0.001-63.788,0c-1.516,0-2.749-1.246-2.749-2.777v-2.485"/>
</g>
<g id="back-right">
	<path fill="#FFFFFF" d="M191.318,195.916v-2.612c0-1.532,1.233-2.777,2.749-2.777c9.388-0.001,45.459-0.001,63.788,0l10.861-0.001
		c6.139-0.008,11.174-0.014,14.792,5.359L191.318,195.916z"/>
</g>
<g id="front-windscreen">
	<path fill="#FFFFFF" d="M127.511,203.436c0,0.205-0.047,0.407-0.141,0.601c-3.707,7.613-5.834,18.882-5.834,30.92
		s2.126,23.308,5.833,30.92c0.182,0.375,0.188,0.782,0.02,1.162c-0.193,0.433-0.516,0.706-0.912,0.771l-22.176,3.54
		c-2.958,0.472-5.677-0.328-8.08-2.378c-7.253-6.187-9.837-21.627-9.837-34.014c0-12.389,2.583-27.83,9.835-34.015
		c2.403-2.05,5.122-2.85,8.081-2.378l22.175,3.54c0.395,0.063,0.719,0.336,0.912,0.771
		C127.47,203.057,127.511,203.246,127.511,203.436z"/>
</g>
<g id="front">
	<path fill="#FFFFFF" d="M65.941,194.849c7.23-1.271,19.114-2.457,30.605-2.824l3.875,4.555l-0.373,0.086
		c0,0-30.385,2.445-50.63,17.527l-3.986,0.091c-0.661,1.723-1.266,3.861-1.777,6.62c-0.907,4.897-1.348,9.498-1.348,14.067
		s0.441,9.17,1.348,14.067c0.536,2.895,1.174,5.11,1.873,6.874l3.952,0.091c20.245,15.082,50.63,17.527,50.63,17.527l0.227,0.052
		l1.794-2.109c-2.102-0.134-4.063-0.964-5.848-2.487c-7.253-6.187-9.837-21.627-9.837-34.014c0-12.389,2.583-27.83,9.835-34.015
		c1.777-1.516,3.729-2.344,5.821-2.484l-5.494-6.458C85.084,192.383,73.165,193.574,65.941,194.849z"/>
</g>
<g id="front-right">
	<path fill="#FFFFFF" d="M49.418,214.192c20.245-15.082,50.63-17.526,50.63-17.526l0.373-0.085l-3.875-4.555
		c-16.027,0.512-32.82,2.617-36.681,4.323c-2.981,1.316-5.746,5.195-7.967,8.311c-0.954,1.339-1.779,2.496-2.428,3.173
		c-1.413,1.475-2.855,3.22-4.096,6.452L49.418,214.192z"/>
</g>
<g id="front-right_1_">
	<path fill="#FFFFFF" d="M49.418,255.989c20.245,15.082,50.63,17.527,50.63,17.527l0.373,0.085l-3.875,4.555
		c-16.027-0.512-32.82-2.617-36.681-4.323c-2.981-1.316-5.746-5.195-7.967-8.311c-0.954-1.339-1.779-2.496-2.428-3.173
		c-1.413-1.475-2.855-3.22-4.096-6.452L49.418,255.989z"/>
</g>
<g id="roof">
	<path fill="#FF3947" d="M191.253,200.255l-5.16,4.296v-1.001c0-1.267-1.092-2.31-2.434-2.323
		c-6.656-0.07-18.298,0.015-30.623,0.105c-9.204,0.068-18.723,0.137-26.049,0.137v0.618h-0.009c0,0-5.68,17.745-5.68,33.496
		s5.68,32.328,5.68,32.328h0.001v0.535c7.334,0,16.852,0.07,26.057,0.137c12.325,0.09,23.966,0.175,30.623,0.105
		c1.342-0.015,2.434-1.057,2.434-2.323v-1.05l5.16,4.425V274l4.636-0.065c-0.445,0-0.807-0.357-0.807-0.795l0-76.265
		c0-0.437,0.362-0.794,0.807-0.794h-4.636V200.255z"/>
</g>
<g>
	<g>
		<g>
			<g>
				<g>
					<path d="M111.586,277.214c-0.055-0.093-0.089-0.192-0.131-0.289c-3.117-0.004-5.818-0.007-7.936-0.007
						c-18.417,0-39.308-2.627-43.188-4.341c-2.691-1.188-5.354-4.924-7.494-7.925c-0.981-1.376-1.828-2.564-2.534-3.302
						c-2.131-2.225-4.161-4.854-5.575-12.494c-0.894-4.826-1.328-9.359-1.328-13.857s0.435-9.03,1.328-13.857
						c1.415-7.64,3.444-10.269,5.575-12.494c0.707-0.738,1.554-1.926,2.535-3.302c2.14-3.002,4.802-6.737,7.494-7.926
						c3.879-1.714,24.77-4.341,43.187-4.341c2.245,0,5.142-0.003,8.5-0.008c0.014-0.159,0.037-0.32,0.07-0.483
						c0.05-0.242,0.144-0.46,0.248-0.672c-3.494,0.005-6.502,0.008-8.818,0.008c-17.784,0-39.226,2.483-43.654,4.44
						c-2.981,1.316-5.746,5.195-7.967,8.311c-0.954,1.339-1.779,2.496-2.428,3.173c-2.167,2.262-4.405,5.135-5.877,13.082
						c-0.907,4.897-1.348,9.498-1.348,14.067l0,0c0,4.569,0.441,9.17,1.348,14.067c1.471,7.947,3.71,10.82,5.877,13.082
						c0.649,0.678,1.474,1.834,2.428,3.173c2.222,3.117,4.987,6.995,7.967,8.311c4.428,1.957,25.87,4.44,43.654,4.44
						c2.275,0,5.217,0.003,8.634,0.008h0.137c-0.035-0.032-0.075-0.056-0.108-0.09C111.956,277.755,111.751,277.493,111.586,277.214
						z"/>
				</g>
			</g>
			<g>
				<g>
					<path d="M118.461,191.907c-0.054,0.221-0.132,0.424-0.23,0.609c-0.025,0.184-0.064,0.366-0.115,0.546
						c2.906-0.005,6.015-0.011,9.256-0.017c22.398-0.041,50.273-0.092,58.397,0c0.87,0.01,1.577,0.725,1.577,1.595l0,80.714
						c0,0.871-0.707,1.587-1.577,1.597c-8.111,0.091-35.934,0.04-58.29,0l-9.271-0.016c0.211,0.322,0.357,0.707,0.412,1.155
						l8.857,0.015c22.359,0.041,50.186,0.091,58.304,0c1.499-0.016,2.719-1.251,2.719-2.751l0-80.714c0-1.5-1.22-2.733-2.719-2.75
						c-8.132-0.092-36.011-0.041-58.412,0C124.257,191.897,121.268,191.902,118.461,191.907z"/>
				</g>
			</g>
		</g>
	</g>
	<g>
		<g>
			<path d="M71.872,195.222c-3.816,0.597-6.569,1.211-7.75,1.729c-2.803,1.228-5.529,5.02-7.719,8.067
				c-0.988,1.374-1.841,2.56-2.543,3.287c-2.192,2.268-4.279,4.948-5.728,12.708c-1.806,9.672-1.806,18.298,0,27.969
				c1.449,7.762,3.536,10.441,5.728,12.71c0.702,0.727,1.556,1.914,2.543,3.288c2.19,3.047,4.916,6.838,7.719,8.067
				c1.188,0.52,3.94,1.133,7.75,1.728l-0.089,0.57c-3.913-0.61-6.642-1.222-7.892-1.769c-2.948-1.292-5.725-5.155-7.956-8.259
				c-0.975-1.356-1.816-2.527-2.489-3.223c-2.166-2.242-4.404-5.092-5.881-13.005c-1.819-9.744-1.819-18.435,0-28.181
				c1.477-7.912,3.715-10.762,5.881-13.004c0.673-0.696,1.514-1.867,2.489-3.223c2.231-3.104,5.009-6.967,7.956-8.259
				c1.57-0.689,5.158-1.343,7.892-1.771L71.872,195.222z"/>
		</g>
	</g>
	<g>
		<g>
			<path d="M186.093,203.591l0,62.816c0,1.266-1.092,2.308-2.434,2.323c-6.657,0.07-18.298-0.015-30.623-0.105
				c-9.205-0.067-18.723-0.137-26.057-0.137c-0.75,0.05-24.607,4.966-30.208,6.138l-0.03,0.006H96.71
				c-17.754-0.143-30.203-2.014-34.257-3.691c-2.908-1.202-5.648-4.801-7.849-7.692c-0.961-1.262-1.791-2.352-2.454-3
				c-2.138-2.089-4.348-4.745-5.807-12.121c-0.862-4.36-1.299-8.777-1.299-13.128s0.437-8.768,1.299-13.128
				c1.459-7.377,3.669-10.033,5.807-12.122c0.663-0.648,1.493-1.738,2.454-3.001c2.202-2.891,4.941-6.489,7.849-7.693
				c4.056-1.677,16.506-3.547,34.257-3.69l0.061,0.006c5.599,1.171,29.451,6.087,30.216,6.138c7.326,0,16.845-0.069,26.049-0.137
				c12.325-0.09,23.967-0.175,30.623-0.105C185.001,201.281,186.093,202.324,186.093,203.591z M96.682,274.055
				c2.241-0.468,29.637-6.144,30.296-6.144c7.336,0,16.855,0.07,26.062,0.137c12.322,0.09,23.961,0.175,30.613,0.105
				c1.027-0.011,1.863-0.794,1.863-1.746l0-62.816c0-0.953-0.836-1.736-1.863-1.746c-6.652-0.07-18.291,0.015-30.613,0.105
				c-9.206,0.068-18.726,0.137-26.062,0.137c-0.652,0-28.128-5.691-30.296-6.144c-17.656,0.145-30.007,1.991-34.01,3.646
				c-2.763,1.144-5.451,4.673-7.61,7.51c-0.975,1.28-1.817,2.386-2.51,3.063c-2.16,2.109-4.217,4.601-5.644,11.821
				c-0.855,4.324-1.289,8.703-1.289,13.017c0,4.313,0.433,8.693,1.289,13.016c1.428,7.22,3.484,9.711,5.644,11.821
				c0.693,0.678,1.535,1.783,2.51,3.063c2.16,2.836,4.847,6.366,7.611,7.509C66.673,272.063,79.023,273.91,96.682,274.055z"/>
		</g>
	</g>
	<g>
		<g>
			<path d="M127.553,203.478c0,0.205-0.047,0.407-0.141,0.601c-3.707,7.613-5.834,18.882-5.834,30.92s2.126,23.308,5.833,30.92
				c0.182,0.375,0.188,0.782,0.02,1.162c-0.193,0.433-0.516,0.706-0.912,0.771l-22.176,3.54c-2.958,0.472-5.677-0.328-8.08-2.378
				c-7.253-6.187-9.837-21.627-9.837-34.014c0-12.389,2.583-27.83,9.835-34.015c2.403-2.05,5.122-2.85,8.081-2.378l22.175,3.54
				c0.395,0.063,0.719,0.336,0.912,0.771C127.512,203.099,127.553,203.288,127.553,203.478z M121.001,234.999
				c0-12.122,2.147-23.484,5.892-31.172c0.105-0.221,0.11-0.452,0.011-0.675c-0.078-0.176-0.225-0.395-0.475-0.435l-22.176-3.54
				c-2.784-0.445-5.347,0.311-7.616,2.246c-5.851,4.991-9.632,18.17-9.632,33.575c0,15.404,3.781,28.583,9.634,33.575
				c2.269,1.935,4.831,2.691,7.614,2.247l22.175-3.54c0.251-0.041,0.397-0.259,0.476-0.435c0.099-0.224,0.096-0.453-0.011-0.676
				C123.148,258.483,121.001,247.122,121.001,234.999z"/>
		</g>
	</g>
	<g>
		<g>
			<path d="M287.802,233.938c0,14.532-1.062,28.236-2.841,36.657c-1.858,8.795-8.477,8.738-15.484,8.677
				c-0.589-0.005-1.183-0.01-1.78-0.01h-10.13c-18.329,0-54.4,0.001-63.788,0c-1.516,0-2.749-1.246-2.749-2.777l0-82.972
				c0-1.532,1.233-2.777,2.749-2.777c9.388-0.001,45.459-0.001,63.788,0l10.861-0.001c7.174-0.009,12.84-0.016,16.499,8.56
				l0.032,0.098C286.766,207.3,287.802,219.891,287.802,233.938z M192.184,276.484c0,0.895,0.715,1.623,1.595,1.623
				c9.388,0.001,45.459,0.001,63.788,0h10.13c0.6,0,1.198,0.005,1.79,0.01c6.806,0.059,12.683,0.109,14.345-7.761
				c1.737-8.223,2.816-22.178,2.816-36.419c0-13.934-1.021-26.408-2.803-34.237c-3.359-7.826-8.158-7.821-15.416-7.812
				l-10.863,0.001c-18.329-0.001-54.4-0.001-63.788,0c-0.879,0-1.595,0.728-1.595,1.623l0,82.972L192.184,276.484L192.184,276.484z"
				/>
		</g>
	</g>
	<g>
		<g>
			<path d="M281.843,202.992v64.014c0,2.104-0.553,3.671-1.691,4.793c-2.311,2.277-6.52,2.215-10.976,2.148
				c-0.726-0.011-1.454-0.021-2.174-0.021l-18.324,0.001c-13.779,0.001-29.308,0.002-52.878-0.001c-0.445,0-0.807-0.357-0.807-0.795
				l0-76.265c0-0.437,0.362-0.794,0.807-0.794c23.57-0.002,39.1-0.001,52.878-0.001l18.324,0.001c0.721,0,1.45-0.011,2.176-0.021
				c4.456-0.067,8.664-0.129,10.974,2.148C281.29,199.32,281.843,200.888,281.843,202.992z M195.569,273.13
				c0,0.118,0.105,0.218,0.229,0.218c23.57,0.002,39.1,0.001,52.878,0.001L267,273.349c0.723,0,1.454,0.011,2.183,0.022
				c4.332,0.064,8.424,0.125,10.563-1.983c1.022-1.007,1.519-2.44,1.519-4.381v-64.014c0-1.942-0.497-3.375-1.519-4.383
				c-2.138-2.107-6.229-2.046-10.56-1.981c-0.729,0.011-1.461,0.021-2.184,0.021l-18.324-0.001
				c-13.779-0.001-29.308-0.001-52.878,0.001c-0.125,0-0.229,0.099-0.229,0.216l0,76.265L195.569,273.13L195.569,273.13z"/>
		</g>
	</g>
	<g>
		<g>
			<path d="M191.253,200.151l0,69.695l-3.008-2.622l0-64.451L191.253,200.151z M190.676,268.577l0-67.157l-1.854,1.616l0,63.926
				L190.676,268.577z"/>
		</g>
	</g>
	<g>
		<g>
			<g>
				<path d="M278.298,257.938c0,1.002-0.815,1.817-1.816,1.817H199.88c-1.001,0-1.816-0.815-1.816-1.817
					c0-1.002,0.815-1.817,1.816-1.817h76.602C277.483,256.121,278.298,256.936,278.298,257.938z M198.641,257.938
					c0,0.683,0.556,1.239,1.238,1.239h76.602c0.683,0,1.238-0.556,1.238-1.239c0-0.683-0.556-1.239-1.238-1.239h-76.602
					C199.197,256.698,198.641,257.254,198.641,257.938z"/>
			</g>
		</g>
		<g>
			<g>
				<path d="M278.298,257.938c0,1.002-0.815,1.817-1.816,1.817h-69.464v-3.633h69.464
					C277.483,256.121,278.298,256.936,278.298,257.938z M207.595,259.177h68.887c0.683,0,1.238-0.556,1.238-1.239
					c0-0.683-0.556-1.239-1.238-1.239h-68.887V259.177z"/>
			</g>
		</g>
	</g>
	<g>
		<g>
			<g>
				<path d="M278.298,265.583c0,1.001-0.815,1.816-1.816,1.816H199.88c-1.001,0-1.816-0.815-1.816-1.816
					c0-1.002,0.815-1.817,1.816-1.817h76.602C277.483,263.767,278.298,264.582,278.298,265.583z M198.641,265.583
					c0,0.683,0.556,1.239,1.238,1.239h76.602c0.683,0,1.238-0.556,1.238-1.239c0-0.683-0.556-1.239-1.238-1.239h-76.602
					C199.197,264.345,198.641,264.9,198.641,265.583z"/>
			</g>
		</g>
		<g>
			<g>
				<path d="M278.298,265.583c0,1.001-0.815,1.816-1.816,1.816h-69.464v-3.633h69.464
					C277.483,263.767,278.298,264.582,278.298,265.583z M207.595,266.823h68.887c0.683,0,1.238-0.556,1.238-1.239
					c0-0.683-0.556-1.239-1.238-1.239h-68.887V266.823z"/>
			</g>
		</g>
	</g>
	<g>
		<g>
			<g>
				<path d="M278.298,250.292c0,1.002-0.815,1.817-1.816,1.817H199.88c-1.001,0-1.816-0.815-1.816-1.817s0.815-1.817,1.816-1.817
					h76.602C277.483,248.475,278.298,249.29,278.298,250.292z M198.641,250.292c0,0.683,0.556,1.239,1.238,1.239h76.602
					c0.683,0,1.238-0.556,1.238-1.239s-0.556-1.239-1.238-1.239h-76.602C199.197,249.052,198.641,249.608,198.641,250.292z"/>
			</g>
		</g>
		<g>
			<g>
				<path d="M278.298,250.292c0,1.002-0.815,1.817-1.816,1.817h-69.464v-3.633h69.464
					C277.483,248.475,278.298,249.29,278.298,250.292z M207.595,251.531h68.887c0.683,0,1.238-0.556,1.238-1.239
					s-0.556-1.239-1.238-1.239h-68.887V251.531z"/>
			</g>
		</g>
	</g>
	<g>
		<g>
			<g>
				<path d="M278.298,242.645c0,1.002-0.815,1.817-1.816,1.817H199.88c-1.001,0-1.816-0.815-1.816-1.817
					c0-1.001,0.815-1.816,1.816-1.816h76.602C277.483,240.829,278.298,241.644,278.298,242.645z M198.641,242.645
					c0,0.684,0.556,1.239,1.238,1.239h76.602c0.683,0,1.238-0.556,1.238-1.239s-0.556-1.239-1.238-1.239h-76.602
					C199.197,241.406,198.641,241.962,198.641,242.645z"/>
			</g>
		</g>
		<g>
			<g>
				<path d="M278.298,242.645c0,1.002-0.815,1.817-1.816,1.817h-69.464v-3.633h69.464
					C277.483,240.829,278.298,241.644,278.298,242.645z M207.595,243.884h68.887c0.683,0,1.238-0.556,1.238-1.239
					s-0.556-1.239-1.238-1.239h-68.887V243.884z"/>
			</g>
		</g>
	</g>
	<g>
		<g>
			<g>
				<path d="M278.298,234.999c0,1.001-0.815,1.816-1.816,1.816H199.88c-1.001,0-1.816-0.815-1.816-1.816
					c0-1.002,0.815-1.817,1.816-1.817h76.602C277.483,233.182,278.298,233.998,278.298,234.999z M198.641,234.999
					c0,0.683,0.556,1.239,1.238,1.239h76.602c0.683,0,1.238-0.556,1.238-1.239c0-0.684-0.556-1.24-1.238-1.24h-76.602
					C199.197,233.76,198.641,234.316,198.641,234.999z"/>
			</g>
		</g>
		<g>
			<g>
				<path d="M278.298,234.999c0,1.001-0.815,1.816-1.816,1.816h-69.464l0-3.633h69.464
					C277.483,233.182,278.298,233.998,278.298,234.999z M207.595,236.238h68.887c0.683,0,1.238-0.556,1.238-1.239
					c0-0.684-0.556-1.24-1.238-1.24h-68.887L207.595,236.238z"/>
			</g>
		</g>
	</g>
	<g>
		<g>
			<g>
				<path d="M278.298,227.353c0,1.002-0.815,1.817-1.816,1.817H199.88c-1.001,0-1.816-0.815-1.816-1.817s0.815-1.817,1.816-1.817
					h76.602C277.483,225.536,278.298,226.351,278.298,227.353z M198.641,227.353c0,0.683,0.556,1.239,1.238,1.239h76.602
					c0.683,0,1.238-0.556,1.238-1.239s-0.556-1.239-1.238-1.239h-76.602C199.197,226.114,198.641,226.67,198.641,227.353z"/>
			</g>
		</g>
		<g>
			<g>
				<path d="M278.298,227.353c0,1.002-0.815,1.817-1.816,1.817h-69.464v-3.633h69.464
					C277.483,225.536,278.298,226.351,278.298,227.353z M207.595,228.592h68.887c0.683,0,1.238-0.556,1.238-1.239
					s-0.556-1.239-1.238-1.239h-68.887V228.592z"/>
			</g>
		</g>
	</g>
	<g>
		<g>
			<g>
				<path d="M278.298,219.707c0,1.002-0.815,1.817-1.816,1.817H199.88c-1.001,0-1.816-0.815-1.816-1.817s0.815-1.816,1.816-1.816
					h76.602C277.483,217.89,278.298,218.705,278.298,219.707z M198.641,219.707c0,0.684,0.556,1.24,1.238,1.24h76.602
					c0.683,0,1.238-0.556,1.238-1.24c0-0.683-0.556-1.239-1.238-1.239h-76.602C199.197,218.467,198.641,219.023,198.641,219.707z"/>
			</g>
		</g>
		<g>
			<g>
				<path d="M278.298,219.707c0,1.002-0.815,1.817-1.816,1.817h-69.464v-3.633h69.464
					C277.483,217.89,278.298,218.705,278.298,219.707z M207.595,220.946h68.887c0.683,0,1.238-0.556,1.238-1.24
					c0-0.683-0.556-1.239-1.238-1.239h-68.887V220.946z"/>
			</g>
		</g>
	</g>
	<g>
		<g>
			<g>
				<path d="M278.298,212.06c0,1.002-0.815,1.817-1.816,1.817H199.88c-1.001,0-1.816-0.815-1.816-1.817s0.815-1.816,1.816-1.816
					h76.602C277.483,210.244,278.298,211.059,278.298,212.06z M198.641,212.06c0,0.684,0.556,1.24,1.238,1.24h76.602
					c0.683,0,1.238-0.556,1.238-1.24c0-0.683-0.556-1.239-1.238-1.239h-76.602C199.197,210.821,198.641,211.377,198.641,212.06z"/>
			</g>
		</g>
		<g>
			<g>
				<path d="M278.298,212.06c0,1.002-0.815,1.817-1.816,1.817h-69.464v-3.633h69.464
					C277.483,210.244,278.298,211.059,278.298,212.06z M207.595,213.3h68.887c0.683,0,1.238-0.556,1.238-1.24
					c0-0.683-0.556-1.239-1.238-1.239h-68.887V213.3z"/>
			</g>
		</g>
	</g>
	<g>
		<g>
			<g>
				<path d="M278.298,204.414c0,1.002-0.815,1.816-1.816,1.816H199.88c-1.001,0-1.816-0.815-1.816-1.816s0.815-1.816,1.816-1.816
					h76.602C277.483,202.598,278.298,203.413,278.298,204.414z M198.641,204.414c0,0.683,0.556,1.239,1.238,1.239h76.602
					c0.683,0,1.238-0.556,1.238-1.239s-0.556-1.239-1.238-1.239h-76.602C199.197,203.175,198.641,203.731,198.641,204.414z"/>
			</g>
		</g>
		<g>
			<g>
				<path d="M278.298,204.414c0,1.002-0.815,1.816-1.816,1.816h-69.464v-3.633h69.464
					C277.483,202.598,278.298,203.413,278.298,204.414z M207.595,205.653h68.887c0.683,0,1.238-0.556,1.238-1.239
					s-0.556-1.239-1.238-1.239h-68.887V205.653z"/>
			</g>
		</g>
	</g>
	<g>
		<g>
			<path d="M182.186,277.854l-0.945,0.006l-0.086-0.131c-1.702-2.594-3.994-5.54-4.747-6.508l-0.131-0.168
				c-0.191-0.246-0.933-0.692-3.75-0.905l-0.14-0.011l-0.161-0.242c-0.016-0.024-0.033-0.049-0.051-0.07l-0.436-0.522l0.679,0.049
				c2.529,0.184,3.997,0.582,4.489,1.217l0.099,0.127c2.072,2.668,3.717,4.928,4.891,6.716L182.186,277.854z M106.269,274.469v3.315
				h-0.795v-3.445c0-0.095,0.035-0.188,0.099-0.261l0.37-0.426l0.129,0.55c0.018,0.079,0.054,0.146,0.095,0.181L106.269,274.469z"/>
		</g>
	</g>
	<g>
		<g>
			<path d="M176.799,275.113h-0.541c-8.367,0-22.724-0.035-36.607-0.068c-8.918-0.021-17.754-0.043-24.949-0.055l0.001-0.577
				c7.195,0.012,16.031,0.034,24.95,0.055c13.588,0.033,27.63,0.067,36.065,0.068l-2.814-4.206
				c-0.158-0.237-0.338-0.352-0.549-0.352h-38.034c-9.706,0-22.923,2.196-28.125,3.771c-0.065,0.02-0.149,0.173-0.137,0.368
				c0.014,0.19,0.107,0.286,0.144,0.286l1.958,0.001v0.577l-1.958-0.001c-0.377,0-0.686-0.353-0.72-0.82
				c-0.033-0.458,0.194-0.857,0.545-0.964c5.237-1.585,18.534-3.796,28.293-3.796h38.034c0.284,0,0.693,0.106,1.029,0.609
				L176.799,275.113z"/>
		</g>
	</g>
	<g>
		<g>
			<path d="M123.105,286.31l-0.269,0.125c-0.102,0.048-2.515,1.151-4.153,0.176c-1.705-1.014-4.549-4.321-6.356-8.099
				c-1.793-3.748-6.307-3.799-6.352-3.799h-0.156l-0.086-0.13c-0.126-0.193-0.191-0.385-0.191-0.573
				c0-1.055,1.899-1.426,3.554-1.632c0.12-0.015,0.206-0.025,0.243-0.033c1.833-0.378,8.037-1.479,8.1-1.49l0.617-0.11l-0.318,0.54
				c-0.023,0.039-0.583,0.983-1.969,2.654c-0.283,0.341-0.515,0.601-0.697,0.806c-0.222,0.249-0.431,0.485-0.445,0.561
				c0.016,0.04,0.175,0.193,0.315,0.328l0.113,0.11c0.574,0.56,1.981,0.213,2.474,0.032l0.242-0.089L123.105,286.31z
				 M106.149,274.143c0.891,0.05,4.957,0.481,6.699,4.121c1.939,4.054,4.752,7.032,6.13,7.852c1.087,0.646,2.698,0.151,3.338-0.091
				l-4.835-9.625c-0.587,0.174-2.062,0.509-2.83-0.24l-0.112-0.108c-0.306-0.296-0.49-0.474-0.49-0.748
				c0-0.276,0.185-0.485,0.591-0.941c0.179-0.201,0.406-0.457,0.684-0.791c0.748-0.902,1.253-1.592,1.556-2.03
				c-1.655,0.295-5.956,1.067-7.425,1.37c-0.045,0.009-0.146,0.023-0.288,0.04c-2.751,0.342-3.048,0.854-3.048,1.059
				C106.12,274.051,106.129,274.095,106.149,274.143z"/>
		</g>
	</g>
	<g>
		<g>
			<path d="M122.238,286.674l-0.34,0.096c-0.912,0.258-2.21,0.441-3.216-0.158c-2.26-0.911-4.233-3.416-6.358-8.104
				c-0.298-0.621-0.691-1.183-1.166-1.663l-0.344-0.348l3.882-1.1l0.358,0.35c0.351,0.341,1.001,0.335,1.484,0.269l0.202-0.027
				L122.238,286.674z M111.893,276.79c0.378,0.442,0.698,0.935,0.955,1.472c2.061,4.548,3.939,6.962,6.091,7.832
				c0.751,0.443,1.698,0.379,2.459,0.206l-4.985-9.691c-0.786,0.073-1.378-0.078-1.762-0.452l-0.119-0.116L111.893,276.79z"/>
		</g>
	</g>
	<g>
		<g>
			<path d="M182.186,192.146l-0.291,0.444c-1.171,1.784-2.815,4.042-4.887,6.71l-0.103,0.132c-0.492,0.635-1.961,1.033-4.489,1.217
				l-0.674,0.049l0.431-0.521c0.019-0.022,0.036-0.047,0.053-0.072l0.16,0.759l0.141-1.012c2.817-0.213,3.559-0.659,3.75-0.905
				l0.135-0.174c0.753-0.968,3.043-3.914,4.742-6.502l0.086-0.131L182.186,192.146z M106.269,192.216v3.315l-0.103,0.087
				c-0.041,0.034-0.076,0.102-0.094,0.18l-0.122,0.526l-0.37-0.394c-0.068-0.073-0.105-0.168-0.105-0.269v-3.445H106.269z"/>
		</g>
	</g>
	<g>
		<g>
			<path d="M176.799,194.887l-3.415,5.104c-0.336,0.503-0.745,0.609-1.029,0.609h-38.034c-9.762,0-23.057-2.211-28.292-3.795
				c-0.352-0.107-0.585-0.515-0.545-0.966c0.033-0.464,0.342-0.816,0.719-0.816l1.597-0.001l0.001,0.577l-1.598,0.001
				c-0.042,0-0.131,0.1-0.144,0.282c-0.023,0.198,0.07,0.35,0.137,0.37c5.2,1.574,18.415,3.771,28.124,3.771h38.034
				c0.211,0,0.391-0.116,0.549-0.352l2.814-4.206c-8.55,0.002-22.823,0.036-36.635,0.069c-8.625,0.021-17.142,0.042-24.139,0.054
				l-0.001-0.577c6.997-0.012,15.514-0.033,24.139-0.054c14.108-0.034,28.697-0.069,37.177-0.069L176.799,194.887L176.799,194.887z"
				/>
		</g>
	</g>
	<g>
		<g>
			<path d="M123.105,183.69l-5.335,10.623l-0.242-0.089c-0.493-0.181-1.9-0.529-2.475,0.03l-0.113,0.109
				c-0.14,0.135-0.298,0.288-0.316,0.342c0.015,0.063,0.225,0.298,0.446,0.547c0.183,0.205,0.414,0.466,0.697,0.807
				c1.386,1.671,1.946,2.614,1.969,2.653l0.318,0.54l-0.617-0.109c-0.063-0.011-6.267-1.112-8.099-1.49
				c-0.038-0.008-0.125-0.017-0.245-0.033c-1.654-0.205-3.552-0.577-3.552-1.63c0-0.188,0.064-0.381,0.191-0.573l0.085-0.129
				l0.156-0.001c0.045,0,4.559-0.052,6.352-3.801c1.807-3.778,4.651-7.085,6.356-8.099c1.639-0.974,4.051,0.129,4.153,0.176
				L123.105,183.69z M117.481,193.602l4.835-9.627c-0.64-0.241-2.251-0.737-3.338-0.091c-1.378,0.82-4.191,3.798-6.13,7.852
				c-1.742,3.642-5.807,4.072-6.699,4.122c-0.019,0.048-0.029,0.092-0.029,0.132c0,0.204,0.297,0.716,3.046,1.058
				c0.143,0.017,0.245,0.031,0.29,0.041c1.468,0.303,5.769,1.074,7.424,1.37c-0.303-0.439-0.808-1.129-1.556-2.03
				c-0.278-0.335-0.505-0.59-0.684-0.791c-0.406-0.456-0.591-0.665-0.591-0.941c0-0.273,0.185-0.452,0.49-0.747l0.111-0.108
				C115.419,193.092,116.895,193.428,117.481,193.602z"/>
		</g>
	</g>
	<g>
		<g>
			<path d="M122.238,183.327l-5.497,10.686l-0.202-0.028c-0.482-0.066-1.131-0.073-1.485,0.27l-0.357,0.349l-3.881-1.098
				l0.342-0.347c0.477-0.484,0.87-1.046,1.169-1.671c2.123-4.683,4.096-7.188,6.395-8.118c0.967-0.579,2.265-0.396,3.177-0.138
				L122.238,183.327z M116.413,193.389l4.985-9.691c-0.761-0.173-1.703-0.241-2.42,0.186c-2.19,0.89-4.068,3.303-6.128,7.846
				c-0.258,0.541-0.579,1.036-0.957,1.479l2.639,0.747l0.118-0.115C115.03,193.472,115.637,193.317,116.413,193.389z"/>
		</g>
	</g>
	<g>
		<g>
			<rect x="149.385" y="268.193" width="0.577" height="9.58"/>
		</g>
	</g>
	<g>
		<g>
			<rect x="149.385" y="192.147" width="0.577" height="9.808"/>
		</g>
	</g>
	<g>
		<g>
			<path d="M100.487,273.135l-0.043,0.576c-0.331-0.025-33.288-2.634-51.584-17.67l0.366-0.446
				C67.383,270.517,100.158,273.112,100.487,273.135z"/>
		</g>
	</g>
	<g>
		<g>
			<path d="M89.087,254.833l-0.043,0.576c-42.853-3.158-43.196-9.843-43.2-10.107l0.289,0.006l0.289-0.005
				C46.425,245.367,47.294,251.753,89.087,254.833z"/>
		</g>
	</g>
	<g>
		<g>
			<path d="M100.679,196.627c-0.329,0.024-33.108,2.621-51.261,17.541l-0.366-0.446c18.296-15.036,51.254-17.646,51.584-17.67
				L100.679,196.627z"/>
		</g>
	</g>
	<g>
		<g>
			<path d="M89.279,214.93c-41.864,3.08-42.734,9.466-42.738,9.53l-0.577,0.001c0-0.002,0-0.004,0-0.006
				c0-0.359,0.612-6.962,43.272-10.101L89.279,214.93z"/>
		</g>
	</g>
</g>
</svg>
