<?xml version="1.0" encoding="utf-8"?>
<!-- Generator: Adobe Illustrator 17.0.0, SVG Export Plug-In . SVG Version: 6.00 Build 0)  -->
<!DOCTYPE svg PUBLIC "-//W3C//DTD SVG 1.1//EN" "http://www.w3.org/Graphics/SVG/1.1/DTD/svg11.dtd">
<svg version="1.1" id="Layer_1" xmlns="http://www.w3.org/2000/svg"  x="0px" y="0px"
	 width="110.835px" height="103.994px" viewBox="109.411 369.156 110.835 103.994"
	 enable-background="new 109.411 369.156 110.835 103.994" xml:space="preserve">
<g id="back">
	<polygon fill="#FFFFFF" points="209.986,404.307 205.52,395.294 124.22,395.294 118.777,404.307 118.777,456.616 210.361,456.616
		210.361,404.307 	"/>
</g>
<g id="back-left">
	<path fill="#FF3947" d="M131.659,370.198c-1.15,0.561-2.567,1.922-3.261,3.495c-0.27,0.612-0.573,1.291-0.903,2.03
		c-1.432,3.206-3.295,7.384-5.194,12.164c-0.579-0.882-1.655-1.689-3.508-1.689c-0.308,0-0.644-0.005-0.997-0.01
		c-0.402-0.006-0.826-0.012-1.261-0.012c-2.132,0-7.125,0-7.125,3.766c-0.001,2.561,1.537,4.62,4.113,5.507
		c0.666,0.229,1.347,0.359,1.948,0.474c1.826,0.349,2.659,0.508,2.57,2.492l0.431,0.034c-0.019,0.057-0.038,0.114-0.056,0.171
		c-0.313,0.972-3.406,4.942-3.765,5.306c-0.24,0.238-1.095,1.937-2.541,5.051l-0.049,0.105l-0.004,0.117
		c-0.03,0.824-0.731,20.253-0.352,25.907l1.761,4.608c-0.279,0.59-0.961,2.086-1.098,2.839c-0.251,1.374,0.314,5.035,0.379,5.448
		l1.561,4.717l0.587,3.801h3.947V404.21l5.443-9.013h0.151l0.229-0.59c0.253-0.652,6.206-15.987,7.064-17.798
		c0.163-0.344,0.278-0.647,0.38-0.914c0.388-1.02,0.672-1.563,1.957-1.942L131.659,370.198z"/>
	<path fill="#FF3947" d="M131.263,456.284l-0.578,14.699c0.001,1.178-0.972,2.15-2.167,2.15h-10.704
		c-1.195,0-2.167-0.972-2.167-2.167l-0.577-14.948"/>
</g>
<g id="back-right">
	<path fill="#FFFFFF" d="M214.185,395.922c0.601-0.115,1.282-0.245,1.948-0.474c2.576-0.887,4.114-2.946,4.113-5.507
		c0-3.766-4.993-3.766-7.125-3.766c-0.435,0-0.859,0.006-1.261,0.012c-0.353,0.005-0.689,0.01-0.997,0.01
		c-1.725,0-2.765,0.703-3.37,1.511c-1.858-4.653-3.673-8.722-5.074-11.861c-0.33-0.739-0.633-1.418-0.903-2.03
		c-0.672-1.522-2.022-2.849-3.151-3.442l-1.814,3.479c0.687,0.266,1.085,0.765,1.528,1.855c0.502,1.239,6.95,18.301,7.224,19.027
		l0.221,0.585h-0.151l4.466,9.013h0.375v52.309h4.809l0.586-3.802l1.539-4.624l0.022-0.092c0.066-0.413,0.63-4.074,0.379-5.448
		c-0.138-0.753-0.82-2.248-1.098-2.839l1.723-4.438l0.038-0.17c0.38-5.654-0.322-25.083-0.352-25.907l-0.004-0.117l-0.049-0.105
		c-1.446-3.114-2.301-4.813-2.541-5.05c-0.361-0.365-3.453-4.334-3.766-5.307c-0.034-0.105-0.069-0.208-0.103-0.313l0.219-0.017
		C211.526,396.43,212.359,396.271,214.185,395.922z"/>
	<path fill="#FFFFFF" d="M214.527,456.284l-0.578,14.699c0.001,1.178-0.972,2.15-2.167,2.15h-10.704
		c-1.195,0-2.167-0.972-2.167-2.167l-0.577-14.948"/>
</g>
<g id="back-windscreen">
	<path fill="#FFFFFF" d="M205.52,395.294h-81.3l0.229-0.59c0.253-0.652,6.206-15.987,7.064-17.798
		c0.163-0.344,0.278-0.647,0.38-0.914c0.605-1.589,0.941-2.023,5.242-2.477c2.808-0.297,17.938-0.429,31.687-0.429
		c10.195,0,21.399,0.077,23.444,0.25c0.671,0.056,1.245,0.095,1.738,0.128c2.634,0.177,3.259,0.219,4.071,2.218
		c0.502,1.239,6.95,18.301,7.224,19.027L205.52,395.294z"/>
</g>
<g id="roof">
	<path fill="#FFFFFF" d="M134.321,374.784l-2.883-4.496c0,0,2.598-0.581,4.423-0.581c1.825,0,24.763-0.551,30.514-0.551
		c5.751,0,26.934,0.7,29.553,0.7s2.437,0.486,2.437,0.486l-2.211,4.239c0,0-5.901-1.097-29.342-0.97
		C136.188,373.777,134.321,374.784,134.321,374.784z"/>
</g>
<g>
	<g>
		<g>
			<path d="M211.782,473.15h-10.704c-1.195,0-2.167-0.972-2.167-2.167l-0.577-14.948l0.865-0.034l0.577,14.965
				c0.001,0.734,0.585,1.319,1.302,1.319h10.704c0.718,0,1.302-0.584,1.302-1.302l0.578-14.716l0.865,0.034L213.949,471
				C213.95,472.178,212.977,473.15,211.782,473.15z"/>
		</g>
	</g>
	<g>
		<g>
			<path d="M128.518,473.15h-10.704c-1.195,0-2.167-0.972-2.167-2.167l-0.577-14.682l0.865-0.034l0.578,14.699
				c0,0.734,0.584,1.319,1.302,1.319h10.704c0.718,0,1.301-0.584,1.301-1.302l0.578-14.982l0.865,0.034L130.685,471
				C130.685,472.178,129.713,473.15,128.518,473.15z"/>
		</g>
	</g>
	<g>
		<g>
			<rect x="112.684" y="443.528" width="104.335" height="0.866"/>
		</g>
	</g>
	<g>
		<g>
			<rect x="112.841" y="445.121" width="104.022" height="0.433"/>
		</g>
	</g>
	<g>
		<g>
			<rect x="114.109" y="450.602" width="101.486" height="0.433"/>
		</g>
	</g>
	<g>
		<g>
			<rect x="114.669" y="451.825" width="100.366" height="0.433"/>
		</g>
	</g>
	<g>
		<g>
			<path d="M215.997,439.787c-56.781-1.791-101.838-0.019-102.286-0.001l-0.035-0.865c0.449-0.019,45.535-1.791,102.348-0.001
				L215.997,439.787z"/>
		</g>
	</g>
	<g>
		<g>
			<rect x="114.708" y="404.109" width="100.287" height="0.866"/>
		</g>
	</g>
	<g>
		<g>
			<rect x="119.06" y="397.588" width="91.583" height="0.866"/>
		</g>
	</g>
	<g>
		<g>
			<path d="M215.022,456.616h-100.34l-0.587-3.801l-1.561-4.717c-0.065-0.413-0.63-4.074-0.379-5.448
				c0.137-0.753,0.819-2.249,1.098-2.839l-1.761-4.608c-0.379-5.654,0.322-25.083,0.352-25.907l0.004-0.117l0.049-0.105
				c1.446-3.114,2.301-4.813,2.541-5.051c0.359-0.364,3.452-4.334,3.765-5.306c2.983-9.241,6.651-17.459,9.079-22.897
				c0.33-0.739,0.633-1.418,0.903-2.03c0.859-1.947,2.835-3.592,4.027-3.763c4.498-0.643,20.393-0.871,32.638-0.871
				s28.14,0.228,32.638,0.871c1.193,0.171,3.169,1.816,4.028,3.763c0.27,0.612,0.573,1.291,0.903,2.03
				c2.428,5.438,6.097,13.656,9.08,22.897c0.313,0.973,3.405,4.942,3.766,5.307c0.24,0.237,1.095,1.936,2.541,5.05l0.049,0.105
				l0.004,0.117c0.03,0.824,0.732,20.253,0.352,25.907l-0.038,0.17l-1.723,4.438c0.278,0.591,0.96,2.086,1.098,2.839
				c0.251,1.374-0.313,5.035-0.379,5.448l-0.022,0.092l-1.539,4.624L215.022,456.616z M115.672,455.461h98.361l0.465-2.965
				l1.54-4.625c0.172-1.106,0.556-4.028,0.376-5.014c-0.115-0.63-0.84-2.214-1.111-2.772l-0.109-0.226l1.872-4.822
				c0.348-5.482-0.297-23.934-0.355-25.583c-0.97-2.086-2.078-4.366-2.286-4.642c-0.223-0.218-3.598-4.421-4.024-5.741
				c-2.963-9.182-6.617-17.365-9.035-22.78c-0.331-0.741-0.634-1.421-0.905-2.035c-0.709-1.606-2.39-2.979-3.135-3.085
				c-4.153-0.594-19.303-0.86-32.475-0.86s-28.321,0.266-32.475,0.86c-0.744,0.106-2.426,1.479-3.134,3.085
				c-0.271,0.614-0.575,1.294-0.906,2.035c-2.417,5.416-6.071,13.599-9.035,22.781c-0.425,1.319-3.801,5.523-4.052,5.771
				c-0.18,0.246-1.287,2.526-2.258,4.612c-0.059,1.649-0.703,20.101-0.355,25.583l1.872,4.822l-0.11,0.226
				c-0.27,0.557-0.995,2.142-1.11,2.772c-0.18,0.986,0.203,3.908,0.376,5.014l1.562,4.719L115.672,455.461z"/>
		</g>
	</g>
	<g>
		<g>
			<path d="M205.499,395.273h-81.3l0.229-0.59c0.253-0.652,6.206-15.987,7.064-17.798c0.163-0.344,0.278-0.647,0.38-0.914
				c0.605-1.589,0.941-2.023,5.242-2.477c2.808-0.297,17.938-0.429,31.687-0.429c10.195,0,21.399,0.077,23.444,0.25
				c0.671,0.056,1.245,0.095,1.738,0.128c2.634,0.177,3.259,0.219,4.071,2.218c0.502,1.239,6.95,18.301,7.224,19.027
				L205.499,395.273z M125.464,394.407h78.783c-1.166-3.085-6.549-17.321-6.996-18.421c-0.608-1.497-0.761-1.507-3.326-1.679
				c-0.498-0.034-1.077-0.072-1.754-0.13c-1.749-0.148-11.141-0.247-23.371-0.247c-13.726,0-28.819,0.131-31.596,0.424
				c-3.95,0.417-4.06,0.706-4.523,1.924c-0.107,0.282-0.229,0.602-0.407,0.977C131.523,378.841,126.592,391.506,125.464,394.407z"/>
		</g>
	</g>
	<g>
		<g>
			<rect x="113.128" y="407.375" width="103.448" height="0.577"/>
		</g>
	</g>
	<g>
		<g>
			<polygon points="119.354,438.872 118.777,438.872 118.777,404.307 122.748,397.907 123.239,398.212 119.354,404.472 			"/>
		</g>
	</g>
	<g>
		<g>
			<polygon points="210.361,438.544 209.784,438.544 209.784,404.144 205.899,397.884 206.39,397.58 210.361,403.98 			"/>
		</g>
	</g>
	<g>
		<g>
			<path d="M119.175,431.085h-3.491c-1.183,0-2.145-0.962-2.145-2.144V414.32c0-1.183,0.962-2.144,2.145-2.144h3.491v0.577h-3.491
				c-0.864,0-1.567,0.703-1.567,1.567v14.621c0,0.864,0.703,1.567,1.567,1.567h3.491V431.085z"/>
		</g>
	</g>
	<g>
		<g>
			<path d="M213.947,431.085h-3.492v-0.577h3.492c0.864,0,1.568-0.703,1.568-1.567V414.32c0-0.864-0.704-1.567-1.568-1.567h-3.492
				v-0.577h3.492c1.183,0,2.145,0.962,2.145,2.144v14.621C216.092,430.123,215.129,431.085,213.947,431.085z"/>
		</g>
	</g>
	<g>
		<g>
			<path d="M210.026,419.228c-12.988-0.191-26.969-0.191-40.432,0l-0.006-0.433c13.467-0.191,27.451-0.191,40.445,0L210.026,419.228
				z"/>
		</g>
	</g>
	<g>
		<g>
			<path d="M160.11,419.228c-13.29-0.191-27.272-0.191-40.432,0l-0.006-0.433c13.164-0.191,27.149-0.191,40.444,0L160.11,419.228z"
				/>
		</g>
	</g>
	<g>
		<g>
			<path d="M190.039,421.307c-6.736,0-13.482-0.038-20.049-0.114l0.005-0.433c13.13,0.154,26.973,0.154,40.032,0l0.005,0.433
				C203.501,421.27,196.775,421.307,190.039,421.307z"/>
		</g>
	</g>
	<g>
		<g>
			<path d="M139.82,421.307c-6.77,0-13.548-0.038-20.147-0.114l0.005-0.433c13.194,0.152,27.106,0.152,40.232,0l0.005,0.433
				C153.35,421.269,146.589,421.307,139.82,421.307z"/>
		</g>
	</g>
	<g>
		<g>
			<rect x="119.675" y="433.863" width="90.354" height="0.433"/>
		</g>
	</g>
	<g>
		<g>
			<path d="M164.852,423.665c-2.927,0-5.308-1.5-5.308-3.344s2.381-3.344,5.308-3.344s5.308,1.501,5.308,3.344
				C170.16,422.165,167.779,423.665,164.852,423.665z M164.852,417.554c-2.609,0-4.731,1.241-4.731,2.767
				c0,1.525,2.122,2.767,4.731,2.767s4.731-1.241,4.731-2.767C169.583,418.795,167.46,417.554,164.852,417.554z"/>
		</g>
	</g>
	<g>
		<g>

				<rect x="196.931" y="370.478" transform="matrix(0.8451 0.5347 -0.5347 0.8451 229.6671 -47.7067)" width="0.432" height="3.875"/>
		</g>
	</g>
	<g>
		<g>

				<rect x="197.893" y="371.623" transform="matrix(0.7609 0.6489 -0.6489 0.7609 289.7686 -39.2272)" width="0.433" height="3.871"/>
		</g>
	</g>
	<g>
		<g>

				<rect x="130.721" y="372.259" transform="matrix(0.5351 0.8448 -0.8448 0.5351 376.3383 61.0966)" width="3.875" height="0.433"/>
		</g>
	</g>
	<g>
		<g>
			<rect x="129.724" y="373.395" transform="matrix(0.6485 0.7612 -0.7612 0.6485 330.6738 31.1017)" width="3.87" height="0.433"/>
		</g>
	</g>
	<g>
		<g>
			<rect x="113.773" y="425.324" width="5.238" height="0.577"/>
		</g>
	</g>
	<g>
		<g>
			<rect x="210.077" y="425.324" width="5.238" height="0.577"/>
		</g>
	</g>
	<g>
		<g>
			<rect x="122.705" y="398.06" width="0.577" height="6.329"/>
		</g>
	</g>
	<g>
		<g>
			<rect x="205.906" y="398.06" width="0.577" height="6.329"/>
		</g>
	</g>
	<g>
		<g>
			<path fill="#010101" d="M213.12,387.04c2.904,0,6.259,0.287,6.26,2.901c0,2.305-1.398,3.954-3.53,4.688
				c-2.486,0.856-5.263,0.205-5.101,3.823c-0.21-1.856-2.903-7.292-3.101-8.93c0,0,0.204-2.46,3.214-2.46
				C211.523,387.063,212.304,387.04,213.12,387.04 M213.121,386.175L213.121,386.175c-0.435,0-0.859,0.006-1.261,0.012
				c-0.353,0.005-0.689,0.01-0.997,0.01c-3.011,0-3.983,2.129-4.077,3.254l-0.007,0.088l0.011,0.088
				c0.109,0.902,0.763,2.522,1.52,4.399c0.696,1.724,1.484,3.678,1.58,4.524l1.725-0.136c-0.089-1.984,0.744-2.143,2.57-2.492
				c0.601-0.115,1.282-0.245,1.948-0.474c2.576-0.887,4.114-2.946,4.113-5.507C220.246,386.175,215.253,386.175,213.121,386.175
				L213.121,386.175z"/>
		</g>
	</g>
	<g>
		<g>
			<path fill="#010101" d="M116.536,387.04c0.817,0,1.598,0.023,2.258,0.023c3.009,0,3.214,2.46,3.214,2.46
				c-0.198,1.638-2.891,7.074-3.101,8.93c0.162-3.618-2.615-2.967-5.101-3.823c-2.132-0.734-3.53-2.383-3.53-4.688
				C110.277,387.327,113.632,387.04,116.536,387.04 M116.536,386.175c-2.132,0-7.125,0-7.125,3.767c0,2.561,1.538,4.619,4.113,5.507
				c0.667,0.23,1.348,0.36,1.948,0.474c1.826,0.348,2.659,0.507,2.57,2.492l1.725,0.136c0.096-0.846,0.884-2.8,1.58-4.524
				c0.757-1.877,1.411-3.497,1.52-4.399l0.011-0.088l-0.007-0.088c-0.094-1.126-1.066-3.254-4.077-3.254
				c-0.309,0-0.644-0.005-0.997-0.01C117.395,386.181,116.97,386.175,116.536,386.175L116.536,386.175z"/>
		</g>
	</g>
	<g>
		<g>
			<path fill="#010101" d="M119.85,396.712l-0.576-0.032c0.095-1.73-0.898-1.965-2.809-2.261c-0.568-0.088-1.156-0.179-1.74-0.342
				c-2.227-0.623-3.503-2.02-3.503-3.83c0-0.569,0.191-1.045,0.569-1.417c1.106-1.089,3.582-1.051,5.766-1.012
				c0.361,0.006,0.712,0.011,1.042,0.011c2.443,0,3.155,2.476,3.191,3.785l-0.577,0.016c-0.004-0.131-0.123-3.223-2.614-3.223
				c-0.333,0-0.687-0.006-1.051-0.012c-1.969-0.03-4.418-0.071-5.352,0.847c-0.267,0.262-0.396,0.591-0.396,1.005
				c0,1.532,1.123,2.726,3.081,3.275c0.55,0.154,1.121,0.242,1.672,0.328C118.237,394.11,119.979,394.38,119.85,396.712z"/>
		</g>
	</g>
	<g>
		<g>
			<path fill="#010101" d="M209.945,396.689c-0.129-2.333,1.613-2.602,3.297-2.863c0.552-0.085,1.122-0.174,1.673-0.328
				c1.958-0.548,3.082-1.742,3.082-3.275c0-0.414-0.13-0.743-0.396-1.005c-0.934-0.918-3.384-0.875-5.352-0.847
				c-0.365,0.006-0.718,0.012-1.051,0.012c-2.49,0-2.61,3.092-2.614,3.223l-0.577-0.016c0.036-1.309,0.749-3.785,3.191-3.785
				c0.33,0,0.68-0.006,1.042-0.011c2.188-0.038,4.66-0.076,5.766,1.012c0.377,0.371,0.569,0.848,0.569,1.417
				c0,1.811-1.277,3.207-3.503,3.83c-0.583,0.163-1.171,0.254-1.74,0.342c-1.911,0.296-2.904,0.531-2.809,2.261L209.945,396.689z"/>
		</g>
	</g>
</g>
</svg>
