<?xml version="1.0" encoding="utf-8"?>
<!-- Generator: Adobe Illustrator 17.0.0, SVG Export Plug-In . SVG Version: 6.00 Build 0)  -->
<!DOCTYPE svg PUBLIC "-//W3C//DTD SVG 1.1//EN" "http://www.w3.org/Graphics/SVG/1.1/DTD/svg11.dtd">
<svg version="1.1" id="Layer_1" xmlns="http://www.w3.org/2000/svg"  x="0px" y="0px"
	 width="251.665px" height="87.421px" viewBox="33.725 159.93 251.665 87.421"
	 enable-background="new 33.725 159.93 251.665 87.421" xml:space="preserve">
<g id="right">
	<path fill="#FFFFFF" d="M220.731,182.893c0,0-19.5-13.833-22.833-15.5s-10.604-4.729-14.938-5.229s-42.042-0.188-46.063-0.625
		c-4.474-0.487-4.615,0.051-5.667,2.854c-1.761,4.694-0.667,60.333-0.667,60.333l86.668,0.168
		C225.398,206.894,220.731,182.893,220.731,182.893z M138.762,186.343l-0.009-0.277c-0.001-0.025-0.075-2.441-0.075-5.263
		c0-2.686,0.246-7.278,0.936-12.113c0.688-4.812,5.735-4.524,5.786-4.521l18.501-0.001c1.184,0,1.312,0.599,1.312,0.857
		c0,0.101-0.019,0.188-0.036,0.245l0.221,21.297L138.762,186.343z M211.987,187.799c0.231-0.097,0.567-0.266,0.795-0.479
		c0.332-0.31,0.352-0.806,0.028-1.437c-0.2-0.39-1.979-3.819-3.035-4.233c-0.412-0.162-0.675-0.248-0.835-0.294
		c-0.516-2.816-2.279-4.299-4.984-4.182c-0.738,0.032-2.686,0.033-2.706,0.033h-0.293l0.101,7.24c0,0.587,0.396,1.603,1.877,1.692
		c1.163,0.07,2.068,0.14,2.488,0.174l0.037,1.34l-33.432-0.744c-0.271-0.006-0.271-0.006-0.515-2.742
		c-0.408-4.556-1.255-14.036-1.946-18.093c-0.024-0.149-0.038-0.29-0.038-0.422c0-1.265,1.373-1.265,1.824-1.265
		c1.624,0,14.18,0.546,18.819,2.749c4.343,2.064,5.251,2.608,12.138,7.274c6.724,4.555,12.776,9.169,12.836,9.215
		c0.057,0.053,0.766,0.753,1.304,1.466c0.309,0.409,0.493,0.963,0.493,1.483c0,0.795-0.422,1.31-1.075,1.311L211.987,187.799z"/>
</g>
<g id="side-glass">
	<path fill="#FF3947" d="M138.678,180.803c0-2.686,0.246-7.278,0.936-12.113c0.688-4.812,5.735-4.524,5.786-4.521l18.501-0.001
		c1.184,0,1.312,0.599,1.312,0.857c0,0.101-0.019,0.188-0.036,0.245l0.221,21.297l-26.636-0.224l-0.009-0.277
		C138.752,186.041,138.678,183.625,138.678,180.803z"/>
	<path fill="#FF3947" d="M216.943,186.574c0-0.52-0.184-1.074-0.493-1.483c-0.538-0.713-1.247-1.413-1.304-1.466
		c-0.06-0.046-6.112-4.66-12.836-9.215c-6.887-4.666-7.795-5.21-12.138-7.274c-4.639-2.203-17.195-2.749-18.819-2.749
		c-0.451,0-1.824,0-1.824,1.265c0,0.132,0.014,0.273,0.038,0.422c0.691,4.057,1.538,13.537,1.946,18.093
		c0.244,2.736,0.244,2.736,0.515,2.742l43.84,0.976C216.521,187.884,216.943,187.369,216.943,186.574z M205.456,187.579
		l-0.033-1.266c-0.42-0.034-1.325-0.104-2.488-0.174c-1.481-0.089-1.877-1.105-1.877-1.692l-0.101-7.24h0.293
		c0.02,0,1.968-0.001,2.706-0.033c2.705-0.117,4.468,1.366,4.984,4.182c0.16,0.046,0.423,0.132,0.835,0.294
		c1.056,0.414,2.835,3.843,3.035,4.233c0.324,0.631,0.304,1.127-0.028,1.437c-0.348,0.325-0.907,0.297-0.97,0.293L205.456,187.579z"
		/>
</g>
<g id="back-right">
	<path fill="#FFFFFF" d="M34.315,212.018v7l2.333,2.167l6.167,0.833l1.833,1l86.667,1.167c0,0-3.5-19.667-2-37.667l-87.667-1.334
		l-2.167,0.5c0,0-1.167,5.833-1.167,11.333s0,9.167,0,9.167l0.167,6L34.315,212.018z"/>
	<circle fill="#FFFFFF" cx="87.148" cy="228.684" r="18.667"/>
</g>
<g id="front-windscreen">
	<path fill="#FFFFFF" d="M196.481,163.768l-3.417,1l27.917,18.667c0,0,4.5,0.083,6.667-1.75L196.481,163.768z"/>
</g>
<g id="front-right">
	<path fill="#FFFFFF" d="M227.414,182.391c0,0-5.25,1.5-6.667,1.25c0,0,1.583,8,1,14.583s-1.083,19-4.75,26.917l49.083,1.208
		c0,0-0.375,0.125,1.25,0.375s12.875-0.125,14.125-0.25s3.125-2.625,3.125-3.5s0-7,0-7l-0.875-1l0.626-0.75v-2.625l-5.125-3.75
		l1.125-2.125c0,0,0.25-8.875,0.125-11.625s-3.25-4-4.875-4.5S255.748,184.182,227.414,182.391z"/>
	<circle fill="#FFFFFF" cx="244.01" cy="227.136" r="18.813"/>
</g>
<g id="roof">
	<path fill="#FFFFFF" d="M196.398,163.789l-3.938,1.125c0,0-4.625-2.625-14.938-3.125s-30.438-0.375-30.438-0.375
		s28.375-1.375,37.5-0.25S196.398,163.789,196.398,163.789z"/>
</g>
<g>
	<g>
		<g>
			<g>
				<path d="M129.021,197.992c0-16.688,0.351-20.889,0.66-24.596c0.298-3.576,1.287-7.956,1.506-8.896
					c-0.077-0.221-0.18-0.6-0.18-1.047c0-0.87,0.384-1.596,1.112-2.1c1.541-1.066,6.186-0.892,6.71-0.869
					c0.218-0.01,26.514-0.98,36.835-0.329c1.154,0.073,2.217,0.138,3.201,0.198c7.864,0.479,10.807,0.659,15.364,2.244
					c3.781,1.315,20.53,11.067,30.177,16.763l3.765,2.231c1.9,0.15,23.145,1.844,30.48,3.178c7.64,1.389,17.92,4.261,18.023,4.29
					l0.074,0.026c1.794,0.778,2.475,1.204,2.882,1.459l0.067,0.042c1.228,0.766,1.349,2.715,1.358,2.935
					c0.002,0.087,0.141,7.385,0.141,10.66c0,0.722-0.006,1.193-0.02,1.441c-0.027,0.503-0.352,0.798-0.567,0.992
					c-0.089,0.081-0.173,0.157-0.217,0.226c-0.11,0.172-0.193,0.371-0.238,0.564c0.152,0.081,0.308,0.166,0.464,0.255
					c0.272,0.114,0.49,0.242,0.663,0.389c0.922,0.561,1.972,1.273,2.963,2.01c0.725,0.539,1.077,1.31,1.077,2.357
					c0,0.418-0.053,0.876-0.172,1.487c-0.067,0.347-0.256,0.564-0.481,0.701c0.401,0.262,0.722,0.829,0.722,1.968l-0.002,0.176
					l-0.128,6.582c-0.034,1.738-2.317,3.671-5.538,3.666l-11.19-0.015c-2.731-0.003-2.884-1.299-3.062-2.8
					c-0.041-0.347-0.088-0.74-0.168-1.157c-0.574-2.987-1.758-6.972-2.816-9.476c-0.739-1.751-2.165-4.031-3.317-5.303
					c-0.167-0.185-0.387-0.465-0.412-0.8l-0.028-0.051c-0.727-1.324-2.496-2.491-3.762-3.254c-1.923-1.157-4.055-1.811-6.166-1.89
					c-6.134-0.231-10.505-0.157-10.549-0.156c-0.069,0.001-6.631,0.128-9.916,3.997c-3.378,3.979-4.537,6.326-5.633,11.417
					c-1.076,4.996-1.076,5.677-1.076,6.335c0,0.795-0.18,1.197-0.216,1.269l-0.16,0.32l-0.358-0.001l-90.056-0.248l-0.069-0.496
					C130.243,220.948,129.021,210.859,129.021,197.992z M132.395,164.396l-0.044,0.195c-0.012,0.05-1.199,5.045-1.52,8.9
					c-0.307,3.684-0.656,7.86-0.656,24.5c0,12.262,1.116,21.982,1.668,26.04l88.604,0.245c0.015-0.113,0.026-0.257,0.026-0.432
					c0-0.752,0-1.462,1.102-6.579c1.131-5.253,2.395-7.816,5.881-11.921c3.63-4.274,10.489-4.401,10.78-4.404
					c0.04-0.001,4.441-0.076,10.608,0.157c2.306,0.086,4.629,0.797,6.718,2.054c1.382,0.832,3.318,2.12,4.178,3.686l0.234,0.415
					l-0.038,0.111c0.019,0.026,0.047,0.062,0.089,0.108c1.226,1.355,2.741,3.775,3.524,5.629c1.085,2.569,2.298,6.651,2.886,9.708
					c0.088,0.458,0.137,0.872,0.181,1.238c0.171,1.437,0.211,1.779,1.917,1.781l11.19,0.015c2.645,0.004,4.362-1.498,4.382-2.534
					l0.13-6.735c0-0.303-0.028-1.01-0.29-1.016c-1.012-0.025-1.371-0.533-1.371-0.96c0-0.401,0.334-0.855,1.067-0.902
					c0.219-0.014,0.331-0.041,0.383-0.058c0.098-0.513,0.142-0.89,0.142-1.22c0-0.675-0.189-1.117-0.611-1.431
					c-0.978-0.728-2.014-1.43-2.916-1.976l-0.09-0.068c-0.084-0.077-0.22-0.154-0.404-0.229l-0.067-0.033
					c-0.273-0.155-0.54-0.299-0.798-0.427l-0.315-0.157l-0.005-0.352v-0.001c0-0.525,0.167-1.069,0.459-1.526
					c0.128-0.2,0.287-0.344,0.415-0.46c0.066-0.059,0.175-0.159,0.189-0.196c0.082-1.496-0.121-11.917-0.123-12.005
					c-0.019-0.386-0.21-1.615-0.815-1.992l-0.069-0.043c-0.377-0.236-1.005-0.63-2.693-1.362c-0.689-0.192-10.527-2.918-17.88-4.255
					c-7.585-1.379-30.269-3.156-30.498-3.173l-0.134-0.011l-1.019-0.605l0.232-0.533l-0.295,0.496l-2.893-1.713
					c-7.756-4.58-26.164-15.349-29.987-16.679c-4.407-1.533-7.09-1.697-15.055-2.182c-0.985-0.06-2.049-0.125-3.204-0.198
					c-10.263-0.648-36.502,0.32-36.765,0.33c-1.879-0.081-5.129,0.028-6.049,0.665c-0.414,0.286-0.615,0.663-0.615,1.151
					c0,0.419,0.152,0.761,0.153,0.764L132.395,164.396z"/>
			</g>
		</g>
		<g>
			<g>
				<g>
					<path fill="none" d="M43.043,221.801c0.173,0.003,0.274,0.004,0.274,0.004S43.218,221.804,43.043,221.801z"/>
				</g>
			</g>
			<g>
				<g>
					<path d="M33.725,211.734h0.604c0.029,0,2.642,0.001,4.75,0.032c-0.006-0.049-0.012-0.098-0.018-0.147
						c-0.107-0.931-0.238-2.236-0.36-3.571h-0.109l-0.197-1.852c-0.001-0.012-0.335-3.934-0.524-6.518
						c-0.031-0.419-0.047-0.971-0.047-1.639c0-3.058,0.328-7.799,0.331-7.846l0.057-0.822l0.259,0.115
						c0.245-1.673,0.511-2.714,0.587-2.997c0.023-0.402,0.3-1.728,2.941-1.728c2.443,0,86.338,1.12,87.185,1.131l0.573,0.008
						l-0.003,0.573c0,0.001-0.008,1.533-0.008,3.856c0,5.932,0.054,16.492,0.417,20.556c0.509,5.698,1.024,13.478,1.029,13.556
						l0.041,0.615h-22.394l-0.074-0.491c-0.011-0.074-1.138-7.463-2.339-10.867c-1.404-3.978-3.89-9.407-9.247-10.629
						c-5.412-1.234-8.303-1.227-10.854-1.22l-0.532,0.001c-2.055,0-8.307,0-11.698,2.364c-3.286,2.29-4.446,4.231-5.545,7.23
						l-0.315,0.857c-0.97,2.631-1.736,4.71-1.914,6.407c-0.201,1.919-0.406,5.086-0.409,5.117l-0.036,0.554l-0.555-0.014
						c-0.5-0.013-12.28-0.312-15.241-0.516c-2.543-0.175-4.516-0.429-5.043-0.5c-0.558,0.156-1.563,0.095-2.407-0.977
						c-1.18-0.023-3.565-0.084-5.529-0.219c-2.302-0.159-3.118-2.643-3.118-4.722l0,0l0.001-0.061L33.725,211.734z M39.627,212.93
						c-1.601-0.03-3.682-0.038-4.693-0.041l0.204,4.479l-0.001,0.061l0,0c0,0.351,0.057,3.432,2.043,3.569
						c2.114,0.146,4.731,0.205,5.758,0.223l0.388,0.007l-0.002,0.125l0.083,0.125c0.652,0.975,1.285,0.772,1.355,0.745l0.139-0.052
						l0.162,0.015c0.021,0.003,2.175,0.309,5.097,0.51c2.574,0.178,12.216,0.436,14.637,0.499c0.069-1.005,0.223-3.156,0.376-4.609
						c0.193-1.841,0.981-3.978,1.979-6.685l0.315-0.856c1.156-3.153,2.449-5.326,5.969-7.779c3.689-2.572,10.214-2.572,12.358-2.572
						l0.528-0.001c2.613-0.006,5.574-0.014,11.114,1.25c6.597,1.505,9.218,8.93,10.079,11.37c1.068,3.026,2.039,8.85,2.315,10.588
						h20.169c-0.132-1.953-0.561-8.161-0.986-12.914c-0.367-4.108-0.422-14.707-0.422-20.658c0-1.482,0.003-2.642,0.006-3.29
						c-7.442-0.099-84.268-1.123-86.598-1.123c-1.445,0-1.781,0.461-1.788,0.639l0.009,0.105l-0.031,0.073
						c-0.004,0.013-0.385,1.353-0.677,3.667l-0.098,0.775l-0.162-0.073c-0.093,1.492-0.275,4.685-0.275,6.938
						c0,0.64,0.015,1.163,0.043,1.554c0.189,2.578,0.522,6.492,0.522,6.492l0.086,0.808h0.127l0.047,0.527
						c0.133,1.502,0.284,3.023,0.404,4.066c0.029,0.25,0.068,0.507,0.114,0.768l-0.552,0.101l-0.002,0.098l0.002,0.479
						c-0.004,0-0.008,0-0.012,0L39.627,212.93z"/>
				</g>
			</g>
		</g>
	</g>
	<g>
		<g>
			<path d="M129.309,197.992c0-16.676,0.35-20.871,0.659-24.572c0.302-3.631,1.355-8.236,1.519-8.938
				c-0.067-0.175-0.192-0.565-0.192-1.029c-0.001-0.771,0.342-1.415,0.988-1.863c1.488-1.029,6.328-0.827,6.533-0.817
				c0.241-0.01,26.522-0.98,36.829-0.329c1.154,0.073,2.218,0.138,3.202,0.198c7.835,0.477,10.767,0.656,15.287,2.228
				c4.633,1.612,29.14,16.143,34.006,19.04l1.129,0.672l-1.772-0.185c-0.382,0.125-2.425,0.776-4.05,0.979
				c-0.641,0.08-1.151,0.131-1.541,0.164c0.163,0.077,0.34,0.158,0.528,0.242l-0.233,0.528l0,0l0,0
				c-0.001-0.001-0.002-0.001-0.003-0.001c-0.25-0.11-0.481-0.219-0.685-0.317c-0.001-0.001-0.002-0.001-0.003-0.002
				c-0.115-0.055-0.22-0.107-0.315-0.154c0.125,0.776,0.346,2.156,0.454,2.86l0.031,0.199c0.182,1.171,0.607,3.915,0.828,7.294
				c0.206,3.174-0.17,8.25-1.169,15.693c-0.772,5.755-3.125,13.352-3.589,14.816l-0.064,0.201h-86.595l-0.035-0.249
				C130.529,220.914,129.309,210.841,129.309,197.992z M132.093,164.426l-0.023,0.098c-0.012,0.05-1.204,5.065-1.527,8.944
				c-0.308,3.689-0.657,7.872-0.657,24.524c0,12.537,1.165,22.421,1.705,26.328h85.67c0.581-1.851,2.768-9.036,3.503-14.517
				c0.992-7.398,1.368-12.45,1.165-15.579c-0.219-3.353-0.641-6.079-0.822-7.243l-0.031-0.2c-0.156-1.011-0.545-3.421-0.545-3.421
				l-0.018-0.112l-0.143-0.23h0.105l-0.039-0.24l0.452,0.239c0.007,0,0.776-0.003,2.484-0.217c1.322-0.165,2.983-0.654,3.674-0.87
				c-5.307-3.152-28.712-16.989-33.104-18.517c-4.445-1.546-7.355-1.724-15.132-2.198c-0.985-0.06-2.048-0.125-3.203-0.198
				c-10.278-0.649-36.531,0.32-36.795,0.33c-1.368-0.06-5.1-0.048-6.203,0.715c-0.49,0.34-0.74,0.807-0.739,1.388
				c0,0.487,0.178,0.88,0.179,0.884L132.093,164.426z"/>
		</g>
	</g>
	<g>
		<g>
			<path d="M132.614,189.258c0-0.001,0-0.001,0-0.002c0-7.713,1.479-19.333,2.036-23.708c0.094-0.738,0.164-1.288,0.2-1.602
				c0.127-1.116,0.444-1.876,0.941-2.257c0.377-0.289,0.721-0.247,0.759-0.242c0.04,0.006,0.352,0.039,2.244-0.057
				c2.019-0.104,25.704-0.061,28.398-0.056l0.27,0.001l1.656,25.282c0.28,0.49,1.747,3.542,1.649,13.023
				c-0.116,10.95-0.729,17.54-0.988,19.866c-0.238,2.144-0.479,4.013-0.6,4.936l-0.033,0.251h-35.071l-0.703-14.025
				c-0.004-0.112-0.333-10.731-0.713-19.284C132.628,190.733,132.614,190.019,132.614,189.258z M136.472,162.018L136.472,162.018
				c-0.282-0.023-0.864,0.364-1.049,1.993c-0.036,0.315-0.106,0.868-0.201,1.61c-0.556,4.365-2.032,15.959-2.032,23.635
				c0,0.001,0,0.001,0,0.002c0,0.753,0.014,1.459,0.042,2.098c0.38,8.558,0.71,19.181,0.713,19.287l0.676,13.471h34.017
				c0.129-0.984,0.347-2.713,0.565-4.674c0.258-2.316,0.868-8.883,0.984-19.807c0.101-10.028-1.579-12.745-1.596-12.771
				l-0.041-0.063l-0.006-0.077l-1.625-24.813c-3.712-0.007-26.148-0.044-28.097,0.056
				C137.503,162.033,136.714,162.05,136.472,162.018z"/>
		</g>
	</g>
	<g>
		<g>
			<path d="M68.485,228.855c0-10.506,8.547-19.053,19.053-19.053s19.053,8.547,19.053,19.053s-8.547,19.053-19.053,19.053
				S68.485,239.361,68.485,228.855z M105.437,228.855c0-9.869-8.029-17.899-17.899-17.899s-17.899,8.029-17.899,17.899
				s8.029,17.898,17.899,17.898S105.437,238.725,105.437,228.855z M75.019,228.855c0-6.903,5.616-12.519,12.519-12.519
				s12.518,5.616,12.518,12.519c0,6.903-5.616,12.518-12.518,12.518C80.635,241.373,75.019,235.758,75.019,228.855z M98.902,228.855
				c0-6.266-5.098-11.364-11.364-11.364c-6.267,0-11.365,5.098-11.365,11.364c0,6.266,5.098,11.364,11.365,11.364
				C93.804,240.219,98.902,235.121,98.902,228.855z"/>
		</g>
	</g>
	<g>
		<g>
			<path d="M87.538,210.379c8.679,0,15.959,5.989,17.94,14.059l10.868,0.144l0.006-0.104h-7.017c0,0-1.131-7.477-2.365-10.972
				c-1.234-3.495-3.803-9.663-9.663-11c-5.86-1.336-8.841-1.234-11.514-1.234s-8.636,0.103-12.028,2.467s-4.626,4.421-5.757,7.505
				c-1.131,3.084-2.056,5.449-2.262,7.402c-0.205,1.953-0.411,5.14-0.411,5.14s-1.948-0.049-4.478-0.121l0.002,0.181l8.862,0.118
				C71.867,216.135,79.03,210.379,87.538,210.379z"/>
		</g>
	</g>
	<g>
		<g>
			<path d="M264.697,214.148h18.425v1.037h-17.964L264.697,214.148z M282.689,214.58h-17.326l0.076,0.171h17.25V214.58z"/>
		</g>
	</g>
	<g>
		<g>
			<path d="M260.144,196.839L260.144,196.839c0-1.414,1.345-2.027,2.517-2.403c1.831-0.587,4.465-0.031,4.576-0.007l9.683,2.232
				l0.107,9.976h-13.2l-0.072-0.184c-0.025-0.064-2.523-6.457-3.317-8.343C260.24,197.639,260.144,197.223,260.144,196.839z
				 M276.348,197.121l-9.236-2.129c-0.022-0.005-2.592-0.546-4.274-0.006c-1.483,0.475-2.116,1.03-2.116,1.853l0,0
				c0,0.302,0.083,0.654,0.249,1.046c0.72,1.712,2.834,7.108,3.251,8.174h12.222L276.348,197.121z"/>
		</g>
	</g>
	<g>
		<g>
			<path d="M216.997,225.144l0.122-0.378c0.028-0.086,2.802-8.684,3.645-14.964c0.992-7.398,1.368-12.45,1.165-15.579
				c-0.219-3.353-0.641-6.079-0.822-7.243l-0.031-0.2c-0.156-1.011-0.545-3.421-0.545-3.421l-0.094-0.581l0.517,0.281
				c0.017,0.01,1.705,0.925,3.212,1.378c1.307,0.391,2.759,0.02,3.037-0.059l0.174-0.049l0.12,0.135
				c0.222,0.248,1.052,1.153,2.455,2.364c1.688,1.458,5.216,1.649,8.685,1.72c2.316,0.047,4.686,0.289,8.273,0.653
				c2.268,0.231,5.091,0.518,8.627,0.825c7.985,0.695,18.682,3.772,20.834,4.409l-0.009-0.273l0.76,0.515l-0.168,4.2l-0.565,0.366
				l-0.025-0.512l-0.017-1.611l-9.236-2.129c-0.022-0.005-2.592-0.546-4.274-0.006c-2.028,0.649-2.486,1.437-1.867,2.899
				c0.72,1.712,2.834,7.108,3.251,8.174h1.461l-1.137,0.724l-5.902,0.081l-0.089-0.11c-0.037-0.046-3.731-4.567-9.743-4.793
				c-6.144-0.231-10.521-0.157-10.564-0.156c-0.069,0.001-6.758,0.126-10.131,4.099c-3.415,4.023-4.586,6.396-5.694,11.544
				c-1.083,5.026-1.083,5.723-1.083,6.396c0,0.747-0.167,1.102-0.186,1.14l-0.08,0.16L216.997,225.144L216.997,225.144z
				 M222.56,196.044c0,3.173-0.4,7.699-1.224,13.836c-0.748,5.577-3.002,12.949-3.548,14.687h2.899
				c0.034-0.141,0.075-0.379,0.075-0.723c0-0.736,0-1.431,1.095-6.518c1.119-5.197,2.37-7.733,5.819-11.795
				c3.545-4.175,10.278-4.299,10.563-4.303c0.042-0.001,4.434-0.075,10.594,0.156c5.823,0.219,9.454,4.166,10.08,4.899l4.75-0.066
				c-0.461-1.176-2.518-6.429-3.225-8.108c-0.198-0.471-0.294-0.886-0.294-1.271c0-1.414,1.345-2.027,2.517-2.403
				c1.831-0.587,4.465-0.031,4.576-0.007l9.233,2.129l0.059-1.472c-0.936-0.282-12.546-3.744-21.041-4.483
				c-3.541-0.308-6.366-0.595-8.635-0.826c-3.574-0.364-5.935-0.604-8.227-0.651c-3.723-0.076-7.217-0.276-9.051-1.86
				c-1.233-1.065-2.023-1.886-2.389-2.285c-0.577,0.144-1.914,0.391-3.184,0.01c-1.061-0.318-2.177-0.84-2.808-1.157
				c0.125,0.777,0.346,2.156,0.454,2.859l0.031,0.199c0.182,1.171,0.607,3.915,0.828,7.294
				C222.542,194.743,222.56,195.368,222.56,196.044z"/>
		</g>
	</g>
	<g>
		<g>
			<path d="M166.881,161.332l0.294-0.013c0.099-0.005,2.528-0.106,11.535,0.329c7.611,0.367,9.576,1.187,12.832,2.544
				c0.651,0.272,1.355,0.565,2.167,0.881c4.81,1.868,26.221,17.342,27.131,18l0.072,0.052l0.292,0.808
				c0.141,0.847,0.342,2.1,0.444,2.76l0.031,0.199c0.182,1.172,0.607,3.915,0.828,7.294c0.206,3.174-0.17,8.25-1.169,15.693
				c-0.736,5.484-2.883,12.569-3.523,14.61l-0.064,0.202h-49.188l0.043-0.326c0.095-0.718,0.344-2.634,0.599-4.925
				c0.258-2.316,0.868-8.883,0.984-19.807c0.109-10.027-1.579-12.745-1.596-12.771l-0.041-0.063l-0.006-0.077L166.881,161.332z
				 M220.43,183.489c-1.391-1.004-22.324-16.089-26.93-17.878c-0.818-0.317-1.525-0.613-2.181-0.886
				c-3.197-1.333-5.127-2.138-12.637-2.501c-7.298-0.352-10.307-0.349-11.186-0.335l1.62,24.727c0.28,0.49,1.758,3.539,1.649,13.023
				c-0.116,10.95-0.729,17.54-0.988,19.866c-0.223,2.007-0.442,3.728-0.557,4.609h48.105c0.704-2.261,2.731-9.041,3.439-14.311
				c0.992-7.398,1.368-12.45,1.165-15.579c-0.219-3.353-0.641-6.079-0.822-7.243l-0.031-0.2c-0.101-0.658-0.302-1.911-0.43-2.704
				L220.43,183.489z"/>
		</g>
	</g>
	<g>
		<g>
			<path d="M169.529,165.652c0-1.265,1.373-1.265,1.824-1.265c1.624,0,14.18,0.546,18.819,2.749
				c4.343,2.064,5.251,2.608,12.138,7.274c6.724,4.555,12.776,9.169,12.836,9.215c0.057,0.053,0.766,0.753,1.304,1.466
				c0.309,0.409,0.493,0.963,0.493,1.483c0,0.795-0.422,1.31-1.075,1.311l-43.84-0.976c-0.271-0.006-0.271-0.006-0.515-2.742
				c-0.408-4.556-1.255-14.036-1.946-18.093C169.543,165.925,169.529,165.784,169.529,165.652z M216.367,186.573
				c0-0.392-0.144-0.827-0.377-1.134c-0.512-0.679-1.214-1.372-1.221-1.379c-0.033-0.023-6.072-4.627-12.782-9.173
				c-6.854-4.644-7.755-5.184-12.063-7.231c-4.191-1.99-15.946-2.693-18.571-2.693c-1.247,0-1.247,0.431-1.247,0.688
				c0,0.101,0.012,0.21,0.032,0.324c0.694,4.08,1.543,13.576,1.952,18.139c0.089,0.998,0.164,1.835,0.202,2.222l43.583,0.971
				C216.318,187.307,216.367,186.794,216.367,186.573z"/>
		</g>
	</g>
	<g>
		<g>
			<path d="M200.957,177.207h0.293c0.02,0,1.968-0.001,2.706-0.033c2.705-0.117,4.468,1.366,4.984,4.182
				c0.16,0.046,0.423,0.132,0.835,0.294c1.056,0.414,2.835,3.843,3.035,4.233c0.324,0.631,0.304,1.127-0.028,1.437
				c-0.348,0.325-0.907,0.297-0.97,0.293l-6.356-0.034l-0.033-1.266c-0.42-0.034-1.325-0.104-2.488-0.174
				c-1.481-0.089-1.877-1.105-1.877-1.692L200.957,177.207z M212.467,186.692c0-0.098-0.029-0.271-0.17-0.546
				c-0.909-1.776-2.179-3.742-2.732-3.958c-0.688-0.269-0.92-0.311-0.922-0.311l-0.203-0.035l-0.037-0.205
				c-0.295-1.847-1.303-4.02-4.421-3.886c-0.583,0.025-1.86,0.032-2.439,0.033l0.094,6.654l0,0c0,0.116,0.038,1.047,1.334,1.125
				c1.623,0.097,2.749,0.196,2.76,0.197l0.256,0.023l0.032,1.223l5.815,0.032c0.112,0.006,0.415-0.007,0.556-0.139
				C212.426,186.864,212.467,186.81,212.467,186.692z"/>
		</g>
	</g>
	<g>
		<g>
			<path d="M191.617,164.854l4.875-0.937l0.087,0.043c7.862,3.879,27.669,15.632,31.56,17.948l1.129,0.672l-1.772-0.185
				c-0.382,0.125-2.425,0.776-4.05,0.979c-0.972,0.122-1.643,0.176-2.052,0.201l0.028,0.045l-0.958-0.021l-0.038-0.112
				c-1.428-1.031-22.324-16.088-26.925-17.875c-0.345-0.134-0.671-0.264-0.981-0.39L191.617,164.854z M196.411,164.52l-2.759,0.53
				c0.019,0.007,0.038,0.015,0.057,0.023c4.558,1.77,24.029,15.762,26.824,17.779l0.337,0.166l0.019-0.001
				c0.007,0,0.776-0.003,2.484-0.217c1.322-0.165,2.983-0.654,3.674-0.87C221.803,178.815,203.869,168.214,196.411,164.52z"/>
		</g>
	</g>
	<g>
		<g>
			<path d="M135.048,193.454v-0.718c0-0.752,0.664-1.364,1.48-1.364h8.385c0.816,0,1.48,0.612,1.48,1.364v0.718
				c0,0.752-0.664,1.364-1.48,1.364h-8.385C135.713,194.819,135.048,194.206,135.048,193.454z M145.815,192.737
				c0-0.434-0.405-0.786-0.902-0.786h-8.385c-0.498,0-0.902,0.353-0.902,0.786v0.718c0,0.434,0.405,0.787,0.902,0.787h8.385
				c0.498,0,0.902-0.353,0.902-0.787L145.815,192.737L145.815,192.737z"/>
		</g>
	</g>
	<g>
		<g>
			<path d="M172.379,194.028v-0.717c0-0.752,0.692-1.364,1.543-1.364h8.831c0.851,0,1.544,0.612,1.544,1.364v0.717
				c0,0.752-0.693,1.364-1.544,1.364h-8.831C173.072,195.392,172.379,194.78,172.379,194.028z M183.721,193.311
				c0-0.434-0.433-0.787-0.967-0.787h-8.831c-0.533,0-0.966,0.353-0.966,0.787v0.717c0,0.434,0.433,0.787,0.966,0.787h8.831
				c0.533,0,0.967-0.353,0.967-0.787V193.311z"/>
		</g>
	</g>
	<g>
		<g>
			<path d="M220.333,224.917H110.12c-0.355,0-0.645,0.231-0.645,0.514l0,0c0,0.283,0.29,0.514,0.645,0.514h110.213
				c0.355,0,0.645-0.231,0.645-0.514l0,0C220.978,225.148,220.688,224.917,220.333,224.917L220.333,224.917z"/>
		</g>
		<g>
			<path d="M109.187,225.431c0-0.443,0.419-0.803,0.934-0.803h110.212c0.515,0,0.934,0.36,0.934,0.803s-0.419,0.803-0.934,0.803
				H110.121C109.606,226.233,109.187,225.873,109.187,225.431z M220.689,225.431c0-0.107-0.152-0.225-0.356-0.225H110.121
				c-0.204,0-0.356,0.119-0.356,0.225s0.152,0.225,0.356,0.225h110.212C220.537,225.656,220.689,225.537,220.689,225.431z"/>
		</g>
	</g>
	<g>
		<g>
			<path d="M38.604,190.693l0.026-0.218c0.285-2.346,0.659-3.738,0.72-3.956c0.026-0.39,0.302-1.471,2.65-1.471
				c2.441,0,85.824,1.12,86.666,1.131l0.286,0.004l-0.002,0.286c0,0.001-0.008,1.523-0.008,3.831c0,5.945,0.055,16.529,0.419,20.608
				c0.508,5.695,1.023,13.471,1.028,13.549l0.02,0.308h-21.322l-0.037-0.245c-0.011-0.075-1.141-7.491-2.352-10.92
				c-1.426-4.042-3.958-9.56-9.455-10.814c-5.442-1.241-8.351-1.234-10.917-1.228l-0.533,0.001c-2.077,0-8.398,0-11.863,2.416
				c-3.35,2.334-4.531,4.312-5.651,7.367l-0.315,0.856c-0.977,2.651-1.748,4.744-1.931,6.477c-0.202,1.925-0.408,5.097-0.41,5.129
				l-0.018,0.277l-0.277-0.007c-0.122-0.003-12.274-0.312-15.228-0.515c-2.651-0.183-4.679-0.45-5.086-0.506
				c-0.493,0.167-1.508,0.128-2.326-1.094l-0.308-0.461l0.609,0.012c-0.075-0.501-0.219-1.137-0.404-1.369
				c-0.295-0.368-0.392-0.445-0.396-0.448l-0.165-0.082l0.037-0.165l0.139-5.116c0.007-0.056,0.046-0.236,0.046-0.473
				c0-1.11-0.766-1.152-1.017-1.166c-0.356-0.02-0.879-0.036-1.479-0.047l-0.237-0.005l-0.041-0.234
				c-0.05-0.279-0.091-0.552-0.122-0.82c-0.12-1.046-0.272-2.574-0.406-4.089l-0.028-0.314h3.628
				c0.037-0.003,1.316-0.097,1.316-1.232c0-1.412-0.102-12.378-0.103-12.488c-0.001-0.02-0.023-0.527-0.669-0.851
				c-0.592-0.297-2.936-1.277-4.28-1.835L38.604,190.693z M128.372,186.754c-5.411-0.073-84.007-1.127-86.372-1.127
				c-2.019,0-2.077,0.83-2.077,0.924l-0.011,0.101c-0.004,0.014-0.387,1.354-0.683,3.676c1.373,0.57,3.536,1.477,4.114,1.767
				c0.977,0.489,0.988,1.329,0.988,1.364c0.001,0.108,0.103,11.077,0.103,12.491c0,1.346-1.228,1.771-1.877,1.808l-3.014,0.001
				c0.127,1.405,0.266,2.791,0.377,3.76c0.021,0.181,0.047,0.365,0.077,0.552c0.508,0.011,0.948,0.025,1.261,0.043
				c0.993,0.055,1.563,0.69,1.563,1.742c0,0.304-0.051,0.534-0.053,0.544l-0.129,4.925c0.083,0.083,0.207,0.221,0.395,0.454
				c0.41,0.513,0.554,1.846,0.568,1.996l0.032,0.321l-0.09-0.001c0.687,0.66,1.312,0.4,1.32,0.396l0.075-0.033l0.082,0.011
				c0.021,0.003,2.184,0.31,5.118,0.512c2.693,0.186,13.09,0.459,14.926,0.507c0.055-0.82,0.225-3.274,0.393-4.875
				c0.19-1.804,0.972-3.928,1.963-6.616l0.315-0.855c1.136-3.098,2.406-5.233,5.863-7.642c3.615-2.52,10.072-2.52,12.194-2.52
				l0.532-0.001c2.596-0.006,5.54-0.014,11.046,1.242c6.442,1.469,9.023,8.782,9.871,11.185c1.118,3.166,2.131,9.44,2.34,10.78
				h20.21c-0.101-1.502-0.557-8.184-1.007-13.228c-0.366-4.102-0.421-14.704-0.421-20.659
				C128.365,188.582,128.369,187.298,128.372,186.754z"/>
		</g>
	</g>
	<g>
		<g>
			<path d="M38.113,198.04L38.113,198.04c0-3.048,0.327-7.779,0.33-7.827l0.029-0.413l0.378,0.17c0.156,0.07,3.819,1.715,4.58,2.13
				c0.901,0.492,0.911,1.325,0.911,1.36c0.001,0.108,0.095,11.077,0.095,12.491c0,1.344-1.14,1.771-1.743,1.808l-3.84,0.001
				l-0.17-1.594c-0.001-0.006-0.334-3.926-0.524-6.509C38.128,199.245,38.113,198.701,38.113,198.04z M38.992,190.668
				c-0.079,1.22-0.302,4.871-0.302,7.372v0.001c0,0.647,0.015,1.176,0.045,1.574c0.189,2.58,0.522,6.496,0.522,6.496l0.114,1.072
				h3.303c0.104-0.008,1.184-0.117,1.184-1.232c0-1.412-0.094-12.378-0.095-12.489c-0.001-0.021-0.019-0.533-0.61-0.855
				C42.553,192.28,39.971,191.109,38.992,190.668z"/>
		</g>
	</g>
	<g>
		<g>
			<path d="M34.027,212.022h0.302c0.215,0,5.282,0.001,6.931,0.094c0.993,0.055,1.563,0.69,1.563,1.742
				c0,0.304-0.051,0.534-0.053,0.544l-0.129,4.925c0.083,0.083,0.207,0.221,0.395,0.454c0.41,0.513,0.554,1.846,0.568,1.996
				l0.032,0.322l-0.323-0.005c-0.035-0.001-3.541-0.048-6.192-0.231c-2.77-0.191-2.85-4-2.85-4.434L34.027,212.022z M42.246,213.858
				c0-1.11-0.766-1.152-1.017-1.166c-1.404-0.078-5.456-0.09-6.596-0.092l0.218,4.775l-0.001,0.055c0,0.378,0.065,3.702,2.312,3.857
				c2.159,0.149,4.892,0.208,5.828,0.224c-0.074-0.5-0.218-1.137-0.404-1.369c-0.295-0.368-0.392-0.445-0.396-0.448l-0.165-0.082
				l0.037-0.165l0.139-5.116C42.207,214.274,42.246,214.095,42.246,213.858z"/>
		</g>
	</g>
	<g>
		<g>
			<path d="M40.247,211.944l0.011-0.577l26.42,0.514l-0.011,0.577L40.247,211.944z M43.228,213.177l0.012-0.577l23.233,0.514
				l-0.012,0.577L43.228,213.177z M107.382,212.561v-0.577h21.589v0.577H107.382z M107.892,214.102l0.008-0.577l21.384,0.308
				l-0.008,0.577L107.892,214.102z M130.563,214.414l0.006-0.577l3.061,0.032l0.001-0.015l35.985,0.184l-0.003,0.577l-35.843-0.184
				v0.016L130.563,214.414z M130.582,212.549v-0.577h2.968v0.577H130.582z M133.608,212.565l0.007-0.577l36.257,0.431l-0.007,0.577
				L133.608,212.565z M169.774,214.615l0.003-0.577l49.926,0.252l-0.003,0.577L169.774,214.615z M169.901,212.996l0.007-0.577
				l50.096,0.589l-0.007,0.577L169.901,212.996z M220.51,214.867l0.003-0.577l1.512,0.008l-0.003,0.577L220.51,214.867z
				 M220.807,213.586l0.007-0.577l1.915,0.023l-0.007,0.577L220.807,213.586z"/>
		</g>
	</g>
	<g>
		<g>
			<path d="M275.877,194.891l0.163-0.554c0.127,0.037,0.238,0.07,0.333,0.098l-0.157-5.267l0.417,0.18
				c1.775,0.769,2.444,1.188,2.844,1.439l0.067,0.042c1.122,0.7,1.219,2.622,1.223,2.703c0.002,0.081,0.141,7.375,0.141,10.648
				c0,0.667-0.006,1.173-0.019,1.426c-0.074,1.366-0.956,1.887-1.412,1.971l-0.157,0.029l-0.108-0.118
				c-0.098-0.107-0.418-0.402-0.715-0.484c-0.348-0.095-1.491-0.231-1.902-0.276l-0.232-0.025l-0.068-0.644h0.149l-0.098-9.166
				l0.111-0.001l0.072-1.807c-0.099-0.03-0.32-0.096-0.646-0.192C275.881,194.893,275.879,194.892,275.877,194.891L275.877,194.891z
				 M280.33,204.181c0-3.267-0.14-10.556-0.141-10.629c-0.001-0.01-0.087-1.693-0.951-2.231l-0.068-0.043
				c-0.354-0.222-0.925-0.579-2.35-1.215l0.134,4.501l0.169,0.115l-0.179,4.206l0.078,7.312c0.481,0.057,1.301,0.162,1.626,0.251
				c0.361,0.099,0.681,0.356,0.855,0.518c0.247-0.105,0.757-0.436,0.809-1.391C280.324,205.328,280.33,204.833,280.33,204.181z"/>
		</g>
	</g>
	<g>
		<g>
			<path d="M138.678,180.803c0-2.686,0.246-7.278,0.936-12.113c0.688-4.812,5.735-4.524,5.786-4.521l18.501-0.001
				c1.184,0,1.312,0.599,1.312,0.857c0,0.101-0.019,0.188-0.036,0.245l0.221,21.297l-26.636-0.224l-0.009-0.277
				C138.752,186.041,138.678,183.625,138.678,180.803z M164.636,165.025c0-0.253-0.514-0.28-0.735-0.28H145.38
				c-0.205-0.013-4.583-0.252-5.195,4.025c-0.686,4.806-0.931,9.367-0.931,12.032c0,2.258,0.048,4.254,0.067,4.967l25.493,0.215
				l-0.216-20.819l0.024-0.055l0,0C164.622,165.11,164.636,165.072,164.636,165.025z"/>
		</g>
	</g>
	<g>
		<g>
			<path d="M224.632,227.136c0-10.506,8.547-19.053,19.053-19.053s19.053,8.547,19.053,19.053s-8.547,19.053-19.053,19.053
				S224.632,237.642,224.632,227.136z M261.583,227.136c0-9.869-8.029-17.899-17.898-17.899s-17.899,8.029-17.899,17.899
				s8.029,17.899,17.899,17.899S261.583,237.006,261.583,227.136z M231.166,227.136c0-6.903,5.616-12.519,12.519-12.519
				s12.518,5.616,12.518,12.519c0,6.903-5.616,12.518-12.518,12.518C236.782,239.655,231.166,234.039,231.166,227.136z
				 M255.049,227.136c0-6.266-5.098-11.364-11.364-11.364c-6.266,0-11.364,5.098-11.364,11.364s5.098,11.364,11.364,11.364
				C249.951,238.5,255.049,233.403,255.049,227.136z"/>
		</g>
	</g>
	<g>
		<g>
			<path d="M243.685,208.66c9.81,0,17.833,7.651,18.435,17.31h4.561c-0.661-0.545-0.531-1.589-0.813-3.054
				c-0.546-2.837-1.705-6.878-2.851-9.592c-0.765-1.813-2.243-4.165-3.42-5.467c-0.64-0.706-0.036-0.818,0.838-0.814l-0.417-0.487
				l-1.238,0.017c0,0-3.734-4.668-9.958-4.901c-6.223-0.234-10.58-0.156-10.58-0.156s-6.846,0.078-10.346,4.201
				c-3.501,4.123-4.668,6.613-5.757,11.669c-1.089,5.057-1.089,5.757-1.089,6.457s-0.156,1.011-0.156,1.011h-1.187l-0.191,1.115
				h5.732C225.852,216.311,233.875,208.66,243.685,208.66z"/>
		</g>
	</g>
	<g>
		<g>
			<path fill="none" stroke="#000000" stroke-miterlimit="10" d="M228.077,183.322"/>
		</g>
	</g>
</g>
</svg>
