<?xml version="1.0" encoding="utf-8"?>
<!-- Generator: Adobe Illustrator 17.0.0, SVG Export Plug-In . SVG Version: 6.00 Build 0)  -->
<!DOCTYPE svg PUBLIC "-//W3C//DTD SVG 1.1//EN" "http://www.w3.org/Graphics/SVG/1.1/DTD/svg11.dtd">
<svg version="1.1" id="Layer_1" xmlns="http://www.w3.org/2000/svg"  x="0px" y="0px"
	 width="251.664px" height="87.975px" viewBox="-68.401 194.103 251.664 87.975"
	 enable-background="new -68.401 194.103 251.664 87.975" xml:space="preserve">
<g id="left">
	<path fill="#FF3947" d="M-0.136,258.99l86.668-0.168c0,0,1.094-55.639-0.667-60.333c-1.052-2.803-1.193-3.341-5.667-2.854
		c-4.021,0.437-41.729,0.125-46.063,0.625s-11.605,3.562-14.938,5.229s-22.833,15.5-22.833,15.5S-8.303,240.99-0.136,258.99z
		 M51.697,220.664l0.221-21.297c-0.017-0.057-0.036-0.144-0.036-0.245c0-0.258,0.128-0.857,1.312-0.857l18.501,0.001
		c0.051-0.003,5.098-0.291,5.786,4.521c0.69,4.835,0.936,9.427,0.936,12.113c0,2.822-0.074,5.238-0.075,5.263l-0.009,0.277
		L51.697,220.664z M1.227,221.982c-0.653-0.001-1.075-0.516-1.075-1.311c0-0.52,0.184-1.074,0.493-1.483
		c0.538-0.713,1.247-1.413,1.304-1.466c0.06-0.046,6.112-4.66,12.836-9.215c6.887-4.666,7.795-5.21,12.138-7.274
		c4.639-2.203,17.195-2.749,18.819-2.749c0.451,0,1.824,0,1.824,1.265c0,0.132-0.014,0.273-0.038,0.422
		c-0.691,4.057-1.538,13.537-1.946,18.093c-0.244,2.736-0.244,2.736-0.515,2.742l-33.432,0.744l0.037-1.34
		c0.42-0.034,1.325-0.104,2.488-0.174c1.481-0.089,1.877-1.105,1.877-1.692l0.101-7.24h-0.293c-0.02,0-1.968-0.001-2.706-0.033
		c-2.705-0.117-4.468,1.366-4.984,4.182c-0.16,0.046-0.423,0.132-0.835,0.294c-1.056,0.414-2.835,3.843-3.035,4.233
		c-0.324,0.631-0.304,1.127,0.028,1.437c0.228,0.212,0.564,0.382,0.795,0.479L1.227,221.982z"/>
</g>
<g id="side-glass">
	<path fill="#FFFFFF" d="M78.342,220.163l-0.009,0.277l-26.636,0.224l0.221-21.297c-0.017-0.057-0.036-0.144-0.036-0.245
		c0-0.258,0.128-0.857,1.312-0.857l18.501,0.001c0.051-0.003,5.098-0.291,5.786,4.521c0.69,4.835,0.936,9.427,0.936,12.113
		C78.417,217.722,78.343,220.138,78.342,220.163z"/>
	<path fill="#FFFFFF" d="M1.227,221.982l43.84-0.976c0.271-0.006,0.271-0.006,0.515-2.742c0.408-4.556,1.255-14.036,1.946-18.093
		c0.024-0.149,0.038-0.29,0.038-0.422c0-1.265-1.373-1.265-1.824-1.265c-1.624,0-14.18,0.546-18.819,2.749
		c-4.343,2.064-5.251,2.608-12.138,7.274c-6.724,4.555-12.776,9.169-12.836,9.215c-0.057,0.053-0.766,0.753-1.304,1.466
		c-0.309,0.409-0.493,0.963-0.493,1.483C0.152,221.466,0.574,221.981,1.227,221.982z M5.283,221.71
		c-0.063,0.004-0.622,0.032-0.97-0.293c-0.332-0.31-0.352-0.806-0.028-1.437c0.2-0.39,1.979-3.819,3.035-4.233
		c0.412-0.162,0.675-0.248,0.835-0.294c0.516-2.816,2.279-4.299,4.984-4.182c0.738,0.032,2.686,0.033,2.706,0.033h0.293l-0.101,7.24
		c0,0.587-0.396,1.603-1.877,1.692c-1.163,0.07-2.068,0.14-2.488,0.174l-0.033,1.266L5.283,221.71z"/>
</g>
<g id="back-left">
	<path fill="#FFFFFF" d="M178.614,246.281l0.167-6c0,0,0-3.667,0-9.167s-1.167-11.333-1.167-11.333l-2.167-0.5l-87.667,1.334
		c1.5,18-2,37.667-2,37.667l86.667-1.167l1.833-1l6.167-0.833l2.333-2.167l0-7L178.614,246.281z"/>
	<circle fill="#FFFFFF" cx="129.947" cy="262.781" r="18.667"/>
</g>
<g id="front-windscreen">
	<path fill="#FFFFFF" d="M-10.553,215.782c2.167,1.833,6.667,1.75,6.667,1.75l27.917-18.667l-3.417-1L-10.553,215.782z"/>
</g>
<g id="front-right_1_">
	<path fill="#FFFFFF" d="M-59.103,223.813c-1.625,0.5-4.75,1.75-4.875,4.5s0.125,11.625,0.125,11.625l1.125,2.125l-5.125,3.75v2.625
		l0.626,0.75l-0.875,1c0,0,0,6.125,0,7s1.875,3.375,3.125,3.5s12.5,0.5,14.125,0.25s1.25-0.375,1.25-0.375l49.083-1.208
		c-3.667-7.917-4.167-20.334-4.75-26.917c-0.583-6.583,1-14.583,1-14.583c-1.417,0.25-6.667-1.25-6.667-1.25
		C-39.27,218.396-57.478,223.313-59.103,223.813z"/>
	<circle fill="#FFFFFF" cx="-26.697" cy="261.307" r="18.813"/>
</g>
<g id="roof">
	<path fill="#FFFFFF" d="M32.511,195.261c9.125-1.125,37.5,0.25,37.5,0.25s-20.125-0.125-30.438,0.375s-14.938,3.125-14.938,3.125
		l-3.938-1.125C20.697,197.886,23.386,196.386,32.511,195.261z"/>
</g>
<g>
	<g>
		<g>
			<path d="M87.967,232.163c0,12.867-1.222,22.956-1.747,26.697l-0.069,0.495l-90.414,0.249l-0.16-0.32
				c-0.036-0.072-0.216-0.473-0.216-1.269c0-0.658,0-1.339-1.076-6.336c-1.096-5.091-2.254-7.438-5.633-11.417
				c-3.285-3.869-9.847-3.996-9.913-3.997c-0.047-0.001-4.418-0.075-10.552,0.156c-2.111,0.079-4.244,0.733-6.166,1.89
				c-1.267,0.763-3.035,1.93-3.761,3.253l-0.029,0.052c-0.025,0.335-0.244,0.615-0.411,0.8c-1.152,1.273-2.578,3.552-3.317,5.304
				c-1.057,2.504-2.242,6.489-2.816,9.476c-0.08,0.417-0.127,0.81-0.168,1.156c-0.178,1.501-0.332,2.797-3.062,2.8l-11.19,0.015
				c-3.222,0.004-5.504-1.929-5.538-3.666l-0.13-6.757c0-1.14,0.321-1.706,0.722-1.968c-0.225-0.137-0.414-0.354-0.481-0.701
				c-0.119-0.61-0.172-1.069-0.172-1.486c0-1.047,0.352-1.819,1.077-2.357c0.994-0.739,2.044-1.451,2.963-2.01
				c0.173-0.147,0.391-0.275,0.663-0.39c0.157-0.089,0.311-0.174,0.464-0.254c-0.046-0.196-0.129-0.394-0.238-0.565
				c-0.044-0.069-0.128-0.145-0.217-0.225c-0.215-0.195-0.54-0.489-0.567-0.992c-0.014-0.249-0.02-0.72-0.02-1.441
				c0-3.276,0.14-10.573,0.141-10.646c0.01-0.234,0.131-2.184,1.359-2.95l0.065-0.041c0.407-0.255,1.087-0.68,2.884-1.459
				l0.074-0.026c0.103-0.029,10.383-2.901,18.023-4.29c7.334-1.333,28.58-3.028,30.48-3.178l3.746-2.22
				c9.668-5.708,26.418-15.46,30.196-16.774c4.557-1.585,7.5-1.765,15.364-2.244c0.984-0.06,2.047-0.125,3.201-0.198
				c10.321-0.652,36.617,0.318,36.882,0.328c0.477-0.023,5.123-0.197,6.664,0.869c0.728,0.504,1.112,1.23,1.112,2.1
				c0,0.447-0.103,0.826-0.18,1.047c0.219,0.941,1.208,5.32,1.506,8.896C87.617,211.273,87.967,215.475,87.967,232.163z
				 M85.145,258.203c0.552-4.059,1.668-13.778,1.668-26.041c0-16.64-0.348-20.816-0.656-24.501c-0.321-3.857-1.508-8.85-1.52-8.9
				l-0.047-0.196l0.085-0.182c0,0,0.152-0.342,0.152-0.761c0-0.488-0.201-0.864-0.615-1.151c-0.922-0.638-4.171-0.746-6.002-0.665
				c-0.311-0.01-26.549-0.978-36.812-0.329c-1.156,0.073-2.219,0.138-3.204,0.198c-7.965,0.486-10.648,0.649-15.055,2.182
				c-3.821,1.329-22.231,12.099-29.968,16.667l-0.397,0.234l-0.361-0.457l0.293,0.497l-3.529,2.092l-0.134,0.01
				c-0.228,0.018-22.913,1.794-30.498,3.173c-7.355,1.337-17.191,4.064-17.88,4.256c-1.689,0.734-2.318,1.127-2.694,1.363
				l-0.067,0.042c-0.605,0.377-0.796,1.607-0.815,2.007c-0.001,0.069-0.202,10.508-0.122,11.988c0.014,0.04,0.124,0.14,0.189,0.199
				c0.128,0.116,0.287,0.26,0.414,0.459c0.292,0.457,0.459,1.002,0.459,1.496v0.358l-0.321,0.182
				c-0.257,0.128-0.525,0.271-0.798,0.427l-0.066,0.032c-0.184,0.076-0.32,0.153-0.404,0.23l-0.09,0.067
				c-0.899,0.545-1.935,1.246-2.916,1.975c-0.423,0.315-0.611,0.756-0.611,1.431c0,0.331,0.044,0.709,0.141,1.22
				c0.052,0.017,0.164,0.044,0.383,0.058c0.733,0.047,1.067,0.5,1.067,0.902c0,0.427-0.359,0.935-1.371,0.96
				c-0.262,0.006-0.29,0.713-0.29,1.017l0.002,0.153l0.128,6.582c0.02,1.036,1.737,2.538,4.382,2.534l11.19-0.015
				c1.706-0.002,1.747-0.344,1.917-1.782c0.043-0.366,0.093-0.781,0.181-1.238c0.587-3.056,1.801-7.138,2.886-9.708
				c0.783-1.854,2.298-4.274,3.525-5.629c0.041-0.045,0.069-0.08,0.088-0.107l-0.038-0.112l0.236-0.416
				c0.86-1.566,2.795-2.853,4.177-3.685c2.089-1.257,4.412-1.968,6.718-2.054c6.168-0.231,10.568-0.157,10.612-0.156
				c0.287,0.003,7.147,0.13,10.776,4.404c3.485,4.106,4.75,6.668,5.881,11.921c1.102,5.117,1.102,5.827,1.102,6.579
				c0,0.175,0.011,0.319,0.026,0.433L85.145,258.203z"/>
		</g>
	</g>
	<g>
		<g>
			<path d="M183.263,245.904l-0.259,5.674c0,0.001,0,0.003,0,0.004c0,2.1-0.817,4.581-3.117,4.74
				c-1.969,0.136-4.351,0.196-5.529,0.22c-0.844,1.071-1.849,1.133-2.407,0.977c-0.526,0.071-2.5,0.324-5.043,0.499
				c-2.96,0.204-14.74,0.503-15.24,0.516l-0.555,0.014l-0.036-0.554c-0.002-0.032-0.207-3.198-0.409-5.117
				c-0.179-1.696-0.945-3.775-1.914-6.406l-0.315-0.857c-1.1-2.998-2.259-4.939-5.545-7.23c-3.392-2.364-9.644-2.364-11.699-2.364
				l-0.533-0.001c-2.55-0.006-5.441-0.014-10.852,1.22c-5.357,1.222-7.843,6.651-9.247,10.629
				c-1.202,3.405-2.328,10.792-2.339,10.866l-0.074,0.491H85.756l0.041-0.615c0.005-0.078,0.52-7.857,1.029-13.555
				c0.363-4.064,0.417-14.623,0.417-20.556c0-2.323-0.008-3.856-0.008-3.857l-0.003-0.573l0.573-0.008
				c0.847-0.011,84.742-1.131,87.185-1.131c2.641,0,2.918,1.326,2.941,1.728c0.077,0.284,0.343,1.324,0.587,2.996l0.259-0.116
				l0.057,0.826c0.003,0.047,0.331,4.789,0.331,7.846c0,0.668-0.016,1.22-0.047,1.639c-0.189,2.583-0.523,6.505-0.523,6.505
				l-0.198,1.865h-0.109c-0.122,1.339-0.254,2.643-0.36,3.57c-0.006,0.049-0.012,0.098-0.018,0.148
				c2.111-0.032,4.721-0.033,4.75-0.033C182.66,245.904,183.263,245.904,183.263,245.904z M173.935,255.395l0.115-0.002
				c1.025-0.018,3.639-0.076,5.758-0.222c1.986-0.137,2.043-3.219,2.043-3.57v-0.074l0.203-4.466
				c-1.039,0.003-3.209,0.012-4.806,0.044h-0.003l-0.028-0.58l-0.552-0.098c0.046-0.262,0.085-0.518,0.114-0.769
				c0.119-1.038,0.271-2.558,0.404-4.065l0.047-0.526h0.126l0.088-0.82l0,0c0-0.001,0.332-3.906,0.521-6.48
				c0.029-0.391,0.043-0.914,0.043-1.554c0-2.254-0.182-5.446-0.275-6.938l-0.162,0.073l-0.098-0.775
				c-0.292-2.314-0.673-3.654-0.677-3.667l-0.029-0.102l0.009-0.106c-0.009-0.148-0.344-0.609-1.79-0.609
				c-2.329,0-79.156,1.024-86.598,1.123c0.003,0.648,0.006,1.809,0.006,3.29c0,5.952-0.055,16.55-0.422,20.658
				c-0.424,4.753-0.853,10.96-0.986,12.914h20.169c0.276-1.737,1.246-7.561,2.315-10.587c0.861-2.44,3.482-9.865,10.079-11.37
				c5.54-1.263,8.5-1.256,11.113-1.249l0.529,0.001c2.144,0,8.669,0,12.359,2.571c3.519,2.452,4.812,4.626,5.968,7.779l0.315,0.855
				c0.997,2.707,1.785,4.845,1.979,6.685c0.153,1.454,0.307,3.605,0.376,4.61c2.422-0.063,12.064-0.321,14.637-0.499
				c2.922-0.202,5.076-0.507,5.097-0.51l0.162-0.023l0.151,0.066c0.057,0.021,0.69,0.224,1.342-0.751l0.085-0.126l-0.002-0.124
				L173.935,255.395L173.935,255.395z"/>
		</g>
	</g>
	<g>
		<g>
			<path d="M87.679,232.163c0,12.849-1.22,22.922-1.745,26.657l-0.035,0.249H-0.696l-0.064-0.202
				c-0.464-1.464-2.817-9.061-3.589-14.816c-0.999-7.444-1.375-12.52-1.169-15.693c0.22-3.379,0.646-6.123,0.828-7.294l0.031-0.199
				c0.109-0.703,0.33-2.083,0.454-2.86c-0.12,0.06-0.258,0.127-0.409,0.2c-0.006,0.003-0.011,0.005-0.016,0.008
				c-0.175,0.083-0.368,0.172-0.573,0.263c-0.003,0.001-0.006,0.003-0.008,0.004l0,0l-0.233-0.528
				c0.188-0.083,0.365-0.165,0.528-0.242c-0.39-0.032-0.9-0.084-1.541-0.164c-1.625-0.203-3.669-0.855-4.05-0.98l-1.772,0.186
				l1.129-0.672c4.866-2.897,29.372-17.428,34.006-19.039c4.519-1.572,7.451-1.751,15.287-2.229c0.984-0.06,2.047-0.125,3.202-0.198
				c10.306-0.651,36.588,0.319,36.852,0.329c0.182-0.009,5.022-0.212,6.51,0.818c0.647,0.448,0.988,1.092,0.988,1.863
				c0,0.464-0.125,0.854-0.192,1.029c0.164,0.703,1.217,5.307,1.519,8.939C87.329,211.291,87.679,215.486,87.679,232.163z
				 M85.397,258.491c0.54-3.906,1.705-13.79,1.705-26.328c0-16.652-0.349-20.835-0.657-24.525c-0.323-3.878-1.515-8.893-1.527-8.943
				l-0.023-0.097l0.042-0.091c0.002-0.004,0.179-0.397,0.179-0.884c0-0.581-0.249-1.048-0.739-1.388
				c-1.103-0.763-4.835-0.776-6.179-0.716c-0.288-0.01-26.541-0.978-36.818-0.329c-1.155,0.073-2.218,0.138-3.203,0.198
				c-7.777,0.474-10.687,0.652-15.132,2.198c-4.392,1.527-27.796,15.365-33.104,18.517c0.692,0.216,2.353,0.705,3.674,0.87
				c1.708,0.214,2.477,0.217,2.484,0.217h0.012l0.44-0.239l-0.039,0.24h0.107l-0.144,0.231l-0.018,0.11c0,0-0.388,2.41-0.545,3.421
				l-0.031,0.2c-0.18,1.164-0.603,3.89-0.822,7.243c-0.203,3.13,0.173,8.18,1.165,15.579c0.736,5.481,2.923,12.666,3.503,14.517
				L85.397,258.491L85.397,258.491z"/>
		</g>
	</g>
	<g>
		<g>
			<path d="M84.374,223.427c0,0.762-0.015,1.477-0.043,2.125c-0.38,8.554-0.709,19.173-0.712,19.279l-0.704,14.031H47.844
				l-0.033-0.251c-0.122-0.924-0.361-2.793-0.6-4.936c-0.258-2.325-0.871-8.915-0.988-19.865
				c-0.096-9.505,1.369-12.534,1.649-13.024l1.656-25.281l0.27-0.001c2.695-0.005,26.384-0.048,28.398,0.056
				c1.892,0.097,2.204,0.063,2.233,0.059c0.048-0.008,0.392-0.049,0.769,0.24c0.497,0.381,0.813,1.141,0.941,2.257
				c0.036,0.314,0.105,0.864,0.2,1.602C82.895,204.093,84.374,215.714,84.374,223.427z M82.366,258.285l0.676-13.477
				c0.003-0.101,0.332-10.723,0.713-19.281c0.028-0.64,0.042-1.346,0.042-2.1c0-7.677-1.476-19.271-2.032-23.636
				c-0.095-0.742-0.165-1.294-0.201-1.61c-0.185-1.629-0.767-2.016-1.049-1.992v-0.001c-0.242,0.033-1.031,0.016-2.35-0.052
				c-1.944-0.1-24.385-0.063-28.097-0.056l-1.63,24.89l-0.043,0.064c-0.016,0.024-1.705,2.739-1.595,12.769
				c0.116,10.924,0.727,17.491,0.984,19.807c0.218,1.959,0.437,3.689,0.565,4.674L82.366,258.285L82.366,258.285z"/>
		</g>
	</g>
	<g>
		<g>
			<path d="M148.503,263.026c0,10.506-8.547,19.053-19.053,19.053s-19.053-8.547-19.053-19.053c0-10.506,8.547-19.053,19.053-19.053
				S148.503,252.52,148.503,263.026z M111.551,263.026c0,9.869,8.029,17.898,17.899,17.898s17.899-8.029,17.899-17.898
				c0-9.869-8.029-17.899-17.899-17.899S111.551,253.157,111.551,263.026z M141.969,263.026c0,6.903-5.616,12.518-12.519,12.518
				c-6.903,0-12.518-5.616-12.518-12.518c0-6.903,5.616-12.518,12.518-12.518C136.353,250.507,141.969,256.123,141.969,263.026z
				 M118.086,263.026c0,6.266,5.098,11.364,11.364,11.364c6.267,0,11.365-5.098,11.365-11.364c0-6.266-5.098-11.364-11.365-11.364
				C123.184,251.662,118.086,256.76,118.086,263.026z"/>
		</g>
	</g>
	<g>
		<g>
			<path d="M119.681,236.677c-5.86,1.337-8.429,7.505-9.663,11s-2.365,10.972-2.365,10.972h-7.017l0.006,0.104l10.868-0.144
				c1.981-8.069,9.261-14.059,17.94-14.059c8.508,0,15.671,5.756,17.816,13.584l8.862-0.118l0.002-0.181
				c-2.53,0.072-4.478,0.121-4.478,0.121s-0.206-3.187-0.411-5.14c-0.206-1.953-1.131-4.318-2.262-7.402
				c-1.131-3.084-2.364-5.14-5.757-7.505c-3.392-2.364-9.355-2.467-12.028-2.467C128.521,235.443,125.54,235.341,119.681,236.677z"
				/>
		</g>
	</g>
	<g>
		<g>
			<path d="M-47.709,248.318l-0.461,1.037h-17.964v-1.037H-47.709z M-48.451,248.922l0.076-0.171h-17.326v0.171H-48.451z"/>
		</g>
	</g>
	<g>
		<g>
			<path d="M-43.156,231.01c0,0.385-0.096,0.8-0.294,1.271c-0.794,1.886-3.292,8.279-3.317,8.344l-0.072,0.183h-13.2l0.107-9.976
				l9.679-2.231c0.115-0.025,2.75-0.581,4.58,0.006C-44.501,228.983-43.156,229.596-43.156,231.01z M-47.233,240.231
				c0.417-1.066,2.531-6.462,3.251-8.174c0.618-1.463,0.161-2.249-1.867-2.9c-1.685-0.54-4.253,0.002-4.279,0.007l-9.232,2.128
				l-0.095,8.939C-59.455,240.231-47.233,240.231-47.233,240.231z"/>
		</g>
	</g>
	<g>
		<g>
			<path d="M-0.009,259.315h-4.076l-0.08-0.16c-0.019-0.038-0.186-0.394-0.186-1.14c0-0.673,0-1.37-1.083-6.396
				c-1.108-5.147-2.279-7.52-5.694-11.543c-3.373-3.972-10.063-4.098-10.13-4.099c-0.045-0.001-4.423-0.075-10.566,0.156
				c-6.012,0.225-9.706,4.747-9.743,4.793l-0.089,0.11l-5.902-0.081l-1.137-0.724h1.461c0.417-1.066,2.531-6.462,3.251-8.174
				c0.618-1.464,0.16-2.249-1.867-2.9c-1.683-0.539-4.253,0.002-4.279,0.007l-9.231,2.128l-0.022,2.129l-0.566-0.358l-0.025-0.163
				l-0.162-4.05l0.76-0.516l-0.009,0.273c2.152-0.637,12.849-3.714,20.834-4.408c3.535-0.307,6.357-0.594,8.625-0.825
				c3.589-0.365,5.96-0.606,8.276-0.654c3.469-0.071,6.998-0.262,8.685-1.719c1.406-1.214,2.234-2.116,2.454-2.364l0.121-0.135
				l0.174,0.049c0.278,0.078,1.729,0.45,3.037,0.059c1.509-0.453,3.195-1.368,3.212-1.377l0.517-0.282l-0.094,0.581
				c0,0-0.388,2.41-0.545,3.421l-0.031,0.2c-0.18,1.164-0.603,3.89-0.822,7.243c-0.203,3.13,0.173,8.18,1.165,15.579
				c0.843,6.281,3.617,14.878,3.645,14.964L-0.009,259.315z M-3.699,258.738h2.898c-0.546-1.738-2.8-9.11-3.548-14.687
				c-0.999-7.443-1.375-12.52-1.169-15.693c0.22-3.379,0.646-6.123,0.828-7.294l0.031-0.199c0.109-0.703,0.33-2.083,0.454-2.859
				c-0.631,0.316-1.747,0.839-2.808,1.157c-1.27,0.381-2.607,0.134-3.184-0.01c-0.365,0.399-1.154,1.219-2.389,2.285
				c-1.835,1.584-5.328,1.784-9.051,1.86c-2.293,0.047-4.654,0.287-8.229,0.651c-2.269,0.231-5.094,0.518-8.633,0.826
				c-8.494,0.739-20.105,4.2-21.041,4.483l0.059,1.472l9.229-2.127c0.115-0.025,2.75-0.581,4.58,0.006
				c1.172,0.376,2.517,0.989,2.517,2.403c0,0.385-0.096,0.8-0.294,1.271c-0.707,1.679-2.765,6.932-3.225,8.109l4.75,0.065
				c0.626-0.733,4.258-4.68,10.08-4.899c6.16-0.231,10.553-0.157,10.596-0.156c0.283,0.003,7.016,0.127,10.561,4.302
				c3.449,4.062,4.7,6.598,5.819,11.795c1.095,5.087,1.095,5.782,1.095,6.518C-3.774,258.358-3.734,258.595-3.699,258.738z"/>
		</g>
	</g>
	<g>
		<g>
			<path d="M50.107,195.503l-1.668,25.467l-0.043,0.064c-0.016,0.024-1.705,2.742-1.595,12.769
				c0.116,10.924,0.727,17.491,0.984,19.807c0.254,2.287,0.503,4.206,0.599,4.925l0.043,0.326H-0.761l-0.064-0.202
				c-0.64-2.041-2.787-9.125-3.523-14.61c-0.999-7.444-1.375-12.52-1.169-15.693c0.22-3.379,0.646-6.123,0.828-7.294l0.031-0.199
				c0.101-0.659,0.302-1.913,0.43-2.707l0.306-0.86l0.072-0.052c0.909-0.658,22.32-16.132,27.131-18
				c0.812-0.316,1.516-0.609,2.167-0.881c3.255-1.358,5.22-2.178,12.831-2.544c9.007-0.434,11.436-0.333,11.535-0.329
				L50.107,195.503z M47.872,220.786l1.62-24.727c-0.879-0.014-3.887-0.016-11.186,0.336c-7.51,0.362-9.44,1.167-12.637,2.5
				c-0.656,0.273-1.363,0.569-2.181,0.886c-4.605,1.789-25.529,16.867-26.929,17.878l-0.232,0.641
				c-0.113,0.74-0.314,1.993-0.415,2.651l-0.031,0.2c-0.18,1.164-0.603,3.89-0.822,7.243c-0.203,3.13,0.173,8.18,1.165,15.579
				c0.708,5.271,2.735,12.05,3.439,14.311h48.105c-0.115-0.882-0.334-2.605-0.557-4.61c-0.258-2.325-0.871-8.915-0.988-19.865
				C46.121,224.309,47.592,221.276,47.872,220.786z"/>
		</g>
	</g>
	<g>
		<g>
			<path d="M47.459,199.823c0,0.132-0.015,0.273-0.039,0.421c-0.691,4.058-1.538,13.537-1.946,18.093
				c-0.245,2.736-0.245,2.736-0.515,2.742l-43.834,0.977c-0.66-0.001-1.082-0.516-1.082-1.311c0-0.519,0.184-1.074,0.493-1.483
				c0.539-0.713,1.247-1.413,1.277-1.443c0.087-0.07,6.139-4.684,12.863-9.239c6.888-4.667,7.796-5.211,12.138-7.274
				c4.639-2.203,17.195-2.749,18.819-2.749c0.636,0,1.09,0.106,1.388,0.323C47.313,199.092,47.459,199.409,47.459,199.823z
				 M44.697,220.507c0.038-0.387,0.113-1.224,0.202-2.222c0.408-4.563,1.257-14.058,1.952-18.139c0.065-0.374,0.033-0.653-0.167-0.8
				c-0.193-0.141-0.546-0.212-1.048-0.212c-2.626,0-14.381,0.703-18.571,2.693c-4.306,2.045-5.208,2.586-12.063,7.23
				c-6.7,4.538-12.729,9.135-12.809,9.196l0,0c0.001,0.003-0.689,0.686-1.194,1.355c-0.233,0.308-0.377,0.742-0.377,1.135
				c0,0.22,0.048,0.733,0.499,0.734L44.697,220.507z"/>
		</g>
	</g>
	<g>
		<g>
			<path d="M16.031,211.378l-0.102,7.239c0,0.588-0.395,1.604-1.877,1.693c-1.163,0.069-2.068,0.14-2.488,0.174l-0.033,1.266
				l-6.374,0.035c-0.045,0.004-0.604,0.032-0.952-0.294c-0.331-0.31-0.352-0.804-0.028-1.437c0.2-0.39,1.979-3.819,3.035-4.233
				c0.413-0.161,0.675-0.248,0.835-0.294c0.516-2.816,2.28-4.299,4.984-4.182c0.739,0.032,2.687,0.033,2.707,0.033
				C15.738,211.378,16.031,211.378,16.031,211.378z M10.968,221.176L11,219.953l0.256-0.023c0.011-0.001,1.137-0.1,2.76-0.197
				c1.297-0.078,1.334-1.01,1.334-1.116l0.094-6.664c-0.579-0.001-1.856-0.007-2.439-0.033c-3.118-0.135-4.126,2.038-4.421,3.886
				l-0.034,0.21l-0.21,0.03l0,0c0,0-0.232,0.042-0.918,0.311c-0.553,0.216-1.823,2.183-2.732,3.958
				c-0.312,0.61-0.158,0.691-0.094,0.752c0.14,0.132,0.444,0.145,0.539,0.14L10.968,221.176z"/>
		</g>
	</g>
	<g>
		<g>
			<path d="M25.371,199.025l-0.902,0.367c-0.31,0.126-0.636,0.256-0.98,0.39c-4.603,1.788-25.508,16.852-26.927,17.876l-0.034,0.099
				l-0.975,0.057l0.042-0.069c-0.41-0.025-1.081-0.08-2.052-0.201c-1.625-0.203-3.668-0.855-4.05-0.98l-1.772,0.186l1.129-0.672
				C-7.256,213.76,12.566,202,20.41,198.13l0.087-0.043L25.371,199.025z M-3.509,216.997c2.926-2.111,22.249-15.99,26.788-17.753
				c0.019-0.007,0.038-0.015,0.057-0.022l-2.76-0.53c-7.44,3.685-25.388,14.292-30.637,17.411c0.692,0.216,2.353,0.705,3.674,0.87
				c1.708,0.214,2.477,0.217,2.484,0.217h0.017L-3.509,216.997z"/>
		</g>
	</g>
	<g>
		<g>
			<path d="M81.94,226.908v0.717c0,0.752-0.664,1.364-1.48,1.364h-8.385c-0.816,0-1.48-0.612-1.48-1.364v-0.717
				c0-0.752,0.664-1.364,1.48-1.364h8.385C81.275,225.544,81.94,226.156,81.94,226.908z M71.173,227.625
				c0,0.434,0.405,0.787,0.902,0.787h8.385c0.498,0,0.902-0.353,0.902-0.787v-0.717c0-0.434-0.405-0.787-0.902-0.787h-8.385
				c-0.498,0-0.902,0.353-0.902,0.787L71.173,227.625L71.173,227.625z"/>
		</g>
	</g>
	<g>
		<g>
			<path d="M44.609,227.482v0.717c0,0.752-0.692,1.364-1.543,1.364h-8.831c-0.851,0-1.544-0.612-1.544-1.364v-0.717
				c0-0.752,0.693-1.364,1.544-1.364h8.831C43.916,226.117,44.609,226.729,44.609,227.482z M33.267,228.199
				c0,0.434,0.433,0.787,0.967,0.787h8.831c0.533,0,0.966-0.353,0.966-0.787v-0.717c0-0.434-0.433-0.787-0.966-0.787h-8.831
				c-0.533,0-0.967,0.353-0.967,0.787V228.199z"/>
		</g>
	</g>
	<g>
		<g>
			<path d="M-3.345,259.088h110.213c0.355,0,0.645,0.231,0.645,0.514l0,0c0,0.283-0.29,0.514-0.645,0.514H-3.345
				c-0.355,0-0.645-0.231-0.645-0.514l0,0C-3.99,259.319-3.7,259.088-3.345,259.088L-3.345,259.088z"/>
		</g>
		<g>
			<path d="M107.801,259.602c0,0.443-0.419,0.802-0.934,0.802H-3.345c-0.515,0-0.934-0.36-0.934-0.802s0.419-0.803,0.934-0.803
				h110.212C107.382,258.799,107.801,259.159,107.801,259.602z M-3.701,259.602c0,0.106,0.152,0.225,0.356,0.225h110.212
				c0.204,0,0.356-0.119,0.356-0.225c0-0.107-0.152-0.225-0.356-0.225H-3.345C-3.549,259.376-3.701,259.495-3.701,259.602z"/>
		</g>
	</g>
	<g>
		<g>
			<path d="M178.384,224.864l-0.202,0.084c-1.081,0.448-3.661,1.524-4.28,1.835c-0.647,0.324-0.669,0.831-0.669,0.852
				c-0.001,0.109-0.103,11.076-0.103,12.487c0,1.135,1.279,1.229,1.334,1.233l3.611-0.001l-0.028,0.314
				c-0.134,1.514-0.286,3.043-0.406,4.089c-0.032,0.268-0.073,0.541-0.122,0.82l-0.041,0.233l-0.237,0.005
				c-0.6,0.012-1.123,0.027-1.479,0.047c-0.252,0.014-1.018,0.056-1.018,1.166c0,0.237,0.039,0.417,0.039,0.419l0.15,5.355
				l-0.162,0.08c0.012-0.006-0.092,0.085-0.368,0.43c-0.186,0.233-0.33,0.869-0.404,1.369l0.608-0.012l-0.307,0.46
				c-0.818,1.223-1.833,1.261-2.327,1.094c-0.406,0.056-2.435,0.323-5.086,0.506c-2.954,0.204-15.106,0.512-15.228,0.515
				l-0.277,0.007l-0.018-0.277c-0.002-0.032-0.207-3.204-0.41-5.129c-0.183-1.732-0.954-3.826-1.931-6.476l-0.315-0.857
				c-1.12-3.055-2.302-5.033-5.651-7.367c-3.466-2.416-9.786-2.416-11.863-2.416l-0.532-0.001
				c-2.567-0.006-5.475-0.014-10.918,1.227c-5.497,1.253-8.029,6.772-9.455,10.814c-1.211,3.43-2.34,10.845-2.352,10.919
				l-0.037,0.245H86.578l0.02-0.308c0.005-0.078,0.52-7.854,1.028-13.549c0.364-4.08,0.419-14.663,0.419-20.609
				c0-2.308-0.008-3.831-0.008-3.831l-0.002-0.286l0.286-0.004c0.842-0.011,84.225-1.131,86.666-1.131
				c1.034,0,1.785,0.209,2.233,0.623c0.373,0.344,0.418,0.727,0.421,0.861c0.071,0.257,0.436,1.641,0.716,3.942L178.384,224.864z
				 M172.552,240.121c0-1.414,0.102-12.383,0.103-12.494c0-0.033,0.011-0.872,0.988-1.361c0.583-0.292,2.744-1.198,4.114-1.768
				c-0.295-2.322-0.679-3.662-0.683-3.676l-0.015-0.051l0.005-0.053c-0.001-0.036-0.012-0.245-0.236-0.452
				c-0.232-0.214-0.74-0.47-1.841-0.47c-2.365,0-80.961,1.055-86.372,1.127c0.003,0.544,0.007,1.828,0.007,3.548
				c0,5.955-0.055,16.558-0.421,20.66c-0.45,5.044-0.906,11.726-1.007,13.228h20.21c0.209-1.34,1.222-7.613,2.34-10.78
				c0.848-2.403,3.429-9.716,9.871-11.185c5.507-1.256,8.451-1.249,11.048-1.242l0.53,0.001c2.122,0,8.578,0,12.194,2.519
				c3.456,2.408,4.727,4.544,5.863,7.642l0.315,0.856c0.99,2.688,1.773,4.811,1.963,6.615c0.169,1.601,0.339,4.055,0.393,4.875
				c1.837-0.047,12.234-0.321,14.926-0.507c2.934-0.202,5.096-0.509,5.118-0.512l0.081-0.012l0.075,0.033
				c0.028,0.011,0.644,0.252,1.32-0.397l-0.09,0.001l0.032-0.321c0.015-0.15,0.158-1.483,0.568-1.995
				c0.187-0.233,0.311-0.371,0.395-0.454l-0.135-4.975c-0.003,0.004-0.046-0.213-0.046-0.495c0-1.052,0.57-1.687,1.563-1.742
				c0.312-0.018,0.753-0.032,1.26-0.043c0.03-0.187,0.056-0.371,0.077-0.553c0.112-0.969,0.25-2.355,0.377-3.759h-2.997
				C173.78,241.893,172.552,241.467,172.552,240.121z"/>
		</g>
	</g>
	<g>
		<g>
			<path d="M108.147,234.261c0,2.341-1.905,4.246-4.246,4.246c-2.342,0-4.246-1.905-4.246-4.246c0-2.342,1.905-4.247,4.246-4.247
				S108.147,231.92,108.147,234.261z M100.231,234.261c0,2.023,1.646,3.669,3.669,3.669s3.669-1.646,3.669-3.669
				s-1.646-3.669-3.669-3.669S100.231,232.238,100.231,234.261z"/>
		</g>
	</g>
	<g>
		<g>
			<path d="M178.875,232.21c0,0.661-0.015,1.205-0.046,1.618c-0.19,2.583-0.523,6.502-0.523,6.502l-0.171,1.6h-3.822
				c-0.621-0.038-1.761-0.464-1.761-1.809c0-1.414,0.094-12.383,0.095-12.493c0-0.033,0.01-0.866,0.911-1.357
				c0.762-0.415,4.425-2.06,4.58-2.13l0.378-0.169l0.029,0.413C178.548,224.432,178.875,229.163,178.875,232.21z M177.732,240.275
				c0,0,0.333-3.912,0.521-6.489c0.03-0.398,0.045-0.928,0.045-1.575c0-2.501-0.223-6.152-0.302-7.372
				c-0.979,0.442-3.561,1.612-4.162,1.94c-0.603,0.329-0.61,0.848-0.61,0.853c-0.001,0.113-0.095,11.079-0.095,12.491
				c0,1.144,1.153,1.229,1.202,1.233l3.285-0.001L177.732,240.275L177.732,240.275z"/>
		</g>
	</g>
	<g>
		<g>
			<path d="M182.961,246.193l-0.245,5.372c0,0.002,0,0.004,0,0.006c0,0.494-0.09,4.273-2.849,4.463
				c-2.651,0.183-6.157,0.23-6.192,0.231l-0.323,0.004l0.032-0.322c0.015-0.15,0.158-1.483,0.568-1.995
				c0.187-0.233,0.311-0.371,0.395-0.454l-0.135-4.975c-0.003,0.004-0.046-0.213-0.046-0.495c0-1.052,0.57-1.687,1.563-1.742
				c1.648-0.092,6.715-0.093,6.93-0.093L182.961,246.193L182.961,246.193z M182.139,251.538l0.217-4.768
				c-1.141,0.002-5.192,0.014-6.596,0.092c-0.252,0.014-1.018,0.056-1.018,1.166c0,0.237,0.039,0.417,0.039,0.419l0.15,5.355
				l-0.162,0.08c0.012-0.006-0.092,0.085-0.368,0.43c-0.186,0.233-0.33,0.869-0.404,1.369c0.936-0.017,3.669-0.075,5.828-0.224
				c2.247-0.155,2.312-3.479,2.312-3.858v-0.061C182.137,251.538,182.139,251.538,182.139,251.538z"/>
		</g>
	</g>
	<g>
		<g>
			<path d="M176.741,246.115l-26.42,0.514l-0.011-0.577l26.42-0.514L176.741,246.115z M173.76,247.348l-23.233,0.514l-0.012-0.577
				l23.233-0.514L173.76,247.348z M109.606,246.154v0.578H88.017v-0.577L109.606,246.154L109.606,246.154z M109.096,248.273
				l-21.384,0.308l-0.008-0.577l21.384-0.308L109.096,248.273z M86.425,248.585l-3.206,0.034v-0.016l-35.843,0.183l-0.003-0.577
				l35.985-0.184l0.001,0.016l3.061-0.033L86.425,248.585z M86.406,246.142v0.577h-2.968v-0.577H86.406z M83.38,246.736
				l-36.257,0.431l-0.007-0.577l36.257-0.431L83.38,246.736z M47.214,248.786l-49.926,0.252l-0.003-0.577l49.926-0.252
				L47.214,248.786z M47.087,247.167l-50.096,0.589l-0.007-0.577l50.096-0.589L47.087,247.167z M-3.522,249.038l-1.512,0.008
				l-0.003-0.577l1.512-0.008L-3.522,249.038z M-3.819,247.757l-1.915,0.023l-0.007-0.577l1.915-0.023L-3.819,247.757z"/>
		</g>
	</g>
	<g>
		<g>
			<path d="M-58.889,229.063c-0.329,0.096-0.552,0.163-0.652,0.193l0.072,1.808l0.111,0.004l-0.098,9.163h0.149l-0.068,0.644
				l-0.231,0.025c-0.411,0.045-1.554,0.181-1.902,0.276c-0.297,0.081-0.616,0.377-0.714,0.484l-0.108,0.118l-0.158-0.029
				c-0.456-0.085-1.338-0.605-1.412-1.972c-0.014-0.252-0.019-0.758-0.019-1.425c0-3.272,0.14-10.567,0.141-10.641
				c0.004-0.089,0.101-2.011,1.223-2.71l0.066-0.041c0.4-0.25,1.069-0.669,2.845-1.439l0.417-0.181l-0.157,5.267
				c0.095-0.028,0.206-0.061,0.332-0.098c0,0,0,0,0.001,0l0,0L-58.889,229.063z M-59.966,228.734l0.134-4.501
				c-1.427,0.636-1.998,0.994-2.352,1.215l-0.067,0.042c-0.719,0.448-0.93,1.768-0.951,2.238
				c-0.001,0.079-0.203,10.534-0.122,12.017c0.052,0.955,0.561,1.286,0.808,1.391c0.174-0.162,0.494-0.42,0.855-0.518
				c0.325-0.089,1.144-0.194,1.625-0.251l0.078-7.354l-0.017-0.114l-0.162-4.05L-59.966,228.734z"/>
		</g>
	</g>
	<g>
		<g>
			<path d="M78.31,214.974c0,2.821-0.074,5.238-0.075,5.262l-0.009,0.277l-26.636,0.224l0.221-21.297
				c-0.017-0.057-0.036-0.143-0.036-0.245c0-0.258,0.128-0.857,1.312-0.857h18.521c0.031-0.003,5.078-0.291,5.766,4.521
				C78.065,207.696,78.31,212.289,78.31,214.974z M77.666,219.941c0.019-0.712,0.067-2.709,0.067-4.967
				c0-2.666-0.245-7.226-0.931-12.032c-0.611-4.278-4.989-4.039-5.175-4.027l-18.54,0.001c-0.221,0-0.735,0.027-0.735,0.28
				c0,0.05,0.015,0.089,0.015,0.09l0.021,0.112l-0.216,20.758L77.666,219.941z"/>
		</g>
	</g>
	<g>
		<g>
			<path d="M-7.644,261.307c0,10.506-8.547,19.053-19.053,19.053s-19.053-8.547-19.053-19.053c0-10.506,8.547-19.053,19.053-19.053
				S-7.644,250.801-7.644,261.307z M-44.595,261.307c0,9.869,8.029,17.899,17.898,17.899s17.899-8.029,17.899-17.899
				c0-9.87-8.029-17.899-17.899-17.899S-44.595,251.438-44.595,261.307z M-14.178,261.307c0,6.903-5.616,12.518-12.519,12.518
				s-12.518-5.616-12.518-12.518c0-6.902,5.616-12.518,12.518-12.518C-19.794,248.789-14.178,254.404-14.178,261.307z
				 M-38.061,261.307c0,6.266,5.098,11.364,11.364,11.364c6.266,0,11.364-5.098,11.364-11.364c0-6.266-5.098-11.364-11.364-11.364
				S-38.061,255.041-38.061,261.307z"/>
		</g>
	</g>
	<g>
		<g>
			<path d="M-31.835,235.844c-6.223,0.233-9.958,4.901-9.958,4.901l-1.238-0.017l-0.417,0.487c0.874-0.003,1.478,0.108,0.838,0.814
				c-1.177,1.301-2.655,3.653-3.42,5.467c-1.146,2.714-2.305,6.755-2.851,9.592c-0.282,1.465-0.152,2.509-0.813,3.054h4.561
				c0.602-9.659,8.625-17.31,18.435-17.31s17.833,7.651,18.436,17.31h5.732l-0.191-1.115h-1.187c0,0-0.156-0.311-0.156-1.011
				c0-0.7,0-1.4-1.089-6.457c-1.089-5.056-2.256-7.546-5.757-11.669s-10.346-4.201-10.346-4.201S-25.611,235.61-31.835,235.844z"/>
		</g>
	</g>
	<g>
		<g>
			<path fill="none" stroke="#000000" stroke-miterlimit="10" d="M-11.089,217.493"/>
		</g>
	</g>
</g>
</svg>
