<?xml version="1.0" encoding="utf-8"?>
<!-- Generator: Adobe Illustrator 17.0.0, SVG Export Plug-In . SVG Version: 6.00 Build 0)  -->
<!DOCTYPE svg PUBLIC "-//W3C//DTD SVG 1.1//EN" "http://www.w3.org/Graphics/SVG/1.1/DTD/svg11.dtd">
<svg version="1.1" xmlns="http://www.w3.org/2000/svg"  x="0px" y="0px"
	 viewBox="0 0 330 480" preserveAspectRatio="xMinYMin meet" enable-background="new 0 0 330 480" xml:space="preserve">
<style>
	/* This style is need in order for the '.selectable-area--enable:hover' to work */
	.selectable-area:hover {
		fill: #fff;
	}
	.selectable-area--enable:hover {
		fill: #fc8189;
	}
	.selectable-area--highlight {
		fill: #fa505b;
	}
</style>
<g class="selectable-area" id="CNF">
	<path fill="#FFFFFF" d="M183.25,134.511l21.645,51.927c0,0-20.478-7.114-40.32-7.114s-40.649,6.879-40.649,6.879l23.156-51.526
		v-3.875c0,0,8.229-1.063,18.542-1.063s17.656,0.875,17.656,0.875L183.25,134.511z"/>
	<polygon fill="#FFFFFF" points="130.083,82.083 151.667,90.042 151.625,101.875 153.333,103.833 174.583,103.833 177.417,100.917
		177.368,89.998 199,82 199,62.833 208.07,46.69 120.517,46.69 130,63.167 	"/>
</g>
<g class="selectable-area" id="RWD">
	<path fill="#FFFFFF" d="M194.992,403.666h-61.386c-2.118,0-3.841-1.757-3.841-3.917l2.387-26.219
		c-0.002-2.118,1.721-3.875,3.839-3.875h56.019c2.118,0,3.841,1.757,3.841,3.917l2.979,26.124
		C198.833,401.909,197.11,403.666,194.992,403.666z"/>
	<path fill="#FFFFFF" d="M164.399,331.185c-15.265,0-35.452-2.578-35.654-2.604c-0.149-0.019-0.279-0.109-0.349-0.241
		c-0.07-0.132-0.072-0.29-0.005-0.424l3.458-6.916c0.086-0.172,0.269-0.276,0.461-0.253c14.961,1.523,24.173,2.116,32.856,2.116
		c9.643,0,18.991-0.776,31.881-2.116c0.171-0.022,0.34,0.063,0.435,0.208l3.494,6.915c0.087,0.134,0.099,0.303,0.031,0.448
		c-0.067,0.145-0.205,0.244-0.363,0.263c-0.199,0.025-19.088,2.425-34.838,2.597C165.343,331.183,164.872,331.185,164.399,331.185z"
		/>
</g>
<g class="selectable-area" id="CNR">
	<path fill="#FFFFFF" d="M202.957,408.833c-0.81-13.969-4.891-41.088-4.891-41.088s-33.787-4.089-68.01,0.083
		c0,0-4.174,29.173-4.457,40.839c-0.284,11.665,0.553,33.724,0.553,33.724l0.335,0.002l2.388,8.775l0.979,0.007v3.241h22.165
		l1.835,2.268H176.3l2.202-2.457h20.894l0.092-2.53l0.436,0.003l1.98-8.893l0.37,0.002c0,0,0.066-0.882,0.161-2.389l0,0l0,0
		C202.798,434.707,203.598,419.885,202.957,408.833z M194.992,403.666h-61.386c-2.118,0-3.841-1.757-3.841-3.917l2.387-26.219
		c-0.002-2.118,1.721-3.875,3.839-3.875h56.019c2.118,0,3.841,1.757,3.841,3.917l2.979,26.124
		C198.833,401.909,197.11,403.666,194.992,403.666z"/>
	<path fill="#FFFFFF" d="M198.015,319.052c0,0-20.432,2.071-32.387,2.071C153.673,321.123,131,319,131,319l-9.833,18.167
		c0,0,10.833,4.833,44.166,4.833c31.25,0,42.75-4.75,42.75-4.75L198.015,319.052z M200.644,328.581
		c-0.199,0.025-19.088,2.425-34.838,2.597c-0.463,0.005-0.934,0.007-1.407,0.007c-15.265,0-35.452-2.578-35.654-2.604
		c-0.149-0.019-0.279-0.109-0.349-0.241c-0.07-0.132-0.072-0.29-0.005-0.424l3.458-6.916c0.086-0.172,0.269-0.276,0.461-0.253
		c14.961,1.523,24.173,2.116,32.856,2.116c9.643,0,18.991-0.776,31.881-2.116c0.171-0.022,0.34,0.063,0.435,0.208l3.494,6.915
		c0.087,0.134,0.099,0.303,0.031,0.448C200.94,328.463,200.802,328.562,200.644,328.581z"/>
</g>
<g class="selectable-area" id="ROF">
	<path fill="#FFFFFF" d="M124.971,368.1c0,0,23.908-1.345,39.26-1.345s39.334,1.25,39.334,1.25l1.872-4.283
		c0,0-13.058-2.055-41.206-2.055s-40.823,2.284-40.823,2.284L124.971,368.1z"/>
	<path fill="#FFFFFF" d="M164.578,208.053c-11.172,0-33.328,3.049-33.328,3.049l-0.116,107.399
		c-0.001,0.235,0.176,0.432,0.409,0.455c0.191,0.019,19.229,1.919,32.607,1.919c18.39,0,33.16-1.9,33.31-1.921
		c0.227-0.03,0.396-0.224,0.396-0.453l-0.118-107.534C197.737,210.967,175.75,208.053,164.578,208.053z"/>
	<path fill="#FFFFFF" d="M199.992,14.843C194.07,14.158,181.716,13,165.917,13c-16.337,0-30.541,1.239-37.048,1.911
		c-0.466,0.555-0.96,1.593-1.467,2.99C132.618,17.191,144.494,16,165.5,16c20.543,0,31.38,1.415,36.154,2.301
		C201.079,16.651,200.516,15.425,199.992,14.843z"/>
</g>
<g class="selectable-area" id="RHF">
	<path fill="#FFFFFF" d="M212.473,162.669c-0.086-4.085-0.845-8.102-0.845-8.102c-0.19-3.52-0.492-4.817-0.866-6.416
		c-0.352-1.507-0.751-3.216-1.189-7.359c-0.284-2.696-3.08-4.999-5.567-5.797c-6.297-2.031-14.105-3.832-20.651-4.837
		c-0.039,0.093-0.087,0.182-0.14,0.27c0.033,0.004,0.065,0.008,0.065,0.008l-0.03,3.897l21.645,51.927l7.398,0.032
		C212.293,186.292,212.559,166.754,212.473,162.669z"/>
	<path fill="#FFFFFF" d="M151.667,90.042l-21.583-7.958V62.75l-9.145-15.812H119c0,0-2.583,15.979-1.083,31.395l1.833,4.333
		l-1.833,2.833l1,4.75l0.863,1.918c-0.017,0.097-0.03,0.196-0.03,0.299v19.942c0,0.948,0.769,1.717,1.717,1.717h7.817
		c0.948,0,1.717-0.769,1.717-1.717v-10.742h20.667L151.667,90.042L151.667,90.042z"/>
	<circle fill="#FFFFFF" cx="312.971" cy="161.408" r="15.292"/>
	<path fill="#FFFFFF" d="M313.563,130.797l-6.25-3.75l-7.69-0.76l-1.943,3.135l-16.2,0.59l-4.536,3.711l-0.052,0.101
		c-0.072,0.139-7.232,14.01-12.328,29.246c-0.378,0.336-1.427,1.274-2.895,2.613v0.985l-0.441,8.174l-0.136,0.127
		c-0.077,0.072-3.836,3.575-7.861,7.339h58.747v-3.025c0,0,1.586-36.332,1.597-36.331L313.563,130.797z"/>
</g>
<g class="selectable-area" id="RHR">
	<path fill="#FFFFFF" d="M210.251,387.365c-2.119-12.726-4.814-23.643-4.814-23.643l-1.976,4.11l-5.586-0.707
		c0,0,1.462,7.764,2.471,16.984c1.082,8.306,2.223,18.025,2.611,24.724c0.641,11.052-0.159,25.874-0.521,31.586l0,0l0,0
		c-0.096,1.508-0.161,2.389-0.161,2.389l-0.37-0.002l-1.98,8.893l-0.436-0.003l-0.092,2.53H199v11.413
		c0,1.142,0.928,2.07,2.069,2.07h8.313c1.141,0,2.069-0.929,2.069-2.07v-21.585l1.383-6.972l-2.081-2.833l2.081-4.25
		c0,0,0.543-13.224-0.561-26.921"/>
	<path fill="#FFFFFF" d="M208.434,275.419l-0.075,42.23c0,0.183-0.101,0.347-0.255,0.42c-0.054,0.025-0.11,0.037-0.166,0.037
		c-0.106,0-0.211-0.043-0.291-0.126l-6.682-6.882c-0.084-0.087-0.131-0.208-0.131-0.333l0.068-35.346h-2.831l-0.006,43.082
		l10.227,18.749c1.833-0.125,2.417-2.472,2.417-2.472l0.451-59.359H208.434z"/>
	<path fill="#FFFFFF" d="M313.268,290.483l-1.291-15.09h-49.959v58.012c0,1.941-1.342,3.351-3.191,3.351
		c-0.31,0-0.629-0.04-0.948-0.12l-14.171-3.543c-2.158-0.54-3.914-2.789-3.914-5.013v-52.687h-4.267l0.111,56.778v0.13l2.211,4.975
		l0.231,0.093c0.237,0.095,24.562,9.804,44.517,9.301c15.556-0.399,21.021-0.488,22.664-0.508l-0.019,4.798l4.931,0.47l3.095-1.57
		L313.268,290.483L313.268,290.483z"/>
	<circle fill="#FFFFFF" cx="312.696" cy="308.998" r="15.292"/>
</g>
<g class="selectable-area" id="RHC">
	<path fill="#FFFFFF" d="M212.272,403.079c1.052,0.03,2.289,0.045,3.043,0.045c0.56,0,1.186-0.008,1.877-0.026
		c0.043,0.006,1.104,0.098,1.897-0.623c0.543-0.494,0.819-1.226,0.819-2.175v-7.583c0-1.324,0-5.352-5.424-5.352h-4.233"/>
	<path fill="#FFFFFF" d="M129,14.75l-3.917,0.583c0,0-3.353,11.205-5.107,22.249h-4.6c-1.566,0-3.626,1.562-3.626,3.128v8.707
		c0,1.833,0.667,2.835,2.835,2.835l3.482,0.157l1.302-5.424h1.538C120.906,46.984,125.75,18,129,14.75z"/>
	<path fill="#FFFFFF" d="M204.721,186.204l-6.857,25.203l-0.001,9.888h13.492l0.267-35.13L204.721,186.204z M208.412,218.601
		c-0.001,0.243-0.178,0.44-0.396,0.44c0-0.001-0.001-0.001-0.002-0.002L201.292,219c-0.105-0.001-0.206-0.048-0.28-0.131
		s-0.116-0.196-0.115-0.313l0.112-4.666c0-0.061,0.012-0.122,0.034-0.178l6.792-19.696c0.077-0.19,0.262-0.295,0.446-0.251
		c0.183,0.044,0.314,0.225,0.313,0.434L208.412,218.601z"/>
	<path fill="#FFFFFF" d="M224.553,189.719c-0.037-0.062-0.091-0.114-0.156-0.152c-3.998-2.315-10.082-3.811-15.498-3.811
		c-0.284,0-0.569,0.005-0.851,0.013c-0.214,0.006-0.393,0.151-0.429,0.348c-0.246,1.332-0.231,3.076,0.547,3.981
		c0.075,0.086,0.183,0.142,0.302,0.154c2.193,0.225,4.442,0.578,7.046,0.987c2.56,0.402,5.462,0.858,8.866,1.273
		c0.02,0.002,0.038,0.003,0.059,0.003c0.17,0,0.329-0.091,0.405-0.237C225.226,191.542,225.128,190.681,224.553,189.719z"/>
	<path fill="#FFFFFF" d="M211.362,221.406H197.87l-0.008,54.124h2.838l0.097-50.596c0.001-0.122,0.046-0.237,0.125-0.324
		c0.079-0.085,0.167-0.13,0.299-0.133l6.682,0.036c0.232,0.002,0.42,0.207,0.419,0.459l-0.09,50.558h2.719l-0.451,59.359"/>
	<path fill="#FFFFFF" d="M259.067,182.419h-3.687h-2.268c-4.217,3.944-8.69,8.139-9.504,8.953c-1.3,1.298-2.436,1.956-3.382,1.956
		c-0.048,0-0.094-0.002-0.141-0.005c-0.519-0.037-0.961-0.281-1.279-0.705c-0.463-0.617-0.486-1.669-0.425-2.442
		c-1.127,1.508-1.995,2.861-2.478,3.965l-0.052,0.119l0.158,81.245h3.785v-53.253l20.777,0.001c0.798,0,1.447,0.619,1.447,1.38
		v51.872h50.442v-93.086L259.067,182.419L259.067,182.419z M262.018,216.449c0,0.85-0.625,1.542-1.393,1.542H256.2l-17.054-0.001
		v-0.462c0-0.833-0.248-19.811-0.25-20.003l-0.003-0.227l0.178-0.141c5.83-4.633,10.383-8.853,13.159-11.556
		c0.235,0.457,0.706,0.773,1.256,0.773h8.532V216.449z"/>
</g>
<g class="selectable-area" id="LHF">
	<path fill="#FFFFFF" d="M125.992,135.001c-2.434,0.868-5.187,3.015-5.478,5.679c-0.448,4.087-0.864,5.654-1.231,7.036
		c-0.398,1.497-0.716,2.698-0.911,6.283c-1.753,3.999-1.12,31.889-1.12,31.889l6.749,0.03l23.081-51.418v-3.875
		c0,0,0.072-0.476-0.104-0.455C140.939,130.898,132.73,132.601,125.992,135.001z"/>
	<path fill="#FFFFFF" d="M177.198,89.917l21.583-7.958V62.625l9.145-15.812h1.938c0,0,2.583,15.979,1.083,31.395l-1.833,4.333
		l1.833,2.833l-1,4.75l-0.863,1.918c0.017,0.097,0.03,0.196,0.03,0.299v19.942c0,0.948-0.769,1.717-1.717,1.717h-7.817
		c-0.948,0-1.717-0.769-1.717-1.717v-10.742h-20.667V89.917H177.198z"/>
	<circle fill="#FFFFFF" cx="16.752" cy="161.408" r="15.292"/>
	<path fill="#FFFFFF" d="M16.148,142.952c0.011-0.001,1.597,36.331,1.597,36.331v3.025h58.747c-4.025-3.764-7.784-7.267-7.861-7.339
		l-0.136-0.127l-0.441-8.174v-0.985c-1.468-1.339-2.517-2.277-2.895-2.613c-5.096-15.236-12.256-29.107-12.328-29.246l-0.052-0.101
		l-4.536-3.711l-16.2-0.59l-1.943-3.135l-7.69,0.76l-6.25,3.75L16.148,142.952z"/>
</g>
<g class="selectable-area" id="WDS">
	<path fill="#FFFFFF" d="M190.456,46.834h-69.708l0.06-0.51c0.967-8.104,2.755-16.669,5.464-26.18
		c0.324-1.135,0.965-2.69,2.787-3.079c2.054-0.438,16.144-1.026,19.523-1.148c5.946-0.215,11.894-0.324,17.68-0.324
		c3.181,0,6.383,0.032,9.519,0.097c4.594,0.096,9.138,0.265,13.506,0.504c0.368,0.019,0.882,0.042,1.496,0.066
		c5.942,0.24,9.796,0.553,10.652,1.37c1.113,1.062,1.407,2.85,1.666,4.428c0.071,0.435,0.139,0.853,0.222,1.226
		c0.559,2.523,1.114,5.168,1.654,7.861c1.009,5.034,2.275,10.52,3.093,15.543L190.456,46.834z"/>
	<path fill="#FFFFFF" d="M204.729,186.204l-6.857,25.203c0,0-20.437-3.2-32.87-3.2s-33.8,3.052-33.8,3.052l-7.406-25.452
		c0,0,21.197-6.483,40.969-6.483C184.039,179.324,204.729,186.204,204.729,186.204z"/>
	<path fill="#FFFFFF" d="M261.668,166.668l-0.441,8.174l-0.136,0.127c-0.159,0.148-15.883,14.804-17.483,16.403
		c-1.3,1.298-2.436,1.956-3.382,1.956c-0.048,0-0.094-0.002-0.141-0.005c-0.519-0.037-0.961-0.281-1.279-0.705
		c-0.75-1.001-0.348-3.148-0.299-3.389c0,0,6.266-8.331,23.161-23.601V166.668z"/>
	<path fill="#FFFFFF" d="M68.055,165.628c16.895,15.27,23.161,23.601,23.161,23.601c0.049,0.241,0.451,2.388-0.299,3.389
		c-0.318,0.424-0.76,0.668-1.279,0.705c-0.047,0.003-0.093,0.005-0.141,0.005c-0.946,0-2.082-0.658-3.382-1.956
		c-1.6-1.599-17.324-16.255-17.483-16.403l-0.136-0.127l-0.441-8.174V165.628z"/>
</g>
<g class="selectable-area" id="LHR">
	<path fill="#FFFFFF" d="M129.854,454.416v-0.19h-0.035l-0.092-2.53l-0.436,0.003l-0.118-0.529l-0.298-0.002l-2.388-8.775
		l-0.335-0.002c0,0-0.837-22.059-0.553-33.724c0.283-11.666,4.457-40.839,4.457-40.839c0.241-0.029,0.482-0.054,0.723-0.083
		c0.039-0.312,0.062-0.495,0.062-0.495l-5.086,0.582l-1.976-4.11c0,0-2.695,10.917-4.814,23.643l-2.022,15.713
		c-1.104,13.697-0.561,26.921-0.561,26.921l2.081,4.25l-2.081,2.833l1.383,6.972v21.585c0,1.141,0.928,2.07,2.069,2.07h8.313
		c1.141,0,2.069-0.928,2.069-2.07v-11.223L129.854,454.416L129.854,454.416z"/>
	<path fill="#FFFFFF" d="M131.71,275.045h-2.749l0.069,35.752c0,0.126-0.047,0.246-0.131,0.333l-6.682,6.882
		c-0.081,0.082-0.185,0.126-0.291,0.126c-0.056,0-0.112-0.012-0.166-0.037c-0.154-0.072-0.255-0.237-0.255-0.42l-0.076-42.636
		h-2.807l0.451,59.359c0,0,0.584,2.347,2.417,2.472l10.227-18.749L131.71,275.045z"/>
	<path fill="#FFFFFF" d="M16.455,349.861l3.095,1.57l4.931-0.47l-0.019-4.798c1.643,0.02,7.108,0.109,22.664,0.508
		c19.955,0.503,44.28-9.206,44.517-9.301l0.231-0.093l2.211-4.975v-0.13l0.111-56.778h-4.267v52.687
		c0,2.224-1.756,4.473-3.914,5.013l-14.171,3.543c-0.319,0.08-0.638,0.12-0.948,0.12c-1.849,0-3.191-1.41-3.191-3.351v-58.012
		H17.746l-1.291,15.09V349.861z"/>
	<circle fill="#FFFFFF" cx="17.027" cy="308.998" r="15.292"/>
</g>
<g class="selectable-area" id="LHC">
	<path fill="#FFFFFF" d="M131.715,211.033l-7.919-25.226l-5.838-0.016l0.267,35.13l12.942,0.374L131.715,211.033z M128.841,218.837
		c-0.074,0.083-0.174,0.13-0.279,0.131l-6.776-0.013c-0.001,0.002-0.002,0.002-0.002,0.002c-0.218,0-0.395-0.197-0.396-0.44
		l-0.182-24.402c-0.001-0.209,0.129-0.39,0.313-0.434c0.183-0.044,0.369,0.061,0.446,0.251l6.845,19.748
		c0.022,0.055,0.034,0.117,0.034,0.178l0.112,4.666C128.957,218.641,128.915,218.753,128.841,218.837z"/>
	<path fill="#FFFFFF" d="M116.944,403.079c-1.052,0.03-2.289,0.045-3.043,0.045c-0.56,0-1.186-0.008-1.877-0.026
		c-0.043,0.006-1.104,0.098-1.897-0.623c-0.543-0.494-0.819-1.226-0.819-2.175v-7.583c0-1.324,0-5.352,5.424-5.352h4.233"/>
	<path fill="#FFFFFF" d="M104.861,192.515c-0.17,0-0.329-0.091-0.405-0.237c-0.382-0.736-0.284-1.597,0.291-2.559
		c0.037-0.063,0.091-0.114,0.156-0.152c3.998-2.315,10.081-3.811,15.498-3.811c0.284,0,0.569,0.005,0.851,0.013
		c0.214,0.006,0.393,0.151,0.429,0.348c0.245,1.332,0.231,3.076-0.547,3.981c-0.075,0.086-0.183,0.142-0.302,0.154
		c-2.194,0.226-4.443,0.578-7.046,0.987c-2.56,0.402-5.462,0.858-8.866,1.273C104.9,192.514,104.882,192.515,104.861,192.515z"/>
	<path fill="#FFFFFF" d="M118.742,275.045h2.801l-0.089-50.152c-0.001-0.252,0.187-0.457,0.419-0.459l6.682-0.036
		c0.132,0.003,0.22,0.048,0.299,0.133c0.079,0.086,0.124,0.202,0.125,0.324l0.096,50.19h2.755l-0.664-53.75l-12.836-0.374
		L118.742,275.045z"/>
	<path fill="#FFFFFF" d="M70.656,182.419H17.263v93.086h50.442v-51.872c0-0.761,0.649-1.38,1.447-1.38l20.777-0.001v53.253h3.785
		l0.158-81.245l-0.052-0.119c-0.483-1.104-1.351-2.457-2.478-3.965c0.061,0.773,0.038,1.825-0.425,2.442
		c-0.318,0.424-0.76,0.668-1.279,0.705c-0.047,0.003-0.093,0.005-0.141,0.005c-0.946,0-2.082-0.658-3.382-1.956
		c-0.814-0.814-5.287-5.009-9.504-8.953h-2.268L70.656,182.419L70.656,182.419z M67.705,186.374h8.532
		c0.55,0,1.021-0.316,1.256-0.773c2.776,2.703,7.329,6.923,13.159,11.556l0.178,0.141l-0.003,0.227
		c-0.002,0.192-0.25,19.17-0.25,20.003v0.462l-17.054,0.001h-4.425c-0.768,0-1.393-0.692-1.393-1.542
		C67.705,216.449,67.705,186.374,67.705,186.374z"/>
	<path fill="#FFFFFF" d="M199.875,14.625l3.917,0.583c0,0,3.353,11.205,5.107,22.249h4.6c1.566,0,3.626,1.562,3.626,3.128v8.707
		c0,1.833-0.667,2.835-2.835,2.835l-3.482,0.157l-1.302-5.424h-1.538C207.969,46.859,203.125,17.875,199.875,14.625z"/>
</g>
<g class="selectable-area" id="SWD">
	<path fill="#FFFFFF" d="M121.784,218.957c-0.218,0-0.395-0.197-0.396-0.44l-0.182-24.402c-0.001-0.209,0.129-0.39,0.313-0.434
		c0.183-0.044,0.369,0.061,0.446,0.251l6.845,19.748c0.022,0.055,0.034,0.117,0.034,0.178l0.112,4.666
		c0.001,0.117-0.041,0.229-0.115,0.313c-0.074,0.083-0.174,0.13-0.279,0.131l-6.776-0.013
		C121.785,218.957,121.784,218.957,121.784,218.957z"/>
	<path fill="#FFFFFF" d="M208.014,219.039L201.292,219c-0.105-0.001-0.206-0.048-0.28-0.131s-0.116-0.196-0.115-0.313l0.112-4.666
		c0-0.061,0.012-0.122,0.034-0.178l6.792-19.696c0.077-0.19,0.262-0.295,0.446-0.251c0.183,0.044,0.314,0.225,0.313,0.434
		l-0.182,24.402c-0.001,0.243-0.178,0.44-0.396,0.44C208.016,219.04,208.015,219.04,208.014,219.039z"/>
	<path fill="#FFFFFF" d="M207.445,317.98l-6.682-6.882c-0.084-0.087-0.131-0.208-0.131-0.333l0.165-85.831
		c0.001-0.122,0.046-0.237,0.125-0.324c0.079-0.085,0.167-0.13,0.299-0.133l6.682,0.036c0.232,0.002,0.42,0.207,0.419,0.459
		l-0.165,92.677c0,0.183-0.101,0.347-0.255,0.42c-0.054,0.025-0.11,0.037-0.166,0.037
		C207.63,318.106,207.525,318.063,207.445,317.98z"/>
	<path fill="#FFFFFF" d="M121.926,318.138c-0.056,0-0.112-0.012-0.166-0.037c-0.154-0.072-0.255-0.237-0.255-0.42l-0.165-92.677
		c-0.001-0.252,0.187-0.457,0.419-0.459l6.682-0.036c0.132,0.003,0.22,0.048,0.299,0.133c0.079,0.086,0.124,0.202,0.125,0.324
		l0.165,85.831c0,0.126-0.047,0.246-0.131,0.333l-6.682,6.882C122.136,318.094,122.032,318.138,121.926,318.138z"/>
	<path fill="#FFFFFF" d="M257.879,336.637l-14.171-3.543c-2.158-0.54-3.914-2.789-3.914-5.013V222.252l20.777,0.001
		c0.798,0,1.447,0.619,1.447,1.38v109.773c0,1.941-1.342,3.351-3.191,3.351C258.517,336.757,258.198,336.717,257.879,336.637z"/>
	<path fill="#FFFFFF" d="M253.486,186.375c-0.55,0-1.021-0.316-1.256-0.773c-2.776,2.703-7.33,6.922-13.159,11.556l-0.178,0.141
		l0.003,0.227c0.002,0.192,0.25,19.17,0.25,20.003v0.462l17.054,0.001h4.425c0.768,0,1.393-0.692,1.393-1.542v-30.074h-8.532
		L253.486,186.375L253.486,186.375z"/>
	<path fill="#FFFFFF" d="M70.896,336.757c-1.849,0-3.191-1.41-3.191-3.351V223.633c0-0.761,0.649-1.38,1.447-1.38l20.777-0.001
		v105.829c0,2.224-1.756,4.473-3.914,5.013l-14.171,3.543C71.525,336.717,71.206,336.757,70.896,336.757z"/>
	<path fill="#FFFFFF" d="M76.237,186.375v0.001h-8.532v30.074c0,0.85,0.625,1.542,1.393,1.542h4.425l17.054-0.001v-0.462
		c0-0.833,0.248-19.811,0.25-20.003l0.003-0.227l-0.178-0.141c-5.829-4.634-10.383-8.853-13.159-11.556
		C77.258,186.059,76.787,186.375,76.237,186.375L76.237,186.375z"/>
</g>
<g>
	<path d="M208.016,219.541l-6.727-0.041c-0.247-0.002-0.483-0.111-0.65-0.298c-0.158-0.179-0.243-0.41-0.241-0.65l0.111-4.673
		c0-0.114,0.023-0.236,0.07-0.352l6.783-19.673c0.15-0.373,0.475-0.598,0.835-0.598l0.2,0.023c0.412,0.099,0.698,0.479,0.696,0.923
		l-0.182,24.403C208.91,219.12,208.508,219.541,208.016,219.541z M201.399,218.5l6.513,0.038l0.177-23.728l-6.573,19.064
		L201.399,218.5z"/>
	<path d="M128.564,219.468l-6.78-0.011c-0.492,0-0.894-0.421-0.896-0.938l-0.182-24.4c-0.002-0.446,0.285-0.826,0.697-0.924
		l0.2-0.023c0.361,0,0.685,0.225,0.826,0.574l6.854,19.771c0.037,0.091,0.061,0.217,0.061,0.341l0.112,4.654
		c0.002,0.248-0.083,0.479-0.241,0.656c-0.167,0.188-0.403,0.297-0.648,0.3L128.564,219.468L128.564,219.468z M121.888,218.455
		l6.578,0.013l-0.122-4.598l-6.633-19.145L121.888,218.455z"/>
	<path d="M207.736,318.606c-0.244,0-0.475-0.099-0.648-0.276l-6.684-6.884c-0.174-0.18-0.272-0.428-0.272-0.682l0.165-85.832
		c0.002-0.247,0.092-0.479,0.254-0.659c0.181-0.193,0.4-0.292,0.659-0.297l6.696,0.036c0.508,0.004,0.918,0.436,0.916,0.961
		l-0.165,92.676c0,0.372-0.212,0.714-0.539,0.87C207.986,318.579,207.862,318.606,207.736,318.606z M207.822,224.971l-6.604,0.006
		l-0.086,85.789l6.566,6.758L207.822,224.971z"/>
	<path d="M121.926,318.638c-0.131,0-0.259-0.028-0.378-0.084c-0.329-0.152-0.543-0.496-0.543-0.873l-0.165-92.676
		c-0.002-0.524,0.408-0.956,0.915-0.96l6.684-0.036c0.274,0.007,0.494,0.105,0.668,0.292c0.166,0.181,0.256,0.413,0.259,0.659
		l0.165,85.836c0,0.259-0.096,0.5-0.271,0.682l-6.683,6.883C122.399,318.54,122.169,318.638,121.926,318.638z M128.365,224.967
		l-6.604,0.078l0.243,92.468l6.536-6.731L128.365,224.967z"/>
	<path d="M164.918,342.4c-4.83,0-46.351-0.219-46.397-7.662c-0.009-1.441,0.003-2.139,0.015-2.862
		c0.014-0.828,0.028-1.684,0.013-3.741c-0.002-0.341,0.271-0.619,0.612-0.621c0.002,0,0.003,0,0.005,0
		c0.338,0,0.614,0.273,0.616,0.612c0.016,2.073,0.001,2.936-0.013,3.771c-0.012,0.716-0.023,1.407-0.015,2.835
		c0.022,3.61,19.85,6.436,45.144,6.436c0.014,0,0.024,0,0.038,0c25.271-0.003,45.084-2.83,45.105-6.436
		c0.011-1.63-0.009-2.281-0.031-2.97c-0.025-0.811-0.051-1.65-0.03-4.107c0.003-0.338,0.278-0.611,0.616-0.611
		c0.002,0,0.004,0,0.005,0c0.34,0.003,0.614,0.281,0.611,0.622c-0.02,2.433,0.005,3.259,0.029,4.059
		c0.022,0.701,0.042,1.363,0.031,3.016c-0.045,7.441-41.6,7.661-46.338,7.661C164.93,342.4,164.924,342.4,164.918,342.4z"/>
	<path d="M209.595,147.943c-0.303-1.341-0.658-3.085-1.048-6.821c-0.26-2.486-2.853-4.624-5.16-5.374
		c-8.476-2.766-19.74-5.11-26.787-5.573c-2.551-0.167-5.201-0.249-8.101-0.249c-4.663,0-9.986,0.205-17.797,0.686
		c-5.894,0.362-16.064,2.242-24.097,5.137c-2.264,0.817-4.822,2.812-5.086,5.262c-0.404,3.73-0.788,5.4-1.116,6.672l-0.969-0.25
		c0.32-1.238,0.694-2.866,1.091-6.53c0.311-2.877,3.194-5.176,5.742-6.095c8.122-2.927,18.41-4.829,24.375-5.195
		c7.833-0.482,13.174-0.688,17.859-0.688c2.922,0,5.593,0.082,8.167,0.251c7.118,0.468,18.486,2.832,27.03,5.621
		c2.606,0.847,5.542,3.314,5.845,6.221c0.385,3.682,0.732,5.391,1.028,6.705L209.595,147.943z"/>
	<path d="M208.916,143.473c-0.187,0-0.363-0.114-0.433-0.299c-0.63-1.671-2.218-3.132-4.048-3.721
		c-7.987-2.576-20.473-5.065-27.834-5.547c-7.675-0.495-15.688-0.197-26.132,0.442c-6.381,0.387-17.513,2.401-25.096,5.101
		c-1.664,0.593-3.146,1.853-3.867,3.287c-0.115,0.228-0.393,0.32-0.621,0.205c-0.228-0.115-0.32-0.392-0.205-0.621
		c0.824-1.638,2.503-3.072,4.382-3.743c7.661-2.728,18.905-4.762,25.35-5.153c10.479-0.641,18.526-0.938,26.248-0.442
		c7.55,0.495,19.875,2.951,28.058,5.59c2.087,0.672,3.904,2.35,4.63,4.275c0.09,0.239-0.031,0.506-0.27,0.596
		C209.026,143.463,208.97,143.473,208.916,143.473z"/>
	<path d="M210.689,253.307c-0.291,32.183-0.542,59.978-0.648,76.682c-0.002,0.341,0.272,0.619,0.613,0.621c0.002,0,0.003,0,0.004,0
		c0.339,0,0.614-0.273,0.615-0.615c0.106-16.702,0.357-44.496,0.648-76.678c0.185-20.408,0.381-42.146,0.557-63.003
		c-0.4,0.047-0.813,0.108-1.234,0.147C211.068,211.27,210.873,232.951,210.689,253.307z"/>
	<path d="M212.569,179.391c0.18-22.081-0.476-24.426-1.386-27.67c-0.424-1.513-0.904-3.228-1.36-7.551
		c-0.048-0.461-0.159-0.925-0.33-1.379c-0.12-0.318-0.475-0.479-0.794-0.359c-0.318,0.12-0.479,0.476-0.359,0.794
		c0.133,0.355,0.22,0.716,0.258,1.073c0.466,4.427,0.961,6.196,1.399,7.756c0.849,3.029,1.519,5.421,1.34,27.327
		c-0.017,2.099-0.035,4.226-0.053,6.349c0.41,0.115,0.82,0.218,1.23,0.307C212.532,183.814,212.551,181.588,212.569,179.391z"/>
	<path d="M117.858,251.293c0.284,31.451,0.553,61.157,0.661,78.256c0.002,0.34,0.277,0.613,0.616,0.613c0.001,0,0.002,0,0.004,0.001
		c0.341-0.002,0.615-0.28,0.613-0.62c-0.108-17.101-0.377-46.809-0.661-78.26c-0.179-19.824-0.368-40.802-0.539-60.886
		c-0.388-0.047-0.803-0.129-1.234-0.171C117.489,210.365,117.679,231.409,117.858,251.293z"/>
	<path d="M121.371,141.976c-0.305-0.152-0.675-0.03-0.828,0.274c-0.313,0.624-0.508,1.269-0.579,1.919
		c-0.463,4.22-0.948,5.771-1.375,7.14c-0.901,2.884-1.552,4.968-1.377,26.341c0.021,2.606,0.044,5.244,0.066,7.893
		c0.42,0.032,0.821,0.088,1.235,0.19c-0.023-2.716-0.045-5.42-0.068-8.092c-0.173-21.181,0.486-23.291,1.321-25.964
		c0.444-1.422,0.948-3.034,1.424-7.374c0.054-0.503,0.208-1.007,0.455-1.499C121.798,142.499,121.675,142.129,121.371,141.976z"/>
	<path d="M224.651,192.792c-0.02,0-0.04-0.001-0.06-0.004c-3.495-0.458-6.475-0.96-9.104-1.404
		c-2.675-0.451-4.984-0.841-7.238-1.089c-0.122-0.014-0.233-0.075-0.31-0.17c-0.799-0.994-0.814-2.92-0.563-4.391
		c0.037-0.217,0.222-0.377,0.441-0.384c5.808-0.189,12.47,1.502,16.793,4.19c0.066,0.042,0.122,0.099,0.16,0.168
		c0.589,1.059,0.689,2.009,0.299,2.822C224.99,192.692,224.827,192.792,224.651,192.792z M208.558,189.4
		c2.214,0.252,4.476,0.634,7.083,1.073c2.527,0.426,5.38,0.907,8.699,1.35c0.096-0.444-0.011-0.967-0.323-1.561
		c-4.086-2.502-10.299-4.079-15.787-3.996C208.058,187.582,208.183,188.779,208.558,189.4z"/>
	<path d="M205.072,186.271c-0.179,0-0.349-0.104-0.424-0.279l-22.216-51.395l-0.8-0.101c-1.922-0.243-3.908-0.494-5.388-0.591
		c-7.675-0.495-15.688-0.197-26.132,0.442c-0.837,0.05-1.795,0.134-2.922,0.256l-22.759,51.394c-0.103,0.233-0.378,0.338-0.61,0.235
		c-0.234-0.103-0.339-0.376-0.235-0.61l22.866-51.637c0.067-0.15,0.208-0.254,0.372-0.272c1.258-0.139,2.315-0.233,3.231-0.288
		c10.478-0.641,18.525-0.938,26.248-0.442c1.509,0.099,3.51,0.352,5.444,0.597l1.061,0.134c0.163,0.02,0.302,0.125,0.367,0.275
		l22.321,51.637c0.101,0.234-0.007,0.506-0.241,0.608C205.195,186.259,205.133,186.271,205.072,186.271z"/>
	<path d="M127.911,143.788c-0.131,0-0.258-0.056-0.347-0.157c-0.113-0.128-0.146-0.309-0.086-0.469l1.384-3.675
		c0.052-0.139,0.169-0.245,0.312-0.284c5.692-1.535,13.826-3.389,15.39-3.389c0.15,0,0.304,0.073,0.391,0.195
		c0.087,0.122,0.122,0.278,0.073,0.42c-0.505,1.45-1.323,3.382-1.331,3.401c-0.057,0.135-0.175,0.235-0.318,0.269l-15.361,3.675
		C127.983,143.784,127.947,143.788,127.911,143.788z M129.644,140.036l-0.993,2.638l14.286-3.418
		c0.182-0.437,0.608-1.471,0.974-2.454C141.574,137.119,134.981,138.605,129.644,140.036z"/>
	<path d="M122.507,145.531c-0.114,0-0.227-0.042-0.313-0.122c-0.123-0.113-0.175-0.283-0.137-0.445
		c0.072-0.308,0.737-3.033,1.853-3.759c1.008-0.657,2.779-1.329,5.265-1.999c0.167-0.046,0.346,0.007,0.463,0.136
		c0.117,0.128,0.152,0.311,0.09,0.473l-1.384,3.675c-0.049,0.132-0.157,0.234-0.291,0.277l-5.404,1.743
		C122.602,145.524,122.554,145.531,122.507,145.531z M128.54,140.342c-1.913,0.557-3.33,1.118-4.127,1.636
		c-0.467,0.304-0.934,1.421-1.234,2.387l4.378-1.412L128.54,140.342z"/>
	<path d="M202.086,143.788c-0.036,0-0.072-0.004-0.108-0.013l-15.363-3.675c-0.143-0.034-0.261-0.134-0.318-0.269
		c-0.008-0.019-0.827-1.952-1.331-3.402c-0.049-0.14-0.028-0.295,0.057-0.417c0.085-0.122,0.223-0.195,0.371-0.198c0,0,0,0,0.001,0
		c1.6,0,9.735,1.854,15.428,3.389c0.144,0.039,0.26,0.144,0.312,0.284l1.348,3.583c0.049,0.073,0.076,0.161,0.076,0.255
		c0,0.257-0.237,0.453-0.468,0.462C202.09,143.788,202.088,143.788,202.086,143.788z M187.059,139.256l14.288,3.418l-0.993-2.638
		c-5.35-1.435-11.961-2.924-14.271-3.236C186.45,137.783,186.876,138.819,187.059,139.256z"/>
	<path d="M207.488,145.531c-0.048,0-0.095-0.007-0.142-0.022l-5.402-1.743c-0.134-0.043-0.241-0.145-0.291-0.277l-1.383-3.675
		c-0.061-0.162-0.026-0.345,0.09-0.474c0.117-0.129,0.297-0.181,0.463-0.135c2.484,0.67,4.255,1.342,5.265,1.999
		c1.036,0.675,1.68,3.07,1.825,3.658c0.031,0.062,0.049,0.133,0.049,0.207c0,0.257-0.228,0.471-0.468,0.462
		C207.493,145.531,207.491,145.531,207.488,145.531z M202.44,142.955l4.377,1.412c-0.3-0.966-0.766-2.083-1.233-2.388
		c-0.798-0.519-2.215-1.08-4.127-1.636L202.44,142.955z"/>
	<path d="M203.431,182.589c-0.197-0.065-19.962-6.507-38.487-6.687l-0.265-0.006l-0.131,0.002l-0.236-0.003l-0.164,0.007
		c-18.526,0.18-38.29,6.622-38.487,6.687l-0.191-0.581c0.197-0.064,19.862-6.475,38.409-6.714l0.001-0.003l0.268-0.009l0.402,0.005
		l0.663-0.005l0.002,0.012c18.546,0.239,38.212,6.65,38.409,6.714L203.431,182.589z"/>
	<path d="M119.991,186.11c-0.255,0-0.462-0.207-0.462-0.462v-39.076c0-0.255,0.207-0.462,0.462-0.462s0.462,0.207,0.462,0.462
		v39.076C120.454,185.903,120.247,186.11,119.991,186.11z"/>
	<path d="M209.891,186.11c-0.255,0-0.462-0.207-0.462-0.462v-39.076c0-0.255,0.207-0.462,0.462-0.462s0.462,0.207,0.462,0.462
		v39.076C210.353,185.903,210.146,186.11,209.891,186.11z"/>
	<path d="M210.928,221.913h-12.621c-0.255,0-0.462-0.207-0.462-0.462s0.207-0.462,0.462-0.462h12.621
		c0.255,0,0.462,0.207,0.462,0.462S211.183,221.913,210.928,221.913z"/>
	<path d="M131.171,221.913H118.55c-0.255,0-0.462-0.207-0.462-0.462s0.207-0.462,0.462-0.462h12.621
		c0.255,0,0.462,0.207,0.462,0.462C131.633,221.706,131.426,221.913,131.171,221.913z"/>
	<path d="M210.928,275.947h-12.621c-0.255,0-0.462-0.207-0.462-0.462s0.207-0.462,0.462-0.462h12.621
		c0.255,0,0.462,0.207,0.462,0.462S211.183,275.947,210.928,275.947z"/>
	<path d="M131.171,275.947H118.55c-0.255,0-0.462-0.207-0.462-0.462s0.207-0.462,0.462-0.462h12.621
		c0.255,0,0.462,0.207,0.462,0.462C131.633,275.74,131.426,275.947,131.171,275.947z"/>
	<path d="M209.894,451.978H119.08l-0.626-5.003l-1.7-4.55l-1.193-5.367l1.941-2.773l-1.888-4.314l-0.008-0.105
		c-2.531-33.464,7.456-65.231,7.558-65.548l0.117-0.367l0.381-0.055c11.381-1.655,26.959-2.605,42.74-2.605
		c14.8,0,28.617,0.824,38.906,2.321l0.383,0.055l0.116,0.368c0.101,0.32,10.088,32.367,7.557,65.83l-0.008,0.105l-1.887,4.314
		l1.941,2.773l-1.217,5.45l-1.675,4.467L209.894,451.978z M120.168,450.745h88.637l0.535-4.136l1.686-4.494l1.066-4.795
		l-2.027-2.896l2.081-4.756c2.341-31.26-6.302-61.245-7.398-64.892c-10.19-1.453-23.784-2.253-38.342-2.253
		c-15.547,0-30.888,0.923-42.177,2.536c-1.099,3.623-9.737,33.363-7.397,64.609l2.081,4.756l-2.027,2.896l1.066,4.795l1.72,4.635
		L120.168,450.745z"/>
	<path d="M113.855,403.07c-0.56,0-1.188-0.008-1.881-0.023c0.011,0.004-1.049,0.096-1.843-0.625
		c-0.544-0.494-0.819-1.226-0.819-2.175v-7.583c0-1.324,0-5.352,5.424-5.352h4.084v0.925h-4.084c-3.965,0-4.5,2.238-4.5,4.428v7.583
		c0,0.674,0.172,1.173,0.51,1.485c0.485,0.447,1.19,0.392,1.196,0.392c3.005,0.066,4.199-0.025,4.681-0.113l0.166,0.909
		C116.246,403.02,115.261,403.07,113.855,403.07z"/>
	<polygon points="126.18,430.564 116.648,430.564 116.648,429.64 125.256,429.64 125.256,410.722 115.939,410.722 115.939,409.798
		126.18,409.798 	"/>
	<rect x="115.797" y="425.104" width="9.78" height="0.925"/>
	<path d="M118.591,434.379c-0.032-0.409-2.107-41.207,6.853-66.678l0.603,0.14c-8.945,25.345-6.875,66.081-6.843,66.49
		L118.591,434.379z"/>
	<path d="M210.433,434.851l-0.614-0.048c0.032-0.414,2.102-41.713-6.843-67.057l0.604-0.14
		C212.541,393.08,210.465,434.436,210.433,434.851z"/>
	<rect x="163.853" y="366.335" width="0.925" height="75.768"/>
	<path d="M209.385,467.655h-8.313c-1.141,0-2.069-0.928-2.069-2.07v-13.94h0.925v13.94c0,0.631,0.513,1.145,1.144,1.145h8.313
		c0.631,0,1.144-0.513,1.144-1.145V444h0.925v21.585C211.454,466.726,210.526,467.655,209.385,467.655z"/>
	<polygon points="176.473,456.629 154.027,456.629 152.192,454.361 130.027,454.361 130.027,453.436 152.634,453.436
		154.469,455.704 176.06,455.704 178.262,453.247 199.569,453.247 199.569,454.172 178.675,454.172 	"/>
	<polygon points="212.174,430.564 202.357,430.564 202.357,409.798 212.599,409.798 212.599,410.722 203.282,410.722
		203.282,429.64 212.174,429.64 	"/>
	<rect x="202.961" y="425.104" width="9.779" height="0.925"/>
	<path d="M128.032,467.655h-8.313c-1.141,0-2.069-0.928-2.069-2.07V444h0.925v21.585c0,0.631,0.513,1.145,1.145,1.145h8.313
		c0.631,0,1.145-0.513,1.145-1.145v-13.94h0.925v13.94C130.101,466.726,129.173,467.655,128.032,467.655z"/>
	<rect x="117.356" y="441.829" width="94.262" height="0.925"/>
	<path d="M215.319,403.069c-1.371,0-2.344-0.05-2.885-0.149l0.166-0.909c0.482,0.088,1.678,0.179,4.629,0.111
		c0.061,0.002,0.764,0.055,1.249-0.391c0.339-0.312,0.51-0.811,0.51-1.485v-7.583c0-2.189-0.535-4.428-4.499-4.428h-4.085v-0.925
		h4.084c5.424,0,5.424,4.028,5.424,5.352v7.583c0,0.949-0.276,1.681-0.819,2.175c-0.793,0.721-1.854,0.629-1.897,0.623
		C216.505,403.061,215.879,403.069,215.319,403.069z"/>
	<rect x="117.64" y="443.336" width="93.116" height="0.462"/>
	<rect x="119.057" y="446.595" width="90.86" height="0.462"/>
	<rect x="119.624" y="447.729" width="89.856" height="0.462"/>
	<path d="M194.996,403.611H133.61c-2.118,0-3.841-1.757-3.841-3.917l2.387-26.219c-0.002-2.118,1.721-3.875,3.839-3.875h56.019
		c2.118,0,3.841,1.757,3.841,3.917l2.979,26.124C198.837,401.854,197.114,403.611,194.996,403.611z M135.995,370.526
		c-1.608,0-2.917,1.342-2.917,2.992l-2.387,26.219c0.002,1.607,1.31,2.95,2.918,2.95h61.386c1.608,0,2.916-1.342,2.916-2.992
		l-2.979-26.124c-0.003-1.702-1.311-3.045-2.919-3.045H135.995z"/>
	<path d="M211.037,434.845c-51.521-1.659-92.402-0.017-92.809-0.001l-0.038-0.923c0.407-0.017,41.319-1.658,92.877-0.001
		L211.037,434.845z"/>
	<rect x="200.97" y="451.322" width="0.308" height="15.763"/>
	<rect x="209.365" y="451.322" width="0.308" height="15.763"/>
	<rect x="119.593" y="451.113" width="0.308" height="15.762"/>
	<rect x="127.987" y="451.113" width="0.308" height="15.762"/>
	<path d="M208.202,99.539h-87.42l-0.604-4.832l-1.636-4.379l-1.15-5.174l1.866-2.666l-1.813-4.143l-0.008-0.105
		c-2.436-32.202,7.176-62.772,7.273-63.077l0.117-0.367l0.381-0.056c10.95-1.593,25.94-2.506,41.126-2.506
		c14.242,0,27.537,0.793,37.438,2.233l0.383,0.056l0.116,0.368c0.098,0.308,9.708,31.147,7.273,63.348l-0.008,0.105l-1.813,4.143
		l1.866,2.666l-1.174,5.257l-1.612,4.295L208.202,99.539z M121.871,98.306h85.243l0.512-3.964l1.622-4.323l1.023-4.602l-1.953-2.788
		l2.006-4.585c2.247-30.032-6.041-58.841-7.114-62.411c-9.803-1.397-22.875-2.165-36.875-2.165c-14.951,0-29.703,0.888-40.563,2.438
		c-1.075,3.549-9.359,32.122-7.113,62.138l2.006,4.585l-1.952,2.788l1.023,4.602l1.656,4.463L121.871,98.306z"/>
	<path d="M115.768,52.475c-0.538,0-1.139-0.008-1.803-0.023c0.011,0-1.016,0.092-1.784-0.606c-0.527-0.479-0.794-1.187-0.794-2.106
		v-7.295c0-1.278,0-5.167,5.236-5.167h3.93v0.925h-3.93c-3.799,0-4.312,2.145-4.312,4.242v7.296c0,0.647,0.165,1.125,0.491,1.422
		c0.462,0.42,1.123,0.369,1.129,0.368c2.895,0.063,4.043-0.024,4.505-0.109l0.167,0.91
		C118.077,52.427,117.127,52.475,115.768,52.475z"/>
	<polygon points="130.344,81.622 122.231,81.622 122.231,80.697 129.42,80.697 129.42,64.683 120.472,64.683 120.472,63.758
		130.344,63.758 	"/>
	<rect x="121.952" y="76.825" width="7.794" height="0.925"/>
	<path d="M190.675,47.171H120.46l0.061-0.517c0.974-8.21,2.775-16.886,5.504-26.522c0.326-1.15,0.972-2.725,2.807-3.119
		c2.069-0.444,16.262-1.039,19.665-1.163c5.989-0.217,11.981-0.328,17.808-0.328c3.204,0,6.43,0.033,9.588,0.099
		c4.627,0.097,9.204,0.269,13.604,0.511c0.37,0.02,0.889,0.042,1.507,0.067c5.985,0.243,9.867,0.56,10.73,1.388
		c1.122,1.076,1.417,2.887,1.678,4.486c0.072,0.441,0.14,0.864,0.224,1.242c0.563,2.556,1.123,5.235,1.666,7.964
		c1.016,5.1,1.948,10.267,2.772,15.356l-0.456,0.074l-0.078,0.452c-0.153-0.016-0.848,0.002-1.135,0.007l-0.143,0.003
		C206.262,47.171,190.675,47.171,190.675,47.171z M121.503,46.246l84.886-0.002c0.161-0.003,0.436-0.009,0.686-0.011
		c-0.8-4.9-1.7-9.867-2.676-14.773c-0.542-2.723-1.101-5.396-1.663-7.945c-0.087-0.393-0.159-0.833-0.234-1.292
		c-0.238-1.456-0.507-3.105-1.406-3.968c-0.783-0.752-7.572-1.028-10.127-1.131c-0.624-0.025-1.149-0.047-1.521-0.067
		c-4.389-0.242-8.956-0.414-13.572-0.51c-3.151-0.066-6.371-0.099-9.569-0.099c-5.816,0-11.796,0.11-17.774,0.327
		c-4.557,0.166-17.645,0.744-19.505,1.143c-1.054,0.226-1.686,0.964-2.111,2.467C124.257,29.771,122.485,38.237,121.503,46.246z"/>
	<path d="M207.691,114.616h-7.999c-1.108,0-2.009-0.901-2.009-2.009V99.195h0.925v13.413c0,0.598,0.486,1.084,1.084,1.084h7.999
		c0.598,0,1.084-0.486,1.084-1.084v-20.77h0.925v20.769C209.7,113.715,208.799,114.616,207.691,114.616z"/>
	<polygon points="175.931,104.11 154.319,104.11 152.553,101.928 131.235,101.928 131.235,101.004 152.995,101.004 154.76,103.186
		175.518,103.186 177.637,100.822 198.146,100.822 198.146,101.747 178.05,101.747 	"/>
	<polygon points="207.337,81.622 197.856,81.622 197.856,63.758 208.827,63.758 208.827,64.683 198.782,64.683 198.782,80.697
		207.337,80.697 	"/>
	<rect x="198.279" y="76.825" width="9.41" height="0.925"/>
	<path d="M129.416,114.616h-7.999c-1.107,0-2.009-0.901-2.009-2.009V91.838h0.925v20.769c0,0.598,0.486,1.084,1.084,1.084h7.999
		c0.598,0,1.084-0.486,1.084-1.084V99.195h0.925v13.413C131.425,113.715,130.524,114.616,129.416,114.616z"/>
	<rect x="119.144" y="89.733" width="90.696" height="0.925"/>
	<path d="M213.406,52.475c-1.323,0-2.263-0.048-2.785-0.144l0.167-0.91c0.462,0.085,1.612,0.173,4.45,0.107
		c0.059,0.002,0.728,0.053,1.19-0.371c0.322-0.296,0.485-0.773,0.485-1.416v-7.296c0-2.098-0.512-4.242-4.312-4.242h-3.93v-0.925
		h3.93c5.237,0,5.237,3.889,5.237,5.167v7.296c0,0.919-0.267,1.627-0.794,2.106c-0.768,0.698-1.798,0.609-1.839,0.604
		C214.544,52.467,213.943,52.475,213.406,52.475z"/>
	<rect x="119.417" y="91.191" width="89.593" height="0.462"/>
	<rect x="120.781" y="94.326" width="87.422" height="0.462"/>
	<rect x="121.326" y="95.419" width="86.457" height="0.462"/>
	<path d="M209.28,83.047c-49.572-1.595-88.905-0.016-89.296,0l-0.038-0.924c0.392-0.016,39.759-1.596,89.364,0L209.28,83.047z"/>
	<path d="M198.783,82.226h-0.927v-19.06c0-0.61-0.497-1.106-1.108-1.106h-65.233c-0.611,0-1.108,0.496-1.108,1.106v19.06h-0.927
		v-19.06c0-1.12,0.913-2.03,2.034-2.03h65.233c1.122,0,2.034,0.911,2.034,2.03v19.06H198.783z"/>
	<path d="M121.982,82.486c-1.511-8.532-3.75-34.889-3.773-35.155l0.922-0.078c0.022,0.265,2.258,26.58,3.761,35.071L121.982,82.486z
		"/>
	<path d="M207.11,82.62l-0.91-0.161c1.504-8.491,3.74-34.807,3.762-35.072l0.921,0.078C210.861,47.731,208.621,74.088,207.11,82.62z
		"/>
	<path d="M192.397,58.229h-57.855c-2.001,0-4.736-1.194-6.097-2.662l-7.849-8.468l0.452-0.419l7.849,8.468
		c1.238,1.336,3.823,2.464,5.645,2.464h57.855c1.828,0,4.487-1.067,5.808-2.329l9.203-8.797l0.426,0.445l-9.203,8.797
		C197.189,57.107,194.393,58.229,192.397,58.229z"/>
	<path d="M194.676,65.057h-61.092c-0.375,0-0.68-0.305-0.68-0.68s0.305-0.679,0.68-0.679h61.092c0.375,0,0.68,0.305,0.68,0.679
		S195.051,65.057,194.676,65.057z M133.583,64.161c-0.12,0-0.217,0.097-0.217,0.217s0.098,0.217,0.217,0.217h61.092
		c0.12,0,0.217-0.098,0.217-0.217s-0.098-0.217-0.217-0.217H133.583z"/>
	<path d="M194.676,67.57h-61.092c-0.375,0-0.68-0.305-0.68-0.68s0.305-0.68,0.68-0.68h61.092c0.375,0,0.68,0.305,0.68,0.68
		C195.355,67.265,195.051,67.57,194.676,67.57z M133.583,66.673c-0.12,0-0.217,0.098-0.217,0.217c0,0.12,0.098,0.217,0.217,0.217
		h61.092c0.12,0,0.217-0.098,0.217-0.217c0-0.12-0.098-0.217-0.217-0.217H133.583z"/>
	<path d="M194.676,70.083h-26.62v-0.462h26.62c0.12,0,0.217-0.098,0.217-0.217s-0.098-0.217-0.217-0.217h-61.092
		c-0.12,0-0.217,0.097-0.217,0.217s0.098,0.217,0.217,0.217h27.357v0.462h-27.357c-0.375,0-0.68-0.305-0.68-0.68
		s0.305-0.679,0.68-0.679h61.092c0.375,0,0.68,0.305,0.68,0.679C195.355,69.778,195.051,70.083,194.676,70.083z"/>
	<path d="M194.676,72.596h-27.442v-0.462h27.441c0.12,0,0.217-0.098,0.217-0.217c0-0.12-0.098-0.217-0.217-0.217h-26.131v-0.462
		h26.132c0.375,0,0.68,0.305,0.68,0.68C195.355,72.291,195.051,72.596,194.676,72.596z"/>
	<path d="M161.994,72.596h-28.411c-0.375,0-0.68-0.305-0.68-0.68s0.305-0.68,0.68-0.68h27.024v0.462h-27.024
		c-0.12,0-0.217,0.098-0.217,0.217c0,0.12,0.098,0.217,0.217,0.217h28.411V72.596z"/>
	<path d="M194.676,75.109h-61.092c-0.375,0-0.68-0.305-0.68-0.68s0.305-0.68,0.68-0.68h61.092c0.375,0,0.68,0.305,0.68,0.68
		C195.355,74.804,195.051,75.109,194.676,75.109z M133.583,74.212c-0.12,0-0.217,0.098-0.217,0.217c0,0.12,0.098,0.217,0.217,0.217
		h61.092c0.12,0,0.217-0.098,0.217-0.217c0-0.12-0.098-0.217-0.217-0.217H133.583z"/>
	<path d="M194.676,77.621h-61.092c-0.375,0-0.68-0.305-0.68-0.679c0-0.375,0.305-0.68,0.68-0.68h61.092
		c0.375,0,0.68,0.305,0.68,0.68C195.355,77.317,195.051,77.621,194.676,77.621z M133.583,76.725c-0.12,0-0.217,0.098-0.217,0.217
		c0,0.12,0.098,0.217,0.217,0.217h61.092c0.12,0,0.217-0.097,0.217-0.217s-0.098-0.217-0.217-0.217H133.583z"/>
	<path d="M194.676,80.134h-61.092c-0.375,0-0.68-0.305-0.68-0.68s0.305-0.68,0.68-0.68h61.092c0.375,0,0.68,0.305,0.68,0.68
		C195.355,79.829,195.051,80.134,194.676,80.134z M133.583,79.237c-0.12,0-0.217,0.098-0.217,0.217c0,0.12,0.098,0.217,0.217,0.217
		h61.092c0.12,0,0.217-0.098,0.217-0.217c0-0.12-0.098-0.217-0.217-0.217H133.583z"/>
	<path d="M164.546,73.027c-2.511,0-4.479-0.963-4.479-2.192s1.967-2.192,4.479-2.192c2.511,0,4.479,0.963,4.479,2.192
		S167.057,73.027,164.546,73.027z M164.546,69.26c-2.276,0-3.862,0.83-3.862,1.575c0,0.745,1.586,1.575,3.862,1.575
		s3.862-0.83,3.862-1.575C168.408,70.09,166.822,69.26,164.546,69.26z"/>
	<polygon points="176.64,90.105 176.599,84.584 152.694,84.648 152.669,89.987 151.745,89.983 151.773,83.726 177.516,83.657
		177.564,90.098 	"/>
	<rect x="121.211" y="98.706" width="0.308" height="15.166"/>
	<rect x="129.288" y="98.706" width="0.308" height="15.166"/>
	<rect x="199.6" y="98.706" width="0.308" height="15.166"/>
	<rect x="207.677" y="98.706" width="0.308" height="15.166"/>
	<path d="M198.515,211.97l-0.442-0.069c-0.204-0.032-20.541-3.194-32.793-3.194c-12.255,0-33.516,3.016-33.729,3.047l-0.43,0.061
		l-7.665-26.342l0.472-0.144c0.212-0.065,21.496-6.505,41.115-6.505c19.133,0,39.915,6.836,40.123,6.905l0.448,0.149L198.515,211.97
		z M165.279,207.707c11.318,0,29.448,2.675,32.505,3.138l6.615-24.312c-3.128-0.991-21.943-6.709-39.357-6.709
		c-17.85,0-37.11,5.378-40.35,6.321l7.146,24.558C134.931,210.275,153.926,207.707,165.279,207.707z"/>
	<path d="M164.626,321.375c-12.833,0-30.646-1.723-32.635-1.919c-0.514-0.052-0.883-0.462-0.881-0.957l0.117-107.833l0.431-0.059
		c0.222-0.031,22.318-3.054,33.396-3.054c10.975,0,32.316,2.798,33.219,2.917l0.435,0.058l0.006,0.438l0.118,107.534
		c0,0.479-0.356,0.887-0.829,0.949C197.862,319.469,183.056,321.375,164.626,321.375z M132.225,211.539l-0.116,106.963
		c1.963,0.154,19.731,1.873,32.516,1.873c18.243,0,33.101-1.897,33.243-1.916l-0.154-107.057c-3.429-0.44-22.521-2.849-32.661-2.849
		C154.898,208.553,135.372,211.117,132.225,211.539z"/>
	<path d="M164.399,331.685c-15.345,0-35.519-2.582-35.719-2.607c-0.31-0.041-0.581-0.229-0.726-0.503
		c-0.145-0.274-0.149-0.604-0.01-0.882l3.458-6.916c0.165-0.328,0.492-0.532,0.854-0.532l0.114,0.007
		c14.937,1.52,24.135,2.112,32.795,2.112c9.615,0,18.952-0.775,31.829-2.113l0.106-0.007c0.32,0,0.619,0.164,0.799,0.438
		l3.521,6.964c0.156,0.234,0.18,0.583,0.037,0.887c-0.136,0.297-0.427,0.508-0.757,0.547c-0.185,0.023-19.126,2.428-34.891,2.6
		C165.346,331.683,164.874,331.685,164.399,331.685z M128.843,328.14c0.396,0,21.614,2.688,36.958,2.538
		c15.707-0.172,34.591-2.568,34.779-2.593l-3.544-6.904c-12.848,1.405-22.212,2.183-31.87,2.183c-8.697,0-17.923-0.594-32.907-2.119
		l-3.421,6.896C128.839,328.14,128.841,328.14,128.843,328.14z"/>
	<rect x="126.046" y="317.184" transform="matrix(-0.8759 -0.4824 0.4824 -0.8759 79.3163 675.7416)" width="1" height="20.976"/>

		<rect x="192.436" y="327.173" transform="matrix(-0.4824 -0.8759 0.8759 -0.4824 13.798 663.4988)" width="20.977" height="0.999"/>
	<rect x="165.128" y="321.123" width="1" height="21.279"/>
	<path d="M103.369,192.53c-0.39-0.813-0.29-1.763,0.299-2.822c0.038-0.069,0.094-0.126,0.16-0.168
		c4.323-2.688,10.985-4.379,16.793-4.19c0.219,0.007,0.404,0.167,0.441,0.384c0.251,1.471,0.236,3.397-0.563,4.391
		c-0.077,0.095-0.188,0.156-0.31,0.17c-2.254,0.248-4.563,0.638-7.238,1.089c-2.629,0.444-5.609,0.946-9.104,1.404
		c-0.02,0.003-0.04,0.004-0.06,0.004C103.611,192.792,103.448,192.692,103.369,192.53z M120.208,186.266
		c-5.488-0.083-11.701,1.494-15.787,3.996c-0.312,0.594-0.419,1.117-0.323,1.561c3.319-0.443,6.172-0.924,8.699-1.35
		c2.607-0.439,4.869-0.821,7.083-1.073C120.255,188.779,120.38,187.582,120.208,186.266z"/>
	<path d="M125.205,368.201l-1.682-4.081l0.925-0.381l1.413,3.427c3.013-0.15,24.506-1.199,38.532-1.199
		c14.061,0,35.691,0.979,38.625,1.116l1.709-3.577l0.902,0.432l-1.996,4.176l-0.331-0.017c-0.237-0.011-23.899-1.13-38.91-1.13
		c-15.008,0-38.597,1.204-38.833,1.216L125.205,368.201z"/>
	<path d="M258.827,337.257c-0.353,0-0.712-0.046-1.07-0.135l-14.17-3.543c-2.367-0.593-4.293-3.059-4.293-5.498V221.752
		l21.277,0.001c1.073,0,1.946,0.843,1.946,1.88v109.773C262.518,335.638,260.966,337.257,258.827,337.257z M240.294,222.752v105.329
		c0,2.009,1.586,4.04,3.535,4.527L258,336.151c0.278,0.07,0.557,0.105,0.827,0.105c1.559,0,2.69-1.199,2.69-2.851V223.633
		c0-0.485-0.425-0.88-0.946-0.88L240.294,222.752z"/>
	<path d="M260.625,218.492l-21.979-0.001v-0.962c0-0.678-0.165-13.442-0.228-18.247l-0.03-2.222l0.373-0.294
		c5.794-4.606,10.333-8.808,13.12-11.521l0.484-0.472l0.31,0.603c0.158,0.309,0.469,0.501,0.811,0.501l9.031,0.001v30.574
		C262.518,217.576,261.669,218.492,260.625,218.492z M239.646,217.491l20.979,0.001c0.492,0,0.893-0.467,0.893-1.042v-29.574h-8.031
		c-0.497-0.001-0.962-0.193-1.311-0.524c-2.826,2.731-7.229,6.773-12.779,11.186l0.022,1.73
		C239.48,204.005,239.642,216.474,239.646,217.491z"/>
	<path d="M305.381,350.926l0.019-4.797c-1.644,0.02-7.109,0.109-22.664,0.508c-19.969,0.514-44.28-9.206-44.517-9.301l-0.232-0.093
		l-2.211-4.976l-0.268-138.021v-0.13l0.052-0.119c3.521-8.048,26.991-29.045,29.143-30.96c5.096-15.236,12.256-29.107,12.328-29.246
		l0.052-0.101l4.88-4.338l16.363-0.511l2.08-3.12l7.708,0.551l6.256,3.86l-0.001,12.829l-0.656-0.042
		c-0.011-0.001-0.247-0.015-0.659-0.015c-4.31,0-18.392,1.304-18.651,18.088c-0.269,17.422,16.407,18.212,17.117,18.237l0.595,0.021
		V289.9l-0.001,0.537l-0.532,0.073c-0.695,0.097-17.026,2.53-16.665,18.023c0.386,16.519,13.827,17.802,17.937,17.802
		c0.516,0,0.817-0.022,0.83-0.023l0.664-0.051v19.253l-0.047,4.249l-1.897,0.065l-2.093,1.57L305.381,350.926z M313.115,345.509
		v-17.942c-0.08,0.001-0.168,0.002-0.261,0.002c-3.127,0-18.747-0.916-19.17-19.006c-0.349-14.97,14.204-18.593,17.198-19.179
		V180.417c-3.179-0.32-17.971-2.716-17.712-19.441c0.284-18.371,16.613-19.302,19.884-19.302c0.028,0,0.056,0,0.082,0v-10.852
		l-5.413-3.34l-6.691-0.478l-2.035,3.051l-16.55,0.517l-4.375,3.889c-0.658,1.286-7.411,14.6-12.253,29.124l-0.052,0.157
		l-0.124,0.11c-0.253,0.224-25.209,22.416-28.904,30.525l0.268,137.629l1.902,4.279c2.522,0.987,25.111,9.608,43.794,9.121
		c19.835-0.508,23.281-0.514,23.314-0.514h0.619l-0.019,4.916l3.336,0.318l2.021-1.516l1.108-0.039L313.115,345.509z"/>
	<path d="M313.732,339.558h0.714v-15.803c-0.433,0.04-0.868,0.065-1.304,0.067c-4.03,0.058-8.076-1.564-10.957-4.431
		c-2.896-2.851-4.59-6.88-4.583-10.963c-0.01-4.069,1.687-8.109,4.583-10.956c2.881-2.869,6.926-4.489,10.96-4.431
		c0.435,0.002,0.869,0.027,1.301,0.067V176.167c-0.433,0.04-0.868,0.065-1.304,0.067c-4.03,0.058-8.076-1.564-10.957-4.431
		c-2.896-2.851-4.59-6.88-4.583-10.963c-0.01-4.069,1.687-8.109,4.583-10.956c2.881-2.869,6.926-4.489,10.96-4.431
		c0.435,0.002,0.869,0.027,1.301,0.067v-15.044h-0.692v11.828c0,0-19.657-1.273-19.966,18.679
		c-0.283,18.253,17.712,18.862,17.712,18.862v110.052c0,0-17.577,2.406-17.198,18.648c0.463,19.862,19.43,18.38,19.43,18.38V339.558
		z"/>
	<polygon points="305.565,338.002 313.475,337.968 313.479,338.893 306.489,338.923 306.489,345.511 305.565,345.511 	"/>
	<rect x="236.576" y="219.487" width="75.158" height="0.925"/>
	<rect x="237.152" y="274.494" width="74.426" height="0.925"/>
	<path d="M240.87,192.784c-0.519-0.037-0.961-0.281-1.279-0.705c-0.751-1.001-0.348-3.148-0.3-3.39l0.907,0.182
		c-0.152,0.755-0.25,2.144,0.132,2.653c0.157,0.209,0.355,0.319,0.605,0.337c0.384,0.027,1.272-0.153,2.802-1.683
		c1.55-1.549,15.715-14.756,17.37-16.299l0.421-7.802l0.923,0.05l-0.441,8.174l-0.136,0.127
		c-0.159,0.147-15.884,14.804-17.483,16.403c-1.299,1.299-2.435,1.956-3.381,1.956C240.962,192.787,240.915,192.786,240.87,192.784z
		"/>
	<rect x="298.03" y="129.447" width="0.925" height="19.659"/>
	<rect x="298.262" y="173.42" width="0.462" height="120.435"/>
	<rect x="298.262" y="323.444" width="0.462" height="21.493"/>
	<rect x="301.272" y="126.679" width="0.925" height="19.682"/>
	<rect x="301.503" y="175.688" width="0.462" height="116.007"/>
	<rect x="301.503" y="325.064" width="0.462" height="19.873"/>
	<path d="M282.26,139.665v-9.958h0.925v9.958c0,0.226,0.185,0.411,0.412,0.411h6.79c0.412,0,1.105-0.148,1.482-0.317l5.797-2.598
		c0.274-0.123,0.524-0.508,0.524-0.809v-6.262h0.925v6.262c0,0.658-0.47,1.384-1.07,1.653l-5.797,2.598
		c-0.498,0.223-1.315,0.398-1.86,0.398h-6.79C282.861,141.001,282.262,140.402,282.26,139.665z"/>
	<path d="M285.855,140.793v-8.046c0-0.652,0.531-1.182,1.182-1.182h3.095c0.652,0,1.182,0.53,1.182,1.182v8.046h-0.616v-8.046
		c0-0.312-0.253-0.566-0.565-0.566h-3.095c-0.312,0-0.565,0.254-0.565,0.566v8.046h-0.616H285.855z"/>
	<path d="M273.344,215.993c0-0.646,0.526-1.172,1.173-1.172h7.343c0.646,0,1.172,0.526,1.172,1.172s-0.525,1.172-1.172,1.172h-7.343
		C273.871,217.165,273.345,216.639,273.344,215.993z M274.517,215.437c-0.306,0-0.556,0.249-0.556,0.556s0.25,0.556,0.556,0.556
		h7.343c0.307,0,0.556-0.249,0.556-0.556s-0.25-0.556-0.556-0.556H274.517z"/>
	<path d="M273.344,271.75c0-0.646,0.526-1.172,1.173-1.172h7.343c0.646,0,1.172,0.525,1.172,1.172c0,0.646-0.525,1.172-1.172,1.172
		h-7.343C273.871,272.922,273.345,272.396,273.344,271.75z M274.517,271.194c-0.306,0-0.556,0.25-0.556,0.556
		c0,0.307,0.25,0.556,0.556,0.556h7.343c0.307,0,0.556-0.25,0.556-0.556c0-0.307-0.25-0.556-0.556-0.556H274.517z"/>
	<rect x="264.767" y="163.388" width="0.925" height="180.252"/>
	<rect x="278.39" y="272.688" width="0.462" height="73.543"/>
	<rect x="278.39" y="132.965" width="0.462" height="82.217"/>
	<rect x="278.39" y="217.126" width="0.462" height="53.942"/>
	<rect x="311.958" y="338.764" width="0.462" height="10.454"/>
	<rect x="309.686" y="338.592" width="0.462" height="12.275"/>
	<path d="M301.753,319.831c-3.038-2.99-4.776-7.147-4.768-11.402c-0.009-4.255,1.729-8.408,4.765-11.393
		c2.942-2.932,7.019-4.613,11.184-4.613l0.213,0.002c4.199,0.015,8.298,1.754,11.24,4.765c2.969,2.965,4.65,7.065,4.612,11.237
		c0.038,4.183-1.643,8.283-4.608,11.243c-2.949,3.015-7.048,4.753-11.24,4.769l-0.217,0.001
		C308.771,324.44,304.695,322.759,301.753,319.831z M302.617,297.913c-2.763,2.716-4.407,6.647-4.399,10.517
		c-0.007,3.928,1.597,7.764,4.402,10.525c2.716,2.703,6.475,4.253,10.314,4.253l0.206-0.001c3.871-0.015,7.651-1.618,10.375-4.404
		c2.737-2.733,4.287-6.511,4.252-10.376c0.035-3.855-1.515-7.633-4.256-10.37c-2.719-2.781-6.498-4.385-10.375-4.399l-0.202-0.002
		C309.092,293.656,305.333,295.207,302.617,297.913z"/>
	<path d="M301.094,308.432c0-6.56,5.338-11.898,11.898-11.898s11.898,5.338,11.898,11.898s-5.338,11.898-11.898,11.898
		C306.431,320.33,301.094,314.992,301.094,308.432z M301.71,308.432c0,6.221,5.061,11.282,11.282,11.282s11.282-5.061,11.282-11.282
		s-5.061-11.282-11.282-11.282S301.71,302.211,301.71,308.432z"/>
	<path d="M301.753,172.241c-3.038-2.99-4.776-7.146-4.768-11.401c-0.009-4.255,1.729-8.409,4.765-11.394
		c2.942-2.931,7.019-4.612,11.184-4.612l0.213,0.002c4.199,0.015,8.298,1.754,11.24,4.765c2.969,2.965,4.65,7.065,4.612,11.237
		c0.038,4.184-1.643,8.283-4.608,11.243c-2.949,3.015-7.048,4.754-11.24,4.769l-0.219,0.001
		C308.771,176.851,304.695,175.17,301.753,172.241z M302.618,150.322c-2.763,2.717-4.407,6.648-4.399,10.518
		c-0.007,3.928,1.597,7.764,4.402,10.525c2.716,2.703,6.475,4.253,10.313,4.253l0.207-0.001c3.871-0.014,7.65-1.617,10.375-4.403
		c2.736-2.732,4.286-6.51,4.251-10.376c0.035-3.854-1.515-7.632-4.256-10.37c-2.719-2.782-6.498-4.385-10.375-4.399l-0.202-0.002
		C309.092,146.067,305.333,147.617,302.618,150.322z"/>
	<path d="M301.094,160.843c0-6.561,5.338-11.898,11.898-11.898s11.898,5.337,11.898,11.898c0,6.561-5.338,11.898-11.898,11.898
		C306.431,172.741,301.094,167.404,301.094,160.843z M301.71,160.843c0,6.221,5.061,11.282,11.282,11.282
		s11.282-5.061,11.282-11.282s-5.061-11.282-11.282-11.282S301.71,154.622,301.71,160.843z"/>
	<path d="M305.381,350.926l0.019-4.797c-1.644,0.02-7.109,0.109-22.664,0.508c-19.969,0.514-44.28-9.206-44.517-9.301l-0.232-0.093
		l-2.211-4.976l-0.268-138.021v-0.13l0.052-0.119c3.521-8.048,26.991-29.045,29.143-30.96c5.096-15.236,12.256-29.107,12.328-29.246
		l0.052-0.101l4.88-4.338l16.363-0.511l2.08-3.12l7.708,0.551l6.256,3.86l-0.001,12.829l-0.656-0.042
		c-0.011-0.001-0.247-0.015-0.659-0.015c-4.31,0-18.392,1.304-18.651,18.088c-0.269,17.422,16.407,18.212,17.117,18.237l0.595,0.021
		V289.9l-0.001,0.537l-0.532,0.073c-0.695,0.097-17.026,2.53-16.665,18.023c0.386,16.519,13.827,17.802,17.937,17.802
		c0.516,0,0.817-0.022,0.83-0.023l0.664-0.051v19.253l-0.047,4.249l-1.897,0.065l-2.093,1.57L305.381,350.926z M313.115,345.509
		v-17.942c-0.08,0.001-0.168,0.002-0.261,0.002c-3.127,0-18.747-0.916-19.17-19.006c-0.349-14.97,14.204-18.593,17.198-19.179
		V180.417c-3.179-0.32-17.971-2.716-17.712-19.441c0.284-18.371,16.613-19.302,19.884-19.302c0.028,0,0.056,0,0.082,0v-10.852
		l-5.413-3.34l-6.691-0.478l-2.035,3.051l-16.55,0.517l-4.375,3.889c-0.658,1.286-7.411,14.6-12.253,29.124l-0.052,0.157
		l-0.124,0.11c-0.253,0.224-25.209,22.416-28.904,30.525l0.268,137.629l1.902,4.279c2.522,0.987,25.111,9.608,43.794,9.121
		c19.835-0.508,23.281-0.514,23.314-0.514h0.619l-0.019,4.916l3.336,0.318l2.021-1.516l1.108-0.039L313.115,345.509z"/>
	<path d="M262.784,186.921h-9.539c-1.015,0-1.841-0.826-1.841-1.841s0.826-1.841,1.841-1.841h9.539c1.015,0,1.841,0.826,1.841,1.841
		S263.799,186.921,262.784,186.921z M253.245,184.239c-0.464,0-0.841,0.377-0.841,0.841s0.377,0.841,0.841,0.841h9.539
		c0.464,0,0.841-0.377,0.841-0.841s-0.377-0.841-0.841-0.841H253.245z"/>
	<rect x="253.231" y="181.808" width="60.344" height="1"/>
	<path d="M70.896,337.257c-2.139,0-3.691-1.619-3.691-3.851V223.633c0-1.037,0.874-1.88,1.947-1.88l21.277-0.001v106.329
		c0,2.439-1.926,4.905-4.292,5.498l-14.171,3.543C71.608,337.211,71.248,337.257,70.896,337.257z M89.429,222.752l-20.277,0.001
		c-0.522,0-0.947,0.395-0.947,0.88v109.773c0,1.651,1.132,2.851,2.691,2.851c0.271,0,0.548-0.035,0.827-0.105l14.171-3.543
		c1.949-0.487,3.535-2.519,3.535-4.527C89.429,328.082,89.429,222.752,89.429,222.752z"/>
	<path d="M73.522,218.492h-4.425c-1.044,0-1.893-0.916-1.893-2.042v-30.574h9.032c0.341,0,0.653-0.193,0.812-0.502l0.309-0.602
		l0.484,0.472c2.784,2.711,7.321,6.911,13.121,11.523l0.37,0.292l-0.028,2.223c-0.063,4.805-0.228,17.569-0.228,18.247v0.962
		L73.522,218.492z M68.205,186.876v29.574c0,0.575,0.4,1.042,0.893,1.042l20.979-0.001c0.005-1.018,0.166-13.486,0.228-18.223
		l0.022-1.73c-5.555-4.417-9.956-8.458-12.779-11.187c-0.349,0.332-0.814,0.523-1.311,0.523L68.205,186.876z"/>
	<path d="M19.412,351.398l-2.093-1.57l-1.897-0.065l-0.047-4.249v-19.253l0.664,0.051c0.013,0.001,0.314,0.023,0.83,0.023
		c4.11,0,17.551-1.283,17.937-17.802c0.361-15.493-15.97-17.926-16.665-18.023l-0.532-0.073l-0.001-0.537V179.25l0.595-0.021
		c0.71-0.025,17.386-0.815,17.117-18.237c-0.259-16.784-14.341-18.088-18.651-18.088c-0.412,0-0.648,0.014-0.659,0.015l-0.656,0.042
		l-0.001-12.829l6.256-3.86l7.708-0.551l2.08,3.12l16.363,0.511l4.88,4.338l0.052,0.101c0.072,0.139,7.232,14.01,12.328,29.246
		c2.152,1.915,25.622,22.912,29.143,30.96l0.052,0.119v0.13l-0.268,138.021l-2.211,4.976l-0.232,0.093
		c-0.237,0.095-24.548,9.815-44.517,9.301c-15.555-0.399-21.02-0.488-22.664-0.508l0.019,4.797L19.412,351.398z M16.641,348.571
		l1.108,0.039l2.021,1.516l3.336-0.318l-0.019-4.916h0.619c0.033,0,3.479,0.006,23.314,0.514
		c18.683,0.487,41.272-8.134,43.794-9.121l1.902-4.279l0.268-137.629c-3.695-8.109-28.651-30.301-28.904-30.525l-0.124-0.11
		l-0.052-0.157c-4.842-14.524-11.595-27.838-12.253-29.124l-4.375-3.889l-16.55-0.517l-2.035-3.051L22,127.482l-5.413,3.34v10.852
		c0.026,0,0.054,0,0.082,0c3.271,0,19.6,0.931,19.884,19.302c0.259,16.725-14.533,19.121-17.712,19.441v108.967
		c2.994,0.586,17.547,4.209,17.198,19.179c-0.423,18.09-16.043,19.006-19.17,19.006c-0.093,0-0.181-0.001-0.261-0.002v17.942
		L16.641,348.571z"/>
	<path d="M15.991,326.925c0,0,18.967,1.482,19.43-18.38c0.379-16.242-17.198-18.648-17.198-18.648V179.845
		c0,0,17.995-0.609,17.712-18.862c-0.309-19.952-19.966-18.679-19.966-18.679v-11.828h-0.692v15.044
		c0.432-0.04,0.866-0.065,1.301-0.067c4.034-0.058,8.079,1.562,10.96,4.431c2.896,2.847,4.593,6.887,4.583,10.956
		c0.007,4.083-1.687,8.112-4.583,10.963c-2.881,2.867-6.927,4.489-10.957,4.431c-0.436-0.002-0.871-0.027-1.304-0.067v116.941
		c0.432-0.04,0.866-0.065,1.301-0.067c4.034-0.058,8.079,1.562,10.96,4.431c2.896,2.847,4.593,6.887,4.583,10.956
		c0.007,4.083-1.687,8.112-4.583,10.963c-2.881,2.867-6.927,4.489-10.957,4.431c-0.436-0.002-0.871-0.027-1.304-0.067v15.803h0.714
		C15.991,339.558,15.991,326.925,15.991,326.925z"/>
	<polygon points="24.158,345.511 23.234,345.511 23.234,338.923 16.244,338.893 16.248,337.968 24.158,338.002 	"/>
	<rect x="17.988" y="219.487" width="75.158" height="0.925"/>
	<rect x="18.145" y="274.494" width="74.426" height="0.925"/>
	<path d="M88.713,192.787c-0.946,0-2.082-0.657-3.381-1.956c-1.599-1.599-17.324-16.256-17.483-16.403l-0.136-0.127l-0.441-8.174
		l0.923-0.05l0.421,7.802c1.655,1.543,15.82,14.75,17.37,16.299c1.53,1.53,2.418,1.71,2.802,1.683
		c0.25-0.018,0.448-0.128,0.605-0.337c0.382-0.509,0.284-1.898,0.132-2.653l0.907-0.182c0.048,0.242,0.451,2.389-0.3,3.39
		c-0.318,0.424-0.76,0.668-1.279,0.705C88.808,192.786,88.761,192.787,88.713,192.787z"/>
	<rect x="30.768" y="129.447" width="0.925" height="19.659"/>
	<rect x="30.999" y="173.42" width="0.462" height="120.435"/>
	<rect x="30.999" y="323.444" width="0.462" height="21.493"/>
	<rect x="27.526" y="126.679" width="0.925" height="19.682"/>
	<rect x="27.758" y="175.688" width="0.462" height="116.007"/>
	<rect x="27.758" y="325.064" width="0.462" height="19.873"/>
	<path d="M46.125,141.001h-6.79c-0.545,0-1.362-0.175-1.86-0.398l-5.797-2.598c-0.6-0.269-1.07-0.995-1.07-1.653v-6.262h0.925v6.262
		c0,0.301,0.25,0.686,0.524,0.809l5.797,2.598c0.377,0.169,1.07,0.317,1.482,0.317h6.79c0.227,0,0.412-0.185,0.412-0.411v-9.958
		h0.925v9.958C47.461,140.402,46.862,141.001,46.125,141.001z"/>
	<path d="M43.866,140.793H43.25v-8.046c0-0.312-0.253-0.566-0.565-0.566H39.59c-0.312,0-0.565,0.254-0.565,0.566v8.046h-0.616
		v-8.046c0-0.652,0.53-1.182,1.182-1.182h3.095c0.651,0,1.182,0.53,1.182,1.182v8.046H43.866z"/>
	<path d="M55.206,217.165h-7.343c-0.647,0-1.172-0.526-1.172-1.172s0.526-1.172,1.172-1.172h7.343c0.647,0,1.173,0.526,1.173,1.172
		C56.378,216.639,55.852,217.165,55.206,217.165z M47.863,215.437c-0.306,0-0.556,0.249-0.556,0.556s0.249,0.556,0.556,0.556h7.343
		c0.306,0,0.556-0.249,0.556-0.556s-0.25-0.556-0.556-0.556H47.863z"/>
	<path d="M55.206,272.922h-7.343c-0.647,0-1.172-0.526-1.172-1.172c0-0.647,0.526-1.172,1.172-1.172h7.343
		c0.647,0,1.173,0.526,1.173,1.172C56.378,272.396,55.852,272.922,55.206,272.922z M47.863,271.194
		c-0.306,0-0.556,0.249-0.556,0.556c0,0.306,0.249,0.556,0.556,0.556h7.343c0.306,0,0.556-0.249,0.556-0.556
		c0-0.306-0.25-0.556-0.556-0.556H47.863z"/>
	<rect x="64.031" y="163.388" width="0.925" height="180.252"/>
	<rect x="50.871" y="272.688" width="0.462" height="73.543"/>
	<rect x="50.871" y="132.965" width="0.462" height="82.217"/>
	<rect x="50.871" y="217.126" width="0.462" height="53.942"/>
	<rect x="17.303" y="338.764" width="0.462" height="10.454"/>
	<rect x="19.575" y="338.592" width="0.462" height="12.275"/>
	<path d="M16.789,324.44l-0.217-0.001c-4.192-0.016-8.291-1.754-11.24-4.769c-2.965-2.96-4.646-7.06-4.608-11.243
		c-0.038-4.172,1.643-8.272,4.612-11.237c2.942-3.011,7.041-4.75,11.24-4.765l0.213-0.002c4.165,0,8.242,1.681,11.184,4.613
		c3.036,2.985,4.774,7.138,4.765,11.393c0.008,4.255-1.73,8.412-4.768,11.402C25.028,322.759,20.952,324.44,16.789,324.44z
		 M16.789,293.656l-0.202,0.002c-3.877,0.014-7.656,1.618-10.375,4.399c-2.741,2.737-4.291,6.515-4.256,10.37
		c-0.035,3.865,1.515,7.643,4.252,10.376c2.724,2.786,6.504,4.389,10.375,4.404l0.206,0.001c3.839,0,7.598-1.55,10.314-4.253
		c2.805-2.761,4.409-6.597,4.402-10.525c0.008-3.87-1.636-7.801-4.399-10.517C24.39,295.207,20.631,293.656,16.789,293.656z"/>
	<path d="M16.731,320.33c-6.56,0-11.898-5.338-11.898-11.898s5.338-11.898,11.898-11.898s11.898,5.338,11.898,11.898
		S23.292,320.33,16.731,320.33z M16.731,297.15c-6.221,0-11.282,5.061-11.282,11.282s5.061,11.282,11.282,11.282
		s11.282-5.061,11.282-11.282S22.952,297.15,16.731,297.15z"/>
	<path d="M16.791,176.851l-0.219-0.001c-4.192-0.015-8.291-1.754-11.24-4.769c-2.965-2.96-4.646-7.059-4.608-11.243
		c-0.038-4.172,1.643-8.272,4.612-11.237c2.942-3.011,7.041-4.75,11.24-4.765l0.213-0.002c4.165,0,8.242,1.681,11.184,4.612
		c3.036,2.985,4.774,7.139,4.765,11.394c0.008,4.255-1.73,8.411-4.768,11.401C25.028,175.17,20.952,176.851,16.791,176.851z
		 M16.789,146.067l-0.202,0.002c-3.877,0.014-7.656,1.617-10.375,4.399c-2.741,2.738-4.291,6.516-4.256,10.37
		c-0.035,3.866,1.515,7.644,4.251,10.376c2.725,2.786,6.504,4.389,10.375,4.403l0.207,0.001c3.838,0,7.597-1.55,10.313-4.253
		c2.805-2.761,4.409-6.597,4.402-10.525c0.008-3.87-1.636-7.801-4.399-10.518C24.39,147.617,20.631,146.067,16.789,146.067z"/>
	<path d="M16.731,172.741c-6.56,0-11.898-5.337-11.898-11.898c0-6.561,5.338-11.898,11.898-11.898s11.898,5.337,11.898,11.898
		S23.292,172.741,16.731,172.741z M16.731,149.561c-6.221,0-11.282,5.061-11.282,11.282s5.061,11.282,11.282,11.282
		s11.282-5.061,11.282-11.282S22.952,149.561,16.731,149.561z"/>
	<path d="M19.412,351.398l-2.093-1.57l-1.897-0.065l-0.047-4.249v-19.253l0.664,0.051c0.013,0.001,0.314,0.023,0.83,0.023
		c4.11,0,17.551-1.283,17.937-17.802c0.361-15.493-15.97-17.926-16.665-18.023l-0.532-0.073l-0.001-0.537V179.25l0.595-0.021
		c0.71-0.025,17.386-0.815,17.117-18.237c-0.259-16.784-14.341-18.088-18.651-18.088c-0.412,0-0.648,0.014-0.659,0.015l-0.656,0.042
		l-0.001-12.829l6.256-3.86l7.708-0.551l2.08,3.12l16.363,0.511l4.88,4.338l0.052,0.101c0.072,0.139,7.232,14.01,12.328,29.246
		c2.152,1.915,25.622,22.912,29.143,30.96l0.052,0.119v0.13l-0.268,138.021l-2.211,4.976l-0.232,0.093
		c-0.237,0.095-24.548,9.815-44.517,9.301c-15.555-0.399-21.02-0.488-22.664-0.508l0.019,4.797L19.412,351.398z M16.641,348.571
		l1.108,0.039l2.021,1.516l3.336-0.318l-0.019-4.916h0.619c0.033,0,3.479,0.006,23.314,0.514
		c18.683,0.487,41.272-8.134,43.794-9.121l1.902-4.279l0.268-137.629c-3.695-8.109-28.651-30.301-28.904-30.525l-0.124-0.11
		l-0.052-0.157c-4.842-14.524-11.595-27.838-12.253-29.124l-4.375-3.889l-16.55-0.517l-2.035-3.051L22,127.482l-5.413,3.34v10.852
		c0.026,0,0.054,0,0.082,0c3.271,0,19.6,0.931,19.884,19.302c0.259,16.725-14.533,19.121-17.712,19.441v108.967
		c2.994,0.586,17.547,4.209,17.198,19.179c-0.423,18.09-16.043,19.006-19.17,19.006c-0.093,0-0.181-0.001-0.261-0.002v17.942
		L16.641,348.571z"/>
	<path d="M76.477,186.921h-9.539c-1.015,0-1.841-0.826-1.841-1.841s0.826-1.841,1.841-1.841h9.539c1.015,0,1.841,0.826,1.841,1.841
		S77.492,186.921,76.477,186.921z M66.938,184.239c-0.464,0-0.841,0.377-0.841,0.841s0.377,0.841,0.841,0.841h9.539
		c0.464,0,0.841-0.377,0.841-0.841s-0.377-0.841-0.841-0.841H66.938z"/>
	<rect x="16.147" y="181.808" width="60.344" height="1"/>
</g>
</svg>
