<?xml version="1.0" encoding="utf-8"?>
<!-- Generator: Adobe Illustrator 17.0.0, SVG Export Plug-In . SVG Version: 6.00 Build 0)  -->
<!DOCTYPE svg PUBLIC "-//W3C//DTD SVG 1.1//EN" "http://www.w3.org/Graphics/SVG/1.1/DTD/svg11.dtd">
<svg version="1.1" id="Layer_1" xmlns="http://www.w3.org/2000/svg"  x="0px" y="0px"
	 width="106.451px" height="102.382px" viewBox="111.387 12.234 106.451 102.382"
	 enable-background="new 111.387 12.234 106.451 102.382" xml:space="preserve">
<g id="front">
	<polygon fill="#FFFFFF" points="130.083,82.083 151.667,90.042 151.625,101.875 153.333,103.833 174.583,103.833 177.417,100.917
		177.368,89.998 199,82 199,62.833 208.07,46.69 120.517,46.69 130,63.167 	"/>
</g>
<g id="roof">
	<path fill="#FFFFFF" d="M199.992,14.843C194.07,14.158,181.716,13,165.917,13c-16.337,0-30.541,1.239-37.048,1.911
		c-0.466,0.555-0.96,1.593-1.467,2.99C132.618,17.191,144.494,16,165.5,16c20.543,0,31.38,1.415,36.154,2.301
		C201.079,16.651,200.516,15.425,199.992,14.843z"/>
</g>
<g id="front-right">
	<path fill="#FF3947" d="M151.667,90.042l-21.583-7.958V62.75l-9.145-15.812H119c0,0-2.583,15.979-1.083,31.395l1.833,4.333
		l-1.833,2.833l1,4.75l0.863,1.918c-0.017,0.097-0.03,0.196-0.03,0.299v19.942c0,0.948,0.769,1.717,1.717,1.717h7.817
		c0.948,0,1.717-0.769,1.717-1.717v-10.742h20.667L151.667,90.042L151.667,90.042z"/>
</g>
<g id="right">
	<path fill="#FFFFFF" d="M129,14.75l-3.917,0.583c0,0-3.353,11.205-5.107,22.249h-4.6c-1.566,0-3.626,1.562-3.626,3.128v8.707
		c0,1.833,0.667,2.835,2.835,2.835l3.482,0.157l1.302-5.424h1.538C120.906,46.984,125.75,18,129,14.75z"/>
</g>
<g id="front-left">
	<path fill="#FFFFFF" d="M177.198,89.917l21.583-7.958V62.625l9.145-15.812h1.938c0,0,2.583,15.979,1.083,31.395l-1.833,4.333
		l1.833,2.833l-1,4.75l-0.863,1.918c0.017,0.097,0.03,0.196,0.03,0.299v19.942c0,0.948-0.769,1.717-1.717,1.717h-7.817
		c-0.948,0-1.717-0.769-1.717-1.717v-10.742h-20.667V89.917H177.198z"/>
</g>
<g id="front-windscreen">
	<path fill="#FFFFFF" d="M190.456,46.834h-69.708l0.06-0.51c0.967-8.104,2.755-16.669,5.464-26.18
		c0.324-1.135,0.965-2.69,2.787-3.079c2.054-0.438,16.144-1.026,19.523-1.148c5.946-0.215,11.894-0.324,17.68-0.324
		c3.181,0,6.383,0.032,9.519,0.097c4.594,0.096,9.138,0.265,13.506,0.504c0.368,0.019,0.882,0.042,1.496,0.066
		c5.942,0.24,9.796,0.553,10.652,1.37c1.113,1.062,1.407,2.85,1.666,4.428c0.071,0.435,0.139,0.853,0.222,1.226
		c0.559,2.523,1.114,5.168,1.654,7.861c1.009,5.034,2.275,10.52,3.093,15.543L190.456,46.834z"/>
</g>
<g id="left">
	<path fill="#FFFFFF" d="M199.875,14.625l3.917,0.583c0,0,3.353,11.205,5.107,22.249h4.6c1.566,0,3.626,1.562,3.626,3.128v8.707
		c0,1.833-0.667,2.835-2.835,2.835l-3.482,0.157l-1.302-5.424h-1.538C207.969,46.859,203.125,17.875,199.875,14.625z"/>
</g>
<g id="lineart">
	<path d="M208.202,99.539h-87.42l-0.604-4.832l-1.636-4.379l-1.15-5.174l1.866-2.666l-1.813-4.143l-0.008-0.105
		c-2.436-32.202,7.176-62.772,7.273-63.077l0.117-0.367l0.381-0.056c10.95-1.593,25.94-2.506,41.126-2.506
		c14.242,0,27.537,0.793,37.438,2.233l0.383,0.056l0.116,0.368c0.098,0.308,9.708,31.147,7.273,63.348l-0.008,0.105l-1.813,4.143
		l1.866,2.666l-1.174,5.257l-1.612,4.295L208.202,99.539z M121.871,98.306h85.243l0.512-3.964l1.622-4.323l1.023-4.602l-1.953-2.788
		l2.006-4.585c2.247-30.032-6.041-58.841-7.114-62.411c-9.803-1.397-22.875-2.165-36.875-2.165c-14.951,0-29.703,0.888-40.563,2.438
		c-1.075,3.549-9.359,32.122-7.113,62.138l2.006,4.585l-1.952,2.788l1.023,4.602l1.656,4.463L121.871,98.306z"/>
	<path d="M115.768,52.475c-0.538,0-1.139-0.008-1.803-0.023c0.011,0-1.016,0.092-1.784-0.606c-0.527-0.479-0.794-1.187-0.794-2.106
		v-7.295c0-1.278,0-5.167,5.236-5.167h3.93v0.925h-3.93c-3.799,0-4.312,2.145-4.312,4.242v7.296c0,0.647,0.165,1.125,0.491,1.422
		c0.462,0.42,1.123,0.369,1.129,0.368c2.895,0.063,4.043-0.024,4.505-0.109l0.167,0.91
		C118.077,52.427,117.127,52.475,115.768,52.475z"/>
	<polygon points="130.344,81.622 122.231,81.622 122.231,80.697 129.42,80.697 129.42,64.683 120.472,64.683 120.472,63.758
		130.344,63.758 	"/>
	<rect x="121.952" y="76.825" width="7.794" height="0.925"/>
	<path d="M190.675,47.171H120.46l0.061-0.517c0.974-8.21,2.775-16.886,5.504-26.522c0.326-1.15,0.972-2.725,2.807-3.119
		c2.069-0.444,16.262-1.039,19.665-1.163c5.989-0.217,11.981-0.328,17.808-0.328c3.204,0,6.43,0.033,9.588,0.099
		c4.627,0.097,9.204,0.269,13.604,0.511c0.37,0.02,0.889,0.042,1.507,0.067c5.985,0.243,9.867,0.56,10.73,1.388
		c1.122,1.076,1.417,2.887,1.678,4.486c0.072,0.441,0.14,0.864,0.224,1.242c0.563,2.556,1.123,5.235,1.666,7.964
		c1.016,5.1,1.948,10.267,2.772,15.356l-0.456,0.074l-0.078,0.452c-0.153-0.016-0.848,0.002-1.135,0.007l-0.143,0.003
		C206.262,47.171,190.675,47.171,190.675,47.171z M121.503,46.246l84.886-0.002c0.161-0.003,0.436-0.009,0.686-0.011
		c-0.8-4.9-1.7-9.867-2.676-14.773c-0.542-2.723-1.101-5.396-1.663-7.945c-0.087-0.393-0.159-0.833-0.234-1.292
		c-0.238-1.456-0.507-3.105-1.406-3.968c-0.783-0.752-7.572-1.028-10.127-1.131c-0.624-0.025-1.149-0.047-1.521-0.067
		c-4.389-0.242-8.956-0.414-13.572-0.51c-3.151-0.066-6.371-0.099-9.569-0.099c-5.816,0-11.796,0.11-17.774,0.327
		c-4.557,0.166-17.645,0.744-19.505,1.143c-1.054,0.226-1.686,0.964-2.111,2.467C124.257,29.771,122.485,38.237,121.503,46.246z"/>
	<path d="M207.691,114.616h-7.999c-1.108,0-2.009-0.901-2.009-2.009V99.195h0.925v13.413c0,0.598,0.486,1.084,1.084,1.084h7.999
		c0.598,0,1.084-0.486,1.084-1.084v-20.77h0.925v20.769C209.7,113.715,208.799,114.616,207.691,114.616z"/>
	<polygon points="175.931,104.11 154.319,104.11 152.553,101.928 131.235,101.928 131.235,101.004 152.995,101.004 154.76,103.186
		175.518,103.186 177.637,100.822 198.146,100.822 198.146,101.747 178.05,101.747 	"/>
	<polygon points="207.337,81.622 197.856,81.622 197.856,63.758 208.827,63.758 208.827,64.683 198.782,64.683 198.782,80.697
		207.337,80.697 	"/>
	<rect x="198.279" y="76.825" width="9.41" height="0.925"/>
	<path d="M129.416,114.616h-7.999c-1.107,0-2.009-0.901-2.009-2.009V91.838h0.925v20.769c0,0.598,0.486,1.084,1.084,1.084h7.999
		c0.598,0,1.084-0.486,1.084-1.084V99.195h0.925v13.413C131.425,113.715,130.524,114.616,129.416,114.616z"/>
	<rect x="119.144" y="89.733" width="90.696" height="0.925"/>
	<path d="M213.406,52.475c-1.323,0-2.263-0.048-2.785-0.144l0.167-0.91c0.462,0.085,1.612,0.173,4.45,0.107
		c0.059,0.002,0.728,0.053,1.19-0.371c0.322-0.296,0.485-0.773,0.485-1.416v-7.296c0-2.098-0.512-4.242-4.312-4.242h-3.93v-0.925
		h3.93c5.237,0,5.237,3.889,5.237,5.167v7.296c0,0.919-0.267,1.627-0.794,2.106c-0.768,0.698-1.798,0.609-1.839,0.604
		C214.544,52.467,213.943,52.475,213.406,52.475z"/>
	<rect x="119.417" y="91.191" width="89.593" height="0.462"/>
	<rect x="120.781" y="94.326" width="87.422" height="0.462"/>
	<rect x="121.326" y="95.419" width="86.457" height="0.462"/>
	<path d="M209.28,83.047c-49.572-1.595-88.905-0.016-89.296,0l-0.038-0.924c0.392-0.016,39.759-1.596,89.364,0L209.28,83.047z"/>
	<path d="M198.783,82.226h-0.927v-19.06c0-0.61-0.497-1.106-1.108-1.106h-65.233c-0.611,0-1.108,0.496-1.108,1.106v19.06h-0.927
		v-19.06c0-1.12,0.913-2.03,2.034-2.03h65.233c1.122,0,2.034,0.911,2.034,2.03v19.06H198.783z"/>
	<path d="M121.982,82.486c-1.511-8.532-3.75-34.889-3.773-35.155l0.922-0.078c0.022,0.265,2.258,26.58,3.761,35.071L121.982,82.486z
		"/>
	<path d="M207.11,82.62l-0.91-0.161c1.504-8.491,3.74-34.807,3.762-35.072l0.921,0.078C210.861,47.731,208.621,74.088,207.11,82.62z
		"/>
	<path d="M192.397,58.229h-57.855c-2.001,0-4.736-1.194-6.097-2.662l-7.849-8.468l0.452-0.419l7.849,8.468
		c1.238,1.336,3.823,2.464,5.645,2.464h57.855c1.828,0,4.487-1.067,5.808-2.329l9.203-8.797l0.426,0.445l-9.203,8.797
		C197.189,57.107,194.393,58.229,192.397,58.229z"/>
	<path d="M194.676,65.057h-61.092c-0.375,0-0.68-0.305-0.68-0.68s0.305-0.679,0.68-0.679h61.092c0.375,0,0.68,0.305,0.68,0.679
		S195.051,65.057,194.676,65.057z M133.583,64.161c-0.12,0-0.217,0.097-0.217,0.217s0.098,0.217,0.217,0.217h61.092
		c0.12,0,0.217-0.098,0.217-0.217s-0.098-0.217-0.217-0.217H133.583z"/>
	<path d="M194.676,67.57h-61.092c-0.375,0-0.68-0.305-0.68-0.68s0.305-0.68,0.68-0.68h61.092c0.375,0,0.68,0.305,0.68,0.68
		C195.355,67.265,195.051,67.57,194.676,67.57z M133.583,66.673c-0.12,0-0.217,0.098-0.217,0.217c0,0.12,0.098,0.217,0.217,0.217
		h61.092c0.12,0,0.217-0.098,0.217-0.217c0-0.12-0.098-0.217-0.217-0.217H133.583z"/>
	<path d="M194.676,70.083h-26.62v-0.462h26.62c0.12,0,0.217-0.098,0.217-0.217s-0.098-0.217-0.217-0.217h-61.092
		c-0.12,0-0.217,0.097-0.217,0.217s0.098,0.217,0.217,0.217h27.357v0.462h-27.357c-0.375,0-0.68-0.305-0.68-0.68
		s0.305-0.679,0.68-0.679h61.092c0.375,0,0.68,0.305,0.68,0.679C195.355,69.778,195.051,70.083,194.676,70.083z"/>
	<path d="M194.676,72.596h-27.442v-0.462h27.441c0.12,0,0.217-0.098,0.217-0.217c0-0.12-0.098-0.217-0.217-0.217h-26.131v-0.462
		h26.132c0.375,0,0.68,0.305,0.68,0.68C195.355,72.291,195.051,72.596,194.676,72.596z"/>
	<path d="M161.994,72.596h-28.411c-0.375,0-0.68-0.305-0.68-0.68s0.305-0.68,0.68-0.68h27.024v0.462h-27.024
		c-0.12,0-0.217,0.098-0.217,0.217c0,0.12,0.098,0.217,0.217,0.217h28.411V72.596z"/>
	<path d="M194.676,75.109h-61.092c-0.375,0-0.68-0.305-0.68-0.68s0.305-0.68,0.68-0.68h61.092c0.375,0,0.68,0.305,0.68,0.68
		C195.355,74.804,195.051,75.109,194.676,75.109z M133.583,74.212c-0.12,0-0.217,0.098-0.217,0.217c0,0.12,0.098,0.217,0.217,0.217
		h61.092c0.12,0,0.217-0.098,0.217-0.217c0-0.12-0.098-0.217-0.217-0.217H133.583z"/>
	<path d="M194.676,77.621h-61.092c-0.375,0-0.68-0.305-0.68-0.679c0-0.375,0.305-0.68,0.68-0.68h61.092
		c0.375,0,0.68,0.305,0.68,0.68C195.355,77.317,195.051,77.621,194.676,77.621z M133.583,76.725c-0.12,0-0.217,0.098-0.217,0.217
		c0,0.12,0.098,0.217,0.217,0.217h61.092c0.12,0,0.217-0.097,0.217-0.217s-0.098-0.217-0.217-0.217H133.583z"/>
	<path d="M194.676,80.134h-61.092c-0.375,0-0.68-0.305-0.68-0.68s0.305-0.68,0.68-0.68h61.092c0.375,0,0.68,0.305,0.68,0.68
		C195.355,79.829,195.051,80.134,194.676,80.134z M133.583,79.237c-0.12,0-0.217,0.098-0.217,0.217c0,0.12,0.098,0.217,0.217,0.217
		h61.092c0.12,0,0.217-0.098,0.217-0.217c0-0.12-0.098-0.217-0.217-0.217H133.583z"/>
	<path d="M164.546,73.027c-2.511,0-4.479-0.963-4.479-2.192s1.967-2.192,4.479-2.192c2.511,0,4.479,0.963,4.479,2.192
		S167.057,73.027,164.546,73.027z M164.546,69.26c-2.276,0-3.862,0.83-3.862,1.575c0,0.745,1.586,1.575,3.862,1.575
		s3.862-0.83,3.862-1.575C168.408,70.09,166.822,69.26,164.546,69.26z"/>
	<polygon points="176.64,90.105 176.599,84.584 152.694,84.648 152.669,89.987 151.745,89.983 151.773,83.726 177.516,83.657
		177.564,90.098 	"/>
	<rect x="121.211" y="98.706" width="0.308" height="15.166"/>
	<rect x="129.288" y="98.706" width="0.308" height="15.166"/>
	<rect x="199.6" y="98.706" width="0.308" height="15.166"/>
	<rect x="207.677" y="98.706" width="0.308" height="15.166"/>
</g>
</svg>
