<?xml version="1.0" encoding="utf-8"?>
<!-- Generator: Adobe Illustrator 17.0.0, SVG Export Plug-In . SVG Version: 6.00 Build 0)  -->
<!DOCTYPE svg PUBLIC "-//W3C//DTD SVG 1.1//EN" "http://www.w3.org/Graphics/SVG/1.1/DTD/svg11.dtd">
<svg version="1.1" id="Layer_1" xmlns="http://www.w3.org/2000/svg"  x="0px" y="0px"
	 width="225.677px" height="93.492px" viewBox="0.032 0 225.677 93.492" enable-background="new 0.032 0 225.677 93.492"
	 xml:space="preserve">
<g id="front-right">
	<circle fill="#FFFFFF" cx="190.022" cy="77.463" r="15.292"/>
	<path fill="#FFFFFF" d="M220.633,78.055l3.75-6.25l0.76-7.69l-3.135-1.943l-0.59-16.2l-3.711-4.536l-0.101-0.052
		c-0.139-0.072-14.01-7.232-29.246-12.328c-0.336-0.378-1.274-1.427-2.613-2.895h-0.985l-8.174-0.441l-0.127-0.136
		c-0.072-0.077-3.575-3.836-7.339-7.861V76.47h3.025c0,0,36.332,1.586,36.331,1.597L220.633,78.055z"/>
</g>
<g id="back-right">
	<path fill="#FFFFFF" d="M60.947,77.76l15.09-1.291V26.51H18.025c-1.941,0-3.351-1.342-3.351-3.191c0-0.31,0.04-0.629,0.12-0.948
		L18.337,8.2c0.54-2.158,2.789-3.914,5.013-3.914h52.687V0.019L19.259,0.13h-0.13l-4.975,2.211l-0.093,0.231
		C13.966,2.809,4.257,27.134,4.76,47.089C5.159,62.645,5.248,68.11,5.268,69.753L0.47,69.734L0,74.665l1.57,3.095L60.947,77.76
		L60.947,77.76z"/>
	<circle fill="#FFFFFF" cx="42.432" cy="77.188" r="15.292"/>
</g>
<g id="right">
	<path fill="#FFFFFF" d="M169.011,23.559v-3.687v-2.268c-3.944-4.217-8.139-8.69-8.953-9.504c-1.298-1.3-1.956-2.436-1.956-3.382
		c0-0.048,0.002-0.094,0.005-0.141c0.037-0.519,0.281-0.961,0.705-1.279c0.617-0.463,1.669-0.486,2.442-0.425
		c-1.508-1.127-2.861-1.995-3.965-2.478l-0.119-0.052L75.925,0.501v3.785h53.253l-0.001,20.777c0,0.798-0.619,1.447-1.38,1.447
		H75.925v50.442h93.086L169.011,23.559L169.011,23.559z M134.981,26.51c-0.85,0-1.542-0.625-1.542-1.393v-4.425l0.001-17.054h0.462
		c0.833,0,19.811-0.248,20.003-0.25l0.227-0.003l0.141,0.178c4.633,5.83,8.853,10.383,11.556,13.159
		c-0.457,0.235-0.773,0.706-0.773,1.256v8.532H134.981z"/>
</g>
<g id="front-windscreen">
	<path fill="#FFFFFF" d="M184.762,26.16l-8.174-0.441l-0.127-0.136C176.313,25.424,161.657,9.7,160.058,8.1
		c-1.298-1.3-1.956-2.436-1.956-3.382c0-0.048,0.002-0.094,0.005-0.141c0.037-0.519,0.281-0.961,0.705-1.279
		c1.001-0.75,3.148-0.348,3.389-0.299c0,0,8.331,6.266,23.601,23.161H184.762z"/>
</g>
<g id="side-glass">
	<path fill="#FF3947" d="M14.793,22.371L18.336,8.2c0.54-2.158,2.789-3.914,5.013-3.914h105.829l-0.001,20.777
		c0,0.798-0.619,1.447-1.38,1.447H18.024c-1.941,0-3.351-1.342-3.351-3.191C14.673,23.009,14.713,22.69,14.793,22.371z"/>
	<path fill="#FF3947" d="M165.055,17.978c0-0.55,0.316-1.021,0.773-1.256c-2.703-2.776-6.922-7.33-11.556-13.159l-0.141-0.178
		l-0.227,0.003c-0.192,0.002-19.17,0.25-20.003,0.25h-0.462l-0.001,17.054v4.425c0,0.768,0.692,1.393,1.542,1.393h30.074v-8.532
		L165.055,17.978L165.055,17.978z"/>
</g>
<g id="lineart">
	<path d="M14.173,23.319c0-0.353,0.046-0.712,0.135-1.07l3.543-14.17c0.593-2.367,3.059-4.293,5.498-4.293h106.329l-0.001,21.277
		c0,1.073-0.843,1.946-1.88,1.946H18.024C15.792,27.01,14.173,25.458,14.173,23.319z M128.678,4.786H23.349
		c-2.009,0-4.04,1.586-4.527,3.535l-3.543,14.171c-0.07,0.278-0.105,0.557-0.105,0.827c0,1.559,1.199,2.69,2.851,2.69h109.772
		c0.485,0,0.88-0.425,0.88-0.946L128.678,4.786z"/>
	<path d="M132.938,25.117l0.001-21.979h0.962c0.678,0,13.442-0.165,18.247-0.228l2.222-0.03l0.294,0.373
		c4.606,5.794,8.808,10.333,11.521,13.12l0.472,0.484l-0.603,0.31c-0.309,0.158-0.501,0.469-0.501,0.811l-0.001,9.031h-30.574
		C133.854,27.01,132.938,26.161,132.938,25.117z M133.939,4.138l-0.001,20.979c0,0.492,0.467,0.893,1.042,0.893h29.574v-8.031
		c0.001-0.497,0.193-0.962,0.524-1.311c-2.731-2.826-6.773-7.229-11.186-12.779l-1.73,0.022
		C147.425,3.972,134.956,4.134,133.939,4.138z"/>
	<path d="M0.504,69.873l4.797,0.019c-0.02-1.644-0.109-7.109-0.508-22.664c-0.514-19.969,9.206-44.28,9.301-44.517l0.093-0.232
		l4.976-2.211L157.184,0l0.13,0l0.119,0.052c8.048,3.521,29.045,26.991,30.96,29.143c15.236,5.096,29.107,12.256,29.246,12.328
		l0.101,0.052l4.338,4.88l0.511,16.363l3.12,2.08l-0.551,7.708l-3.86,6.256l-12.829-0.001l0.042-0.656
		c0.001-0.011,0.015-0.247,0.015-0.659c0-4.31-1.304-18.392-18.088-18.651c-17.422-0.269-18.212,16.407-18.237,17.117l-0.021,0.595
		H61.53l-0.537-0.001l-0.073-0.532c-0.097-0.695-2.53-17.026-18.023-16.665c-16.519,0.386-17.802,13.827-17.802,17.937
		c0,0.516,0.022,0.817,0.023,0.83l0.051,0.664H5.916l-4.249-0.047l-0.065-1.897l-1.57-2.093L0.504,69.873z M5.921,77.607h17.942
		c-0.001-0.08-0.002-0.168-0.002-0.261c0-3.127,0.916-18.747,19.006-19.17c14.97-0.349,18.593,14.204,19.179,17.198h108.967
		c0.32-3.179,2.716-17.971,19.441-17.712c18.371,0.284,19.302,16.613,19.302,19.884c0,0.028,0,0.056,0,0.082h10.852l3.34-5.413
		l0.478-6.691l-3.051-2.035l-0.517-16.55l-3.889-4.375c-1.286-0.658-14.6-7.411-29.124-12.253l-0.157-0.052l-0.11-0.124
		c-0.224-0.253-22.416-25.209-30.525-28.904L19.424,1.499l-4.279,1.902c-0.987,2.522-9.608,25.111-9.121,43.794
		C6.532,67.03,6.538,70.476,6.538,70.509v0.619l-4.916-0.019l-0.318,3.336l1.516,2.021l0.039,1.108L5.921,77.607z"/>
	<path d="M11.872,78.224v0.714h15.803c-0.04-0.433-0.065-0.868-0.067-1.304c-0.058-4.03,1.564-8.076,4.431-10.957
		c2.851-2.896,6.88-4.59,10.963-4.583c4.069-0.01,8.109,1.687,10.956,4.583c2.869,2.881,4.489,6.926,4.431,10.96
		c-0.002,0.435-0.027,0.869-0.067,1.301h116.941c-0.04-0.433-0.065-0.868-0.067-1.304c-0.058-4.03,1.564-8.076,4.431-10.957
		c2.851-2.896,6.88-4.59,10.963-4.583c4.069-0.01,8.109,1.687,10.956,4.583c2.869,2.881,4.489,6.926,4.431,10.96
		c-0.002,0.435-0.027,0.869-0.067,1.301h15.044v-0.692h-11.828c0,0,1.273-19.657-18.679-19.966
		c-18.253-0.283-18.862,17.712-18.862,17.712H61.533c0,0-2.406-17.577-18.648-17.198c-19.862,0.463-18.38,19.43-18.38,19.43H11.872z
		"/>
	<polygon points="13.428,70.057 13.462,77.967 12.537,77.971 12.507,70.981 5.919,70.981 5.919,70.057 	"/>
	<rect x="131.018" y="1.068" width="0.925" height="75.158"/>
	<rect x="76.011" y="1.644" width="0.925" height="74.426"/>
	<path d="M158.646,5.362c0.037-0.519,0.281-0.961,0.705-1.279c1.001-0.751,3.148-0.348,3.39-0.3l-0.182,0.907
		c-0.755-0.152-2.144-0.25-2.653,0.132c-0.209,0.157-0.319,0.355-0.337,0.605c-0.027,0.384,0.153,1.272,1.683,2.802
		c1.549,1.55,14.756,15.715,16.299,17.37l7.802,0.421l-0.05,0.923l-8.174-0.441l-0.127-0.136
		c-0.147-0.159-14.804-15.884-16.403-17.483c-1.299-1.299-1.956-2.435-1.956-3.381C158.643,5.454,158.644,5.407,158.646,5.362z"/>
	<rect x="202.324" y="62.522" width="19.659" height="0.925"/>
	<rect x="57.575" y="62.754" width="120.435" height="0.462"/>
	<rect x="6.493" y="62.754" width="21.493" height="0.462"/>
	<rect x="205.069" y="65.764" width="19.682" height="0.925"/>
	<rect x="59.735" y="65.995" width="116.007" height="0.462"/>
	<rect x="6.493" y="65.995" width="19.873" height="0.462"/>
	<path d="M211.765,46.752h9.958v0.925h-9.958c-0.226,0-0.411,0.185-0.411,0.412v6.79c0,0.412,0.148,1.105,0.317,1.482l2.598,5.797
		c0.123,0.274,0.508,0.524,0.809,0.524h6.262v0.925h-6.262c-0.658,0-1.384-0.47-1.653-1.07l-2.598-5.797
		c-0.223-0.498-0.398-1.315-0.398-1.86v-6.79C210.429,47.353,211.028,46.754,211.765,46.752z"/>
	<path d="M210.637,50.347h8.046c0.652,0,1.182,0.531,1.182,1.182v3.095c0,0.652-0.53,1.182-1.182,1.182h-8.046V55.19h8.046
		c0.312,0,0.566-0.253,0.566-0.565V51.53c0-0.312-0.254-0.565-0.566-0.565h-8.046v-0.616V50.347z"/>
	<path d="M135.437,37.836c0.646,0,1.172,0.526,1.172,1.173v7.343c0,0.646-0.526,1.172-1.172,1.172s-1.172-0.525-1.172-1.172v-7.343
		C134.265,38.363,134.791,37.837,135.437,37.836z M135.993,39.009c0-0.306-0.249-0.556-0.556-0.556s-0.556,0.25-0.556,0.556v7.343
		c0,0.307,0.249,0.556,0.556,0.556s0.556-0.25,0.556-0.556V39.009z"/>
	<path d="M79.68,37.836c0.646,0,1.172,0.526,1.172,1.173v7.343c0,0.646-0.525,1.172-1.172,1.172c-0.646,0-1.172-0.525-1.172-1.172
		v-7.343C78.508,38.363,79.034,37.837,79.68,37.836z M80.236,39.009c0-0.306-0.25-0.556-0.556-0.556
		c-0.307,0-0.556,0.25-0.556,0.556v7.343c0,0.307,0.25,0.556,0.556,0.556c0.307,0,0.556-0.25,0.556-0.556V39.009z"/>
	<rect x="7.79" y="29.259" width="180.252" height="0.925"/>
	<rect x="5.199" y="42.882" width="73.543" height="0.462"/>
	<rect x="136.248" y="42.882" width="82.217" height="0.462"/>
	<rect x="80.362" y="42.882" width="53.942" height="0.462"/>
	<rect x="2.212" y="76.45" width="10.454" height="0.462"/>
	<rect x="0.563" y="74.178" width="12.275" height="0.462"/>
	<path d="M31.599,66.245c2.99-3.038,7.147-4.776,11.402-4.768c4.255-0.009,8.408,1.729,11.393,4.765
		c2.932,2.942,4.613,7.019,4.613,11.184l-0.002,0.213c-0.015,4.199-1.754,8.298-4.765,11.24c-2.965,2.969-7.065,4.65-11.237,4.612
		c-4.183,0.038-8.283-1.643-11.243-4.608c-3.015-2.949-4.753-7.048-4.769-11.24l-0.001-0.217
		C26.99,73.263,28.671,69.187,31.599,66.245z M53.517,67.109C50.801,64.346,46.87,62.702,43,62.71
		c-3.928-0.007-7.764,1.597-10.525,4.402c-2.703,2.716-4.253,6.475-4.253,10.314l0.001,0.206c0.015,3.871,1.618,7.651,4.404,10.375
		c2.733,2.737,6.511,4.287,10.376,4.252c3.855,0.035,7.633-1.515,10.37-4.256c2.781-2.719,4.385-6.498,4.399-10.375l0.002-0.202
		C57.774,73.584,56.223,69.825,53.517,67.109z"/>
	<path d="M42.998,65.586c6.56,0,11.898,5.338,11.898,11.898s-5.338,11.898-11.898,11.898S31.1,84.044,31.1,77.484
		C31.1,70.923,36.438,65.586,42.998,65.586z M42.998,66.202c-6.221,0-11.282,5.061-11.282,11.282s5.061,11.282,11.282,11.282
		S54.28,83.705,54.28,77.484S49.219,66.202,42.998,66.202z"/>
	<path d="M179.189,66.245c2.99-3.038,7.146-4.776,11.401-4.768c4.255-0.009,8.409,1.729,11.394,4.765
		c2.931,2.942,4.612,7.019,4.612,11.184l-0.002,0.213c-0.015,4.199-1.754,8.298-4.765,11.24c-2.965,2.969-7.065,4.65-11.237,4.612
		c-4.184,0.038-8.283-1.643-11.243-4.608c-3.015-2.949-4.754-7.048-4.769-11.24l-0.001-0.219
		C174.579,73.263,176.26,69.187,179.189,66.245z M201.108,67.11c-2.717-2.763-6.648-4.407-10.518-4.399
		c-3.928-0.007-7.764,1.597-10.525,4.402c-2.703,2.716-4.253,6.475-4.253,10.313l0.001,0.207c0.014,3.871,1.617,7.65,4.403,10.375
		c2.732,2.736,6.51,4.286,10.376,4.251c3.854,0.035,7.632-1.515,10.37-4.256c2.782-2.719,4.385-6.498,4.399-10.375l0.002-0.202
		C205.363,73.584,203.813,69.825,201.108,67.11z"/>
	<path d="M190.587,65.586c6.561,0,11.898,5.338,11.898,11.898s-5.337,11.898-11.898,11.898c-6.561,0-11.898-5.338-11.898-11.898
		C178.689,70.923,184.026,65.586,190.587,65.586z M190.587,66.202c-6.221,0-11.282,5.061-11.282,11.282s5.061,11.282,11.282,11.282
		s11.282-5.061,11.282-11.282S196.808,66.202,190.587,66.202z"/>
	<path d="M0.504,69.873l4.797,0.019c-0.02-1.644-0.109-7.109-0.508-22.664c-0.514-19.969,9.206-44.28,9.301-44.517l0.093-0.232
		l4.976-2.211L157.184,0l0.13,0l0.119,0.052c8.048,3.521,29.045,26.991,30.96,29.143c15.236,5.096,29.107,12.256,29.246,12.328
		l0.101,0.052l4.338,4.88l0.511,16.363l3.12,2.08l-0.551,7.708l-3.86,6.256l-12.829-0.001l0.042-0.656
		c0.001-0.011,0.015-0.247,0.015-0.659c0-4.31-1.304-18.392-18.088-18.651c-17.422-0.269-18.212,16.407-18.237,17.117l-0.021,0.595
		H61.53l-0.537-0.001l-0.073-0.532c-0.097-0.695-2.53-17.026-18.023-16.665c-16.519,0.386-17.802,13.827-17.802,17.937
		c0,0.516,0.022,0.817,0.023,0.83l0.051,0.664H5.916l-4.249-0.047l-0.065-1.897l-1.57-2.093L0.504,69.873z M5.921,77.607h17.942
		c-0.001-0.08-0.002-0.168-0.002-0.261c0-3.127,0.916-18.747,19.006-19.17c14.97-0.349,18.593,14.204,19.179,17.198h108.967
		c0.32-3.179,2.716-17.971,19.441-17.712c18.371,0.284,19.302,16.613,19.302,19.884c0,0.028,0,0.056,0,0.082h10.852l3.34-5.413
		l0.478-6.691l-3.051-2.035l-0.517-16.55l-3.889-4.375c-1.286-0.658-14.6-7.411-29.124-12.253l-0.157-0.052l-0.11-0.124
		c-0.224-0.253-22.416-25.209-30.525-28.904L19.424,1.499l-4.279,1.902c-0.987,2.522-9.608,25.111-9.121,43.794
		C6.532,67.03,6.538,70.476,6.538,70.509v0.619l-4.916-0.019l-0.318,3.336l1.516,2.021l0.039,1.108L5.921,77.607z"/>
	<path d="M164.509,27.276v-9.539c0-1.015,0.826-1.841,1.841-1.841s1.841,0.826,1.841,1.841v9.539c0,1.015-0.826,1.841-1.841,1.841
		S164.509,28.291,164.509,27.276z M167.191,17.737c0-0.464-0.377-0.841-0.841-0.841s-0.841,0.377-0.841,0.841v9.539
		c0,0.464,0.377,0.841,0.841,0.841s0.841-0.377,0.841-0.841V17.737z"/>
	<rect x="168.622" y="17.723" width="1" height="60.344"/>
</g>
</svg>
