<?xml version="1.0" encoding="utf-8"?>
<!-- Generator: Adobe Illustrator 17.0.0, SVG Export Plug-In . SVG Version: 6.00 Build 0)  -->
<!DOCTYPE svg PUBLIC "-//W3C//DTD SVG 1.1//EN" "http://www.w3.org/Graphics/SVG/1.1/DTD/svg11.dtd">
<svg version="1.1" id="Layer_1" xmlns="http://www.w3.org/2000/svg"  x="0px" y="0px"
	 width="225.677px" height="93.492px" viewBox="0 0 225.677 93.492" enable-background="new 0 0 225.677 93.492"
	 xml:space="preserve">
<g id="front-left">
	<circle fill="#FFFFFF" cx="35.687" cy="77.463" r="15.292"/>
	<path fill="#FFFFFF" d="M17.231,78.067c-0.001-0.011,36.331-1.597,36.331-1.597h3.025V17.723c-3.764,4.025-7.267,7.784-7.339,7.861
		l-0.127,0.136l-8.174,0.441h-0.985c-1.339,1.468-2.277,2.517-2.613,2.895C22.113,34.152,8.242,41.312,8.103,41.384l-0.101,0.052
		l-3.711,4.536l-0.59,16.2l-3.135,1.943l0.76,7.69l3.75,6.25L17.231,78.067z"/>
</g>
<g id="front-windscreen">
	<path fill="#FFFFFF" d="M39.907,26.16C55.177,9.265,63.508,2.999,63.508,2.999c0.241-0.049,2.388-0.451,3.389,0.299
		c0.424,0.318,0.668,0.76,0.705,1.279c0.003,0.047,0.005,0.093,0.005,0.141c0,0.946-0.658,2.082-1.956,3.382
		c-1.599,1.6-16.255,17.324-16.403,17.483l-0.127,0.136l-8.174,0.441H39.907z"/>
</g>
<g id="back-left">
	<path fill="#FFFFFF" d="M224.14,77.76l1.57-3.095l-0.47-4.931l-4.798,0.019c0.02-1.643,0.109-7.108,0.508-22.664
		c0.503-19.955-9.206-44.28-9.301-44.517l-0.093-0.231l-4.975-2.211h-0.13l-56.778-0.111v4.267h52.687
		c2.224,0,4.473,1.756,5.013,3.914l3.543,14.171c0.08,0.319,0.12,0.638,0.12,0.948c0,1.849-1.41,3.191-3.351,3.191h-58.012v49.959
		l15.09,1.291H224.14z"/>
	<circle fill="#FFFFFF" cx="183.277" cy="77.188" r="15.292"/>
</g>
<g id="left">
	<path fill="#FF3947" d="M56.698,23.559v53.393h93.086V26.51H97.912c-0.761,0-1.38-0.649-1.38-1.447L96.531,4.286h53.253V0.501
		L68.539,0.343L68.42,0.395c-1.104,0.483-2.457,1.351-3.965,2.478c0.773-0.061,1.825-0.038,2.442,0.425
		c0.424,0.318,0.668,0.76,0.705,1.279c0.003,0.047,0.005,0.093,0.005,0.141c0,0.946-0.658,2.082-1.956,3.382
		c-0.814,0.814-5.009,5.287-8.953,9.504v2.268L56.698,23.559L56.698,23.559z M60.653,26.51v-8.532c0-0.55-0.316-1.021-0.773-1.256
		c2.703-2.776,6.923-7.329,11.556-13.159l0.141-0.178l0.227,0.003c0.192,0.002,19.17,0.25,20.003,0.25h0.462l0.001,17.054v4.425
		c0,0.768-0.692,1.393-1.542,1.393C90.728,26.51,60.653,26.51,60.653,26.51z"/>
</g>
<g id="side-glass">
	<path fill="#FFFFFF" d="M211.036,23.319c0,1.849-1.41,3.191-3.351,3.191H97.912c-0.761,0-1.38-0.649-1.38-1.447L96.531,4.286
		H202.36c2.224,0,4.473,1.756,5.013,3.914l3.543,14.171C210.996,22.69,211.036,23.009,211.036,23.319z"/>
	<path fill="#FFFFFF" d="M60.654,17.978h0.001v8.532h30.074c0.85,0,1.542-0.625,1.542-1.393v-4.425L92.27,3.638h-0.462
		c-0.833,0-19.811-0.248-20.003-0.25l-0.227-0.003l-0.141,0.178c-4.634,5.829-8.853,10.383-11.556,13.159
		C60.338,16.957,60.654,17.428,60.654,17.978L60.654,17.978z"/>
</g>
<g id="lineart">
	<path d="M211.536,23.319c0,2.139-1.619,3.691-3.851,3.691H97.912c-1.037,0-1.88-0.874-1.88-1.947L96.031,3.786H202.36
		c2.439,0,4.905,1.926,5.498,4.292l3.543,14.171C211.49,22.607,211.536,22.967,211.536,23.319z M97.031,4.786l0.001,20.277
		c0,0.522,0.395,0.947,0.88,0.947h109.773c1.651,0,2.851-1.132,2.851-2.691c0-0.271-0.035-0.548-0.105-0.827l-3.543-14.171
		c-0.487-1.949-2.519-3.535-4.527-3.535C202.361,4.786,97.031,4.786,97.031,4.786z"/>
	<path d="M92.771,20.693v4.425c0,1.044-0.916,1.893-2.042,1.893H60.155v-9.032c0-0.341-0.193-0.653-0.502-0.812l-0.602-0.309
		l0.472-0.484c2.711-2.784,6.911-7.321,11.523-13.121l0.292-0.37l2.223,0.028c4.805,0.063,17.569,0.228,18.247,0.228h0.962
		L92.771,20.693z M61.155,26.01h29.574c0.575,0,1.042-0.4,1.042-0.893L91.77,4.138C90.752,4.133,78.284,3.972,73.547,3.91
		l-1.73-0.022C67.4,9.443,63.359,13.844,60.63,16.667c0.332,0.349,0.523,0.814,0.523,1.311L61.155,26.01z"/>
	<path d="M225.677,74.803l-1.57,2.093l-0.065,1.897l-4.249,0.047H200.54l0.051-0.664c0.001-0.013,0.023-0.314,0.023-0.83
		c0-4.11-1.283-17.551-17.802-17.937c-15.493-0.361-17.926,15.97-18.023,16.665l-0.073,0.532l-0.537,0.001H53.529l-0.021-0.595
		c-0.025-0.71-0.815-17.386-18.237-17.117c-16.784,0.259-18.088,14.341-18.088,18.651c0,0.412,0.014,0.648,0.015,0.659l0.042,0.656
		L4.411,78.862l-3.86-6.256L0,64.898l3.12-2.08l0.511-16.363l4.338-4.88l0.101-0.052c0.139-0.072,14.01-7.232,29.246-12.328
		c1.915-2.152,22.912-25.622,30.96-29.143L68.395,0l0.13,0l138.021,0.268l4.976,2.211l0.093,0.232
		c0.095,0.237,9.815,24.548,9.301,44.517c-0.399,15.555-0.488,21.02-0.508,22.664l4.797-0.019L225.677,74.803z M222.85,77.574
		l0.039-1.108l1.516-2.021l-0.318-3.336l-4.916,0.019v-0.619c0-0.033,0.006-3.479,0.514-23.314
		c0.487-18.683-8.134-41.272-9.121-43.794l-4.279-1.902L68.656,1.231c-8.109,3.695-30.301,28.651-30.525,28.904l-0.11,0.124
		l-0.157,0.052C23.34,35.153,10.026,41.906,8.74,42.564l-3.889,4.375l-0.517,16.55l-3.051,2.035l0.478,6.691l3.34,5.413h10.852
		c0-0.026,0-0.054,0-0.082c0-3.271,0.931-19.6,19.302-19.884c16.725-0.259,19.121,14.533,19.441,17.712h108.967
		c0.586-2.994,4.209-17.547,19.179-17.198c18.09,0.423,19.006,16.043,19.006,19.17c0,0.093-0.001,0.181-0.002,0.261h17.942
		L222.85,77.574z"/>
	<path d="M201.204,78.224c0,0,1.482-18.967-18.38-19.43c-16.242-0.379-18.648,17.198-18.648,17.198H54.124
		c0,0-0.609-17.995-18.862-17.712C15.31,58.589,16.583,78.246,16.583,78.246H4.755v0.692h15.044
		c-0.04-0.432-0.065-0.866-0.067-1.301c-0.058-4.034,1.562-8.079,4.431-10.96c2.847-2.896,6.887-4.593,10.956-4.583
		c4.083-0.007,8.112,1.687,10.963,4.583c2.867,2.881,4.489,6.927,4.431,10.957c-0.002,0.436-0.027,0.871-0.067,1.304h116.941
		c-0.04-0.432-0.065-0.866-0.067-1.301c-0.058-4.034,1.562-8.079,4.431-10.96c2.847-2.896,6.887-4.593,10.956-4.583
		c4.083-0.007,8.112,1.687,10.963,4.583c2.867,2.881,4.489,6.927,4.431,10.957c-0.002,0.436-0.027,0.871-0.067,1.304h15.803v-0.714
		C213.837,78.224,201.204,78.224,201.204,78.224z"/>
	<polygon points="219.79,70.057 219.79,70.981 213.202,70.981 213.172,77.971 212.247,77.967 212.281,70.057 	"/>
	<rect x="93.766" y="1.069" width="0.925" height="75.158"/>
	<rect x="148.773" y="1.644" width="0.925" height="74.426"/>
	<path d="M67.066,5.502c0,0.946-0.657,2.082-1.956,3.381c-1.599,1.599-16.256,17.324-16.403,17.483l-0.127,0.136l-8.174,0.441
		l-0.05-0.923l7.802-0.421c1.543-1.655,14.75-15.82,16.299-17.37c1.53-1.53,1.71-2.418,1.683-2.802
		c-0.018-0.25-0.128-0.448-0.337-0.605C65.294,4.44,63.905,4.538,63.15,4.69l-0.182-0.907c0.242-0.048,2.389-0.451,3.39,0.3
		c0.424,0.318,0.668,0.76,0.705,1.279C67.065,5.407,67.066,5.454,67.066,5.502z"/>
	<rect x="3.726" y="62.522" width="19.659" height="0.925"/>
	<rect x="47.699" y="62.754" width="120.435" height="0.462"/>
	<rect x="197.723" y="62.754" width="21.493" height="0.462"/>
	<rect x="0.958" y="65.764" width="19.682" height="0.925"/>
	<rect x="49.967" y="65.995" width="116.007" height="0.462"/>
	<rect x="199.343" y="65.995" width="19.873" height="0.462"/>
	<path d="M15.28,48.09v6.79c0,0.545-0.175,1.362-0.398,1.86l-2.598,5.797c-0.269,0.6-0.995,1.07-1.653,1.07H4.369v-0.925h6.262
		c0.301,0,0.686-0.25,0.809-0.524l2.598-5.797c0.169-0.377,0.317-1.07,0.317-1.482v-6.79c0-0.227-0.185-0.412-0.411-0.412H3.986
		v-0.925h9.958C14.681,46.754,15.28,47.353,15.28,48.09z"/>
	<path d="M15.072,50.349v0.616H7.026c-0.312,0-0.566,0.253-0.566,0.565v3.095c0,0.312,0.254,0.565,0.566,0.565h8.046v0.616H7.026
		c-0.652,0-1.182-0.53-1.182-1.182v-3.095c0-0.651,0.53-1.182,1.182-1.182h8.046V50.349z"/>
	<path d="M91.444,39.009v7.343c0,0.647-0.526,1.172-1.172,1.172S89.1,46.998,89.1,46.352v-7.343c0-0.647,0.526-1.173,1.172-1.173
		C90.918,37.837,91.444,38.363,91.444,39.009z M89.716,46.352c0,0.306,0.249,0.556,0.556,0.556s0.556-0.249,0.556-0.556v-7.343
		c0-0.306-0.249-0.556-0.556-0.556s-0.556,0.25-0.556,0.556V46.352z"/>
	<path d="M147.201,39.009v7.343c0,0.647-0.526,1.172-1.172,1.172c-0.647,0-1.172-0.526-1.172-1.172v-7.343
		c0-0.647,0.526-1.173,1.172-1.173C146.675,37.837,147.201,38.363,147.201,39.009z M145.473,46.352c0,0.306,0.249,0.556,0.556,0.556
		c0.306,0,0.556-0.249,0.556-0.556v-7.343c0-0.306-0.249-0.556-0.556-0.556c-0.306,0-0.556,0.25-0.556,0.556V46.352z"/>
	<rect x="37.667" y="29.259" width="180.252" height="0.925"/>
	<rect x="146.967" y="42.882" width="73.543" height="0.462"/>
	<rect x="7.244" y="42.882" width="82.217" height="0.462"/>
	<rect x="91.405" y="42.882" width="53.942" height="0.462"/>
	<rect x="213.043" y="76.45" width="10.454" height="0.462"/>
	<rect x="212.871" y="74.178" width="12.275" height="0.462"/>
	<path d="M198.719,77.426l-0.001,0.217c-0.016,4.192-1.754,8.291-4.769,11.24c-2.96,2.965-7.06,4.646-11.243,4.608
		c-4.172,0.038-8.272-1.643-11.237-4.612c-3.011-2.942-4.75-7.041-4.765-11.24l-0.002-0.213c0-4.165,1.681-8.242,4.613-11.184
		c2.985-3.036,7.138-4.774,11.393-4.765c4.255-0.008,8.412,1.73,11.402,4.768C197.038,69.187,198.719,73.263,198.719,77.426z
		 M167.935,77.426l0.002,0.202c0.014,3.877,1.618,7.656,4.399,10.375c2.737,2.741,6.515,4.291,10.37,4.256
		c3.865,0.035,7.643-1.515,10.376-4.252c2.786-2.724,4.389-6.504,4.404-10.375l0.001-0.206c0-3.839-1.55-7.598-4.253-10.314
		c-2.761-2.805-6.597-4.409-10.525-4.402c-3.87-0.008-7.801,1.636-10.517,4.399C169.486,69.825,167.935,73.584,167.935,77.426z"/>
	<path d="M194.609,77.484c0,6.56-5.338,11.898-11.898,11.898s-11.898-5.338-11.898-11.898s5.338-11.898,11.898-11.898
		S194.609,70.923,194.609,77.484z M171.429,77.484c0,6.221,5.061,11.282,11.282,11.282s11.282-5.061,11.282-11.282
		s-5.061-11.282-11.282-11.282S171.429,71.263,171.429,77.484z"/>
	<path d="M51.13,77.424l-0.001,0.219c-0.015,4.192-1.754,8.291-4.769,11.24c-2.96,2.965-7.059,4.646-11.243,4.608
		c-4.172,0.038-8.272-1.643-11.237-4.612c-3.011-2.942-4.75-7.041-4.765-11.24l-0.002-0.213c0-4.165,1.681-8.242,4.612-11.184
		c2.985-3.036,7.139-4.774,11.394-4.765c4.255-0.008,8.411,1.73,11.401,4.768C49.449,69.187,51.13,73.263,51.13,77.424z
		 M20.346,77.426l0.002,0.202c0.014,3.877,1.617,7.656,4.399,10.375c2.738,2.741,6.516,4.291,10.37,4.256
		c3.866,0.035,7.644-1.515,10.376-4.251c2.786-2.725,4.389-6.504,4.403-10.375l0.001-0.207c0-3.838-1.55-7.597-4.253-10.313
		c-2.761-2.805-6.597-4.409-10.525-4.402c-3.87-0.008-7.801,1.636-10.518,4.399C21.896,69.825,20.346,73.584,20.346,77.426z"/>
	<path d="M47.02,77.484c0,6.56-5.337,11.898-11.898,11.898c-6.561,0-11.898-5.338-11.898-11.898s5.337-11.898,11.898-11.898
		S47.02,70.923,47.02,77.484z M23.84,77.484c0,6.221,5.061,11.282,11.282,11.282s11.282-5.061,11.282-11.282
		s-5.061-11.282-11.282-11.282S23.84,71.263,23.84,77.484z"/>
	<path d="M225.677,74.803l-1.57,2.093l-0.065,1.897l-4.249,0.047H200.54l0.051-0.664c0.001-0.013,0.023-0.314,0.023-0.83
		c0-4.11-1.283-17.551-17.802-17.937c-15.493-0.361-17.926,15.97-18.023,16.665l-0.073,0.532l-0.537,0.001H53.529l-0.021-0.595
		c-0.025-0.71-0.815-17.386-18.237-17.117c-16.784,0.259-18.088,14.341-18.088,18.651c0,0.412,0.014,0.648,0.015,0.659l0.042,0.656
		L4.411,78.862l-3.86-6.256L0,64.898l3.12-2.08l0.511-16.363l4.338-4.88l0.101-0.052c0.139-0.072,14.01-7.232,29.246-12.328
		c1.915-2.152,22.912-25.622,30.96-29.143L68.395,0l0.13,0l138.021,0.268l4.976,2.211l0.093,0.232
		c0.095,0.237,9.815,24.548,9.301,44.517c-0.399,15.555-0.488,21.02-0.508,22.664l4.797-0.019L225.677,74.803z M222.85,77.574
		l0.039-1.108l1.516-2.021l-0.318-3.336l-4.916,0.019v-0.619c0-0.033,0.006-3.479,0.514-23.314
		c0.487-18.683-8.134-41.272-9.121-43.794l-4.279-1.902L68.656,1.231c-8.109,3.695-30.301,28.651-30.525,28.904l-0.11,0.124
		l-0.157,0.052C23.34,35.153,10.026,41.906,8.74,42.564l-3.889,4.375l-0.517,16.55l-3.051,2.035l0.478,6.691l3.34,5.413h10.852
		c0-0.026,0-0.054,0-0.082c0-3.271,0.931-19.6,19.302-19.884c16.725-0.259,19.121,14.533,19.441,17.712h108.967
		c0.586-2.994,4.209-17.547,19.179-17.198c18.09,0.423,19.006,16.043,19.006,19.17c0,0.093-0.001,0.181-0.002,0.261h17.942
		L222.85,77.574z"/>
	<path d="M61.2,17.738v9.539c0,1.015-0.826,1.841-1.841,1.841s-1.841-0.826-1.841-1.841v-9.539c0-1.015,0.826-1.841,1.841-1.841
		S61.2,16.723,61.2,17.738z M58.518,27.277c0,0.464,0.377,0.841,0.841,0.841s0.841-0.377,0.841-0.841v-9.539
		c0-0.464-0.377-0.841-0.841-0.841s-0.841,0.377-0.841,0.841V27.277z"/>
	<rect x="56.087" y="17.724" width="1" height="60.344"/>
</g>
</svg>
