<?xml version="1.0" encoding="utf-8"?>
<!-- Generator: Adobe Illustrator 17.0.0, SVG Export Plug-In . SVG Version: 6.00 Build 0)  -->
<!DOCTYPE svg PUBLIC "-//W3C//DTD SVG 1.1//EN" "http://www.w3.org/Graphics/SVG/1.1/DTD/svg11.dtd">
<svg version="1.1" id="Layer_1" xmlns="http://www.w3.org/2000/svg"  x="0px" y="0px"
	 width="213.477px" height="122.166px" viewBox="57.48 174.581 213.477 122.166"
	 enable-background="new 57.48 174.581 213.477 122.166" xml:space="preserve">
<g id="front">
	<path fill="#FFFFFF" d="M59.464,216.632l51.927-21.645c0,0-7.114,20.478-7.114,40.32s6.879,40.649,6.879,40.649L59.63,252.8h-3.875
		c0,0-1.063-8.229-1.063-18.542s0.875-17.656,0.875-17.656L59.464,216.632z"/>
</g>
<g id="back-windscreen">
	<path fill="#FFFFFF" d="M259.74,235.483c0,15.265-2.578,35.452-2.604,35.654c-0.019,0.149-0.109,0.279-0.241,0.349
		c-0.132,0.07-0.29,0.072-0.424,0.005l-6.916-3.458c-0.172-0.086-0.276-0.269-0.253-0.461c1.523-14.961,2.116-24.173,2.116-32.856
		c0-9.643-0.776-18.991-2.116-31.881c-0.022-0.171,0.063-0.34,0.208-0.435l6.915-3.494c0.134-0.087,0.303-0.099,0.448-0.031
		c0.145,0.067,0.244,0.205,0.263,0.363c0.025,0.199,2.425,19.088,2.597,34.838C259.738,234.539,259.74,235.01,259.74,235.483z"/>
</g>
<g id="back">
	<path fill="#FFFFFF" d="M247.607,201.867c0,0,2.071,20.432,2.071,32.387c0,11.955-2.123,34.628-2.123,34.628l18.167,9.833
		c0,0,4.833-10.833,4.833-44.166c0-31.25-4.75-42.75-4.75-42.75L247.607,201.867z M257.136,199.238
		c0.025,0.199,2.425,19.088,2.597,34.838c0.005,0.463,0.007,0.934,0.007,1.407c0,15.265-2.578,35.452-2.604,35.654
		c-0.019,0.149-0.109,0.279-0.241,0.349c-0.132,0.07-0.29,0.072-0.424,0.005l-6.916-3.458c-0.172-0.086-0.276-0.269-0.253-0.461
		c1.523-14.961,2.116-24.173,2.116-32.856c0-9.643-0.776-18.991-2.116-31.881c-0.022-0.171,0.063-0.34,0.208-0.435l6.915-3.494
		c0.134-0.087,0.303-0.099,0.448-0.031C257.018,198.942,257.117,199.08,257.136,199.238z"/>
</g>
<g id="roof">
	<path fill="#FF3947" d="M136.608,235.304c0,11.172,3.049,33.328,3.049,33.328l107.399,0.116c0.235,0.001,0.432-0.176,0.455-0.409
		c0.019-0.191,1.919-19.229,1.919-32.607c0-18.39-1.9-33.16-1.921-33.31c-0.03-0.227-0.224-0.396-0.453-0.396l-107.534,0.118
		C139.522,202.145,136.608,224.132,136.608,235.304z"/>
</g>
<g id="front-right">
	<path fill="#FFFFFF" d="M87.622,187.409c-4.085,0.086-8.102,0.845-8.102,0.845c-3.52,0.19-4.817,0.492-6.416,0.866
		c-1.507,0.352-3.216,0.751-7.359,1.189c-2.696,0.284-4.999,3.08-5.797,5.567c-2.031,6.297-3.832,14.105-4.837,20.651
		c0.093,0.039,0.182,0.087,0.27,0.14c0.004-0.033,0.008-0.065,0.008-0.065l3.897,0.03l51.927-21.645l0.032-7.398
		C111.245,187.589,91.707,187.323,87.622,187.409z"/>
</g>
<g id="back-right">
	<path fill="#FFFFFF" d="M203.975,191.448l42.23,0.075c0.183,0,0.347,0.101,0.42,0.255c0.025,0.054,0.037,0.11,0.037,0.166
		c0,0.106-0.043,0.211-0.126,0.291l-6.882,6.682c-0.087,0.084-0.208,0.131-0.333,0.131l-35.346-0.068v2.831l43.082,0.006
		l18.749-10.227c-0.125-1.833-2.472-2.417-2.472-2.417l-59.359-0.451V191.448z"/>
</g>
<g id="right">
	<path fill="#FFFFFF" d="M111.157,195.161l25.203,6.857l9.888,0.001v-13.492l-35.13-0.267L111.157,195.161z M143.554,191.47
		c0.243,0.001,0.44,0.178,0.44,0.396c-0.001,0-0.001,0.001-0.002,0.002l-0.039,6.722c-0.001,0.105-0.048,0.206-0.131,0.28
		s-0.196,0.116-0.313,0.115l-4.666-0.112c-0.061,0-0.122-0.012-0.178-0.034l-19.696-6.792c-0.19-0.077-0.295-0.262-0.251-0.446
		c0.044-0.183,0.225-0.314,0.434-0.313L143.554,191.47z"/>
	<path fill="#FFFFFF" d="M114.672,175.329c-0.062,0.037-0.114,0.091-0.152,0.156c-2.315,3.998-3.811,10.082-3.811,15.498
		c0,0.284,0.005,0.569,0.013,0.851c0.006,0.214,0.151,0.393,0.348,0.429c1.332,0.246,3.076,0.231,3.981-0.547
		c0.086-0.075,0.142-0.183,0.154-0.302c0.225-2.193,0.578-4.442,0.987-7.046c0.402-2.56,0.858-5.462,1.273-8.866
		c0.002-0.02,0.003-0.038,0.003-0.059c0-0.17-0.091-0.329-0.237-0.405C116.495,174.656,115.634,174.754,114.672,175.329z"/>
	<path fill="#FFFFFF" d="M146.359,188.52v13.492l54.124,0.008v-2.838l-50.596-0.097c-0.122-0.001-0.237-0.046-0.324-0.125
		c-0.085-0.079-0.13-0.167-0.133-0.299l0.036-6.682c0.002-0.232,0.207-0.42,0.459-0.419l50.558,0.09v-2.719l59.359,0.451"/>
</g>
<g id="front-left">
	<path fill="#FFFFFF" d="M63.556,273.89c0.868,2.434,3.015,5.187,5.679,5.478c4.087,0.448,5.654,0.864,7.036,1.231
		c1.497,0.398,2.698,0.716,6.283,0.911c3.999,1.753,31.889,1.12,31.889,1.12l0.03-6.749L63.055,252.8H59.18
		c0,0-0.476-0.072-0.455,0.104C59.453,258.943,61.156,267.152,63.556,273.89z"/>
</g>
<g id="front-windscreen">
	<path fill="#FFFFFF" d="M111.157,195.153l25.203,6.857c0,0-3.2,20.437-3.2,32.87s3.052,33.8,3.052,33.8l-25.452,7.406
		c0,0-6.483-21.197-6.483-40.969C104.277,215.843,111.157,195.153,111.157,195.153z"/>
</g>
<g id="back-left">
	<path fill="#FFFFFF" d="M203.6,268.172v2.749l35.752-0.069c0.126,0,0.246,0.047,0.333,0.131l6.882,6.682
		c0.082,0.081,0.126,0.185,0.126,0.291c0,0.056-0.012,0.112-0.037,0.166c-0.072,0.154-0.237,0.255-0.42,0.255l-42.636,0.076v2.807
		l59.359-0.451c0,0,2.347-0.584,2.472-2.417l-18.749-10.227L203.6,268.172z"/>
</g>
<g id="left">
	<path fill="#FFFFFF" d="M139.588,268.167l-25.226,7.919l-0.016,5.838l35.13-0.267l0.374-12.942L139.588,268.167z M147.392,271.041
		c0.083,0.074,0.13,0.174,0.131,0.279l-0.013,6.776c0.002,0.001,0.002,0.002,0.002,0.002c0,0.218-0.197,0.395-0.44,0.396
		l-24.402,0.182c-0.209,0.001-0.39-0.129-0.434-0.313c-0.044-0.183,0.061-0.369,0.251-0.446l19.748-6.845
		c0.055-0.022,0.117-0.034,0.178-0.034l4.666-0.112C147.196,270.925,147.308,270.967,147.392,271.041z"/>
	<path fill="#FFFFFF" d="M121.07,295.021c0,0.17-0.091,0.329-0.237,0.405c-0.736,0.382-1.597,0.284-2.559-0.291
		c-0.063-0.037-0.114-0.091-0.152-0.156c-2.315-3.998-3.811-10.081-3.811-15.498c0-0.284,0.005-0.569,0.013-0.851
		c0.006-0.214,0.151-0.393,0.348-0.429c1.332-0.245,3.076-0.231,3.981,0.547c0.086,0.075,0.142,0.183,0.154,0.302
		c0.226,2.194,0.578,4.443,0.987,7.046c0.402,2.56,0.858,5.462,1.273,8.866C121.069,294.982,121.07,295,121.07,295.021z"/>
	<path fill="#FFFFFF" d="M203.6,281.14v-2.801l-50.152,0.089c-0.252,0.001-0.457-0.187-0.459-0.419l-0.036-6.682
		c0.003-0.132,0.048-0.22,0.133-0.299c0.086-0.079,0.202-0.124,0.324-0.125l50.19-0.096v-2.755l-53.75,0.664l-0.374,12.836
		L203.6,281.14z"/>
</g>
<g id="side-glass">
	<path fill="#FFFFFF" d="M143.91,278.098c0,0.218-0.197,0.395-0.44,0.396l-24.402,0.182c-0.209,0.001-0.39-0.129-0.434-0.313
		c-0.044-0.183,0.061-0.369,0.251-0.446l19.748-6.845c0.055-0.022,0.117-0.034,0.178-0.034l4.666-0.112
		c0.117-0.001,0.229,0.041,0.313,0.115c0.083,0.074,0.13,0.174,0.131,0.279l-0.013,6.776
		C143.91,278.097,143.91,278.098,143.91,278.098z"/>
	<path fill="#FFFFFF" d="M143.992,191.868l-0.039,6.722c-0.001,0.105-0.048,0.206-0.131,0.28s-0.196,0.116-0.313,0.115l-4.666-0.112
		c-0.061,0-0.122-0.012-0.178-0.034l-19.696-6.792c-0.19-0.077-0.295-0.262-0.251-0.446c0.044-0.183,0.225-0.314,0.434-0.313
		l24.402,0.182c0.243,0.001,0.44,0.178,0.44,0.396C143.993,191.866,143.993,191.867,143.992,191.868z"/>
	<path fill="#FFFFFF" d="M242.933,192.437l-6.882,6.682c-0.087,0.084-0.208,0.131-0.333,0.131l-85.831-0.165
		c-0.122-0.001-0.237-0.046-0.324-0.125c-0.085-0.079-0.13-0.167-0.133-0.299l0.036-6.682c0.002-0.232,0.207-0.42,0.459-0.419
		l92.677,0.165c0.183,0,0.347,0.101,0.42,0.255c0.025,0.054,0.037,0.11,0.037,0.166
		C243.059,192.252,243.016,192.357,242.933,192.437z"/>
	<path fill="#FFFFFF" d="M243.091,277.956c0,0.056-0.012,0.112-0.037,0.166c-0.072,0.154-0.237,0.255-0.42,0.255l-92.677,0.165
		c-0.252,0.001-0.457-0.187-0.459-0.419l-0.036-6.682c0.003-0.132,0.048-0.22,0.133-0.299c0.086-0.079,0.202-0.124,0.324-0.125
		l85.831-0.165c0.126,0,0.246,0.047,0.333,0.131l6.882,6.682C243.047,277.746,243.091,277.85,243.091,277.956z"/>
</g>
<g id="lineart">
	<path d="M144.494,191.866l-0.041,6.727c-0.002,0.247-0.111,0.483-0.298,0.65c-0.179,0.158-0.41,0.243-0.65,0.241l-4.673-0.111
		c-0.114,0-0.236-0.023-0.352-0.07l-19.673-6.783c-0.373-0.15-0.598-0.475-0.598-0.835l0.023-0.2
		c0.099-0.412,0.479-0.698,0.923-0.696l24.403,0.182C144.073,190.972,144.494,191.374,144.494,191.866z M143.453,198.483
		l0.038-6.513l-23.728-0.177l19.064,6.573L143.453,198.483z"/>
	<path d="M144.421,271.318l-0.011,6.78c0,0.492-0.421,0.894-0.938,0.896l-24.4,0.182c-0.446,0.002-0.826-0.285-0.924-0.697
		l-0.023-0.2c0-0.361,0.225-0.685,0.574-0.826l19.771-6.854c0.091-0.037,0.217-0.061,0.341-0.061l4.654-0.112
		c0.248-0.002,0.479,0.083,0.656,0.241c0.188,0.167,0.297,0.403,0.3,0.648L144.421,271.318L144.421,271.318z M143.408,277.994
		l0.013-6.578l-4.598,0.122l-19.145,6.633L143.408,277.994z"/>
	<path d="M243.559,192.146c0,0.244-0.099,0.475-0.276,0.648l-6.884,6.684c-0.18,0.174-0.428,0.272-0.682,0.272l-85.832-0.165
		c-0.247-0.002-0.479-0.092-0.659-0.254c-0.193-0.181-0.292-0.4-0.297-0.659l0.036-6.696c0.004-0.508,0.436-0.918,0.961-0.916
		l92.676,0.165c0.372,0,0.714,0.212,0.87,0.539C243.532,191.896,243.559,192.02,243.559,192.146z M149.924,192.06l0.006,6.604
		l85.789,0.086l6.758-6.566L149.924,192.06z"/>
	<path d="M243.591,277.956c0,0.131-0.028,0.259-0.084,0.378c-0.152,0.329-0.496,0.543-0.873,0.543l-92.676,0.165
		c-0.524,0.002-0.956-0.408-0.96-0.915l-0.036-6.684c0.007-0.274,0.105-0.494,0.292-0.668c0.181-0.166,0.413-0.256,0.659-0.259
		l85.836-0.165c0.259,0,0.5,0.096,0.682,0.271l6.883,6.683C243.493,277.483,243.591,277.713,243.591,277.956z M149.92,271.517
		l0.078,6.604l92.468-0.243l-6.731-6.536L149.92,271.517z"/>
	<path d="M267.353,234.964c0,4.83-0.219,46.351-7.662,46.397c-1.441,0.009-2.139-0.003-2.862-0.015
		c-0.828-0.014-1.684-0.028-3.741-0.013c-0.341,0.002-0.619-0.271-0.621-0.612c0-0.002,0-0.003,0-0.005
		c0-0.338,0.273-0.614,0.612-0.616c2.073-0.016,2.936-0.001,3.771,0.013c0.716,0.012,1.407,0.023,2.835,0.015
		c3.61-0.022,6.436-19.85,6.436-45.144c0-0.014,0-0.024,0-0.038c-0.003-25.271-2.83-45.084-6.436-45.105
		c-1.63-0.011-2.281,0.009-2.97,0.031c-0.811,0.025-1.65,0.051-4.107,0.03c-0.338-0.003-0.611-0.278-0.611-0.616
		c0-0.002,0-0.004,0-0.005c0.003-0.34,0.281-0.614,0.622-0.611c2.433,0.02,3.259-0.005,4.059-0.029
		c0.701-0.022,1.363-0.042,3.016-0.031c7.441,0.045,7.661,41.6,7.661,46.338C267.353,234.952,267.353,234.958,267.353,234.964z"/>
	<path d="M72.896,190.287c-1.341,0.303-3.085,0.658-6.821,1.048c-2.486,0.26-4.624,2.853-5.374,5.16
		c-2.766,8.476-5.11,19.74-5.573,26.787c-0.167,2.551-0.249,5.201-0.249,8.101c0,4.663,0.205,9.986,0.686,17.797
		c0.362,5.894,2.242,16.064,5.137,24.097c0.817,2.264,2.812,4.822,5.262,5.086c3.73,0.404,5.4,0.788,6.672,1.116l-0.25,0.969
		c-1.238-0.32-2.866-0.694-6.53-1.091c-2.877-0.311-5.176-3.194-6.095-5.742c-2.927-8.122-4.829-18.41-5.195-24.375
		c-0.482-7.833-0.688-13.174-0.688-17.859c0-2.922,0.082-5.593,0.251-8.167c0.468-7.118,2.832-18.486,5.621-27.03
		c0.847-2.606,3.314-5.542,6.221-5.845c3.682-0.385,5.391-0.732,6.705-1.028L72.896,190.287z"/>
	<path d="M68.426,190.966c0,0.187-0.114,0.363-0.299,0.433c-1.671,0.63-3.132,2.218-3.721,4.048
		c-2.576,7.987-5.065,20.473-5.547,27.834c-0.495,7.675-0.197,15.688,0.442,26.132c0.387,6.381,2.401,17.513,5.101,25.096
		c0.593,1.664,1.853,3.146,3.287,3.867c0.228,0.115,0.32,0.393,0.205,0.621c-0.115,0.228-0.392,0.32-0.621,0.205
		c-1.638-0.824-3.072-2.503-3.743-4.382c-2.728-7.661-4.762-18.905-5.153-25.35c-0.641-10.479-0.938-18.526-0.442-26.248
		c0.495-7.55,2.951-19.875,5.59-28.058c0.672-2.087,2.35-3.904,4.275-4.63c0.239-0.09,0.506,0.031,0.596,0.27
		C68.416,190.856,68.426,190.912,68.426,190.966z"/>
	<path d="M178.26,189.193c32.183,0.291,59.978,0.542,76.682,0.648c0.341,0.002,0.619-0.272,0.621-0.613c0-0.002,0-0.003,0-0.004
		c0-0.339-0.273-0.614-0.615-0.615c-16.702-0.106-44.496-0.357-76.678-0.648c-20.408-0.185-42.146-0.381-63.003-0.557
		c0.047,0.4,0.108,0.813,0.147,1.234C136.223,188.814,157.904,189.009,178.26,189.193z"/>
	<path d="M104.344,187.313c-22.081-0.18-24.426,0.476-27.67,1.386c-1.513,0.424-3.228,0.904-7.551,1.36
		c-0.461,0.048-0.925,0.159-1.379,0.33c-0.318,0.12-0.479,0.475-0.359,0.794c0.12,0.318,0.476,0.479,0.794,0.359
		c0.355-0.133,0.716-0.22,1.073-0.258c4.427-0.466,6.196-0.961,7.756-1.399c3.029-0.849,5.421-1.519,27.327-1.34
		c2.099,0.017,4.226,0.035,6.349,0.053c0.115-0.41,0.218-0.82,0.307-1.23C108.767,187.35,106.541,187.331,104.344,187.313z"/>
	<path d="M176.246,282.024c31.451-0.284,61.157-0.553,78.256-0.661c0.34-0.002,0.613-0.277,0.613-0.616c0-0.001,0-0.002,0.001-0.004
		c-0.002-0.341-0.28-0.615-0.62-0.613c-17.101,0.108-46.809,0.377-78.26,0.661c-19.824,0.179-40.802,0.368-60.886,0.539
		c-0.047,0.388-0.129,0.803-0.171,1.234C135.318,282.393,156.362,282.203,176.246,282.024z"/>
	<path d="M66.929,278.511c-0.152,0.305-0.03,0.675,0.274,0.828c0.624,0.313,1.269,0.508,1.919,0.579
		c4.22,0.463,5.771,0.948,7.14,1.375c2.884,0.901,4.968,1.552,26.341,1.377c2.606-0.021,5.244-0.044,7.893-0.066
		c0.032-0.42,0.088-0.821,0.19-1.235c-2.716,0.023-5.42,0.045-8.092,0.068c-21.181,0.173-23.291-0.486-25.964-1.321
		c-1.422-0.444-3.034-0.948-7.374-1.424c-0.503-0.054-1.007-0.208-1.499-0.455C67.452,278.084,67.082,278.207,66.929,278.511z"/>
	<path d="M117.745,175.231c0,0.02-0.001,0.04-0.004,0.06c-0.458,3.495-0.96,6.475-1.404,9.104c-0.451,2.675-0.841,4.984-1.089,7.238
		c-0.014,0.122-0.075,0.233-0.17,0.31c-0.994,0.799-2.92,0.814-4.391,0.563c-0.217-0.037-0.377-0.222-0.384-0.441
		c-0.189-5.808,1.502-12.47,4.19-16.793c0.042-0.066,0.099-0.122,0.168-0.16c1.059-0.589,2.009-0.689,2.822-0.299
		C117.645,174.892,117.745,175.055,117.745,175.231z M114.353,191.324c0.252-2.214,0.634-4.476,1.073-7.083
		c0.426-2.527,0.907-5.38,1.35-8.699c-0.444-0.096-0.967,0.011-1.561,0.323c-2.502,4.086-4.079,10.299-3.996,15.787
		C112.535,191.824,113.732,191.699,114.353,191.324z"/>
	<path d="M111.224,194.81c0,0.179-0.104,0.349-0.279,0.424L59.55,217.45l-0.101,0.8c-0.243,1.922-0.494,3.908-0.591,5.388
		c-0.495,7.675-0.197,15.688,0.442,26.132c0.05,0.837,0.134,1.795,0.256,2.922l51.394,22.759c0.233,0.103,0.338,0.378,0.235,0.61
		c-0.103,0.234-0.376,0.339-0.61,0.235L58.938,253.43c-0.15-0.067-0.254-0.208-0.272-0.372c-0.139-1.258-0.233-2.315-0.288-3.231
		c-0.641-10.478-0.938-18.525-0.442-26.248c0.099-1.509,0.352-3.51,0.597-5.444l0.134-1.061c0.02-0.163,0.125-0.302,0.275-0.367
		l51.637-22.321c0.234-0.101,0.506,0.007,0.608,0.241C111.212,194.687,111.224,194.749,111.224,194.81z"/>
	<path d="M68.741,271.971c0,0.131-0.056,0.258-0.157,0.347c-0.128,0.113-0.309,0.146-0.469,0.086l-3.675-1.384
		c-0.139-0.052-0.245-0.169-0.284-0.312c-1.535-5.692-3.389-13.826-3.389-15.39c0-0.15,0.073-0.304,0.195-0.391
		c0.122-0.087,0.278-0.122,0.42-0.073c1.45,0.505,3.382,1.323,3.401,1.331c0.135,0.057,0.235,0.175,0.269,0.318l3.675,15.361
		C68.737,271.899,68.741,271.935,68.741,271.971z M64.989,270.238l2.638,0.993l-3.418-14.286c-0.437-0.182-1.471-0.608-2.454-0.974
		C62.072,258.308,63.558,264.901,64.989,270.238z"/>
	<path d="M70.484,277.375c0,0.114-0.042,0.227-0.122,0.313c-0.113,0.123-0.283,0.175-0.445,0.137
		c-0.308-0.072-3.033-0.737-3.759-1.853c-0.657-1.008-1.329-2.779-1.999-5.265c-0.046-0.167,0.007-0.346,0.136-0.463
		c0.128-0.117,0.311-0.152,0.473-0.09l3.675,1.384c0.132,0.049,0.234,0.157,0.277,0.291l1.743,5.404
		C70.477,277.28,70.484,277.328,70.484,277.375z M65.295,271.342c0.557,1.913,1.118,3.33,1.636,4.127
		c0.304,0.467,1.421,0.934,2.387,1.234l-1.412-4.378L65.295,271.342z"/>
	<path d="M68.741,197.796c0,0.036-0.004,0.072-0.013,0.108l-3.675,15.363c-0.034,0.143-0.134,0.261-0.269,0.318
		c-0.019,0.008-1.952,0.827-3.402,1.331c-0.14,0.049-0.295,0.028-0.417-0.057c-0.122-0.085-0.195-0.223-0.198-0.371c0,0,0,0,0-0.001
		c0-1.6,1.854-9.735,3.389-15.428c0.039-0.144,0.144-0.26,0.284-0.312l3.583-1.348c0.073-0.049,0.161-0.076,0.255-0.076
		c0.257,0,0.453,0.237,0.462,0.468C68.741,197.792,68.741,197.794,68.741,197.796z M64.209,212.823l3.418-14.288l-2.638,0.993
		c-1.435,5.35-2.924,11.961-3.236,14.271C62.736,213.432,63.772,213.006,64.209,212.823z"/>
	<path d="M70.484,192.394c0,0.048-0.007,0.095-0.022,0.142l-1.743,5.402c-0.043,0.134-0.145,0.241-0.277,0.291l-3.675,1.383
		c-0.162,0.061-0.345,0.026-0.474-0.09c-0.129-0.117-0.181-0.297-0.135-0.463c0.67-2.484,1.342-4.255,1.999-5.265
		c0.675-1.036,3.07-1.68,3.658-1.825c0.062-0.031,0.133-0.049,0.207-0.049c0.257,0,0.471,0.228,0.462,0.468
		C70.484,192.389,70.484,192.391,70.484,192.394z M67.908,197.442l1.412-4.377c-0.966,0.3-2.083,0.766-2.388,1.233
		c-0.519,0.798-1.08,2.215-1.636,4.127L67.908,197.442z"/>
	<path d="M107.542,196.451c-0.065,0.197-6.507,19.962-6.687,38.487l-0.006,0.265l0.002,0.131l-0.003,0.236l0.007,0.164
		c0.18,18.526,6.622,38.29,6.687,38.487l-0.581,0.191c-0.064-0.197-6.475-19.862-6.714-38.409l-0.003-0.001l-0.009-0.268
		l0.005-0.402l-0.005-0.663l0.012-0.002c0.239-18.546,6.65-38.212,6.714-38.409L107.542,196.451z"/>
	<path d="M111.063,279.891c0,0.255-0.207,0.462-0.462,0.462H71.525c-0.255,0-0.462-0.207-0.462-0.462s0.207-0.462,0.462-0.462
		h39.076C110.856,279.428,111.063,279.635,111.063,279.891z"/>
	<path d="M111.063,189.991c0,0.255-0.207,0.462-0.462,0.462H71.525c-0.255,0-0.462-0.207-0.462-0.462s0.207-0.462,0.462-0.462
		h39.076C110.856,189.529,111.063,189.736,111.063,189.991z"/>
	<path d="M146.866,188.954v12.621c0,0.255-0.207,0.462-0.462,0.462s-0.462-0.207-0.462-0.462v-12.621
		c0-0.255,0.207-0.462,0.462-0.462S146.866,188.699,146.866,188.954z"/>
	<path d="M146.866,268.711v12.621c0,0.255-0.207,0.462-0.462,0.462s-0.462-0.207-0.462-0.462v-12.621
		c0-0.255,0.207-0.462,0.462-0.462S146.866,268.456,146.866,268.711z"/>
	<path d="M200.9,188.954v12.621c0,0.255-0.207,0.462-0.462,0.462s-0.462-0.207-0.462-0.462v-12.621c0-0.255,0.207-0.462,0.462-0.462
		S200.9,188.699,200.9,188.954z"/>
	<path d="M200.9,268.711v12.621c0,0.255-0.207,0.462-0.462,0.462s-0.462-0.207-0.462-0.462v-12.621c0-0.255,0.207-0.462,0.462-0.462
		S200.9,268.456,200.9,268.711z"/>
	<path d="M136.923,201.367l-0.069,0.442c-0.032,0.204-3.194,20.541-3.194,32.793c0,12.255,3.016,33.516,3.047,33.729l0.061,0.43
		l-26.342,7.665l-0.144-0.472c-0.065-0.212-6.505-21.496-6.505-41.115c0-19.133,6.836-39.915,6.905-40.123l0.149-0.448
		L136.923,201.367z M132.66,234.603c0-11.318,2.675-29.448,3.138-32.505l-24.312-6.615c-0.991,3.128-6.709,21.943-6.709,39.357
		c0,17.85,5.378,37.11,6.321,40.35l24.558-7.146C135.228,264.951,132.66,245.956,132.66,234.603z"/>
	<path d="M246.328,235.256c0,12.833-1.723,30.646-1.919,32.635c-0.052,0.514-0.462,0.883-0.957,0.881l-107.833-0.117l-0.059-0.431
		c-0.031-0.222-3.054-22.318-3.054-33.396c0-10.975,2.798-32.316,2.917-33.219l0.058-0.435l0.438-0.006l107.534-0.118
		c0.479,0,0.887,0.356,0.949,0.829C244.422,202.02,246.328,216.826,246.328,235.256z M136.492,267.657l106.963,0.116
		c0.154-1.963,1.873-19.731,1.873-32.516c0-18.243-1.897-33.101-1.916-33.243l-107.057,0.154c-0.44,3.429-2.849,22.521-2.849,32.661
		C133.506,244.984,136.07,264.51,136.492,267.657z"/>
	<path d="M256.638,235.483c0,15.345-2.582,35.519-2.607,35.719c-0.041,0.31-0.229,0.581-0.503,0.726
		c-0.274,0.145-0.604,0.149-0.882,0.01l-6.916-3.458c-0.328-0.165-0.532-0.492-0.532-0.854l0.007-0.114
		c1.52-14.937,2.112-24.135,2.112-32.795c0-9.615-0.775-18.952-2.113-31.829l-0.007-0.106c0-0.32,0.164-0.619,0.438-0.799
		l6.964-3.521c0.234-0.156,0.583-0.18,0.887-0.037c0.297,0.136,0.508,0.427,0.547,0.757c0.023,0.185,2.428,19.126,2.6,34.891
		C256.636,234.536,256.638,235.008,256.638,235.483z M253.093,271.039c0-0.396,2.688-21.614,2.538-36.958
		c-0.172-15.707-2.568-34.591-2.593-34.779l-6.904,3.544c1.405,12.848,2.183,22.212,2.183,31.87c0,8.697-0.594,17.923-2.119,32.907
		l6.896,3.421C253.093,271.043,253.093,271.041,253.093,271.039z"/>
	<rect x="252.125" y="262.849" transform="matrix(-0.4824 0.8759 -0.8759 -0.4824 613.923 183.9153)" width="1" height="20.974"/>

		<rect x="242.139" y="196.459" transform="matrix(-0.8759 0.4824 -0.4824 -0.8759 568.9291 247.6102)" width="20.975" height="0.999"/>
	<rect x="246.076" y="233.754" width="21.279" height="1"/>
	<path d="M117.483,296.513c-0.813,0.39-1.763,0.29-2.822-0.299c-0.069-0.038-0.126-0.094-0.168-0.16
		c-2.688-4.323-4.379-10.985-4.19-16.793c0.007-0.219,0.167-0.404,0.384-0.441c1.471-0.251,3.397-0.236,4.391,0.563
		c0.095,0.077,0.156,0.188,0.17,0.31c0.248,2.254,0.638,4.563,1.089,7.238c0.444,2.629,0.946,5.609,1.404,9.104
		c0.003,0.02,0.004,0.04,0.004,0.06C117.745,296.271,117.645,296.434,117.483,296.513z M111.219,279.674
		c-0.083,5.488,1.494,11.701,3.996,15.787c0.594,0.312,1.117,0.419,1.561,0.323c-0.443-3.319-0.924-6.172-1.35-8.699
		c-0.439-2.607-0.821-4.869-1.073-7.083C113.732,279.627,112.535,279.502,111.219,279.674z"/>
</g>
</svg>
