<?xml version="1.0" encoding="utf-8"?>
<!-- Generator: Adobe Illustrator 17.0.0, SVG Export Plug-In . SVG Version: 6.00 Build 0)  -->
<!DOCTYPE svg PUBLIC "-//W3C//DTD SVG 1.1//EN" "http://www.w3.org/Graphics/SVG/1.1/DTD/svg11.dtd">
<svg version="1.1" id="Layer_1" xmlns="http://www.w3.org/2000/svg"  x="0px" y="0px"
	 width="110.6px" height="106.364px" viewBox="109.312 361.291 110.6 106.364"
	 enable-background="new 109.312 361.291 110.6 106.364" xml:space="preserve">
<g id="back-windscreen">
	<path fill="#FF3947" d="M194.992,403.666h-61.386c-2.118,0-3.841-1.757-3.841-3.917l2.387-26.219
		c-0.002-2.118,1.721-3.875,3.839-3.875h56.019c2.118,0,3.841,1.757,3.841,3.917l2.979,26.124
		C198.833,401.909,197.11,403.666,194.992,403.666z"/>
</g>
<g id="back">
	<path fill="#FFFFFF" d="M202.957,408.833c-0.81-13.969-4.891-41.088-4.891-41.088s-33.787-4.089-68.01,0.083
		c0,0-4.174,29.173-4.457,40.839c-0.284,11.665,0.553,33.724,0.553,33.724l0.335,0.002l2.388,8.775l0.979,0.007v3.241h22.165
		l1.835,2.268H176.3l2.202-2.457h20.894l0.092-2.53l0.436,0.003l1.98-8.893l0.37,0.002c0,0,0.066-0.882,0.161-2.389l0,0l0,0
		C202.798,434.707,203.598,419.885,202.957,408.833z M194.992,403.666h-61.386c-2.118,0-3.841-1.757-3.841-3.917l2.387-26.219
		c-0.002-2.118,1.721-3.875,3.839-3.875h56.019c2.118,0,3.841,1.757,3.841,3.917l2.979,26.124
		C198.833,401.909,197.11,403.666,194.992,403.666z"/>
</g>
<g id="roof">
	<path fill="#FFFFFF" d="M124.971,368.1c0,0,23.908-1.345,39.26-1.345c15.352,0,39.334,1.25,39.334,1.25l1.872-4.283
		c0,0-13.058-2.055-41.206-2.055s-40.823,2.284-40.823,2.284L124.971,368.1z"/>
</g>
<g id="back-right">
	<path fill="#FFFFFF" d="M210.251,387.365c-2.119-12.726-4.814-23.643-4.814-23.643l-1.976,4.11l-5.586-0.707
		c0,0,1.462,7.764,2.471,16.984c1.082,8.306,2.223,18.025,2.611,24.724c0.641,11.052-0.159,25.874-0.521,31.586l0,0l0,0
		c-0.096,1.508-0.161,2.389-0.161,2.389l-0.37-0.002l-1.98,8.893l-0.436-0.003l-0.092,2.53H199v11.413
		c0,1.142,0.928,2.07,2.069,2.07h8.313c1.141,0,2.069-0.929,2.069-2.07v-21.585l1.383-6.972l-2.081-2.833l2.081-4.25
		c0,0,0.543-13.224-0.561-26.921"/>
</g>
<g id="right">
	<path fill="#FFFFFF" d="M212.272,403.079c1.052,0.03,2.289,0.045,3.043,0.045c0.56,0,1.186-0.008,1.877-0.026
		c0.043,0.006,1.104,0.098,1.897-0.623c0.543-0.494,0.819-1.226,0.819-2.175v-7.583c0-1.324,0-5.352-5.424-5.352h-4.233"/>
</g>
<g id="back-left">
	<path fill="#FFFFFF" d="M129.854,454.416v-0.19h-0.035l-0.092-2.53l-0.436,0.003l-0.118-0.529l-0.298-0.002l-2.388-8.775
		l-0.335-0.002c0,0-0.837-22.059-0.553-33.724c0.283-11.666,4.457-40.839,4.457-40.839c0.241-0.029,0.482-0.054,0.723-0.083
		c0.039-0.312,0.062-0.495,0.062-0.495l-5.086,0.582l-1.976-4.11c0,0-2.695,10.917-4.814,23.643l-2.022,15.713
		c-1.104,13.697-0.561,26.921-0.561,26.921l2.081,4.25l-2.081,2.833l1.383,6.972v21.585c0,1.141,0.928,2.07,2.069,2.07h8.313
		c1.141,0,2.069-0.928,2.069-2.07v-11.223L129.854,454.416L129.854,454.416z"/>
</g>
<g id="left">
	<path fill="#FFFFFF" d="M116.944,403.079c-1.052,0.03-2.289,0.045-3.043,0.045c-0.56,0-1.186-0.008-1.877-0.026
		c-0.043,0.006-1.104,0.098-1.897-0.623c-0.543-0.494-0.819-1.226-0.819-2.175v-7.583c0-1.324,0-5.352,5.424-5.352h4.233"/>
</g>
<g id="lineart">
	<path d="M209.894,451.978H119.08l-0.626-5.003l-1.7-4.55l-1.193-5.367l1.941-2.773l-1.888-4.314l-0.008-0.105
		c-2.531-33.464,7.456-65.231,7.558-65.548l0.117-0.367l0.381-0.055c11.381-1.655,26.959-2.605,42.74-2.605
		c14.8,0,28.617,0.824,38.906,2.321l0.383,0.055l0.116,0.368c0.101,0.32,10.088,32.367,7.557,65.83l-0.008,0.105l-1.887,4.314
		l1.941,2.773l-1.217,5.45l-1.675,4.467L209.894,451.978z M120.168,450.745h88.637l0.535-4.136l1.686-4.494l1.066-4.795
		l-2.027-2.896l2.081-4.756c2.341-31.26-6.302-61.245-7.398-64.892c-10.19-1.453-23.784-2.253-38.342-2.253
		c-15.547,0-30.888,0.923-42.177,2.536c-1.099,3.623-9.737,33.363-7.397,64.609l2.081,4.756l-2.027,2.896l1.066,4.795l1.72,4.635
		L120.168,450.745z"/>
	<path d="M113.855,403.07c-0.56,0-1.188-0.008-1.881-0.023c0.011,0.004-1.049,0.096-1.843-0.625
		c-0.544-0.494-0.819-1.226-0.819-2.175v-7.583c0-1.324,0-5.352,5.424-5.352h4.084v0.925h-4.084c-3.965,0-4.5,2.238-4.5,4.428v7.583
		c0,0.674,0.172,1.173,0.51,1.485c0.485,0.447,1.19,0.392,1.196,0.392c3.005,0.066,4.199-0.025,4.681-0.113l0.166,0.909
		C116.246,403.02,115.261,403.07,113.855,403.07z"/>
	<polygon points="126.18,430.564 116.648,430.564 116.648,429.64 125.256,429.64 125.256,410.722 115.939,410.722 115.939,409.798
		126.18,409.798 	"/>
	<rect x="115.797" y="425.104" width="9.78" height="0.925"/>
	<path d="M118.591,434.379c-0.032-0.409-2.107-41.207,6.853-66.678l0.603,0.14c-8.945,25.345-6.875,66.081-6.843,66.49
		L118.591,434.379z"/>
	<path d="M210.433,434.851l-0.614-0.048c0.032-0.414,2.102-41.713-6.843-67.057l0.604-0.14
		C212.541,393.08,210.465,434.436,210.433,434.851z"/>
	<rect x="163.853" y="366.335" width="0.925" height="75.768"/>
	<path d="M209.385,467.655h-8.313c-1.141,0-2.069-0.928-2.069-2.07v-13.94h0.925v13.94c0,0.631,0.513,1.145,1.144,1.145h8.313
		c0.631,0,1.144-0.513,1.144-1.145V444h0.925v21.585C211.454,466.726,210.526,467.655,209.385,467.655z"/>
	<polygon points="176.473,456.629 154.027,456.629 152.192,454.361 130.027,454.361 130.027,453.436 152.634,453.436
		154.469,455.704 176.06,455.704 178.262,453.247 199.569,453.247 199.569,454.172 178.675,454.172 	"/>
	<polygon points="212.174,430.564 202.357,430.564 202.357,409.798 212.599,409.798 212.599,410.722 203.282,410.722
		203.282,429.64 212.174,429.64 	"/>
	<rect x="202.961" y="425.104" width="9.779" height="0.925"/>
	<path d="M128.032,467.655h-8.313c-1.141,0-2.069-0.928-2.069-2.07V444h0.925v21.585c0,0.631,0.513,1.145,1.145,1.145h8.313
		c0.631,0,1.145-0.513,1.145-1.145v-13.94h0.925v13.94C130.101,466.726,129.173,467.655,128.032,467.655z"/>
	<rect x="117.356" y="441.829" width="94.262" height="0.925"/>
	<path d="M215.319,403.069c-1.371,0-2.344-0.05-2.885-0.149l0.166-0.909c0.482,0.088,1.678,0.179,4.629,0.111
		c0.061,0.002,0.764,0.055,1.249-0.391c0.339-0.312,0.51-0.811,0.51-1.485v-7.583c0-2.189-0.535-4.428-4.499-4.428h-4.085v-0.925
		h4.084c5.424,0,5.424,4.028,5.424,5.352v7.583c0,0.949-0.276,1.681-0.819,2.175c-0.793,0.721-1.854,0.629-1.897,0.623
		C216.505,403.061,215.879,403.069,215.319,403.069z"/>
	<rect x="117.64" y="443.336" width="93.116" height="0.462"/>
	<rect x="119.057" y="446.595" width="90.86" height="0.462"/>
	<rect x="119.624" y="447.729" width="89.856" height="0.462"/>
	<path d="M194.996,403.611H133.61c-2.118,0-3.841-1.757-3.841-3.917l2.387-26.219c-0.002-2.118,1.721-3.875,3.839-3.875h56.019
		c2.118,0,3.841,1.757,3.841,3.917l2.979,26.124C198.837,401.854,197.114,403.611,194.996,403.611z M135.995,370.526
		c-1.608,0-2.917,1.342-2.917,2.992l-2.387,26.219c0.002,1.607,1.31,2.95,2.918,2.95h61.386c1.608,0,2.916-1.342,2.916-2.992
		l-2.979-26.124c-0.003-1.702-1.311-3.045-2.919-3.045H135.995z"/>
	<path d="M211.037,434.845c-51.521-1.659-92.402-0.017-92.809-0.001l-0.038-0.923c0.407-0.017,41.319-1.658,92.877-0.001
		L211.037,434.845z"/>
	<rect x="200.97" y="451.322" width="0.308" height="15.763"/>
	<rect x="209.365" y="451.322" width="0.308" height="15.763"/>
	<rect x="119.593" y="451.113" width="0.308" height="15.762"/>
	<rect x="127.987" y="451.113" width="0.308" height="15.762"/>
	<path d="M125.205,368.201l-1.682-4.081l0.925-0.381l1.413,3.427c3.013-0.15,24.506-1.199,38.532-1.199
		c14.061,0,35.691,0.979,38.625,1.116l1.709-3.577l0.902,0.432l-1.996,4.176l-0.331-0.017c-0.237-0.011-23.899-1.13-38.91-1.13
		c-15.008,0-38.597,1.204-38.833,1.216L125.205,368.201z"/>
</g>
</svg>
