<?xml version="1.0" encoding="utf-8"?>
<!-- Generator: Adobe Illustrator 17.0.0, SVG Export Plug-In . SVG Version: 6.00 Build 0)  -->
<!DOCTYPE svg PUBLIC "-//W3C//DTD SVG 1.1//EN" "http://www.w3.org/Graphics/SVG/1.1/DTD/svg11.dtd">
<svg version="1.1" xmlns="http://www.w3.org/2000/svg"  x="0px" y="0px"
	 viewBox="0 0 595.28 841.89" preserveAspectRatio="xMinYMin meet" enable-background="new 0 0 595.28 841.89" xml:space="preserve">
<style>
	/* This style is need in order for the '.selectable-area--enable:hover' to work */
	.selectable-area:hover {
		fill: #fff;
	}
	.selectable-area--enable:hover {
		fill: #fc8189;
	}
	.selectable-area--highlight {
		fill: #fa505b;
	}
</style>
<g class="selectable-area" id="CNR">
	<path fill="#FFFFFF" d="M215.811,695.612l-0.339-0.002l-6.097,15.062l0.804-0.061c2.099-0.16,4.075-0.169,6.167-0.179
		c1.628-0.008,3.307-0.016,5.156-0.094l8.931,37.089l2.788,3.295l8.419,16.837l-0.506,35.636h89.507v-34.649l7.766-18.507
		l2.362-2.866l8.625-37.122c7.868,0.227,12.562,0.395,12.563,0.395l0.764,0.027l-5.488-13.858L215.811,695.612z"/>
	<path fill="#FFFFFF" d="M365.162,593.041l-0.513,0.31c-0.237,0.143-24.182,14.273-69.852,15.095
		c-35.317,0.661-70.269-15.624-70.611-15.785l-0.486-0.229l-6.139,15.959l0.211,0.229c0.188,0.203,19.45,20.327,75.701,20.327
		c58.046,0,77.18-19.959,77.367-20.16l0.21-0.228L365.162,593.041z"/>
</g>
<g class="selectable-area" id="CNF">
	<path fill="#FFFFFF" d="M260.002,93.768c-1.81,0.859-6.719,3.335-7.336,5.186c-0.718,2.153-0.687,6.59,1,11.65
		c1.639,4.918,4.725,11.169,8.128,12.98l-0.821,21.199l0.171,18.912h68.245l-0.001-22.027l-0.987-18.386
		c1.519-1.396,11.658-11.303,8.539-23.979l-0.043-0.177l-0.147-0.107c-0.195-0.143-4.588-3.336-8.897-4.817
		c3.168-3.555,20.867-22.712,38.592-27.776l2.772-0.792l-2.878-0.188c-0.145-0.009-14.959-0.941-59.946-0.941
		c-23.93,0-52.111,0.26-83.761,0.774l-3.497,0.057l3.373,0.926C222.693,66.312,241.135,71.569,260.002,93.768z"/>
	<path fill="#FFFFFF" d="M343.222,211.167c-0.86-1.286-4.621-7.261-4.659-7.321l-0.147-0.235l-89.028,0.335l-5.316,7.202
		l-0.064,0.118c-0.209,0.546-20.886,55.222-22.869,110.911l-0.027,0.749l0.702-0.263c0.367-0.137,37.067-13.718,71.078-13.718
		c34.021,0,74.438,13.34,74.842,13.474l0.716,0.239l-0.06-0.752C368.324,321.077,361.664,238.707,343.222,211.167z"/>
</g>
<g class="selectable-area" id="WDS">
	<path fill="#FFFFFF" d="M371.982,65.789c-3.146-13.41-17.734-40.354-17.881-40.625l-0.127-0.234l-0.265-0.025
		c-16.188-1.546-34.442-2.331-54.259-2.331c-34.938,0-63.053,2.472-63.333,2.497l-0.196,0.018l-0.132,0.147
		c-7.153,7.984-17.712,39.034-18.159,40.352l-0.226,0.667l0.704-0.006c19.153-0.17,40.417-0.256,63.2-0.256
		c49.324,0,89.778,0.407,90.182,0.411l0.638,0.006L371.982,65.789z"/>
	<path fill="#FFFFFF" d="M294.549,307.249c-25.376,0-50.047,4.887-73.328,14.526l-0.368,0.152l0.066,0.393
		c0.056,0.331,5.575,33.344,6.244,51.353l0.023,0.634l0.611-0.171c0.236-0.066,24.012-6.599,63.434-6.599
		c23.023,0,46.83,2.196,70.756,6.526l0.549,0.099l0.039-0.556c0.029-0.427,3.032-42.785,5.977-51.373l0.146-0.422l-0.404-0.191
		C367.99,321.474,337.496,307.249,294.549,307.249z"/>
</g>
<g class="selectable-area" id="RWD">
	<path fill="#FFFFFF" d="M339.466,653.854l-0.119-0.25l-0.275-0.031c-22.58-2.571-38.151-3.62-53.746-3.62
		c-14.824,0-30.229,0.988-49.95,3.203l-0.242,0.027l-0.128,0.207c-5.416,8.766-19.641,42.468-19.784,42.807l-0.292,0.691
		l72.04,0.233c17.126,0.055,69.389,0.486,69.915,0.49l0.723,0.006l-0.249-0.679C357.269,696.694,348.249,672.225,339.466,653.854z"
		/>
	<path fill="#FFFFFF" d="M358.638,552.131l-0.572,0.216c-0.246,0.093-24.995,9.29-62.308,9.29c-21.9,0-43.772-3.124-65.009-9.286
		l-0.542-0.157l-6.743,41.718l0.333,0.163c0.325,0.159,32.979,15.862,74.451,15.862c24.25,0,46.755-5.287,66.89-15.714l0.322-0.167
		L358.638,552.131z"/>
</g>
<g class="selectable-area" id="LHR">
	<path fill="#FFFFFF" d="M242.897,767.759l-8.893-18.035l-1.908-2.264l-9.485-38.276l-11.477,0.322
		c1.353-3.394,7.207-18.048,9.399-22.983c3.708-8.348,15.232-32.412,15.348-32.654l0.402-0.84l-0.922,0.129
		c-0.29,0.04-7.166,1.091-12.891,9.847c-5.623,8.6-19.069,38.353-19.23,38.71l0.454,0.209l0,0l0,0l-2.804,6.169l-0.443-0.209
		l-0.143,0.291l0.009,0.005l-1.016,2.243c-0.945,1.095-12.073,14.078-13.713,20.313c-1.343,5.103-0.142,29.102,0.576,43.44
		c0.186,3.715,0.339,6.782,0.408,8.704c0.068,1.915-0.077,3.836-0.218,5.694c-0.423,5.597-0.824,10.888,5.268,13.084l0.106,29.489
		c0,2.126,1.73,3.855,3.856,3.855h20.715c2.126,0,3.856-1.729,3.855-3.838l0.986-28.187c11.312-0.06,21.087-0.363,21.186-0.366
		l0.486-0.016l-0.085-31.954L242.897,767.759z"/>
	<path fill="#FFFFFF" d="M206.848,581.746l1.916,0.024c-0.02,3.48-0.018,10.618,0.3,12.588c0.238,1.475,1.78,9.096,8.778,14.32
		l0.529,0.396l6.096-15.878l5.977-35.081c0.008-0.09,0.817-9.036,0.835-13.043c0.012-2.786-0.053-7.461-0.143-13.932
		c-0.121-8.742-0.287-20.714-0.348-34.739l-0.002-0.608l-23.921,4.828l0.419,17.804h-1.43c-1.854,0-3.362,1.435-3.362,3.206
		l1.001,56.918C203.492,580.311,205,581.746,206.848,581.746z M224.706,548.608c-1.301,5.825-6.012,10.56-7.904,12.268l-0.792-54.61
		l9.074-3.44C225.183,508.316,225.776,543.823,224.706,548.608z"/>
	<path fill="#FFFFFF" d="M118.526,512.26c-5.17,1.962-13.412,2.373-19.415,2.373c-3.147,0-5.625-0.115-6.54-0.165
		c-0.588-2.75-4.777-19.129-22.534-28.466c-6.875-3.615-13.389-5.449-19.36-5.449c-7.014,0-10.676,2.543-10.829,2.65l-0.21,0.15
		v7.383c-3.362,1.029-28.105,9.594-27.167,38.059c0.935,28.36,25.914,33.492,29.513,34.083l1.305,41.035l0.004,0.133l0.069,0.113
		c0.054,0.087,5.387,8.771,8.03,12.571c2.415,3.471,3.661,3.479,7.789,3.512c0.713,0.005,1.52,0.011,2.441,0.036
		c1.308,0.035,2.588,0.067,3.812,0.067c4.161,0,8.258-0.339,10.185-2.736c0.487,0.066,1.513,0.181,2.764,0.181
		c2.69,0,6.234-0.534,7.842-3.077c1.349-2.132,1.873-3.194,2.049-3.764c1.316,0.011,5.177,0.038,9.216,0.038
		c0.001,0,0.001,0,0.002,0c6.631,0,10.463-0.072,11.387-0.215l0.211-0.032c2.413-0.362,9.755-1.464,26.965-11.53
		c6.662-3.896,10.375-5.844,12.832-7.132c4.078-2.139,4.704-2.468,9.419-6.764c7.708-7.021,8.299-8.56,8.163-14.049
		c-0.131-5.298,0.157-69.541,0.16-70.189l0.003-0.621l-0.608,0.13C164.449,500.924,127.328,508.922,118.526,512.26z M159.681,511.17
		c-0.059,19.534-1.056,53.027-4.449,57.733c-5.735,7.952-28.692,18.078-32.987,19.924v-67.496L159.681,511.17z"/>
</g>
<g class="selectable-area" id="LHC">
	<path fill="#FFFFFF" d="M203.65,701.425c-0.475,0.043-0.871-0.078-1.212-0.369c-1.346-1.149-1.577-4.555-1.73-6.808
		c-0.109-1.605-0.165-2.27-0.459-2.596c-1.644-1.814-5.746-2.086-8.045-2.086h-0.001c-4.833,0-11.134,1.199-12.888,3.136
		l-0.086,0.132c-1.495,3.35-1.544,6.242-0.147,8.599c3.56,6.004,15.767,6.987,21.634,7.46l0.04-0.498l0,0l2.716-5.974
		c0.09,0,0.178,0.009,0.271,0.001L203.65,701.425z"/>
	<path fill="#FFFFFF" d="M230.278,436.397c-0.012-0.92-1.251-92.164-8.526-113.985l-0.221-0.665l-6.13,4.688l-11.459,2.223
		l0.003,0.416c0.001,0.166,0.046,6.324,0.103,14.798c-3.346,1.208-7.538,3.616-12.225,8.303l-0.108,0.161
		c-0.107,0.256-2.587,6.313-0.091,9.343l0.188,0.229l12.335-2.341c0.07,11.67,0.131,23.718,0.131,30.17
		c0,11.157,1.417,74.628,2.261,111.47l0.5-0.012l0,0h0.001l0.499-0.012c-0.001-0.03-0.001-0.061-0.002-0.091l22.75-4.689l0,0
		l0.5-0.002C230.662,467.734,230.282,436.707,230.278,436.397z M215.156,357.478l0.115-0.192c0.116-0.193,2.829-4.787,1.656-9.147
		c-0.532-1.98-1.791-3.58-3.792-4.802c-0.038-5.149-0.077-10.457-0.111-11.728c-0.004-0.163-0.002-0.697,0.204-0.725
		c1.295-0.197,5.626,4.5,6.177,6.676c2.07,8.172,4.486,56.231,4.763,66.963l0.615,23.738l-10.073-2.526l-1.401-54.079
		c0,0-0.031-6.24-0.076-13.814L215.156,357.478z M215.604,492.973c-0.758-0.656-0.736-2.453-0.664-3.091l0.003-50.514l10.006,1.819
		v49.682c-3.005,0.958-6.101,1.767-8.046,2.275C216.335,493.294,215.91,493.238,215.604,492.973z"/>
	<path fill="#FFFFFF" d="M153.041,361.151c-4.467-6.142-17.442-24.448-23.758-35.25l-0.89,0.452
		c0.387,0.886,0.726,1.597,0.995,2.132c-3.221-1.228-11.937-4.337-18.88-4.871c-3.605-0.277-16.364-0.418-37.921-0.418
		c-14.437,0-28.184,0.066-30.951,0.081v-9.778l-1.498-0.081l-0.002,0.525c-0.005,1.312-0.484,131.574-0.5,169.668v0.958l0.786-0.549
		c0.145-0.101,3.616-2.467,10.251-2.467c5.808,0,12.165,1.795,18.895,5.334c18.875,9.926,22.062,27.958,22.092,28.139l0.065,0.393
		l0.396,0.025c0.029,0.002,2.968,0.189,6.983,0.189c6.088,0,14.46-0.423,19.773-2.438c8.125-3.082,41.791-10.427,46.747-11.501
		c-0.01,2.396-0.05,11.433-0.09,22.25l-0.002,0.512l0.821-0.016l0.144-0.151c0.16-0.168,0.203-0.213,0.326-62.094
		c0.057-28.746,0.071-64.099-0.188-69.276C166.146,383.119,157.397,367.139,153.041,361.151z M160.322,434.352v57.605
		c-3.069,0.731-23.629,5.632-31.759,7.473c-1.085,0.244-2.102,0.368-3.024,0.368c-5.458,0-6.219-4.275-6.242-4.378v-61.068
		L160.322,434.352L160.322,434.352z M118.277,351.458c0.562,1.636,1.344,3.093,2.454,4.217c1.564,1.583,3.647,2.387,6.19,2.387
		c1.755,0,3.774-0.385,6.002-1.143l0.174-0.103c1.485-1.345,2.169-4.283,2.276-7.069c10.159,11.54,24.948,31.542,24.948,43.841
		v28.324l-42.045-3.711L118.277,351.458L118.277,351.458z"/>
	<path fill="#FFFFFF" d="M401.275,53.91l-0.086-0.132c-1.755-1.938-8.057-3.137-12.889-3.137c-2.3,0-6.403,0.271-8.048,2.086
		c-0.269,0.298-0.376,0.908-0.611,2.382c-0.411,2.567-1.085,6.774-3.127,7.337c-3.632-9.145-12.479-30.42-19.564-39.395
		c-5.673-7.185-9.39-8.258-11.101-8.258c-0.522,0-0.813,0.104-0.866,0.124l-0.776,0.304l0.634,0.542
		c13.484,11.524,26.01,49.877,26.135,50.263l0.104,0.322l5.551,0.374l1.6,3.687l0.356-0.028c8.116-0.653,19.306-2.194,22.758-8.014
		C402.747,60.002,402.724,57.156,401.275,53.91z"/>
</g>
<g class="selectable-area" id="LHF">
	<path fill="#FFFFFF" d="M395.634,96.322c-0.163-1.23-1.351-7.18-1.667-7.883c-1.146-2.706-5.196-7.372-8.771-11.489
		c-2.429-2.798-4.724-5.44-5.386-6.654l-0.535-1.31l-0.412,0.035l-1.557-3.589l-5.856-0.393l-6.497,0.009l-0.155,0.025
		c-19.274,6.353-38.025,29.253-38.213,29.484l-0.471,0.58l0.716,0.214c3.94,1.178,8.333,4.232,9.183,4.84
		c3.058,13.048-8.333,23.081-8.449,23.181l-0.186,0.161l1.013,19.008v21.58l0.506-0.005c8.846-0.096,19.687-0.218,29.63-0.342
		l0.986,28.198c0,2.126,1.73,3.856,3.856,3.856h20.715c2.126,0,3.856-1.73,3.856-3.838l1.034-29.093
		c1.524-0.516,2.803-1.469,3.711-2.772c1.028-1.477,1.281-2.902,1.344-3.46l0.423-5.087
		C394.709,148.387,396.804,105.751,395.634,96.322z"/>
	<path fill="#FFFFFF" d="M244.744,203.978c-2.289,0.872-22.839,9.308-39.256,36.554c-0.173,0.304-4.233,7.54-4.065,15.08v4.018
		h-1.378c-1.877,0-3.404,1.403-3.403,3.146l2,55.797c0,1.725,1.527,3.129,3.404,3.129h1.476l0.456,7.936l11.543-1.55l6.603-5.65
		l0.014-0.21c0.046-0.711,4.838-71.61,24.208-111.014l5.046-7.93l-0.689-0.159C250.594,203.099,248.407,202.582,244.744,203.978z"/>
	<path fill="#FFFFFF" d="M123.3,301.391c-2.388-22.287-6.82-61.758-9.674-75.714c-3.275-16.01-16.29-25.959-35.746-27.358
		c0.08-0.751,0.059-2.086-0.813-3.219c-0.958-1.246-2.646-1.877-5.018-1.877c-0.4,0-0.829,0.018-1.287,0.056
		c-2.922,0.243-5.267,0.362-7.169,0.362c-1.083,0-1.876-0.037-2.572-0.07c-0.558-0.026-1.054-0.049-1.586-0.049l-0.334,0.003
		c-1.016,0.019-2.112,0.615-3.088,1.679c-1.268,1.381-2.093,3.253-2.006,4.551c0.112,1.674-3.256,6.561-7.271,8.053l-0.327,0.122
		l0.102,22.554c-4.165,0.401-34.161,4.407-34.098,36.128c0.054,27.777,24.743,34.725,28.225,35.564l0.001,22.105l0.503-0.003
		c0.151-0.001,15.352-0.083,31.415-0.083c21.249,0,34.346,0.143,37.876,0.415c8.487,0.653,19.736,5.25,19.848,5.297l1.405,0.578
		l-0.787-1.3C130.841,329.092,125.263,319.709,123.3,301.391z"/>
</g>
<g class="selectable-area" id="ROF">
	<path fill="#FFFFFF" d="M307.273,23.302c19.71,0,35.229,0.831,46.126,2.471l1.304,0.196l-0.846-1.011
		c-0.077-0.092-7.671-9.172-8.326-9.992l-0.116-0.145l-0.184-0.034c0,0-0.28-0.052-0.812-0.142l-2.208-5.752
		c-0.259-0.786-1.048-3.178-3.31-3.178h-1.995c-1.839,0-3.335,1.496-3.335,3.332l-0.022,4.067
		c-9.254-1.103-23.694-2.383-40.867-2.383c-12.824,0-25.377,0.716-37.32,2.128l-0.124-3.809c0-1.839-1.496-3.335-3.335-3.335h-1.995
		c-2.029,0-2.746,1.566-3.308,3.172l-1.869,5.437c-0.613,0.096-1.226,0.194-1.84,0.295l-0.212,0.035L234.98,26.02l1.029-0.075
		C236.371,25.917,272.563,23.302,307.273,23.302z"/>
	<path fill="#FFFFFF" d="M330.546,644.974h-1.995c-1.839,0-3.335,1.496-3.335,3.336l0.007,4.011l0.5-0.001l9.094,1.554l0.093,0.264
		l0.943-0.334l-2.001-5.659C333.292,646.541,332.575,644.974,330.546,644.974z"/>
	<path fill="#FFFFFF" d="M243.547,644.64h-1.995c-2.029,0-2.746,1.566-3.306,3.168l-2.001,5.661l0.471,0.167l0,0l0,0l0.471,0.167
		l0.081-0.228l9.06-1.005l0.5,0.006l0.054-4.601C246.882,646.136,245.386,644.64,243.547,644.64z"/>
	<path fill="#FFFFFF" d="M296.199,365.537c-23.204,0-46.452,2.496-69.097,7.419l-0.406,0.089l0.013,0.416
		c0.046,1.475,4.426,153.427,3.401,179.35l-0.015,0.372l0.353,0.12c0.278,0.096,28.238,9.511,65.686,9.513c0.004,0,0.004,0,0.008,0
		c22.014,0,42.961-3.206,62.255-9.526l0.344-0.113l0.001-0.361c0.003-1.283,0.349-128.937,3.643-179.337l0.026-0.402l-0.388-0.111
		C361.766,372.89,335.712,365.537,296.199,365.537z"/>
	<path fill="#FFFFFF" d="M166.136,425.067l-0.728-0.373l0.003,17.612c0.008,44.064,0.02,104.412-0.003,123.936l-0.002,1.593
		l0.912-1.306c0.177-0.254,4.345-6.32,4.345-14.979l-0.001-111.961C170.563,438.291,169.601,426.845,166.136,425.067z"/>
	<path fill="#FFFFFF" d="M428.68,568.575c-0.024-20.479-0.011-86.581-0.002-130.322l0.002-11.226l-0.729,0.373
		c-3.465,1.779-4.428,13.225-4.527,14.562v111.923c0,8.657,4.169,14.724,4.346,14.978l0.912,1.306L428.68,568.575z"/>
</g>
<g class="selectable-area" id="RHR">
	<path fill="#FFFFFF" d="M386.715,773.414c0.717-14.335,1.917-38.327,0.575-43.429c-1.637-6.219-13.898-18.959-15.056-20.15
		l-0.751-1.876l-0.464,0.186l-2.592-6.463l0.453-0.212c-1.44-3.08-14.23-30.333-19.655-38.631
		c-5.731-8.766-10.66-9.369-10.867-9.391l-0.875-0.091l0.369,0.798c0.093,0.199,9.272,20.03,11.991,26.647
		c2.649,6.446,9.875,24.784,11.386,28.619l-12.626-0.396l-8.758,37.691l-2.259,2.742l-7.908,18.792l-0.039,33.683l0.489,0.011
		c0.099,0.002,9.859,0.216,20.884,0.278l1.018,29.09c0,2.126,1.729,3.856,3.855,3.856h20.716c2.126,0,3.855-1.73,3.855-3.839
		l1.052-30.521c5.824-2.251,5.431-7.47,5.014-12.989c-0.14-1.856-0.284-3.776-0.216-5.69
		C386.375,780.206,386.529,777.133,386.715,773.414z"/>
	<path fill="#FFFFFF" d="M364.441,593.958l6.07,15.783l0.528-0.396c6.999-5.226,8.541-12.846,8.778-14.32
		c0.317-1.968,0.319-9.107,0.3-12.589l1.909-0.024c1.854,0,3.362-1.434,3.362-3.188l1.001-56.937c0-1.763-1.509-3.196-3.362-3.196
		h-1.419c0.043-1.189,0.309-8.699,0.531-18.385l0.01-0.429l-24.007-4.306l-0.003,0.596c-0.101,23.127-0.305,47.281-0.533,49.106
		c-0.503,4.022,0.78,12.766,0.837,13.146L364.441,593.958z M372.87,506.931l-0.792,54.612c-1.892-1.706-6.602-6.437-7.903-12.269
		c-1.07-4.785-0.478-40.292-0.378-45.783L372.87,506.931z"/>
	<path fill="#FFFFFF" d="M554.451,493.07v-7.384l-0.211-0.149c-0.152-0.107-3.816-2.65-10.828-2.65
		c-5.972,0-12.485,1.834-19.36,5.449c-17.757,9.337-21.946,25.716-22.534,28.466c-0.916,0.049-3.394,0.165-6.54,0.165
		c-6.003,0-14.245-0.411-19.415-2.373c-8.803-3.339-45.924-11.336-47.499-11.675l-0.608-0.13l0.003,0.621
		c0.003,0.648,0.291,64.893,0.16,70.189c-0.136,5.489,0.456,7.027,8.163,14.049c4.715,4.296,5.342,4.625,9.42,6.764
		c2.456,1.288,6.169,3.235,12.832,7.132c17.21,10.065,24.552,11.168,26.965,11.53l0.211,0.032c0.924,0.143,4.755,0.215,11.389,0.215
		c4.039,0,7.9-0.027,9.217-0.038c0.176,0.569,0.7,1.632,2.048,3.764c1.608,2.543,5.152,3.077,7.842,3.077
		c1.252,0,2.278-0.114,2.766-0.181c1.927,2.397,6.023,2.736,10.185,2.736c1.225,0,2.503-0.032,3.812-0.067
		c0.922-0.025,1.729-0.031,2.441-0.036c4.128-0.032,5.374-0.041,7.788-3.512c2.644-3.801,7.978-12.484,8.03-12.571l0.069-0.113
		l1.31-41.168c3.6-0.591,28.578-5.723,29.514-34.083C582.556,502.664,557.812,494.099,554.451,493.07z M471.843,523.664v67.497
		c-4.296-1.846-27.252-11.973-32.987-19.925c-3.393-4.706-4.39-38.199-4.448-57.733L471.843,523.664z"/>
</g>
<g class="selectable-area" id="SWD">
	<path fill="#FFFFFF" d="M375.857,330.018c-2.043-0.281-6.685,5.06-7.282,7.422c-2.126,8.39-4.506,56.057-4.794,67.182
		l-0.648,25.056l12.087-3.032l1.421-54.865c0-0.062-0.046-6.317,0-14.145l-0.414-0.002l-0.013-0.94l-1.363,0.019
		c-0.377-0.632-1.414-2.627-1.522-5.598c-0.173-4.703,2.972-6.405,3.105-6.475l0.268-0.14l0.002-0.3
		c0.039-5.322,0.192-11.295,0.223-12.439C376.96,330.377,376.271,330.075,375.857,330.018z"/>
	<path fill="#FFFFFF" d="M362.832,502.887c-0.033,1.69-0.79,41.452,0.389,46.731c1.71,7.657,8.756,13.283,9.055,13.519l0.795,0.627
		l0.832-57.394l-11.057-4.192L362.832,502.887z"/>
	<path fill="#FFFFFF" d="M375.001,438.422l-12.006,2.183v51.244l0.346,0.111c3.153,1.02,6.44,1.879,8.447,2.402
		c0.287,0.075,0.562,0.113,0.816,0.113c0,0,0,0,0.001,0c0.636,0,1.185-0.239,1.588-0.691c1.066-1.196,0.834-3.506,0.808-3.708
		L375.001,438.422L375.001,438.422z"/>
	<path fill="#FFFFFF" d="M225.169,404.497c-0.287-11.124-2.667-58.787-4.793-67.183c-0.561-2.214-4.968-7.435-7.098-7.435
		c-0.335,0-0.626,0.117-0.841,0.338c-0.294,0.302-0.429,0.765-0.412,1.417c0.033,1.253,0.077,6.884,0.115,12.064l0.002,0.318
		l0.289,0.133c0.04,0.018,3.923,1.853,3.75,6.568c-0.11,2.992-1.232,5.153-1.621,5.816l-2.334,0.043l0.003,0.494
		c0.047,7.92,0.08,14.59,0.08,14.601l1.421,54.849l12.087,3.032L225.169,404.497z"/>
	<path fill="#FFFFFF" d="M226.057,501.386L215,505.58l0.833,57.392l0.795-0.626c0.299-0.235,7.344-5.86,9.054-13.519
		c1.18-5.279,0.422-45.041,0.389-46.731L226.057,501.386z"/>
	<path fill="#FFFFFF" d="M216.341,494.225c0.255,0,0.529-0.038,0.887-0.132c1.959-0.512,5.238-1.368,8.376-2.384l0.346-0.112
		v-51.243l-12.006-2.183l0.003,51.597c-0.03,0.26-0.261,2.568,0.805,3.766C215.156,493.986,215.704,494.225,216.341,494.225
		L216.341,494.225z"/>
	<path fill="#FFFFFF" d="M121.432,520.378v69.768l0.692-0.288c1.125-0.47,27.638-11.59,34.106-20.558
		c4.546-6.304,4.637-56.825,4.638-58.973v-0.654L121.8,520.278L121.432,520.378z"/>
	<path fill="#FFFFFF" d="M118.489,495.31c0.008,0.054,0.905,5.3,7.236,5.3l0,0c0.996,0,2.086-0.131,3.244-0.392
		c8.759-1.983,31.923-7.513,32.156-7.568l0.384-0.092v-59.395h-43.026L118.489,495.31z"/>
	<path fill="#FFFFFF" d="M134.359,346.712l0.041,1.364c0.098,3.303-0.672,6.39-1.88,7.577c-2.081,0.699-3.957,1.054-5.575,1.054
		c0,0,0,0-0.001,0c-4.681,0-7.457-2.978-8.485-9.104l-0.993,0.083v71.244l44.045,3.887V393.4
		c-0.001-12.169-14.135-32.209-26.238-45.673L134.359,346.712z"/>
	<path fill="#FFFFFF" d="M433.218,512.66c0.002,2.147,0.093,52.669,4.64,58.973c6.467,8.969,32.98,20.088,34.105,20.558l0.692,0.288
		v-69.768l-39.438-10.705L433.218,512.66z"/>
	<path fill="#FFFFFF" d="M432.578,494.892l0.384,0.092c0.233,0.056,23.396,5.584,32.157,7.568c1.155,0.26,2.247,0.391,3.243,0.391
		c0,0,0,0,0.001,0c6.331,0,7.227-5.246,7.241-5.377v-62.068h-43.026L432.578,494.892L432.578,494.892z"/>
	<path fill="#FFFFFF" d="M475.629,349.935c-1.383,8.243-5.954,10.778-14.061,8.05c-1.209-1.187-1.979-4.273-1.881-7.576l0.04-1.364
		l-0.912,1.015c-12.104,13.465-26.237,33.506-26.238,45.674v29.416l44.045-3.887v-71.244L475.629,349.935z"/>
</g>
<g class="selectable-area" id="RHC">
	<path fill="#FFFFFF" d="M392.455,692.453c-1.755-1.938-8.056-3.136-12.889-3.136c0,0-0.002,0-0.003,0
		c-2.299,0-6.4,0.271-8.043,2.086c-0.295,0.326-0.352,0.99-0.461,2.597c-0.179,2.642-0.479,7.062-2.659,7.183l0.027,0.498l0,0v0.001
		l0.027,0.499c0.057-0.003,0.107-0.019,0.163-0.025l2.402,5.989l0,0l0.04,0.498c5.864-0.472,18.067-1.453,21.629-7.459
		c1.397-2.356,1.348-5.249-0.146-8.599L392.455,692.453z"/>
	<path fill="#FFFFFF" d="M397.598,352.362c-4.926-4.926-9.301-7.329-12.725-8.472c0.055-8.29,0.099-14.277,0.1-14.442l0.003-0.415
		l-11.458-2.223l-6.131-4.688l-0.222,0.665c-7.273,21.822-8.514,113.065-8.525,113.985c-0.004,0.31-0.377,31.318-0.5,59.796
		l0.5,0.002l22.755,4.281c-0.001,0.027-0.001,0.055-0.002,0.082l0.499,0.012h0.001l0,0l0.5,0.012
		c0.839-36.631,2.247-99.74,2.247-110.845c0-6.503,0.062-18.694,0.133-30.452l12.835,2.436l0.188-0.229
		c2.497-3.03,0.017-9.087-0.09-9.343L397.598,352.362z M364.133,428.636l0.615-23.739c0.277-10.733,2.694-58.796,4.763-66.963
		c0.541-2.135,4.721-6.682,6.102-6.682c0.026,0,0.052,0.002,0.076,0.005c0.206,0.028,0.208,0.563,0.204,0.725
		c-0.033,1.276-0.073,6.621-0.111,11.791v0.057c-1.69,1.16-2.797,2.666-3.289,4.495c-1.172,4.36,1.54,8.954,1.656,9.147l0.115,0.192
		l1.421,0.27c-0.045,7.694-0.077,14.086-0.077,14.086l-1.401,54.089L364.133,428.636z M373.315,493.347
		c-0.306,0.265-0.732,0.321-1.3,0.173l-0.072-0.019c-1.876-0.49-4.97-1.299-7.975-2.257v-49.682l10.006-1.819l0.003,50.515
		C374.051,490.893,374.075,492.687,373.315,493.347z M371.888,494.004L371.888,494.004L371.888,494.004L371.888,494.004z"/>
	<path fill="#FFFFFF" d="M553.951,316.277l-0.002-0.525l-1.498,0.081v9.778c-2.768-0.015-16.516-0.081-30.953-0.081
		c-21.556,0-34.313,0.141-37.918,0.418c-6.944,0.534-15.659,3.643-18.881,4.871c0.27-0.535,0.608-1.246,0.995-2.131l-0.89-0.453
		c-7.6,13-23.598,35.029-23.758,35.25c-4.355,5.988-13.105,21.968-13.595,31.769c-0.495,9.899-0.006,129.816-0.001,131.026
		l0.002,0.488l1.101,0.021l-0.002-0.512c-0.04-10.817-0.079-19.854-0.09-22.25c4.956,1.074,38.622,8.419,46.746,11.501
		c5.313,2.015,13.684,2.438,19.771,2.438c4.019,0,6.958-0.188,6.987-0.189l0.396-0.025l0.064-0.393
		c0.03-0.181,3.197-18.202,22.091-28.139c6.73-3.539,13.088-5.334,18.896-5.334c6.654,0,10.106,2.366,10.251,2.467l0.787,0.552
		v-0.961C554.435,447.85,553.955,317.588,553.951,316.277z M474.797,497.675c-0.029,0.182-0.791,4.456-6.249,4.456
		c-0.922,0-1.939-0.123-3.022-0.366c-8.131-1.842-28.69-6.742-31.76-7.475v-57.605h41.025L474.797,497.675z M460.99,359.149
		l0.175,0.103c2.228,0.758,4.247,1.143,6.002,1.143c2.543,0,4.625-0.803,6.189-2.386c1.11-1.124,1.893-2.582,2.455-4.219v66.745
		l-42.045,3.711v-28.325c0-12.304,14.8-32.317,24.948-43.842C458.821,354.865,459.505,357.804,460.99,359.149z"/>
	<path fill="#FFFFFF" d="M242.99,14.711c-1.711,0-5.428,1.073-11.101,8.258c-7.085,8.975-15.933,30.25-19.565,39.395
		c-2.041-0.563-2.715-4.768-3.126-7.334c-0.236-1.475-0.343-2.086-0.613-2.384c-1.644-1.815-5.747-2.086-8.047-2.086
		c-4.833,0-11.134,1.199-12.888,3.136l-0.086,0.132c-1.449,3.247-1.473,6.092-0.07,8.458c3.452,5.82,14.642,7.361,22.758,8.014
		l0.356,0.028l1.6-3.687l5.551-0.374l0.104-0.322c0.125-0.386,12.649-38.738,26.134-50.263l0.634-0.542l-0.777-0.304
		C243.802,14.814,243.512,14.711,242.99,14.711z"/>
</g>
<g class="selectable-area" id="RHF">
	<path fill="#FFFFFF" d="M262.513,123.506c-3.023-1.373-6.145-7.342-7.898-12.649c-1.605-4.86-1.644-9.171-1-11.12
		c0.436-1.318,4.77-3.714,7.399-4.914l0.596-0.272l-0.419-0.503c-17.673-21.211-35.313-27.704-38.67-28.79l-0.075-0.024
		l-11.758,0.016l-2.026,4.997c-0.686,1.264-2.98,3.907-5.41,6.705c-3.574,4.117-7.625,8.783-8.766,11.478
		c-0.324,0.721-1.51,6.667-1.671,7.897c-1.221,9.85,2.149,54.809,2.185,55.25l0.425,5.1c0.061,0.544,0.314,1.97,1.343,3.447
		c0.889,1.276,2.137,2.218,3.626,2.741l0.105,29.107c0,2.126,1.73,3.856,3.856,3.856h20.715c2.126,0,3.856-1.73,3.855-3.838
		l0.987-28.224c10.684,0.137,22.5,0.271,31.72,0.371l0.51,0.005l-0.167-18.47l0.846-22.025L262.513,123.506z"/>
	<path fill="#FFFFFF" d="M388.685,260.13h-1.378v-4.007c0.167-7.551-3.893-14.787-4.071-15.103
		c-16.412-27.235-36.962-35.67-39.251-36.542c-3.659-1.395-5.851-0.878-5.957-0.854l-0.689,0.159l5.021,7.882
		c19.396,39.454,24.73,110.601,24.782,111.315l0.017,0.224l5.938,4.542l11.856,2.301l0.268-7.846h1.464
		c1.877,0,3.404-1.404,3.404-3.111l2.001-55.833C392.089,261.533,390.562,260.13,388.685,260.13z"/>
	<path fill="#FFFFFF" d="M547.578,232.818l0.104-22.554l-0.328-0.122c-4.015-1.493-7.384-6.379-7.271-8.053
		c0.087-1.298-0.738-3.17-2.007-4.552c-0.976-1.063-2.072-1.659-3.087-1.678l-0.338-0.003c-0.531,0-1.028,0.023-1.585,0.049
		c-0.696,0.033-1.489,0.07-2.572,0.07c-1.901,0-4.246-0.119-7.168-0.362c-0.458-0.039-0.887-0.056-1.286-0.056
		c-2.373,0-4.062,0.631-5.02,1.877c-0.871,1.133-0.892,2.467-0.813,3.219c-19.456,1.398-32.471,11.348-35.746,27.358
		c-2.854,13.956-7.286,53.427-9.674,75.714c-1.963,18.318-7.541,27.701-7.598,27.794l-0.787,1.3l1.405-0.579
		c0.112-0.046,11.361-4.644,19.848-5.297c3.531-0.271,16.629-0.415,37.878-0.415c15.941,0,30.788,0.08,31.418,0.083h0.5v-22.102
		c3.481-0.839,28.171-7.787,28.225-35.564C581.74,237.224,551.744,233.218,547.578,232.818z"/>
</g>
<g>
	<path fill="none" stroke="#000000" stroke-width="2" stroke-linecap="round" stroke-linejoin="round" stroke-miterlimit="10" d="
		M245.296,14.633l1.904-5.334c0.626-1.79,1.269-2.835,2.835-2.835h1.995c1.566,0,2.835,1.269,2.835,2.835v3.66"/>
	<g>

			<path fill="none" stroke="#000000" stroke-width="1.5" stroke-linecap="round" stroke-linejoin="round" stroke-miterlimit="10" d="
			M202.83,268.805c-1.142,0.031-1.052-1.432-1.095-2.158c-0.063-1.094-0.109-2.191-0.153-3.286
			c-0.134-3.357-0.229-6.717-0.298-10.075c-0.308-14.898,32.028-48.914,46.463-48.914h92.527c14.429,0,46.771,34.022,46.463,48.914
			l-0.175,8.409"/>
	</g>
	<path fill="none" stroke="#000000" stroke-width="1.5" stroke-linecap="round" stroke-linejoin="round" stroke-miterlimit="10" d="
		M381.971,518.987h1.194c1.575,0,2.859,1.214,2.859,2.697l-1.001,56.927c0,1.485-1.285,2.697-2.859,2.697h-1.694 M209.057,581.362
		l-2.203-0.054c-1.576,0-2.862-1.211-2.862-2.697l-1.001-56.927c0-1.486,1.285-2.697,2.862-2.697h2.034"/>
	<path fill="none" stroke="#000000" stroke-width="1.5" stroke-linecap="round" stroke-linejoin="round" stroke-miterlimit="10" d="
		M386.304,260.546h2.631c1.599,0,2.904,1.181,2.904,2.628l-2.001,55.815c0,1.447-1.306,2.629-2.904,2.629h-1.63 M204.137,321.618
		h-2.058c-1.598,0-2.902-1.18-2.902-2.629l-2.001-55.815c0-1.447,1.304-2.628,2.902-2.628h1.684"/>
	<path fill="none" stroke="#000000" stroke-width="1.5" stroke-linecap="round" stroke-linejoin="round" stroke-miterlimit="10" d="
		M204.066,344.611c-0.003-0.132-0.006-0.264-0.008-0.396l-0.001-0.028l0.002-0.027c0.808-24.103,2.275-48.276-1.497-72.217
		l-0.01-0.071l-0.27-12.977c-0.174-6.277,3.978-14.314,10.003-22.004"/>
	<path fill="none" stroke="#000000" stroke-width="1.5" stroke-linecap="round" stroke-linejoin="round" stroke-miterlimit="10" d="
		M384.767,360.282c-1.141,54.823-2.283,102.639-3.424,157.462l-0.001,0.07l-0.01,0.068c-1.364,8.901-1.986,17.958-2.217,26.959
		c-0.322,12.527,0.104,25.12,0.877,37.622l0.004,0.044l-0.003,0.043c-0.061,2.914-0.12,5.828-0.18,8.741
		c-0.039,1.824-0.312,3.625-0.823,5.373c-3.699,12.675-18.844,19.873-30.069,23.635c-16.945,5.678-36.585,7.757-54.354,7.787
		c-17.744,0.03-37.36-1.976-54.297-7.593c-11.277-3.738-26.397-10.888-30.194-23.561c-0.549-1.837-0.839-3.729-0.873-5.645
		c-0.063-3.056-0.127-6.112-0.191-9.168l-0.001-0.044l0.002-0.044c0.765-12.215,1.268-24.544,1.056-36.787
		c-0.154-8.912-0.645-18.373-2.373-27.124l-0.019-0.09l-0.001-0.092c-1.145-55.025-2.292-103.044-3.438-158.07"/>
	<path fill="none" stroke="#000000" stroke-width="1.5" stroke-linecap="round" stroke-linejoin="round" stroke-miterlimit="10" d="
		M378.022,239.999c5.272,7.131,8.809,14.09,8.709,18.896c-0.091,4.419-0.185,8.837-0.276,13.256l-0.001,0.056l-0.006,0.055
		c-3.04,23.822-3.588,47.738-1.493,71.672l0.005,0.056l-0.001,0.059c-0.003,0.16-0.007,0.321-0.01,0.481"/>
	<path fill="none" stroke="#000000" stroke-width="1.5" stroke-linecap="round" stroke-linejoin="round" stroke-miterlimit="10" d="
		M243.886,211.692c1.499-0.457,2.887-0.702,4.128-0.702h92.985c0.642,0,1.322,0.072,2.036,0.21"/>
	<path fill="none" stroke="#000000" stroke-width="1.5" stroke-linecap="round" stroke-linejoin="round" stroke-miterlimit="10" d="
		M221.472,322.161c44.087-18.919,101.983-18.919,146.072,0"/>
	<path fill="none" stroke="#000000" stroke-width="1.5" stroke-linecap="round" stroke-linejoin="round" stroke-miterlimit="10" d="
		M230.61,552.331c77.027,23.114,127.633-0.017,127.633-0.017l6.602,40.811c-67.709,34.82-140.829,0-140.829,0L230.61,552.331"/>
	<path fill="none" stroke="#000000" stroke-width="1.5" stroke-linecap="round" stroke-linejoin="round" stroke-miterlimit="10" d="
		M230.475,554.464c-0.759-58.104,2.662-179.686-9.003-232.303"/>
	<path fill="none" stroke="#000000" stroke-width="1.5" stroke-linecap="round" stroke-linejoin="round" stroke-miterlimit="10" d="
		M367.544,322.161c-10.74,54.284-8.246,174.199-9.003,232.303"/>
	<path fill="none" stroke="#000000" stroke-width="1.5" stroke-linecap="round" stroke-linejoin="round" stroke-miterlimit="10" d="
		M241.607,541.683c0.803-45.286-0.5-90.571-4.115-135.855c-0.234-2.939,3.023-2.626,4.56-2.626c1.459,0,2.788,1.185,2.731,2.626
		c-1.79,44.453-0.135,89.812,4.115,135.855c0.27,2.936-3.025,2.625-4.56,2.625C242.879,544.308,241.651,543.127,241.607,541.683
		L241.607,541.683z M347.409,541.683c-0.803-45.286,0.501-90.571,4.115-135.855c0.234-2.939-3.024-2.626-4.558-2.626
		c-1.459,0-2.79,1.186-2.733,2.626c1.79,44.453,0.134,89.812-4.115,135.855c-0.271,2.936,3.024,2.625,4.561,2.625
		C346.136,544.308,347.366,543.127,347.409,541.683z"/>
	<g>

			<path fill="none" stroke="#000000" stroke-width="1.5" stroke-linecap="round" stroke-linejoin="round" stroke-miterlimit="10" d="
			M364.588,220.521c4.001,3.326,11.225,10.152,12.756,15.32l1.382,4.661l-3.303-3.526c-0.988-1.054-2.032-2.052-3.119-3
			c-4.553-3.981-9.752-7.089-14.961-10.084c-2.761-1.588-8.569-4.63-10.382-7.2l-4.414-6.259l1.857-0.277
			C349.883,209.34,360.589,217.196,364.588,220.521z"/>

			<path fill="none" stroke="#000000" stroke-width="1.5" stroke-linecap="round" stroke-linejoin="round" stroke-miterlimit="10" d="
			M222.76,220.521c-4.001,3.326-11.225,10.152-12.757,15.32l-1.38,4.661l3.303-3.526c0.988-1.054,2.033-2.052,3.118-3
			c4.554-3.981,9.754-7.089,14.962-10.084c2.759-1.588,8.568-4.63,10.381-7.2l4.414-6.259l-1.855-0.277
			C237.466,209.34,226.759,217.196,222.76,220.521z"/>
	</g>

		<line fill="none" stroke="#000000" stroke-width="1.5" stroke-linecap="round" stroke-linejoin="round" stroke-miterlimit="10" x1="253.066" y1="416.002" x2="335.639" y2="416.002"/>

		<line fill="none" stroke="#000000" stroke-width="1.5" stroke-linecap="round" stroke-linejoin="round" stroke-miterlimit="10" x1="253.066" y1="521.179" x2="335.639" y2="521.179"/>
	<path fill="none" stroke="#000000" stroke-width="1.5" stroke-linecap="round" stroke-linejoin="round" stroke-miterlimit="10" d="
		M221.472,322.161"/>
	<path fill="none" stroke="#000000" stroke-width="1.5" stroke-linecap="round" stroke-linejoin="round" stroke-miterlimit="10" d="
		M253.52,212.527"/>
	<g>
		<path fill="none" stroke="#000000" stroke-width="2" stroke-linecap="round" stroke-linejoin="round" stroke-miterlimit="10" d="
			M73.318,194.026c-4.378,0-14.208,0-14.208,0s-4.605,1.717-4.605,5.697c0,3.996-7.596,8.555-7.596,8.555v13.872
			c0,0,2.067-0.151,5.396-0.015c3.19-0.015,7.869-0.03,14.342-0.06c14.07-0.075,10.65-23.293,10.65-23.293
			S77.677,194.026,73.318,194.026z"/>

			<path fill="none" stroke="#000000" stroke-width="0.94" stroke-linecap="round" stroke-linejoin="round" stroke-miterlimit="10" d="
			M46.908,222.151c0,0,1.658,0,5.396-0.015C48.976,222,46.908,222.151,46.908,222.151z"/>

			<path fill="none" stroke="#000000" stroke-width="1.5" stroke-linecap="round" stroke-linejoin="round" stroke-miterlimit="10" d="
			M160.181,510.265c0,0-0.04,52.434-4.544,58.68c-6.459,8.957-33.893,20.388-33.893,20.388v-68.635L160.181,510.265z
			 M160.988,433.977v58.499c0,0-23.292,5.561-32.15,7.567c-8.858,1.99-9.876-4.498-9.876-4.498v-61.569L160.988,433.977
			L160.988,433.977z M43.137,562.445l0.651,30.056h43.966c0,0-0.503,12.779-0.67,17.353c0.151-2.582,0.426-2.644,0.67-1.975v-9.041
			c0-4.193,3.311-7.597,7.397-7.597h11.853c4.087,0,7.399,3.404,7.399,7.597v10.181c1.898-0.547,3.949-1.308,6.079-2.34
			c9.358-4.559,34.428-17.717,42.026-25.071c0,0,3.176-2.522,3.297-9.496c0.016-0.669,0.032-2.826,0.032-6.2
			c0.046-22.137,0.015-96.47,0-140.731c-0.015-20.101-0.032-34.004-0.032-34.004s-0.258-8.738-4.178-15.955
			c-3.373-6.215-22.441-34.902-29.78-44.991c-0.928-1.261-1.657-2.249-2.158-2.841c-0.121-0.167-0.243-0.305-0.35-0.411
			c-3.221-3.419-5.12-12.915-5.5-14.997c-0.38-2.096-7.673-84.404-13.751-94.525c-0.714-1.2-1.474-2.37-2.294-3.509v15.909
			c0,0-13.143,0.501-15.18-1.763c-2.021-2.279-4.801-1.018-5.819-10.894c-0.181-1.763-0.288-3.45-0.364-5.029
			c-0.32-7.339,0.364-12.566,0.364-12.566c-2.857-0.61-6.017-0.899-9.498-0.823c0,0,3.419,23.218-10.651,23.294
			c-6.472,0.03-15.659,0.045-18.849,0.06 M40.665,302.267v162.177v26.865"/>
		<path fill="none" stroke="#000000" stroke-width="2" stroke-linecap="round" stroke-linejoin="round" stroke-miterlimit="10" d="
			M107.004,591.24H95.151c-4.087,0-7.397,3.404-7.397,7.597v9.041c0.287,0.791,0.559,2.598,0.559,2.598h14.695
			c0,0,4.845,0.455,11.395-1.458v-10.181C114.403,594.644,111.091,591.24,107.004,591.24z"/>
		<path fill="none" stroke="#000000" stroke-width="2" stroke-linecap="round" stroke-linejoin="round" stroke-miterlimit="10" d="
			M87.753,592.501H43.788v11.396c0,0,8.372,15.453,13.433,15.453c5.058,0,14.881,1.261,18.178-2.279c0,0,11.396,0.76,11.656-6.336
			c0.015-0.244,0.015-0.547,0.03-0.881C87.251,605.28,87.753,592.501,87.753,592.501z"/>

			<path fill="none" stroke="#000000" stroke-width="0.94" stroke-linecap="round" stroke-linejoin="round" stroke-miterlimit="10" d="
			M165.741,425.179c0.008,44.261,0.026,118.594,0,140.731c0,0,4.255-6.092,4.255-14.692c0-8.6,0-111.923,0-111.923
			S169.057,426.881,165.741,425.179z"/>

			<path fill="none" stroke="#000000" stroke-width="1.5" stroke-linecap="round" stroke-linejoin="round" stroke-miterlimit="10" d="
			M117.943,347.569c0,2.181,0,6.76,0,6.76v64.455l43.045,3.799c0,0,0-11.654,0-28.87c0-12.629-15.236-33.274-26.247-45.494"/>

			<rect x="106.548" y="485.25" fill="none" stroke="#000000" stroke-width="0.94" stroke-linecap="round" stroke-linejoin="round" stroke-miterlimit="10" width="2.28" height="22.493"/>

			<rect x="106.548" y="393.07" fill="none" stroke="#000000" stroke-width="0.94" stroke-linecap="round" stroke-linejoin="round" stroke-miterlimit="10" width="2.28" height="22.493"/>

			<path fill="none" stroke="#000000" stroke-width="0.94" stroke-linecap="round" stroke-linejoin="round" stroke-miterlimit="10" d="
			M86.794,199.603c0,0-0.684,5.227-0.364,12.566c3.434,6.64,21.364,8.828,21.364,8.828v-7.05
			C103.099,207.291,96.626,201.654,86.794,199.603z"/>

			<path fill="none" stroke="#000000" stroke-width="0.94" stroke-linecap="round" stroke-linejoin="round" stroke-miterlimit="10" d="
			M86.43,212.169c0.076,1.579,0.183,3.266,0.364,5.029c1.019,9.876,3.799,8.615,5.819,10.894c2.037,2.265,15.18,1.763,15.18,1.763
			v-8.858C107.794,220.997,89.864,218.808,86.43,212.169z"/>

			<path fill="none" stroke="#000000" stroke-width="1.88" stroke-linecap="round" stroke-linejoin="round" stroke-miterlimit="10" d="
			M48.7,230.823c19.762,0,35.789,16.026,35.789,35.789c0,19.762-16.027,35.788-35.789,35.788c-19.763,0-35.788-16.026-35.788-35.788
			C12.912,246.849,28.938,230.823,48.7,230.823L48.7,230.823z M48.7,243.481c12.772,0,23.131,10.358,23.131,23.131
			c0,12.772-10.359,23.13-23.131,23.13c-12.773,0-23.132-10.358-23.132-23.13C25.569,253.839,35.927,243.481,48.7,243.481
			L48.7,243.481z"/>

			<path fill="none" stroke="#000000" stroke-width="1.88" stroke-linecap="round" stroke-linejoin="round" stroke-miterlimit="10" d="
			M48.7,490.468c19.762,0,35.789,16.026,35.789,35.789c0,19.762-16.027,35.788-35.789,35.788c-19.763,0-35.788-16.026-35.788-35.788
			C12.912,506.494,28.938,490.468,48.7,490.468L48.7,490.468z M48.7,503.126c12.772,0,23.131,10.358,23.131,23.131
			c0,12.772-10.359,23.13-23.131,23.13c-12.773,0-23.132-10.358-23.132-23.13C25.569,513.484,35.927,503.126,48.7,503.126
			L48.7,503.126z"/>

			<path fill="none" stroke="#000000" stroke-width="0.94" stroke-linecap="round" stroke-linejoin="round" stroke-miterlimit="10" d="
			M48.641,483.261V323.756c0,0,44.407,0,57.252,0s25.953,6.473,25.953,6.473"/>

			<polyline fill="none" stroke="#000000" stroke-width="0.94" stroke-linecap="round" stroke-linejoin="round" stroke-miterlimit="10" points="
			164.917,429.057 116.291,425.999 49.407,425.999 		"/>

			<path fill="none" stroke="#000000" stroke-width="0.94" stroke-linecap="round" stroke-linejoin="round" stroke-miterlimit="10" d="
			M165.859,501.2c0,0-38.558,8.289-47.427,11.653s-26.547,2.217-26.547,2.217"/>

			<line fill="none" stroke="#000000" stroke-width="0.47" stroke-linecap="round" stroke-linejoin="round" stroke-miterlimit="10" x1="64.914" y1="483.521" x2="64.914" y2="323.547"/>

			<line fill="none" stroke="#000000" stroke-width="0.4741" stroke-linecap="round" stroke-linejoin="round" stroke-miterlimit="10" x1="67.668" y1="486.273" x2="67.668" y2="323.547"/>

			<line fill="none" stroke="#000000" stroke-width="0.3429" stroke-linecap="round" stroke-linejoin="round" stroke-miterlimit="10" x1="107.576" y1="591.453" x2="107.576" y2="508.418"/>

			<line fill="none" stroke="#000000" stroke-width="0.3111" stroke-linecap="round" stroke-linejoin="round" stroke-miterlimit="10" x1="107.576" y1="484.968" x2="107.576" y2="416.613"/>

			<line fill="none" stroke="#000000" stroke-width="0.3111" stroke-linecap="round" stroke-linejoin="round" stroke-miterlimit="10" x1="107.576" y1="393.163" x2="107.576" y2="324.808"/>
	</g>
	<path fill="none" stroke="#000000" stroke-width="2" stroke-linecap="round" stroke-linejoin="round" d="M379.748,69.386
		c8.59-0.691,26.879-2.343,21.07-15.356c-2.563-2.83-17.099-4.468-20.194-1.05c-0.691,0.764,0.325,10.711-4.076,9.906"/>
	<path fill="none" stroke="#000000" stroke-linecap="round" stroke-linejoin="round" d="M235.279,162.67
		c1.116,0.043,0.891-0.024,2.008,0.019c0.959,0.037,1.916,0.052,2.874,0.054c0.304,0.001,0.608,0,0.912-0.001
		c0.487-0.002,0.975-0.007,1.462-0.012c2.318-0.024,4.635-0.07,6.955,0.014c4.035,0.145,8.072,0.426,12.109,0.493
		c5.138,0.085,10.275,0.358,15.412,0.47c4.807,0.11,9.614,0.215,14.421,0.25c3.619,0.022,7.239-0.052,10.858-0.115
		c5.526-0.105,11.053-0.21,16.578-0.385c4.282-0.134,8.561-0.421,12.844-0.545c3.703-0.108,7.407-0.162,11.111-0.162
		c2.036,0,4.068,0.08,6.1,0.142c0.354,0.011,0.706,0.021,1.06,0.03c0.242,0.007,0.483,0.012,0.725,0.017
		c1.447,0.031,2.895,0.04,4.345-0.011c-0.648-1.428-1.253-2.923-1.878-4.386c-0.725-1.696-1.462-3.368-2.256-4.981
		c-0.178-0.361-0.356-0.721-0.536-1.081c-1.08-2.165-2.202-4.307-3.417-6.276c-0.587-0.952-1.194-1.863-1.83-2.716
		c-0.562-0.754-1.152-1.421-1.808-1.937c-0.306-0.24-0.791-0.09-1.125-0.094c-0.794-0.011-1.589-0.025-2.383-0.037
		c-0.197-0.003-0.395-0.006-0.592-0.009c-0.288-0.004-0.576-0.008-0.864-0.011c-1.659-0.02-3.317-0.023-4.975-0.027
		c-3.021-0.006-6.041-0.032-9.061-0.073c-0.646-0.009-1.292-0.018-1.938-0.027c-2.846-0.04-5.691-0.099-8.538-0.146
		c-1.205-0.019-2.408-0.036-3.613-0.048c-3.302-0.034-6.605-0.069-9.906-0.095c-1.587-0.012-3.175-0.023-4.761-0.031
		c-1.365-0.006-2.729-0.006-4.093-0.002c-2.957,0.01-5.913,0.038-8.87,0.052c-0.963,0.004-1.927,0.014-2.89,0.027
		c-3.446,0.043-6.892,0.12-10.338,0.129c-0.744,0.002-1.488,0.006-2.232,0.014c-3.289,0.03-6.578,0.099-9.867,0.142
		c-1.894,0.026-3.787,0.073-5.681,0.09c-0.398,0.005-0.795,0.01-1.193,0.014c-0.248,0.002-0.496,0.006-0.743,0.008
		c-0.675,0.007-1.35,0.014-2.025,0.021c-0.429,0.005-0.858,0.011-1.287,0.018c-0.19,0.002-0.345,0.001-0.523,0.002
		c-0.091,0.001-0.298,0.366-0.407,0.474c-1.154,1.57-2.165,3.257-3.093,5.024c-1.011,1.927-1.924,3.949-2.815,6.018
		c-0.148,0.344-0.296,0.69-0.444,1.036c-0.656,1.541-1.307,3.104-1.986,4.667c-0.359,0.828-0.726,1.657-1.106,2.483
		C235.753,161.675,235.519,162.173,235.279,162.67z"/>
	<path fill="none" stroke="#000000" stroke-linecap="round" stroke-linejoin="round" stroke-miterlimit="10" d="M327.088,94.394
		c3.577,0.829,8.332,3.843,8.944,4.408c0.176,0.154,0.304,0.375,0.424,0.621c0.916,1.868,0.794,4.202,0.49,6.231
		c-0.644,4.29-2.351,8.482-4.492,12.108c-1.076,1.818-2.33,3.639-3.932,4.928c-0.271,0.217-0.54,0.415-0.926,0.552
		c-1.013,0.248-12.823,0.868-17.36,1.132c-4.605,0.267-9.214,0.536-13.825,0.623c-3.941,0.074-7.889-0.148-11.826-0.35
		c-4.927-0.253-9.852-0.557-14.775-0.88c-2.582-0.169-7.145-0.32-7.964-0.596c-0.539-0.293-0.857-0.617-1.244-0.983
		c-0.745-0.702-1.403-1.51-2.011-2.355c-1.231-1.713-2.262-3.603-3.15-5.555c-0.889-1.955-1.636-4-2.169-6.108
		c-0.526-2.077-0.902-4.309-0.644-6.468c0.118-0.993,0.396-1.947,0.911-2.778c0.108-0.174,0.301-0.44,0.461-0.546
		c4.256-3.752,7.042-4.081,7.522-4.191c0.58-0.133,30.114-0.746,33.005-0.746C301.27,93.44,326.308,94.279,327.088,94.394z"/>
	<path fill="none" stroke="#000000" stroke-linecap="round" stroke-linejoin="round" stroke-miterlimit="10" d="
		M367.124,65.945c0,0-17.163-0.343-22.871-0.52c-12.483-0.887-99.156-0.153-103.727,0c-6.089,0.414-18.684,0.176-18.684,0.176"/>
	<path fill="none" stroke="#000000" stroke-linecap="round" stroke-linejoin="round" stroke-miterlimit="10" d="
		M236.569,25.522c40.877-3.607,77.415-3.544,116.69-0.031"/>

		<ellipse fill="none" stroke="#000000" stroke-linecap="round" stroke-linejoin="round" stroke-miterlimit="10" cx="370.03" cy="142.999" rx="7.221" ry="7.475"/>

		<ellipse fill="none" stroke="#000000" stroke-linecap="round" stroke-linejoin="round" stroke-miterlimit="10" cx="219.702" cy="142.999" rx="7.221" ry="7.475"/>
	<path fill="none" stroke="#000000" stroke-linecap="round" stroke-linejoin="round" stroke-miterlimit="10" d="M292.587,93.786
		c1.606,0,3.23-0.015,4.836-0.015c0.143,10.07,0.141,21.194-0.002,31.258c-0.001,0-2.558,0.131-4.809-0.01
		C292.472,114.97,292.445,103.856,292.587,93.786z"/>
	<path fill="none" stroke="#000000" stroke-linecap="round" stroke-linejoin="round" stroke-miterlimit="10" d="M307.985,93.991
		c0.856-0.049,1.683-0.012,2.585,0.074c0.7,9.892,0.699,20.471,0.002,30.362c-0.871,0.101-1.73,0.18-2.588,0.154
		C308.683,114.763,308.684,103.809,307.985,93.991z"/>
	<path fill="none" stroke="#000000" stroke-linecap="round" stroke-linejoin="round" stroke-miterlimit="10" d="M322.42,94.43
		c0.853-0.089,1.731-0.023,2.599,0.053c0.944,9.49,0.952,19.538,0.016,29.029c-0.851,0.108-1.758,0.215-2.616,0.169
		C323.355,114.322,323.355,103.788,322.42,94.43z"/>
	<path fill="none" stroke="#000000" stroke-linecap="round" stroke-linejoin="round" stroke-miterlimit="10" d="M279.147,93.962
		c0.881-0.119,2.579-0.042,2.579-0.042c-0.698,9.823-0.699,20.778,0,30.601c0,0-1.238,0.02-2.582-0.151
		C278.457,114.611,278.456,103.722,279.147,93.962z"/>
	<path fill="none" stroke="#000000" stroke-linecap="round" stroke-linejoin="round" stroke-miterlimit="10" d="M264.699,94.217
		c1.325-0.146,2.575-0.034,2.575-0.034c-0.938,9.42-0.94,20.009,0,29.429c0,0-1.277-0.003-2.579-0.177
		C263.774,114.082,263.77,103.567,264.699,94.217z"/>
	<path fill="none" stroke="#000000" stroke-width="2" stroke-linecap="round" stroke-linejoin="round" d="M395.164,96.142
		c-0.171-1.299-1.352-7.133-1.631-7.753c-1.91-4.513-12.451-15.001-14.16-18.149c-1.018-2.508-2.037-5.016-3.055-7.524
		c0,0-0.083-0.214-0.242-0.614c-1.269-3.202-7.374-18.294-14.409-30.486c-4.454-7.719-9.28-14.275-13.489-15.917
		c-0.483-0.189-0.958-0.312-1.424-0.365c0,0-22.384-4.254-52.504-3.859c-30.12-0.394-52.504,3.859-52.504,3.859
		c-0.465,0.053-0.941,0.177-1.424,0.365c-4.209,1.642-9.035,8.198-13.489,15.917c-7.035,12.192-13.14,27.284-14.409,30.486
		c-0.159,0.4-0.242,0.614-0.242,0.614c-1.018,2.508-2.037,5.016-3.055,7.524c-1.709,3.148-12.25,13.636-14.16,18.149
		c-0.279,0.62-1.461,6.454-1.631,7.753c-1.173,9.46,1.961,52.369,2.187,55.147c0.107,1.313,0.203,2.475,0.277,3.356
		c0.09,1.074,0.146,1.729,0.146,1.729c0.098,0.871,0.47,2.088,1.256,3.217c0.948,1.36,2.499,2.592,4.902,2.932
		c3.37,0.311,75.699,1.036,75.699,1.036c5.425,0.007,10.849,0.014,16.273,0.021l0,0c0.059,0,0.117,0,0.176,0s0.117,0,0.176,0l0,0
		c5.424-0.007,10.848-0.014,16.273-0.021c0,0,73.329-0.726,76.699-1.036c2.402-0.339,3.953-1.571,4.901-2.932
		c0.786-1.129,1.158-2.346,1.256-3.217c0,0,0.056-0.655,0.146-1.729c0.073-0.881,0.17-2.043,0.277-3.356
		C394.204,148.511,396.338,105.602,395.164,96.142z"/>
	<path fill="none" stroke="#000000" stroke-width="2" stroke-linecap="round" stroke-linejoin="round" d="M209.318,69.386
		c-8.59-0.691-26.879-2.343-21.07-15.356c2.563-2.83,17.099-4.468,20.194-1.05c0.656,0.725-0.227,9.729,3.449,9.948"/>
	<path fill="none" stroke="#000000" stroke-width="1.5" stroke-linecap="round" stroke-linejoin="round" stroke-miterlimit="10" d="
		M388.391,163.689l-1.118,28.448c0,1.854-1.503,3.356-3.356,3.356h-20.715c-1.854,0-3.356-1.503-3.356-3.356l-1.118-28.962"/>
	<path fill="none" stroke="#000000" stroke-width="1.5" stroke-linecap="round" stroke-linejoin="round" stroke-miterlimit="10" d="
		M200.713,162.688l0.117,29.449c0,1.854,1.503,3.356,3.356,3.356h20.715c1.854,0,3.356-1.503,3.356-3.356l1.118-28.962"/>
	<path fill="none" stroke="#000000" stroke-linecap="round" stroke-linejoin="round" stroke-miterlimit="10" d="M248.28,121.208
		c0,0-11.993-1.184-22.818-3.455c-9.12-5.974-8.527-28.876-8.527-28.876s10.858,1.867,17.102,2.94
		c6.356,1.093,7.794,4.212,8.916,6.044C246.74,104.044,247.556,111.351,248.28,121.208z"/>
	<path fill="none" stroke="#000000" stroke-linecap="round" stroke-linejoin="round" stroke-miterlimit="10" d="M225.462,117.753
		c-13.364-2.297-21.401-5.001-23.276-11.769c-1.25-4.51-2.09-19.836-2.09-19.836l17.805,2.729"/>
	<path fill="none" stroke="#000000" stroke-linecap="round" stroke-linejoin="round" stroke-miterlimit="10" d="M340.601,120.312
		c0,0,11.993-1.184,22.818-3.455c9.12-5.974,8.526-28.876,8.526-28.876s-10.858,1.867-17.102,2.94
		c-6.356,1.093-7.794,4.212-8.916,6.044C342.142,103.148,341.326,110.455,340.601,120.312z"/>
	<path fill="none" stroke="#000000" stroke-linecap="round" stroke-linejoin="round" stroke-miterlimit="10" d="M363.42,116.856
		c13.364-2.297,21.401-5.001,23.276-11.769c1.25-4.51,2.09-19.836,2.09-19.836l-17.805,2.729"/>
	<path fill="none" stroke="#000000" stroke-linecap="round" stroke-linejoin="round" stroke-miterlimit="10" d="M194.202,126.134
		c0,0,96.453,18.5,200.25,0"/>
	<path fill="none" stroke="#000000" stroke-linecap="round" stroke-linejoin="round" stroke-miterlimit="10" d="M261.201,94.133
		c0,0-16.515-21.223-39.655-28.516"/>
	<path fill="none" stroke="#000000" stroke-linecap="round" stroke-linejoin="round" stroke-miterlimit="10" d="M244.201,15.134
		c-13.749,11.75-26.285,50.489-26.285,50.489h4.286"/>
	<path fill="none" stroke="#000000" stroke-linecap="round" stroke-linejoin="round" stroke-miterlimit="10" d="M345.249,15.467
		c13.749,11.75,26.285,50.489,26.285,50.489h-4.286"/>
	<path fill="none" stroke="#000000" stroke-width="2" stroke-linecap="round" stroke-linejoin="round" stroke-miterlimit="10" d="
		M343.864,14.96l-2.001-5.661c-0.494-1.499-1.269-2.835-2.835-2.835h-1.995c-1.566,0-2.835,1.269-2.835,2.835v3.66"/>

		<rect x="261.666" y="144.635" fill="none" stroke="#000000" stroke-linecap="round" stroke-linejoin="round" stroke-miterlimit="10" width="67" height="15"/>
	<path fill="none" stroke="#000000" stroke-width="2" stroke-linecap="round" stroke-linejoin="round" stroke-miterlimit="10" d="
		M236.716,653.97l2.001-5.661c0.626-1.79,1.269-2.835,2.835-2.835h1.995c1.566,0,2.835,1.269,2.835,2.835v3.66"/>
	<path fill="none" stroke="#000000" stroke-width="2" stroke-linecap="round" stroke-linejoin="round" d="M371.265,708.395
		c8.59-0.692,26.879-2.343,21.07-15.356c-2.563-2.83-17.099-4.468-20.194-1.05c-0.691,0.764,0.325,10.711-4.076,9.906"/>
	<path fill="none" stroke="#000000" stroke-linecap="round" stroke-linejoin="round" stroke-miterlimit="10" d="
		M236.092,653.515c40.877-4.593,62.406-4.512,101.681-0.039c9.557,17.866,18.835,43.368,18.835,43.368s-51.976-0.166-69.302-0.221
		c-18.072-0.058-71.289-0.231-71.289-0.231S230.129,661.984,236.092,653.515z"/>
	<path fill="none" stroke="#000000" stroke-width="2" stroke-linecap="round" stroke-linejoin="round" d="M386.979,735.152
		c-0.171-1.299-1.352-7.133-1.631-7.753c-1.91-4.513-12.451-15.001-14.16-18.149c-1.018-2.508-2.037-5.016-3.055-7.524
		c0,0-0.083-0.214-0.242-0.615c-1.269-3.202-7.374-18.294-14.409-30.486c-4.454-7.719-9.28-14.275-13.489-15.917
		c-0.483-0.189-0.958-0.312-1.424-0.365c0,0-22.384-4.253-52.504-3.859c-30.12-0.394-52.504,3.859-52.504,3.859
		c-0.465,0.053-0.941,0.177-1.424,0.365c-4.209,1.642-9.035,8.198-13.489,15.917c-7.035,12.192-13.14,27.284-14.409,30.486
		c-0.159,0.4-0.242,0.615-0.242,0.615c-1.018,2.508-2.037,5.016-3.055,7.524c-1.709,3.148-12.25,13.636-14.16,18.149
		c-0.279,0.62-1.461,6.454-1.631,7.753c-1.173,9.46,1.961,52.369,2.187,55.147c0.107,1.313,0.203,2.475,0.277,3.356
		c0.09,1.074,0.146,1.729,0.146,1.729c0.098,0.871,0.47,2.088,1.256,3.217c0.948,1.36,2.499,2.592,4.902,2.932
		c3.37,0.311,75.699,1.036,75.699,1.036c5.425,0.007,10.849,0.014,16.273,0.021l0,0c0.059,0,0.117,0,0.176,0s0.117,0,0.176,0l0,0
		c5.424-0.007,10.848-0.014,16.273-0.021c0,0,73.329-0.726,76.699-1.036c2.402-0.339,3.953-1.571,4.901-2.932
		c0.786-1.129,1.158-2.346,1.256-3.217c0,0,0.056-0.655,0.146-1.729c0.073-0.881,0.17-2.043,0.277-3.356
		C386.019,787.521,388.152,744.612,386.979,735.152z"/>
	<path fill="none" stroke="#000000" stroke-width="2" stroke-linecap="round" stroke-linejoin="round" d="M200.835,708.395
		c-8.59-0.691-26.879-2.343-21.07-15.356c2.563-2.83,17.099-4.468,20.194-1.05c0.691,0.764-0.325,10.711,4.076,9.906"/>
	<path fill="none" stroke="#000000" stroke-width="0.5" stroke-linecap="round" stroke-linejoin="round" d="M201.677,706.278
		c-6.632-0.492-24.061-2.449-19.576-11.708c1.978-2.014,13.201-3.179,15.591-0.747c0.534,0.543-0.445,9.594,5.389,10.647"/>
	<path fill="none" stroke="#000000" stroke-width="1.5" stroke-linecap="round" stroke-linejoin="round" stroke-miterlimit="10" d="
		M380.909,801.698l-1.118,29.449c0,1.854-1.503,3.356-3.356,3.356H355.72c-1.854,0-3.356-1.503-3.356-3.356l-1.118-28.962"/>
	<path fill="none" stroke="#000000" stroke-width="1.5" stroke-linecap="round" stroke-linejoin="round" stroke-miterlimit="10" d="
		M192.107,801.698l0.117,29.449c0,1.854,1.503,3.356,3.356,3.356h20.715c1.854,0,3.356-1.503,3.356-3.356l1.118-28.962"/>
	<path fill="none" stroke="#000000" stroke-linecap="round" stroke-linejoin="round" stroke-miterlimit="10" d="M185.719,759.764
		c0,0,96.453-4.553,200.25,0"/>
	<path fill="none" stroke="#000000" stroke-linecap="round" stroke-linejoin="round" stroke-miterlimit="10" d="M189.719,799.267
		c0,0,8.115-9.382,11.769-9.55c32.009-1.468,72.509-3.467,170.264,0.102c3.56,0.13,8.744,5.68,12.715,9.448"/>
	<path fill="none" stroke="#000000" stroke-linecap="round" stroke-linejoin="round" stroke-miterlimit="10" d="M185.719,755.761
		c0,0,96.453-4.553,200.25,0"/>
	<path fill="none" stroke="#000000" stroke-linecap="round" stroke-linejoin="round" stroke-miterlimit="10" d="M185.719,751.759
		c0,0,96.453-4.553,200.25,0"/>
	<path fill="none" stroke="#000000" stroke-linecap="round" stroke-linejoin="round" stroke-miterlimit="10" d="M200.219,710.455
		c0,0,82.123-4.047,170.5,0"/>
	<path fill="none" stroke="#000000" stroke-width="2" stroke-linecap="round" stroke-linejoin="round" stroke-miterlimit="10" d="
		M335.381,653.97l-2.001-5.661c-0.494-1.499-1.269-2.835-2.835-2.835h-1.995c-1.566,0-2.835,1.269-2.835,2.835v3.66"/>
	<g>
		<path fill="none" stroke="#000000" stroke-linecap="round" stroke-linejoin="round" stroke-miterlimit="10" d="M222.048,709.503
			l9.223,37.431c0.373,1.514,1.954,2.752,3.513,2.752h101.975c1.559,0,3.14-1.239,3.513-2.752l9.223-37.431"/>
	</g>
	<path fill="none" stroke="#000000" stroke-linecap="round" stroke-linejoin="round" stroke-miterlimit="10" d="M228.931,739.918
		c0,0-11.171,0.606-20.403,0.142c-7.955-3.81-8.456-23.17-8.456-23.17s9.242,0.12,14.557,0.189c5.41,0.07,6.76,2.504,7.786,3.896
		C225.88,725.674,227.889,731.716,228.931,739.918z"/>
	<path fill="none" stroke="#000000" stroke-linecap="round" stroke-linejoin="round" stroke-miterlimit="10" d="M208.521,740.187
		c-11.375-0.147-18.274-1.349-20.151-6.796c-1.251-3.63,0.489-10.155,3.252-13.263c2.525-2.841,9.258-3.24,9.258-3.24"/>
	<path fill="none" stroke="#000000" stroke-linecap="round" stroke-linejoin="round" stroke-miterlimit="10" d="M342.954,739.416
		c0,0,11.171,0.606,20.403,0.142c7.955-3.81,8.456-23.17,8.456-23.17s-9.242,0.12-14.557,0.189c-5.41,0.07-6.76,2.504-7.786,3.896
		C346.005,725.173,343.996,731.215,342.954,739.416z"/>
	<path fill="none" stroke="#000000" stroke-linecap="round" stroke-linejoin="round" stroke-miterlimit="10" d="M363.364,739.685
		c11.375-0.147,18.274-1.349,20.151-6.796c1.251-3.63-0.489-10.155-3.252-13.263c-2.525-2.841-9.258-3.24-9.258-3.24"/>
	<path fill="none" stroke="#000000" stroke-linecap="round" stroke-linejoin="round" stroke-miterlimit="10" d="M242.109,802.333
		v-33.415c0-2.348,1.904-4.252,4.252-4.252h79.496c2.348,0,4.252,1.904,4.252,4.252v33.415"/>
	<path fill="none" stroke="#000000" stroke-width="0.5" stroke-linecap="round" stroke-linejoin="round" stroke-miterlimit="10" d="
		M245.484,803.333v-32.12c0-1.756,1.423-3.179,3.179-3.179h74.891c1.756,0,3.179,1.423,3.179,3.179v31.092"/>

		<ellipse fill="none" stroke="#000000" stroke-linecap="round" stroke-linejoin="round" stroke-miterlimit="10" cx="286.998" cy="738" rx="11" ry="4.667"/>
	<path fill="none" stroke="#000000" stroke-linecap="round" stroke-linejoin="round" stroke-miterlimit="10" d="M241.496,785.997
		h-27.383c-4.697,0-8.504-3.807-8.504-8.504v-5.495h35.887"/>
	<path fill="none" stroke="#000000" stroke-linecap="round" stroke-linejoin="round" stroke-miterlimit="10" d="M330.497,771.999
		h36.112v5.495c0,4.697-3.807,8.504-8.504,8.504h-27.107"/>

		<line fill="none" stroke="#000000" stroke-linecap="round" stroke-linejoin="round" stroke-miterlimit="10" x1="232.664" y1="772.668" x2="232.664" y2="785.667"/>

		<line fill="none" stroke="#000000" stroke-linecap="round" stroke-linejoin="round" stroke-miterlimit="10" x1="216.654" y1="772.668" x2="216.654" y2="785.667"/>

		<line fill="none" stroke="#000000" stroke-linecap="round" stroke-linejoin="round" stroke-miterlimit="10" x1="356.662" y1="772.167" x2="356.662" y2="786.167"/>

		<line fill="none" stroke="#000000" stroke-linecap="round" stroke-linejoin="round" stroke-miterlimit="10" x1="340.652" y1="772.167" x2="340.652" y2="786.167"/>
	<path fill="none" stroke="#000000" stroke-width="0.5" stroke-linecap="round" stroke-linejoin="round" d="M370.503,706.278
		c6.632-0.492,24.061-2.449,19.576-11.708c-1.978-2.014-13.201-3.179-15.591-0.747c-0.534,0.543,0.445,9.594-5.389,10.647"/>

		<line fill="none" stroke="#000000" stroke-width="2" stroke-linecap="round" stroke-linejoin="round" stroke-miterlimit="10" x1="46.929" y1="220.945" x2="46.929" y2="230.195"/>
	<path fill="none" stroke="#000000" stroke-linecap="round" stroke-linejoin="round" stroke-miterlimit="10" d="M366.984,66.008
		c-23.14,7.293-39.82,28.292-39.82,28.292"/>
	<path fill="none" stroke="#000000" stroke-width="1.5" stroke-linecap="round" stroke-linejoin="round" stroke-miterlimit="10" d="
		M353.887,26.195"/>
	<path fill="none" stroke="#000000" stroke-width="1.5" stroke-linecap="round" stroke-linejoin="round" stroke-miterlimit="10" d="
		M235.637,25.445"/>
	<path fill="none" stroke="#000000" stroke-width="1.5" stroke-linecap="round" stroke-linejoin="round" stroke-miterlimit="10" d="
		M228.637,372.945c0,0,61.25-14,133.25,0.5"/>
	<polyline fill="none" stroke="#000000" stroke-miterlimit="10" points="220.887,322.445 214.47,327.448 204.637,329.449 	"/>
	<polyline fill="none" stroke="#000000" stroke-miterlimit="10" points="366.887,322.195 373.304,327.198 383.137,329.199 	"/>
	<path fill="none" stroke="#000000" stroke-width="1.5" stroke-linecap="round" stroke-linejoin="round" stroke-miterlimit="10" d="
		M343.595,211.245c0,0,21.103,48.87,23.915,111.604"/>
	<path fill="none" stroke="#000000" stroke-width="1.5" stroke-linecap="round" stroke-linejoin="round" stroke-miterlimit="10" d="
		M244.83,211.1c0,0-20.506,49.447-23.385,112.177"/>

		<line fill="none" stroke="#000000" stroke-linecap="round" stroke-linejoin="round" stroke-miterlimit="10" x1="229.887" y1="436.197" x2="206.137" y2="432.447"/>

		<line fill="none" stroke="#000000" stroke-linecap="round" stroke-linejoin="round" stroke-miterlimit="10" x1="230.387" y1="496.441" x2="207.637" y2="501.191"/>
	<path fill="none" stroke="#000000" stroke-width="1.5" stroke-linecap="round" stroke-linejoin="round" stroke-miterlimit="10" d="
		M225.956,502.647c0,0,0.802,41.331-0.377,46.612c-1.692,7.573-8.876,13.235-8.876,13.235l-0.813-56.03L225.956,502.647z"/>
	<path fill="none" stroke="#000000" stroke-width="1.5" stroke-miterlimit="10" d="M226.167,441.147l-11.006-2.001v51.056
		c0,0-0.532,4.62,2.586,3.803c1.999-0.523,5.258-1.372,8.42-2.395V441.147z"/>
	<path fill="none" stroke="#000000" stroke-width="1.5" stroke-linecap="round" stroke-linejoin="round" stroke-miterlimit="10" d="
		M213.449,357.444c0.046,7.921,0.08,14.591,0.08,14.591l1.411,54.469l11.08,2.779c0,0-0.255-9.849-0.632-24.397
		c-0.285-10.993-2.686-58.816-4.778-67.073c-0.71-2.803-7.472-9.909-7.366-5.815c0.032,1.254,0.072,6.498,0.111,11.781"/>
	<g>
		<path fill="none" stroke="#000000" stroke-width="1.5" stroke-miterlimit="10" d="M192.354,361.8
			c-0.252,0-0.487-0.284-0.599-0.741c-0.565-2.306-0.421-5.004,0.431-8.017c0.055-0.196,0.134-0.358,0.23-0.477
			c5.913-7.253,18.472-11.12,21.597-7.87c3.5,2.5,2.676,8.699,1.525,11.533c-0.111,0.27-0.271,0.446-0.446,0.483
			c-3.245,0.707-17.616,3.778-22.651,5.078C192.411,361.797,192.384,361.8,192.354,361.8z"/>
	</g>
	<path fill="none" stroke="#000000" stroke-width="1.5" stroke-miterlimit="10" d="M123.951,336.069
		c-0.805,4.401,4.549,2.425,8.061,4.751c3.845,2.546,3.58,13.062,0.75,15.625c-17.625,6-15.125-13.75-15.311-22.179
		c0,0,1.373-0.946,4.186-0.571C124.45,334.07,123.951,336.069,123.951,336.069z"/>

		<line fill="none" stroke="#000000" stroke-linecap="round" stroke-linejoin="round" stroke-miterlimit="10" x1="359.748" y1="436.197" x2="383.498" y2="432.447"/>

		<line fill="none" stroke="#000000" stroke-linecap="round" stroke-linejoin="round" stroke-miterlimit="10" x1="359.248" y1="496.441" x2="381.998" y2="501.191"/>
	<path fill="none" stroke="#000000" stroke-width="1.5" stroke-linecap="round" stroke-linejoin="round" stroke-miterlimit="10" d="
		M373.746,506.464l-0.813,56.031c0,0-7.185-5.662-8.876-13.235c-1.18-5.281-0.377-46.612-0.377-46.612L373.746,506.464z"/>
	<path fill="none" stroke="#000000" stroke-width="1.5" stroke-miterlimit="10" d="M363.468,491.609
		c3.162,1.023,6.42,1.872,8.42,2.395c3.119,0.816,2.586-3.803,2.586-3.803v-51.056l-11.006,2.001V491.609z"/>
	<path fill="none" stroke="#000000" stroke-width="1.5" stroke-linecap="round" stroke-linejoin="round" stroke-miterlimit="10" d="
		M376.282,343.778c0.039-5.283,0.078-10.526,0.111-11.781c0.106-4.094-6.656,3.011-7.366,5.815
		c-2.092,8.258-4.494,56.081-4.778,67.073c-0.377,14.549-0.632,24.397-0.632,24.397l11.08-2.779l1.411-54.469
		c0,0,0.033-6.67,0.08-14.591"/>
	<g>
		<path fill="none" stroke="#000000" stroke-width="1.5" stroke-miterlimit="10" d="M397.195,361.789
			c-5.035-1.301-19.406-4.371-22.651-5.078c-0.176-0.037-0.336-0.213-0.446-0.483c-1.151-2.834-1.975-9.033,1.525-11.533
			c3.125-3.25,15.684,0.617,21.597,7.87c0.096,0.119,0.176,0.281,0.23,0.477c0.851,3.013,0.995,5.711,0.431,8.017
			c-0.112,0.457-0.347,0.741-0.599,0.741C397.252,361.8,397.224,361.797,397.195,361.789z"/>
	</g>
	<g>
		<path fill="none" stroke="#000000" stroke-width="2" stroke-linecap="round" stroke-linejoin="round" stroke-miterlimit="10" d="
			M516.791,201.115c0,0-3.42,23.218,10.65,23.293c6.473,0.03,11.152,0.045,14.342,0.06c3.329-0.136,5.396,0.015,5.396,0.015v-13.872
			c0,0-7.596-4.559-7.596-8.555c0-3.98-4.605-5.697-4.605-5.697s-9.83,0-14.208,0C516.411,196.359,516.791,201.115,516.791,201.115z
			"/>

			<path fill="none" stroke="#000000" stroke-width="0.94" stroke-linecap="round" stroke-linejoin="round" stroke-miterlimit="10" d="
			M541.784,224.469c3.738,0.015,5.396,0.015,5.396,0.015S545.112,224.333,541.784,224.469z"/>

			<path fill="none" stroke="#000000" stroke-width="1.5" stroke-linecap="round" stroke-linejoin="round" stroke-miterlimit="10" d="
			M472.344,523.031v68.635c0,0-27.434-11.431-33.893-20.388c-4.504-6.246-4.544-58.68-4.544-58.68L472.344,523.031z M433.1,436.31
			l42.026-0.001v61.569c0,0-1.018,6.488-9.876,4.498c-8.858-2.006-32.15-7.567-32.15-7.567V436.31L433.1,436.31z M546.291,224.469
			c-3.19-0.015-12.377-0.03-18.849-0.06c-14.07-0.076-10.651-23.294-10.651-23.294c-3.481-0.076-6.641,0.213-9.498,0.823
			c0,0,0.684,5.227,0.364,12.566c-0.076,1.579-0.183,3.266-0.364,5.029c-1.018,9.876-3.798,8.615-5.819,10.894
			c-2.037,2.264-15.18,1.763-15.18,1.763v-15.909c-0.82,1.139-1.58,2.309-2.294,3.509c-6.078,10.121-13.371,92.429-13.751,94.525
			c-0.38,2.082-2.279,11.578-5.5,14.997c-0.107,0.106-0.229,0.244-0.35,0.411c-0.501,0.592-1.23,1.58-2.158,2.841
			c-7.339,10.089-26.407,38.776-29.78,44.991c-3.92,7.217-4.178,15.955-4.178,15.955s-0.017,13.903-0.032,34.004
			c-0.015,44.261-0.046,118.594,0,140.731c0,3.374,0.016,5.531,0.032,6.2c0.121,6.974,3.297,9.496,3.297,9.496
			c7.598,7.354,32.668,20.512,42.026,25.071c2.13,1.032,4.181,1.793,6.079,2.34v-10.181c0-4.193,3.312-7.597,7.399-7.597h11.853
			c4.086,0,7.397,3.404,7.397,7.597v9.041c0.244-0.669,0.519-0.607,0.67,1.975c-0.167-4.574-0.67-17.353-0.67-17.353H550.3
			l0.651-30.056 M553.423,493.642v-26.865V304.6"/>
		<path fill="none" stroke="#000000" stroke-width="2" stroke-linecap="round" stroke-linejoin="round" stroke-miterlimit="10" d="
			M479.685,601.17v10.181c6.55,1.913,11.395,1.458,11.395,1.458h14.695c0,0,0.272-1.807,0.559-2.598v-9.041
			c0-4.193-3.31-7.597-7.397-7.597h-11.853C482.997,593.573,479.685,596.977,479.685,601.17z"/>
		<path fill="none" stroke="#000000" stroke-width="2" stroke-linecap="round" stroke-linejoin="round" stroke-miterlimit="10" d="
			M507.003,612.187c0.015,0.334,0.015,0.637,0.03,0.881c0.26,7.096,11.656,6.336,11.656,6.336c3.297,3.54,13.12,2.279,18.178,2.279
			c5.061,0,13.433-15.453,13.433-15.453v-11.396h-43.965C506.335,594.834,506.837,607.613,507.003,612.187z"/>

			<path fill="none" stroke="#000000" stroke-width="0.94" stroke-linecap="round" stroke-linejoin="round" stroke-miterlimit="10" d="
			M424.092,441.628c0,0,0,103.323,0,111.923s4.255,14.692,4.255,14.692c-0.026-22.137-0.008-96.47,0-140.731
			C425.031,429.214,424.092,441.628,424.092,441.628z"/>

			<path fill="none" stroke="#000000" stroke-width="1.5" stroke-linecap="round" stroke-linejoin="round" stroke-miterlimit="10" d="
			M459.347,350.552c-11.011,12.22-26.247,32.865-26.247,45.494c0,17.216,0,28.87,0,28.87l43.045-3.799v-64.455c0,0,0-4.579,0-6.76"
			/>

			<rect x="485.26" y="487.583" fill="none" stroke="#000000" stroke-width="0.94" stroke-linecap="round" stroke-linejoin="round" stroke-miterlimit="10" width="2.28" height="22.493"/>

			<rect x="485.26" y="395.403" fill="none" stroke="#000000" stroke-width="0.94" stroke-linecap="round" stroke-linejoin="round" stroke-miterlimit="10" width="2.28" height="22.493"/>

			<path fill="none" stroke="#000000" stroke-width="0.94" stroke-linecap="round" stroke-linejoin="round" stroke-miterlimit="10" d="
			M486.294,216.28v7.05c0,0,17.93-2.188,21.364-8.828c0.32-7.339-0.364-12.566-0.364-12.566
			C497.462,203.987,490.989,209.624,486.294,216.28z"/>

			<path fill="none" stroke="#000000" stroke-width="0.94" stroke-linecap="round" stroke-linejoin="round" stroke-miterlimit="10" d="
			M486.295,223.33v8.858c0,0,13.143,0.502,15.18-1.763c2.02-2.279,4.8-1.018,5.819-10.894c0.181-1.763,0.288-3.45,0.364-5.029
			C504.224,221.141,486.294,223.33,486.295,223.33z"/>

			<path fill="none" stroke="#000000" stroke-width="1.88" stroke-linecap="round" stroke-linejoin="round" stroke-miterlimit="10" d="
			M545.388,233.156c19.762,0,35.788,16.026,35.788,35.789c0,19.762-16.025,35.788-35.788,35.788
			c-19.762,0-35.789-16.026-35.789-35.788C509.599,249.182,525.626,233.156,545.388,233.156L545.388,233.156z M545.388,245.814
			c12.773,0,23.131,10.358,23.132,23.131c0,12.772-10.359,23.13-23.132,23.13c-12.772,0-23.131-10.358-23.131-23.13
			C522.257,256.172,532.616,245.814,545.388,245.814L545.388,245.814z"/>

			<path fill="none" stroke="#000000" stroke-width="1.88" stroke-linecap="round" stroke-linejoin="round" stroke-miterlimit="10" d="
			M545.388,492.801c19.762,0,35.788,16.026,35.788,35.789c0,19.762-16.025,35.788-35.788,35.788
			c-19.762,0-35.789-16.026-35.789-35.788C509.599,508.827,525.626,492.801,545.388,492.801L545.388,492.801z M545.388,505.459
			c12.773,0,23.131,10.358,23.132,23.131c0,12.772-10.359,23.13-23.132,23.13c-12.772,0-23.131-10.358-23.131-23.13
			C522.257,515.817,532.616,505.459,545.388,505.459L545.388,505.459z"/>

			<path fill="none" stroke="#000000" stroke-width="0.94" stroke-linecap="round" stroke-linejoin="round" stroke-miterlimit="10" d="
			M462.242,332.562c0,0,13.108-6.473,25.953-6.473s57.252,0,57.252,0v159.505"/>

			<polyline fill="none" stroke="#000000" stroke-width="0.94" stroke-linecap="round" stroke-linejoin="round" stroke-miterlimit="10" points="
			544.681,428.332 477.797,428.332 429.171,431.39 		"/>

			<path fill="none" stroke="#000000" stroke-width="0.94" stroke-linecap="round" stroke-linejoin="round" stroke-miterlimit="10" d="
			M502.203,517.403c0,0-17.678,1.147-26.547-2.217c-8.869-3.364-47.427-11.653-47.427-11.653"/>

			<line fill="none" stroke="#000000" stroke-width="0.47" stroke-linecap="round" stroke-linejoin="round" stroke-miterlimit="10" x1="529.174" y1="325.88" x2="529.174" y2="485.854"/>

			<line fill="none" stroke="#000000" stroke-width="0.4741" stroke-linecap="round" stroke-linejoin="round" stroke-miterlimit="10" x1="526.42" y1="325.88" x2="526.42" y2="488.606"/>

			<line fill="none" stroke="#000000" stroke-width="0.3429" stroke-linecap="round" stroke-linejoin="round" stroke-miterlimit="10" x1="486.512" y1="510.751" x2="486.512" y2="593.786"/>

			<line fill="none" stroke="#000000" stroke-width="0.3111" stroke-linecap="round" stroke-linejoin="round" stroke-miterlimit="10" x1="486.512" y1="418.946" x2="486.512" y2="487.301"/>

			<line fill="none" stroke="#000000" stroke-width="0.3111" stroke-linecap="round" stroke-linejoin="round" stroke-miterlimit="10" x1="486.512" y1="327.141" x2="486.512" y2="395.496"/>
	</g>

		<line fill="none" stroke="#000000" stroke-width="2" stroke-linecap="round" stroke-linejoin="round" stroke-miterlimit="10" x1="547.159" y1="232.528" x2="547.159" y2="223.278"/>
	<path fill="none" stroke="#000000" stroke-width="1.5" stroke-miterlimit="10" d="M472.451,336.028
		c2.813-0.375,4.186,0.571,4.186,0.571c-0.186,8.429,2.314,28.179-15.311,22.179c-2.83-2.563-3.095-13.079,0.75-15.625
		c3.512-2.326,8.866-0.35,8.061-4.751C470.137,338.402,469.638,336.403,472.451,336.028z"/>
	<path d="M500.84,268.904c0,23.955,19.42,43.375,43.375,43.375c3.343,0,6.592-0.391,9.718-1.107c0.473-2.54-0.313-5.081-0.804-7.621
		c-2.494,0.55-5.082,0.849-7.741,0.849c-19.762,0-35.789-16.026-35.789-35.788c0-19.763,16.027-35.789,35.789-35.789
		c0.796,0,1.582,0.035,2.365,0.086c-0.477-2.43-1.211-4.859-0.833-7.289c-0.895-0.055-1.795-0.092-2.704-0.092
		C520.261,225.528,500.84,244.949,500.84,268.904z"/>
	<path d="M498.948,528.276c0,25.405,20.595,46,46,46c2.339,0,4.008-0.037,6.253-0.374c-0.068-3.007,0.115-6.208-0.114-9.124
		c-1.619,0.224-3.269,0.349-4.949,0.349c-19.762,0-35.789-16.026-35.789-35.788c0-19.763,16.027-35.789,35.789-35.789
		c2.208,0,4.366,0.211,6.463,0.594c0.468-3.786,0.923-7.636,0.379-11.154c-2.61-0.46-5.291-0.713-8.032-0.713
		C519.543,482.277,498.948,502.872,498.948,528.276z"/>
	<path fill="none" d="M366.22,710.289c-0.455,0.902-0.521,1.267-0.678,1.803c-1.894,5.891-1.878,7.975-1.878,7.975
		s1.298-4.627,1.973-7.005C365.758,712.477,366.172,711.59,366.22,710.289z"/>
	<path d="M49.872,223.195c-0.909,0-1.809,0.037-2.704,0.092c0.378,2.43-0.356,4.859-0.833,7.289
		c0.783-0.051,1.569-0.086,2.365-0.086c19.762,0,35.789,16.026,35.789,35.789c0,19.762-16.027,35.788-35.789,35.788
		c-2.659,0-5.247-0.299-7.741-0.849c-0.491,2.54-1.277,5.081-0.804,7.621c3.126,0.716,6.375,1.107,9.718,1.107
		c23.955,0,43.375-19.42,43.375-43.375S73.827,223.195,49.872,223.195z"/>
	<path d="M49.14,479.944c-2.741,0-5.422,0.253-8.032,0.713c-0.544,3.518-0.089,7.368,0.379,11.154
		c2.097-0.383,4.255-0.594,6.463-0.594c19.762,0,35.789,16.026,35.789,35.789c0,19.762-16.027,35.788-35.789,35.788
		c-1.68,0-3.33-0.125-4.949-0.349c-0.229,2.916-0.046,6.117-0.114,9.124c2.245,0.337,3.914,0.374,6.253,0.374
		c25.405,0,46-20.595,46-46C95.14,500.539,74.545,479.944,49.14,479.944z"/>
	<path fill="none" d="M376.402,62.219c0.056,0.043,0.122,0.081,0.193,0.119C376.472,62.242,376.402,62.219,376.402,62.219z"/>
	<path fill="none" d="M242.963,74.019c1.899,2.393,3.798,4.787,5.696,7.18c0,0,35.157-1.956,46.887-1.951
		c11.498,0.004,45.957,1.951,45.957,1.951c1.921-2.408,3.841-4.816,5.761-7.225c15.959,0.262,24.659-7.26,25.788-8.279
		c0.083-0.074,0.124-0.036,0.124-0.036s-54.845-3.377-77.445-2.634c-0.035,0-0.069,0-0.103,0c-27.829,0-78.815,2.523-78.815,2.523
		s0.034,0.001,0.103,0.075C217.866,66.64,225.482,74.102,242.963,74.019z"/>
	<path fill="none" d="M343.418,141.032l0.6,0.856c-0.233-0.393-0.404-0.856-0.502-0.856H343.418z"/>
	<path fill="#1A1A1A" d="M202.468,78.921c0.001-0.001,0.005-0.001,0.007-0.002C202.462,78.918,202.457,78.919,202.468,78.921z"/>
	<path fill="#676767" d="M384.561,85.208c0,0-0.471,0.129-0.925,0.22c-0.566,0.164-1.138,0.317-1.78,0.475
		c-2.867,0.707-6.385,1.353-9.76,1.936c-0.051,0.009-0.147,0.02-0.197,0.028c-0.007,0.001-0.112-0.067-0.09-0.064l0.038,0.371
		c0.007-0.004,0.055-0.009,0.061-0.01c0.068-0.012,0.16-0.027,0.228-0.039c3.565-0.631,6.809-1.266,9.802-2.074
		c0.671-0.182,1.117-0.273,1.765-0.482c0.763-0.251,1.216-0.394,1.837-0.474C385.539,85.096,385.028,85.17,384.561,85.208z"/>
	<path fill="none" d="M367.919,701.228c0.056,0.043,0.122,0.081,0.193,0.119C367.989,701.252,367.919,701.228,367.919,701.228z"/>
	<path fill="none" d="M285.809,780.042l0.6,0.856c-0.233-0.393-0.404-0.856-0.502-0.856H285.809z"/>
	<path fill="none" d="M367.115,709.856c-0.067,1.001-0.207,1.687-0.378,2.218c-2.045,5.829-2.499,7.85-2.499,7.85
		s1.901-4.503,2.636-6.86C367.011,712.481,367.571,711.103,367.115,709.856z"/>
	<path fill="#1A1A1A" d="M193.985,717.93c0.001-0.001,0.005-0.001,0.007-0.002C193.98,717.928,193.974,717.929,193.985,717.93z"/>
	<path fill="none" d="M366.692,708.546c1.16,1.541,3.237,3.435,3.668,3.848c3.267,2.761,6.204-1.312,6.267-1.312
		c0,0-4.053,3.491-5.874,2.042C370.312,712.773,367.446,709.931,366.692,708.546z"/>

		<line fill="none" stroke="#000000" stroke-width="1.5" stroke-miterlimit="10" x1="223.973" y1="593.112" x2="218.307" y2="608.445"/>

		<line fill="none" stroke="#000000" stroke-width="1.5" stroke-miterlimit="10" x1="364.859" y1="593.185" x2="370.525" y2="608.518"/>

		<line fill="none" stroke="#000000" stroke-linecap="round" stroke-linejoin="round" stroke-miterlimit="10" x1="216.017" y1="696.391" x2="210.307" y2="709.778"/>

		<line fill="none" stroke="#000000" stroke-linecap="round" stroke-linejoin="round" stroke-miterlimit="10" x1="356.515" y1="696.766" x2="362.224" y2="710.153"/>

		<line fill="none" stroke="#000000" stroke-linecap="round" stroke-linejoin="round" stroke-miterlimit="10" x1="217.916" y1="65.623" x2="210.89" y2="66.028"/>

		<line fill="none" stroke="#000000" stroke-linecap="round" stroke-linejoin="round" stroke-miterlimit="10" x1="377.832" y1="66.362" x2="370.807" y2="65.956"/>
</g>
</svg>
