<?xml version="1.0" encoding="utf-8"?>
<!-- Generator: Adobe Illustrator 17.0.0, SVG Export Plug-In . SVG Version: 6.00 Build 0)  -->
<!DOCTYPE svg PUBLIC "-//W3C//DTD SVG 1.1//EN" "http://www.w3.org/Graphics/SVG/1.1/DTD/svg11.dtd">
<svg version="1.1" id="Layer_1" xmlns="http://www.w3.org/2000/svg"  x="0px" y="0px"
	 width="427.542px" height="158.494px" viewBox="71.878 82.739 427.542 158.494"
	 enable-background="new 71.878 82.739 427.542 158.494" xml:space="preserve">
<g id="back-left">
	<path fill="#FFFFFF" d="M391.112,134.679c1.962,5.17,2.373,13.412,2.373,19.415c0,3.147-0.115,5.625-0.165,6.54
		c-2.75,0.588-19.129,4.777-28.466,22.534c-3.615,6.875-5.449,13.389-5.449,19.36c0,7.014,2.543,10.676,2.65,10.829l0.15,0.21h7.383
		c1.029,3.362,9.594,28.105,38.059,27.167c28.36-0.935,33.492-25.914,34.083-29.513l41.035-1.305l0.133-0.004l0.113-0.069
		c0.087-0.054,8.771-5.387,12.571-8.03c3.471-2.415,3.479-3.661,3.512-7.789c0.005-0.713,0.011-1.52,0.036-2.441
		c0.035-1.308,0.067-2.588,0.067-3.812c0-4.161-0.339-8.258-2.736-10.185c0.066-0.487,0.181-1.513,0.181-2.764
		c0-2.69-0.534-6.234-3.077-7.842c-2.132-1.349-3.194-1.873-3.764-2.049c0.011-1.316,0.038-5.177,0.038-9.216
		c0-0.001,0-0.001,0-0.002c0-6.631-0.072-10.463-0.215-11.387l-0.032-0.211c-0.362-2.413-1.464-9.755-11.53-26.965
		c-3.896-6.662-5.844-10.375-7.132-12.832c-2.139-4.078-2.468-4.704-6.764-9.419c-7.021-7.708-8.56-8.299-14.049-8.163
		c-5.298,0.131-69.541-0.157-70.189-0.16l-0.621-0.003l0.13,0.608C379.776,88.756,387.774,125.877,391.112,134.679z M390.022,93.524
		c19.534,0.059,53.027,1.056,57.733,4.449c7.952,5.735,18.078,28.692,19.924,32.987h-67.496L390.022,93.524z"/>
</g>
<g id="left">
	<path fill="#FF3947" d="M240.003,100.164c-6.142,4.467-24.448,17.442-35.25,23.758l0.452,0.89c0.886-0.387,1.597-0.726,2.132-0.995
		c-1.228,3.221-4.337,11.937-4.871,18.88c-0.277,3.605-0.418,16.364-0.418,37.921c0,14.437,0.066,28.184,0.081,30.951h-9.778
		l-0.081,1.498l0.525,0.002c1.312,0.005,131.574,0.484,169.668,0.5h0.958l-0.549-0.786c-0.101-0.145-2.467-3.616-2.467-10.251
		c0-5.808,1.795-12.165,5.334-18.895c9.926-18.875,27.958-22.062,28.139-22.092l0.393-0.065l0.025-0.396
		c0.002-0.029,0.189-2.968,0.189-6.983c0-6.088-0.423-14.46-2.438-19.773c-3.082-8.125-10.427-41.791-11.501-46.747
		c2.396,0.01,11.433,0.05,22.25,0.09l0.512,0.002l-0.016-0.821l-0.151-0.144c-0.168-0.16-0.213-0.203-62.094-0.326
		c-28.746-0.057-64.099-0.071-69.276,0.188C261.971,87.059,245.991,95.808,240.003,100.164z M313.204,92.883h57.605
		c0.731,3.069,5.632,23.629,7.473,31.759c0.244,1.085,0.368,2.102,0.368,3.024c0,5.458-4.275,6.219-4.378,6.242h-61.068
		L313.204,92.883L313.204,92.883z M230.31,134.928c1.636-0.562,3.093-1.344,4.217-2.454c1.583-1.564,2.387-3.647,2.387-6.19
		c0-1.755-0.385-3.774-1.143-6.002l-0.103-0.174c-1.345-1.485-4.283-2.169-7.069-2.276c11.54-10.159,31.542-24.948,43.841-24.948
		h28.324l-3.711,42.045L230.31,134.928L230.31,134.928z"/>
</g>
<g id="front-left">
	<path fill="#FFFFFF" d="M180.243,129.905c-22.287,2.388-61.758,6.82-75.714,9.674c-16.01,3.275-25.959,16.29-27.358,35.746
		c-0.751-0.08-2.086-0.059-3.219,0.813c-1.246,0.958-1.877,2.646-1.877,5.018c0,0.4,0.018,0.829,0.056,1.287
		c0.243,2.922,0.362,5.267,0.362,7.169c0,1.083-0.037,1.876-0.07,2.572c-0.026,0.558-0.049,1.054-0.049,1.586l0.003,0.334
		c0.019,1.016,0.615,2.112,1.679,3.088c1.381,1.268,3.253,2.093,4.551,2.006c1.674-0.112,6.561,3.256,8.053,7.271l0.122,0.327
		l22.554-0.102c0.401,4.165,4.407,34.161,36.128,34.098c27.777-0.054,34.725-24.743,35.564-28.225l22.105-0.001l-0.003-0.503
		c-0.001-0.151-0.083-15.352-0.083-31.415c0-21.249,0.143-34.346,0.415-37.876c0.653-8.487,5.25-19.736,5.297-19.848l0.578-1.405
		l-1.3,0.787C207.944,122.364,198.561,127.942,180.243,129.905z"/>
</g>
<g id="roof">
	<path fill="#FFFFFF" d="M303.919,87.069l-0.373,0.728l17.612-0.003c44.064-0.008,104.412-0.02,123.936,0.003l1.593,0.002
		l-1.306-0.912c-0.254-0.177-6.32-4.345-14.979-4.345l-111.961,0.001C317.143,82.642,305.697,83.604,303.919,87.069z"/>
</g>
<g id="side-glass">
	<path fill="#FFFFFF" d="M399.23,131.773h69.768l-0.288-0.692c-0.47-1.125-11.59-27.638-20.558-34.106
		c-6.304-4.546-56.825-4.637-58.973-4.638h-0.654l10.605,39.068L399.23,131.773z"/>
	<path fill="#FFFFFF" d="M374.162,134.716c0.054-0.008,5.3-0.905,5.3-7.236l0,0c0-0.996-0.131-2.086-0.392-3.244
		c-1.983-8.759-7.513-31.923-7.568-32.156l-0.092-0.384h-59.395v43.026L374.162,134.716z"/>
	<path fill="#FFFFFF" d="M225.564,118.846l1.364-0.041c3.303-0.098,6.39,0.672,7.577,1.88c0.699,2.081,1.054,3.957,1.054,5.575
		c0,0,0,0,0,0.001c0,4.681-2.978,7.457-9.104,8.485l0.083,0.993h71.244l3.887-44.045h-29.417
		c-12.169,0.001-32.209,14.135-45.673,26.238L225.564,118.846z"/>
</g>
<g id="linework">
	<g>
		<path fill="none" stroke="#000000" stroke-width="2" stroke-linecap="round" stroke-linejoin="round" stroke-miterlimit="10" d="
			M72.878,179.887c0,4.378,0,14.208,0,14.208s1.717,4.605,5.697,4.605c3.996,0,8.555,7.596,8.555,7.596h13.872
			c0,0-0.151-2.067-0.015-5.396c-0.015-3.19-0.03-7.869-0.06-14.342c-0.075-14.07-23.293-10.65-23.293-10.65
			S72.878,175.528,72.878,179.887z"/>

			<path fill="none" stroke="#000000" stroke-width="0.94" stroke-linecap="round" stroke-linejoin="round" stroke-miterlimit="10" d="
			M101.003,206.297c0,0,0-1.658-0.015-5.396C100.852,204.229,101.003,206.297,101.003,206.297z"/>

			<path fill="none" stroke="#000000" stroke-width="1.5" stroke-linecap="round" stroke-linejoin="round" stroke-miterlimit="10" d="
			M389.117,93.024c0,0,52.434,0.04,58.68,4.544c8.957,6.459,20.388,33.893,20.388,33.893H399.55L389.117,93.024z M312.829,92.217
			h58.499c0,0,5.561,23.292,7.567,32.15c1.99,8.858-4.498,9.876-4.498,9.876h-61.569L312.829,92.217L312.829,92.217z
			 M441.297,210.068l30.056-0.651v-43.966c0,0,12.779,0.503,17.353,0.67c-2.582-0.151-2.644-0.426-1.975-0.67h-9.041
			c-4.193,0-7.597-3.311-7.597-7.397v-11.853c0-4.087,3.404-7.399,7.597-7.399h10.181c-0.547-1.898-1.308-3.949-2.34-6.079
			c-4.559-9.358-17.717-34.428-25.071-42.026c0,0-2.522-3.176-9.496-3.297c-0.669-0.016-2.826-0.032-6.2-0.032
			c-22.137-0.046-96.47-0.015-140.731,0c-20.101,0.015-34.004,0.032-34.004,0.032s-8.738,0.258-15.955,4.178
			c-6.215,3.373-34.902,22.441-44.991,29.78c-1.261,0.928-2.249,1.657-2.841,2.158c-0.167,0.121-0.305,0.243-0.411,0.35
			c-3.419,3.221-12.915,5.12-14.997,5.5c-2.096,0.38-84.404,7.673-94.525,13.751c-1.2,0.714-2.37,1.474-3.509,2.294h15.909
			c0,0,0.501,13.143-1.763,15.18c-2.279,2.021-1.018,4.801-10.894,5.819c-1.763,0.181-3.45,0.288-5.029,0.364
			c-7.339,0.32-12.566-0.364-12.566-0.364c-0.61,2.857-0.899,6.017-0.823,9.498c0,0,23.218-3.419,23.294,10.651
			c0.03,6.472,0.045,15.659,0.06,18.849 M181.119,212.54h162.177h26.865"/>
		<path fill="none" stroke="#000000" stroke-width="2" stroke-linecap="round" stroke-linejoin="round" stroke-miterlimit="10" d="
			M470.092,146.201v11.853c0,4.087,3.404,7.397,7.597,7.397h9.041c0.791-0.287,2.598-0.559,2.598-0.559v-14.695
			c0,0,0.455-4.845-1.458-11.395h-10.181C473.496,138.802,470.092,142.114,470.092,146.201z"/>
		<path fill="none" stroke="#000000" stroke-width="2" stroke-linecap="round" stroke-linejoin="round" stroke-miterlimit="10" d="
			M471.353,165.452v43.965h11.396c0,0,15.453-8.372,15.453-13.433c0-5.058,1.261-14.881-2.279-18.178c0,0,0.76-11.396-6.336-11.656
			c-0.244-0.015-0.547-0.015-0.881-0.03C484.132,165.954,471.353,165.452,471.353,165.452z"/>

			<path fill="none" stroke="#000000" stroke-width="0.94" stroke-linecap="round" stroke-linejoin="round" stroke-miterlimit="10" d="
			M304.031,87.464c44.261-0.008,118.594-0.026,140.731,0c0,0-6.092-4.255-14.692-4.255c-8.6,0-111.923,0-111.923,0
			S305.733,84.148,304.031,87.464z"/>

			<path fill="none" stroke="#000000" stroke-width="1.5" stroke-linecap="round" stroke-linejoin="round" stroke-miterlimit="10" d="
			M226.421,135.262c2.181,0,6.76,0,6.76,0h64.455l3.799-43.045c0,0-11.654,0-28.87,0c-12.629,0-33.274,15.236-45.494,26.247"/>

			<rect x="364.102" y="144.377" fill="none" stroke="#000000" stroke-width="0.94" stroke-linecap="round" stroke-linejoin="round" stroke-miterlimit="10" width="22.493" height="2.28"/>

			<rect x="271.922" y="144.377" fill="none" stroke="#000000" stroke-width="0.94" stroke-linecap="round" stroke-linejoin="round" stroke-miterlimit="10" width="22.493" height="2.28"/>

			<path fill="none" stroke="#000000" stroke-width="0.94" stroke-linecap="round" stroke-linejoin="round" stroke-miterlimit="10" d="
			M78.455,166.411c0,0,5.227,0.684,12.566,0.364c6.64-3.434,8.828-21.364,8.828-21.364h-7.05
			C86.143,150.106,80.506,156.579,78.455,166.411z"/>

			<path fill="none" stroke="#000000" stroke-width="0.94" stroke-linecap="round" stroke-linejoin="round" stroke-miterlimit="10" d="
			M91.021,166.775c1.579-0.076,3.266-0.183,5.029-0.364c9.876-1.019,8.615-3.799,10.894-5.819c2.265-2.037,1.763-15.18,1.763-15.18
			h-8.858C99.849,145.411,97.66,163.341,91.021,166.775z"/>

			<path fill="none" stroke="#000000" stroke-width="1.88" stroke-linecap="round" stroke-linejoin="round" stroke-miterlimit="10" d="
			M109.675,204.505c0-19.762,16.026-35.789,35.789-35.789c19.762,0,35.788,16.027,35.788,35.789
			c0,19.763-16.026,35.788-35.788,35.788C125.701,240.293,109.675,224.267,109.675,204.505L109.675,204.505z M122.333,204.505
			c0-12.772,10.358-23.131,23.131-23.131c12.772,0,23.13,10.359,23.13,23.131c0,12.773-10.358,23.132-23.13,23.132
			C132.691,227.636,122.333,217.278,122.333,204.505L122.333,204.505z"/>

			<path fill="none" stroke="#000000" stroke-width="1.88" stroke-linecap="round" stroke-linejoin="round" stroke-miterlimit="10" d="
			M369.32,204.505c0-19.762,16.026-35.789,35.789-35.789c19.762,0,35.788,16.027,35.788,35.789
			c0,19.763-16.026,35.788-35.788,35.788C385.346,240.293,369.32,224.267,369.32,204.505L369.32,204.505z M381.978,204.505
			c0-12.772,10.358-23.131,23.131-23.131c12.772,0,23.13,10.359,23.13,23.131c0,12.773-10.358,23.132-23.13,23.132
			C392.336,227.636,381.978,217.278,381.978,204.505L381.978,204.505z"/>

			<path fill="none" stroke="#000000" stroke-width="0.94" stroke-linecap="round" stroke-linejoin="round" stroke-miterlimit="10" d="
			M362.113,204.564H202.608c0,0,0-44.407,0-57.252c0-12.845,6.473-25.953,6.473-25.953"/>

			<polyline fill="none" stroke="#000000" stroke-width="0.94" stroke-linecap="round" stroke-linejoin="round" stroke-miterlimit="10" points="
			307.909,88.288 304.851,136.914 304.851,203.798 		"/>

			<path fill="none" stroke="#000000" stroke-width="0.94" stroke-linecap="round" stroke-linejoin="round" stroke-miterlimit="10" d="
			M380.052,87.346c0,0,8.289,38.558,11.653,47.427s2.217,26.547,2.217,26.547"/>

			<line fill="none" stroke="#000000" stroke-width="0.47" stroke-linecap="round" stroke-linejoin="round" stroke-miterlimit="10" x1="362.373" y1="188.291" x2="202.399" y2="188.291"/>

			<line fill="none" stroke="#000000" stroke-width="0.4741" stroke-linecap="round" stroke-linejoin="round" stroke-miterlimit="10" x1="365.125" y1="185.537" x2="202.399" y2="185.537"/>

			<line fill="none" stroke="#000000" stroke-width="0.3429" stroke-linecap="round" stroke-linejoin="round" stroke-miterlimit="10" x1="470.305" y1="145.629" x2="387.27" y2="145.629"/>

			<line fill="none" stroke="#000000" stroke-width="0.3111" stroke-linecap="round" stroke-linejoin="round" stroke-miterlimit="10" x1="363.82" y1="145.629" x2="295.465" y2="145.629"/>

			<line fill="none" stroke="#000000" stroke-width="0.3111" stroke-linecap="round" stroke-linejoin="round" stroke-miterlimit="10" x1="272.015" y1="145.629" x2="203.66" y2="145.629"/>
	</g>

		<line fill="none" stroke="#000000" stroke-width="2" stroke-linecap="round" stroke-linejoin="round" stroke-miterlimit="10" x1="99.797" y1="206.276" x2="109.047" y2="206.276"/>
	<path fill="none" stroke="#000000" stroke-width="1.5" stroke-miterlimit="10" d="M214.921,129.254
		c4.401,0.805,2.425-4.549,4.751-8.061c2.546-3.845,13.062-3.58,15.625-0.75c6,17.625-13.75,15.125-22.179,15.311
		c0,0-0.946-1.373-0.571-4.186C212.922,128.755,214.921,129.254,214.921,129.254z"/>
	<path d="M102.047,203.333c0,0.909,0.037,1.809,0.092,2.704c2.43-0.378,4.859,0.356,7.289,0.833
		c-0.051-0.783-0.086-1.569-0.086-2.365c0-19.762,16.026-35.789,35.789-35.789c19.762,0,35.788,16.027,35.788,35.789
		c0,2.659-0.299,5.247-0.849,7.741c2.54,0.491,5.081,1.277,7.621,0.804c0.716-3.126,1.107-6.375,1.107-9.718
		c0-23.955-19.42-43.375-43.375-43.375S102.047,179.378,102.047,203.333z"/>
	<path d="M358.796,204.065c0,2.741,0.253,5.422,0.713,8.032c3.518,0.544,7.368,0.089,11.154-0.379
		c-0.383-2.097-0.594-4.255-0.594-6.463c0-19.762,16.026-35.789,35.789-35.789c19.762,0,35.788,16.027,35.788,35.789
		c0,1.68-0.125,3.33-0.349,4.949c2.916,0.229,6.117,0.046,9.124,0.114c0.337-2.245,0.374-3.914,0.374-6.253
		c0-25.405-20.595-46-46-46C379.391,158.065,358.796,178.66,358.796,204.065z"/>
</g>
</svg>
