<?xml version="1.0" encoding="utf-8"?>
<!-- Generator: Adobe Illustrator 17.0.0, SVG Export Plug-In . SVG Version: 6.00 Build 0)  -->
<!DOCTYPE svg PUBLIC "-//W3C//DTD SVG 1.1//EN" "http://www.w3.org/Graphics/SVG/1.1/DTD/svg11.dtd">
<svg version="1.1" id="Layer_1" xmlns="http://www.w3.org/2000/svg"  x="0px" y="0px"
	 width="216.807px" height="190.779px" viewBox="177.647 644.474 216.807 190.779"
	 enable-background="new 177.647 644.474 216.807 190.779" xml:space="preserve">
<g id="back">
	<path fill="#FFFFFF" d="M215.811,695.612l-0.339-0.002l-6.097,15.062l0.804-0.061c2.099-0.16,4.075-0.169,6.167-0.179
		c1.628-0.008,3.307-0.016,5.156-0.094l8.931,37.089l2.788,3.295l8.419,16.837l-0.506,35.636h89.507v-34.649l7.766-18.507
		l2.362-2.866l8.625-37.122c7.868,0.227,12.562,0.395,12.563,0.395l0.764,0.027l-5.488-13.858L215.811,695.612z"/>
</g>
<g id="back-windscreen">
	<path fill="#FFFFFF" d="M339.466,653.854l-0.119-0.25l-0.275-0.031c-22.58-2.571-38.151-3.62-53.746-3.62
		c-14.824,0-30.229,0.988-49.95,3.203l-0.242,0.027l-0.128,0.207c-5.416,8.766-19.641,42.468-19.784,42.807l-0.292,0.691
		l72.04,0.233c17.126,0.055,69.389,0.486,69.915,0.49l0.723,0.006l-0.249-0.679C357.269,696.694,348.249,672.225,339.466,653.854z"
		/>
</g>
<g id="back-left">
	<path fill="#FF3947" d="M242.897,767.759l-8.893-18.035l-1.908-2.264l-9.485-38.276l-11.477,0.322
		c1.353-3.394,7.207-18.048,9.399-22.983c3.708-8.348,15.232-32.412,15.348-32.654l0.402-0.84l-0.922,0.129
		c-0.29,0.04-7.166,1.091-12.891,9.847c-5.623,8.6-19.069,38.353-19.23,38.71l0.454,0.209l0,0l0,0l-2.804,6.169l-0.443-0.209
		l-0.143,0.291l0.009,0.005l-1.016,2.243c-0.945,1.095-12.073,14.078-13.713,20.313c-1.343,5.103-0.142,29.102,0.576,43.44
		c0.186,3.715,0.339,6.782,0.408,8.704c0.068,1.915-0.077,3.836-0.218,5.694c-0.423,5.597-0.824,10.888,5.268,13.084l0.106,29.489
		c0,2.126,1.73,3.855,3.856,3.855h20.715c2.126,0,3.856-1.729,3.855-3.838l0.986-28.187c11.312-0.06,21.087-0.363,21.186-0.366
		l0.486-0.016l-0.085-31.954L242.897,767.759z"/>
</g>
<g id="left">
	<path fill="#FFFFFF" d="M203.65,701.425c-0.475,0.043-0.871-0.078-1.212-0.369c-1.346-1.149-1.577-4.555-1.73-6.808
		c-0.109-1.605-0.165-2.27-0.459-2.596c-1.644-1.814-5.746-2.086-8.045-2.086h-0.001c-4.833,0-11.134,1.199-12.888,3.136
		l-0.086,0.132c-1.495,3.35-1.544,6.242-0.147,8.599c3.56,6.004,15.767,6.987,21.634,7.46l0.04-0.498l0,0l2.716-5.974
		c0.09,0,0.178,0.009,0.271,0.001L203.65,701.425z"/>
</g>
<g id="roof">
	<path fill="#FFFFFF" d="M330.546,644.974h-1.995c-1.839,0-3.335,1.496-3.335,3.336l0.007,4.011l0.5-0.001l9.094,1.554l0.093,0.264
		l0.943-0.334l-2.001-5.659C333.292,646.541,332.575,644.974,330.546,644.974z"/>
	<path fill="#FFFFFF" d="M243.547,644.64h-1.995c-2.029,0-2.746,1.566-3.306,3.168l-2.001,5.661l0.471,0.167l0,0l0,0l0.471,0.167
		l0.081-0.228l9.06-1.005l0.5,0.006l0.054-4.601C246.882,646.136,245.386,644.64,243.547,644.64z"/>
</g>
<g id="back-right">
	<path fill="#FFFFFF" d="M386.715,773.414c0.717-14.335,1.917-38.327,0.575-43.429c-1.637-6.219-13.898-18.959-15.056-20.15
		l-0.751-1.876l-0.464,0.186l-2.592-6.463l0.453-0.212c-1.44-3.08-14.23-30.333-19.655-38.631
		c-5.731-8.766-10.66-9.369-10.867-9.391l-0.875-0.091l0.369,0.798c0.093,0.199,9.272,20.03,11.991,26.647
		c2.649,6.446,9.875,24.784,11.386,28.619l-12.626-0.396l-8.758,37.691l-2.259,2.742l-7.908,18.792l-0.039,33.683l0.489,0.011
		c0.099,0.002,9.859,0.216,20.884,0.278l1.018,29.09c0,2.126,1.729,3.856,3.855,3.856h20.716c2.126,0,3.855-1.73,3.855-3.839
		l1.052-30.521c5.824-2.251,5.431-7.47,5.014-12.989c-0.14-1.856-0.284-3.776-0.216-5.69
		C386.375,780.206,386.529,777.133,386.715,773.414z"/>
</g>
<g id="right">
	<path fill="#FFFFFF" d="M392.455,692.453c-1.755-1.938-8.056-3.136-12.889-3.136c0,0-0.002,0-0.003,0
		c-2.299,0-6.4,0.271-8.043,2.086c-0.295,0.326-0.352,0.99-0.461,2.597c-0.179,2.642-0.479,7.062-2.659,7.183l0.027,0.498l0,0v0.001
		l0.027,0.499c0.057-0.003,0.107-0.019,0.163-0.025l2.402,5.989l0,0l0.04,0.498c5.864-0.472,18.067-1.453,21.629-7.459
		c1.397-2.356,1.348-5.249-0.146-8.599L392.455,692.453z"/>
</g>
<g id="linework">
	<path fill="none" stroke="#000000" stroke-width="2" stroke-linecap="round" stroke-linejoin="round" stroke-miterlimit="10" d="
		M236.716,653.97l2.001-5.661c0.626-1.79,1.269-2.835,2.835-2.835h1.995c1.566,0,2.835,1.269,2.835,2.835v3.66"/>
	<path fill="none" stroke="#000000" stroke-width="2" stroke-linecap="round" stroke-linejoin="round" d="M371.265,708.395
		c8.59-0.692,26.879-2.343,21.07-15.356c-2.563-2.83-17.099-4.468-20.194-1.05c-0.691,0.764,0.325,10.711-4.076,9.906"/>
	<path id="Steklo_1_" fill="none" stroke="#000000" stroke-linecap="round" stroke-linejoin="round" stroke-miterlimit="10" d="
		M236.092,653.515c40.877-4.593,62.406-4.512,101.681-0.039c9.557,17.866,18.835,43.368,18.835,43.368s-51.976-0.166-69.302-0.221
		c-18.072-0.058-71.289-0.231-71.289-0.231S230.129,661.984,236.092,653.515z"/>
	<path fill="none" stroke="#000000" stroke-width="2" stroke-linecap="round" stroke-linejoin="round" d="M386.979,735.152
		c-0.171-1.299-1.352-7.133-1.631-7.753c-1.91-4.513-12.451-15.001-14.16-18.149c-1.018-2.508-2.037-5.016-3.055-7.524
		c0,0-0.083-0.214-0.242-0.615c-1.269-3.202-7.374-18.294-14.409-30.486c-4.454-7.719-9.28-14.275-13.489-15.917
		c-0.483-0.189-0.958-0.312-1.424-0.365c0,0-22.384-4.253-52.504-3.859c-30.12-0.394-52.504,3.859-52.504,3.859
		c-0.465,0.053-0.941,0.177-1.424,0.365c-4.209,1.642-9.035,8.198-13.489,15.917c-7.035,12.192-13.14,27.284-14.409,30.486
		c-0.159,0.4-0.242,0.615-0.242,0.615c-1.018,2.508-2.037,5.016-3.055,7.524c-1.709,3.148-12.25,13.636-14.16,18.149
		c-0.279,0.62-1.461,6.454-1.631,7.753c-1.173,9.46,1.961,52.369,2.187,55.147c0.107,1.313,0.203,2.475,0.277,3.356
		c0.09,1.074,0.146,1.729,0.146,1.729c0.098,0.871,0.47,2.088,1.256,3.217c0.948,1.36,2.499,2.592,4.902,2.932
		c3.37,0.311,75.699,1.036,75.699,1.036c5.425,0.007,10.849,0.014,16.273,0.021l0,0c0.059,0,0.117,0,0.176,0s0.117,0,0.176,0l0,0
		c5.424-0.007,10.848-0.014,16.273-0.021c0,0,73.329-0.726,76.699-1.036c2.402-0.339,3.953-1.571,4.901-2.932
		c0.786-1.129,1.158-2.346,1.256-3.217c0,0,0.056-0.655,0.146-1.729c0.073-0.881,0.17-2.043,0.277-3.356
		C386.019,787.521,388.152,744.612,386.979,735.152z"/>
	<path fill="none" stroke="#000000" stroke-width="2" stroke-linecap="round" stroke-linejoin="round" d="M200.835,708.395
		c-8.59-0.691-26.879-2.343-21.07-15.356c2.563-2.83,17.099-4.468,20.194-1.05c0.691,0.764-0.325,10.711,4.076,9.906"/>
	<path fill="none" stroke="#000000" stroke-width="0.5" stroke-linecap="round" stroke-linejoin="round" d="M201.677,706.278
		c-6.632-0.492-24.061-2.449-19.576-11.708c1.978-2.014,13.201-3.179,15.591-0.747c0.534,0.543-0.445,9.594,5.389,10.647"/>
	<path fill="none" stroke="#000000" stroke-width="1.5" stroke-linecap="round" stroke-linejoin="round" stroke-miterlimit="10" d="
		M380.909,801.698l-1.118,29.449c0,1.854-1.503,3.356-3.356,3.356H355.72c-1.854,0-3.356-1.503-3.356-3.356l-1.118-28.962"/>
	<path fill="none" stroke="#000000" stroke-width="1.5" stroke-linecap="round" stroke-linejoin="round" stroke-miterlimit="10" d="
		M192.107,801.698l0.117,29.449c0,1.854,1.503,3.356,3.356,3.356h20.715c1.854,0,3.356-1.503,3.356-3.356l1.118-28.962"/>
	<path fill="none" stroke="#000000" stroke-linecap="round" stroke-linejoin="round" stroke-miterlimit="10" d="M185.719,759.764
		c0,0,96.453-4.553,200.25,0"/>
	<path fill="none" stroke="#000000" stroke-linecap="round" stroke-linejoin="round" stroke-miterlimit="10" d="M189.719,799.267
		c0,0,8.115-9.382,11.769-9.55c32.009-1.468,72.509-3.467,170.264,0.102c3.56,0.13,8.744,5.68,12.715,9.448"/>
	<path fill="none" stroke="#000000" stroke-linecap="round" stroke-linejoin="round" stroke-miterlimit="10" d="M185.719,755.761
		c0,0,96.453-4.553,200.25,0"/>
	<path fill="none" stroke="#000000" stroke-linecap="round" stroke-linejoin="round" stroke-miterlimit="10" d="M185.719,751.759
		c0,0,96.453-4.553,200.25,0"/>
	<path fill="none" stroke="#000000" stroke-linecap="round" stroke-linejoin="round" stroke-miterlimit="10" d="M200.219,710.455
		c0,0,82.123-4.047,170.5,0"/>
	<path fill="none" stroke="#000000" stroke-width="2" stroke-linecap="round" stroke-linejoin="round" stroke-miterlimit="10" d="
		M335.381,653.97l-2.001-5.661c-0.494-1.499-1.269-2.835-2.835-2.835h-1.995c-1.566,0-2.835,1.269-2.835,2.835v3.66"/>
	<g>
		<path fill="none" stroke="#000000" stroke-linecap="round" stroke-linejoin="round" stroke-miterlimit="10" d="M222.048,709.503
			l9.223,37.431c0.373,1.514,1.954,2.752,3.513,2.752h101.975c1.559,0,3.14-1.239,3.513-2.752l9.223-37.431"/>
	</g>
	<path fill="none" stroke="#000000" stroke-linecap="round" stroke-linejoin="round" stroke-miterlimit="10" d="M228.931,739.918
		c0,0-11.171,0.606-20.403,0.142c-7.955-3.81-8.456-23.17-8.456-23.17s9.242,0.12,14.557,0.189c5.41,0.07,6.76,2.504,7.786,3.896
		C225.88,725.674,227.889,731.716,228.931,739.918z"/>
	<path fill="none" stroke="#000000" stroke-linecap="round" stroke-linejoin="round" stroke-miterlimit="10" d="M208.521,740.187
		c-11.375-0.147-18.274-1.349-20.151-6.796c-1.251-3.63,0.489-10.155,3.252-13.263c2.525-2.841,9.258-3.24,9.258-3.24"/>
	<path fill="none" stroke="#000000" stroke-linecap="round" stroke-linejoin="round" stroke-miterlimit="10" d="M342.954,739.416
		c0,0,11.171,0.606,20.403,0.142c7.955-3.81,8.456-23.17,8.456-23.17s-9.242,0.12-14.557,0.189c-5.41,0.07-6.76,2.504-7.786,3.896
		C346.005,725.173,343.996,731.215,342.954,739.416z"/>
	<path fill="none" stroke="#000000" stroke-linecap="round" stroke-linejoin="round" stroke-miterlimit="10" d="M363.364,739.685
		c11.375-0.147,18.274-1.349,20.151-6.796c1.251-3.63-0.489-10.155-3.252-13.263c-2.525-2.841-9.258-3.24-9.258-3.24"/>
	<path fill="none" stroke="#000000" stroke-linecap="round" stroke-linejoin="round" stroke-miterlimit="10" d="M242.109,802.333
		v-33.415c0-2.348,1.904-4.252,4.252-4.252h79.496c2.348,0,4.252,1.904,4.252,4.252v33.415"/>
	<path fill="none" stroke="#000000" stroke-width="0.5" stroke-linecap="round" stroke-linejoin="round" stroke-miterlimit="10" d="
		M245.484,803.333v-32.12c0-1.756,1.423-3.179,3.179-3.179h74.891c1.756,0,3.179,1.423,3.179,3.179v31.092"/>

		<ellipse fill="none" stroke="#000000" stroke-linecap="round" stroke-linejoin="round" stroke-miterlimit="10" cx="286.998" cy="738" rx="11" ry="4.667"/>
	<path fill="none" stroke="#000000" stroke-linecap="round" stroke-linejoin="round" stroke-miterlimit="10" d="M241.496,785.997
		h-27.383c-4.697,0-8.504-3.807-8.504-8.504v-5.495h35.887"/>
	<path fill="none" stroke="#000000" stroke-linecap="round" stroke-linejoin="round" stroke-miterlimit="10" d="M330.497,771.999
		h36.112v5.495c0,4.697-3.807,8.504-8.504,8.504h-27.107"/>

		<line fill="none" stroke="#000000" stroke-linecap="round" stroke-linejoin="round" stroke-miterlimit="10" x1="232.664" y1="772.668" x2="232.664" y2="785.667"/>

		<line fill="none" stroke="#000000" stroke-linecap="round" stroke-linejoin="round" stroke-miterlimit="10" x1="216.654" y1="772.668" x2="216.654" y2="785.667"/>

		<line fill="none" stroke="#000000" stroke-linecap="round" stroke-linejoin="round" stroke-miterlimit="10" x1="356.662" y1="772.167" x2="356.662" y2="786.167"/>

		<line fill="none" stroke="#000000" stroke-linecap="round" stroke-linejoin="round" stroke-miterlimit="10" x1="340.652" y1="772.167" x2="340.652" y2="786.167"/>
	<path fill="none" stroke="#000000" stroke-width="0.5" stroke-linecap="round" stroke-linejoin="round" d="M370.503,706.278
		c6.632-0.492,24.061-2.449,19.576-11.708c-1.978-2.014-13.201-3.179-15.591-0.747c-0.534,0.543,0.445,9.594-5.389,10.647"/>
	<path fill="none" d="M366.22,710.289c-0.455,0.902-0.521,1.267-0.678,1.803c-1.894,5.891-1.878,7.975-1.878,7.975
		s1.298-4.627,1.973-7.005C365.758,712.477,366.172,711.59,366.22,710.289z"/>
	<path fill="none" d="M367.919,701.228c0.056,0.043,0.122,0.081,0.193,0.119C367.989,701.252,367.919,701.228,367.919,701.228z"/>
	<path fill="none" d="M285.809,780.042l0.6,0.856c-0.233-0.393-0.404-0.856-0.502-0.856H285.809z"/>
	<path fill="none" d="M367.115,709.856c-0.067,1.001-0.207,1.687-0.378,2.218c-2.045,5.829-2.499,7.85-2.499,7.85
		s1.901-4.503,2.636-6.86C367.011,712.481,367.571,711.103,367.115,709.856z"/>
	<path fill="#1A1A1A" d="M193.985,717.93c0.001-0.001,0.005-0.001,0.007-0.002C193.98,717.928,193.974,717.929,193.985,717.93z"/>
	<path fill="none" d="M366.692,708.546c1.16,1.541,3.237,3.435,3.668,3.848c3.267,2.761,6.204-1.312,6.267-1.312
		c0,0-4.053,3.491-5.874,2.042C370.312,712.773,367.446,709.931,366.692,708.546z"/>

		<line fill="none" stroke="#000000" stroke-linecap="round" stroke-linejoin="round" stroke-miterlimit="10" x1="216.017" y1="696.391" x2="210.307" y2="709.778"/>

		<line fill="none" stroke="#000000" stroke-linecap="round" stroke-linejoin="round" stroke-miterlimit="10" x1="356.515" y1="696.766" x2="362.224" y2="710.153"/>
</g>
</svg>
