<?xml version="1.0" encoding="utf-8"?>
<!-- Generator: Adobe Illustrator 17.0.0, SVG Export Plug-In . SVG Version: 6.00 Build 0)  -->
<!DOCTYPE svg PUBLIC "-//W3C//DTD SVG 1.1//EN" "http://www.w3.org/Graphics/SVG/1.1/DTD/svg11.dtd">
<svg version="1.1" id="Layer_1" xmlns="http://www.w3.org/2000/svg"  x="0px" y="0px"
	 width="216.807px" height="190.779px" viewBox="186.13 5.464 216.807 190.779"
	 enable-background="new 186.13 5.464 216.807 190.779" xml:space="preserve">
<g id="front">
	<path fill="#FF3947" d="M260.002,93.768c-1.81,0.859-6.719,3.335-7.336,5.186c-0.718,2.153-0.687,6.59,1,11.65
		c1.639,4.918,4.725,11.169,8.128,12.98l-0.821,21.199l0.171,18.912h68.245l-0.001-22.027l-0.987-18.386
		c1.519-1.396,11.658-11.303,8.539-23.979l-0.043-0.177l-0.147-0.107c-0.195-0.143-4.588-3.336-8.897-4.817
		c3.168-3.555,20.867-22.712,38.592-27.776l2.772-0.792l-2.878-0.188c-0.145-0.009-14.959-0.941-59.946-0.941
		c-23.93,0-52.111,0.26-83.761,0.774l-3.497,0.057l3.373,0.926C222.693,66.312,241.135,71.569,260.002,93.768z"/>
</g>
<g id="front-windscreen">
	<path fill="#FFFFFF" d="M371.982,65.789c-3.146-13.41-17.734-40.354-17.881-40.625l-0.127-0.234l-0.265-0.025
		c-16.188-1.546-34.442-2.331-54.259-2.331c-34.938,0-63.053,2.472-63.333,2.497l-0.196,0.018l-0.132,0.147
		c-7.153,7.984-17.712,39.034-18.159,40.352l-0.226,0.667l0.704-0.006c19.153-0.17,40.417-0.256,63.2-0.256
		c49.324,0,89.778,0.407,90.182,0.411l0.638,0.006L371.982,65.789z"/>
</g>
<g id="left">
	<path fill="#FFFFFF" d="M401.275,53.91l-0.086-0.132c-1.755-1.938-8.057-3.137-12.889-3.137c-2.3,0-6.403,0.271-8.048,2.086
		c-0.269,0.298-0.376,0.908-0.611,2.382c-0.411,2.567-1.085,6.774-3.127,7.337c-3.632-9.145-12.479-30.42-19.564-39.395
		c-5.673-7.185-9.39-8.258-11.101-8.258c-0.522,0-0.813,0.104-0.866,0.124l-0.776,0.304l0.634,0.542
		c13.484,11.524,26.01,49.877,26.135,50.263l0.104,0.322l5.551,0.374l1.6,3.687l0.356-0.028c8.116-0.653,19.306-2.194,22.758-8.014
		C402.747,60.002,402.724,57.156,401.275,53.91z"/>
</g>
<g id="front-left">
	<path fill="#FFFFFF" d="M395.634,96.322c-0.163-1.23-1.351-7.18-1.667-7.883c-1.146-2.706-5.196-7.372-8.771-11.489
		c-2.429-2.798-4.724-5.44-5.386-6.654l-0.535-1.31l-0.412,0.035l-1.557-3.589l-5.856-0.393l-6.497,0.009l-0.155,0.025
		c-19.274,6.353-38.025,29.253-38.213,29.484l-0.471,0.58l0.716,0.214c3.94,1.178,8.333,4.232,9.183,4.84
		c3.058,13.048-8.333,23.081-8.449,23.181l-0.186,0.161l1.013,19.008v21.58l0.506-0.005c8.846-0.096,19.687-0.218,29.63-0.342
		l0.986,28.198c0,2.126,1.73,3.856,3.856,3.856h20.715c2.126,0,3.856-1.73,3.856-3.838l1.034-29.093
		c1.524-0.516,2.803-1.469,3.711-2.772c1.028-1.477,1.281-2.902,1.344-3.46l0.423-5.087
		C394.709,148.387,396.804,105.751,395.634,96.322z"/>
</g>
<g id="roof">
	<path fill="#FFFFFF" d="M307.273,23.302c19.71,0,35.229,0.831,46.126,2.471l1.304,0.196l-0.846-1.011
		c-0.077-0.092-7.671-9.172-8.326-9.992l-0.116-0.145l-0.184-0.034c0,0-0.28-0.052-0.812-0.142l-2.208-5.752
		c-0.259-0.786-1.048-3.178-3.31-3.178h-1.995c-1.839,0-3.335,1.496-3.335,3.332l-0.022,4.067
		c-9.254-1.103-23.694-2.383-40.867-2.383c-12.824,0-25.377,0.716-37.32,2.128l-0.124-3.809c0-1.839-1.496-3.335-3.335-3.335h-1.995
		c-2.029,0-2.746,1.566-3.308,3.172l-1.869,5.437c-0.613,0.096-1.226,0.194-1.84,0.295l-0.212,0.035L234.98,26.02l1.029-0.075
		C236.371,25.917,272.563,23.302,307.273,23.302z"/>
</g>
<g id="right">
	<path fill="#FFFFFF" d="M242.99,14.711c-1.711,0-5.428,1.073-11.101,8.258c-7.085,8.975-15.933,30.25-19.565,39.395
		c-2.041-0.563-2.715-4.768-3.126-7.334c-0.236-1.475-0.343-2.086-0.613-2.384c-1.644-1.815-5.747-2.086-8.047-2.086
		c-4.833,0-11.134,1.199-12.888,3.136l-0.086,0.132c-1.449,3.247-1.473,6.092-0.07,8.458c3.452,5.82,14.642,7.361,22.758,8.014
		l0.356,0.028l1.6-3.687l5.551-0.374l0.104-0.322c0.125-0.386,12.649-38.738,26.134-50.263l0.634-0.542l-0.777-0.304
		C243.802,14.814,243.512,14.711,242.99,14.711z"/>
</g>
<g id="front-right">
	<path fill="#FFFFFF" d="M262.513,123.506c-3.023-1.373-6.145-7.342-7.898-12.649c-1.605-4.86-1.644-9.171-1-11.12
		c0.436-1.318,4.77-3.714,7.399-4.914l0.596-0.272l-0.419-0.503c-17.673-21.211-35.313-27.704-38.67-28.79l-0.075-0.024
		l-11.758,0.016l-2.026,4.997c-0.686,1.264-2.98,3.907-5.41,6.705c-3.574,4.117-7.625,8.783-8.766,11.478
		c-0.324,0.721-1.51,6.667-1.671,7.897c-1.221,9.85,2.149,54.809,2.185,55.25l0.425,5.1c0.061,0.544,0.314,1.97,1.343,3.447
		c0.889,1.276,2.137,2.218,3.626,2.741l0.105,29.107c0,2.126,1.73,3.856,3.856,3.856h20.715c2.126,0,3.856-1.73,3.855-3.838
		l0.987-28.224c10.684,0.137,22.5,0.271,31.72,0.371l0.51,0.005l-0.167-18.47l0.846-22.025L262.513,123.506z"/>
</g>
<g id="linework">
	<path fill="none" stroke="#000000" stroke-width="2" stroke-linecap="round" stroke-linejoin="round" stroke-miterlimit="10" d="
		M245.296,14.633l1.904-5.334c0.626-1.79,1.269-2.835,2.835-2.835h1.995c1.566,0,2.835,1.269,2.835,2.835v3.66"/>
	<path fill="none" stroke="#000000" stroke-width="2" stroke-linecap="round" stroke-linejoin="round" d="M379.748,69.386
		c8.59-0.691,26.879-2.343,21.07-15.356c-2.563-2.83-17.099-4.468-20.194-1.05c-0.691,0.764,0.325,10.711-4.076,9.906"/>
	<path fill="none" stroke="#000000" stroke-linecap="round" stroke-linejoin="round" d="M235.279,162.67
		c1.116,0.043,0.891-0.024,2.008,0.019c0.959,0.037,1.916,0.052,2.874,0.054c0.304,0.001,0.608,0,0.912-0.001
		c0.487-0.002,0.975-0.007,1.462-0.012c2.318-0.024,4.635-0.07,6.955,0.014c4.035,0.145,8.072,0.426,12.109,0.493
		c5.138,0.085,10.275,0.358,15.412,0.47c4.807,0.11,9.614,0.215,14.421,0.25c3.619,0.022,7.239-0.052,10.858-0.115
		c5.526-0.105,11.053-0.21,16.578-0.385c4.282-0.134,8.561-0.421,12.844-0.545c3.703-0.108,7.407-0.162,11.111-0.162
		c2.036,0,4.068,0.08,6.1,0.142c0.354,0.011,0.706,0.021,1.06,0.03c0.242,0.007,0.483,0.012,0.725,0.017
		c1.447,0.031,2.895,0.04,4.345-0.011c-0.648-1.428-1.253-2.923-1.878-4.386c-0.725-1.696-1.462-3.368-2.256-4.981
		c-0.178-0.361-0.356-0.721-0.536-1.081c-1.08-2.165-2.202-4.307-3.417-6.276c-0.587-0.952-1.194-1.863-1.83-2.716
		c-0.562-0.754-1.152-1.421-1.808-1.937c-0.306-0.24-0.791-0.09-1.125-0.094c-0.794-0.011-1.589-0.025-2.383-0.037
		c-0.197-0.003-0.395-0.006-0.592-0.009c-0.288-0.004-0.576-0.008-0.864-0.011c-1.659-0.02-3.317-0.023-4.975-0.027
		c-3.021-0.006-6.041-0.032-9.061-0.073c-0.646-0.009-1.292-0.018-1.938-0.027c-2.846-0.04-5.691-0.099-8.538-0.146
		c-1.205-0.019-2.408-0.036-3.613-0.048c-3.302-0.034-6.605-0.069-9.906-0.095c-1.587-0.012-3.175-0.023-4.761-0.031
		c-1.365-0.006-2.729-0.006-4.093-0.002c-2.957,0.01-5.913,0.038-8.87,0.052c-0.963,0.004-1.927,0.014-2.89,0.027
		c-3.446,0.043-6.892,0.12-10.338,0.129c-0.744,0.002-1.488,0.006-2.232,0.014c-3.289,0.03-6.578,0.099-9.867,0.142
		c-1.894,0.026-3.787,0.073-5.681,0.09c-0.398,0.005-0.795,0.01-1.193,0.014c-0.248,0.002-0.496,0.006-0.743,0.008
		c-0.675,0.007-1.35,0.014-2.025,0.021c-0.429,0.005-0.858,0.011-1.287,0.018c-0.19,0.002-0.345,0.001-0.523,0.002
		c-0.091,0.001-0.298,0.366-0.407,0.474c-1.154,1.57-2.165,3.257-3.093,5.024c-1.011,1.927-1.924,3.949-2.815,6.018
		c-0.148,0.344-0.296,0.69-0.444,1.036c-0.656,1.541-1.307,3.104-1.986,4.667c-0.359,0.828-0.726,1.657-1.106,2.483
		C235.753,161.675,235.519,162.173,235.279,162.67z"/>
	<path fill="none" stroke="#000000" stroke-linecap="round" stroke-linejoin="round" stroke-miterlimit="10" d="M327.088,94.394
		c3.577,0.829,8.332,3.843,8.944,4.408c0.176,0.154,0.304,0.375,0.424,0.621c0.916,1.868,0.794,4.202,0.49,6.231
		c-0.644,4.29-2.351,8.482-4.492,12.108c-1.076,1.818-2.33,3.639-3.932,4.928c-0.271,0.217-0.54,0.415-0.926,0.552
		c-1.013,0.248-12.823,0.868-17.36,1.132c-4.605,0.267-9.214,0.536-13.825,0.623c-3.941,0.074-7.889-0.148-11.826-0.35
		c-4.927-0.253-9.852-0.557-14.775-0.88c-2.582-0.169-7.145-0.32-7.964-0.596c-0.539-0.293-0.857-0.617-1.244-0.983
		c-0.745-0.702-1.403-1.51-2.011-2.355c-1.231-1.713-2.262-3.603-3.15-5.555c-0.889-1.955-1.636-4-2.169-6.108
		c-0.526-2.077-0.902-4.309-0.644-6.468c0.118-0.993,0.396-1.947,0.911-2.778c0.108-0.174,0.301-0.44,0.461-0.546
		c4.256-3.752,7.042-4.081,7.522-4.191c0.58-0.133,30.114-0.746,33.005-0.746C301.27,93.44,326.308,94.279,327.088,94.394z"/>
	<path id="Steklo_4_" fill="none" stroke="#000000" stroke-linecap="round" stroke-linejoin="round" stroke-miterlimit="10" d="
		M367.124,65.945c0,0-17.163-0.343-22.871-0.52c-12.483-0.887-99.156-0.153-103.727,0c-6.089,0.414-18.684,0.176-18.684,0.176"/>
	<path id="Steklo_3_" fill="none" stroke="#000000" stroke-linecap="round" stroke-linejoin="round" stroke-miterlimit="10" d="
		M236.569,25.522c40.877-3.607,77.415-3.544,116.69-0.031"/>

		<ellipse fill="none" stroke="#000000" stroke-linecap="round" stroke-linejoin="round" stroke-miterlimit="10" cx="370.03" cy="142.999" rx="7.221" ry="7.475"/>

		<ellipse fill="none" stroke="#000000" stroke-linecap="round" stroke-linejoin="round" stroke-miterlimit="10" cx="219.702" cy="142.999" rx="7.221" ry="7.475"/>
	<path fill="none" stroke="#000000" stroke-linecap="round" stroke-linejoin="round" stroke-miterlimit="10" d="M292.587,93.786
		c1.606,0,3.23-0.015,4.836-0.015c0.143,10.07,0.141,21.194-0.002,31.258c-0.001,0-2.558,0.131-4.809-0.01
		C292.472,114.97,292.445,103.856,292.587,93.786z"/>
	<path fill="none" stroke="#000000" stroke-linecap="round" stroke-linejoin="round" stroke-miterlimit="10" d="M307.985,93.991
		c0.856-0.049,1.683-0.012,2.585,0.074c0.7,9.892,0.699,20.471,0.002,30.362c-0.871,0.101-1.73,0.18-2.588,0.154
		C308.683,114.763,308.684,103.809,307.985,93.991z"/>
	<path fill="none" stroke="#000000" stroke-linecap="round" stroke-linejoin="round" stroke-miterlimit="10" d="M322.42,94.43
		c0.853-0.089,1.731-0.023,2.599,0.053c0.944,9.49,0.952,19.538,0.016,29.029c-0.851,0.108-1.758,0.215-2.616,0.169
		C323.355,114.322,323.355,103.788,322.42,94.43z"/>
	<path fill="none" stroke="#000000" stroke-linecap="round" stroke-linejoin="round" stroke-miterlimit="10" d="M279.147,93.962
		c0.881-0.119,2.579-0.042,2.579-0.042c-0.698,9.823-0.699,20.778,0,30.601c0,0-1.238,0.02-2.582-0.151
		C278.457,114.611,278.456,103.722,279.147,93.962z"/>
	<path fill="none" stroke="#000000" stroke-linecap="round" stroke-linejoin="round" stroke-miterlimit="10" d="M264.699,94.217
		c1.325-0.146,2.575-0.034,2.575-0.034c-0.938,9.42-0.94,20.009,0,29.429c0,0-1.277-0.003-2.579-0.177
		C263.774,114.082,263.77,103.567,264.699,94.217z"/>
	<path fill="none" stroke="#000000" stroke-width="2" stroke-linecap="round" stroke-linejoin="round" d="M395.164,96.142
		c-0.171-1.299-1.352-7.133-1.631-7.753c-1.91-4.513-12.451-15.001-14.16-18.149c-1.018-2.508-2.037-5.016-3.055-7.524
		c0,0-0.083-0.214-0.242-0.614c-1.269-3.202-7.374-18.294-14.409-30.486c-4.454-7.719-9.28-14.275-13.489-15.917
		c-0.483-0.189-0.958-0.312-1.424-0.365c0,0-22.384-4.254-52.504-3.859c-30.12-0.394-52.504,3.859-52.504,3.859
		c-0.465,0.053-0.941,0.177-1.424,0.365c-4.209,1.642-9.035,8.198-13.489,15.917c-7.035,12.192-13.14,27.284-14.409,30.486
		c-0.159,0.4-0.242,0.614-0.242,0.614c-1.018,2.508-2.037,5.016-3.055,7.524c-1.709,3.148-12.25,13.636-14.16,18.149
		c-0.279,0.62-1.461,6.454-1.631,7.753c-1.173,9.46,1.961,52.369,2.187,55.147c0.107,1.313,0.203,2.475,0.277,3.356
		c0.09,1.074,0.146,1.729,0.146,1.729c0.098,0.871,0.47,2.088,1.256,3.217c0.948,1.36,2.499,2.592,4.902,2.932
		c3.37,0.311,75.699,1.036,75.699,1.036c5.425,0.007,10.849,0.014,16.273,0.021l0,0c0.059,0,0.117,0,0.176,0s0.117,0,0.176,0l0,0
		c5.424-0.007,10.848-0.014,16.273-0.021c0,0,73.329-0.726,76.699-1.036c2.402-0.339,3.953-1.571,4.901-2.932
		c0.786-1.129,1.158-2.346,1.256-3.217c0,0,0.056-0.655,0.146-1.729c0.073-0.881,0.17-2.043,0.277-3.356
		C394.204,148.511,396.338,105.602,395.164,96.142z"/>
	<path fill="none" stroke="#000000" stroke-width="2" stroke-linecap="round" stroke-linejoin="round" d="M209.318,69.386
		c-8.59-0.691-26.879-2.343-21.07-15.356c2.563-2.83,17.099-4.468,20.194-1.05c0.656,0.725-0.227,9.729,3.449,9.948"/>
	<path fill="none" stroke="#000000" stroke-width="1.5" stroke-linecap="round" stroke-linejoin="round" stroke-miterlimit="10" d="
		M388.391,163.689l-1.118,28.448c0,1.854-1.503,3.356-3.356,3.356h-20.715c-1.854,0-3.356-1.503-3.356-3.356l-1.118-28.962"/>
	<path fill="none" stroke="#000000" stroke-width="1.5" stroke-linecap="round" stroke-linejoin="round" stroke-miterlimit="10" d="
		M200.713,162.688l0.117,29.449c0,1.854,1.503,3.356,3.356,3.356h20.715c1.854,0,3.356-1.503,3.356-3.356l1.118-28.962"/>
	<path fill="none" stroke="#000000" stroke-linecap="round" stroke-linejoin="round" stroke-miterlimit="10" d="M248.28,121.208
		c0,0-11.993-1.184-22.818-3.455c-9.12-5.974-8.527-28.876-8.527-28.876s10.858,1.867,17.102,2.94
		c6.356,1.093,7.794,4.212,8.916,6.044C246.74,104.044,247.556,111.351,248.28,121.208z"/>
	<path fill="none" stroke="#000000" stroke-linecap="round" stroke-linejoin="round" stroke-miterlimit="10" d="M225.462,117.753
		c-13.364-2.297-21.401-5.001-23.276-11.769c-1.25-4.51-2.09-19.836-2.09-19.836l17.805,2.729"/>
	<path fill="none" stroke="#000000" stroke-linecap="round" stroke-linejoin="round" stroke-miterlimit="10" d="M340.601,120.312
		c0,0,11.993-1.184,22.818-3.455c9.12-5.974,8.526-28.876,8.526-28.876s-10.858,1.867-17.102,2.94
		c-6.356,1.093-7.794,4.212-8.916,6.044C342.142,103.148,341.326,110.455,340.601,120.312z"/>
	<path fill="none" stroke="#000000" stroke-linecap="round" stroke-linejoin="round" stroke-miterlimit="10" d="M363.42,116.856
		c13.364-2.297,21.401-5.001,23.276-11.769c1.25-4.51,2.09-19.836,2.09-19.836l-17.805,2.729"/>
	<path fill="none" stroke="#000000" stroke-linecap="round" stroke-linejoin="round" stroke-miterlimit="10" d="M194.202,126.134
		c0,0,96.453,18.5,200.25,0"/>
	<path fill="none" stroke="#000000" stroke-linecap="round" stroke-linejoin="round" stroke-miterlimit="10" d="M261.201,94.133
		c0,0-16.515-21.223-39.655-28.516"/>
	<path fill="none" stroke="#000000" stroke-linecap="round" stroke-linejoin="round" stroke-miterlimit="10" d="M244.201,15.134
		c-13.749,11.75-26.285,50.489-26.285,50.489h4.286"/>
	<path fill="none" stroke="#000000" stroke-linecap="round" stroke-linejoin="round" stroke-miterlimit="10" d="M345.249,15.467
		c13.749,11.75,26.285,50.489,26.285,50.489h-4.286"/>
	<path fill="none" stroke="#000000" stroke-width="2" stroke-linecap="round" stroke-linejoin="round" stroke-miterlimit="10" d="
		M343.864,14.96l-2.001-5.661c-0.494-1.499-1.269-2.835-2.835-2.835h-1.995c-1.566,0-2.835,1.269-2.835,2.835v3.66"/>

		<rect x="261.666" y="144.635" fill="none" stroke="#000000" stroke-linecap="round" stroke-linejoin="round" stroke-miterlimit="10" width="67" height="15"/>
	<path fill="none" stroke="#000000" stroke-linecap="round" stroke-linejoin="round" stroke-miterlimit="10" d="M366.984,66.008
		c-23.14,7.293-39.82,28.292-39.82,28.292"/>
	<path fill="none" stroke="#000000" stroke-width="1.5" stroke-linecap="round" stroke-linejoin="round" stroke-miterlimit="10" d="
		M353.887,26.195"/>
	<path fill="none" stroke="#000000" stroke-width="1.5" stroke-linecap="round" stroke-linejoin="round" stroke-miterlimit="10" d="
		M235.637,25.445"/>
	<path fill="none" d="M376.402,62.219c0.056,0.043,0.122,0.081,0.193,0.119C376.472,62.242,376.402,62.219,376.402,62.219z"/>
	<path fill="none" d="M242.963,74.019c1.899,2.393,3.798,4.787,5.696,7.18c0,0,35.157-1.956,46.887-1.951
		c11.498,0.004,45.957,1.951,45.957,1.951c1.921-2.408,3.841-4.816,5.761-7.225c15.959,0.262,24.659-7.26,25.788-8.279
		c0.083-0.074,0.124-0.036,0.124-0.036s-54.845-3.377-77.445-2.634c-0.035,0-0.069,0-0.103,0c-27.829,0-78.815,2.523-78.815,2.523
		s0.034,0.001,0.103,0.075C217.866,66.64,225.482,74.102,242.963,74.019z"/>
	<path fill="none" d="M343.418,141.032l0.6,0.856c-0.233-0.393-0.404-0.856-0.502-0.856H343.418z"/>
	<path fill="#1A1A1A" d="M202.468,78.921c0.001-0.001,0.005-0.001,0.007-0.002C202.462,78.918,202.457,78.919,202.468,78.921z"/>
	<path fill="#676767" d="M384.561,85.208c0,0-0.471,0.129-0.925,0.22c-0.566,0.164-1.138,0.317-1.78,0.475
		c-2.867,0.707-6.385,1.353-9.76,1.936c-0.051,0.009-0.147,0.02-0.197,0.028c-0.007,0.001-0.112-0.067-0.09-0.064l0.038,0.371
		c0.007-0.004,0.055-0.009,0.061-0.01c0.068-0.012,0.16-0.027,0.228-0.039c3.565-0.631,6.809-1.266,9.802-2.074
		c0.671-0.182,1.117-0.273,1.765-0.482c0.763-0.251,1.216-0.394,1.837-0.474C385.539,85.096,385.028,85.17,384.561,85.208z"/>

		<line fill="none" stroke="#000000" stroke-linecap="round" stroke-linejoin="round" stroke-miterlimit="10" x1="217.916" y1="65.623" x2="210.89" y2="66.028"/>

		<line fill="none" stroke="#000000" stroke-linecap="round" stroke-linejoin="round" stroke-miterlimit="10" x1="377.832" y1="66.362" x2="370.807" y2="65.956"/>
</g>
</svg>
