<?xml version="1.0" encoding="utf-8"?>
<!-- Generator: Adobe Illustrator 17.0.0, SVG Export Plug-In . SVG Version: 6.00 Build 0)  -->
<!DOCTYPE svg PUBLIC "-//W3C//DTD SVG 1.1//EN" "http://www.w3.org/Graphics/SVG/1.1/DTD/svg11.dtd">
<svg version="1.1" id="Layer_1" xmlns="http://www.w3.org/2000/svg"  x="0px" y="0px"
	 width="427.542px" height="158.494px" viewBox="127.716 162.839 427.542 158.494"
	 enable-background="new 127.716 162.839 427.542 158.494" xml:space="preserve">
<g id="roof">
	<path fill="#FFFFFF" d="M182.042,167.897c20.479-0.024,86.581-0.011,130.322-0.002l11.226,0.002l-0.373-0.729
		c-1.779-3.465-13.225-4.428-14.562-4.527H196.732c-8.657,0-14.724,4.169-14.978,4.346l-1.306,0.912L182.042,167.897z"/>
</g>
<g id="back-right">
	<path fill="#FFFFFF" d="M257.547,293.668h7.384l0.149-0.211c0.107-0.152,2.65-3.816,2.65-10.828c0-5.972-1.834-12.485-5.449-19.36
		c-9.337-17.757-25.716-21.946-28.466-22.534c-0.049-0.916-0.165-3.394-0.165-6.54c0-6.003,0.411-14.245,2.373-19.415
		c3.339-8.803,11.336-45.924,11.675-47.499l0.13-0.608l-0.621,0.003c-0.648,0.003-64.893,0.291-70.189,0.16
		c-5.489-0.136-7.027,0.456-14.049,8.163c-4.296,4.715-4.625,5.342-6.764,9.42c-1.288,2.456-3.235,6.169-7.132,12.832
		c-10.065,17.21-11.168,24.552-11.53,26.965l-0.032,0.211c-0.143,0.924-0.215,4.755-0.215,11.389c0,4.039,0.027,7.9,0.038,9.217
		c-0.569,0.176-1.632,0.7-3.764,2.048c-2.543,1.608-3.077,5.152-3.077,7.842c0,1.252,0.114,2.278,0.181,2.766
		c-2.397,1.927-2.736,6.023-2.736,10.185c0,1.225,0.032,2.503,0.067,3.812c0.025,0.922,0.031,1.729,0.036,2.441
		c0.032,4.128,0.041,5.374,3.512,7.788c3.801,2.644,12.484,7.978,12.571,8.03l0.113,0.069l41.168,1.31
		c0.591,3.6,5.723,28.578,34.083,29.514C247.953,321.773,256.518,297.029,257.547,293.668z M226.953,211.06h-67.497
		c1.846-4.296,11.973-27.252,19.925-32.987c4.706-3.393,38.199-4.39,57.733-4.448L226.953,211.06z"/>
</g>
<g id="side-glass">
	<path fill="#FFFFFF" d="M237.957,172.435c-2.147,0.002-52.669,0.093-58.973,4.64c-8.969,6.467-20.088,32.98-20.558,34.105
		l-0.288,0.692h69.768l10.705-39.438L237.957,172.435z"/>
	<path fill="#FFFFFF" d="M255.725,171.795l-0.092,0.384c-0.056,0.233-5.584,23.396-7.568,32.157
		c-0.26,1.155-0.391,2.247-0.391,3.243c0,0,0,0,0,0.001c0,6.331,5.246,7.227,5.377,7.241h62.068v-43.026L255.725,171.795
		L255.725,171.795z"/>
	<path fill="#FFFFFF" d="M400.682,214.846c-8.243-1.383-10.778-5.954-8.05-14.061c1.187-1.209,4.273-1.979,7.576-1.881l1.364,0.04
		l-1.015-0.912c-13.465-12.104-33.506-26.237-45.674-26.238h-29.416l3.887,44.045h71.244L400.682,214.846z"/>
</g>
<g id="right">
	<path fill="#FF3947" d="M434.34,293.168l0.525-0.002l-0.081-1.498h-9.778c0.015-2.768,0.081-16.516,0.081-30.953
		c0-21.556-0.141-34.313-0.418-37.918c-0.534-6.944-3.643-15.659-4.871-18.881c0.535,0.27,1.246,0.608,2.131,0.995l0.453-0.89
		c-13-7.6-35.029-23.598-35.25-23.758c-5.988-4.355-21.968-13.105-31.769-13.595c-9.899-0.495-129.816-0.006-131.026-0.001
		l-0.488,0.002l-0.021,1.101l0.512-0.002c10.817-0.04,19.854-0.079,22.25-0.09c-1.074,4.956-8.419,38.622-11.501,46.746
		c-2.015,5.313-2.438,13.684-2.438,19.771c0,4.019,0.188,6.958,0.189,6.987l0.025,0.396l0.393,0.064
		c0.181,0.03,18.202,3.197,28.139,22.091c3.539,6.73,5.334,13.088,5.334,18.896c0,6.654-2.366,10.106-2.467,10.251l-0.552,0.787
		h0.961C302.767,293.652,433.029,293.172,434.34,293.168z M252.942,214.014c-0.182-0.029-4.456-0.791-4.456-6.249
		c0-0.922,0.123-1.939,0.366-3.022c1.842-8.131,6.742-28.69,7.475-31.76h57.605v41.025L252.942,214.014z M391.468,200.207
		l-0.103,0.175c-0.758,2.228-1.143,4.247-1.143,6.002c0,2.543,0.803,4.625,2.386,6.189c1.124,1.11,2.582,1.893,4.219,2.455h-66.745
		l-3.711-42.045h28.325c12.304,0,32.317,14.8,43.842,24.948C395.752,198.038,392.813,198.722,391.468,200.207z"/>
</g>
<g id="front-right">
	<path fill="#FFFFFF" d="M517.799,286.795l22.554,0.104l0.122-0.328c1.493-4.015,6.379-7.384,8.053-7.271
		c1.298,0.087,3.17-0.738,4.552-2.007c1.063-0.976,1.659-2.072,1.678-3.087l0.003-0.338c0-0.531-0.023-1.028-0.049-1.585
		c-0.033-0.696-0.07-1.489-0.07-2.572c0-1.901,0.119-4.246,0.362-7.168c0.039-0.458,0.056-0.887,0.056-1.286
		c0-2.373-0.631-4.062-1.877-5.02c-1.133-0.871-2.467-0.892-3.219-0.813c-1.398-19.456-11.348-32.471-27.358-35.746
		c-13.956-2.854-53.427-7.286-75.714-9.674c-18.318-1.963-27.701-7.541-27.794-7.598l-1.3-0.787l0.579,1.405
		c0.046,0.112,4.644,11.361,5.297,19.848c0.271,3.531,0.415,16.629,0.415,37.878c0,15.941-0.08,30.788-0.083,31.418v0.5h22.102
		c0.839,3.481,7.787,28.171,35.564,28.225C513.393,320.957,517.399,290.961,517.799,286.795z"/>
</g>
<g id="linework">
	<g>
		<path fill="none" stroke="#000000" stroke-width="2" stroke-linecap="round" stroke-linejoin="round" stroke-miterlimit="10" d="
			M549.502,256.008c0,0-23.218-3.42-23.293,10.65c-0.03,6.473-0.045,11.152-0.06,14.342c0.136,3.329-0.015,5.396-0.015,5.396h13.872
			c0,0,4.559-7.596,8.555-7.596c3.98,0,5.697-4.605,5.697-4.605s0-9.83,0-14.208C554.258,255.628,549.502,256.008,549.502,256.008z"
			/>

			<path fill="none" stroke="#000000" stroke-width="0.94" stroke-linecap="round" stroke-linejoin="round" stroke-miterlimit="10" d="
			M526.148,281.001c-0.015,3.738-0.015,5.396-0.015,5.396S526.284,284.329,526.148,281.001z"/>

			<path fill="none" stroke="#000000" stroke-width="1.5" stroke-linecap="round" stroke-linejoin="round" stroke-miterlimit="10" d="
			M227.586,211.561h-68.635c0,0,11.431-27.434,20.388-33.893c6.246-4.504,58.68-4.544,58.68-4.544L227.586,211.561z
			 M314.307,172.317l0.001,42.026h-61.569c0,0-6.488-1.018-4.498-9.876c2.006-8.858,7.567-32.15,7.567-32.15H314.307
			L314.307,172.317z M526.148,285.508c0.015-3.19,0.03-12.377,0.06-18.849c0.076-14.07,23.294-10.651,23.294-10.651
			c0.076-3.481-0.213-6.641-0.823-9.498c0,0-5.227,0.684-12.566,0.364c-1.579-0.076-3.266-0.183-5.029-0.364
			c-9.876-1.018-8.615-3.798-10.894-5.819c-2.264-2.037-1.763-15.18-1.763-15.18h15.909c-1.139-0.82-2.309-1.58-3.509-2.294
			c-10.121-6.078-92.429-13.371-94.525-13.751c-2.082-0.38-11.578-2.279-14.997-5.5c-0.106-0.107-0.244-0.229-0.411-0.35
			c-0.592-0.501-1.58-1.23-2.841-2.158c-10.089-7.339-38.776-26.407-44.991-29.78c-7.217-3.92-15.955-4.178-15.955-4.178
			s-13.903-0.017-34.004-0.032c-44.261-0.015-118.594-0.046-140.731,0c-3.374,0-5.531,0.016-6.2,0.032
			c-6.974,0.121-9.496,3.297-9.496,3.297c-7.354,7.598-20.512,32.668-25.071,42.026c-1.032,2.13-1.793,4.181-2.34,6.079h10.181
			c4.193,0,7.597,3.312,7.597,7.399v11.853c0,4.086-3.404,7.397-7.597,7.397h-9.041c0.669,0.244,0.607,0.519-1.975,0.67
			c4.574-0.167,17.353-0.67,17.353-0.67v43.966l30.056,0.651 M256.975,292.64h26.865h162.177"/>
		<path fill="none" stroke="#000000" stroke-width="2" stroke-linecap="round" stroke-linejoin="round" stroke-miterlimit="10" d="
			M149.447,218.902h-10.181c-1.913,6.55-1.458,11.395-1.458,11.395v14.695c0,0,1.807,0.272,2.598,0.559h9.041
			c4.193,0,7.597-3.31,7.597-7.397v-11.853C157.044,222.214,153.64,218.902,149.447,218.902z"/>
		<path fill="none" stroke="#000000" stroke-width="2" stroke-linecap="round" stroke-linejoin="round" stroke-miterlimit="10" d="
			M138.43,246.22c-0.334,0.015-0.637,0.015-0.881,0.03c-7.096,0.26-6.336,11.656-6.336,11.656c-3.54,3.297-2.279,13.12-2.279,18.178
			c0,5.061,15.453,13.433,15.453,13.433h11.396v-43.965C155.783,245.552,143.004,246.054,138.43,246.22z"/>

			<path fill="none" stroke="#000000" stroke-width="0.94" stroke-linecap="round" stroke-linejoin="round" stroke-miterlimit="10" d="
			M308.989,163.309c0,0-103.323,0-111.923,0s-14.692,4.255-14.692,4.255c22.137-0.026,96.47-0.008,140.731,0
			C321.403,164.248,308.989,163.309,308.989,163.309z"/>

			<path fill="none" stroke="#000000" stroke-width="1.5" stroke-linecap="round" stroke-linejoin="round" stroke-miterlimit="10" d="
			M400.065,198.564c-12.22-11.011-32.865-26.247-45.494-26.247c-17.216,0-28.87,0-28.87,0l3.799,43.045h64.455c0,0,4.579,0,6.76,0"
			/>

			<rect x="240.541" y="224.477" fill="none" stroke="#000000" stroke-width="0.94" stroke-linecap="round" stroke-linejoin="round" stroke-miterlimit="10" width="22.493" height="2.28"/>

			<rect x="332.721" y="224.477" fill="none" stroke="#000000" stroke-width="0.94" stroke-linecap="round" stroke-linejoin="round" stroke-miterlimit="10" width="22.493" height="2.28"/>

			<path fill="none" stroke="#000000" stroke-width="0.94" stroke-linecap="round" stroke-linejoin="round" stroke-miterlimit="10" d="
			M534.337,225.511h-7.05c0,0,2.188,17.93,8.828,21.364c7.339,0.32,12.566-0.364,12.566-0.364
			C546.63,236.679,540.993,230.206,534.337,225.511z"/>

			<path fill="none" stroke="#000000" stroke-width="0.94" stroke-linecap="round" stroke-linejoin="round" stroke-miterlimit="10" d="
			M527.287,225.512h-8.858c0,0-0.502,13.143,1.763,15.18c2.279,2.02,1.018,4.8,10.894,5.819c1.763,0.181,3.45,0.288,5.029,0.364
			C529.476,243.441,527.287,225.511,527.287,225.512z"/>

			<path fill="none" stroke="#000000" stroke-width="1.88" stroke-linecap="round" stroke-linejoin="round" stroke-miterlimit="10" d="
			M517.461,284.605c0,19.762-16.026,35.788-35.789,35.788c-19.762,0-35.788-16.025-35.788-35.788
			c0-19.762,16.026-35.789,35.788-35.789C501.435,248.816,517.461,264.843,517.461,284.605L517.461,284.605z M504.803,284.605
			c0,12.773-10.358,23.131-23.131,23.132c-12.772,0-23.13-10.359-23.13-23.132c0-12.772,10.358-23.131,23.13-23.131
			C494.445,261.474,504.803,271.833,504.803,284.605L504.803,284.605z"/>

			<path fill="none" stroke="#000000" stroke-width="1.88" stroke-linecap="round" stroke-linejoin="round" stroke-miterlimit="10" d="
			M257.816,284.605c0,19.762-16.026,35.788-35.789,35.788c-19.762,0-35.788-16.025-35.788-35.788
			c0-19.762,16.026-35.789,35.788-35.789C241.79,248.816,257.816,264.843,257.816,284.605L257.816,284.605z M245.158,284.605
			c0,12.773-10.358,23.131-23.131,23.132c-12.772,0-23.13-10.359-23.13-23.132c0-12.772,10.358-23.131,23.13-23.131
			C234.8,261.474,245.158,271.833,245.158,284.605L245.158,284.605z"/>

			<path fill="none" stroke="#000000" stroke-width="0.94" stroke-linecap="round" stroke-linejoin="round" stroke-miterlimit="10" d="
			M418.055,201.459c0,0,6.473,13.108,6.473,25.953s0,57.252,0,57.252H265.023"/>

			<polyline fill="none" stroke="#000000" stroke-width="0.94" stroke-linecap="round" stroke-linejoin="round" stroke-miterlimit="10" points="
			322.285,283.898 322.285,217.014 319.227,168.388 		"/>

			<path fill="none" stroke="#000000" stroke-width="0.94" stroke-linecap="round" stroke-linejoin="round" stroke-miterlimit="10" d="
			M233.214,241.42c0,0-1.147-17.678,2.217-26.547c3.364-8.869,11.653-47.427,11.653-47.427"/>

			<line fill="none" stroke="#000000" stroke-width="0.47" stroke-linecap="round" stroke-linejoin="round" stroke-miterlimit="10" x1="424.737" y1="268.391" x2="264.763" y2="268.391"/>

			<line fill="none" stroke="#000000" stroke-width="0.4741" stroke-linecap="round" stroke-linejoin="round" stroke-miterlimit="10" x1="424.737" y1="265.637" x2="262.011" y2="265.637"/>

			<line fill="none" stroke="#000000" stroke-width="0.3429" stroke-linecap="round" stroke-linejoin="round" stroke-miterlimit="10" x1="239.866" y1="225.729" x2="156.831" y2="225.729"/>

			<line fill="none" stroke="#000000" stroke-width="0.3111" stroke-linecap="round" stroke-linejoin="round" stroke-miterlimit="10" x1="331.671" y1="225.729" x2="263.316" y2="225.729"/>

			<line fill="none" stroke="#000000" stroke-width="0.3111" stroke-linecap="round" stroke-linejoin="round" stroke-miterlimit="10" x1="423.476" y1="225.729" x2="355.121" y2="225.729"/>
	</g>

		<line fill="none" stroke="#000000" stroke-width="2" stroke-linecap="round" stroke-linejoin="round" stroke-miterlimit="10" x1="518.089" y1="286.376" x2="527.339" y2="286.376"/>
	<path fill="none" stroke="#000000" stroke-width="1.5" stroke-miterlimit="10" d="M414.589,211.668
		c0.375,2.813-0.571,4.186-0.571,4.186c-8.429-0.186-28.179,2.314-22.179-15.311c2.563-2.83,13.079-3.095,15.625,0.75
		c2.326,3.512,0.35,8.866,4.751,8.061C412.215,209.354,414.214,208.855,414.589,211.668z"/>
	<path d="M481.713,240.057c-23.955,0-43.375,19.42-43.375,43.375c0,3.343,0.391,6.592,1.107,9.718
		c2.54,0.473,5.081-0.313,7.621-0.804c-0.55-2.494-0.849-5.082-0.849-7.741c0-19.762,16.026-35.789,35.788-35.789
		c19.763,0,35.789,16.027,35.789,35.789c0,0.796-0.035,1.582-0.086,2.365c2.43-0.477,4.859-1.211,7.289-0.833
		c0.055-0.895,0.092-1.795,0.092-2.704C525.089,259.478,505.668,240.057,481.713,240.057z"/>
	<path d="M222.341,238.165c-25.405,0-46,20.595-46,46c0,2.339,0.037,4.008,0.374,6.253c3.007-0.068,6.208,0.115,9.124-0.114
		c-0.224-1.619-0.349-3.269-0.349-4.949c0-19.762,16.026-35.789,35.788-35.789c19.763,0,35.789,16.027,35.789,35.789
		c0,2.208-0.211,4.366-0.594,6.463c3.786,0.468,7.636,0.923,11.154,0.379c0.46-2.61,0.713-5.291,0.713-8.032
		C268.34,258.76,247.745,238.165,222.341,238.165z"/>
</g>
</svg>
