<?xml version="1.0" encoding="utf-8"?>
<!-- Generator: Adobe Illustrator 17.0.0, SVG Export Plug-In . SVG Version: 6.00 Build 0)  -->
<!DOCTYPE svg PUBLIC "-//W3C//DTD SVG 1.1//EN" "http://www.w3.org/Graphics/SVG/1.1/DTD/svg11.dtd">
<svg version="1.1" id="Layer_1" xmlns="http://www.w3.org/2000/svg"  x="0px" y="0px"
	 width="425.214px" height="208.301px" viewBox="82.354 311.721 425.214 208.301"
	 enable-background="new 82.354 311.721 425.214 208.301" xml:space="preserve">
<g id="back">
	<path fill="#FFFFFF" d="M471.773,345.527l0.31,0.513c0.143,0.237,14.273,24.182,15.095,69.852
		c0.661,35.317-15.624,70.269-15.785,70.611l-0.229,0.486l15.959,6.139l0.229-0.211c0.203-0.188,20.327-19.45,20.327-75.701
		c0-58.046-19.959-77.18-20.16-77.367l-0.228-0.21L471.773,345.527z"/>
</g>
<g id="front">
	<path fill="#FFFFFF" d="M89.899,367.467c-1.286,0.86-7.261,4.621-7.321,4.659l-0.235,0.147l0.335,89.028l7.202,5.316l0.118,0.064
		c0.546,0.209,55.222,20.886,110.911,22.869l0.749,0.027l-0.263-0.702c-0.137-0.367-13.718-37.067-13.718-71.078
		c0-34.021,13.34-74.438,13.474-74.842l0.239-0.716l-0.752,0.06C199.809,342.365,117.439,349.025,89.899,367.467z"/>
</g>
<g id="front-windscreen">
	<path fill="#FFFFFF" d="M185.981,416.14c0,25.376,4.887,50.047,14.526,73.328l0.152,0.368l0.393-0.066
		c0.331-0.056,33.344-5.575,51.353-6.244l0.634-0.023l-0.171-0.611c-0.066-0.236-6.599-24.012-6.599-63.434
		c0-23.023,2.196-46.83,6.526-70.756l0.099-0.549l-0.556-0.039c-0.427-0.029-42.785-3.032-51.373-5.977l-0.422-0.146l-0.191,0.404
		C200.206,342.699,185.981,373.193,185.981,416.14z"/>
</g>
<g id="back-windscreen">
	<path fill="#FFFFFF" d="M430.863,352.051l0.216,0.572c0.093,0.246,9.29,24.995,9.29,62.308c0,21.9-3.124,43.772-9.286,65.009
		l-0.157,0.542l41.718,6.743l0.163-0.333c0.159-0.325,15.862-32.979,15.862-74.451c0-24.25-5.287-46.755-15.714-66.89l-0.167-0.322
		L430.863,352.051z"/>
</g>
<g id="back-left">
	<path fill="#FFFFFF" d="M460.478,503.841l0.024-1.916c3.48,0.02,10.618,0.018,12.588-0.3c1.475-0.238,9.096-1.78,14.32-8.778
		l0.396-0.529l-15.878-6.096l-35.081-5.977c-0.09-0.008-9.036-0.817-13.043-0.835c-2.786-0.012-7.461,0.053-13.932,0.143
		c-8.742,0.121-20.714,0.287-34.739,0.348l-0.608,0.002l4.828,23.921l17.804-0.419v1.43c0,1.854,1.435,3.362,3.206,3.362
		l56.918-1.001C459.043,507.197,460.478,505.689,460.478,503.841z M427.34,485.983c5.825,1.301,10.56,6.012,12.268,7.904
		l-54.61,0.792l-3.44-9.074C387.048,485.506,422.555,484.913,427.34,485.983z"/>
</g>
<g id="left">
	<path fill="#FFFFFF" d="M315.129,480.411c-0.92,0.012-92.164,1.251-113.985,8.526l-0.665,0.221l4.688,6.13l2.223,11.459
		l0.416-0.003c0.166-0.001,6.324-0.046,14.798-0.103c1.208,3.346,3.616,7.538,8.303,12.225l0.161,0.108
		c0.256,0.107,6.313,2.587,9.343,0.091l0.229-0.188l-2.341-12.335c11.67-0.07,23.718-0.131,30.17-0.131
		c11.157,0,74.628-1.417,111.47-2.261l-0.012-0.5l0,0v-0.001l-0.012-0.499c-0.03,0.001-0.061,0.001-0.091,0.002l-4.689-22.75l0,0
		l-0.002-0.5C346.466,480.027,315.439,480.407,315.129,480.411z M236.21,495.533l-0.192-0.115c-0.193-0.116-4.787-2.829-9.147-1.656
		c-1.98,0.532-3.58,1.791-4.802,3.792c-5.149,0.038-10.457,0.077-11.728,0.111c-0.163,0.004-0.697,0.002-0.725-0.204
		c-0.197-1.295,4.5-5.626,6.676-6.177c8.172-2.07,56.231-4.486,66.963-4.763l23.738-0.615l-2.526,10.073l-54.079,1.401
		c0,0-6.24,0.031-13.814,0.076L236.21,495.533z M371.705,495.085c-0.656,0.758-2.453,0.736-3.091,0.664l-50.514-0.003l1.819-10.006
		h49.682c0.958,3.005,1.767,6.101,2.275,8.046C372.026,494.354,371.97,494.779,371.705,495.085z"/>
</g>
<g id="front-left">
	<path fill="#FFFFFF" d="M82.71,465.945c0.872,2.289,9.308,22.839,36.554,39.256c0.304,0.173,7.54,4.233,15.08,4.065h4.018v1.378
		c0,1.877,1.403,3.404,3.146,3.403l55.797-2c1.725,0,3.129-1.527,3.129-3.404v-1.476l7.936-0.456l-1.55-11.543l-5.65-6.603
		l-0.21-0.014c-0.711-0.046-71.61-4.838-111.014-24.208l-7.93-5.046l-0.159,0.689C81.831,460.095,81.314,462.282,82.71,465.945z"/>
</g>
<g id="roof">
	<path fill="#FF3947" d="M244.269,414.49c0,23.204,2.496,46.452,7.419,69.097l0.089,0.406l0.416-0.013
		c1.475-0.046,153.427-4.426,179.35-3.401l0.372,0.015l0.12-0.353c0.096-0.278,9.511-28.238,9.513-65.686c0-0.004,0-0.004,0-0.008
		c0-22.014-3.206-42.961-9.526-62.255l-0.113-0.344l-0.361-0.001c-1.283-0.003-128.937-0.349-179.337-3.643l-0.402-0.026
		l-0.111,0.388C251.622,348.923,244.269,374.977,244.269,414.49z"/>
</g>
<g id="back-right">
	<path fill="#FFFFFF" d="M472.69,346.248l15.783-6.07l-0.396-0.528c-5.226-6.999-12.846-8.541-14.32-8.778
		c-1.968-0.317-9.107-0.319-12.589-0.3l-0.024-1.909c0-1.854-1.434-3.362-3.188-3.362l-56.937-1.001
		c-1.763,0-3.196,1.509-3.196,3.362v1.419c-1.189-0.043-8.699-0.309-18.385-0.531l-0.429-0.01l-4.306,24.007l0.596,0.003
		c23.127,0.101,47.281,0.305,49.106,0.533c4.022,0.503,12.766-0.78,13.146-0.837L472.69,346.248z M385.663,337.819l54.612,0.792
		c-1.706,1.892-6.437,6.602-12.269,7.903c-4.785,1.07-40.292,0.478-45.783,0.378L385.663,337.819z"/>
</g>
<g id="side-glass">
	<path fill="#FFFFFF" d="M208.75,334.832c-0.281,2.043,5.06,6.685,7.422,7.282c8.39,2.126,56.057,4.506,67.182,4.794l25.056,0.648
		l-3.032-12.087l-54.865-1.421c-0.062,0-6.317,0.046-14.145,0l-0.002,0.414l-0.94,0.013l0.019,1.363
		c-0.632,0.377-2.627,1.414-5.598,1.522c-4.703,0.173-6.405-2.972-6.475-3.105l-0.14-0.268l-0.3-0.002
		c-5.322-0.039-11.295-0.192-12.439-0.223C209.109,333.729,208.807,334.418,208.75,334.832z"/>
	<path fill="#FFFFFF" d="M381.619,347.857c1.69,0.033,41.452,0.79,46.731-0.389c7.657-1.71,13.283-8.756,13.519-9.055l0.627-0.795
		l-57.394-0.832l-4.192,11.057L381.619,347.857z"/>
	<path fill="#FFFFFF" d="M317.154,335.688l2.183,12.006h51.244l0.111-0.346c1.02-3.153,1.879-6.44,2.402-8.447
		c0.075-0.287,0.113-0.562,0.113-0.816c0,0,0,0,0-0.001c0-0.636-0.239-1.185-0.691-1.588c-1.196-1.066-3.506-0.834-3.708-0.808
		L317.154,335.688L317.154,335.688z"/>
	<path fill="#FFFFFF" d="M283.229,485.52c-11.124,0.287-58.787,2.667-67.183,4.793c-2.214,0.561-7.435,4.968-7.435,7.098
		c0,0.335,0.117,0.626,0.338,0.841c0.302,0.294,0.765,0.429,1.417,0.412c1.253-0.033,6.884-0.077,12.064-0.115l0.318-0.002
		l0.133-0.289c0.018-0.04,1.853-3.923,6.568-3.75c2.992,0.11,5.153,1.232,5.816,1.621l0.043,2.334l0.494-0.003
		c7.92-0.047,14.59-0.08,14.601-0.08l54.849-1.421l3.032-12.087L283.229,485.52z"/>
	<path fill="#FFFFFF" d="M380.118,484.632l4.194,11.057l57.392-0.833l-0.626-0.795c-0.235-0.299-5.86-7.344-13.519-9.054
		c-5.279-1.18-45.041-0.422-46.731-0.389L380.118,484.632z"/>
	<path fill="#FFFFFF" d="M372.957,494.348c0-0.255-0.038-0.529-0.132-0.887c-0.512-1.959-1.368-5.238-2.384-8.376l-0.112-0.346
		h-51.243l-2.183,12.006l51.597-0.003c0.26,0.03,2.568,0.261,3.766-0.805C372.718,495.533,372.957,494.985,372.957,494.348
		L372.957,494.348z"/>
</g>
<g id="right">
	<path fill="#FFFFFF" d="M231.094,313.091c-4.926,4.926-7.329,9.301-8.472,12.725c-8.29-0.055-14.277-0.099-14.442-0.1l-0.415-0.003
		l-2.223,11.458l-4.688,6.131l0.665,0.222c21.822,7.273,113.065,8.514,113.985,8.525c0.31,0.004,31.318,0.377,59.796,0.5l0.002-0.5
		l4.281-22.755c0.027,0.001,0.055,0.001,0.082,0.002l0.012-0.499v-0.001l0,0l0.012-0.5c-36.631-0.839-99.74-2.247-110.845-2.247
		c-6.503,0-18.694-0.062-30.452-0.133l2.436-12.835l-0.229-0.188c-3.03-2.497-9.087-0.017-9.343,0.09L231.094,313.091z
		 M307.368,346.556l-23.739-0.615c-10.733-0.277-58.796-2.694-66.963-4.763c-2.135-0.541-6.682-4.721-6.682-6.102
		c0-0.026,0.002-0.052,0.005-0.076c0.028-0.206,0.563-0.208,0.725-0.204c1.276,0.033,6.621,0.073,11.791,0.111h0.057
		c1.16,1.69,2.666,2.797,4.495,3.289c4.36,1.172,8.954-1.54,9.147-1.656l0.192-0.115l0.27-1.421
		c7.694,0.045,14.086,0.077,14.086,0.077l54.089,1.401L307.368,346.556z M372.079,337.374c0.265,0.306,0.321,0.732,0.173,1.3
		l-0.019,0.072c-0.49,1.876-1.299,4.97-2.257,7.975h-49.682l-1.819-10.006l50.515-0.003
		C369.625,336.638,371.419,336.614,372.079,337.374z M372.736,338.801L372.736,338.801L372.736,338.801L372.736,338.801z"/>
</g>
<g id="front-right">
	<path fill="#FFFFFF" d="M138.862,322.004v1.378h-4.007c-7.551-0.167-14.787,3.893-15.103,4.071
		c-27.235,16.412-35.67,36.962-36.542,39.251c-1.395,3.659-0.878,5.851-0.854,5.957l0.159,0.689l7.882-5.021
		c39.454-19.396,110.601-24.73,111.315-24.782l0.224-0.017l4.542-5.938l2.301-11.856l-7.846-0.268v-1.464
		c0-1.877-1.404-3.404-3.111-3.404l-55.833-2.001C140.265,318.6,138.862,320.127,138.862,322.004z"/>
</g>
<g id="linework">
	<g>

			<path fill="none" stroke="#000000" stroke-width="1.5" stroke-linecap="round" stroke-linejoin="round" stroke-miterlimit="10" d="
			M147.537,507.859c0.031,1.142-1.432,1.052-2.158,1.095c-1.094,0.063-2.191,0.109-3.286,0.153
			c-3.357,0.134-6.717,0.229-10.075,0.298c-14.898,0.308-48.914-32.028-48.914-46.463v-92.527c0-14.429,34.022-46.771,48.914-46.463
			l8.409,0.175"/>
	</g>
	<path fill="none" stroke="#000000" stroke-width="1.5" stroke-linecap="round" stroke-linejoin="round" stroke-miterlimit="10" d="
		M397.719,328.718v-1.194c0-1.575,1.214-2.859,2.697-2.859l56.927,1.001c1.485,0,2.697,1.285,2.697,2.859v1.694 M460.094,501.632
		l-0.054,2.203c0,1.576-1.211,2.862-2.697,2.862l-56.927,1.001c-1.486,0-2.697-1.285-2.697-2.862v-2.034"/>
	<path fill="none" stroke="#000000" stroke-width="1.5" stroke-linecap="round" stroke-linejoin="round" stroke-miterlimit="10" d="
		M139.278,324.385v-2.631c0-1.599,1.181-2.904,2.628-2.904l55.815,2.001c1.447,0,2.629,1.306,2.629,2.904v1.63 M200.35,506.552
		v2.058c0,1.598-1.18,2.902-2.629,2.902l-55.815,2.001c-1.447,0-2.628-1.304-2.628-2.902v-1.684"/>
	<path fill="none" stroke="#000000" stroke-width="1.5" stroke-linecap="round" stroke-linejoin="round" stroke-miterlimit="10" d="
		M223.343,506.623c-0.132,0.003-0.264,0.006-0.396,0.008l-0.028,0.001l-0.027-0.002c-24.103-0.808-48.276-2.275-72.217,1.497
		l-0.071,0.01l-12.977,0.27c-6.277,0.174-14.314-3.978-22.004-10.003"/>
	<path fill="none" stroke="#000000" stroke-width="1.5" stroke-linecap="round" stroke-linejoin="round" stroke-miterlimit="10" d="
		M239.014,325.922c54.823,1.141,102.639,2.283,157.462,3.424l0.07,0.001l0.068,0.01c8.901,1.364,17.958,1.986,26.959,2.217
		c12.527,0.322,25.12-0.104,37.622-0.877l0.044-0.004l0.043,0.003c2.914,0.061,5.828,0.12,8.741,0.18
		c1.824,0.039,3.625,0.312,5.373,0.823c12.675,3.699,19.873,18.844,23.635,30.069c5.678,16.945,7.757,36.585,7.787,54.354
		c0.03,17.744-1.976,37.36-7.593,54.297c-3.738,11.277-10.888,26.397-23.561,30.194c-1.837,0.549-3.729,0.839-5.645,0.873
		c-3.056,0.063-6.112,0.127-9.168,0.191l-0.044,0.001l-0.044-0.002c-12.215-0.765-24.544-1.268-36.787-1.056
		c-8.912,0.154-18.373,0.645-27.124,2.373l-0.09,0.019l-0.092,0.001c-55.025,1.145-103.044,2.292-158.07,3.438"/>
	<path fill="none" stroke="#000000" stroke-width="1.5" stroke-linecap="round" stroke-linejoin="round" stroke-miterlimit="10" d="
		M118.731,332.667c7.131-5.272,14.09-8.809,18.896-8.709c4.419,0.091,8.837,0.185,13.256,0.276l0.056,0.001l0.055,0.006
		c23.822,3.04,47.738,3.588,71.672,1.493l0.056-0.005l0.059,0.001c0.16,0.003,0.321,0.007,0.481,0.01"/>
	<path fill="none" stroke="#000000" stroke-width="1.5" stroke-linecap="round" stroke-linejoin="round" stroke-miterlimit="10" d="
		M90.424,466.803c-0.457-1.499-0.702-2.887-0.702-4.128V369.69c0-0.642,0.072-1.322,0.21-2.036"/>
	<path fill="none" stroke="#000000" stroke-width="1.5" stroke-linecap="round" stroke-linejoin="round" stroke-miterlimit="10" d="
		M200.893,489.217c-18.919-44.087-18.919-101.983,0-146.072"/>
	<path fill="none" stroke="#000000" stroke-width="1.5" stroke-linecap="round" stroke-linejoin="round" stroke-miterlimit="10" d="
		M431.063,480.079c23.114-77.027-0.017-127.633-0.017-127.633l40.811-6.602c34.82,67.709,0,140.829,0,140.829L431.063,480.079"/>
	<path fill="none" stroke="#000000" stroke-width="1.5" stroke-linecap="round" stroke-linejoin="round" stroke-miterlimit="10" d="
		M433.196,480.214c-58.104,0.759-179.686-2.662-232.303,9.003"/>
	<path fill="none" stroke="#000000" stroke-width="1.5" stroke-linecap="round" stroke-linejoin="round" stroke-miterlimit="10" d="
		M200.893,343.145c54.284,10.74,174.199,8.246,232.303,9.003"/>
	<path fill="none" stroke="#000000" stroke-width="1.5" stroke-linecap="round" stroke-linejoin="round" stroke-miterlimit="10" d="
		M420.415,469.082c-45.286-0.803-90.571,0.5-135.855,4.115c-2.939,0.234-2.626-3.023-2.626-4.56c0-1.459,1.185-2.788,2.626-2.731
		c44.453,1.79,89.812,0.135,135.855-4.115c2.936-0.27,2.625,3.025,2.625,4.56C423.04,467.81,421.859,469.038,420.415,469.082
		L420.415,469.082z M420.415,363.28c-45.286,0.803-90.571-0.501-135.855-4.115c-2.939-0.234-2.626,3.024-2.626,4.558
		c0,1.459,1.186,2.79,2.626,2.733c44.453-1.79,89.812-0.134,135.855,4.115c2.936,0.271,2.625-3.024,2.625-4.561
		C423.04,364.553,421.859,363.323,420.415,363.28z"/>
	<g>

			<path fill="none" stroke="#000000" stroke-width="1.5" stroke-linecap="round" stroke-linejoin="round" stroke-miterlimit="10" d="
			M99.253,346.101c3.326-4.001,10.152-11.225,15.32-12.756l4.661-1.382l-3.526,3.303c-1.054,0.988-2.052,2.032-3,3.119
			c-3.981,4.553-7.089,9.752-10.084,14.961c-1.588,2.761-4.63,8.569-7.2,10.382l-6.259,4.414l-0.277-1.857
			C88.072,360.806,95.928,350.1,99.253,346.101z"/>

			<path fill="none" stroke="#000000" stroke-width="1.5" stroke-linecap="round" stroke-linejoin="round" stroke-miterlimit="10" d="
			M99.253,487.929c3.326,4.001,10.152,11.225,15.32,12.757l4.661,1.38l-3.526-3.303c-1.054-0.988-2.052-2.033-3-3.118
			c-3.981-4.554-7.089-9.754-10.084-14.962c-1.588-2.759-4.63-8.568-7.2-10.381l-6.259-4.414l-0.277,1.855
			C88.072,473.223,95.928,483.93,99.253,487.929z"/>
	</g>

		<line fill="none" stroke="#000000" stroke-width="1.5" stroke-linecap="round" stroke-linejoin="round" stroke-miterlimit="10" x1="294.734" y1="457.623" x2="294.734" y2="375.05"/>

		<line fill="none" stroke="#000000" stroke-width="1.5" stroke-linecap="round" stroke-linejoin="round" stroke-miterlimit="10" x1="399.911" y1="457.623" x2="399.911" y2="375.05"/>
	<path fill="none" stroke="#000000" stroke-width="1.5" stroke-linecap="round" stroke-linejoin="round" stroke-miterlimit="10" d="
		M200.893,489.217"/>
	<path fill="none" stroke="#000000" stroke-width="1.5" stroke-linecap="round" stroke-linejoin="round" stroke-miterlimit="10" d="
		M91.259,457.169"/>
	<path fill="none" stroke="#000000" stroke-width="1.5" stroke-linecap="round" stroke-linejoin="round" stroke-miterlimit="10" d="
		M251.677,482.052c0,0-14-61.25,0.5-133.25"/>
	<polyline fill="none" stroke="#000000" stroke-miterlimit="10" points="201.177,489.802 206.18,496.219 208.181,506.052 	"/>
	<polyline fill="none" stroke="#000000" stroke-miterlimit="10" points="200.927,343.802 205.93,337.385 207.931,327.552 	"/>
	<path fill="none" stroke="#000000" stroke-width="1.5" stroke-linecap="round" stroke-linejoin="round" stroke-miterlimit="10" d="
		M89.977,367.094c0,0,48.87-21.103,111.604-23.915"/>
	<path fill="none" stroke="#000000" stroke-width="1.5" stroke-linecap="round" stroke-linejoin="round" stroke-miterlimit="10" d="
		M89.832,465.859c0,0,49.447,20.506,112.177,23.385"/>

		<line fill="none" stroke="#000000" stroke-linecap="round" stroke-linejoin="round" stroke-miterlimit="10" x1="314.929" y1="480.802" x2="311.179" y2="504.552"/>

		<line fill="none" stroke="#000000" stroke-linecap="round" stroke-linejoin="round" stroke-miterlimit="10" x1="375.173" y1="480.302" x2="379.923" y2="503.052"/>
	<path fill="none" stroke="#000000" stroke-width="1.5" stroke-linecap="round" stroke-linejoin="round" stroke-miterlimit="10" d="
		M381.379,484.733c0,0,41.331-0.802,46.612,0.377c7.573,1.692,13.235,8.876,13.235,8.876l-56.03,0.813L381.379,484.733z"/>
	<path fill="none" stroke="#000000" stroke-width="1.5" stroke-miterlimit="10" d="M319.879,484.522l-2.001,11.006h51.056
		c0,0,4.62,0.532,3.803-2.586c-0.523-1.999-1.372-5.258-2.395-8.42H319.879z"/>
	<path fill="none" stroke="#000000" stroke-width="1.5" stroke-linecap="round" stroke-linejoin="round" stroke-miterlimit="10" d="
		M236.176,497.24c7.921-0.046,14.591-0.08,14.591-0.08l54.469-1.411l2.779-11.08c0,0-9.849,0.255-24.397,0.632
		c-10.993,0.285-58.816,2.686-67.073,4.778c-2.803,0.71-9.909,7.472-5.815,7.366c1.254-0.032,6.498-0.072,11.781-0.111"/>
	<g>
		<path fill="none" stroke="#000000" stroke-width="1.5" stroke-miterlimit="10" d="M240.532,518.335
			c0,0.252-0.284,0.487-0.741,0.599c-2.306,0.565-5.004,0.421-8.017-0.431c-0.196-0.055-0.358-0.134-0.477-0.23
			c-7.253-5.913-11.12-18.472-7.87-21.597c2.5-3.5,8.699-2.676,11.533-1.525c0.27,0.111,0.446,0.271,0.483,0.446
			c0.707,3.245,3.778,17.616,5.078,22.651C240.529,518.278,240.532,518.305,240.532,518.335z"/>
	</g>

		<line fill="none" stroke="#000000" stroke-linecap="round" stroke-linejoin="round" stroke-miterlimit="10" x1="314.929" y1="350.941" x2="311.179" y2="327.191"/>

		<line fill="none" stroke="#000000" stroke-linecap="round" stroke-linejoin="round" stroke-miterlimit="10" x1="375.173" y1="351.441" x2="379.923" y2="328.691"/>
	<path fill="none" stroke="#000000" stroke-width="1.5" stroke-linecap="round" stroke-linejoin="round" stroke-miterlimit="10" d="
		M385.196,336.943l56.031,0.813c0,0-5.662,7.185-13.235,8.876c-5.281,1.18-46.612,0.377-46.612,0.377L385.196,336.943z"/>
	<path fill="none" stroke="#000000" stroke-width="1.5" stroke-miterlimit="10" d="M370.341,347.221
		c1.023-3.162,1.872-6.42,2.395-8.42c0.816-3.119-3.803-2.586-3.803-2.586h-51.056l2.001,11.006H370.341z"/>
	<path fill="none" stroke="#000000" stroke-width="1.5" stroke-linecap="round" stroke-linejoin="round" stroke-miterlimit="10" d="
		M222.51,334.407c-5.283-0.039-10.526-0.078-11.781-0.111c-4.094-0.106,3.011,6.656,5.815,7.366
		c8.258,2.092,56.081,4.494,67.073,4.778c14.549,0.377,24.397,0.632,24.397,0.632l-2.779-11.08l-54.469-1.411
		c0,0-6.67-0.033-14.591-0.08"/>
	<g>
		<path fill="none" stroke="#000000" stroke-width="1.5" stroke-miterlimit="10" d="M240.521,313.494
			c-1.301,5.035-4.371,19.406-5.078,22.651c-0.037,0.176-0.213,0.336-0.483,0.446c-2.834,1.151-9.033,1.975-11.533-1.525
			c-3.25-3.125,0.617-15.684,7.87-21.597c0.119-0.096,0.281-0.176,0.477-0.23c3.013-0.851,5.711-0.995,8.017-0.431
			c0.457,0.112,0.741,0.347,0.741,0.599C240.532,313.437,240.529,313.465,240.521,313.494z"/>
	</g>

		<line fill="none" stroke="#000000" stroke-width="1.5" stroke-miterlimit="10" x1="471.844" y1="486.716" x2="487.177" y2="492.382"/>

		<line fill="none" stroke="#000000" stroke-width="1.5" stroke-miterlimit="10" x1="471.917" y1="345.83" x2="487.25" y2="340.164"/>
</g>
</svg>
