<?xml version="1.0" encoding="utf-8"?>
<!-- Generator: Adobe Illustrator 17.0.0, SVG Export Plug-In . SVG Version: 6.00 Build 0)  -->
<!DOCTYPE svg PUBLIC "-//W3C//DTD SVG 1.1//EN" "http://www.w3.org/Graphics/SVG/1.1/DTD/svg11.dtd">
<svg version="1.1" id="Layer_1" xmlns="http://www.w3.org/2000/svg"  x="0px" y="0px"
	 width="124.133px" height="86.294px" viewBox="102.87 382.091 124.133 86.294"
	 enable-background="new 102.87 382.091 124.133 86.294" xml:space="preserve">
<g id="back-left">
	<path fill="#FFFFFF" d="M129.438,385.781c0,0-0.022-0.365,1.063-0.615c1.085-0.25,4.464-0.525,4.464-0.525L129,409l7.333,16.833
		l-0.333,29l-9.333,0.833c0,0-0.333,7.5-0.667,9.083s-1.25,2.833-4.417,2.833s-6.667,1.333-6.917-3.083S114,455.75,114,455.75
		s-2.417-8.667-2.5-16s0.167-18.667,1.167-21.917S127.188,388.698,129.438,385.781z"/>
</g>
<g id="back-right">
	<path fill="#FF3947" d="M198.986,385.833c0,0-0.083-0.917-1.167-1.167c-1.083-0.25-5.569-0.542-5.569-0.542l6.259,24.637
		l-7.014,17.182l0.005,28.723l10.152,0.5c0,0,0.544,7.47,0.667,9.083c0.181,2.375,1.25,2.833,4.417,2.833
		c3.167,0,6.667,1.333,6.917-3.083s0.667-8.75,0.667-8.75s2.417-8.667,2.5-16c0.083-7.333-0.527-18.577-1.167-21.917
		C214.75,412.625,201.236,388.75,198.986,385.833z"/>
</g>
<g id="back-windscreen">
	<path fill="#FFFFFF" d="M128.813,409.563c0,0,24.854-1.896,34.688-1.896c9.834,0,35.009,1.095,35.009,1.095l-5.134-20.387
		c0,0-30.875-2.438-59.5,0.375L128.813,409.563z"/>
</g>
<g id="back">
	<path fill="#FFFFFF" d="M129.125,409.375c0,0,0.129-0.023,0.388-0.063c3.176-0.494,25.89-3.66,68.996-0.55l-7.014,17.182
		l0.005,28.723c0,0-21.833-1.688-29-1.667c-6.708,0.02-26.5,1.833-26.5,1.833l-0.031-28.889"/>
</g>
<g id="right">
	<path fill="#FFFFFF" d="M225.616,405.216c-2.24-1.845-9.882-1.515-11.332-0.791c-0.949,0.474-0.775,2.006-0.79,2.839
		c-0.015,0.822-0.423,1.181-0.893,1.598c-0.012,0.01-0.537,0.628-0.549,0.638c1.165,1.909,1.95,3.778,2.375,5.688
		c0.115-0.178,0.37-0.942,0.463-1.08c0.697-1.035,1.482-0.44,2.5-0.441c1.386-0.002,2.829-0.114,4.206-0.281
		C225.946,412.859,227.856,407.061,225.616,405.216z"/>
</g>
<g id="side-glass">
	<path fill="#FFFFFF" d="M129.538,385.563c0,0,0.875,2.375,0.625,3.5s-5.562,12.625-6.625,13.563s-3.125,2-4.75,2
		S129.538,385.563,129.538,385.563z"/>
	<path fill="#FFFFFF" d="M198.834,385.594c0,0-0.313,2.5-0.063,3.625s5.563,12.625,6.625,13.563c1.062,0.938,3.125,2,4.75,2
		S198.834,385.594,198.834,385.594z"/>
</g>
<g id="left">
	<path fill="#FFFFFF" d="M117.039,407.945c-0.471-0.417-0.878-0.775-0.893-1.598c-0.015-0.833,0.158-2.365-0.79-2.839
		c-1.451-0.724-9.092-1.054-11.332,0.791s-0.33,7.643,4.02,8.17c1.377,0.167,2.82,0.279,4.206,0.281
		c0.916,0.001,1.887-0.44,2.531,0.219c1.406-2.656,1.656-3.156,2.688-4.781C117.419,408.142,117.088,407.988,117.039,407.945z"/>
</g>
<g id="roof">
	<path id="r3" fill="#FFFFFF" d="M134.964,384.642l-1.089,4.108c0,0,29-2.5,59.5-0.375l-1.125-4.251
		C192.25,384.124,158.625,380.875,134.964,384.642z"/>
</g>
<g>
	<g>
		<g>
			<path fill="#010101" stroke="#010101" stroke-miterlimit="10" d="M144.095,438.64"/>
		</g>
		<g>
			<g>
				<path fill="#010101" d="M132.707,443.011l-0.036-0.002c-2.601-0.132-6.043-0.337-9.525-0.754
					c-0.918-0.116-1.677-0.231-2.388-0.363l-0.239-0.048c-0.714-0.142-1.453-0.288-2.176-0.637
					c-0.401-0.215-0.733-0.598-1.025-1.177c-0.203-0.412-0.37-0.884-0.514-1.446c-0.233-0.928-0.378-1.915-0.442-3.018l-0.015-0.26
					l0.293-0.066c3.409,0.179,6.717,0.617,9.222,0.979l0.289,0.047c1.408,0.233,2.864,0.473,4.316,0.915
					c0.491,0.134,0.974,0.435,1.286,0.801c0.31,0.345,0.575,0.785,0.807,1.341c0.355,0.882,0.582,1.859,0.693,2.989
					c0.034,0.342-0.173,0.645-0.471,0.692L132.707,443.011z M116.906,435.78c0.069,0.972,0.204,1.849,0.411,2.675
					c0.135,0.525,0.29,0.963,0.475,1.34c0.24,0.476,0.499,0.785,0.791,0.942c0.653,0.313,1.327,0.447,2.04,0.589l0.236,0.047
					c0.697,0.129,1.446,0.243,2.352,0.358c3.46,0.414,6.887,0.619,9.487,0.751c0.012-0.01,0.038-0.056,0.032-0.119
					c-0.106-1.079-0.321-2.009-0.656-2.84c-0.207-0.498-0.442-0.889-0.716-1.194c-0.294-0.347-0.727-0.558-1.036-0.643
					c-1.426-0.433-2.864-0.671-4.255-0.901l-0.284-0.047C123.356,436.389,120.167,435.966,116.906,435.78z"/>
			</g>
		</g>
		<g>
			<path d="M180.314,421.537h-31.973v-10.613h31.973V421.537z M149.044,420.834h30.567v-9.207h-30.567V420.834z"/>
		</g>
		<g>
			<path fill="#010101" d="M210.558,468.385h-5.707c-1.813,0-3.29-1.495-3.31-3.341l-0.917-9.056l1.399-0.141l0.924,9.159
				c0,1.088,0.854,1.972,1.904,1.972h5.707c1.049,0,1.904-0.884,1.904-1.972l0.003-0.071l0.92-9.089l1.4,0.141l-0.917,9.056
				C213.848,466.889,212.371,468.385,210.558,468.385z"/>
		</g>
		<g>
			<path fill="#010101" d="M123.3,468.385h-5.707c-1.813,0-3.29-1.496-3.31-3.341l-0.917-9.056l1.4-0.141l0.924,9.159
				c0,1.088,0.854,1.972,1.904,1.972h5.707c1.05,0,1.904-0.884,1.904-1.972l0.003-0.071l0.92-9.089l1.399,0.141l-0.917,9.056
				C126.59,466.889,125.112,468.385,123.3,468.385z"/>
		</g>
		<g>
			<path fill="#010101" d="M183.914,429.162h-40.365c-5.88,0-6.573-0.987-7.58-3.218c-0.078-0.173-0.16-0.355-0.25-0.545
				c-1.193-2.526-4.526-9.812-5.566-12.46c-0.997-2.538-1.56-3.335-1.566-3.343c-0.11-0.152-0.131-0.352-0.054-0.524
				c0.076-0.171,0.237-0.29,0.423-0.31c0.158-0.018,15.997-1.72,36.362-1.72c11.965,0,23.132,0.579,33.191,1.72
				c0.187,0.021,0.348,0.141,0.424,0.313c0.076,0.173,0.053,0.372-0.059,0.524c-0.003,0.005-0.567,0.802-1.564,3.34
				c-1.038,2.64-4.372,9.93-5.566,12.46c-0.089,0.19-0.171,0.372-0.249,0.545C190.487,428.176,189.794,429.162,183.914,429.162z
				 M129.88,409.729c0.289,0.55,0.713,1.445,1.255,2.826c1.032,2.626,4.35,9.878,5.538,12.395c0.092,0.196,0.177,0.382,0.257,0.561
				c0.829,1.837,1.172,2.597,6.618,2.597h40.365c5.447,0,5.79-0.76,6.619-2.597c0.08-0.179,0.165-0.365,0.258-0.561
				c1.189-2.52,4.509-9.776,5.538-12.395c0.545-1.387,0.97-2.284,1.259-2.833c-9.81-1.077-20.661-1.624-32.269-1.624
				C147.62,408.098,133.354,409.387,129.88,409.729z"/>
		</g>
		<g>
			<g>
				<path fill="#010101" d="M194.941,443.011l-0.081-0.008c-0.294-0.046-0.501-0.35-0.466-0.691c0.111-1.13,0.338-2.106,0.692-2.986
					c0.233-0.559,0.498-0.999,0.812-1.349c0.307-0.361,0.79-0.662,1.289-0.798c1.444-0.439,2.899-0.68,4.306-0.913l0.286-0.047
					c2.511-0.362,5.818-0.8,9.189-0.979l0.293-0.016l0.023,0.341c-0.065,1.104-0.209,2.091-0.442,3.018
					c-0.142,0.56-0.31,1.032-0.512,1.444c-0.293,0.582-0.625,0.965-1.016,1.174c-0.733,0.353-1.471,0.5-2.185,0.642l-0.236,0.047
					c-0.714,0.133-1.472,0.249-2.39,0.365c-3.482,0.417-6.925,0.622-9.537,0.755L194.941,443.011z M210.743,435.778
					c-3.247,0.186-6.446,0.61-8.883,0.961l-0.28,0.047c-1.391,0.229-2.829,0.467-4.247,0.898c-0.316,0.087-0.749,0.298-1.038,0.639
					c-0.279,0.31-0.514,0.702-0.722,1.202c-0.334,0.829-0.549,1.758-0.656,2.837c-0.006,0.062,0.018,0.106,0.032,0.119
					c2.61-0.133,6.033-0.338,9.489-0.751c0.906-0.115,1.654-0.229,2.354-0.359l0.233-0.046c0.713-0.142,1.386-0.276,2.05-0.595
					c0.282-0.151,0.541-0.46,0.782-0.939c0.185-0.377,0.341-0.816,0.474-1.339C210.539,437.627,210.673,436.75,210.743,435.778z"/>
			</g>
		</g>
		<g>
			<path fill="#010101" d="M136.853,426.373c-0.011,0-0.022-0.001-0.033-0.002l-21.19-2.631c-0.136-0.017-0.237-0.135-0.231-0.273
				c0.275-6.512,2.461-8.255,4.218-9.656l0.316-0.253c1.828-1.483,9.352-3.019,9.671-3.084c0.141-0.034,0.282,0.063,0.311,0.206
				c0.029,0.143-0.064,0.282-0.206,0.31c-0.077,0.016-7.715,1.576-9.444,2.977l-0.319,0.256c-1.737,1.385-3.703,2.952-4.009,9.023
				l20.948,2.601c0.145,0.018,0.247,0.15,0.229,0.294C137.098,426.276,136.984,426.373,136.853,426.373z"/>
		</g>
		<g>
			<path fill="#010101" d="M191.019,426.373c-0.131,0-0.245-0.098-0.262-0.231c-0.018-0.144,0.084-0.276,0.229-0.294l20.947-2.601
				c-0.306-6.07-2.271-7.637-4.008-9.022l-0.32-0.257c-1.728-1.402-9.367-2.961-9.444-2.977c-0.143-0.029-0.235-0.168-0.206-0.31
				c0.029-0.142,0.17-0.242,0.31-0.206c0.319,0.065,7.843,1.601,9.672,3.084l0.317,0.253c1.756,1.401,3.942,3.144,4.217,9.655
				c0.005,0.137-0.095,0.255-0.231,0.273l-21.19,2.631C191.04,426.372,191.029,426.373,191.019,426.373z"/>
		</g>
		<g>
			<path fill="#010101" d="M117.774,457.443c-3.181,0-4.26-1.52-4.373-1.693l-0.047-0.084c-3.926-8.351-1.774-33.743-1.68-34.819
				c0.601-6.918,5.011-13.606,5.415-14.207c1.178-2.24,10.741-20.35,12.853-22.036c2.146-1.713,28.117-2.394,33.301-2.513
				c5.614,0.087,33.596,0.603,35.744,2.318c2.05,1.636,10.989,18.494,12.833,21.999c1.021,1.377,4.236,6.217,5.154,13.589
				c0.032,0.252,2.401,26.676-1.606,35.199l-0.047,0.084c-0.113,0.173-1.192,1.693-4.373,1.693c-0.923,0-1.946-0.132-3.042-0.392
				c-1.152-0.13-25.012-2.815-44.207-2.98c-18.057-0.148-42.664,3.418-42.905,3.453
				C119.747,457.308,118.709,457.443,117.774,457.443z M114.599,455.008c0.13,0.159,0.947,1.029,3.175,1.029
				c0.825,0,1.752-0.122,2.756-0.363c0.306-0.048,25.029-3.633,43.183-3.48c19.651,0.169,44.152,2.966,44.397,2.994l0.084,0.014
				c1.004,0.241,1.931,0.363,2.756,0.363c2.203,0,3.026-0.852,3.177-1.033c3.528-7.66,1.766-31.849,1.454-34.363
				c-0.88-7.069-3.951-11.666-4.901-12.942l-0.003,0.002l-0.207-0.275l0.037-0.029c-4.251-8.067-10.986-20.293-12.394-21.418
				c-1.443-0.977-19.04-1.766-34.861-2.01c-14.674,0.338-31.047,1.226-32.433,2.208c-1.43,1.142-8.26,13.558-12.5,21.624
				l-0.042,0.069c-0.046,0.067-4.615,6.846-5.2,13.571C113.053,421.228,110.872,446.927,114.599,455.008z"/>
		</g>
		<g>
			<path fill="#010101" d="M129.014,409.815c-0.039,0-0.079-0.004-0.119-0.014c-0.284-0.065-0.461-0.349-0.395-0.632l5.582-24.132
				c0.066-0.284,0.35-0.462,0.632-0.395c0.284,0.065,0.461,0.349,0.395,0.632l-5.582,24.132
				C129.471,409.65,129.254,409.815,129.014,409.815z"/>
		</g>
		<g>
			<path fill="#010101" d="M198.449,409.815c-0.234,0-0.448-0.158-0.51-0.396l-6.219-24.132c-0.073-0.282,0.098-0.57,0.379-0.643
				c0.282-0.071,0.569,0.097,0.643,0.379l6.219,24.132c0.073,0.282-0.098,0.57-0.379,0.643
				C198.537,409.809,198.493,409.815,198.449,409.815z"/>
		</g>
		<g>
			<path fill="#010101" d="M212.117,456.168c-0.17-0.096-17.087-9.661-23.873-9.661l-48.905,1.001
				c-6.787,0-21.701,8.563-21.871,8.66l-0.695-1.222c0.708-0.402,15.411-8.844,22.566-8.844l48.905-1.001
				c7.155,0,23.86,9.442,24.568,9.845L212.117,456.168z"/>
		</g>
		<g>
			<path fill="#010101" d="M218.231,414.152c-1.437,0-2.598-0.481-3.451-1.429c-1.687-1.877-1.541-4.972-1.491-5.609
				c-0.065-0.378-0.178-1.483,0.519-2.375c0.59-0.755,1.563-1.138,2.892-1.138c0.35,0,0.729-0.005,1.128-0.012
				c0.452-0.007,0.928-0.014,1.417-0.014c2.322,0,7.758,0,7.758,3.973c0,4.128-3.061,6.473-8.62,6.602L218.231,414.152z
				 M219.245,404.982c-0.481,0-0.95,0.007-1.395,0.014c-0.407,0.006-0.794,0.012-1.15,0.012c-0.873,0-1.474,0.201-1.783,0.597
				c-0.407,0.52-0.238,1.294-0.236,1.302l0.03,0.119l-0.013,0.124c-0.003,0.03-0.298,3.05,1.131,4.635
				c0.583,0.646,1.369,0.96,2.403,0.96l0.119-0.001c3.306-0.076,7.246-1.04,7.246-5.196
				C225.596,405.749,223.697,404.982,219.245,404.982z"/>
		</g>
		<g>
			<path fill="#010101" d="M111.642,413.232L111.642,413.232l-0.153-0.001c-5.558-0.13-8.619-2.474-8.619-6.602
				c0-3.973,5.435-3.973,7.755-3.973c0.489,0,0.966,0.007,1.418,0.014c0.4,0.006,0.779,0.012,1.129,0.012
				c1.329,0,2.301,0.383,2.891,1.137c0.697,0.892,0.585,1.997,0.519,2.375c0.05,0.637,0.196,3.733-1.492,5.61
				C114.239,412.751,113.078,413.232,111.642,413.232z M110.625,404.062c-4.45,0-6.349,0.767-6.349,2.566
				c0,4.155,3.94,5.119,7.246,5.196l0.119,0.001c0,0,0,0,0.001,0c1.035,0,1.821-0.314,2.404-0.963
				c1.19-1.323,1.218-3.792,1.129-4.632l-0.013-0.124l0.03-0.12c0-0.003,0.176-0.784-0.241-1.309
				c-0.311-0.392-0.91-0.591-1.778-0.591c-0.356,0-0.743-0.005-1.15-0.012C111.577,404.069,111.106,404.062,110.625,404.062z"/>
		</g>
		<g>
			<path fill="#010101" d="M193.139,388.723c-0.223-0.01-22.382-0.945-29.726-0.945c-7.23,0-29.047,0.935-29.266,0.945l-0.023-0.527
				c0.22-0.009,22.048-0.945,29.289-0.945c7.355,0,29.525,0.936,29.748,0.945L193.139,388.723z"/>
		</g>
		<g>
			<path fill="#010101" d="M119.115,404.792c-0.11,0-0.173-0.005-0.177-0.005c-0.145-0.013-0.252-0.14-0.24-0.285
				c0.012-0.146,0.137-0.251,0.285-0.241c0.14,0.013,3.387,0.237,5.419-3.392c2.152-3.844,5.045-10.117,5.336-11.572
				c0.291-1.457-0.298-3.846-0.304-3.87c-0.035-0.141,0.05-0.284,0.192-0.32c0.139-0.03,0.285,0.051,0.32,0.192
				c0.026,0.102,0.624,2.528,0.309,4.101c-0.305,1.523-3.178,7.771-5.393,11.728C122.936,404.567,119.879,404.792,119.115,404.792z"
				/>
		</g>
		<g>
			<path fill="#010101" d="M209.665,404.792c-0.764,0-3.821-0.225-5.747-3.664c-2.027-3.62-5.064-10.081-5.394-11.728
				c-0.314-1.573,0.284-3.999,0.309-4.101c0.036-0.141,0.176-0.223,0.32-0.192c0.141,0.036,0.227,0.179,0.192,0.32
				c-0.006,0.024-0.595,2.413-0.304,3.87c0.29,1.454,3.183,7.727,5.336,11.572c2.04,3.642,5.387,3.398,5.419,3.392
				c0.147-0.009,0.273,0.095,0.286,0.24c0.012,0.145-0.095,0.273-0.24,0.286C209.838,404.787,209.775,404.792,209.665,404.792z"/>
		</g>
	</g>
</g>
</svg>
