<?xml version="1.0" encoding="utf-8"?>
<!-- Generator: Adobe Illustrator 17.0.0, SVG Export Plug-In . SVG Version: 6.00 Build 0)  -->
<!DOCTYPE svg PUBLIC "-//W3C//DTD SVG 1.1//EN" "http://www.w3.org/Graphics/SVG/1.1/DTD/svg11.dtd">
<svg version="1.1" id="Layer_1" xmlns="http://www.w3.org/2000/svg"  x="0px" y="0px"
	 width="258.747px" height="87.156px" viewBox="0 0 258.747 87.156" enable-background="new 0 0 258.747 87.156"
	 xml:space="preserve">
<g id="back-right">
	<path fill="#FFFFFF" d="M69.949,72.334c0,0,2.333-10.417-3.248-19.036l0.872-4.297c0,0-7.375-13.25-8.75-20.5
		s-1.666-14.626-0.167-16.417l-2.083-3.083c0,0-12.75,6.375-17.875,7.875c-5.125,1.5-17.5,5.375-24.75,5c0,0-3.375-2.125-4.5,0
		s-1.27,5.54-1.27,5.54s-5.1,6.03-3.04,10.62c0,0-5.16,1.063-4.3,9.514c0.86,8.451,0.86,8.451,0.86,8.451s0.125,5.375,5.625,7.625
		c5.5,2.25,21.625,6.25,21.625,6.25s2.235,17.509,20.25,16.5c15.625-0.875,17.001-14.042,17.001-14.042H69.949z"/>
</g>
<g id="front-windscreen">
	<path fill="#FFFFFF" d="M199.116,27.5c0,0-31.643-15.077-52.655-21.48l-2.398,1.589c0,0,34.011,13.107,43.469,17.641
		C187.532,25.251,193.699,28.417,199.116,27.5z"/>
</g>
<g id="right">
	<path fill="#FFFFFF" d="M146.461,6.02c0,0-16.51-6.306-39.51-5.056s-42.194,3.756-50.5,8.25l2.083,3.083c0,0-1.335,0.203-1,9.667
		c1.165,8.661,3.373,14.328,9.667,27.667l-0.5,3.667c0,0,5.602,8.459,3.051,18.98l108.093,2.312l-0.044-6.148
		c0,0,3.9-4.477,6.4-16.602s3.415-19.54-1.585-23.831l1-4.667c0,0-12.217-5.167-16.541-6.924
		c-5.585-2.269-23.011-8.807-23.011-8.807L146.461,6.02z M118.325,28.714L111.45,8.589c0,0,24.75,1.125,38.75,7
		s22.875,10.875,25.75,13.25s5.5,4.375-2.25,3.875S118.325,28.714,118.325,28.714z M105.7,7.964l4.5,20.625
		c0,0-18.875-1.375-31.5-1.875s-12.375-2.207-14.75-8s2.375-6,9.875-7.875S105.7,7.964,105.7,7.964z"/>
</g>
<g id="side-glass">
	<path fill="#FF3947" d="M118.325,28.714L110.95,8.089c0,0,24.75,1.125,38.75,7s22.797,10.973,25.75,13.25
		c4.749,3.661,5.166,5.078-2.584,4.578S118.325,28.714,118.325,28.714z"/>
	<path fill="#FF3947" d="M110.2,28.589l-4.459-20.797c0,0-24.916,0.672-32.416,2.547s-12.25,2.082-9.875,7.875
		s2.249,7.995,14.874,8.495S110.2,28.589,110.2,28.589z"/>
</g>
<g id="front-right">
	<path fill="#FFFFFF" d="M177.801,68.442l-0.269,6.058l11.667,0.417c0,0,4.542,11.05,19.542,11.05c12.375-0.5,16-12.875,16-12.875
		s22.125-2,26.5-1.75s5.875-2.75,6.375-6.125c0.5-3.375,1-7,1.125-9.375s-1.625-4.875-2.625-5.75c-1-0.875-4.288-4.531-5.644-6.328
		s-2.606-4.047-7.731-5.547s-26.208-8.695-43.354-10.785c0,0-6.021,0.41-10.896-1.84s-4.875-2.25-4.875-2.25l-1,4.667
		c0,0,5.875,3.833,2.125,20.083C181.498,62.144,181.545,61.894,177.801,68.442z"/>
</g>
<g>
	<g>
		<g>
			<path fill="#010101" d="M0,45.852c0-6.034,2.851-7.875,4.139-8.398c-0.019-0.34-0.027-0.677-0.027-1.009
				c0-5.582,2.561-8.65,3.411-9.515C7.507,26.641,7.5,26.366,7.5,26.103c0-0.001,0-0.001,0-0.001c0-2.45,0.668-4.129,1.985-4.991
				c1.68-1.099,3.803-0.43,4.4-0.205c1.794-0.071,20.111-0.987,33.559-8.713C62.593,3.491,83.51,1.259,103.857,0.145
				c19.223-1.053,37.237,3.93,42.3,5.483c0.237,0.071,24.48,7.355,53.654,21.246c14.093,1.492,34.748,8.12,42.538,10.619
				c1.01,0.324,1.796,0.576,2.315,0.735c4.382,1.349,6.017,4.204,6.284,4.724c0.435,0.57,4.317,5.619,6.543,7.394
				c1.929,1.538,2.217,4.012,2.217,5.349c0,0.496-0.039,0.856-0.054,0.972c-0.022,0.5-0.269,5.726-0.983,9.389
				c-0.741,3.804-3.637,6.321-7.204,6.265c-2.886-0.047-21.259,0.986-21.444,0.996l-1.605,0.027l0.198-0.873
				c0.382-1.683,0.576-3.398,0.576-5.096c0-12.628-10.274-22.903-22.903-22.903s-22.902,10.274-22.902,22.903
				c0,1.956,0.248,3.9,0.737,5.78l0.234,0.9l-0.929-0.019c-3.26-0.068-80.204-1.658-111.715-1.36
				c-0.485,0.005-0.959,0.006-1.431,0.008l-1.436,0.006l0.224-0.88c0.468-1.843,0.706-3.747,0.706-5.66
				c0-12.628-10.274-22.902-22.902-22.902c-12.629,0-22.902,10.274-22.902,22.902c0,0.418,0.012,0.833,0.035,1.246l0.044,0.834
				l-0.828-0.098c-3.247-0.381-8.362-1.292-14.298-3.469c-8.061-2.956-8.245-6.601-8.55-12.642
				c-0.062-1.229-0.133-2.623-0.274-4.139C0.034,47.176,0,46.494,0,45.852z M5.631,38.529l-0.626,0.115
				c-0.141,0.029-3.599,0.813-3.599,7.208c0,0.599,0.032,1.237,0.093,1.897c0.144,1.546,0.215,2.955,0.278,4.198
				c0.303,6.012,0.442,8.756,7.63,11.392c5.529,2.027,10.366,2.913,13.161,3.289c-0.003-0.16-0.005-0.321-0.005-0.482
				c0-13.404,10.905-24.309,24.309-24.309s24.309,10.905,24.309,24.309c0,1.727-0.183,3.448-0.543,5.127
				c0.35-0.001,0.703-0.003,1.06-0.006c30.078-0.284,101.491,1.15,110.847,1.342c-0.376-1.713-0.567-3.471-0.567-5.235
				c0-13.404,10.905-24.309,24.309-24.309s24.309,10.905,24.309,24.309c0,1.507-0.144,3.026-0.428,4.527
				c2.105-0.119,18.514-1.032,21.318-0.987c2.383,0.038,5.101-1.533,5.802-5.128c0.714-3.666,0.957-9.157,0.96-9.211l0.007-0.071
				c0.001-0.006,0.484-3.363-1.643-5.058c-2.486-1.982-6.651-7.464-6.827-7.697l-0.078-0.13c-0.052-0.11-1.361-2.786-5.459-4.047
				c-0.522-0.161-1.314-0.415-2.331-0.741c-7.774-2.495-28.424-9.121-42.374-10.572l-0.121-0.013l-0.109-0.052
				C170.196,14.32,145.989,7.045,145.748,6.973c-5.012-1.537-22.825-6.465-41.816-5.425c-20.174,1.106-40.895,3.309-55.79,11.864
				c-14.395,8.27-34.164,8.899-34.362,8.904l-0.157,0.004l-0.144-0.063c-0.018-0.008-1.938-0.818-3.231,0.034
				c-0.891,0.586-1.344,1.869-1.344,3.811v0.001c0,0.33,0.014,0.681,0.041,1.056l0.027,0.356l-0.271,0.231
				c-0.03,0.025-3.184,2.83-3.184,8.698c0,0.474,0.02,0.961,0.061,1.45L5.631,38.529z"/>
		</g>
		<g>
			<path fill="#010101" d="M229.85,73.016l0.336-0.015"/>

				<rect x="229.845" y="72.649" transform="matrix(0.9991 -0.0429 0.0429 0.9991 -2.9199 9.9345)" fill="#010101" width="0.336" height="0.704"/>
		</g>
		<g>
			<path fill="#010101" d="M25.067,68.398c-0.008-0.163-0.011-0.326-0.018-0.489c0.155,0.039,0.31,0.081,0.465,0.12L25.067,68.398z"
				/>
			<polygon fill="#010101" points="24.678,67.453 26.273,67.858 24.751,69.115 			"/>
		</g>
		<g>
			<path fill="#010101" d="M183.494,74.103c-0.006-0.123-0.009-0.247-0.014-0.371c0.124,0.008,0.247,0.014,0.371,0.022
				L183.494,74.103z"/>
			<polygon fill="#010101" points="183.114,73.356 184.66,73.456 183.182,74.9 			"/>
		</g>
		<g>
			<path fill="#010101" d="M70.566,72.075c0.129-0.003,0.258-0.004,0.387-0.007c-0.006,0.129-0.009,0.259-0.015,0.388L70.566,72.075
				z"/>
			<polygon fill="#010101" points="69.748,71.74 71.32,71.708 71.245,73.276 			"/>
		</g>
		<g>
			<path d="M57.263,17.253c0-0.929,0.037-1.854,0.109-2.749c0.161-1.347,0.703-2.491,1.526-3.236
				c0.89-0.831,1.985-1.327,2.942-1.728c2.169-0.9,4.392-1.437,6.281-1.844c3.698-0.789,7.76-1.443,12.787-2.059
				c9.258-1.101,17.703-1.571,25.817-1.436c11.615,0.15,21.597,1.3,30.513,3.516c4.574,1.117,9.375,2.631,14.675,4.629
				c4.619,1.744,9.382,3.765,14.157,6.007c4.17,1.979,9.048,4.382,13.609,7.204c0.897,0.573,2.064,1.347,3.178,2.274
				c1.15,0.948,1.992,2.073,2.438,3.252c0.491,1.246,0.702,2.532,0.893,3.848c0.184,1.316,0.279,2.627,0.284,3.899v0.104
				c0,2.276-0.269,4.698-0.847,7.62c-0.44,2.217-1.031,4.598-1.861,7.491c-1.655,5.665-3.359,10.263-5.364,14.47
				c-0.1,0.212-0.317,0.343-0.55,0.335c-18.301-0.62-35.181-1.097-51.609-1.459l-39.026-0.714c-2.037-0.058-4.144-0.117-6.238-0.501
				c-1.283-0.243-2.379-0.668-3.26-1.265c-1.069-0.714-1.879-1.658-2.464-2.401c-1.171-1.522-2.167-3.143-3.129-4.709l-0.463-0.751
				c-1.069-1.763-2.171-3.642-3.275-5.589c-2.027-3.599-4.156-7.453-5.959-11.525c-0.798-1.796-1.407-3.674-1.996-5.49l-0.211-0.65
				c-0.703-2.229-1.263-4.283-1.713-6.283C57.671,23.733,57.263,20.377,57.263,17.253z M185.77,38.933v-0.102
				c-0.004-1.241-0.097-2.52-0.277-3.803c-0.184-1.272-0.388-2.513-0.853-3.694c-0.404-1.069-1.175-2.092-2.23-2.964
				c-1.086-0.903-2.229-1.661-3.104-2.221c-4.527-2.8-9.383-5.192-13.536-7.162c-4.757-2.234-9.503-4.248-14.105-5.985
				c-5.273-1.988-10.046-3.494-14.594-4.604c-8.865-2.203-18.794-3.346-30.356-3.495c-8.083-0.135-16.497,0.333-25.723,1.43
				c-5.004,0.614-9.047,1.265-12.723,2.05c-1.858,0.4-4.043,0.927-6.158,1.805c-0.899,0.376-1.928,0.841-2.737,1.597
				c-0.945,0.856-1.222,2.114-1.303,2.788c-0.304,3.773,0.052,7.953,1.123,12.786c0.444,1.979,0.999,4.014,1.695,6.221l0.211,0.648
				c0.584,1.798,1.187,3.658,1.97,5.422c1.79,4.044,3.91,7.881,5.928,11.464c1.101,1.94,2.199,3.813,3.263,5.568l0.461,0.751
				c0.954,1.551,1.939,3.155,3.085,4.646c0.551,0.698,1.312,1.589,2.301,2.249c0.803,0.544,1.812,0.933,2.997,1.157
				c2.039,0.374,4.118,0.433,6.13,0.49l0.306,0.008l38.714,0.705c16.412,0.362,33.274,0.838,51.543,1.456
				c1.974-4.154,3.656-8.698,5.291-14.294c0.823-2.872,1.41-5.235,1.847-7.432C185.505,43.541,185.77,41.163,185.77,38.933z"/>
		</g>
		<g>
			<path d="M63.197,15.556c0-0.095,0.002-0.189,0.007-0.284c0.025-0.564,0.174-1.379,0.741-2.04
				c0.499-0.593,1.163-0.946,1.684-1.186c0.593-0.271,1.205-0.479,1.778-0.663c2.791-0.849,5.687-1.356,8.486-1.847l0.906-0.159
				c3.002-0.507,6.189-0.957,9.476-1.339c6.452-0.746,12.885-1.103,19.118-1.058c0.417,0.001,0.777,0.288,0.874,0.695
				c1.09,4.551,2.165,9.186,3.204,13.669c0.503,2.169,1.005,4.337,1.511,6.504c0.015,0.067,0.022,0.133,0.022,0.196
				c-0.03,0.501-0.422,0.849-0.877,0.823c-10.38-0.627-19.743-1.2-29.23-1.861l-0.209-0.016c-2.328-0.174-4.735-0.355-7.103-0.578
				c-1.379-0.137-2.533-0.277-3.694-0.518c-1.553-0.328-2.721-0.88-3.571-1.691c-0.852-0.79-1.491-1.857-2.007-3.354
				c-0.404-1.256-0.711-2.437-0.94-3.622C63.285,16.738,63.197,16.161,63.197,15.556z M105.268,8.035
				C99.112,7.996,92.764,8.35,86.396,9.087c-3.269,0.38-6.438,0.827-9.417,1.33l-0.904,0.159c-2.768,0.485-5.63,0.986-8.352,1.814
				c-0.535,0.172-1.112,0.369-1.654,0.615c-0.42,0.194-0.952,0.474-1.32,0.911c-0.374,0.436-0.473,1.005-0.491,1.405
				c-0.028,0.618,0.062,1.213,0.152,1.715c0.22,1.135,0.516,2.276,0.904,3.481c0.453,1.316,1.004,2.247,1.728,2.919
				c0.71,0.677,1.711,1.142,3.064,1.427c1.114,0.231,2.237,0.367,3.58,0.501c2.355,0.221,4.758,0.402,7.081,0.576l0.205,0.015
				c9.39,0.654,18.665,1.222,28.923,1.842c-0.483-2.033-0.968-4.124-1.453-6.215C107.413,17.139,106.348,12.546,105.268,8.035z"/>
		</g>
		<g>
			<path d="M228.256,40.945l0.013-0.13c0.072-0.35,0.416-0.577,0.767-0.505c3.483,0.711,8.077,1.672,12.719,2.797
				c1.239,0.306,2.243,0.569,3.162,0.825l0.443,0.128c0.894,0.257,1.819,0.523,2.713,0.943c1.059,0.626,1.814,1.502,2.499,2.345
				c0.669,0.847,1.293,1.768,1.86,2.738l0.048,0.082l0.005,0.266l-0.228,0.233l-0.174,0.005c-2.182,0.058-4.421,0.02-6.635-0.115
				c-1.836-0.12-4.25-0.323-6.655-0.825c-0.953-0.209-2.188-0.529-3.311-1.169c-0.946-0.525-1.862-1.193-2.798-2.042
				c-1.605-1.476-3.06-3.234-4.328-5.225C228.291,41.189,228.256,41.069,228.256,40.945z M251.549,49.98
				c-0.474-0.772-0.986-1.509-1.527-2.193c-0.642-0.79-1.349-1.612-2.279-2.164c-0.813-0.38-1.67-0.626-2.578-0.887l-0.441-0.128
				c-0.908-0.253-1.906-0.513-3.136-0.817c-4.575-1.108-9.107-2.058-12.569-2.766c1.218,1.896,2.611,3.57,4.14,4.977
				c0.893,0.81,1.767,1.448,2.668,1.948c1.043,0.595,2.212,0.897,3.113,1.095c2.359,0.492,4.741,0.692,6.553,0.811
				C247.505,49.976,249.541,50.018,251.549,49.98z"/>
		</g>
		<g>
			<path d="M240.871,62.602c0-0.157,0.029-0.445,0.219-0.618c0.096-0.087,0.217-0.129,0.341-0.117
				c2.722,0.236,4.997,0.507,7.163,0.852c1.15,0.198,2.373,0.423,3.62,0.797c0.302,0.094,0.621,0.201,0.938,0.343
				c0.167,0.076,0.332,0.158,0.498,0.269c0.212,0.128,0.412,0.352,0.547,0.623c0.518,0.865,0.81,2.529,0.676,3.977l-0.03,0.319
				l-0.341,0.038c-0.973,0.121-2.057,0.189-3.474,0.218c-1.112,0.023-2.212-0.019-3.522-0.089c-1.282-0.117-2.428-0.244-3.615-0.635
				l-0.11-0.04c-0.284-0.106-0.577-0.214-0.935-0.513c-0.345-0.354-0.642-0.817-0.913-1.401c-0.479-1.054-0.831-2.343-1.046-3.833
				c-0.007-0.052-0.012-0.104-0.013-0.157L240.871,62.602z M241.574,62.585c0,0.005,0,0.012,0,0.017h-0.352l0.352,0.016
				c0.001,0.026,0.003,0.054,0.007,0.078c0.206,1.42,0.539,2.645,0.989,3.636c0.237,0.51,0.49,0.909,0.752,1.18
				c0.238,0.195,0.443,0.271,0.702,0.367l0.1,0.037c1.102,0.361,2.207,0.484,3.431,0.596c1.281,0.069,2.367,0.11,3.457,0.087
				c1.268-0.026,2.263-0.084,3.178-0.185c0.008-0.138,0.012-0.283,0.012-0.428c0-1.128-0.244-2.265-0.622-2.898
				c-0.123-0.244-0.267-0.343-0.308-0.368c-0.146-0.097-0.278-0.161-0.411-0.221c-0.266-0.12-0.534-0.212-0.854-0.312
				c-1.205-0.362-2.404-0.582-3.528-0.775C246.389,63.08,244.189,62.816,241.574,62.585z"/>
		</g>
		<g>
			<path d="M0.691,48.171l0.022-0.703l10.092,0.311l0.154,0.148c0.149,0.171,0.233,0.491,0.252,0.732
				c0.122,1.595,0.108,2.842-0.041,3.812c-0.113,0.664-0.269,1.06-0.51,1.288c-0.265,0.209-0.507,0.279-0.72,0.341
				c-0.934,0.227-7.955-0.286-8.931-0.565l0.194-0.676c0.93,0.266,7.868,0.729,8.532,0.569c0.19-0.055,0.333-0.096,0.466-0.201
				c0.041-0.041,0.168-0.24,0.274-0.867c0.138-0.898,0.15-2.127,0.034-3.646c-0.007-0.089-0.027-0.177-0.049-0.242L0.691,48.171z"/>
		</g>
		<g>
			<path d="M110.304,7.839l0.744-0.017c0.368-0.008,37.175-0.58,66.719,21.342c0.282,0.232,1.584,1.36,1.584,2.436
				c0,0.345-0.13,0.656-0.378,0.899c-0.477,0.468-1.355,0.674-2.761,0.648l-57.983-4.265L110.304,7.839z M178.296,31.599
				c0-0.431-0.703-1.213-1.179-1.605c-26.9-19.959-59.928-21.074-65.296-21.119l7.158,19.003l57.281,4.214
				c1.432,0.026,1.858-0.234,1.974-0.347C178.28,31.7,178.296,31.661,178.296,31.599z"/>
		</g>
		<g>
			<path fill="#010101" d="M28.104,67.495l0.001-0.169l-0.001-0.157c0-5.119,2.082-10.133,5.712-13.758
				c3.646-3.728,8.722-5.88,13.919-5.899c5.242-0.076,10.388,2.005,14.109,5.709c3.749,3.69,5.901,8.825,5.901,14.084v0.074
				c0,5.251-2.151,10.379-5.903,14.068c-3.716,3.702-8.863,5.783-14.117,5.707c-5.191-0.019-10.266-2.172-13.915-5.906
				C30.186,77.63,28.104,72.615,28.104,67.495z M29.511,67.326l-0.001,0.169c0,4.749,1.932,9.401,5.299,12.763
				c3.394,3.473,8.104,5.472,12.929,5.49c4.885,0.071,9.663-1.861,13.115-5.299c3.488-3.43,5.486-8.192,5.486-13.069v-0.074
				c0-4.885-1.999-9.654-5.483-13.084c-3.407-3.39-8.306-5.371-13.107-5.302c-4.831,0.017-9.542,2.015-12.933,5.482
				c-3.374,3.369-5.305,8.021-5.305,12.769L29.511,67.326z"/>
		</g>
		<g>
			<path d="M28.808,67.332c-0.045-4.964,1.983-9.906,5.505-13.423c3.479-3.557,8.405-5.675,13.426-5.694
				c5.005-0.072,10.032,1.943,13.61,5.504c3.598,3.541,5.702,8.546,5.693,13.618c0.005,2.143-0.375,4.279-1.084,6.299
				c35.66,1.19,82.428-0.126,119.796,1.695c1.35,0.066,2.675,0.116,3.985,0.158c-1.359-2.674-2.092-5.663-2.065-8.662
				c-0.045-4.964,1.983-9.906,5.505-13.423c3.479-3.557,8.405-5.675,13.426-5.694c5.005-0.072,10.032,1.943,13.61,5.504
				c3.598,3.541,5.702,8.546,5.693,13.618c0.006,2.482-0.502,4.954-1.444,7.248c4.273-0.512,6.674-0.954,6.674-0.954l1.45-0.657
				c-1.588,0.087-2.607,0.144-2.607,0.144l-0.681,0.011c0.384-1.69,0.594-3.446,0.594-5.252c0-13.037-10.569-23.606-23.606-23.606
				s-23.606,10.569-23.606,23.606c0,2.058,0.265,4.054,0.76,5.957c-6.933-0.144-80.781-1.652-111.736-1.36
				c-0.664,0.006-1.307,0.007-1.955,0.01c0.474-1.866,0.728-3.82,0.728-5.833c0-13.037-10.569-23.606-23.606-23.606
				S23.267,53.109,23.267,66.146c0,0.431,0.013,0.858,0.036,1.283c-2.601-0.305-7.197-1.061-12.631-2.901l-0.109,0.168
				c0,0,2.299,0.766,8.11,3.067c2.759,1.092,6.266,1.996,10.392,2.748C28.889,69.461,28.798,68.398,28.808,67.332z"/>
		</g>
		<g>
			<path fill="#010101" d="M33.177,67.333c0-8.132,6.616-14.748,14.748-14.748s14.748,6.616,14.748,14.748
				s-6.616,14.748-14.748,14.748C39.792,82.082,33.177,75.465,33.177,67.333z M61.969,67.333c0-7.744-6.301-14.044-14.045-14.044
				c-7.744,0-14.044,6.301-14.044,14.044c0,7.745,6.301,14.045,14.044,14.045C55.669,81.378,61.969,75.078,61.969,67.333z"/>
		</g>
		<g>
			<path fill="#010101" d="M186.969,66.99l0.001-0.169l-0.001-0.157c0-5.119,2.082-10.133,5.712-13.758
				c3.646-3.727,8.721-5.88,13.92-5.899c5.243-0.076,10.388,2.005,14.109,5.709c3.749,3.69,5.9,8.823,5.9,14.082v0.076
				c0,5.253-2.151,10.38-5.903,14.068c-3.716,3.701-8.863,5.782-14.117,5.706c-5.192-0.019-10.267-2.171-13.916-5.906
				C189.052,77.124,186.969,72.11,186.969,66.99z M188.377,66.821l-0.001,0.169c0,4.749,1.932,9.401,5.299,12.763
				c3.394,3.474,8.104,5.472,12.929,5.49c4.885,0.071,9.663-1.86,13.115-5.299c3.487-3.429,5.486-8.191,5.486-13.069v-0.076
				c0-4.885-1.999-9.653-5.483-13.082c-3.406-3.391-8.305-5.372-13.107-5.303c-4.832,0.018-9.543,2.016-12.933,5.482
				c-3.374,3.369-5.305,8.021-5.305,12.769V66.821z"/>
		</g>
		<g>
			<path fill="#010101" d="M192.042,66.828c0-8.132,6.616-14.748,14.748-14.748s14.748,6.616,14.748,14.748
				s-6.616,14.748-14.748,14.748S192.042,74.96,192.042,66.828z M220.835,66.828c0-7.745-6.301-14.045-14.045-14.045
				s-14.045,6.301-14.045,14.045c0,7.744,6.301,14.044,14.045,14.044C214.534,80.873,220.835,74.572,220.835,66.828z"/>
		</g>
		<g>
			<path d="M193.631,27.547l0.347-0.056c0.001,0.005,0.086,0.498,0.612,1.459c1.067,1.951,5.771,2.894,18.944,5.089
				c13.495,2.25,36.787,9.724,37.021,9.799l-0.108,0.335c-0.233-0.076-23.501-7.541-36.971-9.786
				c-13.565-2.261-18.047-3.168-19.194-5.267C193.721,28.094,193.634,27.568,193.631,27.547z"/>
		</g>
		<g>
			<path d="M143.441,7.646l2.768-1.454l0.163,0.312l-2.068,1.086c2.204,0.812,13.68,5.036,19.486,7.171
				c3.335,1.226,8.951,3.723,14.383,6.136c5.046,2.243,9.812,4.362,12.23,5.229c4.919,1.763,8.961,1.042,9.001,1.034l0.065,0.346
				c-0.041,0.008-4.177,0.746-9.184-1.049c-2.431-0.871-7.203-2.993-12.255-5.238c-5.426-2.412-11.037-4.906-14.361-6.128
				c-6.441-2.368-19.857-7.307-19.857-7.307L143.441,7.646z"/>
		</g>
		<g>
			<path d="M106.856,4.707l0.673-0.202l7.429,24.735c2.71,4.944,2.794,8.701,2.978,16.91l0.008,0.336
				c0.19,8.356-2.35,20.605-2.375,20.727l-0.688-0.144c0.025-0.122,2.55-12.274,2.36-20.567l-0.008-0.336
				c-0.181-8.109-0.264-11.811-2.909-16.62l-0.028-0.069L106.856,4.707z"/>
		</g>
		<g>
			<path fill="#07090A" d="M5.014,37.952c0-0.013,0.001-0.025,0.002-0.038c0.021-0.194,0.194-0.333,0.387-0.312
				c1.729,0.185,5.314,0.098,7.272-0.542c1.478-0.483,3.843-3.661,4.936-5.293c-5.434-1.134-9.387-4.296-9.557-4.434
				c-0.15-0.122-0.174-0.343-0.052-0.494s0.343-0.174,0.494-0.052c0.042,0.034,4.242,3.39,9.757,4.389
				c0.115,0.021,0.213,0.098,0.26,0.205c0.047,0.108,0.038,0.231-0.025,0.33c-0.138,0.216-3.401,5.301-5.595,6.018
				c-2.25,0.735-6.037,0.735-7.564,0.572C5.148,38.282,5.014,38.129,5.014,37.952z"/>
		</g>
		<g>
			<path fill="#010101" d="M121.24,36.451c0-0.822,0.668-1.49,1.49-1.49h10.423c0.822,0,1.49,0.668,1.49,1.49
				c0,0.821-0.668,1.489-1.49,1.489H122.73C121.908,37.94,121.24,37.272,121.24,36.451z M134.115,36.451
				c0-0.531-0.432-0.963-0.963-0.963h-10.423c-0.531,0-0.963,0.432-0.963,0.963s0.432,0.962,0.963,0.962h10.423
				C133.683,37.413,134.115,36.982,134.115,36.451z"/>
		</g>
		<g>
			<path fill="#010101" d="M67.865,36.451c0-0.822,0.668-1.49,1.49-1.49h10.423c0.822,0,1.49,0.668,1.49,1.49
				c0,0.821-0.668,1.489-1.49,1.489H69.355C68.533,37.94,67.865,37.272,67.865,36.451z M80.741,36.451
				c0-0.531-0.432-0.963-0.963-0.963H69.355c-0.531,0-0.963,0.432-0.963,0.963s0.432,0.962,0.963,0.962h10.423
				C80.309,37.413,80.741,36.982,80.741,36.451z"/>
		</g>
	</g>
</g>
</svg>
