<?xml version="1.0" encoding="utf-8"?>
<!-- Generator: Adobe Illustrator 17.0.0, SVG Export Plug-In . SVG Version: 6.00 Build 0)  -->
<!DOCTYPE svg PUBLIC "-//W3C//DTD SVG 1.1//EN" "http://www.w3.org/Graphics/SVG/1.1/DTD/svg11.dtd">
<svg version="1.1" id="Layer_1" xmlns="http://www.w3.org/2000/svg"  x="0px" y="0px"
	 width="124.174px" height="87.214px" viewBox="102.849 11.615 124.174 87.214"
	 enable-background="new 102.849 11.615 124.174 87.214" xml:space="preserve">
<g id="front-windscreen">
	<path fill="#FF3947" d="M121.173,40.082h87.529l-10.619-21.999c0,0-36.547-1.927-65.583-0.167L121.173,40.082z"/>
</g>
<g id="right">
	<path fill="#FFFFFF" d="M113.958,47.229c0,0,4.313-9.375,3.126-10.625s-2.438-2.063-6.063-1.875s-6.875,0.125-7.063,2.938
		s1.875,5.688,4.875,6.125S113.27,45.041,113.958,47.229z"/>
	<polyline fill="#FFFFFF" points="121.173,40.082 121.354,39.719 134.583,14 130.583,14.667 117.437,38.844 	"/>
</g>
<g id="left">
	<path fill="#FFFFFF" d="M215.75,47.25c0,0-4.011-9.187-2.824-10.437c1.187-1.25,2.438-2.063,6.063-1.875s6.875,0.125,7.063,2.938
		c0.188,2.813-1.875,5.688-4.875,6.125S216.438,45.063,215.75,47.25z"/>
	<polyline fill="#FFFFFF" points="208.583,40.125 195.76,13.709 199.426,14.542 212.507,38.844 	"/>
</g>
<g id="front">
	<path fill="#FFFFFF" d="M127.917,53.792c0,0,12.702,9.576,16.167,13.458s6.1,6.167,8.092,6.708l-0.55,10.167L178.167,84
		l-0.417-10.125c0,0,6.146-5.438,8.833-7.875c2.75-2.667,15.625-12.083,15.625-12.083l-11.625,5.5l-3.667-0.25
		c0,0,8.404-11.669,21.785-19.085c0,0-71.195-0.125-87.528,0c0,0,14.993,8.835,21.743,18.835l-4.333,0.583L127.917,53.792z"/>
</g>
<g id="front-right">
	<path fill="#FFFFFF" d="M138.5,59.688l4.416-0.771c0,0-11.749-17.25-25.498-19.99c0,0-3.868,4.906-4.493,15.281
		S111.875,84.5,115,86.625s5.8-0.792,8.675-0.667s13.943-0.652,13.943-0.652l14.14-1.223l0.417-10.125c0,0-5.25-3.792-13.75-12.375
		L128.3,53.958L138.5,59.688z"/>
	<path fill="#FFFFFF" d="M114.75,86c0,0-0.25,9.917,1.333,11.333c1.583,1.417,8.833,1.333,9.833-0.25s1.667-12.333,1.667-12.333"/>
</g>
<g id="front-left">
	<path fill="#FFFFFF" d="M190.458,59.5l-3.792-0.333c0,0,14.458-18,25.84-20.323c0,0,3.868,4.906,4.493,15.281s1.125,28.875-2,31
		s-5.875,0.625-8.75,0.75s-13.943-0.652-13.943-0.652L178.167,84l-0.417-10.125c0,0,4.5-4.125,13.75-12.375l10.292-7.292
		L190.458,59.5z"/>
	<path fill="#FFFFFF" d="M201.625,85.75c0,0,0.875,7.375,1,9.5s4,3,5.5,3s5.25,0.625,5.375-3.125s1.5-12.25,1.5-12.25"/>
</g>
<g id="roof">
	<path id="r2" fill="#FFFFFF" d="M197.984,18.172l-2.224-4.463c0,0-25.427-3.209-61.177,0.291l-1.974,3.875
		C132.563,18.094,160.813,16.188,197.984,18.172z"/>
</g>
<g>
	<g>
		<g>
			<path fill="#010101" stroke="#010101" stroke-miterlimit="10" d="M144.535,67.243"/>
		</g>
		<g>
			<path fill="#010101" d="M210.997,98.829h-5.706c-1.813,0-3.29-1.495-3.31-3.341l-0.917-9.055l1.4-0.141l0.924,9.159
				c0,1.087,0.854,1.972,1.904,1.972h5.706c1.05,0,1.904-0.885,1.904-1.972l0.003-0.071l0.92-9.089l1.4,0.141l-0.917,9.055
				C214.288,97.334,212.81,98.829,210.997,98.829z"/>
		</g>
		<g>
			<path fill="#010101" d="M123.739,98.829h-5.706c-1.813,0-3.29-1.495-3.31-3.341l-0.917-9.055l1.399-0.141l0.924,9.159
				c0,1.087,0.854,1.972,1.904,1.972h5.706c1.05,0,1.904-0.885,1.904-1.972l0.003-0.071l0.921-9.089l1.4,0.141l-0.917,9.055
				C127.029,97.334,125.552,98.829,123.739,98.829z"/>
		</g>
		<g>
			<path fill="#010101" d="M118.213,87.887c-3.181,0-4.26-1.52-4.373-1.693l-0.046-0.084c-2.292-4.875-2.879-16.237-1.746-33.77
				c0.029-0.442,0.051-0.789,0.065-1.028c0.384-6.771,4.959-13.565,5.415-14.226c1.196-2.378,10.741-21.27,12.855-22.958
				c2.146-1.713,28.118-2.394,33.302-2.513c5.614,0.086,33.596,0.602,35.744,2.317c2.03,1.62,10.923,19.127,12.792,22.834
				c0.923,1.097,4.81,6.147,5.199,13.725c0.01,0.208,0.034,0.568,0.066,1.057c1.156,17.796,0.592,29.265-1.676,34.09l-0.047,0.084
				c-0.113,0.173-1.192,1.693-4.372,1.693c-0.924,0-1.947-0.132-3.043-0.392c-1.152-0.131-25.012-2.814-44.206-2.98
				c-18.014-0.154-42.664,3.418-42.905,3.453C120.186,87.752,119.149,87.887,118.213,87.887z M115.039,85.452
				c0.13,0.158,0.947,1.029,3.174,1.029c0.825,0,1.752-0.122,2.756-0.363c0.306-0.048,25.054-3.643,43.184-3.48
				c19.651,0.169,44.151,2.965,44.396,2.993l0.084,0.015c1.004,0.241,1.932,0.363,2.756,0.363c2.202,0,3.026-0.852,3.177-1.033
				c1.478-3.216,2.926-11.616,1.516-33.336c-0.032-0.498-0.056-0.865-0.067-1.076c-0.367-7.167-4.038-11.906-4.878-12.902
				l-0.02,0.013l-0.208-0.276l0.039-0.033c-5.067-10.048-11.09-21.291-12.396-22.333c-1.443-0.978-19.04-1.767-34.861-2.01
				c-14.675,0.338-31.048,1.227-32.433,2.209c-1.416,1.131-8.416,14.421-12.495,22.532l-0.052,0.087
				c-0.048,0.069-4.821,6.972-5.193,13.543c-0.014,0.241-0.036,0.592-0.065,1.039C112.068,73.838,113.543,82.206,115.039,85.452z"/>
		</g>
		<g>
			<path fill="#010101" d="M208.702,40.082h-87.529c-0.123,0-0.236-0.064-0.3-0.168s-0.069-0.235-0.013-0.343l12.813-25.052
				c0.089-0.173,0.302-0.241,0.473-0.153c0.173,0.089,0.241,0.3,0.153,0.473l-12.551,24.54h86.384l-12.363-24.542
				c-0.087-0.173-0.018-0.385,0.156-0.472c0.172-0.087,0.384-0.018,0.472,0.156l12.62,25.052c0.055,0.109,0.049,0.239-0.014,0.343
				C208.94,40.02,208.824,40.082,208.702,40.082z"/>
		</g>
		<g>
			<path fill="#010101" d="M192.307,85.223c-0.099-0.06-9.927-5.973-13.81-5.973h-27.449c-3.885,0-13.711,5.913-13.81,5.973
				l-0.728-1.204c0.417-0.252,10.265-6.176,14.538-6.176h27.449c4.273,0,14.121,5.924,14.538,6.176L192.307,85.223z"/>
		</g>
		<g>
			<path fill="#010101" d="M113.982,47.288l-1.405-0.063c0.111-2.472-1.036-2.691-3.118-3.088c-0.7-0.134-1.425-0.272-2.158-0.524
				c-2.788-0.96-4.452-3.184-4.452-5.948c0-3.973,5.436-3.973,7.758-3.973c0.488,0,0.965,0.007,1.417,0.014
				c0.399,0.006,0.779,0.012,1.128,0.012c3.195,0,4.225,2.236,4.323,3.417c0.236,2.215-0.816,4.072-1.834,5.869
				C114.822,44.45,114.048,45.816,113.982,47.288L113.982,47.288z M110.608,35.098c-4.452,0-6.351,0.767-6.351,2.567
				c0,2.168,1.277,3.851,3.503,4.618c0.637,0.219,1.312,0.348,1.964,0.472c1.326,0.253,2.766,0.528,3.588,1.658
				c0.323-0.722,0.718-1.418,1.106-2.103c0.95-1.677,1.847-3.262,1.658-5.043c-0.023-0.229-0.291-2.144-2.923-2.144
				c-0.356,0-0.742-0.006-1.149-0.012C111.558,35.105,111.088,35.098,110.608,35.098z"/>
		</g>
		<g>
			<path fill="#010101" d="M197.498,18.246c-0.241-0.009-24.206-0.944-32.752-0.944c-8.414,0-31.98,0.935-32.217,0.944l-0.021-0.527
				c0.237-0.01,23.814-0.945,32.238-0.945c8.557,0,32.532,0.935,32.773,0.945L197.498,18.246z"/>
		</g>
		<g>
			<path fill="#010101" d="M164.745,76.234c-5.73,0-12.9-1.108-15.84-4.216c-5.289-5.592-15.775-14.804-20.864-17.858l-1.102-0.661
				l1.285,0.008c0.14,0.001,14.112,0.088,26.471,0.088c3.455,0,6.798-0.007,9.703-0.024c9.884-0.058,27.584-0.064,34.736-0.064
				l4.323,0.001l-1.088,0.653c-5.393,3.236-16.795,12.582-21.784,17.858C177.644,75.127,170.474,76.234,164.745,76.234z
				 M129.445,54.218c5.414,3.585,14.99,12.051,19.971,17.317c2.296,2.427,8.313,3.996,15.329,3.996s13.033-1.569,15.329-3.996
				c4.718-4.989,15.142-13.6,20.89-17.325h-1.831c-7.151,0-24.85,0.006-34.731,0.064c-2.905,0.017-6.251,0.024-9.707,0.024
				C144.463,54.298,133.127,54.239,129.445,54.218z"/>
		</g>
		<g>
			<path fill="#010101" d="M190.967,59.626c-31.413-2.659-52.489-0.028-52.698-0.001l-0.089-0.698
				c0.209-0.027,21.363-2.666,52.847-0.001L190.967,59.626z"/>
		</g>
		<g>
			<path fill="#010101" d="M164.119,74.537c-4.707,0-9.387-0.629-11.817-2.132c-1.427-0.883-13.226-11.919-14.115-12.751
				l-11.229-5.765l0.321-0.626l11.352,5.844c4.369,4.091,12.926,12.011,14.04,12.7c4.508,2.789,17.698,2.387,22.801,0.571
				c2.029-0.722,10.896-8.994,15.3-13.267l0.09-0.063l11.17-5.504l0.31,0.631l-11.12,5.479c-0.927,0.898-12.885,12.45-15.515,13.386
				C173.102,73.967,168.598,74.537,164.119,74.537z"/>
		</g>
		<g>
			<path fill="#010101" d="M187.374,59.107l-0.573-0.408c10.212-14.327,25.295-20.448,25.446-20.508l0.26,0.653
				C212.358,38.904,197.461,44.955,187.374,59.107z"/>
		</g>
		<g>
			<path fill="#010101" d="M142.57,59.107c-10.093-14.161-24.984-20.204-25.133-20.263l0.26-0.653
				c0.151,0.06,15.234,6.181,25.446,20.508L142.57,59.107z"/>
		</g>
		<g>
			<path fill="none" stroke="#010101" stroke-miterlimit="10" d="M116.269,40.97"/>
		</g>
		<g>
			<path fill="#010101" d="M112.125,62.908l-0.274-0.648c0.042-0.018,4.225-1.812,6.678-4.677l0.534,0.457
				C116.501,61.034,112.303,62.833,112.125,62.908z"/>
		</g>
		<g>
			<path fill="#010101" d="M119.074,49.349c-1.375-3.281-3.574-6.3-3.596-6.33l0.567-0.415c0.023,0.031,2.269,3.115,3.677,6.474
				L119.074,49.349z"/>
		</g>
		<g>
			<path fill="#010101" d="M217.554,62.902c-0.156-0.073-3.835-1.838-6.134-4.776l0.553-0.433c2.195,2.805,5.845,4.557,5.882,4.574
				L217.554,62.902z"/>
		</g>
		<g>
			<path fill="#010101" d="M211.331,49.556l-0.661-0.24c1.25-3.446,3.347-6.666,3.368-6.698l0.588,0.385
				C214.606,43.035,212.554,46.19,211.331,49.556z"/>
		</g>
		<g>
			<path fill="#010101" d="M199.23,62.869c-5.233,0-6.151-2.481-6.188-2.587l-0.064-0.185l0.159-0.115
				c0.619-0.448,15.206-10.966,18.428-10.966c0.065,0,0.125,0.004,0.181,0.011c1.086,0.143,1.873,1.466,1.959,3.293
				c0.135,2.866-1.572,8.16-8.822,9.818C202.766,62.624,200.864,62.869,199.23,62.869z M193.628,60.279
				c0.311,0.52,1.575,2.063,5.602,2.063c1.594,0,3.457-0.241,5.536-0.717c6.912-1.58,8.541-6.576,8.413-9.279
				c-0.072-1.539-0.689-2.688-1.501-2.795c-0.035-0.004-0.072-0.007-0.113-0.007C209.15,49.544,198.885,56.489,193.628,60.279z"/>
		</g>
		<g>
			<path fill="#010101" d="M131.36,62.902L131.36,62.902c-1.666,0-3.631-0.256-5.841-0.762c-7.251-1.658-8.957-6.952-8.822-9.818
				c0.086-1.827,0.873-3.15,1.959-3.293c0.055-0.008,0.115-0.011,0.178-0.011c3.212,0,17.641,10.749,18.254,11.207l0.15,0.112
				l-0.057,0.179C137.15,60.613,136.362,62.902,131.36,62.902z M118.834,49.544c-0.039,0-0.075,0.002-0.109,0.007
				c-0.811,0.107-1.429,1.256-1.501,2.795c-0.127,2.703,1.502,7.699,8.413,9.279c2.172,0.497,4.098,0.749,5.723,0.749
				c3.834,0,4.963-1.376,5.24-1.856C131.402,56.647,121.238,49.544,118.834,49.544z"/>
		</g>
		<g>
			<path fill="#010101" d="M164.861,64.164c-2.813,0-5.016-1.26-5.016-2.87c0-1.609,2.203-2.869,5.016-2.869
				c2.813,0,5.016,1.26,5.016,2.869C169.876,62.904,167.673,64.164,164.861,64.164z M164.861,58.952
				c-2.433,0-4.488,1.073-4.488,2.342c0,1.27,2.055,2.342,4.488,2.342s4.488-1.073,4.488-2.342S167.294,58.952,164.861,58.952z"/>
		</g>
		<g>
			<path fill="#010101" d="M215.89,47.211L215.89,47.211c0-0.002,0-0.003,0-0.005c-0.068-1.47-0.841-2.834-1.658-4.279
				c-1.018-1.797-2.07-3.654-1.833-5.885c0.096-1.166,1.126-3.402,4.321-3.402c0.35,0,0.729-0.006,1.128-0.012
				c0.452-0.007,0.928-0.014,1.417-0.014c2.322,0,7.758,0,7.758,3.973c0,2.764-1.664,4.988-4.451,5.948
				c-0.733,0.252-1.458,0.391-2.158,0.524c-2.082,0.397-3.228,0.616-3.118,3.088L215.89,47.211z M219.265,35.022
				c-0.481,0-0.95,0.007-1.395,0.013c-0.407,0.006-0.794,0.012-1.15,0.012c-2.713,0-2.914,2.041-2.921,2.127
				c-0.19,1.798,0.707,3.382,1.657,5.06c0.388,0.685,0.781,1.381,1.106,2.103c0.822-1.13,2.261-1.405,3.588-1.658
				c0.652-0.124,1.326-0.253,1.964-0.472c2.226-0.767,3.503-2.451,3.503-4.618C225.616,35.789,223.717,35.022,219.265,35.022z"/>
		</g>
		<g>
			<g>
				<g>
					<path fill="#010101" d="M211.655,83.644l-0.019-0.001c-2.618-0.095-6.075-0.255-9.59-0.652
						c-0.925-0.112-1.691-0.226-2.415-0.36l-0.238-0.048c-0.727-0.146-1.478-0.296-2.228-0.674
						c-0.411-0.231-0.765-0.651-1.093-1.289c-0.229-0.458-0.428-0.983-0.609-1.606c-0.296-1.038-0.507-2.143-0.648-3.38
						l-0.029-0.259l0.288-0.088c3.434,0.13,6.774,0.555,9.306,0.91l0.29,0.047c1.426,0.233,2.901,0.474,4.387,0.943
						c0.498,0.139,1,0.466,1.336,0.87c0.332,0.38,0.624,0.866,0.891,1.482c0.413,0.98,0.706,2.07,0.894,3.335
						c0.055,0.367-0.135,0.701-0.431,0.76L211.655,83.644z M195.369,75.824c0.137,1.109,0.334,2.107,0.601,3.045
						c0.172,0.591,0.359,1.087,0.573,1.513c0.277,0.541,0.562,0.889,0.87,1.062c0.676,0.34,1.36,0.478,2.083,0.622l0.236,0.048
						c0.707,0.131,1.464,0.244,2.375,0.354c3.486,0.394,6.923,0.553,9.53,0.648c0.006-0.014,0.032-0.076,0.019-0.163
						c-0.181-1.22-0.462-2.269-0.857-3.206c-0.244-0.562-0.508-1.003-0.808-1.347c-0.322-0.388-0.77-0.618-1.085-0.706
						c-1.457-0.46-2.848-0.687-4.321-0.928l-0.284-0.046C201.854,76.376,198.64,75.966,195.369,75.824z"/>
				</g>
			</g>
		</g>
		<g>
			<g>
				<g>
					<path fill="#010101" d="M117.17,83.644l-0.097-0.011c-0.291-0.058-0.48-0.392-0.425-0.759c0.188-1.264,0.48-2.354,0.893-3.333
						c0.268-0.618,0.561-1.104,0.896-1.489c0.331-0.4,0.834-0.726,1.34-0.868c1.477-0.466,2.951-0.707,4.377-0.94l0.284-0.047
						c2.538-0.356,5.879-0.78,9.263-0.912c0.213,0.022,0.328,0.174,0.308,0.347c-0.14,1.239-0.352,2.344-0.647,3.38
						c-0.181,0.625-0.38,1.15-0.608,1.605c-0.328,0.64-0.682,1.06-1.084,1.286c-0.76,0.384-1.511,0.534-2.238,0.679L129.2,82.63
						c-0.729,0.135-1.496,0.25-2.418,0.361c-3.517,0.398-6.975,0.558-9.594,0.652L117.17,83.644z M133.457,75.821
						c-3.247,0.143-6.477,0.554-8.939,0.899l-0.278,0.045c-1.407,0.23-2.863,0.468-4.312,0.925
						c-0.322,0.091-0.771,0.321-1.089,0.704c-0.304,0.348-0.568,0.79-0.813,1.355c-0.395,0.935-0.675,1.983-0.856,3.203
						c-0.012,0.082,0.009,0.14,0.023,0.164c2.609-0.095,6.042-0.254,9.527-0.648c0.909-0.11,1.665-0.222,2.378-0.355l0.23-0.047
						c0.724-0.145,1.408-0.282,2.094-0.628c0.298-0.167,0.583-0.515,0.861-1.058c0.212-0.424,0.4-0.919,0.571-1.512
						C133.123,77.93,133.32,76.931,133.457,75.821z"/>
				</g>
			</g>
		</g>
		<g>
			<rect x="171.386" y="78.522" fill="#010101" width="0.352" height="4.292"/>
		</g>
		<g>
			<rect x="168.073" y="78.522" fill="#010101" width="0.352" height="4.292"/>
		</g>
		<g>
			<rect x="164.585" y="78.522" fill="#010101" width="0.703" height="4.292"/>
		</g>
		<g>
			<rect x="161.448" y="78.522" fill="#010101" width="0.352" height="4.292"/>
		</g>
		<g>
			<rect x="158.134" y="78.522" fill="#010101" width="0.352" height="4.292"/>
		</g>
		<g>
			<rect x="174.699" y="78.522" fill="#010101" width="0.352" height="4.292"/>
		</g>
		<g>
			<rect x="178.012" y="78.522" fill="#010101" width="0.352" height="4.292"/>
		</g>
		<g>
			<rect x="181.325" y="79.443" fill="#010101" width="0.352" height="4.292"/>
		</g>
		<g>
			<rect x="154.822" y="78.522" fill="#010101" width="0.352" height="4.292"/>
		</g>
		<g>
			<rect x="151.508" y="78.522" fill="#010101" width="0.352" height="4.292"/>
		</g>
		<g>
			<rect x="148.196" y="79.443" fill="#010101" width="0.352" height="4.292"/>
		</g>
	</g>
</g>
</svg>
