<?xml version="1.0" encoding="utf-8"?>
<!-- Generator: Adobe Illustrator 17.0.0, SVG Export Plug-In . SVG Version: 6.00 Build 0)  -->
<!DOCTYPE svg PUBLIC "-//W3C//DTD SVG 1.1//EN" "http://www.w3.org/Graphics/SVG/1.1/DTD/svg11.dtd">
<svg version="1.1" id="Layer_1" xmlns="http://www.w3.org/2000/svg"  x="0px" y="0px"
	 width="259.367px" height="117.899px" viewBox="35.215 176.838 259.367 117.899"
	 enable-background="new 35.215 176.838 259.367 117.899" xml:space="preserve">
<g id="back-left">
	<path fill="#FFFFFF" d="M241.656,272.141l1.75,13.036c0,0,17.875-0.5,26.75-3.75c0,0,6.25-0.125,10.125-3.25
		s3.125-5.375,3.125-5.375s-8.329,3.206-18,2.131C255.281,273.808,241.656,272.141,241.656,272.141z"/>
</g>
<g id="back-right">
	<path fill="#FFFFFF" d="M241.406,199.558l2-13.167c0,0,17.875,0.5,26.75,3.75c0,0,6.25,0.125,10.125,3.25s3.292,5.833,3.292,5.833
		s-9.162-3.325-18.833-2.25C254.614,198.099,241.406,199.558,241.406,199.558z"/>
</g>
<g id="back-windscreen">
	<path fill="#FFFFFF" d="M228.031,270.766c0,0,3.125-23.958,2.958-35.958s-3.083-34.042-3.083-34.042l36.167-3.708
		c0,0,6.834,8.833,8.167,14.5c3,7.125,2.167,22.677,2.167,22.677s-0.75,21.824-2.75,26.49c-2.082,6.75-7.495,14.136-7.495,14.136
		L228.031,270.766z"/>
</g>
<g id="back">
	<path fill="#FFFFFF" d="M264.162,274.86c0,0,5.244-8.344,7.119-13.094s2.875-19.375,2.875-25.625s-0.074-19.253-1.537-23.564
		c-1.463-4.311-8.546-15.519-8.546-15.519s14.068-1.959,20.763,2.937c0,0,5.32,5.646,7.445,14.771s2.125,14.625,2,20.875
		s0.375,16.625-2.25,22.625s-7.5,14.375-7.5,14.375S279.418,276.454,264.162,274.86z"/>
	<path fill="#FFFFFF" d="M228.031,270.766c0,0,3.208-21.208,3.208-33.958s-3.333-36.042-3.333-36.042l-4.125,0.375v68.875
		L228.031,270.766z"/>
</g>
<g id="front-windscreen">
	<path fill="#FFFFFF" d="M103.906,276.641c0,0-4.75-2.563-6.417-6.167c-2.521-3.458-7.041-18.771-7.208-33.771
		c-0.167-15,4.69-29.236,5.708-31.896c1.5-5.834,6.038-9.324,9.152-9.978c4.64-0.731,32.515,4.967,33.515,6.342
		s0.814,1.88,0.5,3.969s-2.907,42.021,0.38,63.094c0,0-1.015,2.197-2.213,2.739C136.124,271.517,106.656,278.474,103.906,276.641z"
		/>
</g>
<g id="right">
	<path fill="#FFFFFF" d="M241.573,199.308l2.04-13.464c0,0-64.667-0.167-74.333,0c-9.666,0.167-46.167,0.833-46.167,0.833
		l3.797-9.929l-3.713,0.137c0,0-5.584,5.126-6.348,10.112l-12.235-0.531l-0.708,8.342c0,0,9.208,0.369,14.208,1.536
		s26.833,7.417,44.917,7.375C181.113,203.677,201.032,205.272,241.573,199.308z M168.905,190.407l3.563,9.375
		c-18.18,0.012-41.521-3.771-44.101-4.346c-2.58-0.576-6.774-4.466-6.774-4.466C123.967,190.657,168.905,190.407,168.905,190.407z
		 M179.717,199.844c0-2.938-1.625-9.375-1.625-9.375c0.563-0.438,45.506,0.063,45.506,0.063l-6.442,6.859
		C209.273,198.545,179.717,199.844,179.717,199.844z"/>
</g>
<g id="side-glass">
	<path fill="#FFFFFF" d="M121.593,190.97c0,0,4.194,3.89,6.774,4.466c2.58,0.576,25.664,4.58,44.475,4.345l-3.563-9.375
		C169.28,190.407,125.781,190.485,121.593,190.97z"/>
	<path fill="#FFFFFF" d="M178.092,190.469c0,0,1.625,6.438,1.625,9.375c0,0,30.922-1.317,38.805-2.471l5.452-6.841
		C223.974,190.532,178.655,190.032,178.092,190.469z"/>
	<path fill="#FFFFFF" d="M121.469,280.516c0,0,4.195-3.89,6.775-4.466c2.58-0.576,25.92-4.358,44.1-4.346l-3.563,9.375
		C168.781,281.078,123.844,280.828,121.469,280.516z"/>
	<path fill="#FFFFFF" d="M177.594,281.016c0,0,1.625-6.438,1.625-9.375c0,0,30.922,1.317,38.805,2.471l5.452,6.841
		C223.475,280.953,178.156,281.453,177.594,281.016z"/>
</g>
<g id="left">
	<path fill="#FFFFFF" d="M162.906,267.766c-18.083-0.042-39.917,6.208-44.917,7.375s-14.083,1.5-14.083,1.5l0.625,8.25l12.194-0.403
		c0.764,4.986,6.348,10.112,6.348,10.112l3.713,0.137l-3.797-9.929c0,0,36.5,0.667,46.167,0.833c9.667,0.166,74.333,0,74.333,0
		l-1.833-13.333C206.406,266.891,180.989,267.808,162.906,267.766z M121.469,280.516c0,0,4.195-3.89,6.774-4.466
		c2.58-0.576,25.921-4.359,44.101-4.346l-3.563,9.375C168.781,281.078,123.844,280.828,121.469,280.516z M218.023,274.112
		l5.452,6.841c0,0-45.319,0.5-45.881,0.063c0,0,1.625-6.438,1.625-9.375C179.219,271.641,210.14,272.958,218.023,274.112z"/>
</g>
<g id="front">
	<path fill="#FFFFFF" d="M105.141,194.83c-6.682-0.311-9.368,3.045-9.368,3.045c-1.883-5.266-10.284-2.909-15.117-1.901
		s-23.313,6.417-31.833,10.5c-7.816,3.745-13.5,12.042-13.5,31.333c0,18.272,7.833,23.667,12.833,26.709
		c5,3.042,24.667,8.958,35.167,11.292c10.5,2.333,12.367-2.326,12.367-2.326c2.367,3.841,8.216,3.159,8.216,3.159
		s-6.417-2.833-9.417-13.5c-3-10.667-4.298-20.244-4.167-27.75c0.25-14.25,4.667-28.25,6.667-33.25S105.141,194.83,105.141,194.83z"
		/>
</g>
<g id="front-right">
	<path fill="#FFFFFF" d="M104.614,186.466l-0.708,8.342c0,0-5.417,0.042-8.133,3.067c0,0-3.929-4.359-10.429-2.859
		s-29.855,7.7-37.105,11.825s-9.25,9.5-9.25,9.5s3.667-14.45,14.917-21.2c11.119-6.671,7.5-4.625,11.708-6.05
		c0,0,9.375-4.25,21.375-3.375S104.614,186.466,104.614,186.466z"/>
</g>
<g id="front-left">
	<path fill="#FFFFFF" d="M104.531,284.891l-0.625-8.25c0,0-5.807,0.682-8.216-3.159c0,0-3.545,3.929-10.096,2.675
		c-6.531-1.25-30.188-7.516-37.438-11.641s-9.25-9.5-9.25-9.5s5.8,15.316,17.05,22.066c11.119,6.671,7.2,4.309,9.575,5.184
		c0,0,9.375,4.25,21.375,3.375S104.531,284.891,104.531,284.891z"/>
</g>
<g id="roof">
	<path id="r1" fill="#FF3947" d="M223.781,270.016v-68.875c0,0-22.602,3.271-47.75,2.5c-25.625,0.375-37.625-2.667-37.625-2.667
		s0.667,4,0.542,6.375s-1.375,15.709-1.292,27.875c-0.083,26,1.303,28.835,1.583,31.584s-1.25,3.833-1.25,3.833
		s15-2.417,25.25-2.667s8.716-0.413,29.334,0.167C213.323,268.724,223.781,270.016,223.781,270.016z"/>
</g>
<g>
	<g>
		<g>
			<path fill="#010101" d="M226.622,191.071c-1.056,1.174-4.567,5.071-5.388,5.927l-0.067,0.069l-4.462,0.49l6.507-7.225
				l0.391,0.353l-5.581,6.197l2.897-0.317c0.923-0.974,4.282-4.703,5.311-5.846L226.622,191.071z"/>
		</g>
		<g>
			<path fill="#010101" d="M227.053,280.402l-0.391,0.353c-1.79-1.988-4.869-5.403-5.742-6.325l-2.897-0.318l5.843,6.488
				l-0.391,0.353l-6.769-7.516l4.463,0.489l0.066,0.069C222.012,274.807,225.214,278.358,227.053,280.402z"/>
		</g>
		<g>
			<path fill="#010101" d="M128.246,195.281l-0.323,0.625c-2.548-1.316-4.84-2.995-6.813-4.987l0.5-0.494
				C123.531,192.364,125.764,193.998,128.246,195.281z"/>
		</g>
		<g>
			<path fill="#010101" d="M128.243,276.05c-2.483,1.245-4.716,2.831-6.637,4.712l-0.492-0.503c1.973-1.932,4.265-3.56,6.813-4.838
				L128.243,276.05z"/>
		</g>
		<g>
			<path fill="#010101" d="M179.539,199.301c0,0.173-0.005,0.338-0.015,0.494l-0.021,0.315l-0.315,0.013
				c-0.227,0.009-5.586,0.226-6.934-0.005l-0.213-0.036l-0.064-0.206c-0.021-0.067-2.11-6.762-3.916-9.586l0.592-0.379
				c1.694,2.648,3.549,8.346,3.929,9.542c1.338,0.145,5.123,0.021,6.254-0.021c0.001-0.047,0.001-0.096,0.001-0.146
				c0-2.381-1.012-6.423-1.645-8.714l0.678-0.187C178.511,192.712,179.539,196.824,179.539,199.301z"/>
		</g>
		<g>
			<path fill="#010101" d="M179.539,272.205c0,2.473-1,6.576-1.625,8.898l-0.678-0.183c0.628-2.336,1.643-6.504,1.6-8.85
				c-1.132-0.042-4.915-0.167-6.253-0.021c-0.355,1.137-2.02,6.338-3.629,9.191l-0.613-0.345c1.737-3.081,3.617-9.205,3.635-9.266
				l0.063-0.207l0.213-0.037c1.35-0.234,6.708-0.014,6.936-0.005l0.315,0.013l0.021,0.315
				C179.534,271.865,179.539,272.031,179.539,272.205z"/>
		</g>
		<g>
			<path fill="#010101" d="M266.624,199.827c0.073,0.017,0.146,0.034,0.216,0.055c2.637,0.778,5.041,2.134,7.144,4.033
				c1.272,1.149,2.241,2.291,2.961,3.491c2.097,3.496,3.445,8.308,4.241,15.142c0.273,2.341,0.423,4.194,0.489,6.007
				c0.023,0.626,0.033,1.293,0.033,2.098c0,0.697-0.008,1.406-0.016,2.127c-0.017,1.459-0.017,2.992-0.01,4.486
				c0.006,1.444,0.013,2.868-0.007,4.264c-0.032,2.16-0.247,4.269-0.454,6.047c-0.491,4.231-1.191,7.646-2.204,10.748
				c-1.088,3.338-2.701,5.941-4.929,7.958c-1.245,1.126-2.5,2.026-3.731,2.676c-1.041,0.549-2.24,1.044-3.378,1.392l-0.203,0.06
				c-0.62,0.178-0.78,0.282-0.655,0.702c0.031,0.106,0.081,0.174,0.157,0.213c0.246,0.128,0.729-0.034,1.117-0.164l0.174-0.058
				c2.677-0.864,5.229-2.36,7.184-4.209c2.224-2.105,3.815-4.69,5.009-8.137c1.04-3.004,1.789-6.615,2.292-11.04
				c0.213-1.869,0.441-4.049,0.452-6.265c0.003-0.73,0.005-1.467,0.005-2.211l-0.005-4.543c0-0.656,0.006-1.308,0.012-1.958
				c0.006-0.64,0.011-1.276,0.011-1.907c0-1.109-0.018-2.002-0.058-2.809c-0.113-2.33-0.284-4.357-0.521-6.197
				c-0.444-3.432-1.075-7.419-2.396-10.966c-1.188-3.194-2.966-5.834-5.284-7.846c-2.191-1.903-4.678-3.247-7.39-3.994
				c-0.314-0.087-0.544-0.088-0.664-0.003c-0.073,0.052-0.114,0.144-0.124,0.282C266.073,199.672,266.241,199.737,266.624,199.827z"
				/>
		</g>
		<g>
			<path fill="#010101" d="M126.783,176.874l-0.176-0.001v-0.035h-1.636c-0.207,0.03-0.466,0.043-0.74,0.057
				c-0.524,0.026-1.117,0.056-1.393,0.24c-0.307,0.205-0.648,0.487-0.986,0.815c-0.963,0.935-1.832,1.967-2.672,2.965l-0.261,0.307
				c-0.497,0.582-0.966,1.132-1.321,1.804c-0.491,0.93-0.778,1.896-0.852,2.872l-0.012,0.163h-0.118l-0.118,0.037
				c-1.559-0.018-3.111-0.027-4.656-0.036c-3.57-0.021-7.262-0.041-10.86-0.182c-2.797-0.109-5.315-0.168-7.698-0.182
				c-0.606-0.003-1.212-0.019-1.82-0.036c-0.68-0.018-1.362-0.037-2.048-0.037c-1.375,0-2.791-0.048-4.161-0.093
				c-2.45-0.082-4.984-0.166-7.328,0.02c-8.08,0.642-13.988,3.296-18.232,5.537c-1.631,0.861-3.278,1.883-4.895,3.038
				c-2.355,1.683-4.378,3.765-6.248,5.752c-0.535,0.569-1.017,1.161-1.527,1.787l-0.539,0.66c-3.517,4.291-6.296,7.68-8.353,13.476
				c-1.537,4.328-2.514,10.896-2.884,15.205l-0.034,0.161v9.303c0.359,4.227,1.287,8.449,2.919,13.272
				c2.589,7.652,6.738,14.325,12.331,19.834c1.286,1.266,2.674,2.596,4.266,3.722c3.163,2.238,6.73,4.165,10.315,5.573
				c2.219,0.871,4.117,1.492,5.974,1.955c3.18,0.792,6.755,1.193,10.624,1.193c1.943,0,3.908-0.065,5.81-0.128
				c1.89-0.062,3.844-0.127,5.763-0.127c1.503,0,3.028-0.049,4.502-0.096c1.065-0.034,2.131-0.069,3.198-0.085
				c1.501-0.024,3.004-0.054,4.511-0.083c3.603-0.072,7.329-0.145,11.04-0.134l0.051,0.008c0.181,0.023,0.194,0.171,0.195,0.2
				c0.273,2.793,1.829,4.471,3.335,6.093c0.261,0.281,0.519,0.559,0.769,0.841c0.547,0.618,1.166,1.317,1.855,1.828l0.055,0.041
				c0.105,0.079,0.264,0.198,0.345,0.222c0.236,0.073,0.622,0.073,0.996,0.073c0.359,0,0.7,0,0.93,0.064h1.787
				c0.598-0.088,0.681-0.343,0.681-0.581c0-0.059-0.006-0.123-0.018-0.192c-0.037-0.207-0.13-0.427-0.229-0.66
				c-0.05-0.119-0.101-0.239-0.146-0.362c-0.808-2.186-1.75-4.502-2.581-6.545l-0.371-0.912l0.254-0.008
				c2.003-0.06,4.042,0.02,6.013,0.098c1.491,0.059,3.033,0.12,4.554,0.12c1.782,0,3.599,0.037,5.356,0.073
				c1.763,0.036,3.586,0.073,5.38,0.073c3.568,0,7.199,0.074,10.711,0.145c3.516,0.072,7.151,0.145,10.727,0.145
				c2.917,0,5.89,0.057,8.765,0.111c2.402,0.046,4.884,0.093,7.305,0.106l1.148,0.004c1.388,0.003,2.823,0.007,4.226,0.069
				c0.9,0.04,1.823,0.029,2.716,0.019c0.881-0.01,1.792-0.02,2.687,0.017c1.747,0.073,3.524,0.073,5.242,0.073h0.119
				c1.5,0,3,0.009,4.499,0.018c3.834,0.023,7.799,0.047,11.634-0.091c0.86-0.031,1.738-0.032,2.587-0.032
				c0.913-0.001,1.858-0.002,2.779-0.04c1.678-0.07,3.379-0.111,5.024-0.152c1.819-0.044,3.7-0.091,5.538-0.175
				c1.555-0.071,3.105-0.131,4.652-0.191c1.896-0.073,3.856-0.149,5.77-0.245c5.858-0.293,10.684-0.65,15.189-1.125
				c0.431-0.045,0.86-0.086,1.286-0.126c1.253-0.119,2.437-0.23,3.579-0.453c2.096-0.408,4.232-0.953,6.534-1.666
				c0.113-0.035,0.23-0.075,0.347-0.116c0.236-0.082,0.48-0.167,0.717-0.215c0.238-0.049,0.483-0.07,0.719-0.091
				c0.17-0.015,0.34-0.03,0.511-0.055c3.232-0.478,6.002-1.375,8.233-2.666c1.872-1.083,3.294-2.418,4.224-3.969
				c0.099-0.164,0.192-0.354,0.283-0.541c0.1-0.204,0.203-0.415,0.312-0.588c0.104-0.166,0.235-0.284,0.361-0.397
				c0.062-0.056,0.124-0.112,0.183-0.174c0.172-0.129,0.334-0.198,0.477-0.259c0.232-0.099,0.376-0.166,0.428-0.301
				c0.006-0.06,0.003-0.084,0-0.11c-0.013-0.113-0.013-0.255,0.032-0.392c0.048-0.144,0.184-0.282,0.327-0.427
				c0.07-0.071,0.139-0.141,0.188-0.205c0.816-1.068,1.463-2.271,2.005-3.315c2.84-5.474,5.601-11.582,6.569-19.154
				c0.223-1.738,0.253-3.629,0.253-5.413c0-0.499-0.003-1-0.005-1.503c-0.003-0.495-0.006-0.991-0.006-1.487v-8.68
				c0-0.72,0.007-1.454,0.014-2.191c0.007-0.745,0.014-1.494,0.014-2.237c0-1.729-0.041-3.003-0.133-4.128
				c-0.187-2.293-0.606-4.614-1.319-7.305c-1.164-4.397-2.967-8.866-5.213-12.926c-0.079-0.142-0.147-0.291-0.216-0.441
				c-0.043-0.097-0.088-0.194-0.137-0.292c-0.89-1.787-2.12-3.491-3.558-4.93c-0.035-0.035-0.072-0.063-0.108-0.091
				c-0.068-0.053-0.139-0.108-0.194-0.191c-0.052-0.078-0.092-0.17-0.132-0.263c-0.017-0.04-0.034-0.081-0.054-0.12
				c-0.528-1.095-1.289-2.104-2.261-2.998c-2.366-2.178-5.734-3.589-10.296-4.314c-0.143-0.023-0.288-0.043-0.434-0.063
				c-0.452-0.063-0.918-0.128-1.368-0.27c-2.274-0.71-4.447-1.279-6.642-1.738c-1.954-0.409-4.028-0.596-6.225-0.792
				c-0.411-0.037-0.827-0.074-1.249-0.113c-10.779-1.002-22.349-1.338-33.538-1.663l-0.263-0.008
				c-0.283-0.008-0.571-0.01-0.859-0.012c-0.403-0.003-0.806-0.005-1.201-0.024c-0.696-0.034-1.403-0.037-2.086-0.038
				c-0.664-0.001-1.351-0.003-2.027-0.034c-2.407-0.114-4.869-0.112-7.249-0.11l-0.969,0.001c-2.739,0-5.528,0.037-8.226,0.072
				c-2.73,0.037-5.552,0.074-8.331,0.073c-2.733,0-5.519,0.055-8.213,0.109c-2.701,0.054-5.494,0.109-8.24,0.109
				c-3.399,0-6.851,0.061-10.188,0.121c-2.1,0.037-4.199,0.074-6.297,0.097c-11.794,0.13-22.408,0.26-32.868,0.545
				c-0.145-0.012-0.232-0.105-0.232-0.227c0-0.077,0.034-0.148,0.067-0.207c0.017-0.048,0.043-0.11,0.068-0.168l0.033-0.078
				c0.43-1.059,0.831-2.085,1.256-3.17l0.137-0.35c0.176-0.449,0.363-0.901,0.548-1.349c0.39-0.942,0.758-1.832,1.016-2.67
				c0.045-0.146,0.068-0.279,0.068-0.396C127.449,177.28,127.449,176.876,126.783,176.874z M44.759,206.178
				c0-0.065,0.03-0.132,0.096-0.171c2.225-3.422,5.02-6.58,8.541-9.649c1.417-1.236,3.07-2.384,5.36-3.724l0.125-0.073
				c1.893-1.108,3.851-2.255,6.208-2.673l0.377-0.067l-0.195,0.33c-1.038,1.763-2.638,3.012-4.186,4.221l-0.424,0.332
				c-2.179,1.715-4.465,3.374-6.675,4.978l-1.453,1.059c-0.315,0.233-0.64,0.474-0.983,0.693c-2.325,1.478-4.476,3.205-6.456,4.853
				l-0.041,0.034c-0.001,0.001-0.002,0.001-0.003,0.003l-0.228,0.19L44.759,206.178z M39.629,254.914
				c-0.045-0.086-0.09-0.173-0.141-0.257c-0.037-0.06-0.083-0.115-0.128-0.171c-0.069-0.085-0.141-0.172-0.193-0.278
				c-0.119-0.24-0.198-0.508-0.274-0.767c-0.037-0.126-0.075-0.254-0.118-0.382c-0.84-2.485-1.48-4.857-1.958-7.25
				c-0.321-1.608-0.663-3.507-0.77-5.399c-0.037-0.645-0.03-1.479-0.014-2.29c0.019-1.026,0.009-2.047-0.011-3.087
				c-0.012-0.662-0.025-1.327-0.025-1.985c0-1.128,0.038-2.029,0.121-2.835c0.61-5.992,1.943-9.791,2.74-12.06l0.128-0.365
				c0.028-0.081,0.053-0.161,0.078-0.237c0.061-0.193,0.119-0.376,0.212-0.55c0.04-0.076,0.105-0.143,0.173-0.214
				c0.041-0.043,0.085-0.089,0.121-0.136c0.167-0.221,0.319-0.467,0.466-0.704c0.063-0.102,0.125-0.203,0.189-0.301
				c1.566-2.437,3.344-4.516,5.435-6.356c2.098-1.847,4.018-3.033,6.226-3.846c8.501-3.135,15.594-5.49,22.321-7.414
				c3.835-1.096,7.306-1.94,10.611-2.582l0.22-0.043c1.763-0.343,3.761-0.733,5.663-0.432c1.997,0.318,3.303,1.116,4.235,2.586
				l0.068,0.107l-0.08,0.099c-3.652,4.519-5.383,11.281-6.482,16.667c-0.972,4.756-1.666,9.799-2.124,15.415l-0.046,0.547
				c-0.062,0.722-0.127,1.468-0.127,2.2c0,0.596-0.003,1.196-0.007,1.8c-0.003,0.607-0.007,1.216-0.007,1.825
				c0,1.526,0.018,3.318,0.152,5.041c0.775,9.982,2.243,18.059,4.488,24.691c0.954,2.82,2.019,5.05,3.254,6.82
				c0.065,0.093,0.137,0.18,0.209,0.267c0.148,0.18,0.301,0.365,0.401,0.6l0.038,0.09l-0.056,0.08
				c-1.351,1.927-3.723,2.818-6.681,2.507c-0.663-0.07-1.322-0.198-1.96-0.323c-0.2-0.039-0.4-0.078-0.599-0.115
				c-3.042-0.565-6.398-1.345-9.705-2.255c-7.059-1.942-14.252-4.286-22.637-7.378c-1.637-0.603-2.974-1.152-4.177-1.866
				c-1.235-0.733-2.384-1.571-3.512-2.561c-2.214-1.944-4.091-4.182-5.577-6.652C39.718,255.084,39.674,254.999,39.629,254.914z
				 M168.675,204.203c0.491-0.003,0.982-0.007,1.472-0.007c1.82,0,3.647,0.018,5.477,0.037c1.819,0.018,3.643,0.037,5.468,0.037
				c1.874,0,3.733-0.019,5.581-0.037c1.809-0.019,3.608-0.036,5.399-0.037c1.489,0,3.447-0.012,5.395-0.109
				c0.616-0.03,1.23-0.055,1.843-0.08c1.124-0.046,2.286-0.094,3.417-0.173c7.778-0.553,14.401-1.159,20.244-1.852l0.197-0.023
				v67.588l-0.197-0.024c-4.772-0.568-9.901-1.143-15.085-1.488c-0.918-0.061-1.837-0.137-2.759-0.213
				c-0.787-0.065-1.574-0.13-2.366-0.186c-2.014-0.143-4.09-0.186-6.096-0.228c-1.492-0.031-3.035-0.063-4.566-0.135
				c-1.312-0.062-2.677-0.052-3.997-0.043c-0.49,0.003-0.98,0.007-1.468,0.007c-2.708,0-5.448,0.009-8.191,0.018
				c-2.749,0.009-5.501,0.018-8.227,0.018h-0.144c-1.74,0-3.54,0-5.287,0.073c-0.884,0.037-1.776,0.034-2.638,0.032
				c-0.921-0.003-1.872-0.005-2.798,0.041c-6.644,0.33-13.297,1.111-19.776,2.322l-0.283,0.053l0.082-0.276
				c0.112-0.377,0.164-0.785,0.164-1.283c0-0.41-0.036-0.833-0.071-1.243l-0.029-0.352c-0.506-6.419-0.939-12.222-1.116-18.241
				c-0.01-0.331-0.027-0.67-0.044-1.008l-0.025-0.514c-0.041-0.882-0.059-1.86-0.059-3.077c0-0.703,0.006-1.413,0.012-2.124
				c0.016-2.045,0.009-4.081,0-6.096c-0.006-1.315-0.012-2.631-0.012-3.944c0-2.457,0.019-5.684,0.163-8.854l0.075-1.653
				c0.134-2.984,0.273-6.07,0.483-9.029l0.169-2.365c0.133-1.847,0.265-3.689,0.388-5.516l0.014-0.195
				c0.02-0.283,0.039-0.551,0.039-0.819c0-0.522-0.075-0.909-0.245-1.257l-0.154-0.316l0.346,0.066
				c6.48,1.235,13.133,2.028,19.775,2.357c0.902,0.045,1.828,0.051,2.724,0.056c0.887,0.006,1.804,0.011,2.714,0.054
				C165.998,204.223,167.359,204.212,168.675,204.203z M224,201.819l0.156-0.019c0.611-0.073,1.215-0.169,1.798-0.261
				c0.557-0.088,1.114-0.176,1.687-0.247l0.163-0.02l0.031,0.161c0.9,4.64,1.247,9.593,1.614,14.837l0.131,1.855
				c0.18,2.497,0.335,5.269,0.489,8.721l0.026,0.571c0.057,1.265,0.116,2.573,0.149,3.864c0.012,0.482,0.032,0.966,0.052,1.45
				c0.031,0.767,0.063,1.56,0.063,2.333c0,0.244-0.003,0.487-0.01,0.73l-0.057,1.947c-0.065,2.282-0.132,4.642-0.258,6.956
				l-0.121,2.249c-0.267,4.981-0.544,10.133-0.995,15.046c-0.239,2.614-0.54,5.402-1.119,8.084l-0.035,0.165l-0.167-0.028
				c-1.171-0.2-2.231-0.376-3.337-0.507c-0.109,0.004-0.212-0.069-0.252-0.194L224,269.459L224,201.819L224,201.819z
				 M138.631,202.655c0.052,0.188,0.077,0.407,0.077,0.67c0,0.29-0.031,0.605-0.061,0.91c-0.017,0.17-0.033,0.342-0.045,0.513
				l-0.193,2.737c-0.227,3.198-0.462,6.505-0.643,9.718l-0.064,1.122c-0.14,2.416-0.284,4.914-0.284,7.404
				c0,2.889-0.009,5.828-0.017,8.78c-0.009,2.98-0.017,5.973-0.017,8.943v0.009c0,2.567,0.118,5.118,0.232,7.584l0.046,1.006
				c0.069,1.508,0.17,3.113,0.267,4.666c0.08,1.269,0.159,2.527,0.22,3.722c0.091,1.771,0.238,3.555,0.38,5.28l0.096,1.163
				c0.037,0.443,0.072,0.861,0.072,1.241c0,0.689-0.099,1.459-0.835,1.951c-0.465,0.31-1.221,0.449-1.951,0.582
				c-0.233,0.043-0.466,0.085-0.689,0.133c-4.493,0.964-8.981,1.946-13.47,2.928l-5.213,1.139c-0.576,0.126-1.15,0.263-1.728,0.4
				c-1.165,0.277-2.369,0.564-3.614,0.764c-3.157,0.506-8.149,0.723-11.824-0.332c-1.071-0.307-1.796-0.617-2.353-1.005
				c-0.314-0.219-0.585-0.481-0.846-0.735l-0.047-0.046c-0.043-0.042-0.091-0.083-0.14-0.125c-0.104-0.09-0.213-0.183-0.297-0.295
				c-0.044-0.058-0.078-0.124-0.11-0.189c-0.066-0.134-0.091-0.169-0.158-0.178l-0.071-0.01l-0.043-0.057
				c-3.155-4.086-4.713-9.838-5.819-14.925c-0.549-2.521-1.037-5.341-1.536-8.874c-0.516-3.653-0.816-6.659-0.943-9.459
				c-0.037-0.811-0.054-1.732-0.054-2.898c0-0.633,0.005-1.268,0.01-1.891c0.004-0.6,0.009-1.19,0.009-1.757
				c0-1.913,0.189-3.758,0.372-5.543l0.048-0.468c0.656-6.462,1.547-11.852,2.724-16.478c0.484-1.901,0.964-3.51,1.469-4.919
				c0.863-2.411,2.28-5.876,4.61-8.13c1.003-0.971,2.311-1.572,4.374-2.007c3.164-0.667,7.424-0.627,11.398,0.108
				c1.315,0.243,2.603,0.53,3.85,0.807c0.43,0.096,0.856,0.191,1.28,0.283l5.225,1.138c4.597,1,9.239,2.01,13.878,3.039l0.135,0.03
				C137.357,201.332,138.325,201.545,138.631,202.655z M65.064,281.543c-1.041-0.124-2.123-0.488-3.406-1.144
				c-1.738-0.889-3.774-1.978-5.702-3.317c-4.107-2.853-7.944-6.863-11.096-11.596c-0.04-0.054-0.065-0.089-0.086-0.14l-0.264-0.643
				l0.727,0.593c1.566,1.277,3.186,2.598,4.891,3.797c0.418,0.294,0.857,0.578,1.281,0.852c0.476,0.308,0.968,0.627,1.439,0.964
				c2.18,1.563,5.037,3.638,7.814,5.815c0.858,0.672,1.693,1.371,2.484,2.078c0.731,0.653,1.552,1.459,2.095,2.482l0.158,0.298
				L65.064,281.543z M126.426,293.619l0.085,0.23l-0.245,0.009c-0.69,0.024-1.469-0.025-2.145-0.073
				c-0.083-0.006-0.169-0.005-0.255-0.004c-0.165,0.002-0.335,0.004-0.481-0.04c-0.25-0.075-0.585-0.388-0.966-0.76l-0.047-0.045
				c-0.822-0.798-1.696-1.812-2.452-2.7l-0.049-0.058c-1.067-1.254-2.171-2.551-2.328-4.546c-0.095-1.188,0.207-2.15,0.499-2.91
				l0.045-0.118l0.126,0.004c0.481,0.017,0.96,0.038,1.438,0.058c0.804,0.035,1.609,0.07,2.429,0.087l0.143,0.003l0.026,0.141
				c0.07,0.372,0.223,0.736,0.371,1.087l0.107,0.258C124.065,287.531,125.265,290.506,126.426,293.619z M282.569,275.476
				c-1.839,2.669-5.1,4.551-9.692,5.592l-0.108-0.335c4.033-1.683,7.065-3.429,9.541-5.493l0.988-0.824L282.569,275.476z
				 M281.46,274.42c0.121,0.063,0.139,0.156,0.139,0.206c0,0.147-0.143,0.218-0.196,0.245c-0.356,0.327-0.889,0.706-1.316,1.011
				c-1.47,1.047-3.203,2.042-5.152,2.958c-3.483,1.637-7.554,2.973-12.098,3.972c-1.616,0.355-3.261,0.55-4.656,0.693
				c-5.557,0.572-11.852,1.022-19.808,1.417c-6.706,0.333-13.683,0.476-20.432,0.616l-0.429,0.009
				c-3.312,0.068-6.737,0.139-10.101,0.139c-3.478,0-7.026-0.046-10.456-0.091c-3.449-0.045-7.014-0.091-10.529-0.091
				c-1.736,0-3.501-0.037-5.208-0.073c-1.709-0.036-3.476-0.073-5.215-0.073c-4.082,0-7.396-0.046-10.428-0.145
				c-0.773-0.025-1.564-0.025-2.329-0.025c-0.951,0-1.934,0-2.903-0.048c-0.911-0.045-1.841-0.034-2.74-0.023
				c-0.825,0.01-1.679,0.02-2.522-0.013c-1.233-0.048-2.493-0.055-3.712-0.061c-0.503-0.003-1.007-0.006-1.512-0.011
				c-2.032-0.022-4.054-0.06-6.08-0.099c-3.105-0.059-6.317-0.119-9.534-0.119c-1.413,0-2.818-0.069-4.306-0.142l-0.827-0.04
				c-1.046-0.049-2.283-0.072-3.896-0.072c-0.147,0-0.295,0.005-0.436,0.009c-0.395,0.013-0.707,0.023-0.891-0.061
				c-0.195-0.089-0.232-0.214-0.262-0.314c-0.009-0.03-0.019-0.064-0.036-0.104c-0.027-0.062-0.059-0.132-0.093-0.205
				c-0.14-0.301-0.298-0.643-0.305-0.913l-0.005-0.186l1.798,0.045c6.892,0.176,14.018,0.358,21.145,0.358h0.103
				c2.471,0,5.027,0,7.536,0.073c1.159,0.034,2.348,0.01,3.497-0.013c1.389-0.028,2.826-0.057,4.245,0.014
				c1.789,0.089,3.627,0.07,5.405,0.052c0.752-0.008,1.504-0.016,2.255-0.016c8.889,0,17.954-0.025,26.944-0.073
				c0.653-0.003,1.32,0.017,1.965,0.036c0.601,0.018,1.203,0.037,1.801,0.037c1.258,0,2.522-0.009,3.787-0.018
				c1.27-0.009,2.542-0.018,3.812-0.018c1.278,0,2.573-0.037,3.825-0.073c1.231-0.035,2.504-0.072,3.739-0.072
				c1.237,0,2.539-0.055,3.799-0.108c1.211-0.051,2.464-0.104,3.695-0.111c4.525-0.025,8.864-0.589,13.657-1.774
				c0.281-0.07,0.558-0.132,0.832-0.193c0.765-0.171,1.488-0.333,2.211-0.634c0.376-0.156,1.605-0.735,1.605-1.596
				c0-0.178-0.053-0.364-0.158-0.552c-0.246-0.444-1.087-0.687-1.763-0.883l-0.296-0.087c-3.653-1.107-7.894-1.738-11.996-2.348
				c-0.587-0.087-1.17-0.174-1.748-0.262c-9.838-1.491-20.698-2.483-34.178-3.122c-3.056-0.144-6.114-0.217-9.089-0.217
				c-1.019,0-2.038-0.006-3.059-0.011c-2.011-0.011-4.089-0.022-6.141,0.011c-13.674,0.218-25.069,1.013-34.835,2.432
				c-10.145,1.473-19.197,3.872-26.713,6.024c-0.143,0.041-0.285,0.078-0.427,0.114c-0.171,0.044-0.341,0.088-0.512,0.139
				c-0.197,0.059-0.395,0.106-0.594,0.152c-0.095,0.022-0.19,0.044-0.286,0.069c-0.2,0.05-0.393,0.123-0.597,0.2
				c-0.386,0.146-0.785,0.298-1.231,0.277c-0.018,0.005-0.046,0.039-0.064,0.062c-0.046,0.056-0.103,0.125-0.195,0.173
				c-0.113,0.059-0.235,0.087-0.343,0.112c-0.199,0.046-0.315,0.079-0.382,0.211c-0.023,0.046-0.026,0.088-0.029,0.159
				c-0.002,0.062-0.005,0.133-0.03,0.213c-0.058,0.187-0.192,0.35-0.321,0.508c-0.077,0.094-0.157,0.19-0.219,0.293
				c-0.197,0.327-0.407,0.823-0.407,1.237c0,0.304,0.11,0.507,0.335,0.621l0.097,0.049l0.007,0.04l0.144-0.09
				c0.152-0.093,0.202-0.127,0.238-0.228c0.025-0.072,0.029-0.158,0.029-0.24l-0.001-0.164c0-0.101,0.004-0.221,0.038-0.345
				c0.145-0.54,0.653-0.957,1.079-1.26c0.039-0.028,0.084-0.063,0.133-0.101c0.181-0.142,0.387-0.302,0.571-0.329
				c0.106-0.016,0.253,0.011,0.423,0.041c0.063,0.011,0.127,0.023,0.186,0.031l0.826,0.119c2.372,0.343,5.061,0.731,7.658,0.788
				l0.257,0.006l-0.098,0.238c-0.202,0.492-0.335,1-0.406,1.553l-0.02,0.153l-0.155,0.001c-3.374,0.013-6.885,0.049-10.734,0.109
				l-0.631,0.01l0.014-0.009c-1.613,0.012-3.282,0.069-4.898,0.124c-1.71,0.058-3.477,0.119-5.223,0.129
				c-1.653,0.009-3.332,0.06-4.956,0.109c-1.785,0.054-3.631,0.109-5.433,0.109c-0.728,0-1.452,0.024-2.153,0.048
				c-1.068,0.036-2.077,0.07-3.084,0.024c-4.538-0.208-8.888-1.102-13.299-2.735l-0.124-0.046l0.009-0.132
				c0.009-0.122,0.041-0.229,0.073-0.332c0.034-0.113,0.067-0.22,0.067-0.341c-0.001-0.182-0.053-0.385-0.159-0.623
				c-0.369-0.835-1.221-1.825-2.604-3.026c-2.918-2.534-6.141-4.841-9.257-7.072l-0.456-0.326c-0.185-0.132-0.368-0.269-0.552-0.406
				c-0.359-0.268-0.731-0.545-1.113-0.787c-2.638-1.675-5.344-3.783-8.042-6.266c-0.142-0.131-0.288-0.257-0.433-0.382
				c-0.378-0.326-0.77-0.663-1.055-1.062c-0.252-0.353-0.44-0.752-0.639-1.174c-0.118-0.251-0.238-0.506-0.374-0.752
				c-0.034-0.043-0.053-0.095-0.053-0.147v-0.157l0.318-0.052l0.038,0.13c1.931,2.187,3.602,3.716,5.415,4.954
				c2.079,1.42,4.531,2.347,7.07,3.248c2.517,0.893,5.108,1.785,7.7,2.65c2.19,0.731,4.449,1.44,6.633,2.126l1.208,0.379
				c2.521,0.793,5.066,1.723,7.526,2.623l0.185,0.068c5.975,2.184,11.903,4.493,18.656,7.266l0.114,0.047
				c0.531,0.218,1.089,0.447,1.734,0.716c0.125,0.052,0.269,0.12,0.42,0.192c0.44,0.209,1.043,0.495,1.29,0.389
				c0.203-0.087,0.297-0.332,0.216-0.581c-0.06-0.18-0.353-0.295-0.637-0.406l-0.169-0.068c-5.514-2.28-10.801-4.381-15.716-6.245
				l-1.39-0.527l1.475,0.187c0.6,0.076,1.208,0.189,1.852,0.308c1.581,0.293,3.216,0.597,4.901,0.382
				c2.137-0.273,3.863-1.227,4.861-2.685l0.124-0.182l0.15,0.161c0.931,1.001,2.266,1.701,4.202,2.201
				c3.121,0.807,7.608,0.89,11.709,0.215c1.393-0.229,2.756-0.54,4.073-0.841c0.419-0.095,0.835-0.191,1.25-0.283
				c3.571-0.792,7.122-1.563,10.692-2.34c2.624-0.57,5.259-1.143,7.922-1.728c0.28-0.061,0.562-0.113,0.841-0.163
				c0.641-0.116,1.247-0.227,1.74-0.443c0.224-0.098,0.403-0.172,0.661-0.229c3.678-0.799,7.726-1.351,10.474-1.674
				c1.797-0.211,3.726-0.401,5.897-0.581c2.077-0.173,4.107-0.328,6.114-0.328c2.158,0,4.327-0.037,6.425-0.073
				c2.067-0.035,4.204-0.072,6.298-0.072c1.853,0,3.726-0.007,5.609-0.014c6.615-0.024,13.456-0.05,19.879,0.232
				c3.123,0.137,6.227,0.395,9.228,0.643c0.938,0.078,1.873,0.155,2.804,0.229c4.704,0.372,9.726,0.823,14.585,1.6
				c0.286,0.046,0.573,0.095,0.86,0.145c0.631,0.109,1.283,0.222,1.92,0.289c10.426,1.095,19.948,2.14,29.107,3.196l0.488,0.057
				c5.39,0.622,11.499,1.327,17.604,0.815c2.238-0.188,3.989-0.475,5.509-0.902l0.068-0.019L281.46,274.42z M198.168,282.402
				c-1.679-0.011-3.363-0.022-5.049-0.022H159.69c-2.796,0-5.626-0.028-8.363-0.055c-2.713-0.027-5.518-0.054-8.265-0.054
				c-1.486,0-3.009-0.028-4.481-0.055c-1.256-0.023-2.517-0.047-3.781-0.054c-3.081-0.017-5.773-0.065-8.231-0.145
				c-0.883-0.029-1.763-0.054-2.639-0.079c-4.696-0.134-9.132-0.262-13.313-0.903l-0.122-0.019l-0.029-0.166
				c0-0.091,0.06-0.189,0.195-0.202c9.28-2.573,18.907-5.239,29.696-6.464l1.215-0.139c2.26-0.258,4.596-0.526,6.946-0.733
				c13.904-1.229,29.3-1.552,43.352-0.909c11.849,0.543,22.938,1.57,32.958,3.052l1.247,0.183c4.878,0.715,9.484,1.391,13.775,2.875
				l0.228,0.079l-0.145,0.194c-0.347,0.464-0.904,0.679-1.445,0.86c-0.544,0.182-1.111,0.313-1.692,0.441l-0.738,0.164
				c-3.181,0.708-6.471,1.44-10.095,1.656c-0.733,0.044-1.49,0.064-2.22,0.084c-0.603,0.016-1.211,0.032-1.825,0.061
				c-1.554,0.073-2.89,0.109-4.086,0.109c-0.671,0-1.357,0.028-2.02,0.054c-0.673,0.027-1.369,0.055-2.059,0.055
				c-1.412,0-2.87,0.037-4.108,0.073C205.845,282.454,201.942,282.428,198.168,282.402z M284.898,200.05
				c0.38,0.483,0.749,1.018,1.161,1.687c0.237,0.385,0.439,0.79,0.635,1.182c0.112,0.226,0.225,0.454,0.347,0.679
				c0.141,0.264,0.291,0.525,0.441,0.785c0.193,0.336,0.392,0.682,0.571,1.035c1.629,3.2,2.982,6.632,4.021,10.199
				c0.436,1.495,0.801,3.053,1.085,4.631c0.256,1.419,0.551,3.292,0.56,5.188c0.01,1.845,0.012,3.713,0.012,5.597
				c0,1.877-0.003,3.769-0.006,5.668c-0.003,1.914-0.006,3.834-0.006,5.753l0.001,1.414c0,1.447-0.01,2.978-0.141,4.392
				c-0.274,2.958-0.93,5.936-2.065,9.373c-1.165,3.528-2.56,6.781-4.265,9.943c-0.786,1.458-1.599,2.966-2.775,4.352l-0.125,0.149
				c-0.231,0.276-0.449,0.538-0.656,0.653c-0.185,0.104-0.405,0.172-0.637,0.244c-0.099,0.031-0.199,0.062-0.297,0.096
				c-3.576,1.251-8.7,1.783-14.429,1.499c-0.33-0.016-0.665-0.041-0.998-0.066c-0.442-0.033-0.898-0.067-1.333-0.079
				c-0.041,0.01-0.11-0.008-0.16-0.05l-0.051-0.044c-0.389-0.002-0.773-0.042-1.145-0.119c-0.002,0.002-0.004,0.005-0.006,0.007
				l-0.061,0.069l-0.092-0.01c-10.379-1.145-21.355-2.344-35.59-3.886c-0.207,0.016-0.252-0.127-0.26-0.189l-0.003-0.028
				l0.005-0.028c0.842-4.534,1.379-9.69,1.74-16.72c0.069-1.333,0.147-2.675,0.225-4.022c0.092-1.583,0.185-3.173,0.263-4.767
				c0.137-2.792,0.239-5.713,0.314-8.93c0.023-1.036-0.018-2.109-0.057-3.145c-0.018-0.463-0.035-0.925-0.048-1.386
				c-0.117-4.368-0.387-8.932-0.662-13.214c-0.392-6.092-0.796-11.55-1.774-16.649l-0.037-0.188l0.19-0.021
				c7.507-0.842,15.192-1.675,22.624-2.48c2.863-0.31,5.732-0.621,8.609-0.935l0.971-0.105c0.763-0.082,1.577-0.17,2.375-0.258
				c0.134-0.015,0.29-0.046,0.44-0.074c0.291-0.057,0.542-0.105,0.7-0.068c0.04,0.01,0.08,0.028,0.121,0.056
				c0.345-0.072,0.7-0.113,1.06-0.121l-0.057-0.083l0.332-0.002c6.012-0.041,13.591,0.259,18.871,2.961L284.898,200.05z
				 M272.957,190.468c0.516,0.041,1.01,0.188,1.488,0.329c3.789,1.126,6.518,2.872,8.124,5.194l0.722,1.043l-0.98-0.806
				c-2.596-2.138-5.682-3.911-9.435-5.422l-1.071-0.431L272.957,190.468z M187.227,185.964c2.639,0,5.31-0.046,7.893-0.09
				c2.61-0.045,5.309-0.091,8.002-0.091c2.243,0,4.496,0.028,6.676,0.054c2.162,0.027,4.397,0.054,6.604,0.054
				c2.511,0,5.071,0.088,7.546,0.172c1.803,0.061,3.669,0.125,5.494,0.154c3.285,0.052,6.598,0.216,9.802,0.374l0.522,0.026
				c5.708,0.281,13.139,0.704,19.984,1.491c1.56,0.179,3.11,0.526,4.554,0.875c7.922,1.918,13.956,4.783,18.446,8.756l0.076,0.068
				l-0.02,0.099c-0.021,0.108-0.12,0.183-0.23,0.172l-0.159-0.015l-0.009-0.054c-2.315-0.724-4.974-1.234-8.124-1.559
				c-1.918-0.198-4.149-0.29-7.023-0.29c-0.219,0-0.44-0.003-0.66-0.008c-0.576-0.01-1.171-0.02-1.725,0.042
				c-0.074,0.009-0.134,0.037-0.203,0.069c-0.061,0.028-0.123,0.057-0.197,0.074c-0.113,0.025-0.235,0.029-0.343,0.032
				c-0.057,0.001-0.114,0.003-0.166,0.008c-3.235,0.316-6.592,0.7-9.839,1.071c-1.561,0.179-3.118,0.356-4.661,0.527
				c-2.757,0.305-5.519,0.602-8.279,0.898c-3.632,0.39-7.388,0.793-11.067,1.209c-0.225,0.025-0.45,0.048-0.673,0.07
				c-0.417,0.041-0.849,0.084-1.272,0.147l-0.844,0.125c-2.817,0.418-5.729,0.851-8.61,1.147c-3.967,0.408-7.834,0.753-11.822,1.053
				c-0.582,0.044-1.167,0.096-1.752,0.148c-0.728,0.065-1.457,0.13-2.188,0.179c-5.42,0.37-11.013,0.4-16.744,0.4
				c-1.228,0-2.453,0.01-3.677,0.019c-1.582,0.013-3.218,0.026-4.829,0.017c-1.185-0.007-2.371-0.021-3.555-0.034
				c-1.642-0.019-3.282-0.038-4.915-0.038c-6.507,0.001-11.762-0.196-16.538-0.618c-2.36-0.209-4.861-0.518-7.645-0.946
				c-1.912-0.293-4.17-0.656-6.423-1.127c-0.133-0.028-0.271-0.024-0.418-0.019c-0.144,0.005-0.292,0.01-0.446-0.017
				c-0.091-0.014-0.21-0.052-0.337-0.094c-0.1-0.032-0.204-0.067-0.301-0.089c-4.744-1.086-9.697-2.151-14.487-3.181
				c-1.947-0.418-3.884-0.835-5.799-1.25l-1.035-0.227c-3.125-0.69-6.357-1.403-10.048-1.403c-2.164,0-4.098,0.194-5.746,0.576
				c-1.897,0.44-3.257,1.074-4.279,1.994l-0.154,0.139l-0.112-0.174c-1.01-1.568-2.678-2.545-4.825-2.826
				c-1.965-0.259-3.98,0.13-5.929,0.507c-0.322,0.062-0.639,0.123-0.953,0.181l-0.17,0.031l-0.039-0.215
				c0-0.083,0.052-0.173,0.166-0.196c4.938-1.882,10.305-4.026,15.525-6.203c0.094-0.039,0.191-0.075,0.285-0.11
				c0.536-0.197,0.771-0.323,0.626-0.762c-0.01-0.03-0.02-0.044-0.041-0.075c-0.011-0.016-0.023-0.032-0.035-0.052
				c-0.044-0.045-0.094-0.117-0.094-0.198v-0.057l-0.396,0.163c-7.213,2.969-14.671,6.039-22.247,8.755l-1.409,0.507
				c-2.032,0.733-4.133,1.492-6.232,2.146c-3.985,1.243-9.925,3.129-15.469,5.155l-0.324,0.119c-1.194,0.436-2.322,0.848-3.394,1.33
				c-2.136,0.958-4.139,2.314-6.123,4.145c-0.804,0.742-1.642,1.651-2.562,2.779l-0.58,0.711l0.275-0.875
				c0.106-0.338,0.476-1.049,0.744-1.555c0.261-0.492,0.511-0.718,0.89-1.062l0.362-0.329c1.585-1.447,3.225-2.944,4.863-4.187
				c1.102-0.837,2.318-1.668,3.495-2.472c0.962-0.658,1.956-1.337,2.851-1.996c0.477-0.351,0.956-0.702,1.438-1.055
				c1.559-1.142,3.171-2.322,4.763-3.554c1.478-1.144,3.024-2.381,4.261-3.826c0.383-0.447,0.868-1.141,0.972-1.629
				c0.055-0.255-0.009-0.542-0.07-0.771l-0.071-0.285l0.15-0.053c3.592-1.275,9.118-2.945,15.611-2.734
				c3.164,0.103,6.465,0.165,9.657,0.223c2.674,0.05,5.439,0.101,8.085,0.176l0.829,0.023l-0.037,0.015l1.126,0.021
				c1.258,0.024,2.517,0.048,3.763,0.085l0.075,0.019c0.121,0.063,0.134,0.163,0.134,0.203c0,0.104-0.072,0.171-0.107,0.203
				c-0.049,0.115-0.083,0.281-0.083,0.459c0,0.543,0.311,1.135,0.601,1.506c0.025,0.032,0.057,0.061,0.087,0.088
				c0.044,0.041,0.091,0.084,0.128,0.137c0.094,0.135,0.133,0.293,0.168,0.432c0.039,0.158,0.073,0.294,0.169,0.358
				c0.057,0.037,0.152,0.063,0.253,0.089c0.138,0.037,0.294,0.077,0.419,0.172c0.04,0.03,0.068,0.067,0.09,0.097
				c0.009,0.012,0.023,0.031,0.03,0.036c0.067,0.034,0.138,0.037,0.236,0.041c0.047,0.001,0.096,0.003,0.149,0.009
				c0.338,0.036,0.628,0.153,0.909,0.267c0.158,0.063,0.315,0.128,0.48,0.175c0.148,0.043,0.301,0.063,0.463,0.085
				c0.168,0.023,0.342,0.046,0.514,0.097c4.209,1.23,7.844,2.215,11.112,3.012c4.927,1.204,10.231,2.423,15.634,3.193
				c7.929,1.13,16.395,1.866,25.882,2.25c0.511,0.021,1.023,0.04,1.536,0.059c0.983,0.037,1.97,0.074,2.962,0.123
				c0.773,0.038,1.566,0.039,2.334,0.039c0.741,0,1.508,0.001,2.267,0.034c2.178,0.096,4.385,0.074,6.519,0.054
				c0.916-0.009,1.832-0.018,2.746-0.018c2.894,0,5.964-0.073,9.124-0.218c5.365-0.245,11.596-0.553,17.666-1.089
				c7.987-0.707,16.368-1.805,24.909-3.267c1.315-0.225,2.661-0.5,3.893-0.797c1.326-0.32,2.574-0.62,3.594-1.079
				c0.409-0.183,0.684-0.611,0.684-1.064c0-0.292-0.112-0.568-0.323-0.798c-0.67-0.73-2.229-1.101-3.603-1.428l-0.491-0.118
				c-2.845-0.696-5.547-1.196-8.031-1.485c-1.766-0.205-3.651-0.258-5.473-0.308c-0.587-0.016-1.175-0.032-1.763-0.053
				c-6.872-0.248-13.991-0.363-22.407-0.363c-0.615,0-1.233,0.009-1.849,0.018s-1.233,0.018-1.846,0.018
				c-4.382,0-8.79-0.009-13.207-0.018c-4.436-0.009-8.881-0.018-13.32-0.018c-4.447-0.001-8.934,0.037-13.273,0.072
				c-4.304,0.036-8.754,0.072-13.15,0.072c-4.717,0-9.513,0.127-14.152,0.25c-1.492,0.039-2.979,0.079-4.459,0.114l-0.242,0.006
				l0.069-0.232c0.117-0.396,0.274-0.751,0.425-1.095l0.115-0.263l0.113-0.002c2.296-0.048,4.596-0.112,6.903-0.176
				c4.616-0.128,9.389-0.26,14.12-0.261c3.548,0,7.112-0.074,10.558-0.145c0.706-0.014,1.415-0.017,2.124-0.02
				c1.041-0.004,2.117-0.008,3.17-0.052c0.865-0.037,1.742-0.026,2.589-0.014c0.89,0.011,1.81,0.022,2.708-0.022
				c0.943-0.046,1.906-0.046,2.838-0.045c0.806,0.001,1.64,0.001,2.463-0.028c1.772-0.063,3.58-0.072,5.269-0.072
				c1.763,0,3.554-0.037,5.287-0.073C183.682,186.001,185.471,185.964,187.227,185.964z M116.737,186.98l0.01,0.167
				c0.03,0.52,0.158,0.932,0.293,1.368l0.081,0.263l-0.23,0.008c-2.932,0.108-5.748,0.507-8.381,0.906
				c-0.056,0.008-0.114,0.02-0.171,0.031c-0.148,0.028-0.287,0.055-0.399,0.042c-0.449-0.05-1.196-0.722-1.404-0.969
				c-0.138-0.163-0.361-0.505-0.419-0.721c-0.037-0.139-0.038-0.282-0.039-0.42c-0.001-0.223-0.009-0.362-0.1-0.426l-0.459-0.318
				l0.558-0.003c1.7-0.01,3.481,0.014,5.204,0.036c1.736,0.022,3.532,0.046,5.288,0.037L116.737,186.98z M197.493,188.935
				c3.995-0.01,8.126-0.021,12.15,0.043c1.095,0.017,2.2,0.05,3.311,0.083c1.612,0.048,3.278,0.098,4.913,0.099
				c1.242,0,2.617,0.037,4.088,0.109c0.634,0.032,1.265,0.048,1.891,0.065c0.711,0.019,1.445,0.039,2.154,0.079
				c3.407,0.199,6.547,0.885,9.584,1.549l1.249,0.272c0.496,0.106,1.022,0.258,1.659,0.478l0.194,0.065
				c0.447,0.146,0.955,0.312,1.255,0.767l0.125,0.19l-0.216,0.074c-4.544,1.562-9.409,2.255-14.558,2.988l-0.498,0.07
				c-5.326,0.76-10.735,1.408-16.077,1.926c-5.255,0.511-10.548,0.82-16.88,1.127c-5.994,0.29-12.148,0.29-17.577,0.29
				c-8.009,0-16.44-0.392-25.775-1.199c-8.445-0.73-16.334-1.941-23.449-3.6c-4.167-0.971-7.613-1.837-10.848-2.725l-4.303-1.275
				l0.767-0.123c3.775-0.605,7.63-0.72,11.711-0.84c1.352-0.041,2.75-0.082,4.135-0.143c1.485-0.064,2.983-0.072,4.121-0.072
				c2.022,0,4.112-0.046,6.134-0.09c2.048-0.045,4.166-0.092,6.241-0.092c2.742,0,5.552-0.028,8.27-0.054
				c2.748-0.027,5.589-0.054,8.392-0.054h33.429C194.553,188.942,196.023,188.938,197.493,188.935z M126.511,177.726l-0.084,0.23
				c-0.824,2.244-1.719,4.464-2.584,6.611c-0.55,1.364-1.099,2.728-1.635,4.106l-0.043,0.111l-0.12,0.001
				c-1.245,0.011-2.533,0.022-3.794,0.072l-0.062,0.002l-0.05-0.037c-0.14-0.105-0.21-0.29-0.262-0.426
				c-0.187-0.487-0.404-1.312-0.331-2.379c0.134-1.953,1.185-3.327,2.343-4.678c1.327-1.55,2.409-2.653,3.404-3.472l0.045-0.037
				l0.058-0.003c0.246-0.012,0.489-0.028,0.732-0.043c0.68-0.043,1.383-0.087,2.14-0.066L126.511,177.726z"/>
		</g>
		<g>
			<path fill="#010101" d="M274.531,234.881c0,0.296-0.001,0.499-0.001,0.593c0.01,1.046,0.068,15.216-1.911,22.896
				c-2.051,7.96-8.393,16.406-8.457,16.49l-0.56-0.424c0.063-0.083,6.32-8.419,8.336-16.242c1.931-7.491,1.901-21.299,1.889-22.664
				h-0.001l0.001-0.113c0.008-1.371,0.042-15.175-1.889-22.664c-2.016-7.826-8.273-16.159-8.336-16.242l0.56-0.424
				c0.064,0.084,6.406,8.53,8.457,16.49C274.418,219.562,274.531,231.912,274.531,234.881z"/>
		</g>
		<g>
			<path fill="#010101" d="M50.825,203.349c-0.091,0.152-9.024,15.263-9.136,32.439c0.112,17.176,9.045,32.288,9.136,32.44
				l-0.603,0.361c-0.091-0.152-9.011-15.235-9.233-32.474h-0.004l0.004-0.653c0.222-17.24,9.142-32.322,9.233-32.474L50.825,203.349
				z"/>
		</g>
		<g>

				<rect x="167.132" y="278.214" transform="matrix(0.244 -0.9698 0.9698 0.244 -138.3105 379.5353)" fill="#231F20" width="14.28" height="0.527"/>
		</g>
		<g>

				<rect x="174.013" y="185.479" transform="matrix(0.9695 -0.245 0.245 0.9695 -41.8811 48.5694)" fill="#231F20" width="0.527" height="14.28"/>
		</g>
		<g>
			<path fill="#231F20" d="M105.277,195.34c-0.04,0.011-4.071,1.135-7.297,5.697c-3.247,4.589-7.238,23.865-7.238,34.957
				c0,9.802,3.882,30.253,7.238,34.996c3.234,4.571,7.257,5.686,7.297,5.697l-0.136,0.51c-0.172-0.046-4.249-1.176-7.592-5.902
				c-3.401-4.807-7.335-25.433-7.335-35.262c0-11.207,4.044-30.65,7.335-35.301c3.343-4.726,7.42-5.856,7.592-5.902L105.277,195.34z
				"/>
		</g>
		<g>
			<path fill="#231F20" d="M239.908,278.276c-11.23,2.709-15.392,2.839-21.694,3.035l-1.564,0.05
				c-6.864,0.23-71.855,0.007-85.548-0.231c-13.175-0.229-18.288-1.149-18.338-1.158l0.096-0.518
				c0.049,0.009,5.132,0.922,18.252,1.15c13.69,0.238,78.661,0.46,85.521,0.231l1.565-0.05c6.269-0.195,10.41-0.324,21.587-3.02
				L239.908,278.276z"/>
		</g>
		<g>
			<path fill="#231F20" d="M238.245,193.078l-0.124,0.512c-11.179-2.697-15.321-2.825-21.59-3.02l-1.562-0.049
				c-6.859-0.23-71.83-0.007-85.521,0.231c-13.119,0.227-18.202,1.14-18.252,1.15l-0.096-0.519c0.05-0.009,5.163-0.929,18.338-1.158
				c13.694-0.238,78.685-0.46,85.548-0.231l1.56,0.05C222.85,190.24,227.013,190.369,238.245,193.078z"/>
		</g>
	</g>
</g>
</svg>
