<?xml version="1.0" encoding="utf-8"?>
<!-- Generator: Adobe Illustrator 17.0.0, SVG Export Plug-In . SVG Version: 6.00 Build 0)  -->
<!DOCTYPE svg PUBLIC "-//W3C//DTD SVG 1.1//EN" "http://www.w3.org/Graphics/SVG/1.1/DTD/svg11.dtd">
<svg version="1.1" id="Layer_1" xmlns="http://www.w3.org/2000/svg"  x="0px" y="0px"
	 width="259.706px" height="87.161px" viewBox="-83.264 198.766 259.706 87.161"
	 enable-background="new -83.264 198.766 259.706 87.161" xml:space="preserve">
<g id="back-left">
	<path fill="#FFFFFF" d="M106.692,270.748c0,0-2.886-9.563,3.176-18.188l-0.875-4.875c0,0,7.375-13.25,8.75-20.5
		s1.958-15.458,0.167-16.417l2.083-3.083c0,0,12.75,6.375,17.875,7.875s17.5,5.375,24.75,5c0,0,3.375-2.125,4.5,0
		s1.27,5.54,1.27,5.54s5.1,6.03,3.04,10.62c0,0,5.16,1.063,4.3,9.514s-0.86,8.451-0.86,8.451s-0.125,5.375-5.625,7.625
		s-21.625,6.25-21.625,6.25s-2.235,17.509-20.25,16.5c-15.625-0.875-17.375-14.5-17.375-14.5L106.692,270.748z"/>
</g>
<g id="front-windscreen">
	<path fill="#FFFFFF" d="M-23.028,226.275c0,0,32.247-14.909,53.259-21.312l2.398,1.589c0,0-33.719,12.8-44.011,17.758
		C-11.382,224.31-15.507,226.643-23.028,226.275z"/>
</g>
<g id="side-glass">
	<path fill="#FFFFFF" d="M58.118,227.185l6.875-20.125c0,0-24.75,1.125-38.75,7s-22.875,10.875-25.75,13.25s-5.5,4.375,2.25,3.875
		S58.118,227.185,58.118,227.185z"/>
	<path fill="#FFFFFF" d="M66.243,227.06l4.5-20.625c0,0,24.375,1,31.875,2.875s12.417,2.332,10.042,8.125s-2.708,7.583-15.333,8.083
		S66.243,227.06,66.243,227.06z"/>
</g>
<g id="left">
	<path fill="#FF3947" d="M32.136,206.36l-39.393,15.825l0.667,4.583c-5,4.292-3.792,12.042-1.167,23.542
		c2.63,11.52,6.356,17.308,6.356,17.308v5.442l108.093-2.312c-2.551-10.52,3.27-18.125,3.27-18.125l-0.719-4.522
		c2.167-4.5,7.917-13.083,9.292-25.541c1.667-11.708-0.625-11.792-0.625-11.792l2.083-3.083c-8.306-4.494-27.5-7-50.5-8.25
		s-39.375,5.625-39.375,5.625L32.136,206.36z M2.743,231.185c-7.75,0.5-5.125-1.5-2.25-3.875s11.75-7.375,25.75-13.25
		s38.75-7,38.75-7l-6.875,20.125C58.118,227.185,10.493,230.685,2.743,231.185z M102.618,209.31c7.5,1.875,12.25,2.082,9.875,7.875
		s-2.125,7.5-14.75,8s-31.5,1.875-31.5,1.875l4.5-20.625C70.743,206.435,95.118,207.435,102.618,209.31z"/>
</g>
<g id="front-left">
	<path fill="#FFFFFF" d="M-1.401,267.618v5.442l-11.231,0.25c0,0-4.75,11.5-19.75,11.5c-12.375-0.5-16-12.875-16-12.875
		s-22.125-2-26.5-1.75s-5.875-2.75-6.375-6.125s-1-7-1.125-9.375c-0.125-2.375,1.625-4.875,2.625-5.75s4.288-4.531,5.644-6.328
		s2.606-4.047,7.731-5.547s26.208-8.695,43.354-10.785c0,0,6.021,0.41,10.896-1.84s4.875-2.25,4.875-2.25l1,4.667
		c0,0-5.875,3.833-2.125,20.083C-5.103,261.143-1.401,267.618-1.401,267.618z"/>
</g>
<g>
	<g>
		<path fill="#010101" d="M176.442,244.62c0,0.643-0.034,1.325-0.099,2.027c-0.141,1.516-0.212,2.909-0.274,4.139
			c-0.305,6.04-0.489,9.685-8.55,12.642c-6.252,2.292-11.642,3.157-14.298,3.468l-0.828,0.097l0.044-0.833
			c0.023-0.413,0.035-0.828,0.035-1.246c0-12.628-10.274-22.903-22.902-22.903c-12.628,0-22.902,10.274-22.902,22.903
			c0,1.913,0.238,3.817,0.706,5.66l0.224,0.88l-1.323-0.005c-0.51-0.002-1.02-0.003-1.544-0.008
			c-30.849-0.291-103.529,1.19-111.715,1.36l-0.929,0.019l0.234-0.9c0.489-1.88,0.737-3.824,0.737-5.78
			c0-12.628-10.274-22.903-22.902-22.903s-22.903,10.274-22.903,22.903c0,1.699,0.194,3.413,0.576,5.096l0.198,0.873l-1.577-0.025
			c-0.214-0.012-18.587-1.044-21.472-0.998c-3.568,0.057-6.463-2.461-7.205-6.265c-0.714-3.663-0.961-8.888-0.983-9.388
			c-0.014-0.116-0.054-0.475-0.054-0.972c0-1.338,0.288-3.812,2.217-5.35c2.226-1.774,6.108-6.823,6.543-7.393
			c0.266-0.52,1.901-3.376,6.284-4.724c0.518-0.16,1.304-0.412,2.314-0.736c7.79-2.5,28.445-9.127,42.538-10.619
			c29.174-13.891,53.417-21.176,53.659-21.248c5.057-1.551,23.07-6.534,42.294-5.481c20.348,1.115,41.265,3.347,56.413,12.049
			c13.456,7.73,31.765,8.641,33.559,8.713c0.597-0.225,2.72-0.894,4.4,0.206c1.316,0.861,1.985,2.541,1.985,4.991
			c0,0.263-0.008,0.539-0.023,0.828c0.85,0.865,3.411,3.933,3.411,9.516c0,0.331-0.009,0.669-0.027,1.008
			C173.591,236.745,176.441,238.586,176.442,244.62z M153.874,265.396c2.794-0.376,7.629-1.261,13.161-3.289
			c7.188-2.636,7.327-5.38,7.63-11.392c0.063-1.244,0.134-2.653,0.278-4.199c0.062-0.659,0.093-1.297,0.093-1.897
			c-0.001-6.394-3.458-7.178-3.606-7.209l-0.611-0.125l0.044-0.623c0.041-0.489,0.061-0.976,0.061-1.45
			c0-5.869-3.155-8.673-3.186-8.701l-0.266-0.231l0.024-0.354c0.027-0.376,0.041-0.728,0.041-1.058c0-1.945-0.454-3.229-1.349-3.814
			c-1.283-0.84-3.207-0.038-3.226-0.03l-0.144,0.063l-0.157-0.004c-0.198-0.005-19.967-0.634-34.362-8.904
			c-14.894-8.556-35.616-10.758-55.79-11.864c-18.992-1.041-36.804,3.888-41.811,5.423c-0.247,0.073-24.454,7.349-53.57,21.223
			l-0.109,0.052l-0.121,0.013c-13.95,1.452-34.601,8.078-42.374,10.572c-1.017,0.326-1.808,0.58-2.33,0.741
			c-4.098,1.261-5.406,3.938-5.46,4.051l-0.077,0.127c-0.176,0.232-4.341,5.714-6.827,7.696c-2.127,1.695-1.644,5.05-1.643,5.06
			c0.009,0.124,0.252,5.616,0.966,9.28c0.701,3.595,3.419,5.166,5.802,5.128c2.793-0.045,19.09,0.861,21.318,0.986
			c-0.284-1.5-0.427-3.019-0.427-4.526c0-13.404,10.905-24.309,24.309-24.309s24.309,10.905,24.309,24.309
			c0,1.765-0.19,3.522-0.567,5.235c11.614-0.239,80.906-1.624,110.847-1.342c0.358,0.003,0.71,0.005,1.06,0.007
			c-0.361-1.679-0.543-3.4-0.543-5.127c0-13.404,10.905-24.309,24.309-24.309s24.309,10.905,24.309,24.309
			C153.878,265.075,153.876,265.236,153.874,265.396z"/>
	</g>
	<g>
		<path fill="#010101" d="M-53.408,271.784l-0.336-0.015"/>

			<rect x="-53.924" y="271.613" transform="matrix(-0.043 0.9991 -0.9991 -0.043 215.6537 336.9893)" fill="#010101" width="0.703" height="0.336"/>
	</g>
	<g>
		<path fill="#010101" d="M151.375,267.166c0.008-0.163,0.011-0.326,0.018-0.489c-0.155,0.039-0.31,0.081-0.465,0.12
			L151.375,267.166z"/>
		<polygon fill="#010101" points="151.764,266.221 151.691,267.883 150.168,266.624 		"/>
	</g>
	<g>
		<path fill="#010101" d="M-7.052,272.872c0.006-0.123,0.009-0.247,0.014-0.371c-0.124,0.008-0.247,0.014-0.371,0.022
			L-7.052,272.872z"/>
		<polygon fill="#010101" points="-6.672,272.125 -6.74,273.668 -8.218,272.224 		"/>
	</g>
	<g>
		<path fill="#010101" d="M105.876,270.843c-0.129-0.003-0.258-0.004-0.387-0.007c0.006,0.129,0.009,0.259,0.015,0.388
			L105.876,270.843z"/>
		<polygon fill="#010101" points="106.694,270.509 105.197,272.045 105.122,270.477 		"/>
	</g>
	<g>
		<path d="M119.179,216.021c0,3.125-0.407,6.48-1.244,10.259c-0.45,2.001-1.009,4.055-1.712,6.28l-0.212,0.653
			c-0.589,1.816-1.198,3.693-1.996,5.49c-1.803,4.073-3.932,7.926-5.958,11.523c-1.124,1.981-2.195,3.808-3.274,5.588l-0.466,0.757
			c-0.962,1.566-1.957,3.185-3.124,4.703c-0.588,0.746-1.397,1.691-2.469,2.406c-0.88,0.595-1.977,1.021-3.256,1.263
			c-2.092,0.385-4.195,0.444-6.229,0.502l-0.316,0.009l-38.722,0.705c-16.409,0.362-33.289,0.839-51.602,1.459
			c-0.24,0.008-0.456-0.123-0.556-0.334c-2.005-4.207-3.71-8.805-5.363-14.467c-0.83-2.895-1.421-5.275-1.862-7.493
			c-0.578-2.923-0.847-5.344-0.847-7.621v-0.104c0.004-1.272,0.1-2.583,0.284-3.898c0.191-1.318,0.402-2.604,0.895-3.854
			c0.443-1.174,1.286-2.299,2.436-3.248c1.114-0.926,2.281-1.7,3.173-2.271c4.564-2.823,9.442-5.226,13.613-7.205
			c4.777-2.243,9.54-4.263,14.158-6.007c5.303-1.999,10.103-3.514,14.676-4.629c8.915-2.216,18.896-3.366,30.513-3.516
			c8.111-0.136,16.555,0.334,25.815,1.436c5.031,0.617,9.094,1.271,12.788,2.06c1.891,0.407,4.115,0.944,6.281,1.843
			c0.958,0.401,2.053,0.898,2.947,1.733c0.819,0.741,1.36,1.885,1.52,3.218C119.141,214.166,119.179,215.091,119.179,216.021z
			 M-1.357,266.912c18.292-0.619,35.151-1.096,51.542-1.457l39.032-0.714c2.007-0.057,4.083-0.116,6.12-0.49
			c1.183-0.224,2.191-0.613,2.993-1.155c0.991-0.661,1.752-1.552,2.306-2.254c1.143-1.486,2.127-3.089,3.081-4.639l0.466-0.756
			c1.074-1.771,2.142-3.593,3.262-5.566c2.016-3.582,4.136-7.418,5.927-11.463c0.783-1.763,1.386-3.623,1.97-5.422l0.212-0.651
			c0.696-2.203,1.25-4.238,1.695-6.218c1.071-4.831,1.43-8.964,1.121-12.799c-0.08-0.66-0.356-1.918-1.298-2.77
			c-0.812-0.759-1.841-1.224-2.741-1.601c-2.113-0.878-4.298-1.405-6.158-1.805c-3.672-0.784-7.716-1.435-12.724-2.049
			c-9.227-1.097-17.64-1.565-25.72-1.43c-11.564,0.149-21.492,1.292-30.356,3.495c-4.547,1.109-9.321,2.615-14.596,4.604
			c-4.602,1.737-9.348,3.751-14.106,5.985c-4.361,2.069-9.021,4.37-13.539,7.165c-0.87,0.557-2.013,1.315-3.098,2.217
			c-1.056,0.872-1.827,1.896-2.229,2.96c-0.467,1.185-0.671,2.426-0.855,3.7c-0.18,1.281-0.273,2.561-0.277,3.801v0.102
			c0,2.229,0.264,4.608,0.833,7.484c0.437,2.198,1.023,4.56,1.847,7.434C-5.013,258.213-3.331,262.758-1.357,266.912z"/>
	</g>
	<g>
		<path d="M113.245,214.324c0,0.605-0.088,1.182-0.174,1.666c-0.231,1.193-0.537,2.375-0.938,3.619
			c-0.519,1.507-1.158,2.574-2.015,3.369c-0.845,0.806-2.012,1.36-3.564,1.687c-1.168,0.241-2.321,0.381-3.693,0.517
			c-2.388,0.225-4.812,0.406-7.158,0.582l-0.155,0.012c-9.556,0.666-18.892,1.236-29.232,1.861
			c-0.455,0.027-0.849-0.321-0.878-0.777c-0.001-0.111,0.006-0.176,0.021-0.238c0.507-2.172,1.009-4.34,1.512-6.509
			c1.039-4.482,2.114-9.118,3.204-13.67c0.097-0.406,0.456-0.692,0.874-0.694c6.234-0.044,12.666,0.312,19.118,1.058
			c3.343,0.389,6.441,0.827,9.472,1.338l0.9,0.158c2.803,0.491,5.701,0.998,8.488,1.845c0.582,0.188,1.193,0.396,1.784,0.665
			c0.525,0.242,1.189,0.596,1.69,1.191c0.563,0.657,0.712,1.471,0.738,2.037C113.243,214.135,113.245,214.229,113.245,214.324z
			 M66.556,226.565c10.217-0.617,19.461-1.183,28.917-1.842l0.151-0.011c2.34-0.175,4.76-0.357,7.135-0.58
			c1.337-0.133,2.458-0.268,3.58-0.5c1.351-0.285,2.352-0.75,3.057-1.422c0.73-0.677,1.281-1.608,1.737-2.934
			c0.385-1.194,0.681-2.335,0.902-3.479c0.089-0.495,0.179-1.103,0.151-1.706c-0.018-0.402-0.117-0.97-0.488-1.403
			c-0.37-0.44-0.902-0.72-1.325-0.916c-0.54-0.245-1.117-0.442-1.66-0.617c-2.717-0.826-5.582-1.328-8.354-1.813l-0.897-0.157
			c-3.01-0.508-6.09-0.944-9.415-1.33c-6.368-0.737-12.716-1.09-18.871-1.052c-1.08,4.512-2.145,9.105-3.175,13.548
			C67.519,222.423,67.039,224.494,66.556,226.565z"/>
	</g>
	<g>
		<path d="M-51.814,239.713c0,0.123-0.035,0.243-0.101,0.348c-1.268,1.993-2.724,3.75-4.327,5.225
			c-0.938,0.85-1.854,1.518-2.803,2.045c-1.134,0.645-2.429,0.975-3.304,1.166c-2.407,0.503-4.822,0.706-6.657,0.826
			c-2.215,0.134-4.455,0.172-6.658,0.115l-0.337-0.009l-0.045-0.469l0.052-0.103c0.569-0.974,1.194-1.894,1.86-2.739
			c0.688-0.848,1.443-1.723,2.472-2.334c0.921-0.435,1.844-0.7,2.737-0.957l0.445-0.128c0.923-0.258,1.897-0.512,3.164-0.825
			c4.646-1.126,9.239-2.086,12.721-2.797c0.169-0.035,0.343-0.002,0.488,0.093c0.145,0.095,0.244,0.242,0.279,0.412L-51.814,239.713
			z M-75.107,248.748c2.017,0.038,4.048-0.004,6.058-0.126c1.81-0.119,4.194-0.319,6.554-0.812c1.334-0.292,2.293-0.629,3.106-1.092
			c0.904-0.502,1.778-1.14,2.673-1.951c1.528-1.406,2.92-3.08,4.139-4.975c-3.462,0.707-7.993,1.657-12.571,2.766
			c-1.258,0.311-2.226,0.564-3.138,0.818l-0.443,0.128c-0.906,0.26-1.761,0.506-2.602,0.902c-0.9,0.535-1.607,1.357-2.252,2.152
			C-74.121,247.24-74.633,247.975-75.107,248.748z"/>
	</g>
	<g>
		<path d="M-64.429,261.371v0.033c-0.001,0.052-0.006,0.105-0.013,0.153c-0.217,1.495-0.568,2.784-1.046,3.835
			c-0.271,0.586-0.569,1.049-0.886,1.377c-0.387,0.325-0.681,0.434-0.965,0.54l-0.094,0.035c-1.203,0.395-2.349,0.523-3.617,0.639
			c-1.072,0.058-2.304,0.116-3.536,0.089c-1.415-0.029-2.5-0.097-3.516-0.221l-0.269-0.033l-0.058-0.307
			c-0.145-1.539,0.153-3.121,0.687-4.014c0.123-0.248,0.322-0.472,0.548-0.609c0.152-0.102,0.317-0.184,0.483-0.26
			c0.322-0.146,0.639-0.251,0.935-0.343c1.247-0.375,2.472-0.599,3.619-0.797c2.17-0.345,4.445-0.616,7.166-0.853
			c0.126-0.011,0.248,0.031,0.343,0.118C-64.457,260.927-64.429,261.215-64.429,261.371z M-77.748,267.186
			c0.945,0.1,1.929,0.157,3.178,0.182c1.086,0.023,2.173-0.018,3.47-0.088c1.211-0.111,2.316-0.233,3.433-0.6l0.084-0.031
			c0.26-0.096,0.465-0.172,0.731-0.394c0.234-0.247,0.488-0.644,0.725-1.156c0.449-0.989,0.782-2.214,0.989-3.638
			c0.002-0.02,0.005-0.047,0.006-0.074l0.352-0.015h-0.352c0-0.006,0-0.012,0-0.017c-2.616,0.231-4.816,0.495-6.909,0.828
			c-1.121,0.194-2.322,0.413-3.528,0.776c-0.271,0.084-0.564,0.182-0.851,0.311c-0.131,0.06-0.264,0.124-0.396,0.212
			c-0.125,0.076-0.235,0.204-0.309,0.353C-77.566,264.574-77.818,265.939-77.748,267.186z"/>
	</g>
	<g>
		<path d="M175.751,246.94l-9.771,0.3c-0.019,0.062-0.041,0.152-0.048,0.242c-0.115,1.518-0.102,2.747,0.036,3.651
			c0.106,0.622,0.233,0.822,0.299,0.885c0.107,0.081,0.251,0.123,0.433,0.175c0.673,0.162,7.61-0.3,8.54-0.567l0.194,0.676
			c-0.974,0.279-7.995,0.792-8.891,0.577c-0.251-0.072-0.494-0.142-0.734-0.33c-0.266-0.251-0.423-0.647-0.535-1.305
			c-0.149-0.975-0.163-2.222-0.043-3.817c0.019-0.242,0.104-0.561,0.251-0.732l0.096-0.111l0.196-0.043l9.954-0.307L175.751,246.94z
			"/>
	</g>
	<g>
		<path d="M66.138,206.607l-7.925,21.042l-57.954,4.264c-1.435,0.028-2.312-0.178-2.789-0.647c-0.248-0.243-0.378-0.553-0.378-0.899
			c0-1.075,1.301-2.203,1.562-2.418c29.565-21.939,66.373-21.367,66.741-21.359L66.138,206.607z M57.463,226.646l7.158-19.002
			c-5.368,0.045-38.398,1.16-65.317,21.136c-0.454,0.377-1.158,1.159-1.158,1.588c0,0.062,0.016,0.102,0.062,0.146
			c0.115,0.113,0.542,0.374,2.003,0.346L57.463,226.646z"/>
	</g>
	<g>
		<path fill="#010101" d="M148.338,265.938l-0.001,0.17l0.001,0.157c0,5.119-2.082,10.134-5.711,13.758
			c-3.644,3.729-8.718,5.882-13.917,5.901c-5.247,0.076-10.394-2.005-14.113-5.709c-3.748-3.686-5.899-8.813-5.899-14.065v-0.074
			c0-5.259,2.151-10.394,5.904-14.087c3.719-3.701,8.864-5.782,14.114-5.706c5.19,0.019,10.266,2.171,13.917,5.905
			C146.256,255.804,148.338,260.819,148.338,265.938z M146.931,266.107l0.001-0.17c0-4.748-1.932-9.4-5.299-12.762
			c-3.396-3.472-8.107-5.471-12.931-5.488c-4.809-0.069-9.708,1.912-13.112,5.3c-3.487,3.432-5.486,8.202-5.486,13.087v0.074
			c0,4.877,1.998,9.639,5.483,13.066c3.455,3.442,8.233,5.373,13.111,5.302c4.832-0.018,9.542-2.016,12.931-5.483
			c3.373-3.369,5.305-8.02,5.305-12.769L146.931,266.107z"/>
	</g>
	<g>
		<path d="M129.57,241.309c-13.037,0-23.606,10.569-23.606,23.606c0,2.013,0.254,3.967,0.728,5.833
			c-0.648-0.002-1.291-0.003-1.955-0.009c-30.955-0.292-104.803,1.216-111.736,1.36c0.495-1.903,0.76-3.899,0.76-5.957
			c0-13.037-10.569-23.606-23.606-23.606s-23.606,10.569-23.606,23.606c0,1.806,0.21,3.562,0.594,5.252l-0.681-0.011
			c0,0-1.019-0.057-2.607-0.144l1.45,0.657c0,0,2.402,0.442,6.674,0.954c-0.942-2.294-1.45-4.766-1.444-7.248
			c-0.009-5.072,2.096-10.077,5.693-13.618c3.578-3.561,8.605-5.576,13.61-5.504c5.021,0.018,9.947,2.136,13.426,5.694
			c3.523,3.517,5.55,8.459,5.505,13.423c0.027,2.999-0.707,5.989-2.065,8.662c1.309-0.042,2.634-0.092,3.985-0.158
			c37.369-1.821,84.136-0.505,119.796-1.695c-0.709-2.02-1.089-4.156-1.084-6.299c-0.009-5.072,2.096-10.077,5.693-13.618
			c3.578-3.561,8.605-5.576,13.61-5.504c5.021,0.018,9.947,2.136,13.426,5.694c3.523,3.517,5.55,8.459,5.505,13.423
			c0.01,1.065-0.082,2.129-0.257,3.178c4.126-0.751,7.633-1.655,10.392-2.748c5.811-2.3,8.11-3.067,8.11-3.067l-0.109-0.168
			c-5.433,1.841-10.029,2.596-12.631,2.901c0.023-0.425,0.036-0.852,0.036-1.283C153.175,251.877,142.607,241.309,129.57,241.309z"
			/>
	</g>
	<g>
		<path fill="#010101" d="M143.265,266.102c0,8.132-6.616,14.748-14.748,14.748s-14.748-6.616-14.748-14.748
			c0-8.132,6.616-14.748,14.748-14.748C136.65,251.354,143.265,257.97,143.265,266.102z M114.473,266.102
			c0,7.744,6.301,14.045,14.045,14.045c7.744,0,14.044-6.301,14.044-14.045c0-7.744-6.301-14.045-14.044-14.045
			C120.773,252.057,114.473,258.357,114.473,266.102z"/>
	</g>
	<g>
		<path fill="#010101" d="M-10.527,265.432l-0.001,0.17l0.001,0.157c0,5.119-2.082,10.134-5.712,13.758
			c-3.643,3.728-8.718,5.881-13.918,5.9c-5.247,0.076-10.393-2.005-14.112-5.709c-3.748-3.685-5.9-8.813-5.9-14.065v-0.075
			c0-5.259,2.151-10.393,5.903-14.086c3.719-3.701,8.864-5.782,14.114-5.706c5.191,0.019,10.267,2.171,13.918,5.905
			C-12.61,255.299-10.527,260.314-10.527,265.432z M-11.935,265.602l0.001-0.17c0-4.748-1.932-9.4-5.3-12.762
			c-3.396-3.472-8.107-5.47-12.931-5.488c-4.81-0.069-9.708,1.912-13.112,5.3c-3.487,3.432-5.486,8.201-5.486,13.086v0.075
			c0,4.877,1.998,9.64,5.483,13.066c3.455,3.441,8.233,5.373,13.11,5.302c4.833-0.018,9.543-2.016,12.93-5.483
			c3.374-3.369,5.305-8.02,5.305-12.769L-11.935,265.602z"/>
	</g>
	<g>
		<path fill="#010101" d="M-15.6,265.596c0,8.132-6.616,14.748-14.748,14.748s-14.748-6.616-14.748-14.748
			s6.616-14.748,14.748-14.748S-15.6,257.465-15.6,265.596z M-44.393,265.596c0,7.744,6.301,14.045,14.045,14.045
			s14.045-6.301,14.045-14.045s-6.301-14.045-14.045-14.045C-38.092,251.552-44.393,257.852-44.393,265.596z"/>
	</g>
	<g>
		<path d="M-17.189,226.315c-0.003,0.022-0.09,0.548-0.651,1.573c-1.147,2.098-5.629,3.006-19.194,5.267
			c-13.47,2.245-36.737,9.711-36.971,9.786l-0.108-0.334c0.234-0.075,23.525-7.549,37.021-9.798
			c13.172-2.196,17.877-3.138,18.944-5.089c0.526-0.961,0.611-1.454,0.612-1.459L-17.189,226.315z"/>
	</g>
	<g>
		<path d="M33.001,206.415l-0.372,0.137c0,0-13.417,4.94-19.857,7.308c-3.325,1.222-8.937,3.717-14.364,6.129
			c-5.051,2.245-9.822,4.366-12.252,5.237c-5.006,1.795-9.142,1.057-9.184,1.049l0.064-0.345c0.041,0.007,4.089,0.727,9.001-1.035
			c2.418-0.867,7.183-2.985,12.227-5.227c5.433-2.415,11.05-4.912,14.386-6.138c5.806-2.134,17.282-6.359,19.486-7.17l-2.068-1.086
			l0.163-0.311L33.001,206.415z"/>
	</g>
	<g>
		<path d="M69.586,203.476l-7.468,24.838c-2.645,4.81-2.728,8.511-2.909,16.62l-0.008,0.336c-0.193,8.304,2.334,20.446,2.36,20.567
			l-0.688,0.144c-0.025-0.123-2.571-12.354-2.375-20.727l0.008-0.336c0.183-8.209,0.267-11.965,2.978-16.91l7.429-24.735
			L69.586,203.476z"/>
	</g>
	<g>
		<path fill="#07090A" d="M171.428,236.72c0,0.178-0.134,0.33-0.315,0.349c-1.527,0.163-5.313,0.162-7.564-0.573
			c-2.194-0.716-5.457-5.802-5.595-6.018c-0.063-0.099-0.073-0.223-0.025-0.33c0.047-0.107,0.144-0.184,0.26-0.205
			c5.516-0.999,9.715-4.355,9.757-4.389c0.151-0.122,0.372-0.099,0.494,0.052c0.123,0.15,0.099,0.372-0.052,0.494
			c-0.17,0.138-4.123,3.3-9.557,4.433c1.093,1.633,3.458,4.811,4.936,5.294c1.958,0.639,5.542,0.726,7.272,0.542
			c0.193-0.021,0.366,0.119,0.387,0.312C171.427,236.695,171.428,236.708,171.428,236.72z"/>
	</g>
	<g>
		<path fill="#010101" d="M55.202,235.219c0,0.822-0.668,1.49-1.49,1.49H43.289c-0.822,0-1.49-0.668-1.49-1.49s0.668-1.49,1.49-1.49
			h10.423C54.534,233.729,55.202,234.397,55.202,235.219z M42.327,235.219c0,0.531,0.432,0.962,0.963,0.962h10.423
			c0.531,0,0.963-0.432,0.963-0.962s-0.432-0.963-0.963-0.963H43.29C42.759,234.256,42.327,234.688,42.327,235.219z"/>
	</g>
	<g>
		<path fill="#010101" d="M108.577,235.219c0,0.822-0.668,1.49-1.49,1.49H96.664c-0.822,0-1.49-0.668-1.49-1.49
			s0.668-1.49,1.49-1.49h10.423C107.909,233.729,108.577,234.397,108.577,235.219z M95.701,235.219c0,0.531,0.432,0.962,0.963,0.962
			h10.423c0.531,0,0.963-0.432,0.963-0.962s-0.432-0.963-0.963-0.963H96.664C96.133,234.256,95.701,234.688,95.701,235.219z"/>
	</g>
</g>
</svg>
