<?xml version="1.0" encoding="utf-8"?>
<!-- Generator: Adobe Illustrator 17.0.0, SVG Export Plug-In . SVG Version: 6.00 Build 0)  -->
<!DOCTYPE svg PUBLIC "-//W3C//DTD SVG 1.1//EN" "http://www.w3.org/Graphics/SVG/1.1/DTD/svg11.dtd">
<svg version="1.1" id="Layer_1" xmlns="http://www.w3.org/2000/svg"  x="0px" y="0px"
	 width="125.451px" height="87.21px" viewBox="102.557 381.576 125.451 87.21"
	 enable-background="new 102.557 381.576 125.451 87.21" xml:space="preserve">
<g id="back-left">
	<path fill="#FFFFFF" d="M129.209,385.614c0,0-0.022-0.365,1.074-0.615s4.51-0.525,4.51-0.525l-8.46,20.359
		c0,0,3.805,7.181,4.979,9.667c1.286,2.722,4.863,11.166,4.863,11.166l-0.336,29l-9.429,0.833c0,0-0.336,8.501-0.674,10.084
		s-1.263,2.833-4.462,2.833c-3.2,0-6.736,1.333-6.988-3.083c-0.253-4.416-0.673-9.75-0.673-9.75s-2.442-8.667-2.526-16
		s0.169-18.667,1.179-21.917C113.276,414.416,126.936,388.531,129.209,385.614z"/>
</g>
<g id="back-right">
	<path fill="#FFFFFF" d="M199.474,385.666c0,0-0.084-0.917-1.179-1.167c-1.094-0.25-5.626-0.542-5.626-0.542l8.665,19.709
		l-9.428,22.11l-0.218,28.786l10.48,0.437c0,0,0.55,8.471,0.674,10.084c0.183,2.375,1.263,2.833,4.462,2.833
		c3.2,0,6.736,1.333,6.988-3.083s0.674-9.751,0.674-9.751s3.034-6.416,2.526-16c-0.389-7.323-0.532-18.577-1.179-21.917
		C215.4,412.458,201.747,388.583,199.474,385.666z"/>
	<path fill="#FFFFFF" d="M212.741,409.346c-0.692,0.858,0.528,3.17,1.075,4.029c0.195,0.306,0.537,1.237,0.835,1.408
		c0.531,0.305,0.814-0.482,1.06-0.842c0.704-1.035,1.497-0.44,2.526-0.441c1.4-0.002,2.858-0.114,4.249-0.281
		c4.395-0.527,6.324-6.325,4.061-8.17s-9.984-1.515-11.449-0.791c-0.959,0.474-0.783,2.006-0.798,2.839
		c-0.015,0.822-0.427,1.181-0.902,1.598C213.18,408.884,212.952,409.085,212.741,409.346z"/>
</g>
<g id="back-windscreen">
	<path fill="#FF3947" d="M126.333,404.833c0,0,27.565-2.333,37.5-2.333c9.935,0,37.667,1.667,37.667,1.667l-7.694-15.958
		c0,0-31.193-2.438-60.113,0.375L126.333,404.833z"/>
</g>
<g id="back">
	<path fill="#FFFFFF" d="M126.125,405.125c0,0,31.513-4.235,75.063-1.125l-9.282,21.777l0.005,28.723c0,0-22.058-1.688-29.299-1.667
		c-6.777,0.02-26.773,1.833-26.773,1.833l0.098-28.979C130.817,411.66,126.125,405.125,126.125,405.125z"/>
</g>
<g id="right">
	<path fill="#FFFFFF" d="M199.173,385.271c0,0-0.316,2.5-0.064,3.625c0.253,1.125,5.62,12.625,6.693,13.563s3.157,2,4.799,2
		S199.173,385.271,199.173,385.271z"/>
</g>
<g id="left">
	<path fill="#FFFFFF" d="M116.683,407.778c-0.476-0.417-0.887-0.775-0.902-1.598c-0.015-0.833,0.16-2.365-0.798-2.839
		c-1.466-0.724-9.186-1.054-11.449,0.791c-2.263,1.845-0.333,7.643,4.061,8.17c1.391,0.167,2.849,0.279,4.249,0.281
		c1.028,0.001,1.822-0.594,2.526,0.441c0.244,0.36,0.527,1.147,1.06,0.842c0.297-0.171,0.641-1.102,0.835-1.408
		c0.547-0.859,1.767-3.171,1.075-4.029C117.127,408.168,116.899,407.967,116.683,407.778z"/>
	<path fill="#FFFFFF" d="M129.31,385.396c0,0,0.884,2.375,0.631,3.5c-0.253,1.125-5.619,12.625-6.693,13.563s-3.157,2-4.799,2
		C116.808,404.459,129.31,385.396,129.31,385.396z"/>
</g>
<g id="roof">
	<path id="r3" fill="#FFFFFF" d="M134.792,384.475l-1.1,4.108c0,0,29.299-2.5,60.113-0.375l-1.137-4.251
		C192.668,383.957,158.697,380.708,134.792,384.475z"/>
</g>
<g>
	<g>
		<g>
			<path d="M144.22,438.725"/>
		</g>
		<g>
			<g>
				<path d="M133.722,443.142l-0.029-0.001c-2.63-0.133-6.105-0.341-9.633-0.763c-0.939-0.119-1.705-0.236-2.413-0.368l-0.241-0.048
					c-0.721-0.144-1.467-0.292-2.198-0.644c-0.407-0.217-0.743-0.604-1.036-1.19c-0.206-0.419-0.375-0.896-0.519-1.461
					c-0.236-0.938-0.382-1.936-0.447-3.049l-0.015-0.256l0.32-0.076c3.419,0.182,6.763,0.625,9.295,0.99l0.299,0.05
					c1.421,0.234,2.89,0.478,4.354,0.923c0.495,0.136,0.984,0.439,1.3,0.811c0.313,0.348,0.582,0.793,0.815,1.355
					c0.359,0.893,0.588,1.88,0.7,3.021c0.034,0.345-0.174,0.651-0.475,0.699L133.722,443.142z M117.754,435.833
					c0.069,0.979,0.206,1.867,0.416,2.704c0.134,0.527,0.292,0.971,0.48,1.354c0.241,0.481,0.502,0.793,0.799,0.951
					c0.661,0.317,1.341,0.453,2.062,0.597l0.239,0.048c0.694,0.129,1.45,0.244,2.377,0.361c3.504,0.419,6.963,0.626,9.586,0.76
					c0.015-0.012,0.04-0.057,0.033-0.12c-0.107-1.09-0.324-2.029-0.663-2.871c-0.209-0.504-0.446-0.899-0.723-1.206
					c-0.299-0.351-0.736-0.564-1.047-0.65c-1.438-0.437-2.889-0.677-4.293-0.909l-0.294-0.049
					C124.272,436.449,121.049,436.021,117.754,435.833z"/>
			</g>
		</g>
		<g>
			<path d="M180.823,421.44H148.51v-10.726h32.313V421.44z M149.222,420.729h30.891v-9.304h-30.891V420.729z"/>
		</g>
		<g>
			<path d="M211.388,468.786h-5.767c-1.845,0-3.346-1.532-3.346-3.415l-0.927-9.114l1.414-0.143l0.931,9.186
				c0.004,1.171,0.867,2.064,1.928,2.064h5.767c1.062,0,1.925-0.894,1.925-1.993l0.934-9.257l1.414,0.143l-0.93,9.186
				C214.734,467.254,213.232,468.786,211.388,468.786z"/>
		</g>
		<g>
			<path d="M123.203,468.786h-5.767c-1.845,0-3.346-1.532-3.346-3.415l-0.926-9.114l1.414-0.143l0.93,9.186
				c0.003,1.171,0.867,2.064,1.928,2.064h5.767c1.061,0,1.924-0.894,1.924-1.993l0.934-9.257l1.414,0.143l-0.93,9.186
				C126.548,467.254,125.048,468.786,123.203,468.786z"/>
		</g>
		<g>
			<path d="M184.462,429.146h-40.794c-5.943,0-6.644-0.997-7.661-3.252c-0.079-0.176-0.162-0.359-0.252-0.551
				c-1.208-2.558-4.578-9.926-5.625-12.592c-1.028-2.618-4.403-7.609-4.438-7.66c-0.104-0.154-0.121-0.353-0.043-0.521
				c0.078-0.17,0.239-0.286,0.424-0.307c0.202-0.023,20.428-2.282,44.088-2.282c11.502,0,21.994,0.528,31.184,1.571
				c0.17,0.02,0.321,0.119,0.405,0.27c0.083,0.15,0.09,0.331,0.017,0.487c-0.027,0.058-2.725,5.788-3.768,8.442
				c-1.043,2.655-4.416,10.03-5.625,12.592c-0.091,0.191-0.174,0.375-0.252,0.55C191.105,428.149,190.405,429.146,184.462,429.146z
				 M127.064,405.229c0.996,1.515,3.219,4.999,4.058,7.132c1.039,2.645,4.394,9.979,5.597,12.527
				c0.093,0.197,0.179,0.387,0.26,0.567c0.837,1.855,1.184,2.624,6.689,2.624h40.794c5.505,0,5.852-0.769,6.688-2.625
				c0.082-0.181,0.167-0.369,0.26-0.566c1.205-2.553,4.563-9.893,5.598-12.526c0.84-2.139,2.729-6.225,3.479-7.833
				c-8.973-0.983-19.17-1.482-30.325-1.482C149.337,403.047,131.182,404.802,127.064,405.229z"/>
		</g>
		<g>
			<g>
				<path d="M195.607,443.141l-0.089-0.008c-0.291-0.047-0.499-0.354-0.464-0.699c0.111-1.137,0.34-2.124,0.698-3.017
					c0.234-0.563,0.503-1.008,0.821-1.363c0.309-0.365,0.798-0.67,1.303-0.808c1.464-0.445,2.938-0.688,4.363-0.924l0.276-0.046
					c2.54-0.366,5.885-0.81,9.287-0.991l0.119-0.006l0.007,0.007h0.183l0.011,0.337c-0.064,1.108-0.211,2.105-0.446,3.043
					c-0.146,0.569-0.316,1.047-0.519,1.459c-0.295,0.589-0.631,0.976-1.027,1.188c-0.739,0.356-1.485,0.505-2.207,0.648
					l-0.238,0.047c-0.727,0.135-1.492,0.252-2.415,0.369c-3.509,0.419-6.993,0.628-9.638,0.764L195.607,443.141L195.607,443.141z
					 M211.575,435.832c-3.293,0.188-6.518,0.616-8.977,0.971l-0.272,0.045c-1.408,0.232-2.864,0.473-4.302,0.91
					c-0.319,0.088-0.758,0.302-1.049,0.646c-0.282,0.316-0.52,0.712-0.729,1.216c-0.338,0.842-0.555,1.78-0.661,2.868
					c-0.007,0.063,0.018,0.107,0.031,0.12c2.638-0.135,6.104-0.343,9.59-0.76c0.91-0.115,1.666-0.23,2.378-0.362l0.236-0.048
					c0.721-0.144,1.401-0.278,2.07-0.601c0.285-0.152,0.547-0.465,0.79-0.948c0.186-0.378,0.343-0.821,0.479-1.354
					C211.369,437.7,211.506,436.813,211.575,435.832z"/>
			</g>
		</g>
		<g>
			<path d="M136.901,426.327c-0.005,0-0.01,0-0.015-0.001l-21.415-1.236c-0.146-0.008-0.257-0.132-0.251-0.276
				c0.277-6.58,2.485-8.341,4.26-9.757l0.321-0.258c1.768-1.433,6.713-8.622,6.763-8.694c0.084-0.123,0.25-0.15,0.371-0.069
				c0.121,0.083,0.152,0.249,0.069,0.37c-0.205,0.299-5.039,7.327-6.866,8.808l-0.325,0.261c-1.753,1.398-3.737,2.98-4.048,9.1
				l21.152,1.222c0.147,0.008,0.259,0.134,0.251,0.281C137.159,426.218,137.042,426.327,136.901,426.327z"/>
		</g>
		<g>
			<path d="M191.641,426.327c-0.141,0-0.258-0.109-0.266-0.251c-0.009-0.147,0.104-0.273,0.25-0.281l21.152-1.222
				c-0.312-6.119-2.294-7.701-4.047-9.1l-0.325-0.261c-1.826-1.479-7.342-9.187-7.575-9.514c-0.086-0.12-0.058-0.286,0.062-0.372
				c0.119-0.085,0.286-0.058,0.372,0.062c0.057,0.08,5.707,7.976,7.478,9.41l0.321,0.258c1.774,1.416,3.982,3.178,4.26,9.757
				c0.006,0.145-0.105,0.269-0.251,0.276l-21.415,1.236C191.65,426.327,191.646,426.327,191.641,426.327z"/>
		</g>
		<g>
			<path d="M117.619,457.728c-3.214,0-4.305-1.536-4.418-1.712c-4.016-8.526-1.839-34.186-1.745-35.273
				c0.623-7.172,5.297-14.101,5.496-14.392c1.064-2.033,10.821-20.522,12.966-22.235c2.169-1.73,28.416-2.419,33.655-2.54
				c5.674,0.087,33.953,0.608,36.124,2.342c2.071,1.654,11.106,18.692,12.971,22.234c1.031,1.392,4.279,6.283,5.207,13.731
				c0.323,2.587,2.125,27.6-1.622,35.573c-0.162,0.26-1.253,1.795-4.468,1.796c-0.944,0-1.993-0.137-3.116-0.406
				c-0.162-0.014-24.85-2.832-44.633-3.002c-18.245-0.175-43.117,3.453-43.361,3.489
				C119.614,457.591,118.565,457.728,117.619,457.728z M114.41,455.262c0.151,0.184,0.982,1.045,3.209,1.045
				c0.834-0.001,1.771-0.124,2.786-0.368c0.309-0.049,25.301-3.651,43.642-3.517c19.86,0.172,44.62,2.998,44.868,3.026
				c1.1,0.259,2.036,0.382,2.869,0.382c2.227,0,3.06-0.86,3.211-1.044c3.571-7.755,1.785-32.189,1.469-34.728
				c-0.891-7.145-3.994-11.791-4.953-13.08l-0.003,0.002l-0.21-0.278l0.037-0.029c-4.296-8.153-11.103-20.509-12.525-21.645
				c-1.459-0.988-19.242-1.785-35.231-2.031c-14.831,0.341-31.377,1.239-32.777,2.231c-1.445,1.154-8.347,13.701-12.633,21.854
				c-0.088,0.138-4.706,6.987-5.296,13.783C112.849,421.127,110.644,447.09,114.41,455.262z"/>
		</g>
		<g>
			<path d="M126.134,405.326c-0.069,0-0.14-0.014-0.207-0.042c-0.271-0.114-0.398-0.427-0.284-0.698l8.486-20.121
				c0.115-0.272,0.431-0.396,0.698-0.284c0.271,0.114,0.398,0.427,0.284,0.698L126.625,405
				C126.539,405.204,126.341,405.326,126.134,405.326z"/>
		</g>
		<g>
			<path d="M201.285,404.615c-0.206,0-0.401-0.12-0.489-0.321l-8.419-19.41c-0.117-0.27,0.007-0.584,0.277-0.701
				c0.27-0.114,0.583,0.006,0.701,0.277l8.419,19.41c0.117,0.27-0.007,0.584-0.277,0.701
				C201.428,404.601,201.356,404.615,201.285,404.615z"/>
		</g>
		<g>
			<path d="M200.862,456.305c-0.127-0.098-12.683-9.729-17.666-9.729h-34.933c-4.985,0-17.54,9.632-17.666,9.729l-0.745-0.967
				c0.529-0.407,13.014-9.983,18.411-9.983h34.933c5.396,0,17.882,9.576,18.41,9.983L200.862,456.305z"/>
		</g>
		<g>
			<path d="M219.142,413.977c-1.452,0-2.625-0.485-3.486-1.443c-1.706-1.896-1.558-5.026-1.507-5.67
				c-0.066-0.382-0.18-1.499,0.524-2.4c0.597-0.763,1.579-1.149,2.922-1.149c0.354,0,0.737-0.006,1.142-0.012
				c0.457-0.007,0.939-0.014,1.433-0.014c2.346,0,7.838,0,7.838,4.015c0,4.171-3.094,6.54-8.711,6.672L219.142,413.977z
				 M220.169,404.709c-0.486,0-0.962,0.007-1.412,0.014c-0.411,0.007-0.803,0.013-1.162,0.013c-0.883,0-1.489,0.203-1.802,0.604
				c-0.41,0.524-0.24,1.308-0.238,1.315l0.03,0.121l-0.013,0.125c-0.004,0.031-0.302,3.084,1.143,4.686
				c0.588,0.652,1.382,0.97,2.427,0.97l0.121-0.002c3.341-0.078,7.322-1.053,7.322-5.251
				C226.585,405.484,224.666,404.709,220.169,404.709z"/>
		</g>
		<g>
			<path d="M111.422,413.047L111.422,413.047l-0.154-0.001c-5.618-0.133-8.711-2.502-8.711-6.673c0-4.016,5.492-4.016,7.838-4.016
				c0.493,0,0.976,0.007,1.433,0.014c0.404,0.006,0.788,0.012,1.141,0.012c1.342,0,2.326,0.387,2.922,1.149
				c0.705,0.902,0.591,2.02,0.525,2.401c0.05,0.644,0.198,3.773-1.508,5.67C114.047,412.562,112.874,413.047,111.422,413.047z
				 M110.396,403.778c-4.498,0-6.417,0.776-6.417,2.595c0,4.198,3.982,5.173,7.323,5.251l0.12,0.002l0,0
				c1.046,0,1.84-0.318,2.429-0.973c1.202-1.337,1.231-3.833,1.141-4.682l-0.013-0.125l0.03-0.122c0-0.002,0.178-0.792-0.244-1.323
				c-0.314-0.396-0.919-0.597-1.797-0.597c-0.359,0-0.75-0.006-1.162-0.013C111.357,403.785,110.881,403.778,110.396,403.778z"/>
		</g>
		<g>
			<path d="M193.783,388.276c-0.225-0.01-22.619-0.954-30.04-0.954c-7.307,0-29.355,0.944-29.577,0.954l-0.022-0.533
				c0.222-0.009,22.282-0.954,29.6-0.954c7.433,0,29.838,0.945,30.063,0.954L193.783,388.276z"/>
		</g>
		<g>
			<path d="M118.975,404.517c-0.111,0-0.175-0.005-0.179-0.005c-0.146-0.013-0.255-0.142-0.242-0.288
				c0.012-0.146,0.157-0.256,0.288-0.243c0.137,0.014,3.422,0.239,5.477-3.428c2.175-3.884,5.099-10.224,5.394-11.696
				c0.294-1.471-0.301-3.887-0.307-3.911c-0.036-0.143,0.051-0.287,0.194-0.323c0.145-0.032,0.288,0.053,0.323,0.194
				c0.026,0.104,0.631,2.556,0.313,4.146c-0.309,1.541-3.212,7.854-5.451,11.851C122.836,404.289,119.747,404.517,118.975,404.517z"
				/>
		</g>
		<g>
			<path d="M210.485,404.517c-0.771,0-3.861-0.228-5.808-3.704c-2.239-3.999-5.144-10.312-5.451-11.852
				c-0.318-1.589,0.287-4.041,0.313-4.145c0.036-0.143,0.184-0.227,0.323-0.194c0.143,0.036,0.229,0.181,0.194,0.323
				c-0.006,0.024-0.602,2.44-0.307,3.911c0.294,1.471,3.217,7.811,5.393,11.696c2.062,3.68,5.443,3.425,5.476,3.428
				c0.151-0.012,0.277,0.096,0.289,0.242c0.013,0.147-0.096,0.276-0.242,0.289C210.66,404.512,210.597,404.517,210.485,404.517z"/>
		</g>
	</g>
</g>
</svg>
