<?xml version="1.0" encoding="utf-8"?>
<!-- Generator: Adobe Illustrator 17.0.0, SVG Export Plug-In . SVG Version: 6.00 Build 0)  -->
<!DOCTYPE svg PUBLIC "-//W3C//DTD SVG 1.1//EN" "http://www.w3.org/Graphics/SVG/1.1/DTD/svg11.dtd">
<svg version="1.1" id="Layer_1" xmlns="http://www.w3.org/2000/svg"  x="0px" y="0px"
	 width="124.495px" height="87.442px" viewBox="102.967 11.328 124.495 87.442"
	 enable-background="new 102.967 11.328 124.495 87.442" xml:space="preserve">
<g id="front-windscreen">
	<path fill="#FFFFFF" d="M121.173,39.749h87.529L198.083,17.75c0,0-36.547-1.927-65.583-0.167L121.173,39.749z"/>
</g>
<g id="right">
	<path fill="#FFFFFF" d="M113.958,46.896c0,0,4.313-9.375,3.126-10.625s-2.438-2.063-6.063-1.875s-6.875,0.125-7.063,2.938
		s1.875,5.688,4.875,6.125S113.27,44.708,113.958,46.896z"/>
	<polyline fill="#FFFFFF" points="121.173,39.749 121.354,39.386 134.583,13.667 130.583,14.334 117.437,38.511 	"/>
</g>
<g id="left">
	<path fill="#FFFFFF" d="M215.75,46.917c0,0-4.011-9.187-2.824-10.437c1.187-1.25,2.438-2.063,6.063-1.875s6.875,0.125,7.063,2.938
		c0.188,2.813-1.875,5.688-4.875,6.125S216.438,44.73,215.75,46.917z"/>
	<polyline fill="#FFFFFF" points="208.583,39.792 195.76,13.376 199.426,14.209 212.507,38.511 	"/>
</g>
<g id="front">
	<path fill="#FFFFFF" d="M127.917,53.459c0,0,12.702,9.576,16.167,13.458s6.1,6.167,8.092,6.708l-0.55,10.167l26.541-0.125
		l-0.417-10.125c0,0,6.146-5.438,8.833-7.875c2.75-2.667,15.625-12.083,15.625-12.083l-11.625,5.5l-3.667-0.25
		c0,0,8.404-11.669,21.785-19.085c0,0-71.195-0.125-87.528,0c0,0,14.993,8.835,21.743,18.835l-4.333,0.583L127.917,53.459z"/>
</g>
<g id="front-right">
	<path fill="#FFFFFF" d="M138.5,59.355l4.416-0.771c0,0-11.749-17.25-25.498-19.99c0,0-3.868,4.906-4.493,15.281
		s-1.05,30.292,2.075,32.417s5.8-0.792,8.675-0.667s13.943-0.652,13.943-0.652l14.14-1.223l0.417-10.125
		c0,0-5.25-3.792-13.75-12.375L128.3,53.625L138.5,59.355z"/>
	<path fill="#FFFFFF" d="M114.75,85.667c0,0-0.25,9.917,1.333,11.333c1.583,1.417,8.833,1.333,9.833-0.25s1.667-12.333,1.667-12.333
		"/>
</g>
<g id="front-left">
	<path fill="#FF3947" d="M190.458,59.167l-3.792-0.333c0,0,14.458-18,25.84-20.323c0,0,3.868,4.906,4.493,15.281s1.125,28.875-2,31
		s-5.875,0.625-8.75,0.75s-13.943-0.652-13.943-0.652l-14.139-1.223l-0.417-10.125c0,0,4.5-4.125,13.75-12.375l10.292-7.292
		L190.458,59.167z"/>
	<path fill="#FF3947" d="M201.625,85.417c0,0,0.875,7.375,1,9.5s4,3,5.5,3s5.25,0.625,5.375-3.125s1.5-12.25,1.5-12.25"/>
</g>
<g id="roof">
	<path id="r2" fill="#FFFFFF" d="M197.984,17.839l-2.224-4.463c0,0-25.427-3.209-61.177,0.291l-1.974,3.875
		C132.563,17.761,160.813,15.855,197.984,17.839z"/>
</g>
<g>
	<g>
		<g>
			<path d="M144.76,67.103"/>
		</g>
		<g>
			<path d="M211.395,98.77h-5.721c-1.83,0-3.319-1.52-3.319-3.387l-0.919-9.041l1.402-0.142l0.923,9.112
				c0.004,1.161,0.86,2.048,1.913,2.048h5.721c1.053,0,1.909-0.887,1.909-1.977l0.927-9.183l1.402,0.142l-0.923,9.112
				C214.714,97.25,213.225,98.77,211.395,98.77z"/>
		</g>
		<g>
			<path d="M123.91,98.77h-5.721c-1.83,0-3.319-1.52-3.319-3.387l-0.919-9.041l1.402-0.143l0.923,9.112
				c0.004,1.162,0.86,2.048,1.913,2.048h5.721c1.053,0,1.909-0.887,1.909-1.977l0.927-9.183l1.402,0.142l-0.923,9.112
				C127.229,97.25,125.74,98.77,123.91,98.77z"/>
		</g>
		<g>
			<path d="M118.371,87.8c-3.189,0-4.271-1.524-4.384-1.698c-2.346-4.973-2.935-16.367-1.797-33.949l0.064-1.024
				c0.384-6.789,4.972-13.6,5.429-14.263c1.199-2.384,10.769-21.326,12.889-23.018c2.152-1.717,28.19-2.4,33.389-2.52
				c5.629,0.086,33.682,0.604,35.836,2.324c2.035,1.624,10.951,19.174,12.824,22.89c0.926,1.1,4.824,6.162,5.215,13.763
				c0.011,0.21,0.034,0.574,0.066,1.068c1.157,17.839,0.592,29.335-1.682,34.171c-0.159,0.258-1.241,1.782-4.43,1.782
				c-0.938,0-1.979-0.136-3.094-0.403c-0.161-0.013-24.652-2.809-44.279-2.977c-18.123-0.159-42.775,3.427-43.017,3.462
				C120.349,87.664,119.309,87.8,118.371,87.8z M115.186,85.354c0.15,0.182,0.976,1.036,3.185,1.036
				c0.827,0,1.757-0.123,2.764-0.364c0.307-0.048,25.09-3.643,43.295-3.489c19.703,0.169,44.268,2.973,44.514,3.001
				c1.091,0.256,2.021,0.379,2.848,0.379c2.208,0,3.033-0.854,3.184-1.036c1.482-3.223,2.934-11.641,1.521-33.416
				c-0.032-0.504-0.057-0.874-0.067-1.087c-0.369-7.187-4.048-11.937-4.893-12.937l-0.021,0.013l-0.208-0.277l0.039-0.033
				c-5.08-10.073-11.119-21.345-12.428-22.39c-1.447-0.98-19.09-1.771-34.952-2.016c-14.713,0.338-31.128,1.23-32.518,2.214
				c-1.42,1.134-8.438,14.459-12.528,22.591l-0.052,0.087c-0.048,0.069-4.834,6.99-5.207,13.578l-0.065,1.035
				C112.208,73.702,113.687,82.095,115.186,85.354z"/>
		</g>
		<g>
			<path d="M209.094,39.871h-87.757c-0.123,0-0.237-0.064-0.301-0.168c-0.064-0.105-0.069-0.235-0.013-0.345l12.846-25.117
				c0.089-0.172,0.301-0.242,0.475-0.153c0.173,0.089,0.242,0.301,0.153,0.475l-12.584,24.604h86.608L196.128,14.56
				c-0.088-0.174-0.018-0.386,0.156-0.474c0.172-0.087,0.385-0.018,0.473,0.156l12.651,25.117c0.056,0.109,0.05,0.239-0.015,0.344
				C209.33,39.807,209.216,39.871,209.094,39.871z"/>
		</g>
		<g>
			<path d="M192.657,85.128c-0.1-0.06-9.953-5.988-13.848-5.988h-27.521c-3.894,0-13.747,5.928-13.846,5.988l-0.729-1.207
				c0.418-0.252,10.291-6.191,14.576-6.191h27.521c4.285,0,14.158,5.939,14.576,6.191L192.657,85.128z"/>
		</g>
		<g>
			<path d="M114.128,47.096l-1.408-0.063c0-0.002,0-0.004,0-0.007c0.108-2.472-1.041-2.691-3.125-3.089
				c-0.703-0.134-1.429-0.273-2.164-0.526c-2.795-0.963-4.464-3.193-4.464-5.964c0-3.983,5.452-3.983,7.779-3.983
				c0.489,0,0.967,0.007,1.419,0.014c0.4,0.006,0.781,0.012,1.13,0.012c3.203,0,4.235,2.242,4.333,3.427
				c0.236,2.22-0.818,4.083-1.838,5.884C114.97,44.25,114.194,45.62,114.128,47.096L114.128,47.096z M110.746,34.873
				c-4.464,0-6.369,0.77-6.369,2.574c0,2.173,1.28,3.861,3.513,4.631c0.639,0.22,1.314,0.349,1.968,0.474
				c1.33,0.254,2.773,0.529,3.597,1.662c0.324-0.724,0.719-1.422,1.108-2.109c0.952-1.682,1.852-3.27,1.662-5.056
				c-0.023-0.229-0.292-2.15-2.93-2.15c-0.356,0-0.744-0.006-1.151-0.012C111.699,34.88,111.228,34.873,110.746,34.873z"/>
		</g>
		<g>
			<path d="M197.861,17.977c-0.241-0.009-24.269-0.946-32.837-0.946c-8.436,0-32.064,0.937-32.301,0.946l-0.021-0.528
				c0.238-0.009,23.876-0.947,32.323-0.947c8.58,0,32.617,0.938,32.859,0.947L197.861,17.977z"/>
		</g>
		<g>
			<path d="M165.022,76.116c-5.745,0-12.934-1.11-15.881-4.227c-5.305-5.607-15.818-14.844-20.918-17.904l-1.105-0.663l1.289,0.008
				c0.14,0.001,14.147,0.088,26.539,0.088c3.464,0,6.817-0.007,9.73-0.024c9.877-0.058,27.568-0.064,34.717-0.064l4.445,0.001
				l-1.091,0.654c-5.405,3.242-16.837,12.612-21.842,17.904C177.956,75.006,170.768,76.116,165.022,76.116z M129.63,54.043
				c5.427,3.593,15.027,12.081,20.022,17.362c2.302,2.434,8.335,4.007,15.37,4.007c7.035,0,13.067-1.573,15.37-4.007
				c4.733-5.005,15.184-13.638,20.944-17.369h-1.945c-7.147,0-24.838,0.006-34.713,0.064c-2.914,0.017-6.269,0.024-9.734,0.024
				C144.688,54.124,133.323,54.064,129.63,54.043z"/>
		</g>
		<g>
			<path d="M191.313,59.466c-31.488-2.664-52.625-0.028-52.835-0.001l-0.09-0.699c0.21-0.027,21.419-2.674,52.984-0.001
				L191.313,59.466z"/>
		</g>
		<g>
			<path d="M164.396,74.415c-4.719,0-9.413-0.63-11.849-2.138c-1.43-0.885-13.26-11.95-14.151-12.785l-11.258-5.78l0.322-0.627
				l11.382,5.858c4.381,4.102,12.96,12.042,14.077,12.733c4.52,2.797,17.746,2.394,22.861,0.573
				c2.035-0.724,10.924-9.018,15.341-13.302l0.089-0.063l11.199-5.518L202.72,54l-11.15,5.493
				c-0.929,0.9-12.917,12.483-15.555,13.421C173.401,73.844,168.887,74.415,164.396,74.415z"/>
		</g>
		<g>
			<path d="M187.711,58.946l-0.574-0.409c10.237-14.365,25.36-20.502,25.513-20.563l0.261,0.655
				C212.76,38.689,197.824,44.756,187.711,58.946z"/>
		</g>
		<g>
			<path d="M143.793,58.946c-10.113-14.19-25.049-20.257-25.198-20.316l0.261-0.655c0.151,0.061,15.274,6.198,25.512,20.563
				L143.793,58.946z"/>
		</g>
		<g>
			<path d="M116.42,40.761"/>
		</g>
		<g>
			<path d="M113.19,62.75l-0.302-0.637c0.037-0.018,3.711-1.781,5.911-4.604l0.556,0.434C117.05,60.9,113.347,62.677,113.19,62.75z"
				/>
		</g>
		<g>
			<path d="M119.405,49.304c-1.228-3.352-3.259-6.474-3.28-6.505l0.59-0.386c0.021,0.032,2.096,3.219,3.352,6.649L119.405,49.304z"
				/>
		</g>
		<g>
			<path d="M217.969,62.75c-0.15-0.071-3.717-1.781-6.031-4.639l0.549-0.443c2.21,2.729,5.749,4.428,5.785,4.445L217.969,62.75z"/>
		</g>
		<g>
			<path d="M211.717,49.407l-0.664-0.239c1.253-3.47,3.37-6.722,3.392-6.754l0.59,0.386
				C215.014,42.831,212.94,46.017,211.717,49.407z"/>
		</g>
		<g>
			<path d="M199.598,62.718c-5.247,0-6.167-2.488-6.204-2.594l-0.064-0.186l0.159-0.115c0.621-0.449,15.246-10.994,18.478-10.994
				c0.065,0,0.125,0.004,0.182,0.011c1.089,0.144,1.878,1.47,1.964,3.301c0.136,2.875-1.575,8.182-8.846,9.845
				C203.143,62.471,201.235,62.718,199.598,62.718z M193.98,60.12c0.313,0.521,1.579,2.069,5.617,2.069
				c1.599,0,3.466-0.242,5.551-0.719c6.93-1.585,8.563-6.594,8.436-9.305c-0.073-1.542-0.691-2.694-1.505-2.801
				c-0.035-0.005-0.073-0.007-0.113-0.007C209.544,49.357,199.252,56.32,193.98,60.12z"/>
		</g>
		<g>
			<path d="M131.552,62.75C131.551,62.75,131.551,62.75,131.552,62.75c-1.67,0-3.641-0.257-5.857-0.764
				c-7.27-1.663-8.98-6.971-8.845-9.845c0.086-1.832,0.875-3.158,1.964-3.301c0.056-0.007,0.115-0.011,0.179-0.011
				c3.22,0,17.687,10.778,18.301,11.236l0.151,0.113l-0.057,0.179C137.355,60.455,136.566,62.75,131.552,62.75z M118.992,49.357
				c-0.039,0-0.076,0.002-0.109,0.007c-0.813,0.107-1.433,1.259-1.505,2.802c-0.127,2.71,1.506,7.719,8.436,9.304
				c2.178,0.498,4.108,0.751,5.738,0.751c3.806,0,4.963-1.381,5.25-1.863C131.589,56.476,121.402,49.357,118.992,49.357z"/>
		</g>
		<g>
			<path d="M165.139,63.31c-2.82,0-5.028-1.264-5.028-2.877c0-1.614,2.208-2.877,5.028-2.877s5.029,1.264,5.029,2.877
				S167.959,63.31,165.139,63.31z M165.139,58.084c-2.439,0-4.5,1.076-4.5,2.349s2.061,2.349,4.5,2.349s4.5-1.076,4.5-2.349
				S167.578,58.084,165.139,58.084z"/>
		</g>
		<g>
			<path d="M216.301,47.019c-0.066-1.476-0.842-2.845-1.663-4.295c-1.021-1.802-2.075-3.665-1.837-5.901
				c0.098-1.169,1.13-3.41,4.332-3.41c0.351,0,0.73-0.006,1.131-0.012c0.453-0.007,0.932-0.014,1.421-0.014
				c2.327,0,7.777,0,7.777,3.983c0,2.771-1.669,5-4.464,5.963c-0.734,0.253-1.461,0.392-2.163,0.526
				c-2.086,0.398-3.235,0.617-3.126,3.094c0,0.001,0,0.002,0,0.002L216.301,47.019z M219.685,34.796
				c-0.482,0-0.953,0.007-1.399,0.014c-0.408,0.006-0.796,0.012-1.152,0.012c-2.638,0-2.907,1.92-2.929,2.139
				c-0.191,1.797,0.708,3.385,1.661,5.067c0.389,0.687,0.783,1.384,1.108,2.108c0.824-1.133,2.267-1.409,3.597-1.663
				c0.653-0.125,1.33-0.253,1.969-0.474c2.232-0.77,3.513-2.457,3.513-4.63C226.052,35.566,224.147,34.796,219.685,34.796z"/>
		</g>
		<g>
			<g>
				<g>
					<path d="M212.056,83.545l-0.033-0.001c-2.615-0.094-6.084-0.254-9.603-0.652c-0.926-0.112-1.694-0.226-2.422-0.361l-0.25-0.05
						c-0.725-0.146-1.475-0.296-2.223-0.673c-0.417-0.234-0.762-0.643-1.095-1.292c-0.229-0.456-0.429-0.982-0.61-1.61
						c-0.295-1.03-0.507-2.138-0.65-3.389l-0.013-0.111l0.15-0.215l0.084-0.015c0.025-0.007,0.051-0.011,0.078-0.011
						c3.386,0.131,6.743,0.557,9.292,0.913l0.311,0.051c1.423,0.233,2.895,0.474,4.378,0.942c0.499,0.14,1.002,0.466,1.338,0.872
						c0.331,0.379,0.625,0.867,0.894,1.486c0.416,0.987,0.709,2.081,0.896,3.345c0.053,0.37-0.138,0.704-0.434,0.762L212.056,83.545
						z M195.725,75.705c0.139,1.12,0.337,2.122,0.604,3.054c0.173,0.596,0.361,1.092,0.574,1.517
						c0.278,0.542,0.564,0.891,0.872,1.064c0.674,0.339,1.355,0.477,2.078,0.622l0.246,0.05c0.712,0.131,1.47,0.244,2.382,0.354
						c3.492,0.395,6.941,0.555,9.56,0.65c0.001-0.012,0.027-0.075,0.015-0.166c-0.181-1.218-0.462-2.27-0.858-3.213
						c-0.246-0.566-0.512-1.009-0.811-1.351c-0.322-0.389-0.772-0.62-1.087-0.708c-1.455-0.459-2.843-0.687-4.313-0.927l-0.305-0.05
						C202.219,76.257,198.987,75.847,195.725,75.705z"/>
				</g>
			</g>
		</g>
		<g>
			<g>
				<g>
					<path d="M117.322,83.544l-0.087-0.009c-0.301-0.059-0.491-0.394-0.435-0.763c0.188-1.268,0.481-2.36,0.895-3.341
						c0.269-0.62,0.563-1.107,0.898-1.493c0.333-0.401,0.836-0.728,1.343-0.87c1.478-0.466,2.953-0.708,4.379-0.941l0.294-0.048
						c2.547-0.357,5.898-0.783,9.288-0.914l0.068-0.002l0.086,0.016l0.089,0.099c0.053,0.066,0.077,0.154,0.066,0.241
						c-0.137,1.217-0.355,2.357-0.648,3.385c-0.182,0.628-0.382,1.154-0.61,1.609c-0.329,0.642-0.684,1.063-1.086,1.288
						c-0.763,0.385-1.517,0.536-2.247,0.682l-0.23,0.047c-0.739,0.137-1.531,0.254-2.424,0.361c-3.52,0.398-6.989,0.558-9.619,0.653
						L117.322,83.544z M133.653,75.704c-3.276,0.142-6.501,0.553-8.963,0.897l-0.289,0.047c-1.408,0.231-2.864,0.469-4.313,0.926
						c-0.323,0.091-0.772,0.322-1.091,0.706c-0.304,0.349-0.569,0.792-0.815,1.359c-0.395,0.937-0.676,1.988-0.858,3.211
						c-0.013,0.082,0.008,0.141,0.023,0.164c2.63-0.096,6.07-0.256,9.553-0.65c0.88-0.105,1.661-0.221,2.385-0.355l0.228-0.046
						c0.727-0.146,1.413-0.283,2.102-0.63c0.298-0.167,0.583-0.516,0.863-1.061c0.213-0.424,0.401-0.921,0.574-1.516
						C133.315,77.828,133.518,76.802,133.653,75.704z"/>
				</g>
			</g>
		</g>
		<g>
			<rect x="171.682" y="78.411" width="0.352" height="4.303"/>
		</g>
		<g>
			<rect x="168.36" y="78.411" width="0.352" height="4.303"/>
		</g>
		<g>
			<rect x="164.861" y="78.411" width="0.705" height="4.303"/>
		</g>
		<g>
			<rect x="161.717" y="78.411" width="0.353" height="4.303"/>
		</g>
		<g>
			<rect x="158.395" y="78.411" width="0.353" height="4.303"/>
		</g>
		<g>
			<rect x="175.003" y="78.411" width="0.352" height="4.303"/>
		</g>
		<g>
			<rect x="178.325" y="78.411" width="0.352" height="4.303"/>
		</g>
		<g>
			<rect x="181.646" y="79.333" width="0.352" height="4.304"/>
		</g>
		<g>
			<rect x="155.074" y="78.411" width="0.353" height="4.303"/>
		</g>
		<g>
			<rect x="151.752" y="78.411" width="0.353" height="4.303"/>
		</g>
		<g>
			<rect x="148.431" y="79.333" width="0.353" height="4.304"/>
		</g>
	</g>
</g>
</svg>
