<?xml version="1.0" encoding="utf-8"?>
<!-- Generator: Adobe Illustrator 17.0.0, SVG Export Plug-In . SVG Version: 6.00 Build 0)  -->
<!DOCTYPE svg PUBLIC "-//W3C//DTD SVG 1.1//EN" "http://www.w3.org/Graphics/SVG/1.1/DTD/svg11.dtd">
<svg version="1.1" id="Layer_1" xmlns="http://www.w3.org/2000/svg"  x="0px" y="0px"
	 width="256.981px" height="127.298px" viewBox="39.234 172.701 256.981 127.298"
	 enable-background="new 39.234 172.701 256.981 127.298" xml:space="preserve">
<g id="back-left">
	<path fill="#FFFFFF" d="M256.229,289.866l0.268-17.691c0,0,10.542,4.154,13.512,4.006c2.97-0.148,9.887-1.815,23.22-7.398
		c0,0-0.75,10.917-9.583,16.167C275.274,289.925,263.896,289.616,256.229,289.866z"/>
</g>
<g id="back-right">
	<path fill="#FFFFFF" d="M256.396,183.595l0.268,17.691c0,0,10.542-4.154,13.512-4.006c2.97,0.148,9.887,1.815,23.22,7.398
		c0,0-0.75-10.917-9.583-16.167C275.441,183.536,264.063,183.845,256.396,183.595z"/>
</g>
<g id="back-windscreen">
	<path fill="#FFFFFF" d="M270.051,197.447c-0.996,0-2.14,0.154-3.331,0.398"/>
	<path fill="#FFFFFF" d="M266.643,275.607"/>
	<path fill="#FFFFFF" d="M266.719,198.095c-4.667,0.958-10.055,3.315-10.055,3.315c1.744,0.113,5.334,7.724,7.075,17.177
		c2.241,12.162,2.241,24.632,0,36.795c-1.741,9.453-5.331,17.064-7.075,17.176c0,0,5.33,2.331,9.979,3.299v-0.067
		c23.345-6.431,23.463-71.517,0.076-77.593V198.095z"/>
</g>
<g id="back">
	<path fill="#FFFFFF" d="M266.479,197.762c6.167,0.917,10.417,8,10.417,8c14.083,27.917,4.688,51.896,0.75,60.396
		s-12.513,9.205-11,9.438c1.625,0.25,3.53,0.259,3.53,0.259c22.278,0,22.29-76.78,0-78.574
		C269.373,197.216,266.479,197.762,266.479,197.762z"/>
	<path fill="#FFFFFF" d="M254.271,269.62c0,0,0.654,2.926,2.393,2.814c1.744-0.113,5.334-7.724,7.075-17.176
		c2.241-12.163,2.241-24.633,0-36.795c-1.742-9.453-5.331-17.064-7.075-17.177c-1.74-0.113-2.393,2.814-2.393,2.814V269.62z"/>
	<path fill="#FFFFFF" d="M270.176,275.854c0,0,5.033,0.678,9.033-5.259c4-5.937,7.625-17.625,7.625-33.5
		c0-15.875-3.563-30.188-7.938-34.625s-6.25-5.125-10.167-5.042c0,0,7.583-0.708,25.417,7.542c0,0,4.75,32.875,0,63.542
		C294.146,268.512,276.206,277.114,270.176,275.854z"/>
</g>
<g id="front-windscreen">
	<path fill="#FFFFFF" d="M107.554,248.944c1.001,11.949,3.751,24.84,4.626,28.745c0.149,0.666,0.791,1.097,1.465,0.983l44.623-8.227
		c-6.409-19.367-6.409-48.054,0-67.421l-44.623-8.227c-0.673-0.114-1.316,0.318-1.465,0.984c-0.875,3.905-3.625,16.797-4.626,28.746
		C106.864,232.758,106.864,240.712,107.554,248.944z"/>
</g>
<g id="right">
	<path fill="#FFFFFF" d="M141.479,173.428c-3.75,1.083-8.417,10.333-8.417,10.333s-13.042-0.292-14.542-0.167s-4.75-0.5-4.75-0.5
		l-0.75,11.875c2.375,0.25,45.247,8.054,45.247,8.054c5.872,2.679,33.253,1.821,37.878,1.821s58.125-0.625,58.125-0.625
		c0.708-3.625,2.393-2.934,2.393-2.934l-0.267-17.69c-35.667-2.5-115.333,0.083-115.333,0.083l4.75-9.75
		C143.146,172.678,141.479,173.428,141.479,173.428z M248.063,188.345c1.333,0.083,1.083,1.333,1.083,1.333s-15.167,7-20.167,7.5
		s-30.5,1.083-30.5,1.083l-1.167-9.917C197.313,188.345,246.729,188.262,248.063,188.345z M188.646,188.262l2.75,10.083
		c0,0-22.25-0.333-28.333-1.75s-24.667-6.75-24.667-6.75l-1.25-2.083L188.646,188.262z"/>
</g>
<g id="left">
	<path fill="#FFFFFF" d="M145.834,299.044l-4.75-9.75c0,0,79.667,2.583,115.333,0.083l0.354-17.22c0,0-1.792,1.087-2.5-2.538
		c0,0-53.25-0.608-57.875-0.608s-32.256-1.246-38.128,1.433c0,0-42.476,8.004-44.851,8.254l0.375,11.178c0,0,3.25-0.625,4.75-0.5
		s14.542-0.167,14.542-0.167s4.667,9.25,8.417,10.333C141.5,299.544,143.167,300.294,145.834,299.044z M197.333,284.628l1.167-9.917
		c0,0,25.063-0.033,30.063,0.467s20.604,8.116,20.604,8.116s0.25,1.25-1.083,1.333C246.75,284.711,197.333,284.628,197.333,284.628z
		 M137.167,285.211l1.25-2.083c0,0,19.146-5.616,25.229-7.033c6.083-1.417,27.771-1.467,27.771-1.467l-2.75,10.083L137.167,285.211z
		"/>
</g>
<g id="front">
	<path fill="#FFFFFF" d="M45.021,212.97c0,0,2.75,0.25,5.25-0.125s8.458-6.583,8.458-6.583l49.083-12l5.957,0.535
		c0,0-0.895-0.223-1.374,0.715c-11.125,43.333-0.167,81.5-0.091,82.177s1.112,1.01,1.112,1.01l-6.146,0.646l-47.874-11.75
		c0,0-6.125-6.75-9.5-6.75s-5.125-0.25-5.125-0.25s-5-11.375-5-24.625S45.021,212.97,45.021,212.97z"/>
</g>
<g id="front-right">
	<path fill="#FFFFFF" d="M44.521,212.907c0,0,3.917,0.479,5.75-0.063s1.75-0.5,2.542-1.083s6.625-5.708,6.625-5.708l48.375-11.792
		l5.208,0.708l0.75-11.5c0,0-4.188-0.75-10.375-0.313s-20.188,1.438-23.438,1.313s-6.375,0.625-8.938,1.875s-9,3.188-12.063,5.813
		S49.771,197.782,44.521,212.907z"/>
</g>
<g id="front-left">
	<path fill="#FFFFFF" d="M45.021,260.716c0,0,3.917-0.479,5.75,0.063c1.833,0.542,1.75,0.5,2.542,1.083
		c0.792,0.583,6.625,5.708,6.625,5.708l48.375,11.792l5.208-0.708l0.75,11.5c0,0-4.188,0.75-10.375,0.313
		c-6.187-0.437-20.188-1.438-23.438-1.313s-6.375-0.625-8.938-1.875s-9-3.188-12.063-5.813S50.271,275.841,45.021,260.716z"/>
</g>
<g id="roof">
	<path fill="#FF3947" d="M158.268,270.445c0,0-4.789-12.85-4.789-33.6c0-21.25,4.789-33.821,4.789-33.821s6.003,1.821,24.378,1.821
		s71.625-0.625,71.625-0.625v65.375c0,0-66.375-0.75-72.125-0.75S161.015,268.795,158.268,270.445z"/>
</g>
<g id="side-glass">
	<path fill="#FFFFFF" d="M138.396,189.845l-1.25-2.083l51.5,0.5l2.75,10.083c0,0-22.25-0.333-28.333-1.75
		C156.979,195.178,138.396,189.845,138.396,189.845z"/>
	<path fill="#FFFFFF" d="M198.479,198.262l-1.167-9.917c0,0,49.417-0.083,50.75,0s1.083,1.333,1.083,1.333s-15.167,7-20.167,7.5
		S198.479,198.262,198.479,198.262z"/>
	<path fill="#FFFFFF" d="M138.417,283.128l-1.25,2.083l51.5-0.5l2.75-10.083c0,0-21.688,0.051-27.771,1.467
		C157.563,277.512,138.417,283.128,138.417,283.128z"/>
	<path fill="#FFFFFF" d="M198.5,274.711l-1.167,9.917c0,0,49.417,0.083,50.75,0s1.083-1.333,1.083-1.333s-15.604-7.616-20.604-8.116
		S198.5,274.711,198.5,274.711z"/>
</g>
<g>
	<g>
		<g>
			<path d="M296.215,236.736c0,10.588-0.589,21.176-1.767,31.038c-2.285,19.122-15.524,20.829-21.887,21.65l-0.504,0.065
				c-36.462,2.426-69.162,1.868-103.782,1.276c-8.973-0.153-18.251-0.312-27.604-0.415l0.015-1.329
				c9.357,0.104,18.638,0.262,27.613,0.415c34.591,0.59,67.264,1.148,103.628-1.27l0.465-0.062
				c6.029-0.777,18.574-2.396,20.736-20.489c2.344-19.626,2.344-42.137,0-61.761c-2.162-18.092-14.706-19.711-20.735-20.488
				l-0.509-0.066c-36.324-2.413-68.999-1.855-103.593-1.265c-8.973,0.153-18.252,0.312-27.608,0.415l-0.015-1.33
				c9.352-0.103,18.628-0.262,27.6-0.414c34.623-0.591,67.325-1.149,103.747,1.271l0.549,0.069
				c6.361,0.821,19.6,2.529,21.885,21.649C295.626,215.56,296.215,226.148,296.215,236.736z"/>
		</g>
		<g>
			<path d="M133.655,288.953l-0.011,1.329c-4.364-0.034-8.772-0.054-13.232-0.054c-2.452,0-4.206,0.203-5.901,0.399
				c-1.647,0.19-3.35,0.387-5.635,0.387c-1.957,0-5.493-0.238-9.588-0.515c-5.668-0.382-12.093-0.815-16.966-0.815
				c-7.215,0-8.358-0.595-10.863-1.899c-0.495-0.257-1.048-0.545-1.72-0.865c-0.617-0.293-1.409-0.572-2.325-0.896
				c-4.993-1.759-13.351-4.705-20.135-18.542c-5.639-11.503-8.045-20.7-8.045-30.751c0-10.051,2.406-19.247,8.045-30.751
				c6.784-13.835,15.141-16.78,20.134-18.54c0.917-0.323,1.709-0.603,2.327-0.896c0.673-0.319,1.226-0.607,1.721-0.865
				c2.504-1.304,3.647-1.899,10.862-1.899c4.874,0,11.298-0.433,16.966-0.814c4.095-0.276,7.631-0.515,9.588-0.515
				c2.285,0,3.988,0.197,5.635,0.388c1.696,0.196,3.45,0.398,5.901,0.398c4.288,0,8.528-0.018,12.728-0.05l0.01,1.33
				c-4.203,0.032-8.446,0.05-12.738,0.05c-2.528,0-4.321-0.208-6.054-0.408c-1.684-0.194-3.274-0.378-5.482-0.378
				c-1.912,0-5.428,0.236-9.499,0.511c-5.689,0.384-12.138,0.818-17.056,0.818c-6.889,0-7.873,0.512-10.248,1.748
				c-0.507,0.265-1.075,0.56-1.765,0.888c-0.68,0.323-1.503,0.613-2.455,0.949c-4.801,1.692-12.837,4.524-19.382,17.872
				c-5.543,11.31-7.909,20.331-7.909,30.165c0,9.835,2.366,18.857,7.909,30.166c6.546,13.349,14.582,16.181,19.384,17.873
				c0.952,0.335,1.773,0.625,2.454,0.948c0.689,0.328,1.256,0.623,1.764,0.887c2.376,1.237,3.359,1.749,10.249,1.749
				c4.918,0,11.366,0.435,17.056,0.818c4.071,0.274,7.586,0.512,9.499,0.512c2.208,0,3.798-0.184,5.482-0.379
				c1.733-0.201,3.526-0.408,6.054-0.408C124.876,288.9,129.288,288.919,133.655,288.953z"/>
		</g>
		<g>
			<path d="M293.097,236.696c0,10.581-0.858,21.159-2.576,31.015c-1.027,4.602-3.013,8.448-5.902,11.445l-0.479-0.461
				c2.804-2.909,4.731-6.648,5.729-11.114c3.419-19.624,3.418-42.151-0.003-61.791c-1.08-5.563-3.387-9.916-6.854-12.93l0.436-0.502
				c3.582,3.114,5.961,7.593,7.071,13.312C292.238,215.53,293.097,226.114,293.097,236.696z"/>
		</g>
		<g>
			<path d="M291.763,220.383v0.664h-3.486c1.196,9.812,1.192,21.464-0.063,31.233l3.549,0.059v0.665h-3.497
				c-0.21,0-0.396-0.083-0.537-0.242c-0.138-0.157-0.202-0.358-0.175-0.564c1.247-9.717,1.254-21.308,0.013-31.009
				c-0.024-0.215,0.036-0.412,0.177-0.567c0.136-0.155,0.321-0.239,0.533-0.239H291.763z"/>
		</g>
		<g>
			<path d="M265.752,236.736c0,6.175-0.567,12.385-1.687,18.458c-1.627,8.828-5.213,17.307-7.381,17.447
				c-1.999,0.129-2.709-2.942-2.738-3.073l-0.008-65.593c0.037-0.203,0.746-3.275,2.746-3.146c2.166,0.14,5.753,8.619,7.381,17.448
				C265.185,224.351,265.752,230.56,265.752,236.736z M254.603,269.494c0.002-0.028,0.61,2.575,2.039,2.483
				c1.455-0.094,5.019-7.396,6.77-16.904c2.225-12.068,2.225-24.611,0-36.674c-1.752-9.511-5.314-16.812-6.77-16.905
				c-1.416-0.093-2.041,2.527-2.047,2.554L254.603,269.494L254.603,269.494z"/>
		</g>
		<g>
			<path d="M287.124,236.678c0,19.109-5.343,39.675-17.072,39.675c-4.909,0-13.172-3.588-13.521-3.741l-1.255-0.549l1.366-0.087
				c1.455-0.093,5.019-7.395,6.77-16.904c2.225-12.068,2.225-24.611,0-36.674c-1.751-9.511-5.314-16.812-6.77-16.905l-1.365-0.088
				l1.254-0.549c0.349-0.152,8.611-3.741,13.521-3.741C281.781,197.115,287.124,217.623,287.124,236.678z M257.468,272.285
				c2.094,0.862,8.603,3.403,12.583,3.403c10.771,0,16.407-19.625,16.407-39.01c0-18.734-5.135-38.899-16.407-38.899
				c-3.98,0-10.489,2.542-12.584,3.404c2.169,1.703,5.155,9.261,6.599,17.094c2.238,12.146,2.239,24.769,0,36.916
				C262.623,263.026,259.637,270.583,257.468,272.285z"/>
		</g>
		<g>
			<path d="M284.623,236.527c0,17.3-5.501,36.057-17.891,39.389l-0.172-0.642c11.987-3.225,17.398-22.262,17.398-38.784
				c0-0.166-0.001-0.329-0.002-0.495c-0.109-16.604-5.499-34.706-17.296-37.714l0.164-0.645
				c12.14,3.096,17.686,21.494,17.796,38.354C284.623,236.169,284.623,236.348,284.623,236.527z"/>
		</g>
		<g>
			<g>

					<rect x="83.449" y="248.824" transform="matrix(0.2408 -0.9706 0.9706 0.2408 -201.7939 288.919)" width="0.665" height="49.247"/>
			</g>
		</g>
		<g>
			<g>
				<rect x="59.146" y="199.93" transform="matrix(0.9702 -0.2424 0.2424 0.9702 -46.038 26.3277)" width="49.661" height="0.664"/>
			</g>
		</g>
		<g>
			<path d="M60.258,192.964c-3.8,3.084-7.12,7.414-9.869,12.872c-5.824,11.563-8.309,20.805-8.309,30.898
				c0,10.094,2.485,19.335,8.309,30.901c2.749,5.457,6.069,9.787,9.869,12.87l-0.209,0.258c-3.837-3.112-7.187-7.479-9.957-12.978
				c-5.849-11.615-8.344-20.901-8.344-31.05s2.495-19.435,8.344-31.049c2.77-5.499,6.12-9.866,9.957-12.979L60.258,192.964z"/>
		</g>
		<g>
			<path d="M50.406,212.962c-6.438,17.973-6.449,29.499-0.04,47.434l-0.626,0.224c-6.468-18.104-6.458-29.741,0.04-47.882
				L50.406,212.962z"/>
		</g>
		<g>
			<path d="M60.326,206.199c-1.563,2.709-4.419,8.457-5.981,16.515c-2.391,12.354-2.392,17.021,0,29.376
				c1.557,8.041,4.405,13.148,5.964,15.477l-0.553,0.37c-1.587-2.371-4.485-7.565-6.064-15.721c-2.386-12.321-2.386-17.306,0-29.629
				c1.58-8.152,4.473-13.975,6.057-16.72L60.326,206.199z"/>
		</g>
		<g>

				<rect x="74.605" y="280.297" transform="matrix(0.9936 -0.1129 0.1129 0.9936 -31.0718 12.5899)" width="42.032" height="0.664"/>
		</g>
		<g>
			<path d="M116.771,195.307l-41.367-4.629"/>

				<rect x="95.752" y="172.179" transform="matrix(0.1117 -0.9937 0.9937 0.1117 -106.4308 266.9141)" width="0.664" height="41.621"/>
		</g>
		<g>
			<path d="M158.829,202.766l-0.12,0.362c-3.089,9.334-4.79,21.269-4.79,33.606s1.701,24.272,4.79,33.606l0.12,0.362l-0.375,0.069
				l-44.623,8.227c-0.852,0.144-1.662-0.4-1.849-1.237c-0.832-3.714-3.626-16.767-4.633-28.79c-0.698-8.328-0.698-16.147,0-24.473
				c1.007-12.025,3.801-25.077,4.633-28.791c0.188-0.839,0.998-1.383,1.845-1.239L158.829,202.766z M107.494,236.736
				c0,4.051,0.169,8.036,0.517,12.181c1.004,11.981,3.79,24.997,4.619,28.7c0.11,0.492,0.587,0.812,1.085,0.728l44.244-8.157
				c-3.036-9.345-4.705-21.206-4.705-33.453c0-12.248,1.669-24.108,4.705-33.453l-44.249-8.157c-0.494-0.084-0.97,0.235-1.081,0.729
				c-0.83,3.704-3.615,16.719-4.619,28.701C107.663,228.699,107.494,232.684,107.494,236.736z"/>
		</g>
		<g>
			<path d="M77.016,281.115c0,0.304-0.077,0.583-0.229,0.83c-1.075,1.743-4.542,2.215-10.306,1.404
				c-3.836-0.54-8.061-3.162-10.045-6.234c-0.536-0.83-1.038-1.709-1.523-2.56l-0.123-0.214c-0.73-1.282-1.446-2.573-2.158-3.867
				c-1.334-2.424-2.688-4.925-4.023-7.432l-0.042-0.095c-0.061-0.169-0.107-0.343-0.138-0.519c-0.086-0.523-0.012-1.056,0.245-1.432
				c0.384-0.556,1.244-1.028,3.162-0.125c0.825,0.389,1.607,1.042,2.275,1.624c0.562,0.489,1.111,0.996,1.66,1.501
				c0.336,0.311,0.672,0.621,1.012,0.927c2.722,2.456,5.003,4.092,7.396,5.306c1.218,0.618,2.478,1.331,3.744,2.119
				C68.852,272.928,77.016,278.098,77.016,281.115z M49.056,261.994c0,0.108,0.01,0.217,0.028,0.321
				c0.024,0.137,0.061,0.274,0.108,0.406c1.337,2.513,2.69,5.011,4.022,7.433c0.71,1.291,1.425,2.579,2.153,3.857l0.123,0.214
				c0.481,0.842,0.979,1.714,1.505,2.529c1.858,2.876,5.977,5.429,9.579,5.936c6.824,0.961,9.013-0.065,9.648-1.094
				c0.087-0.143,0.13-0.3,0.13-0.481c0-2.163-5.745-6.311-8.782-8.202c-1.25-0.778-2.492-1.481-3.693-2.091
				c-2.447-1.242-4.772-2.909-7.54-5.406c-0.341-0.308-0.679-0.619-1.017-0.931c-0.544-0.502-1.088-1.004-1.646-1.489
				c-0.634-0.552-1.374-1.171-2.122-1.523c-0.826-0.389-1.901-0.723-2.331-0.1C49.111,261.533,49.056,261.742,49.056,261.994z"/>
		</g>
		<g>
			<path d="M77.016,192.298L77.016,192.298c0,2.952-7.577,7.82-9.095,8.767c-1.264,0.788-2.524,1.501-3.744,2.12
				c-2.392,1.213-4.672,2.85-7.396,5.307c-0.339,0.306-0.674,0.615-1.01,0.925c-0.549,0.506-1.099,1.013-1.661,1.502
				c-0.668,0.582-1.45,1.235-2.275,1.623c-1.917,0.906-2.777,0.433-3.161-0.124c-0.258-0.376-0.334-0.917-0.246-1.43
				c0.031-0.179,0.078-0.354,0.138-0.521l0.041-0.093c1.349-2.53,2.703-5.031,4.025-7.435c0.711-1.293,1.428-2.583,2.157-3.866
				l0.104-0.183c0.492-0.86,1-1.75,1.542-2.591c1.984-3.073,6.208-5.695,10.045-6.234c5.764-0.813,9.232-0.341,10.306,1.402
				C76.939,191.715,77.016,191.994,77.016,192.298z M49.056,211.418c0,0.253,0.056,0.462,0.166,0.622
				c0.431,0.624,1.505,0.29,2.33-0.101c0.748-0.352,1.487-0.971,2.122-1.523c0.558-0.484,1.103-0.987,1.647-1.489
				c0.337-0.312,0.675-0.622,1.016-0.93c2.769-2.497,5.094-4.165,7.54-5.405c1.203-0.61,2.445-1.313,3.693-2.092
				c3.038-1.892,8.782-6.04,8.782-8.202l0,0c0-0.182-0.043-0.339-0.131-0.48c-0.634-1.03-2.824-2.056-9.647-1.094
				c-3.603,0.507-7.721,3.059-9.579,5.937c-0.533,0.826-1.037,1.708-1.524,2.561l-0.104,0.182c-0.728,1.28-1.442,2.568-2.153,3.857
				c-1.321,2.401-2.673,4.899-4.019,7.424c-0.051,0.14-0.088,0.277-0.112,0.415C49.066,211.201,49.056,211.31,49.056,211.418z"/>
		</g>
		<g>
			<path d="M178.736,267.533"/>
		</g>
		<g>
			<path d="M254.73,269.9l-0.426,0.013c-4.495,0.14-23.689-0.127-42.252-0.386c-13.971-0.195-27.166-0.379-33.316-0.379
				c-15.258,0-20.186,1.596-20.234,1.612l-0.248-0.616c0.036-0.017,4.858-1.662,20.482-1.662c6.155,0,19.353,0.184,33.325,0.379
				c18.556,0.259,37.742,0.526,42.222,0.387l0.008,0.241l0.305-0.067L254.73,269.9z"/>
		</g>
		<g>
			<path d="M207.589,187.43c-0.017,0.05-0.02,0.106-0.01,0.161"/>
		</g>
		<g>
			<path d="M286.846,200.089c0,0.519-0.313,0.995-0.797,1.216c-0.479,0.218-1.003,0.142-1.4-0.204
				c-3.074-2.683-6.689-4.691-10.186-6.634c-3.029-1.684-6.162-3.424-8.963-5.607c-0.234-0.183-0.369-0.458-0.369-0.754
				c0-0.525,0.389-0.942,0.904-0.97c3.21-0.173,9.047-0.235,12.074,1.297c4.785,2.425,7.387,5.816,8.698,11.34
				C286.834,199.878,286.846,199.985,286.846,200.089z M265.796,188.106c0,0.065,0.02,0.157,0.113,0.23
				c2.76,2.15,5.869,3.879,8.876,5.55c3.526,1.959,7.173,3.985,10.3,6.714c0.282,0.245,0.575,0.151,0.688,0.101
				c0.298-0.136,0.463-0.451,0.389-0.773c-1.262-5.314-3.76-8.574-8.353-10.9c-2.997-1.518-9.207-1.363-11.738-1.227
				C265.87,187.811,265.796,187.989,265.796,188.106z"/>
		</g>
		<g>
			<path d="M286.846,273.38L286.846,273.38c0,0.105-0.013,0.212-0.038,0.316c-1.312,5.524-3.913,8.916-8.698,11.34
				c-3.028,1.534-8.865,1.472-12.074,1.299c-0.516-0.029-0.904-0.447-0.904-0.972c0-0.296,0.135-0.571,0.369-0.753
				c2.802-2.184,5.935-3.925,8.965-5.609c3.495-1.942,7.11-3.951,10.183-6.631c0.398-0.347,0.922-0.423,1.4-0.205
				C286.533,272.386,286.846,272.863,286.846,273.38z M265.796,285.364c0,0.118,0.073,0.296,0.275,0.308
				c2.53,0.137,8.739,0.291,11.737-1.228c4.593-2.327,7.091-5.587,8.353-10.9c0.013-0.055,0.016-0.128,0.02-0.163
				c0-0.258-0.16-0.497-0.408-0.61c-0.112-0.052-0.405-0.145-0.688,0.101c-3.125,2.726-6.771,4.752-10.296,6.711
				c-3.009,1.672-6.119,3.4-8.88,5.552C265.816,285.206,265.796,285.299,265.796,285.364z"/>
		</g>
		<g>
			<path d="M146.378,173.613l-6.427,12.798l-0.419-0.153c-0.519-0.19-2.138-0.599-2.75,0l-0.137,0.133
				c-0.106,0.103-0.224,0.216-0.289,0.291c0.082,0.118,0.271,0.33,0.454,0.536c0.216,0.243,0.49,0.552,0.824,0.955
				c1.574,1.896,1.696,2.913,1.696,3.18v0.604l-0.594-0.103c-0.071-0.014-7.116-1.356-9.274-1.803
				c-0.053-0.009-0.169-0.018-0.326-0.032c-1.348-0.118-3.857-0.339-3.857-1.799c0-0.258,0.089-0.524,0.266-0.793l0.147-0.224
				l0.27-0.001c0.052,0,5.278-0.064,7.346-4.391c2.226-4.654,5.555-8.429,7.557-9.617c2.002-1.192,4.922,0.143,5.045,0.2
				L146.378,173.613z M139.449,185.181l5.56-11.069c-0.816-0.288-2.493-0.736-3.631-0.058c-1.607,0.954-4.893,4.436-7.166,9.189
				c-2.055,4.299-6.663,4.871-7.929,4.947c-0.002,0.014-0.003,0.022-0.003,0.029c0,0.056,0.083,0.551,2.945,0.803
				c0.217,0.02,0.374,0.035,0.44,0.05c1.719,0.354,6.556,1.282,8.468,1.647c-0.188-0.416-0.554-1.049-1.268-1.909
				c-0.326-0.394-0.592-0.693-0.802-0.93c-0.491-0.552-0.737-0.829-0.737-1.216c0-0.39,0.262-0.644,0.625-0.994l0.133-0.129
				C137.003,184.643,138.654,184.957,139.449,185.181z"/>
		</g>
		<g>
			<path d="M254.527,203.774l-0.021,0.664c-4.479-0.14-23.661,0.128-42.212,0.388c-13.977,0.195-27.178,0.379-33.335,0.379
				c-15.624,0-20.446-1.645-20.481-1.661l0.278-0.604c0.018,0.004,4.945,1.601,20.203,1.601c6.152,0,19.352-0.185,33.326-0.38
				C230.842,203.902,250.033,203.633,254.527,203.774z"/>
		</g>
		<g>
			<path d="M192.973,200.163l-0.838-0.012c-4.13-0.058-8.473-0.174-13.276-0.356l-1.408-0.053c-4.638-0.174-9.019-0.338-12.034-0.8
				c-5.452-0.833-9.945-2.229-15.634-3.996c-3.279-1.019-6.996-2.173-11.561-3.429l0.247-0.896
				c4.579,1.259,8.304,2.416,11.589,3.437c5.652,1.756,10.116,3.143,15.499,3.965c2.963,0.453,7.317,0.616,11.928,0.789l1.409,0.054
				c4.515,0.171,8.621,0.284,12.526,0.346c-0.861-2.196-2.585-8.09-3.02-10.408c-19.161-0.078-36.165-0.273-51.971-0.599l0.02-0.93
				c15.908,0.326,33.031,0.522,52.347,0.6l0.402,0.001l0.057,0.398c0.325,2.281,2.719,10.234,3.285,11.173L192.973,200.163z"/>
		</g>
		<g>
			<path d="M199.577,200.194l-0.747,0.005c-2.166,0.001-4.381-0.014-6.694-0.047l-0.258-0.003l-0.134-0.222
				c-0.671-1.111-3.093-9.295-3.41-11.522l-0.075-0.533l0.538,0.003c2.785,0.011,5.67,0.02,8.65,0.025l0.485,0.001l-0.021,0.484
				c-0.005,0.1-0.007,0.211-0.007,0.332c0,2.746,1.023,10.167,1.34,10.805L199.577,200.194z M192.429,199.226
				c1.988,0.027,3.904,0.041,5.781,0.042c-0.487-2.112-1.214-8.039-1.236-10.439c-2.617-0.005-5.161-0.013-7.627-0.021
				C189.861,191.425,191.764,197.749,192.429,199.226z"/>
		</g>
		<g>
			<path d="M249.571,189.676l-0.005,0.245c-0.013,0.841-0.028,1.887-1.912,2.791c-0.564,0.271-1.132,0.547-1.706,0.827
				c-5.659,2.758-12.074,5.885-21.455,6.151l-1.281,0.037c-9.164,0.262-16.403,0.469-24.382,0.471l-0.284,0.001l-0.13-0.253
				c-0.458-0.893-1.441-8.554-1.441-11.229c0-0.137,0.003-0.262,0.008-0.374l0.02-0.445l0.446,0.001
				c15.461,0.032,32.313-0.011,50.089-0.128c0.537-0.004,1.072,0.221,1.47,0.615C249.371,188.749,249.571,189.207,249.571,189.676z
				 M199.162,199.268c7.834-0.008,14.993-0.213,24.023-0.471l1.28-0.036c9.182-0.262,15.5-3.342,21.074-6.059
				c0.576-0.28,1.146-0.559,1.712-0.83c1.364-0.654,1.373-1.204,1.385-1.965l0.004-0.21l0.466-0.021h-0.466
				c0-0.22-0.104-0.443-0.29-0.629c-0.219-0.218-0.521-0.347-0.808-0.346c-17.602,0.117-34.299,0.16-49.637,0.129
				C197.93,191.447,198.786,197.818,199.162,199.268z"/>
		</g>
		<g>
			<path d="M195.75,199.578l-0.455,0.289c-0.581-0.918-2.515-9.299-2.653-11.497l0.539-0.033
				C193.321,190.557,195.286,198.844,195.75,199.578z"/>
		</g>
		<g>
			<path d="M249.213,189.953l-1.874,0.834c-7.386,3.289-13.765,6.129-18.998,6.813c-4.823,0.629-20.208,0.787-30.388,0.892
				c-1.754,0.018-3.348,0.034-4.698,0.051c-9.661,0.122-17.619-0.198-25.806-1.039c-8.582-0.881-28.864-7.521-29.068-7.588
				l0.166-0.506c0.203,0.067,20.431,6.69,28.957,7.564c8.165,0.839,16.104,1.158,25.745,1.037c1.351-0.018,2.944-0.033,4.698-0.052
				c10.168-0.104,25.533-0.262,30.325-0.887c5.156-0.673,11.502-3.499,18.85-6.771l1.876-0.834L249.213,189.953z"/>
		</g>
		<g>
			<path d="M146.267,299.087l-0.467,0.217c-0.123,0.058-3.042,1.393-5.046,0.201c-2.002-1.19-5.332-4.965-7.556-9.618
				c-2.068-4.326-7.294-4.39-7.346-4.39h-0.269l-0.148-0.225c-0.176-0.268-0.265-0.535-0.265-0.793c0-1.46,2.509-1.681,3.856-1.799
				c0.156-0.014,0.272-0.022,0.327-0.033c2.157-0.445,9.202-1.788,9.272-1.802l0.558-0.106l0.035,0.567c0,0.001,0,0.003,0,0.004
				c0,0.313-0.128,1.33-1.695,3.217c-0.335,0.404-0.609,0.712-0.825,0.956c-0.183,0.206-0.371,0.417-0.453,0.536
				c0.065,0.075,0.182,0.188,0.289,0.291l0.136,0.132c0.616,0.602,2.232,0.192,2.75,0.001l0.419-0.154L146.267,299.087z
				 M126.172,284.509c1.266,0.076,5.873,0.649,7.928,4.947c2.272,4.752,5.558,8.235,7.165,9.19c1.139,0.678,2.816,0.23,3.632-0.059
				l-5.56-11.069c-0.795,0.224-2.446,0.539-3.366-0.361l-0.132-0.128c-0.363-0.351-0.625-0.604-0.625-0.995
				c0-0.386,0.246-0.664,0.737-1.215c0.21-0.236,0.477-0.536,0.803-0.93c0.712-0.858,1.079-1.49,1.267-1.91
				c-1.912,0.366-6.749,1.293-8.467,1.648c-0.066,0.014-0.223,0.03-0.44,0.049c-2.861,0.252-2.944,0.748-2.944,0.803
				C126.169,284.486,126.169,284.495,126.172,284.509z"/>
		</g>
		<g>
			<path d="M192.862,272.534l-0.432,0.717c-0.565,0.939-2.96,8.893-3.285,11.174l-0.058,0.398l-0.401,0.001
				c-19.316,0.077-36.438,0.272-52.346,0.599l-0.02-0.931c15.806-0.324,32.81-0.52,51.97-0.597c0.435-2.318,2.159-8.212,3.02-10.408
				c-3.929,0.062-8.036,0.175-12.526,0.346l-1.395,0.053c-4.616,0.172-8.976,0.335-11.942,0.79c-5.383,0.822-9.848,2.209-15.5,3.965
				c-3.286,1.021-7.01,2.178-11.589,3.437l-0.247-0.897c4.564-1.255,8.281-2.41,11.56-3.428c5.689-1.767,10.183-3.163,15.635-3.996
				c3.019-0.462,7.405-0.626,12.047-0.8l1.395-0.052c4.776-0.182,9.119-0.298,13.276-0.357L192.862,272.534z"/>
		</g>
		<g>
			<path d="M199.469,272.5l-0.336,0.677c-0.33,0.666-1.439,8.768-1.333,11.136l0.021,0.485l-0.485,0.001
				c-2.981,0.006-5.865,0.015-8.651,0.026l-0.539,0.002l0.076-0.533c0.318-2.229,2.74-10.413,3.41-11.522l0.134-0.221l0.258-0.004
				c2.314-0.033,4.529-0.048,6.695-0.047H199.469z M196.864,283.869c0.022-2.4,0.749-8.326,1.236-10.439
				c-1.877,0.002-3.793,0.016-5.782,0.043c-0.665,1.476-2.567,7.799-3.081,10.419C191.703,283.883,194.246,283.875,196.864,283.869z
				"/>
		</g>
		<g>
			<path d="M249.46,283.023c0,0.468-0.2,0.926-0.564,1.288c-0.396,0.395-0.932,0.62-1.468,0.617
				c-17.754-0.118-34.606-0.161-50.09-0.128l-0.446,0.001l-0.02-0.446c-0.005-0.113-0.008-0.239-0.008-0.377
				c0-2.677,0.983-10.335,1.441-11.225l0.13-0.252h0.284c7.952,0.003,15.163,0.208,24.294,0.469l1.368,0.039
				c9.382,0.268,15.796,3.394,21.455,6.152c0.574,0.28,1.143,0.557,1.707,0.828c1.885,0.903,1.899,1.951,1.912,2.793L249.46,283.023
				z M197.796,283.867c15.36-0.03,32.057,0.013,49.637,0.129c0.286,0.001,0.588-0.128,0.807-0.346
				c0.188-0.186,0.29-0.409,0.29-0.628h0.466l-0.466-0.021l-0.004-0.208c-0.011-0.762-0.02-1.313-1.384-1.967
				c-0.566-0.271-1.137-0.549-1.713-0.83c-5.574-2.717-11.893-5.797-21.074-6.058l-1.367-0.039
				c-8.996-0.257-16.128-0.46-23.937-0.469C198.675,274.879,197.82,281.254,197.796,283.867z"/>
		</g>
		<g>
			<path d="M195.64,273.12c-0.465,0.736-2.43,9.023-2.568,11.242l-0.539-0.034c0.138-2.197,2.071-10.577,2.652-11.496L195.64,273.12
				z"/>
		</g>
		<g>
			<path d="M249.102,282.745l-0.215,0.486l-1.884-0.838c-7.344-3.271-13.687-6.095-18.842-6.768
				c-4.786-0.625-20.136-0.782-30.293-0.887c-1.767-0.019-3.372-0.035-4.73-0.052c-9.636-0.122-17.575,0.198-25.745,1.036
				c-8.526,0.875-28.753,7.499-28.957,7.565l-0.166-0.505c0.204-0.067,20.485-6.708,29.068-7.589
				c8.191-0.84,16.15-1.161,25.805-1.039c1.359,0.017,2.964,0.034,4.73,0.052c10.169,0.105,25.538,0.263,30.355,0.892
				c5.232,0.683,11.607,3.521,18.989,6.809L249.102,282.745z"/>
		</g>
		<g>
			<path d="M108.482,194.322c-0.83,3.834-3.618,17.309-4.623,29.715c-0.687,8.486-0.688,16.741,0,25.232
				c1.004,12.406,3.792,25.88,4.623,29.715l-0.33,0.071c-0.832-3.839-3.623-17.333-4.629-29.759c-0.69-8.508-0.69-16.779,0-25.287
				c1.006-12.428,3.798-25.92,4.629-29.76L108.482,194.322z"/>
		</g>
	</g>
</g>
</svg>
