<?xml version="1.0" encoding="utf-8"?>
<!-- Generator: Adobe Illustrator 17.0.0, SVG Export Plug-In . SVG Version: 6.00 Build 0)  -->
<!DOCTYPE svg PUBLIC "-//W3C//DTD SVG 1.1//EN" "http://www.w3.org/Graphics/SVG/1.1/DTD/svg11.dtd">
<svg version="1.1" id="Layer_1" xmlns="http://www.w3.org/2000/svg"  x="0px" y="0px"
	 width="257.143px" height="85.177px" viewBox="11.852 131.088 257.143 85.177"
	 enable-background="new 11.852 131.088 257.143 85.177" xml:space="preserve">
<g id="back-left">
	<path fill="#FFFFFF" d="M200.932,204.77l-0.25-6.625c0,0-2.5-11,6.25-18.375s3.875-2.875,3.875-2.875s2.875-10.125,4.875-17.375
		s1.625-9.125,0.375-12.25l-1.75-10.183c0,0,13.375,5.808,17.125,8.433s7.25,5.125,12.625,5.625c0,0,6.75,1,7.875,2.125
		s12.375,16.75,12.75,18.375s0.625,10.375,0.625,10.875s2.25,2,2.75,2.875s0.75,9.375,0.5,10s-8.5,5.375-12.5,6.625
		c-4,1.25-10.5,4-12,3.25s-1.5-0.75-1.5-0.75l-2.875,0.125c0,0-5.25,11.75-19,11.375s-17.75-11.625-17.75-11.625L200.932,204.77z"/>
</g>
<g id="back-windscreen">
	<g>
		<path fill="#FFFFFF" d="M210.791,134.839c0.182,0.054,0.348,0.108,0.504,0.163c23.579,8.314,32.304,16.239,34.062,16.743
			c-11.862-2.813-8.584-4.675-24.336-11.742C213.272,136.527,210.616,135.756,210.791,134.839z"/>
	</g>
</g>
<g id="front-windscreen">
	<path fill="#FFFFFF" d="M78.64,156.27c0,0,25.333-14.667,53.25-21c0,0,1.833,1.083-2.583,3c-4.416,1.917-24.75,8.917-29.083,10.833
		C95.89,151.02,82.39,158.103,78.64,156.27z"/>
</g>
<g id="left">
	<path fill="#FF3947" d="M93.682,206.337l106.625-0.5l0.667-6.708c0,0-2.917-15.083,10.833-23.333l1.583-6.75
		c0,0,2.917-11.25,3.417-14.25s0.833-5-0.583-7.25l-1.917-10.459c0,0-2-1.063-2.563-1.313s-0.75-0.813-0.625-1.563
		c0,0-3.563-1.375-8.438-1.75s-53-0.625-59.25,0.5s-11.167,2.2-11.167,2.2s1.479,1.425-1.583,2.613
		c-3.062,1.188-23.813,8.642-25.75,9.329c-1.937,0.687-15.5,6.858-15.5,6.858l3.667,5.142c0,0-1.698,6.073-1.823,11.823
		s-0.719,22.41,1.906,28.91L93.682,206.337z M162.474,156.295c-0.5-6.25,1.167-20.667,1.167-20.667s11.25,0.25,18,0.167
		c6.75-0.083,9,0,13.917,1.5c4.621,1.41,15.167,10.25,16.083,11.417c0.916,1.167,0.917,3.417,0.75,4.75
		c-0.167,1.333-0.667,1.75-1.167,2S162.474,156.295,162.474,156.295z M103.64,158.712l0.833-2.75l-1.333-3.5
		c18.25-9.583,28.583-13.417,33.083-14.5c3.613-0.87,20.583-2.083,20.583-2.083l-3,20.667L103.64,158.712z"/>
</g>
<g id="front-left">
	<path fill="#FFFFFF" d="M78.474,156.603c0,0,2.583,0.5,5.667-0.583c3.083-1.083,5.292-2.058,5.292-2.058l3.667,5.142
		c0,0-2.208,9.833-2.125,16.667c0.083,6.833,0.083,22.133,2.208,24.067l0.625,6.017c0,0-7.75,0-9,0s-2.667-0.583-2.667-2.583
		l-2.167,0.167c0,0-4.333,12.417-19.667,12.417s-17.333-13-17.333-13l-2.917-0.333c0,0-1.667,3.417-2.167,3.5
		c-0.5,0.083-20.417-0.25-20.417-0.25s-5.5-6.917-5.167-9.5c0.333-2.583,1.833-3.917,1.667-6.833
		c-0.167-2.917-1.333-6.25-0.167-8.917c0,0-1.917-0.333,0-2.75c1.917-2.417,3.167-4,4.583-4.75c1.417-0.75,15.75-6.583,21.167-8.167
		C44.974,163.27,68.64,156.77,78.474,156.603z"/>
</g>
<g id="side-glass">
	<path fill="#FFFFFF" d="M103.14,152.462l1.333,3.5l-0.833,2.75l50.167-2.167l3-20.667c0,0-16.97,1.213-20.583,2.083
		C131.724,139.045,121.39,142.878,103.14,152.462z"/>
	<path fill="#FFFFFF" d="M163.64,135.628c0,0-1.667,14.417-1.167,20.667c0,0,48.25-0.583,48.75-0.833s1-0.667,1.167-2
		c0.167-1.333,0.167-3.583-0.75-4.75c-0.917-1.167-11.462-10.007-16.083-11.417c-4.917-1.5-7.167-1.583-13.917-1.5
		C174.89,135.878,163.64,135.628,163.64,135.628z"/>
</g>
<g>
	<g>
		<g>
			<path d="M268.995,190.372v4.269c0,3.594-16.862,8.814-17.033,8.865c-1.402,0.421-2.425,0.822-3.327,1.175
				c-1.595,0.625-2.746,1.078-4.604,1.078c-1.908,0-1.908-2.826-1.908-5.56c0-0.731,0.01-1.539,0.02-2.417
				c0.013-1.043,0.026-2.187,0.026-3.424c0-11.646-9.476-21.122-21.122-21.122s-21.121,9.475-21.121,21.122v2.678
				c0.139-0.03,0.29-0.025,0.455,0.035c0.663,0.238,0.663,1.095,0.663,1.556c0,1.238,0.019,2.284,0.034,3.162
				c0.012,0.641,0.021,1.193,0.021,1.665c0,1.354,0,3.041-1.469,3.041h-1.045c-3.262-0.001-13.587-0.006-24.007-0.006h-85.54
				c-1.803,0-2.908,0.007-3.652,0.012l-0.9,0.004c-1.904,0-3.046-1.126-3.057-3.011l-0.001-0.444c0-0.142,0.012-0.268,0.037-0.377
				l-0.005-1.065c0-0.63,0.176-1.093,0.363-1.582c0.231-0.605,0.518-1.359,0.595-2.78c0.04-0.759,0.061-1.73,0.061-2.886
				c0-11.646-9.475-21.122-21.122-21.122s-21.122,9.475-21.122,21.122c0,2.232,0.12,3.367,0.216,4.278
				c0.066,0.625,0.123,1.164,0.123,1.869v1.881c0,1.548-1.871,4.005-2.606,4.005H17.804c-1.21,0-5.952-5.923-5.952-10.126
				c0-0.894,0.19-1.713,0.566-2.435c0.541-1.04,0.804-2.41,0.804-4.189c0-1.558-0.199-3.124-0.375-4.506
				c-0.178-1.403-0.311-2.548-0.193-3.211c0.044-0.246,0.087-0.458,0.125-0.644c0.057-0.278,0.105-0.518,0.105-0.643
				c-0.091-0.103-0.328-0.361-0.328-0.818c0-0.526,0.274-1.35,2.26-3.794c2.34-2.88,2.976-3.354,4.48-3.985
				c30.553-12.834,54.025-15.568,58.42-15.986c0.401-0.05,2.209-0.981,4.304-2.061c7.691-3.962,25.703-13.241,50.945-19.385
				c0.472-0.115,0.977-0.26,1.55-0.424c3.782-1.083,10.82-3.098,31.379-3.098c38.281,0,43.247,1.75,45.634,2.592
				c18.269,6.441,27.774,13.153,31.834,16.019c1.02,0.72,1.9,1.341,2.188,1.424c1.102,0.316,1.346,0.351,1.787,0.415
				c0.46,0.066,1.091,0.157,2.848,0.555c4.157,0.941,14.292,18.25,14.762,19.614c0.591,1.71,0.799,8.815,0.799,10.209
				c0,0.533,0.711,1.223,1.337,1.832c0.714,0.692,1.451,1.408,1.613,2.262C268.973,187.45,268.995,188.955,268.995,190.372z
				 M243.544,200.2c0,3.184,0.256,4.007,0.47,4.137c1.605,0,2.599-0.39,4.102-0.979c0.882-0.346,1.979-0.776,3.438-1.213
				c6.83-2.049,16-6.133,16.02-7.503v-4.269c0-1.35-0.021-2.778-0.272-4.099c-0.078-0.413-0.678-0.995-1.206-1.508
				c-0.829-0.805-1.769-1.717-1.769-2.852c0-1.906-0.256-8.398-0.721-9.745c-0.535-1.55-10.514-17.961-13.732-18.69
				c-1.702-0.386-2.3-0.472-2.736-0.535c-0.487-0.07-0.781-0.113-1.977-0.456c-0.519-0.149-1.264-0.674-2.615-1.629
				c-4.011-2.832-13.404-9.463-31.486-15.839c-2.132-0.751-7.123-2.511-45.161-2.511c-20.36,0-27.273,1.979-30.988,3.043
				c-0.594,0.17-1.117,0.32-1.605,0.438c-25.079,6.104-42.984,15.329-50.63,19.268c-3.102,1.598-4.206,2.153-4.821,2.212
				c-4.359,0.415-27.641,3.127-58.004,15.881c-1.183,0.497-1.665,0.787-3.926,3.571c-1.547,1.904-1.863,2.603-1.926,2.824
				c0.394,0.489,0.354,0.957,0.178,1.819c-0.036,0.176-0.077,0.377-0.119,0.61c-0.096,0.528,0.047,1.55,0.204,2.781
				c0.172,1.353,0.386,3.037,0.386,4.685c0,2.014-0.315,3.599-0.965,4.846c-0.27,0.517-0.406,1.115-0.406,1.778
				c0,3.552,3.791,8.002,4.708,8.703h19.711c0.443-0.456,1.458-1.696,1.458-2.583v-1.881c0-0.629-0.051-1.11-0.115-1.719
				c-0.1-0.945-0.224-2.121-0.224-4.428c0-12.431,10.113-22.544,22.544-22.544s22.544,10.113,22.544,22.544
				c0,1.181-0.021,2.178-0.063,2.962c-0.089,1.644-0.434,2.55-0.686,3.21c-0.163,0.426-0.27,0.708-0.27,1.053l0.006,1.398
				c0,0.164,0,0.358-0.037,0.54c0.022,1.381,0.884,1.559,1.634,1.559l0.891-0.004c0.745-0.005,1.853-0.012,3.661-0.012h85.54
				c10.42,0,20.746,0.005,24.008,0.006h0.973c0.06-0.17,0.117-0.598,0.117-1.618c0-0.464-0.009-1.008-0.021-1.64
				c-0.014-0.775-0.03-1.681-0.033-2.733c-0.164,0.074-0.354,0.098-0.573,0.02c-0.362-0.13-0.546-0.455-0.546-0.964v-3.778
				c0-12.431,10.112-22.544,22.543-22.544s22.544,10.113,22.544,22.544c0,1.243-0.014,2.393-0.025,3.44
				C243.554,198.672,243.544,199.474,243.544,200.2z"/>
		</g>
		<g>
			<g>
				<path d="M245.406,151.631l-0.09,0.344c-6.586-1.562-8.588-2.872-11.618-4.856c-2.547-1.667-5.716-3.741-12.75-6.897
					c-2.115-0.949-3.855-1.698-5.253-2.3c-3.807-1.639-5.089-2.19-5.089-2.942c0-0.039,0.003-0.078,0.011-0.117l0.037-0.193
					l0.188,0.056c0.185,0.055,0.354,0.11,0.513,0.166c18.146,6.398,27.619,12.642,31.665,15.309
					C244.227,150.996,245.026,151.522,245.406,151.631z M211.016,135.152c0.311,0.502,1.919,1.195,4.818,2.443
					c1.399,0.603,3.142,1.352,5.26,2.302c7.059,3.167,10.241,5.25,12.798,6.924c2.881,1.886,4.702,3.078,10.159,4.476
					c-0.345-0.219-0.751-0.487-1.228-0.801c-4.034-2.659-13.482-8.886-31.588-15.271
					C211.165,135.202,211.092,135.177,211.016,135.152z"/>
			</g>
		</g>
		<g>
			<path d="M263.371,169.919c0,0.246-0.106,0.389-0.195,0.465c-0.136,0.116-0.315,0.158-0.536,0.124l-6.767-0.734
				c-6.857-0.743-13.134-1.936-13.196-1.948c-1.966-0.171-2.595-0.554-3.508-2.152c-0.256-0.448-0.458-0.803-0.458-1.215
				c0-0.98,1.005-1.806,5.238-5.28c1.278-1.051,3.418-1.641,5.325-1.468l3.444,0.724c0.188,0.039,0.395,0.074,0.605,0.109
				c1.062,0.182,2.266,0.388,2.742,1.215c0.105,0.183,0.276,0.527,0.459,0.897c0.224,0.452,0.598,1.207,0.708,1.332l1.894,1.398
				c0.699,0.441,0.883,0.685,1.83,2.168l1.467,2.296C263.273,169.181,263.371,169.668,263.371,169.919z M239.422,164.458
				c0,0.224,0.153,0.492,0.364,0.862c0.796,1.392,1.215,1.645,2.988,1.801c0.098,0.017,6.348,1.205,13.175,1.945l6.689,0.726
				c-0.052-0.201-0.23-0.644-0.814-1.559l-1.467-2.296c-0.961-1.506-1.07-1.609-1.633-1.965l-1.94-1.436
				c-0.167-0.123-0.351-0.462-0.896-1.564c-0.176-0.354-0.338-0.683-0.439-0.858c-0.31-0.538-1.338-0.714-2.245-0.869
				c-0.219-0.037-0.432-0.074-0.63-0.114l-3.405-0.719c-1.95-0.174-3.848,0.559-4.769,1.316
				C240.778,162.702,239.422,163.814,239.422,164.458z"/>
		</g>
		<g>
			<path d="M261.351,169.707l-0.421,0.574c-0.452-0.331-1.346-2.096-2.764-4.962c-0.587-1.185-1.141-2.305-1.478-2.891l0.617-0.354
				c0.348,0.605,0.906,1.734,1.497,2.93C259.677,166.768,260.996,169.436,261.351,169.707z"/>
		</g>
		<g>
			<path d="M132.428,136.21c0,0.811-2.655,2.169-16.174,6.85c-11.029,3.818-17.935,6.983-22.976,9.294
				c-6.449,2.956-10.001,4.584-15.491,4.584v-0.355c5.412,0,8.939-1.617,15.343-4.552c5.048-2.314,11.962-5.483,23.008-9.307
				c4.774-1.653,15.935-5.517,15.935-6.506c0-0.003,0-0.006,0-0.01c0-0.006-0.02-0.159-0.75-0.294l0.064-0.35
				c0.499,0.092,1.012,0.238,1.041,0.618C132.428,136.191,132.428,136.201,132.428,136.21z"/>
		</g>
		<g>
			<path d="M217.559,151.278L217.559,151.278c0,0.767-0.114,1.59-0.339,2.446c-1.141,4.354-1.789,7.449-2.263,9.709
				c-1.108,5.294-1.309,6.248-4.633,8.313c-8.302,5.157-12.206,14.101-13.794,18.974c-0.309,0.95-0.575,1.802-0.814,2.565
				c-2.127,6.8-2.223,6.864-10.229,6.853l-1.034-0.001H93.441c-0.77,0-2.816,0-2.816-26.174v-0.874
				c0-4.832,1.559-11.968,2.354-14.542c0.565-1.829,1.246-3.293,2.893-4.94c1.993-1.994,10.24-7.399,27.187-13.582
				c16.639-6.071,22.79-6.068,43.17-6.061l21.576,0.001c9.521,0,16.615,4.366,22.314,7.874
				C215.407,145.092,217.559,147.825,217.559,151.278z M91.337,173.962c0,2.274,0,9.194,0.331,15.164
				c0.554,10.011,1.651,10.3,1.774,10.3l92.047,0.001c7.559,0.01,7.559,0.01,9.549-6.354c0.239-0.766,0.507-1.621,0.817-2.573
				c1.618-4.965,5.601-14.082,14.095-19.358c3.065-1.904,3.231-2.697,4.312-7.854c0.476-2.267,1.126-5.373,2.271-9.744
				c0.212-0.808,0.314-1.549,0.314-2.265c0-3.171-2.054-5.729-7.09-8.828c-5.926-3.647-12.631-7.774-21.951-7.774h-21.577
				c-20.283-0.008-26.404-0.011-42.925,6.017c-16.83,6.14-24.973,11.461-26.928,13.417c-1.55,1.55-2.17,2.878-2.716,4.647
				c-0.785,2.54-2.323,9.575-2.323,14.332L91.337,173.962L91.337,173.962z"/>
		</g>
		<g>
			<path d="M157.416,135.467l-0.154,0.488c-0.561,1.782-2.782,16.112-3.083,20.407l-0.022,0.321l-0.321,0.01
				c-18.685,0.578-35.237,1.319-50.604,2.267l-0.044-0.71c15.287-0.942,31.745-1.681,50.307-2.258
				c0.341-4.115,2.228-16.643,2.961-19.763c-3.863,0.201-7.9,0.501-12.322,0.918c-4.981,0.47-7.167,0.79-10.291,1.753
				c-7.512,2.315-17.229,6.734-30.583,13.905l-0.337-0.627c13.396-7.193,23.154-11.628,30.71-13.958
				c3.184-0.981,5.397-1.306,10.435-1.781c4.618-0.435,8.817-0.744,12.839-0.945L157.416,135.467z"/>
		</g>
		<g>
			<path d="M163.855,135.244l-0.122,0.458c-0.372,1.391-1.317,16.139-1.187,20.38l0.011,0.356l-0.356,0.01
				c-2.883,0.079-5.671,0.16-8.365,0.243l-0.393,0.012l0.027-0.393c0.276-3.973,2.488-18.584,3.114-20.571l0.074-0.236l0.247-0.012
				c2.155-0.108,4.273-0.186,6.476-0.237L163.855,135.244z M161.823,155.171c0-4.813,0.748-16.488,1.14-19.194
				c-1.954,0.048-3.847,0.118-5.766,0.212c-0.632,2.477-2.607,15.242-2.987,19.779c2.461-0.075,5.001-0.149,7.618-0.221
				C161.825,155.569,161.823,155.376,161.823,155.171z"/>
		</g>
		<g>
			<path d="M212.481,152.586c0,1.591-0.846,2.944-1.847,2.955c-17.175,0.193-33.471,0.499-48.433,0.908l-0.354,0.01l-0.011-0.354
				c-0.134-4.269,0.831-19.168,1.21-20.585l0.069-0.258l0.267-0.006c7.675-0.176,14.634,0.03,23.443,0.29l1.381,0.041
				c9.107,0.268,15.353,5.751,20.862,10.589c0.558,0.49,1.109,0.975,1.658,1.449c1.701,1.47,1.725,3.014,1.747,4.507
				L212.481,152.586z M162.539,155.729c14.868-0.404,31.044-0.707,48.087-0.898c0.518-0.006,1.144-1.008,1.144-2.244h0.355
				l-0.356-0.079l-0.007-0.365c-0.021-1.458-0.04-2.718-1.5-3.979c-0.55-0.475-1.104-0.961-1.663-1.452
				c-5.42-4.759-11.563-10.152-20.414-10.413l-1.381-0.041c-8.69-0.257-15.577-0.46-23.122-0.297
				C163.292,138.295,162.462,151.272,162.539,155.729z"/>
		</g>
		<g>
			<path d="M160.531,135.817c-0.468,1.418-2.257,16.29-2.368,20.409l-0.711-0.02c0.111-4.149,1.928-19.171,2.403-20.612
				L160.531,135.817z"/>
		</g>
		<g>
			<path d="M217.559,151.278L217.559,151.278c0,0.767-0.114,1.59-0.339,2.446c-1.141,4.354-1.789,7.449-2.263,9.709
				c-1.108,5.294-1.309,6.248-4.633,8.313c-8.302,5.157-12.206,14.101-13.794,18.974c-0.309,0.95-0.575,1.802-0.814,2.565
				c-2.127,6.8-2.223,6.864-10.229,6.853l-1.034-0.001H93.441c-0.77,0-2.816,0-2.816-26.174v-0.874
				c0-4.832,1.559-11.968,2.354-14.542c0.565-1.829,1.246-3.293,2.893-4.94c1.993-1.994,10.24-7.399,27.187-13.582
				c16.639-6.071,22.79-6.068,43.17-6.061l21.576,0.001c9.521,0,16.615,4.366,22.314,7.874
				C215.407,145.092,217.559,147.825,217.559,151.278z M91.337,173.962c0,2.274,0,9.194,0.331,15.164
				c0.554,10.011,1.651,10.3,1.774,10.3l92.047,0.001c7.559,0.01,7.559,0.01,9.549-6.354c0.239-0.766,0.507-1.621,0.817-2.573
				c1.618-4.965,5.601-14.082,14.095-19.358c3.065-1.904,3.231-2.697,4.312-7.854c0.476-2.267,1.126-5.373,2.271-9.744
				c0.212-0.808,0.314-1.549,0.314-2.265c0-3.171-2.054-5.729-7.09-8.828c-5.926-3.647-12.631-7.774-21.951-7.774h-21.577
				c-20.283-0.008-26.404-0.011-42.925,6.017c-16.83,6.14-24.973,11.461-26.928,13.417c-1.55,1.55-2.17,2.878-2.716,4.647
				c-0.785,2.54-2.323,9.575-2.323,14.332L91.337,173.962L91.337,173.962z"/>
		</g>
		<g>
			<path d="M79.636,156.871c-21.815,3.038-44.164,11.92-50.75,15.78l-0.18-0.307c6.606-3.873,29.017-12.781,50.881-15.826
				L79.636,156.871z"/>
		</g>
		<g>
			<path d="M158.039,156.464c-0.438,0.721-1.281,10.369-1.281,11.232c0,0.266-0.025,1.269-0.064,2.775
				c-0.147,5.778-0.492,19.31-0.278,26.521c0.054,1.777,0.256,2.019,0.404,2.196c0.089,0.106,0.2,0.238,0.274,0.492l-0.684,0.199
				c-0.032-0.11-0.066-0.152-0.136-0.235c-0.289-0.344-0.514-0.757-0.57-2.631c-0.218-7.234,0.131-20.777,0.278-26.561
				c0.039-1.497,0.064-2.493,0.064-2.757c0-0.277,0.223-3.186,0.502-5.952c0.594-5.864,0.854-5.872,1.248-5.883l0.02,0.711
				C157.947,156.569,158.023,156.491,158.039,156.464z"/>
		</g>
		<g>
			<path d="M153.868,163.293c0,0.919-0.72,1.665-1.639,1.698l-9.784,0.334c-0.935,0.031-1.722-0.704-1.754-1.639l-0.012-0.315
				c0,0,0-0.001,0-0.002c0-0.977,0.72-1.721,1.639-1.753l9.783-0.334c0.452-0.016,0.885,0.146,1.216,0.455
				c0.332,0.31,0.523,0.73,0.539,1.184L153.868,163.293z M141.389,163.313l0.013,0.348c0.019,0.544,0.476,0.971,1.02,0.953
				l9.783-0.334c0.533-0.019,0.952-0.453,0.952-0.987h0.355l-0.356-0.033l-0.011-0.315c-0.009-0.264-0.12-0.508-0.313-0.688
				c-0.193-0.179-0.444-0.273-0.707-0.264l-9.783,0.334C141.808,162.345,141.389,162.778,141.389,163.313z"/>
		</g>
		<g>
			<path d="M210.125,160.736c0,0.918-0.72,1.663-1.639,1.696l-9.784,0.334c-0.935,0.031-1.722-0.704-1.754-1.638l-0.011-0.316
				c0-0.001,0-0.001,0-0.002c0-0.977,0.72-1.72,1.638-1.752l9.784-0.334c0.934-0.031,1.721,0.703,1.754,1.638L210.125,160.736z
				 M197.648,160.752l0.012,0.351c0.019,0.543,0.476,0.97,1.02,0.952l9.783-0.334c0.533-0.019,0.952-0.452,0.952-0.985h0.355
				l-0.356-0.035l-0.011-0.316c-0.02-0.543-0.477-0.97-1.02-0.952l-9.783,0.334C198.067,159.786,197.648,160.219,197.648,160.752z"
				/>
		</g>
		<g>
			<path d="M157.416,135.467l-0.154,0.488c-0.561,1.782-2.782,16.112-3.083,20.407l-0.022,0.321l-0.321,0.01
				c-18.685,0.578-35.237,1.319-50.604,2.267l-0.044-0.71c15.287-0.942,31.745-1.681,50.307-2.258
				c0.341-4.115,2.228-16.643,2.961-19.763c-3.863,0.201-7.9,0.501-12.322,0.918c-4.981,0.47-7.167,0.79-10.291,1.753
				c-7.512,2.315-17.229,6.734-30.583,13.905l-0.337-0.627c13.396-7.193,23.154-11.628,30.71-13.958
				c3.184-0.981,5.397-1.306,10.435-1.781c4.618-0.435,8.817-0.744,12.839-0.945L157.416,135.467z"/>
		</g>
		<g>
			<path d="M163.855,135.244l-0.122,0.458c-0.372,1.391-1.317,16.139-1.187,20.38l0.011,0.356l-0.356,0.01
				c-2.883,0.079-5.671,0.16-8.365,0.243l-0.393,0.012l0.027-0.393c0.276-3.973,2.488-18.584,3.114-20.571l0.074-0.236l0.247-0.012
				c2.155-0.108,4.273-0.186,6.476-0.237L163.855,135.244z M161.823,155.171c0-4.813,0.748-16.488,1.14-19.194
				c-1.954,0.048-3.847,0.118-5.766,0.212c-0.632,2.477-2.607,15.242-2.987,19.779c2.461-0.075,5.001-0.149,7.618-0.221
				C161.825,155.569,161.823,155.376,161.823,155.171z"/>
		</g>
		<g>
			<path d="M212.481,152.586c0,1.591-0.846,2.944-1.847,2.955c-17.175,0.193-33.471,0.499-48.433,0.908l-0.354,0.01l-0.011-0.354
				c-0.134-4.269,0.831-19.168,1.21-20.585l0.069-0.258l0.267-0.006c7.675-0.176,14.634,0.03,23.443,0.29l1.381,0.041
				c9.107,0.268,15.353,5.751,20.862,10.589c0.558,0.49,1.109,0.975,1.658,1.449c1.701,1.47,1.725,3.014,1.747,4.507
				L212.481,152.586z M162.539,155.729c14.868-0.404,31.044-0.707,48.087-0.898c0.518-0.006,1.144-1.008,1.144-2.244h0.355
				l-0.356-0.079l-0.007-0.365c-0.021-1.458-0.04-2.718-1.5-3.979c-0.55-0.475-1.104-0.961-1.663-1.452
				c-5.42-4.759-11.563-10.152-20.414-10.413l-1.381-0.041c-8.69-0.257-15.577-0.46-23.122-0.297
				C163.292,138.295,162.462,151.272,162.539,155.729z"/>
		</g>
		<g>
			<path d="M160.531,135.817c-0.468,1.418-2.257,16.29-2.368,20.409l-0.711-0.02c0.111-4.149,1.928-19.171,2.403-20.612
				L160.531,135.817z"/>
		</g>
		<g>
			<path d="M104.522,155.802c0,0.566-0.535,3.049-1.192,3.249c-0.435,0.132-2.607,0.306-3.408,0.362
				c-0.506,0.035-1.027,0.217-1.506,0.526l-0.078,0.05l-0.092,0.006c-1.315,0.083-2.482,0.157-3.341,0.214
				c-0.67,0.044-1.403,0.063-1.758-0.269c-0.176-0.165-0.243-0.398-0.178-0.646c0.253-0.825,0.576-1.759,1.129-2.71l0.095-0.163
				l1.783-0.125c0.093-0.094,0.365-0.848,0.564-1.398c0.463-1.284,1.041-2.883,2.066-3.294c1.095-0.439,1.623-0.469,2.499-0.519
				l0.53-0.033c0.318-0.022,0.639,0.115,0.954,0.408C103.645,152.444,104.522,155.106,104.522,155.802z M98.111,159.291
				c0.558-0.343,1.166-0.546,1.762-0.588c1.517-0.105,3.005-0.258,3.25-0.333c0.155-0.183,0.688-1.906,0.688-2.568
				c0-0.515-0.807-2.982-1.706-3.82c-0.113-0.105-0.277-0.229-0.419-0.219l-0.54,0.033c-0.831,0.047-1.288,0.073-2.275,0.469
				c-0.73,0.292-1.269,1.785-1.662,2.875c-0.412,1.142-0.661,1.831-1.186,1.866l-1.402,0.098c-0.367,0.662-0.659,1.381-0.961,2.363
				c0.023-0.002,0.241,0.096,1.187,0.033C95.698,159.443,96.832,159.372,98.111,159.291z"/>
		</g>
		<g>
			<path d="M103.372,158.219v0.711c-0.696,0-1.189-0.316-1.516-0.526c-0.083-0.053-0.195-0.125-0.235-0.137l-3.849,0.003
				c-0.333,0-0.573-0.263-0.827-0.542c-0.281-0.308-0.571-0.625-0.946-0.625v-0.711c0.689,0,1.141,0.495,1.471,0.857
				c0.105,0.115,0.264,0.289,0.329,0.313l3.854-0.003c0.203,0,0.38,0.114,0.586,0.247
				C102.528,157.989,102.885,158.219,103.372,158.219z"/>
		</g>
		<g>
			<path d="M265.382,182.613v0.711c-5.499,0-8.829-0.71-10.182-2.173c-0.52-0.563-0.749-1.239-0.692-2.012
				c0.041-0.515,0.018-5.088-0.058-6.468c-0.013-0.242-0.021-0.484-0.028-0.722c-0.032-1.064-0.061-1.982-0.599-2.481l0.484-0.521
				c0.756,0.701,0.79,1.809,0.826,2.981c0.007,0.232,0.014,0.468,0.027,0.705c0.073,1.343,0.103,5.959,0.056,6.562
				c-0.048,0.581,0.12,1.057,0.506,1.474C256.916,181.958,260.165,182.613,265.382,182.613z"/>
		</g>
		<g>
			<path d="M257.157,161.915l-0.648,0.292c-1.646-3.659-6.103-8.166-6.146-8.21c-0.555-0.555-1.813-0.853-2.823-1.092
				c-0.834-0.198-1.553-0.368-1.923-0.664l0.443-0.556c0.246,0.196,0.956,0.365,1.644,0.527c1.155,0.274,2.465,0.584,3.162,1.281
				C250.91,153.539,255.459,158.141,257.157,161.915z"/>
		</g>
		<g>
			<path d="M82.071,195.575l-0.002,0.282c-0.019,5.399-2.258,10.677-6.143,14.473c-3.811,3.818-9.091,5.983-14.479,5.934
				c-5.375,0.049-10.655-2.117-14.472-5.941c-3.877-3.791-6.116-9.07-6.136-14.478l-0.002-0.273c0-5.359,2.165-10.608,5.94-14.401
				c3.848-3.909,9.2-6.146,14.683-6.136c5.477-0.013,10.827,2.225,14.674,6.14C79.906,184.959,82.071,190.209,82.071,195.575z
				 M42.26,195.571l0.001,0.261c0.019,5.037,2.101,9.947,5.714,13.479c3.556,3.562,8.463,5.575,13.472,5.53
				c5.022,0.045,9.93-1.967,13.479-5.522c3.62-3.538,5.703-8.447,5.721-13.475l0.002-0.269c0-4.992-2.014-9.876-5.525-13.401
				c-3.531-3.593-8.637-5.729-13.663-5.717c-5.106-0.01-10.088,2.073-13.672,5.714C44.273,185.702,42.26,190.584,42.26,195.571z"/>
		</g>
		<g>
			<path d="M83.19,194.359c0-12.058-9.775-21.833-21.833-21.833c-12.058,0-21.833,9.775-21.833,21.833
				c0,3.779,0.338,4.477,0.338,6.145c0,0.727,0,0.946,0,1.881c0,0.051-0.007,0.103-0.011,0.155c0.709,0.418,1.879,0.736,3.277,0.885
				c-1.014-2.386-1.569-4.972-1.579-7.583c-0.075-5.211,2.023-10.445,5.731-14.17c3.687-3.746,8.897-5.937,14.178-5.927
				c5.261-0.012,10.486,2.181,14.169,5.927c3.711,3.725,5.806,8.957,5.731,14.174c-0.01,2.719-0.617,5.411-1.715,7.881l2.51,0.015
				c-0.007-0.087-0.011-0.172-0.012-0.253c-0.014-2.235,0.058,2.145,0.03-1.887c-0.008-1.159,0.814-1.68,0.957-4.319
				C83.166,196.568,83.19,195.625,83.19,194.359z"/>
		</g>
		<g>
			<path d="M76.799,195.649c0,8.461-6.883,15.345-15.345,15.345c-8.461,0-15.344-6.883-15.344-15.345
				c0-8.461,6.883-15.344,15.344-15.344S76.799,187.188,76.799,195.649z M46.821,195.649c0,8.069,6.564,14.634,14.633,14.634
				s14.634-6.565,14.634-14.634c0-8.069-6.565-14.633-14.634-14.633S46.821,187.58,46.821,195.649z"/>
		</g>
		<g>
			<path d="M241.887,195.575l-0.002,0.282c-0.02,5.399-2.259,10.677-6.144,14.473c-3.811,3.818-9.091,5.983-14.479,5.934
				c-5.374,0.049-10.653-2.117-14.471-5.941c-3.878-3.791-6.117-9.07-6.137-14.478l-0.002-0.27c0-5.361,2.165-10.611,5.94-14.404
				c3.847-3.909,9.2-6.146,14.683-6.136c5.478-0.013,10.827,2.225,14.674,6.14C239.722,184.96,241.887,190.21,241.887,195.575z
				 M202.075,195.574l0.002,0.257c0.02,5.037,2.102,9.947,5.715,13.479c3.556,3.562,8.463,5.575,13.471,5.53
				c5.021,0.045,9.93-1.967,13.479-5.522c3.619-3.538,5.702-8.446,5.722-13.475l0.002-0.269c0-4.991-2.015-9.875-5.526-13.401
				c-3.531-3.593-8.638-5.729-13.662-5.717c-5.106-0.01-10.089,2.073-13.673,5.714C204.089,185.702,202.075,190.586,202.075,195.574
				z"/>
		</g>
		<g>
			<path d="M241.887,195.575l-0.002,0.282c-0.02,5.399-2.259,10.677-6.144,14.473c-3.811,3.818-9.091,5.983-14.479,5.934
				c-5.374,0.049-10.653-2.117-14.471-5.941c-3.878-3.791-6.117-9.07-6.137-14.478l-0.002-0.27c0-5.361,2.165-10.611,5.94-14.404
				c3.847-3.909,9.2-6.146,14.683-6.136c5.478-0.013,10.827,2.225,14.674,6.14C239.722,184.96,241.887,190.21,241.887,195.575z
				 M202.075,195.574l0.002,0.257c0.02,5.037,2.102,9.947,5.715,13.479c3.556,3.562,8.463,5.575,13.471,5.53
				c5.021,0.045,9.93-1.967,13.479-5.522c3.619-3.538,5.702-8.446,5.722-13.475l0.002-0.269c0-4.991-2.015-9.875-5.526-13.401
				c-3.531-3.593-8.638-5.729-13.662-5.717c-5.106-0.01-10.089,2.073-13.673,5.714C204.089,185.702,202.075,190.586,202.075,195.574
				z"/>
		</g>
		<g>
			<path d="M242.642,194.833c0-12.058-9.774-21.833-21.833-21.833c-12.057,0-21.832,9.775-21.832,21.833c0,0,0,2.566,0,3.778
				c0,1.212,1.118-1.814,1.118,0.49c0,2.881,0.099,4.724,0.03,5.82l3.546,0.021c-1.471-2.787-2.293-5.924-2.305-9.099
				c-0.075-5.211,2.023-10.445,5.731-14.17c3.687-3.746,8.897-5.937,14.178-5.927c5.261-0.012,10.486,2.181,14.168,5.927
				c3.711,3.725,5.806,8.957,5.731,14.174c-0.012,3.251-0.872,6.467-2.413,9.306l2.241,0.013c0.782,0,1.527-0.052,2.207-0.146
				C242.358,203.238,242.642,200.518,242.642,194.833z"/>
		</g>
		<g>
			<path d="M236.615,195.649c0,8.461-6.884,15.345-15.345,15.345s-15.345-6.883-15.345-15.345c0-8.461,6.884-15.344,15.345-15.344
				S236.615,187.188,236.615,195.649z M206.636,195.649c0,8.069,6.564,14.634,14.634,14.634s14.634-6.565,14.634-14.634
				c0-8.069-6.564-14.633-14.634-14.633S206.636,187.58,206.636,195.649z"/>
		</g>
		<g>
			<path d="M40.307,170.346c0,0.125-0.035,0.246-0.101,0.352c-1.283,2.017-2.755,3.794-4.376,5.287
				c-0.951,0.861-1.878,1.538-2.835,2.068c-1.15,0.654-2.458,0.986-3.342,1.179c-2.421,0.506-4.87,0.713-6.733,0.836
				c-2.242,0.136-4.507,0.175-6.734,0.116l-0.346-0.009l-0.039-0.483l0.056-0.104c0.57-0.977,1.203-1.907,1.877-2.762
				c0.696-0.858,1.46-1.743,2.5-2.36c0.935-0.441,1.873-0.711,2.779-0.971l0.439-0.126c1.065-0.297,2.131-0.57,3.2-0.835
				c4.703-1.139,9.347-2.11,12.867-2.829c0.17-0.036,0.346-0.002,0.493,0.094c0.147,0.096,0.248,0.245,0.283,0.417L40.307,170.346z
				 M16.745,179.485c2.036,0.039,4.093-0.003,6.128-0.127c1.952-0.129,4.269-0.329,6.63-0.822c0.835-0.182,2.073-0.496,3.142-1.104
				c0.912-0.506,1.796-1.151,2.704-1.974c1.563-1.438,2.985-3.154,4.229-5.1c-3.449,0.763-8.077,1.731-12.758,2.865
				c-1.06,0.263-2.12,0.534-3.174,0.828l-0.438,0.126c-0.92,0.264-1.789,0.514-2.643,0.915c-0.909,0.542-1.625,1.373-2.278,2.177
				C17.743,177.96,17.225,178.704,16.745,179.485z"/>
		</g>
		<g>
			<path d="M32.309,195.95v0.028c-0.001,0.054-0.006,0.106-0.013,0.156c-0.219,1.512-0.575,2.816-1.058,3.88
				c-0.274,0.592-0.575,1.059-0.896,1.393c-0.393,0.33-0.69,0.44-0.978,0.546l-0.093,0.035c-1.223,0.402-2.379,0.53-3.658,0.645
				c-1.093,0.059-2.349,0.118-3.576,0.091c-1.432-0.029-2.529-0.098-3.556-0.224l-0.27-0.033l-0.063-0.307
				c-0.148-1.577,0.154-3.161,0.694-4.064c0.123-0.25,0.324-0.476,0.554-0.616c0.155-0.104,0.322-0.188,0.491-0.263
				c0.323-0.146,0.645-0.253,0.945-0.346c1.258-0.377,2.498-0.605,3.661-0.806c2.18-0.347,4.482-0.621,7.249-0.863l0.155-0.013
				l0.192,0.133C32.28,195.498,32.309,195.791,32.309,195.95z M18.836,201.83c0.963,0.101,1.957,0.157,3.216,0.183
				c1.204,0.026,2.443-0.032,3.51-0.089c1.222-0.111,2.336-0.233,3.473-0.607l0.083-0.031c0.263-0.097,0.47-0.174,0.741-0.399
				c0.237-0.25,0.493-0.652,0.733-1.169c0.454-1,0.791-2.24,1-3.681l0.006-0.086c0-0.007,0-0.015,0-0.021
				c-2.661,0.235-4.885,0.502-6.989,0.837c-1.137,0.196-2.353,0.419-3.569,0.785c-0.284,0.089-0.572,0.184-0.86,0.314
				c-0.134,0.06-0.267,0.125-0.401,0.214c-0.067,0.042-0.205,0.141-0.313,0.357C19.019,199.186,18.762,200.569,18.836,201.83z"/>
		</g>
	</g>
</g>
</svg>
