<?xml version="1.0" encoding="utf-8"?>
<!-- Generator: Adobe Illustrator 17.0.0, SVG Export Plug-In . SVG Version: 6.00 Build 0)  -->
<!DOCTYPE svg PUBLIC "-//W3C//DTD SVG 1.1//EN" "http://www.w3.org/Graphics/SVG/1.1/DTD/svg11.dtd">
<svg version="1.1" id="Layer_1" xmlns="http://www.w3.org/2000/svg"  x="0px" y="0px"
	 width="257.142px" height="85.179px" viewBox="50.082 62.194 257.142 85.179"
	 enable-background="new 50.082 62.194 257.142 85.179" xml:space="preserve">
<g id="back-right">
	<path fill="#FFFFFF" d="M118.395,135.696l0.25-6.625c0,0,2.5-11-6.25-18.375s-3.875-2.875-3.875-2.875s-2.875-10.125-4.875-17.375
		s-1.625-9.125-0.375-12.25l1.75-10.183c0,0-13.375,5.809-17.125,8.434s-7.25,5.125-12.625,5.625c0,0-6.75,1-7.875,2.125
		s-12.375,16.75-12.75,18.375s-0.625,10.375-0.625,10.875s-2.25,2-2.75,2.875s-0.75,9.375-0.5,10s8.5,5.375,12.5,6.625
		s10.5,4,12,3.25s1.5-0.75,1.5-0.75l2.875,0.125c0,0,5.25,11.75,19,11.375s17.75-11.625,17.75-11.625L118.395,135.696z"/>
</g>
<g id="back-windscreen">
	<g>
		<path fill="#FFFFFF" d="M98.056,71.044c-15.752,7.067-12.474,8.929-24.336,11.742c1.758-0.504,10.483-8.429,34.062-16.743
			c0.156-0.055,0.322-0.109,0.504-0.163C108.461,66.797,105.805,67.568,98.056,71.044z"/>
	</g>
</g>
<g id="front-windscreen">
	<path fill="#FFFFFF" d="M240.312,87.138c0,0-25.333-14.667-53.25-21c0,0-1.833,1.083,2.583,3
		c4.417,1.917,24.75,8.917,29.083,10.833C223.062,81.888,236.562,88.971,240.312,87.138z"/>
</g>
<g id="right">
	<path fill="#FF3947" d="M226.145,130.813c2.625-6.5,1.875-23.375,1.75-29.125s-2.125-10.875-2.125-10.875l4.125-5.875
		c0,0-13.688-6-15.625-6.688s-22.563-8.313-25.625-9.5s-1.583-2.613-1.583-2.613s-4.917-1.075-11.167-2.2s-54.375-0.875-59.25-0.5
		s-8.438,1.75-8.438,1.75c0.125,0.75-0.063,1.313-0.625,1.563s-2.563,1.313-2.563,1.313l-1.917,10.458
		c-1.417,2.25-1.083,4.25-0.583,7.25s3.417,14.25,3.417,14.25l1.583,6.75c13.75,8.25,10.833,23.333,10.833,23.333l0.667,6.708
		l106.625,0.5L226.145,130.813z M108.103,86.438c-0.5-0.25-1-0.667-1.167-2s-0.167-3.583,0.75-4.75s11.463-10.007,16.084-11.417
		c4.917-1.5,7.167-1.583,13.917-1.5s18-0.167,18-0.167s1.667,14.417,1.167,20.667C156.853,87.271,108.603,86.688,108.103,86.438z
		 M165.52,87.521l-3-20.667c0,0,16.97,1.213,20.583,2.083c4.5,1.083,14.833,4.917,33.083,14.5l-1.333,3.5l0.833,2.75L165.52,87.521z
		"/>
</g>
<g id="front-right">
	<path fill="#FFFFFF" d="M240.687,87.663c0,0-2.583,0.5-5.667-0.583c-3.083-1.083-5.292-2.058-5.292-2.058l-3.667,5.142
		c0,0,2.208,9.833,2.125,16.667c-0.083,6.833-0.083,22.133-2.208,24.067l-0.625,6.017c0,0,7.75,0,9,0s2.667-0.583,2.667-2.583
		l2.167,0.167c0,0,4.333,12.417,19.667,12.417s17.333-13,17.333-13l2.917-0.333c0,0,1.667,3.417,2.167,3.5s20.417-0.25,20.417-0.25
		s5.5-6.917,5.167-9.5c-0.333-2.583-1.833-3.917-1.667-6.833c0.167-2.917,1.333-6.25,0.167-8.917c0,0,1.917-0.333,0-2.75
		c-1.917-2.417-3.167-4-4.583-4.75c-1.416-0.75-15.75-6.583-21.167-8.167C274.187,94.33,250.52,87.83,240.687,87.663z"/>
</g>
<g id="side-glass">
	<path fill="#FFFFFF" d="M216.187,83.438l-1.333,3.5l0.833,2.75l-50.167-2.167l-3-20.667c0,0,16.97,1.213,20.583,2.083
		C187.603,70.021,197.937,73.855,216.187,83.438z"/>
	<path fill="#FFFFFF" d="M155.687,66.605c0,0,1.667,14.417,1.167,20.667c0,0-48.25-0.583-48.75-0.833s-1-0.667-1.167-2
		s-0.167-3.583,0.75-4.75s11.462-10.007,16.083-11.417c4.917-1.5,7.167-1.583,13.917-1.5S155.687,66.605,155.687,66.605z"/>
</g>
<g>
	<g>
		<g>
			<path d="M50.082,125.749v-4.269c0-1.418,0.022-2.923,0.296-4.365c0.163-0.854,0.901-1.57,1.614-2.263
				c0.626-0.608,1.337-1.298,1.337-1.831c0-1.394,0.208-8.498,0.799-10.209c0.47-1.362,10.604-18.673,14.762-19.613
				c1.755-0.397,2.386-0.488,2.846-0.555c0.442-0.064,0.686-0.1,1.789-0.416c0.287-0.082,1.168-0.704,2.188-1.425
				c4.06-2.865,13.566-9.576,31.833-16.018c2.387-0.841,7.354-2.591,45.634-2.591c20.56,0,27.598,2.015,31.379,3.098
				c0.574,0.164,1.079,0.31,1.551,0.424c25.239,6.144,43.25,15.422,50.941,19.384c2.096,1.079,3.906,2.012,4.309,2.062
				c4.395,0.418,27.873,3.154,58.419,15.987c1.504,0.631,2.141,1.104,4.48,3.984c1.986,2.444,2.26,3.269,2.26,3.794
				c0,0.459-0.237,0.717-0.338,0.827c0.011,0.116,0.06,0.356,0.116,0.634c0.038,0.187,0.082,0.399,0.125,0.646
				c0.117,0.661-0.015,1.807-0.193,3.211c-0.176,1.382-0.375,2.948-0.375,4.506c0,1.78,0.263,3.15,0.804,4.189
				c0.376,0.721,0.566,1.54,0.566,2.435c0,4.202-4.742,10.125-5.952,10.125h-20.164c-0.736,0-2.606-2.456-2.606-4.005v-1.881
				c0-0.704,0.057-1.244,0.123-1.868c0.097-0.912,0.216-2.046,0.216-4.278c0-11.646-9.475-21.122-21.122-21.122
				c-11.647,0-21.122,9.476-21.122,21.122c0,1.156,0.021,2.127,0.061,2.886c0.077,1.421,0.364,2.175,0.595,2.78
				c0.187,0.489,0.363,0.952,0.363,1.56l-0.005,1.087c0.025,0.11,0.037,0.236,0.037,0.378l-0.001,0.443
				c-0.01,1.886-1.153,3.011-3.057,3.011l-0.9-0.004c-0.743-0.005-1.849-0.012-3.652-0.012l-110.591,0.006
				c-1.469,0-1.469-1.686-1.469-3.04c0-0.472,0.01-1.024,0.021-1.665c0.016-0.878,0.034-1.925,0.034-3.162
				c0-0.46,0-1.317,0.663-1.556c0.164-0.06,0.315-0.064,0.453-0.035l0.002-2.677c0-11.646-9.475-21.122-21.121-21.122
				s-21.122,9.476-21.122,21.122c0,1.237,0.014,2.381,0.026,3.424c0.01,0.878,0.02,1.686,0.02,2.417c0,2.732,0,5.559-1.908,5.559
				c-1.858,0-3.01-0.451-4.604-1.077c-0.902-0.354-1.925-0.754-3.327-1.175C66.944,134.563,50.082,129.343,50.082,125.749z
				 M305.08,110.851c-0.064-0.221-0.382-0.921-1.926-2.821c-2.261-2.784-2.743-3.073-3.926-3.569
				c-30.356-12.753-53.644-15.468-58.004-15.883c-0.615-0.058-1.72-0.614-4.824-2.213c-7.646-3.939-25.552-13.163-50.626-19.266
				c-0.489-0.119-1.012-0.269-1.606-0.439c-3.714-1.063-10.627-3.043-30.988-3.043c-38.036,0-43.029,1.76-45.161,2.511
				c-18.08,6.376-27.475,13.007-31.485,15.838c-1.353,0.955-2.098,1.481-2.616,1.63c-1.196,0.344-1.491,0.386-1.979,0.456
				c-0.437,0.063-1.034,0.149-2.734,0.534c-3.22,0.729-13.197,17.141-13.731,18.691c-0.466,1.347-0.722,7.838-0.722,9.744
				c0,1.135-0.939,2.047-1.769,2.852c-0.528,0.514-1.128,1.096-1.207,1.509c-0.25,1.319-0.271,2.748-0.271,4.099v4.269
				c0.02,1.369,9.189,5.454,16.02,7.503c1.459,0.438,2.557,0.868,3.438,1.214c1.503,0.59,2.496,0.979,4.085,0.979
				c0.23-0.13,0.486-0.953,0.486-4.137c0-0.727-0.01-1.528-0.021-2.4c-0.012-1.048-0.025-2.197-0.025-3.44
				c0-12.431,10.113-22.544,22.544-22.544s22.543,10.113,22.543,22.544v3.777c0,0.51-0.184,0.834-0.546,0.964
				c-0.219,0.079-0.409,0.055-0.573-0.02c-0.003,1.052-0.02,1.958-0.033,2.733c-0.012,0.631-0.021,1.175-0.021,1.64
				c0,1.02,0.058,1.446,0.117,1.617l110.52-0.005c1.808,0,2.916,0.007,3.661,0.011l0.891,0.005c0.75,0,1.611-0.179,1.634-1.56
				c-0.037-0.181-0.037-0.376-0.037-0.539l0.006-1.386l0,0c0-0.358-0.107-0.64-0.27-1.066c-0.252-0.661-0.597-1.566-0.686-3.21
				c-0.042-0.784-0.063-1.78-0.063-2.962c0-12.431,10.113-22.544,22.544-22.544s22.544,10.113,22.544,22.544
				c0,2.307-0.125,3.482-0.224,4.428c-0.064,0.608-0.115,1.09-0.115,1.719v1.881c0,0.887,1.015,2.127,1.458,2.583h19.711
				c0.917-0.701,4.708-5.151,4.708-8.703c0-0.663-0.136-1.261-0.406-1.777c-0.649-1.247-0.965-2.832-0.965-4.847
				c0-1.647,0.214-3.332,0.386-4.686c0.156-1.229,0.299-2.254,0.204-2.78c-0.042-0.234-0.083-0.436-0.119-0.612
				C304.722,111.79,304.71,111.292,305.08,110.851z"/>
		</g>
		<g>
			<g>
				<path d="M73.671,82.74c0.38-0.109,1.179-0.636,2.387-1.432c4.046-2.666,13.52-8.91,31.664-15.308
					c0.159-0.057,0.328-0.111,0.513-0.166l0.188-0.056l0.037,0.193c0.154,0.797-1.073,1.335-5.077,3.059
					c-1.398,0.603-3.139,1.352-5.254,2.301c-7.034,3.155-10.203,5.229-12.749,6.896c-3.031,1.983-5.033,3.294-11.619,4.855
					L73.671,82.74z M108.061,66.261c-0.076,0.024-0.148,0.05-0.22,0.075c-18.104,6.383-27.553,12.609-31.587,15.269
					c-0.478,0.314-0.884,0.582-1.229,0.801c5.457-1.397,7.278-2.59,10.159-4.476c2.557-1.673,5.739-3.756,12.798-6.923
					c2.119-0.95,3.86-1.7,5.26-2.303C106.142,67.457,107.751,66.763,108.061,66.261z"/>
			</g>
		</g>
		<g>
			<path d="M55.706,101.027L55.706,101.027c0-0.251,0.099-0.738,0.947-2.069l1.467-2.296c0.947-1.483,1.13-1.727,1.852-2.184
				l1.897-1.406c0.085-0.102,0.458-0.854,0.681-1.305c0.184-0.372,0.355-0.718,0.462-0.901c0.476-0.827,1.68-1.033,2.742-1.215
				c0.211-0.036,0.416-0.071,0.606-0.11l3.401-0.716c2.243-0.207,4.302,0.587,5.366,1.462c4.233,3.475,5.238,4.301,5.238,5.28
				c0,0.412-0.202,0.766-0.458,1.214c-0.912,1.597-1.541,1.979-3.543,2.156c-0.027,0.007-6.304,1.2-13.161,1.943l-6.783,0.736
				c-0.204,0.032-0.384-0.01-0.52-0.125C55.812,101.416,55.706,101.273,55.706,101.027z M79.655,95.567
				c0-0.644-1.355-1.757-4.979-4.73c-0.922-0.758-2.819-1.491-4.81-1.31l-3.362,0.71c-0.2,0.041-0.412,0.077-0.631,0.115
				c-0.908,0.155-1.937,0.331-2.246,0.869c-0.102,0.176-0.265,0.506-0.44,0.861c-0.545,1.1-0.729,1.438-0.896,1.562l-1.918,1.421
				c-0.585,0.371-0.693,0.474-1.654,1.979l-1.467,2.296c-0.583,0.915-0.762,1.357-0.814,1.559l6.689-0.726
				c6.827-0.74,13.077-1.928,13.14-1.94c1.809-0.161,2.228-0.414,3.023-1.806C79.501,96.057,79.655,95.79,79.655,95.567z"/>
		</g>
		<g>
			<path d="M57.727,100.814c0.354-0.271,1.674-2.939,2.548-4.706c0.591-1.194,1.148-2.322,1.496-2.927l0.617,0.354
				c-0.337,0.586-0.89,1.705-1.476,2.889c-1.419,2.868-2.313,4.634-2.766,4.965L57.727,100.814z"/>
		</g>
		<g>
			<path d="M186.649,67.319c0-0.01,0-0.019,0.001-0.027c0.029-0.38,0.542-0.525,1.041-0.618l0.064,0.35
				c-0.73,0.136-0.75,0.288-0.75,0.295c0,0.003,0,0.006,0,0.01c0,0.988,11.16,4.853,15.935,6.506
				c11.046,3.823,17.959,6.992,23.008,9.306c6.404,2.935,9.931,4.552,15.343,4.552v0.355c-5.49,0-9.042-1.628-15.491-4.584
				c-5.042-2.311-11.947-5.475-22.976-9.293C189.305,69.489,186.649,68.13,186.649,67.319z"/>
		</g>
		<g>
			<path d="M101.518,82.386c0-3.453,2.152-6.186,7.429-9.433c5.709-3.514,12.803-7.88,22.324-7.88l21.581-0.001
				c20.377-0.008,26.527-0.011,43.165,6.061c16.948,6.183,25.194,11.588,27.187,13.582c1.647,1.646,2.328,3.11,2.893,4.94
				c0.795,2.572,2.354,9.708,2.354,14.541v0.874c0,2.278,0,9.213-0.332,15.202c-0.535,9.668-1.556,10.972-2.484,10.972
				l-92.045,0.001c-8.007,0.012-8.103-0.053-10.229-6.852c-0.239-0.764-0.506-1.615-0.814-2.565
				c-1.588-4.873-5.491-13.817-13.794-18.975c-3.324-2.065-3.524-3.019-4.633-8.313c-0.474-2.26-1.122-5.355-2.263-9.71
				C101.632,83.976,101.518,83.153,101.518,82.386z M227.74,105.071v-0.874c0-4.758-1.538-11.793-2.323-14.331
				c-0.547-1.771-1.167-3.099-2.716-4.647c-1.954-1.956-10.097-7.276-26.928-13.417c-16.52-6.027-22.64-6.025-42.921-6.017h-21.581
				c-9.32,0-16.025,4.127-21.942,7.769c-5.045,3.104-7.099,5.662-7.099,8.833c0,0.716,0.103,1.457,0.314,2.266
				c1.146,4.371,1.796,7.477,2.271,9.744c1.08,5.157,1.246,5.949,4.312,7.854c8.495,5.275,12.478,14.393,14.095,19.357
				c0.311,0.953,0.578,1.808,0.817,2.573c1.991,6.364,1.991,6.364,9.55,6.354l1.034-0.001h91.012
				C225.987,130.534,227.74,129.306,227.74,105.071z"/>
		</g>
		<g>
			<path d="M161.662,66.576l0.51,0.025c4.036,0.202,8.235,0.512,12.839,0.945c5.037,0.476,7.251,0.8,10.435,1.782
				c7.556,2.328,17.314,6.764,30.71,13.957l-0.337,0.627c-13.354-7.172-23.072-11.59-30.583-13.904
				c-3.124-0.964-5.309-1.283-10.292-1.753c-4.409-0.416-8.445-0.717-12.322-0.919c0.733,3.122,2.62,15.649,2.961,19.764
				c18.56,0.576,35.018,1.315,50.307,2.259l-0.044,0.709c-15.368-0.947-31.921-1.689-50.604-2.267l-0.321-0.01l-0.022-0.321
				c-0.3-4.293-2.522-18.623-3.083-20.407L161.662,66.576z"/>
		</g>
		<g>
			<path d="M155.222,66.354l0.474,0.011c2.173,0.05,4.291,0.127,6.476,0.235l0.247,0.013l0.074,0.236
				c0.626,1.988,2.838,16.6,3.114,20.571l0.027,0.392l-0.393-0.012c-2.694-0.083-5.482-0.164-8.365-0.243l-0.356-0.01l0.011-0.356
				c0.127-4.25-0.814-18.988-1.187-20.379L155.222,66.354z M161.88,67.298c-1.942-0.095-3.836-0.165-5.766-0.212
				c0.408,2.82,1.204,15.399,1.135,19.77c2.617,0.072,5.157,0.146,7.618,0.222C164.488,82.542,162.512,69.776,161.88,67.298z"/>
		</g>
		<g>
			<path d="M106.596,83.695l0.007-0.455c0.022-1.493,0.046-3.037,1.747-4.507c0.548-0.473,1.1-0.957,1.657-1.447
				c5.51-4.838,11.755-10.321,20.863-10.59l1.383-0.041c8.81-0.261,15.767-0.467,23.441-0.29l0.267,0.006l0.069,0.258
				c0.38,1.417,1.349,16.32,1.21,20.584l-0.011,0.354l-0.354-0.01c-14.955-0.408-31.25-0.714-48.433-0.907
				C107.442,86.637,106.596,85.285,106.596,83.695z M155.395,67.07c-7.545-0.165-14.431,0.039-23.12,0.296l-1.383,0.041
				c-8.853,0.261-14.996,5.654-20.416,10.414c-0.559,0.49-1.111,0.976-1.661,1.451c-1.46,1.261-1.479,2.521-1.5,3.979l-0.007,0.365
				l-0.356,0.079h0.355c0,1.235,0.626,2.237,1.145,2.244c17.049,0.191,33.225,0.494,48.086,0.897
				C156.614,82.38,155.785,69.404,155.395,67.07z"/>
		</g>
		<g>
			<path d="M158.546,66.926l0.676-0.223c0.476,1.44,2.292,16.463,2.403,20.612l-0.711,0.02
				C160.803,83.215,159.014,68.344,158.546,66.926z"/>
		</g>
		<g>
			<path d="M101.518,82.386c0-3.453,2.152-6.186,7.429-9.433c5.709-3.514,12.803-7.88,22.324-7.88l21.581-0.001
				c20.377-0.008,26.527-0.011,43.165,6.061c16.948,6.183,25.194,11.588,27.187,13.582c1.647,1.646,2.328,3.11,2.893,4.94
				c0.795,2.572,2.354,9.708,2.354,14.541v0.874c0,2.278,0,9.213-0.332,15.202c-0.535,9.668-1.556,10.972-2.484,10.972
				l-92.045,0.001c-8.007,0.012-8.103-0.053-10.229-6.852c-0.239-0.764-0.506-1.615-0.814-2.565
				c-1.588-4.873-5.491-13.817-13.794-18.975c-3.324-2.065-3.524-3.019-4.633-8.313c-0.474-2.26-1.122-5.355-2.263-9.71
				C101.632,83.976,101.518,83.153,101.518,82.386z M227.74,105.071v-0.874c0-4.758-1.538-11.793-2.323-14.331
				c-0.547-1.771-1.167-3.099-2.716-4.647c-1.954-1.956-10.097-7.276-26.928-13.417c-16.52-6.027-22.64-6.025-42.921-6.017h-21.581
				c-9.32,0-16.025,4.127-21.942,7.769c-5.045,3.104-7.099,5.662-7.099,8.833c0,0.716,0.103,1.457,0.314,2.266
				c1.146,4.371,1.796,7.477,2.271,9.744c1.08,5.157,1.246,5.949,4.312,7.854c8.495,5.275,12.478,14.393,14.095,19.357
				c0.311,0.953,0.578,1.808,0.817,2.573c1.991,6.364,1.991,6.364,9.55,6.354l1.034-0.001h91.012
				C225.987,130.534,227.74,129.306,227.74,105.071z"/>
		</g>
		<g>
			<path d="M239.441,87.979l0.049-0.352c21.861,3.043,44.272,11.952,50.881,15.825l-0.18,0.307
				C283.603,99.898,261.253,91.016,239.441,87.979z"/>
		</g>
		<g>
			<path d="M161.038,87.573c0.017,0.027,0.093,0.104,0.222,0.108l0.021-0.711c0.394,0.012,0.653,0.019,1.247,5.883
				c0.279,2.766,0.502,5.675,0.502,5.952c0,0.264,0.025,1.26,0.064,2.756c0.147,5.783,0.496,19.33,0.278,26.562
				c-0.057,1.875-0.281,2.287-0.57,2.631c-0.069,0.083-0.104,0.124-0.136,0.234l-0.684-0.199c0.074-0.254,0.186-0.386,0.274-0.492
				c0.148-0.176,0.351-0.418,0.404-2.195c0.216-7.212-0.13-20.744-0.278-26.521c-0.039-1.506-0.064-2.509-0.064-2.774
				C162.319,97.942,161.476,88.293,161.038,87.573z"/>
		</g>
		<g>
			<path d="M165.209,94.402L165.209,94.402l0.012-0.373c0.032-0.936,0.819-1.671,1.755-1.639l9.782,0.334
				c0.92,0.033,1.641,0.778,1.641,1.698l-0.013,0.374c-0.032,0.934-0.819,1.669-1.754,1.637l-9.783-0.334
				C165.929,96.068,165.209,95.322,165.209,94.402z M177.687,94.453c0-0.565-0.419-0.999-0.953-1.018l-9.781-0.334
				c-0.544-0.019-1.002,0.408-1.021,0.951l-0.011,0.316l-0.356,0.033h0.355l0,0c0,0.535,0.419,0.968,0.952,0.986l9.783,0.334
				c0.264,0.009,0.515-0.085,0.707-0.265s0.304-0.424,0.313-0.687L177.687,94.453C177.687,94.454,177.687,94.454,177.687,94.453z"/>
		</g>
		<g>
			<path d="M108.952,91.845L108.952,91.845l0.012-0.375c0.033-0.936,0.82-1.671,1.754-1.639l9.783,0.334
				c0.92,0.033,1.64,0.777,1.64,1.695l-0.012,0.375c-0.016,0.454-0.207,0.874-0.538,1.184c-0.331,0.309-0.764,0.471-1.216,0.455
				l-9.783-0.334C109.671,93.507,108.952,92.763,108.952,91.845z M121.428,91.894c0-0.566-0.418-0.999-0.952-1.018l-9.782-0.334
				c-0.543-0.019-1,0.408-1.02,0.952l-0.011,0.315l-0.356,0.035h0.355c0,0.533,0.419,0.966,0.953,0.984l9.782,0.334
				c0.264,0.009,0.515-0.085,0.707-0.265s0.304-0.424,0.313-0.687L121.428,91.894C121.428,91.895,121.428,91.895,121.428,91.894z"/>
		</g>
		<g>
			<path d="M161.662,66.576l0.51,0.025c4.036,0.202,8.235,0.512,12.839,0.945c5.037,0.476,7.251,0.8,10.435,1.782
				c7.556,2.328,17.314,6.764,30.71,13.957l-0.337,0.627c-13.354-7.172-23.072-11.59-30.583-13.904
				c-3.124-0.964-5.309-1.283-10.292-1.753c-4.409-0.416-8.445-0.717-12.322-0.919c0.733,3.122,2.62,15.649,2.961,19.764
				c18.56,0.576,35.018,1.315,50.307,2.259l-0.044,0.709c-15.368-0.947-31.921-1.689-50.604-2.267l-0.321-0.01l-0.022-0.321
				c-0.3-4.293-2.522-18.623-3.083-20.407L161.662,66.576z"/>
		</g>
		<g>
			<path d="M155.222,66.354l0.474,0.011c2.173,0.05,4.291,0.127,6.476,0.235l0.247,0.013l0.074,0.236
				c0.626,1.988,2.838,16.6,3.114,20.571l0.027,0.392l-0.393-0.012c-2.694-0.083-5.482-0.164-8.365-0.243l-0.356-0.01l0.011-0.356
				c0.127-4.25-0.814-18.988-1.187-20.379L155.222,66.354z M161.88,67.298c-1.942-0.095-3.836-0.165-5.766-0.212
				c0.408,2.82,1.204,15.399,1.135,19.77c2.617,0.072,5.157,0.146,7.618,0.222C164.488,82.542,162.512,69.776,161.88,67.298z"/>
		</g>
		<g>
			<path d="M106.596,83.695l0.007-0.455c0.022-1.493,0.046-3.037,1.747-4.507c0.548-0.473,1.1-0.957,1.657-1.447
				c5.51-4.838,11.755-10.321,20.863-10.59l1.383-0.041c8.81-0.261,15.767-0.467,23.441-0.29l0.267,0.006l0.069,0.258
				c0.38,1.417,1.349,16.32,1.21,20.584l-0.011,0.354l-0.354-0.01c-14.955-0.408-31.25-0.714-48.433-0.907
				C107.442,86.637,106.596,85.285,106.596,83.695z M155.395,67.07c-7.545-0.165-14.431,0.039-23.12,0.296l-1.383,0.041
				c-8.853,0.261-14.996,5.654-20.416,10.414c-0.559,0.49-1.111,0.976-1.661,1.451c-1.46,1.261-1.479,2.521-1.5,3.979l-0.007,0.365
				l-0.356,0.079h0.355c0,1.235,0.626,2.237,1.145,2.244c17.049,0.191,33.225,0.494,48.086,0.897
				C156.614,82.38,155.785,69.404,155.395,67.07z"/>
		</g>
		<g>
			<path d="M158.546,66.926l0.676-0.223c0.476,1.44,2.292,16.463,2.403,20.612l-0.711,0.02
				C160.803,83.215,159.014,68.344,158.546,66.926z"/>
		</g>
		<g>
			<path d="M214.555,86.911c0-0.695,0.877-3.357,1.932-4.34c0.314-0.294,0.636-0.431,0.954-0.408l0.528,0.032
				c0.876,0.05,1.406,0.08,2.501,0.52c1.026,0.411,1.603,2.01,2.066,3.294c0.199,0.55,0.471,1.304,0.627,1.416
				c0.283,0.005,0.95,0.052,1.532,0.093l0.188,0.013l0.095,0.163c0.553,0.952,0.875,1.887,1.118,2.675
				c0.027,0.098,0.035,0.159,0.035,0.219c0,0.179-0.07,0.338-0.202,0.462c-0.354,0.331-1.083,0.313-1.74,0.271
				c-0.878-0.061-2.044-0.135-3.359-0.217l-0.092-0.005l-0.078-0.051c-0.481-0.309-1.002-0.491-1.506-0.526
				c-0.029-0.002-2.889-0.202-3.408-0.361C215.09,89.961,214.555,87.477,214.555,86.911z M224.456,88.213
				c-0.53-0.038-1.092-0.077-1.401-0.098c-0.526-0.035-0.774-0.725-1.187-1.866c-0.394-1.09-0.932-2.583-1.662-2.875
				c-0.987-0.396-1.445-0.422-2.277-0.47l-0.538-0.033c-0.142-0.01-0.306,0.114-0.419,0.22c-0.879,0.819-1.706,3.32-1.706,3.819
				c0,0.663,0.532,2.387,0.759,2.605c0.171,0.038,1.66,0.189,3.179,0.296c0.595,0.041,1.202,0.244,1.761,0.587
				c1.28,0.08,2.414,0.152,3.254,0.21c0.925,0.06,1.163-0.024,1.225-0.08C225.117,89.591,224.823,88.876,224.456,88.213z"/>
		</g>
		<g>
			<path d="M215.705,90.039v-0.711c0.487,0,0.844-0.229,1.131-0.414c0.206-0.132,0.384-0.246,0.586-0.246h3.881
				c0.038-0.021,0.197-0.195,0.302-0.311c0.33-0.361,0.782-0.856,1.471-0.856v0.711c-0.375,0-0.665,0.318-0.946,0.625
				c-0.254,0.279-0.494,0.542-0.827,0.542h-3.881c-0.007,0.009-0.12,0.081-0.202,0.134
				C216.895,89.722,216.401,90.039,215.705,90.039z"/>
		</g>
		<g>
			<path d="M53.695,114.432v-0.711c5.217,0,8.467-0.654,9.659-1.944c0.387-0.418,0.551-0.909,0.506-1.473
				c-0.047-0.606-0.018-5.219,0.056-6.563c0.014-0.237,0.021-0.473,0.027-0.705c0.036-1.172,0.07-2.28,0.826-2.981l0.484,0.521
				c-0.538,0.499-0.566,1.418-0.599,2.482c-0.008,0.237-0.016,0.479-0.028,0.722c-0.076,1.38-0.1,5.951-0.058,6.468
				c0.069,0.758-0.171,1.448-0.692,2.011C62.525,113.721,59.194,114.432,53.695,114.432z"/>
		</g>
		<g>
			<path d="M61.92,93.024c1.697-3.776,6.247-8.377,6.293-8.423c0.696-0.697,2.007-1.007,3.162-1.281
				c0.687-0.163,1.396-0.331,1.643-0.526l0.443,0.555c-0.369,0.296-1.089,0.467-1.922,0.664c-1.011,0.239-2.27,0.537-2.823,1.092
				c-0.045,0.045-4.502,4.552-6.147,8.211L61.92,93.024z"/>
		</g>
		<g>
			<path d="M237.006,126.679c0-5.361,2.165-10.61,5.94-14.4c3.843-3.91,9.193-6.148,14.673-6.136
				c5.479-0.011,10.832,2.228,14.683,6.139c3.772,3.791,5.938,9.04,5.938,14.397l-0.002,0.282
				c-0.02,5.399-2.258,10.679-6.142,14.477c-3.813,3.817-9.092,5.982-14.479,5.934c-5.376,0.049-10.656-2.115-14.473-5.938
				c-3.878-3.79-6.117-9.068-6.137-14.476L237.006,126.679z M276.817,126.679c0-4.984-2.014-9.867-5.526-13.396
				c-3.587-3.644-8.569-5.727-13.672-5.718c-5.028-0.011-10.135,2.125-13.662,5.715c-3.515,3.528-5.529,8.411-5.529,13.399
				l0.001,0.265c0.018,5.037,2.101,9.946,5.715,13.478c3.555,3.561,8.463,5.573,13.473,5.528c5.02,0.045,9.928-1.968,13.478-5.523
				c3.619-3.538,5.702-8.449,5.72-13.479L276.817,126.679z"/>
		</g>
		<g>
			<path d="M235.887,125.467c0-12.058,9.775-21.833,21.833-21.833c12.058,0,21.833,9.775,21.833,21.833
				c0,3.779-0.338,4.477-0.338,6.145c0,0.727,0,0.946,0,1.881c0,0.051,0.007,0.103,0.011,0.155
				c-0.709,0.418-1.879,0.736-3.277,0.885c1.014-2.386,1.569-4.972,1.579-7.583c0.075-5.211-2.023-10.445-5.731-14.17
				c-3.687-3.746-8.897-5.937-14.178-5.927c-5.261-0.012-10.486,2.181-14.169,5.927c-3.711,3.725-5.806,8.957-5.731,14.174
				c0.01,2.719,0.617,5.411,1.715,7.881l-2.51,0.015c0.007-0.087,0.011-0.172,0.012-0.253c0.014-2.235-0.058,2.145-0.03-1.887
				c0.008-1.159-0.814-1.68-0.957-4.319C235.911,127.677,235.887,126.734,235.887,125.467z"/>
		</g>
		<g>
			<path d="M242.278,126.758c0-8.461,6.883-15.345,15.345-15.345c8.461,0,15.344,6.884,15.344,15.345s-6.883,15.344-15.344,15.344
				S242.278,135.219,242.278,126.758z M272.256,126.758c0-8.069-6.564-14.634-14.633-14.634s-14.634,6.564-14.634,14.634
				c0,8.068,6.565,14.633,14.634,14.633S272.256,134.827,272.256,126.758z"/>
		</g>
		<g>
			<path d="M77.191,126.683c0-5.364,2.165-10.614,5.94-14.404c3.843-3.91,9.192-6.148,14.674-6.136
				c5.479-0.011,10.832,2.228,14.683,6.139c3.772,3.791,5.938,9.041,5.938,14.401l-0.002,0.277c-0.02,5.4-2.259,10.68-6.143,14.478
				c-3.813,3.817-9.092,5.982-14.479,5.934c-5.376,0.049-10.656-2.115-14.473-5.938c-3.878-3.79-6.117-9.068-6.137-14.476
				L77.191,126.683z M117.003,126.683c0-4.986-2.015-9.871-5.526-13.4c-3.587-3.645-8.569-5.727-13.673-5.718
				c-5.028-0.011-10.134,2.125-13.662,5.715c-3.515,3.528-5.529,8.413-5.529,13.403l0.002,0.262
				c0.02,5.036,2.102,9.945,5.715,13.477c3.556,3.561,8.464,5.573,13.473,5.528c5.02,0.045,9.928-1.968,13.479-5.523
				c3.619-3.539,5.701-8.449,5.721-13.479L117.003,126.683z"/>
		</g>
		<g>
			<path d="M77.191,126.683c0-5.364,2.165-10.614,5.94-14.404c3.843-3.91,9.192-6.148,14.674-6.136
				c5.479-0.011,10.832,2.228,14.683,6.139c3.772,3.791,5.938,9.041,5.938,14.401l-0.002,0.277c-0.02,5.4-2.259,10.68-6.143,14.478
				c-3.813,3.817-9.092,5.982-14.479,5.934c-5.376,0.049-10.656-2.115-14.473-5.938c-3.878-3.79-6.117-9.068-6.137-14.476
				L77.191,126.683z M117.003,126.683c0-4.986-2.015-9.871-5.526-13.4c-3.587-3.645-8.569-5.727-13.673-5.718
				c-5.028-0.011-10.134,2.125-13.662,5.715c-3.515,3.528-5.529,8.413-5.529,13.403l0.002,0.262
				c0.02,5.036,2.102,9.945,5.715,13.477c3.556,3.561,8.464,5.573,13.473,5.528c5.02,0.045,9.928-1.968,13.479-5.523
				c3.619-3.539,5.701-8.449,5.721-13.479L117.003,126.683z"/>
		</g>
		<g>
			<path d="M76.435,125.941c0-12.058,9.774-21.833,21.833-21.833c12.057,0,21.832,9.775,21.832,21.833c0,0,0,2.566,0,3.778
				s-1.118-1.814-1.118,0.49c0,2.881-0.099,4.724-0.03,5.82l-3.546,0.021c1.471-2.787,2.293-5.924,2.305-9.099
				c0.075-5.211-2.023-10.445-5.731-14.17c-3.687-3.746-8.897-5.937-14.178-5.927c-5.261-0.012-10.486,2.181-14.168,5.927
				c-3.711,3.725-5.806,8.957-5.731,14.174c0.012,3.251,0.872,6.467,2.413,9.306l-2.241,0.013c-0.782,0-1.527-0.052-2.207-0.146
				C76.719,134.347,76.435,131.626,76.435,125.941z"/>
		</g>
		<g>
			<path d="M82.462,126.758c0-8.461,6.884-15.345,15.345-15.345s15.345,6.884,15.345,15.345s-6.884,15.344-15.345,15.344
				S82.462,135.219,82.462,126.758z M112.441,126.758c0-8.069-6.564-14.634-14.634-14.634s-14.634,6.564-14.634,14.634
				c0,8.068,6.564,14.633,14.634,14.633S112.441,134.827,112.441,126.758z"/>
		</g>
		<g>
			<path d="M278.77,101.454l0.012-0.129c0.037-0.175,0.137-0.322,0.283-0.419c0.147-0.097,0.323-0.13,0.495-0.094
				c3.516,0.718,8.158,1.688,12.863,2.828c1.071,0.264,2.137,0.537,3.198,0.834l0.452,0.131c0.904,0.26,1.838,0.528,2.74,0.952
				c1.071,0.633,1.834,1.519,2.528,2.373c0.676,0.858,1.309,1.788,1.882,2.768l0.048,0.083l0.006,0.473l-0.395,0.038
				c-2.217,0.059-4.482,0.02-6.723-0.115c-1.854-0.122-4.294-0.327-6.732-0.837c-0.886-0.192-2.194-0.524-3.348-1.181
				c-0.957-0.532-1.884-1.209-2.83-2.065c-1.624-1.495-3.096-3.272-4.377-5.285C278.806,101.701,278.77,101.579,278.77,101.454z
				 M302.334,110.592c-0.473-0.766-0.996-1.519-1.547-2.219c-0.649-0.8-1.365-1.632-2.305-2.188
				c-0.821-0.384-1.687-0.633-2.604-0.896l-0.451-0.13c-1.05-0.294-2.11-0.565-3.171-0.827c-4.637-1.124-9.217-2.083-12.714-2.798
				c1.231,1.916,2.64,3.609,4.188,5.034c0.903,0.818,1.787,1.463,2.699,1.971c1.073,0.61,2.31,0.923,3.148,1.105
				c2.392,0.5,4.799,0.702,6.629,0.822C298.244,110.589,300.303,110.631,302.334,110.592z"/>
		</g>
		<g>
			<path d="M286.771,127.055c0-0.157,0.029-0.448,0.22-0.624l0.115-0.105l0.229-0.016c2.715,0.235,5.085,0.518,7.249,0.862
				c1.165,0.201,2.403,0.429,3.661,0.806c0.3,0.094,0.62,0.199,0.949,0.348c0.169,0.077,0.335,0.16,0.502,0.271
				c0.218,0.132,0.42,0.359,0.556,0.633c0.524,0.875,0.82,2.554,0.683,4.022l-0.03,0.322l-0.348,0.038
				c-0.98,0.122-2.077,0.191-3.514,0.221c-1.215,0.027-2.426-0.029-3.562-0.089c-1.297-0.119-2.457-0.248-3.657-0.642l-0.108-0.04
				c-0.288-0.106-0.585-0.217-0.949-0.521c-0.353-0.362-0.646-0.817-0.923-1.416c-0.483-1.065-0.839-2.369-1.058-3.878
				c-0.007-0.051-0.012-0.104-0.014-0.159L286.771,127.055z M287.482,127.037c0,0.006,0,0.013,0,0.019h-0.356l0.356,0.016
				c0.216,1.517,0.553,2.756,1.007,3.759c0.239,0.516,0.495,0.918,0.76,1.192c0.241,0.199,0.449,0.275,0.712,0.373l0.098,0.036
				c1.115,0.365,2.233,0.489,3.472,0.603c1.109,0.059,2.305,0.114,3.496,0.088c1.288-0.026,2.295-0.085,3.22-0.188
				c0.005-0.13,0.009-0.281,0.009-0.434c0-1.141-0.247-2.291-0.629-2.931c-0.121-0.24-0.258-0.34-0.313-0.373
				c-0.146-0.096-0.28-0.161-0.416-0.224c-0.286-0.129-0.575-0.226-0.863-0.314c-1.217-0.365-2.431-0.588-3.57-0.784
				C292.379,127.542,290.091,127.267,287.482,127.037z"/>
		</g>
	</g>
</g>
</svg>
